<svg width="131" height="131" viewBox="0 0 131 131" fill="none" xmlns="http://www.w3.org/2000/svg">
<rect x="0.666016" y="0.5" width="130" height="130" rx="65" fill="#59BFBF" fill-opacity="0.2"/>
<g clip-path="url(#clip0_191_5294)">
<path d="M46.3469 100.5C46.0358 100.5 45.7812 100.243 45.7812 99.9286V87.4034C45.7812 87.0891 46.0358 86.832 46.3469 86.832C46.658 86.832 46.9125 87.0891 46.9125 87.4034V99.9286C46.9125 100.243 46.658 100.5 46.3469 100.5Z" fill="#111111"/>
<path d="M51.8865 100.5H40.8059C40.4948 100.5 40.2402 100.243 40.2402 99.9286C40.2402 99.6143 40.4948 99.3572 40.8059 99.3572H51.8894C52.2005 99.3572 52.455 99.6143 52.455 99.9286C52.455 100.243 52.2005 100.5 51.8894 100.5H51.8865Z" fill="#111111"/>
<path d="M46.8518 61.5759C46.3512 61.5759 45.828 61.5016 45.2935 61.3559C43.8624 60.9588 42.5813 60.0845 41.7724 58.9531C40.9692 57.8275 40.6497 56.4532 40.8674 55.0847C41.0852 53.7162 41.8205 52.5162 42.9348 51.7049C44.0491 50.8935 45.4066 50.5678 46.7641 50.7906C48.1188 51.0135 49.3066 51.7534 50.1098 52.8791C50.9158 54.0105 51.3316 55.5161 51.2524 57.0104C51.1647 58.6389 50.5114 59.9759 49.4113 60.7788C48.6873 61.3045 47.8077 61.573 46.849 61.573L46.8518 61.5759ZM45.9411 51.8677C45.1294 51.8677 44.3093 52.1163 43.6022 52.6305C42.734 53.2619 42.1599 54.199 41.9902 55.2676C41.8177 56.3361 42.0694 57.4075 42.6944 58.2846C43.3421 59.1931 44.4281 59.9302 45.5961 60.2531C46.815 60.5902 47.9378 60.4502 48.7551 59.8531C49.5725 59.2588 50.0617 58.2274 50.1296 56.9504C50.1947 55.7275 49.8468 54.4562 49.1992 53.5476C48.4158 52.4505 47.1883 51.8677 45.9411 51.8677Z" fill="#111111"/>
<path d="M56.063 100.411C55.7519 100.411 55.4974 100.154 55.4974 99.84V87.9719H45.1209C42.3889 87.9719 40.166 85.7263 40.166 82.9664V68.0784C40.166 65.3671 42.3493 63.1615 45.0333 63.1615C46.2692 63.1615 47.4853 63.5815 48.461 64.3472C49.4367 65.11 50.1466 66.1985 50.452 67.4099L52.1149 73.9468L56.9143 73.9868C59.0269 74.0039 60.7436 75.7553 60.7436 77.8866C60.7436 78.2009 60.4891 78.458 60.178 78.458C59.8669 78.458 59.6124 78.2009 59.6124 77.8866C59.6124 76.3781 58.3991 75.141 56.903 75.1296L51.6681 75.0867C51.4107 75.0867 51.1873 74.9096 51.1251 74.6582L49.3547 67.6927C49.1058 66.7128 48.5571 65.8671 47.7653 65.2471C46.9875 64.6386 46.0175 64.3015 45.0304 64.3015C42.9687 64.3015 41.2944 65.9928 41.2944 68.0756V82.9636C41.2944 85.092 43.0083 86.8262 45.1181 86.8262H56.0602C56.3713 86.8262 56.6258 87.0834 56.6258 87.3977V99.8371C56.6258 100.151 56.3713 100.409 56.0602 100.409L56.063 100.411Z" fill="#111111"/>
<path d="M80.9197 80.3351H50.4097C48.6025 80.3351 47.0244 79.098 46.5747 77.3295L44.66 69.7955C44.5837 69.4898 44.7647 69.1784 45.0673 69.1013C45.3699 69.0241 45.6782 69.207 45.7574 69.5127L47.672 77.0466C47.9944 78.3095 49.12 79.1923 50.4125 79.1923H80.9226C82.215 79.1923 83.3406 78.3095 83.663 77.0466L85.5777 69.5127C85.6569 69.207 85.9623 69.0241 86.2649 69.1013C86.5676 69.1784 86.7486 69.4898 86.6722 69.7955L84.7575 77.3295C84.3079 79.098 82.7298 80.3351 80.9226 80.3351H80.9197Z" fill="#111111"/>
<path d="M61.5533 100.411C61.2422 100.411 60.9877 100.154 60.9877 99.84V85.8463C60.9877 84.1378 59.6104 82.7464 57.9191 82.7464C57.608 82.7464 57.3535 82.4893 57.3535 82.175C57.3535 81.8608 57.608 81.6036 57.9191 81.6036C60.2354 81.6036 62.1189 83.5064 62.1189 85.8463V99.84C62.1189 100.154 61.8644 100.411 61.5533 100.411Z" fill="#111111"/>
<path d="M84.9856 100.5C84.6745 100.5 84.4199 100.243 84.4199 99.9286V87.4034C84.4199 87.0891 84.6745 86.832 84.9856 86.832C85.2966 86.832 85.5512 87.0891 85.5512 87.4034V99.9286C85.5512 100.243 85.2966 100.5 84.9856 100.5Z" fill="#111111"/>
<path d="M90.5261 100.5H79.4426C79.1315 100.5 78.877 100.243 78.877 99.9286C78.877 99.6143 79.1315 99.3572 79.4426 99.3572H90.5261C90.8372 99.3572 91.0917 99.6143 91.0917 99.9286C91.0917 100.243 90.8372 100.5 90.5261 100.5Z" fill="#111111"/>
<path d="M84.467 61.5673C83.5535 61.5673 82.6655 61.3273 81.9132 60.7816C80.813 59.9788 80.1597 58.6417 80.0721 57.0132C79.9929 55.5161 80.4086 54.0105 81.2146 52.882C82.8719 50.5592 86.0904 50.0307 88.3896 51.7049C89.5039 52.5163 90.2393 53.7162 90.457 55.0847C90.6748 56.4533 90.3552 57.8275 89.552 58.9531C88.4603 60.4817 86.4071 61.5673 84.4642 61.5673H84.467ZM85.3918 51.8677C84.1446 51.8677 82.9172 52.4506 82.1338 53.5477C81.4861 54.4562 81.1383 55.7276 81.2033 56.9504C81.2712 58.2275 81.7605 59.256 82.5778 59.8531C84.3793 61.1645 87.3658 60.0674 88.6385 58.2846C89.2635 57.4075 89.5152 56.3361 89.3427 55.2676C89.1702 54.1991 88.5989 53.2648 87.7307 52.6306C87.0236 52.1163 86.2035 51.8677 85.3918 51.8677Z" fill="#111111"/>
<path d="M75.2694 100.411C74.9583 100.411 74.7037 100.154 74.7037 99.84V87.4005C74.7037 87.0862 74.9583 86.8291 75.2694 86.8291H86.2115C88.3184 86.8291 90.0351 85.0977 90.0351 82.9664V68.0784C90.0351 65.9985 88.358 64.3043 86.2991 64.3043C85.3121 64.3043 84.342 64.6386 83.5643 65.25C82.7724 65.87 82.2238 66.7128 81.9749 67.6956L80.2045 74.661C80.1394 74.9125 79.9188 75.0896 79.6615 75.0896L74.4266 75.1324C72.9333 75.1439 71.7172 76.381 71.7172 77.8895C71.7172 78.2037 71.4627 78.4609 71.1516 78.4609C70.8405 78.4609 70.5859 78.2037 70.5859 77.8895C70.5859 75.7553 72.3055 74.0068 74.4153 73.9896L79.2146 73.9496L80.8776 67.4099C81.1858 66.1985 81.8929 65.11 82.8686 64.3472C83.8443 63.5843 85.0604 63.1615 86.2963 63.1615C88.9802 63.1615 91.1635 65.3671 91.1635 68.0784V82.9664C91.1635 85.7263 88.9406 87.9719 86.2086 87.9719H75.8322V99.84C75.8322 100.154 75.5776 100.411 75.2665 100.411H75.2694Z" fill="#111111"/>
<path d="M69.7766 100.411C69.4655 100.411 69.2109 100.154 69.2109 99.84V85.8463C69.2109 83.5064 71.0945 81.6036 73.4107 81.6036C73.7218 81.6036 73.9764 81.8608 73.9764 82.175C73.9764 82.4893 73.7218 82.7464 73.4107 82.7464C71.7195 82.7464 70.3422 84.1378 70.3422 85.8463V99.84C70.3422 100.154 70.0877 100.411 69.7766 100.411Z" fill="#111111"/>
<path d="M76.8493 56.6904H76.3063C76.1225 56.6904 75.9472 56.619 75.8142 56.4904L71.6258 52.3991H65.6895C63.6956 52.3991 62.0723 50.7535 62.0723 48.7278V39.1854C62.0723 37.1597 63.6956 35.5141 65.6895 35.5141H78.1927C80.1866 35.5141 81.8099 37.1597 81.8099 39.1854V48.7278C81.8099 50.7535 80.1866 52.3991 78.1927 52.3991H77.5507V55.9761C77.5507 56.3704 77.234 56.6904 76.8437 56.6904H76.8493ZM65.6923 36.9426C64.4762 36.9426 63.4892 37.9483 63.4892 39.1854V48.7278C63.4892 49.9649 64.479 50.9706 65.6923 50.9706H71.9142C72.0981 50.9706 72.2734 51.042 72.4063 51.1706L76.1423 54.8219V51.6849C76.1423 51.2906 76.4591 50.9706 76.8493 50.9706H78.1984C79.4145 50.9706 80.4015 49.9649 80.4015 48.7278V39.1854C80.4015 37.9483 79.4116 36.9426 78.1984 36.9426H65.6951H65.6923Z" fill="#59BFBF"/>
<path d="M54.0112 51.6763H53.4682C53.0779 51.6763 52.7611 51.3563 52.7611 50.962V47.385H52.1192C50.1253 47.385 48.502 45.7394 48.502 43.7137V34.1713C48.502 32.1456 50.1253 30.5 52.1192 30.5H64.6224C66.6162 30.5 68.2396 32.1456 68.2396 34.1713C68.2396 34.5655 67.9228 34.8855 67.5326 34.8855C67.1423 34.8855 66.8255 34.5655 66.8255 34.1713C66.8255 32.9342 65.8357 31.9285 64.6224 31.9285H52.1192C50.9031 31.9285 49.916 32.9342 49.916 34.1713V43.7137C49.916 44.9508 50.9059 45.9565 52.1192 45.9565H53.4682C53.8585 45.9565 54.1752 46.2765 54.1752 46.6708V49.8078L57.9112 46.1565C58.0441 46.0279 58.2195 45.9565 58.4033 45.9565H60.6262C61.0165 45.9565 61.3333 46.2765 61.3333 46.6708C61.3333 47.065 61.0165 47.385 60.6262 47.385H58.6889L54.5005 51.4763C54.3675 51.6049 54.1922 51.6763 54.0084 51.6763H54.0112Z" fill="#59BFBF"/>
</g>
<defs>
<clipPath id="clip0_191_5294">
<rect width="51" height="70" fill="white" transform="translate(40.166 30.5)"/>
</clipPath>
</defs>
</svg>
