<svg width="120" height="120" viewBox="0 0 120 120" fill="none" xmlns="http://www.w3.org/2000/svg">
<rect width="120" height="120" rx="60" fill="#54D2D2" fill-opacity="0.1"/>
<g clip-path="url(#clip0_1353_6120)">
<path d="M53.6943 40.918C55.9163 40.3501 58.1778 41.6897 58.7441 43.9092C59.3123 46.1322 57.972 48.3937 55.752 48.96C53.531 49.528 51.2696 48.1888 50.7031 45.9678V45.9668C50.1353 43.745 51.4739 41.4858 53.6943 40.918Z" stroke="#28B7B7"/>
<path d="M60.7236 63.9473C64.503 66.1449 66.8986 70.241 66.8994 74.6348C66.8987 81.4509 61.3506 86.9982 54.5342 87C50.221 86.9985 46.2008 84.7198 43.9639 81.0312L45.0225 78.6973C45.5376 79.9084 46.2792 81.0143 47.2158 81.9521H47.2168C49.1721 83.9041 51.7725 84.9816 54.5332 84.9834H54.5342C57.2966 84.9817 59.8955 83.9048 61.8516 81.9531L61.8525 81.9521C63.8055 79.9958 64.882 77.3957 64.8828 74.6348L64.8701 74.1191C64.7441 71.5513 63.6836 69.1506 61.8525 67.3174L61.8516 67.3164C61.4448 66.9112 60.9935 66.537 60.5098 66.1953L60.7236 63.9473Z" stroke="#28B7B7"/>
<path d="M55.2061 51.8525C56.8577 52.0032 57.9367 53.3634 57.9248 55.0693L57.9072 55.415L56.7266 67.7832C56.524 69.6838 55.9679 70.9536 55.0557 71.7637C54.1399 72.5766 52.7799 73.0027 50.8037 73.0244H42.3936L42.2588 73.3125L38.0361 82.333H38.0352L38.0322 82.3398C37.5782 83.35 36.3905 83.8021 35.3779 83.3467L35.1953 83.2529C34.3145 82.7446 33.944 81.6403 34.3701 80.6934L34.3779 80.6768L34.3848 80.6592L38.127 70.376C38.5458 69.379 38.9741 68.7261 39.5225 68.3037C40.0643 67.8866 40.7819 67.6505 41.8701 67.6074L41.8789 67.6064H41.8867L49.8271 67.0264L50.251 66.9961L50.2891 66.5732L50.834 60.54L50.9346 59.4316L50.0391 60.0928L47.5068 61.9619C47.1195 62.2481 46.6522 62.4023 46.1699 62.4023H39.9072C39.1418 62.4021 38.5215 61.7809 38.5215 61.0166V60.9023C38.5217 60.1831 39.0733 59.5829 39.792 59.5225L45.8701 59.0117L46.0498 58.9971L46.1787 58.8701L51.9873 53.1523L51.999 53.1406C52.7565 52.3423 54.0472 51.7462 55.2061 51.8525Z" stroke="#28B7B7"/>
<path d="M76.0088 33.1299C78.231 32.5626 80.4923 33.9035 81.0586 36.123C81.6267 38.346 80.2873 40.6075 78.0674 41.1738H78.0664C75.8447 41.7416 73.5847 40.4018 73.0176 38.1807C72.4502 35.9586 73.7876 33.6986 76.0088 33.1299Z" stroke="#111111"/>
<path d="M76.2002 45.2002C77.4173 44.0813 79.0975 43.742 80.5264 44.1416C81.8483 44.5114 82.9579 45.5121 83.291 47.1504L83.3467 47.4863L85.4561 63.9033L85.8076 85.0234C85.8036 86.0477 85.0166 86.9007 83.9932 86.9863H83.9912L83.8975 86.9941C82.8128 87.082 81.8613 86.2791 81.7666 85.1973L81.7656 85.1914L80.3262 70.7461L79.3662 70.6045L73.3965 85.0654C72.9957 86.0124 71.9362 86.4953 70.958 86.1738L70.9531 86.1719L70.8633 86.1436C69.8322 85.8019 69.2693 84.6928 69.6025 83.6602L69.6035 83.6592L74.9141 67.0928L74.918 67.083L74.9199 67.0732C74.9988 66.7869 75.2843 66.0474 75.5684 65.2285C75.7051 64.8345 75.8376 64.4311 75.9316 64.0869C75.9785 63.9153 76.0176 63.7503 76.043 63.6035C76.0605 63.5019 76.0757 63.3846 76.0742 63.2695L76.0674 63.1553L74.7402 52.8037L74.6416 52.0371L73.9824 52.4414L71.6104 53.8965L71.6016 53.9014L71.5918 53.9082C70.76 54.4692 69.8301 54.8722 68.8516 55.0977L68.8418 55.1006L68.832 55.1025L63.998 56.4277C63.2677 56.5933 62.5318 56.171 62.3076 55.457H62.3086L62.2852 55.3818L62.2842 55.377L62.249 55.2393C62.1068 54.5505 62.4869 53.849 63.1602 53.6016L63.1641 53.6006L69.459 51.2324L69.5479 51.1992L69.6182 51.1357L76.1963 45.2041L76.2002 45.2002Z" stroke="#111111"/>
</g>
<defs>
<clipPath id="clip0_1353_6120">
<rect width="55" height="55" fill="white" transform="translate(32.5 32.5)"/>
</clipPath>
</defs>
</svg>
