<svg width="120" height="120" viewBox="0 0 120 120" fill="none" xmlns="http://www.w3.org/2000/svg">
<rect width="120" height="120" rx="60" fill="#54D2D2" fill-opacity="0.1"/>
<g clip-path="url(#clip0_1353_6112)">
<path d="M46.499 33V36.6836H50.4268V38.6289H46.499V44.9316L46.6221 45.0732L56.8115 56.749V58.8838H74.249L85.7607 72.0752V87H59.9404V72.0996H56.8115V87H48.8496V78.4512C48.8496 76.6162 47.3615 75.127 45.5254 75.127C43.6914 75.1272 42.2021 76.6161 42.2021 78.4512V87H34.2402V56.749L44.4287 45.0752L44.5527 44.9336V38.6289H40.624V36.6836H44.5527V33H46.499ZM64.8389 83.0312H70.0957V76.9219H64.8389V83.0312ZM73.7793 83.0312H79.0361V76.9219H73.7793V83.0312Z" stroke="#111111"/>
</g>
<defs>
<clipPath id="clip0_1353_6112">
<rect width="55" height="55" fill="white" transform="translate(32.5 32.5)"/>
</clipPath>
</defs>
</svg>
