<svg width="120" height="120" viewBox="0 0 120 120" fill="none" xmlns="http://www.w3.org/2000/svg">
<rect width="120" height="120" rx="60" fill="#54D2D2" fill-opacity="0.1"/>
<g clip-path="url(#clip0_1353_6039)">
<path d="M54.5264 65.3125H68.2393C69.8555 65.3127 71.167 66.6238 71.167 68.2432C71.1667 69.8631 69.8515 71.1912 68.2393 71.1914H58.8486C57.9103 71.1683 57.122 71.9097 57.0879 72.8516V72.8545C57.059 73.8029 57.8004 74.599 58.751 74.6318L58.8779 74.6357L58.9268 74.6113H71.7578L71.8838 74.5293V74.5283H71.8848C71.8857 74.5277 71.8878 74.5266 71.8896 74.5254C71.8934 74.5229 71.899 74.5185 71.9062 74.5137C71.9211 74.5039 71.9431 74.4896 71.9717 74.4707C72.0292 74.4327 72.1136 74.3763 72.2217 74.3047C72.4378 74.1615 72.7488 73.9562 73.126 73.7051C73.8804 73.2028 74.9022 72.5193 75.9727 71.7959C78.0809 70.3711 80.4152 68.7634 81.2305 68.0908C81.9993 67.522 82.9572 67.1688 83.8623 67.124C84.7646 67.0794 85.5723 67.34 86.123 67.9404C86.7253 68.5967 87.009 69.3359 87 70.0352C86.991 70.7287 86.6935 71.4263 86.0547 72.0146C85.2665 72.666 81.7065 75.3068 78.3105 77.8076C76.6075 79.0617 74.9527 80.2763 73.7236 81.1768C73.1093 81.6268 72.6015 81.9986 72.2471 82.2578C72.0699 82.3874 71.9304 82.4885 71.8359 82.5576C71.7888 82.5921 71.7529 82.6189 71.7285 82.6367C71.7164 82.6456 71.7073 82.6527 71.7012 82.6572C71.6981 82.6595 71.6949 82.661 71.6934 82.6621L71.6914 82.6641L71.6768 82.6738L71.6631 82.6855C69.5504 84.4726 67.8174 85.4196 65.8955 85.8926C63.9581 86.3693 61.7911 86.3748 58.7764 86.21L43.1816 84.6016V71.0264C43.9163 69.8 44.6847 68.4326 46.2373 67.3301C47.832 66.1977 50.3098 65.3125 54.5264 65.3125Z" stroke="#111111"/>
<path d="M39.4502 68.0449V85.1738H33V68.0449H39.4502Z" stroke="#111111"/>
<path d="M60.8525 50.2051C63.6167 50.2051 65.8583 52.4458 65.8584 55.21C65.8584 57.9742 63.6168 60.2158 60.8525 60.2158C58.0884 60.2157 55.8477 57.9741 55.8477 55.21C55.8478 52.4459 58.0885 50.2052 60.8525 50.2051Z" stroke="#54D2D2"/>
<path d="M73.9307 42.8623C76.2485 42.8624 78.127 44.7408 78.127 47.0576C78.1269 49.3742 76.2485 51.2528 73.9307 51.2529C71.6149 51.2529 69.7364 49.3745 69.7363 47.0576C69.7363 44.7406 71.6149 42.8623 73.9307 42.8623Z" stroke="#54D2D2"/>
<path d="M62.3398 33.6924C64.2811 33.6924 65.8552 35.2659 65.8555 37.207C65.8555 39.1474 64.2814 40.7217 62.3398 40.7217C60.3997 40.7214 58.8262 39.1473 58.8262 37.207C58.8264 35.266 60.3999 33.6926 62.3398 33.6924Z" stroke="#54D2D2"/>
</g>
<defs>
<clipPath id="clip0_1353_6039">
<rect width="55" height="55" fill="white" transform="translate(32.5 32.5)"/>
</clipPath>
</defs>
</svg>
