<svg width="120" height="120" viewBox="0 0 120 120" fill="none" xmlns="http://www.w3.org/2000/svg">
<rect width="120" height="120" rx="60" fill="#54D2D2" fill-opacity="0.1"/>
<g clip-path="url(#clip0_1353_6127)">
<path d="M47.9766 74.1025L43.1748 84.3379L43.1738 84.3389C42.7751 85.1908 41.7568 85.559 40.9033 85.1592H40.9043L40.2021 84.8301C39.347 84.4288 38.9805 83.4129 39.3818 82.5596V82.5586L43.3477 74.1025H47.9766Z" stroke="#111111"/>
<path d="M83.3584 84.8291L82.6553 85.1592C81.855 85.5339 80.9102 85.2333 80.4668 84.4922L80.3848 84.3379L75.582 74.1016H76.1709C77.4921 74.1015 78.7104 73.3517 79.3096 72.1777L84.1768 82.5586L84.1777 82.5596C84.5789 83.4128 84.2116 84.4278 83.3584 84.8291Z" stroke="#111111"/>
<path d="M83.1152 48.1855C83.3427 47.7006 83.921 47.4915 84.4072 47.7197L86.4414 48.6738C86.897 48.8881 87.1102 49.4099 86.9473 49.875L86.9092 49.9668L77.0488 70.9844C76.8889 71.3254 76.5463 71.5429 76.1699 71.543H43.2471C42.7096 71.543 42.2754 71.1085 42.2754 70.5723V68.3232C42.2756 67.7868 42.7101 67.3516 43.2471 67.3516H72.8701C73.6351 67.3516 74.3315 66.9091 74.6562 66.2178L83.1152 48.1855Z" stroke="#111111"/>
<path d="M54.043 46.6963C53.8515 46.7321 53.6543 46.7695 53.4531 46.8164L53.1299 46.8965C52.9974 46.9356 52.8669 46.9771 52.7383 47.0205L52.8535 47.4141L53.3584 49.1191L57.9023 64.5195C58.0067 64.873 58.3803 65.0775 58.7373 64.9727C59.0935 64.8678 59.2953 64.4959 59.1914 64.1436L54.1455 47.0439L54.043 46.6963ZM49.4248 33.0039L49.3086 33.0273C48.9998 33.1179 48.807 33.41 48.8311 33.7168L48.8613 34.0967L48.5029 34.2256C45.8106 35.2026 43.4913 36.784 41.6543 38.7676L41.2939 39.1699C39.9873 40.6694 38.9522 42.3821 38.2246 44.2236H38.2236C37.1257 46.9968 36.7327 50.0633 37.1914 53.1523C37.4611 52.7372 37.807 52.3431 38.209 51.9834C39.1187 51.1694 40.3532 50.4894 41.7744 50.0723C44.0504 49.4043 46.3429 49.5508 47.7988 50.4541L48.0684 50.6377C48.1377 50.687 48.2028 50.7385 48.2646 50.791C48.4702 50.1106 48.8971 49.4561 49.4863 48.8652C49.1511 49.1612 48.8521 49.4728 48.5928 49.7949L48.5859 49.8037C48.5516 49.8445 48.4893 49.9052 48.3926 49.9453C48.2864 49.9893 48.1696 49.9949 48.0615 49.9639C47.9626 49.9354 47.8937 49.8804 47.8477 49.835L47.7646 49.9463L47.6924 49.5283C47.6871 49.5035 47.6802 49.4802 47.6768 49.4609C47.6693 49.4183 47.6628 49.3686 47.6553 49.3174L47.5654 48.8037L47.5244 48.5332L47.5225 48.5195C47.4902 48.2463 47.4573 47.9702 47.4277 47.7041C47.0956 44.7198 47.006 42.1832 47.1172 40.1484C47.2276 38.1268 47.5389 36.5536 48.043 35.5273L48.0449 35.5215L48.1465 35.332C48.1789 35.2748 48.2148 35.2183 48.252 35.1631H48.25C48.587 34.6128 49.0335 34.1915 49.6055 34.0234C50.17 33.8578 50.7653 33.9661 51.3398 34.2383C51.4774 34.2958 51.6116 34.37 51.7305 34.4395L51.7373 34.4434C52.7145 35.0341 53.8299 36.1858 55.0205 37.8242C56.2187 39.4731 57.5194 41.6527 58.8584 44.3418C58.998 44.6221 59.1264 44.9941 59.2197 45.3447C59.3113 45.6889 59.3838 46.0648 59.3838 46.3477V46.8477H58.9795C59.2966 46.9997 59.5844 47.1807 59.835 47.3936C59.8541 47.3273 59.8772 47.2446 59.9082 47.1611L59.9111 47.1553C60.5524 45.4944 62.4874 43.9924 64.9062 43.2822C66.326 42.8655 67.7309 42.7703 68.9365 42.9619C69.4725 43.0471 69.9795 43.1913 70.4336 43.3955C67.0363 35.9194 58.7763 31.7523 50.6367 33.5996L50.2666 33.6836L50.0859 33.3496C49.9577 33.1125 49.6955 32.9739 49.4248 33.0039Z" stroke="#54D2D2"/>
</g>
<defs>
<clipPath id="clip0_1353_6127">
<rect width="55" height="55" fill="white" transform="translate(32.5 32.5)"/>
</clipPath>
</defs>
</svg>
