<svg width="120" height="120" viewBox="0 0 120 120" fill="none" xmlns="http://www.w3.org/2000/svg">
<rect width="120" height="120" rx="60" fill="#54D2D2" fill-opacity="0.1"/>
<g clip-path="url(#clip0_1353_6105)">
<path d="M68.5273 33.0186C68.9938 32.9585 69.4371 33.0505 69.6523 33.165C73.1815 35.0467 75.9931 37.3723 79.4619 43.4092C81.5898 47.1119 83.3347 51.5545 84.5498 55.084C85.1564 56.8461 85.6292 58.3756 85.9502 59.4639C86.1106 60.0076 86.2332 60.4412 86.3154 60.7383C86.3565 60.8868 86.3885 61.0021 86.4092 61.0791C86.4195 61.1174 86.4265 61.1467 86.4316 61.166C86.4342 61.1756 86.4363 61.1828 86.4375 61.1875C86.4381 61.1897 86.4392 61.1912 86.4395 61.1924V61.1943L86.4473 61.2227L86.458 61.25C86.6112 61.6405 86.6147 62.0716 86.4727 62.4609L86.4023 62.625C86.2181 63.0015 85.9038 63.296 85.5205 63.4551L85.3516 63.5146L81.9512 64.5234C81.1395 64.7643 80.2736 64.3745 79.916 63.6084V63.6074L75.6318 54.4443C75.5213 54.2076 75.2794 54.0604 75.0205 54.0713L74.915 54.085C74.6313 54.1436 74.4202 54.3848 74.4014 54.6768H74.3994L72.3076 81.667L72.3066 81.6807V81.6934C72.2333 84.5686 70.3213 87.0065 67.3145 87H67.3115C64.5595 87.0064 62.3895 84.6259 62.2637 81.7969V81.7822L62.2617 81.7686L61.3232 72.4717L61.2783 72.0215H58.7236L58.6787 72.4717L57.7402 81.7686L57.7383 81.7822V81.7969C57.6124 84.6259 55.4418 87.0066 52.6895 87H52.6875C49.6805 87.0066 47.7676 84.5685 47.6943 81.6934V81.6807L47.6934 81.667L45.6016 54.6768H45.5996C45.5811 54.39 45.3767 54.147 45.0918 54.0859H45.0928C44.8002 54.0219 44.4981 54.1684 44.3701 54.4443H44.3691L40.0859 63.6074V63.6084C39.7507 64.3268 38.9685 64.7136 38.2031 64.5605L38.0508 64.5234L34.6494 63.5146C34.1905 63.3781 33.8091 63.0554 33.5986 62.625C33.3889 62.1955 33.3688 61.6963 33.5439 61.25L33.5547 61.2227L33.5625 61.1943V61.1924C33.5628 61.1912 33.5639 61.1897 33.5645 61.1875C33.5657 61.1828 33.5668 61.1755 33.5693 61.166C33.5745 61.1467 33.5825 61.1174 33.5928 61.0791C33.6135 61.0021 33.6444 60.8868 33.6855 60.7383C33.7678 60.4412 33.8904 60.0077 34.0508 59.4639C34.3717 58.3756 34.8446 56.8462 35.4512 55.084C36.6661 51.5545 38.4107 47.1119 40.5391 43.4092C44.0078 37.3723 46.8198 35.0466 50.3486 33.165C50.5638 33.0504 51.0073 32.9586 51.4736 33.0186C51.9335 33.0777 52.3062 33.2682 52.502 33.5898C54.1518 36.3003 56.5005 38.3184 60.001 38.3184C63.5015 38.3183 65.8493 36.3002 67.5 33.5898C67.6957 33.2683 68.0676 33.0778 68.5273 33.0186ZM60.001 60.5615C58.4832 60.5615 57.2539 61.7919 57.2539 63.3096C57.2541 64.8276 58.483 66.0576 60.001 66.0576C61.5189 66.0575 62.7479 64.8275 62.748 63.3096C62.748 61.7918 61.5187 60.5616 60.001 60.5615ZM60.001 52.0527C58.4833 52.0527 57.2541 53.2815 57.2539 54.7998C57.2539 56.3176 58.4833 57.5469 60.001 57.5469C61.5186 57.5468 62.748 56.3175 62.748 54.7998C62.7479 53.2816 61.5186 52.0528 60.001 52.0527ZM60.001 43.542C58.4832 43.542 57.2541 44.7717 57.2539 46.29C57.2539 47.8075 58.483 49.0381 60.001 49.0381C61.5189 49.038 62.748 47.8075 62.748 46.29C62.7479 44.7717 61.5186 43.5421 60.001 43.542Z" stroke="#111111"/>
</g>
<defs>
<clipPath id="clip0_1353_6105">
<rect width="55" height="55" fill="white" transform="translate(32.5 32.5)"/>
</clipPath>
</defs>
</svg>
