<svg width="120" height="120" viewBox="0 0 120 120" fill="none" xmlns="http://www.w3.org/2000/svg">
<rect width="120" height="120" rx="60" fill="#54D2D2" fill-opacity="0.1"/>
<g clip-path="url(#clip0_1353_6098)">
<path d="M53.498 68.876C54.3728 69.0319 55.2657 69.1279 56.1738 69.1279C57.0759 69.1279 57.9701 69.0437 58.8408 68.8799L58.8389 68.9238V68.9229L58.8125 69.3291V69.332L58.6182 72.4102L57.4414 72.4229L56.9463 72.4277V72.9648L56.9629 79.6514C56.9633 82.8324 59.5513 85.4189 62.7324 85.4189C65.2645 85.4189 67.5315 83.7201 68.2529 81.2861L68.3877 80.8311L67.9414 80.6729C65.5719 79.8301 63.9697 77.5507 63.9697 75.0215C63.9698 71.692 66.679 68.9824 70.0088 68.9824C73.3386 68.9824 76.0478 71.6921 76.0479 75.0215C76.0479 78.2454 73.5239 80.8917 70.2998 81.0459L69.9268 81.0635L69.8379 81.4268C69.0396 84.7025 66.1127 86.999 62.7324 86.999C58.8778 86.999 55.7346 84.0746 55.4189 80.2715L55.3975 79.9014L55.3838 72.9043L55.3828 72.3994L54.8789 72.4053L53.7412 72.417L53.4912 68.9082L53.5 68.9102L53.498 68.876ZM70.0088 72.0957C68.3954 72.0957 67.0831 73.4081 67.083 75.0215C67.083 76.6355 68.3953 77.9473 70.0088 77.9473C71.6223 77.9472 72.9346 76.6354 72.9346 75.0215C72.9345 73.408 71.6221 72.0957 70.0088 72.0957Z" stroke="#111111"/>
<path d="M47.3252 33C48.6783 33 49.7794 34.1015 49.7793 35.4541C49.7792 36.5957 48.9676 37.6048 47.8535 37.8496L47.46 37.9365L47.4609 38.3389L47.4736 47.1836H44.8877L44.8711 35.4541C44.8711 34.1016 45.9722 33.0001 47.3252 33Z" stroke="#111111"/>
<path d="M65.2158 33C66.5684 33 67.6699 34.1015 67.6699 35.4541V47.1836H65.083L65.0664 38.3203L65.0654 37.915L64.6689 37.832C63.5751 37.6029 62.7617 36.5981 62.7617 35.4541C62.7617 34.1016 63.8629 33.0001 65.2158 33Z" stroke="#111111"/>
<path d="M68.3965 54.6709C68.3959 60.0101 64.9041 64.7315 59.8438 66.3271L59.3486 66.4717C58.317 66.7503 57.2486 66.8916 56.1738 66.8916C55.2336 66.8916 54.2979 66.7841 53.3877 66.5703L52.999 66.4717C47.6724 65.0355 43.9514 60.1819 43.9512 54.6699V50.459L48.0518 50.4443L48.0674 54.6709V54.6758L48.0762 55.3125V55.8057H48.1416C48.1811 56.068 48.2327 56.324 48.293 56.5732L48.2939 56.5771C49.1821 60.1285 52.4133 62.7676 56.1738 62.7676C60.3529 62.7674 63.8958 59.509 64.2441 55.3457L64.2461 55.3271V55.3076L64.2754 50.459L68.3799 50.4443L68.3965 54.6709Z" stroke="#111111"/>
</g>
<defs>
<clipPath id="clip0_1353_6098">
<rect width="55" height="55" fill="white" transform="translate(32.5 32.5)"/>
</clipPath>
</defs>
</svg>
