<svg width="120" height="120" viewBox="0 0 120 120" fill="none" xmlns="http://www.w3.org/2000/svg">
<rect width="120" height="120" rx="60" fill="#54D2D2" fill-opacity="0.1"/>
<g clip-path="url(#clip0_1367_6421)">
<path d="M40.6809 95C40.3698 95 40.1152 94.7429 40.1152 94.4286V81.9034C40.1152 81.5892 40.3698 81.332 40.6809 81.332C40.992 81.332 41.2465 81.5892 41.2465 81.9034V94.4286C41.2465 94.7429 40.992 95 40.6809 95Z" fill="#111111"/>
<path d="M46.2205 95.0002H35.1398C34.8288 95.0002 34.5742 94.7431 34.5742 94.4288C34.5742 94.1146 34.8288 93.8574 35.1398 93.8574H46.2234C46.5345 93.8574 46.789 94.1146 46.789 94.4288C46.789 94.7431 46.5345 95.0002 46.2234 95.0002H46.2205Z" fill="#111111"/>
<path d="M41.1858 56.0764C40.6852 56.0764 40.162 56.0021 39.6275 55.8564C38.1964 55.4592 36.9153 54.585 36.1064 53.4536C35.3032 52.3279 34.9836 50.9537 35.2014 49.5852C35.4192 48.2167 36.1545 47.0167 37.2688 46.2053C38.3831 45.3939 39.7406 45.0682 41.0981 45.2911C42.4528 45.5139 43.6406 46.2539 44.4438 47.3796C45.2498 48.511 45.6656 50.0166 45.5864 51.5108C45.4987 53.1393 44.8454 54.4764 43.7452 55.2793C43.0212 55.805 42.1417 56.0735 41.1829 56.0735L41.1858 56.0764ZM40.2751 46.3682C39.4634 46.3682 38.6433 46.6168 37.9362 47.131C37.068 47.7624 36.4939 48.6995 36.3242 49.7681C36.1517 50.8366 36.4034 51.908 37.0284 52.7851C37.676 53.6936 38.762 54.4307 39.9301 54.7536C41.149 55.0907 42.2718 54.9507 43.0891 54.3536C43.9065 53.7593 44.3957 52.7279 44.4636 51.4508C44.5286 50.228 44.1808 48.9567 43.5331 48.0481C42.7497 46.951 41.5223 46.3682 40.2751 46.3682Z" fill="#111111"/>
<path d="M50.397 94.912C50.0859 94.912 49.8314 94.6549 49.8314 94.3406V82.4725H39.4549C36.7229 82.4725 34.5 80.2269 34.5 77.467V62.5791C34.5 59.8677 36.6833 57.6621 39.3672 57.6621C40.6031 57.6621 41.8192 58.0821 42.795 58.8478C43.7707 59.6106 44.4805 60.6991 44.786 61.9105L46.4489 68.4474L51.2483 68.4874C53.3609 68.5045 55.0776 70.2559 55.0776 72.3872C55.0776 72.7015 54.8231 72.9586 54.512 72.9586C54.2009 72.9586 53.9463 72.7015 53.9463 72.3872C53.9463 70.8787 52.7331 69.6416 51.237 69.6302L46.0021 69.5873C45.7447 69.5873 45.5213 69.4102 45.4591 69.1588L43.6887 62.1934C43.4398 61.2134 42.8911 60.3677 42.0992 59.7477C41.3215 59.1392 40.3514 58.8021 39.3644 58.8021C37.3027 58.8021 35.6284 60.4934 35.6284 62.5762V77.4642C35.6284 79.5926 37.3423 81.3269 39.4521 81.3269H50.3942C50.7053 81.3269 50.9598 81.584 50.9598 81.8983V94.3378C50.9598 94.652 50.7053 94.9092 50.3942 94.9092L50.397 94.912Z" fill="#111111"/>
<path d="M75.2537 74.8355H44.7437C42.9365 74.8355 41.3584 73.5984 40.9087 71.8299L38.994 64.2959C38.9177 63.9902 39.0987 63.6788 39.4013 63.6016C39.7039 63.5245 40.0122 63.7073 40.0913 64.013L42.006 71.547C42.3284 72.8098 43.454 73.6926 44.7465 73.6926H75.2565C76.549 73.6926 77.6746 72.8098 77.997 71.547L79.9117 64.013C79.9909 63.7073 80.2963 63.5245 80.5989 63.6016C80.9015 63.6788 81.0825 63.9902 81.0062 64.2959L79.0915 71.8299C78.6418 73.5984 77.0637 74.8355 75.2565 74.8355H75.2537Z" fill="#111111"/>
<path d="M55.8873 94.9113C55.5762 94.9113 55.3217 94.6542 55.3217 94.3399V80.3462C55.3217 78.6377 53.9444 77.2463 52.2531 77.2463C51.942 77.2463 51.6875 76.9892 51.6875 76.6749C51.6875 76.3606 51.942 76.1035 52.2531 76.1035C54.5694 76.1035 56.4529 78.0063 56.4529 80.3462V94.3399C56.4529 94.6542 56.1984 94.9113 55.8873 94.9113Z" fill="#111111"/>
<path d="M79.3195 95C79.0084 95 78.7539 94.7429 78.7539 94.4286V81.9034C78.7539 81.5892 79.0084 81.332 79.3195 81.332C79.6306 81.332 79.8852 81.5892 79.8852 81.9034V94.4286C79.8852 94.7429 79.6306 95 79.3195 95Z" fill="#111111"/>
<path d="M84.8601 95.0002H73.7766C73.4655 95.0002 73.2109 94.7431 73.2109 94.4288C73.2109 94.1146 73.4655 93.8574 73.7766 93.8574H84.8601C85.1712 93.8574 85.4257 94.1146 85.4257 94.4288C85.4257 94.7431 85.1712 95.0002 84.8601 95.0002Z" fill="#111111"/>
<path d="M78.801 56.0671C77.8875 56.0671 76.9995 55.8271 76.2472 55.2814C75.147 54.4786 74.4937 53.1415 74.406 51.513C74.3269 50.0159 74.7426 48.5102 75.5486 47.3817C77.2059 45.059 80.4243 44.5304 82.7236 46.2046C83.8379 47.016 84.5732 48.216 84.791 49.5845C85.0088 50.953 84.6892 52.3272 83.886 53.4529C82.7943 54.9814 80.7411 56.0671 78.7982 56.0671H78.801ZM79.7258 46.3675C78.4786 46.3675 77.2512 46.9503 76.4678 48.0474C75.8201 48.9559 75.4723 50.2273 75.5373 51.4501C75.6052 52.7272 76.0944 53.7558 76.9118 54.3529C78.7133 55.6642 81.6998 54.5671 82.9725 52.7844C83.5975 51.9073 83.8492 50.8359 83.6767 49.7673C83.5042 48.6988 82.9329 47.7646 82.0647 47.1303C81.3576 46.616 80.5375 46.3675 79.7258 46.3675Z" fill="#111111"/>
<path d="M69.6033 94.912C69.2922 94.912 69.0377 94.6549 69.0377 94.3406V81.9011C69.0377 81.5868 69.2922 81.3297 69.6033 81.3297H80.5454C82.6524 81.3297 84.3691 79.5984 84.3691 77.467V62.5791C84.3691 60.4991 82.692 58.8049 80.6331 58.8049C79.6461 58.8049 78.676 59.1392 77.8983 59.7506C77.1064 60.3706 76.5578 61.2134 76.3089 62.1962L74.5385 69.1616C74.4734 69.4131 74.2528 69.5902 73.9954 69.5902L68.7605 69.6331C67.2673 69.6445 66.0512 70.8816 66.0512 72.3901C66.0512 72.7044 65.7966 72.9615 65.4856 72.9615C65.1745 72.9615 64.9199 72.7044 64.9199 72.3901C64.9199 70.2559 66.6394 68.5074 68.7492 68.4902L73.5486 68.4502L75.2116 61.9105C75.5198 60.6991 76.2269 59.6106 77.2026 58.8478C78.1783 58.0849 79.3944 57.6621 80.6303 57.6621C83.3142 57.6621 85.4975 59.8677 85.4975 62.5791V77.467C85.4975 80.2269 83.2746 82.4725 80.5426 82.4725H70.1661V94.3406C70.1661 94.6549 69.9116 94.912 69.6005 94.912H69.6033Z" fill="#111111"/>
<path d="M64.1106 94.9113C63.7995 94.9113 63.5449 94.6542 63.5449 94.3399V80.3462C63.5449 78.0063 65.4285 76.1035 67.7447 76.1035C68.0558 76.1035 68.3104 76.3606 68.3104 76.6749C68.3104 76.9892 68.0558 77.2463 67.7447 77.2463C66.0535 77.2463 64.6762 78.6377 64.6762 80.3462V94.3399C64.6762 94.6542 64.4216 94.9113 64.1106 94.9113Z" fill="#111111"/>
<path d="M71.1833 51.19H70.6403C70.4565 51.19 70.2811 51.1185 70.1482 50.99L65.9597 46.8987H60.0235C58.0296 46.8987 56.4062 45.2531 56.4062 43.2274V33.685C56.4062 31.6593 58.0296 30.0137 60.0235 30.0137H72.5267C74.5205 30.0137 76.1439 31.6593 76.1439 33.685V43.2274C76.1439 45.2531 74.5205 46.8987 72.5267 46.8987H71.8847V50.4757C71.8847 50.87 71.568 51.19 71.1777 51.19H71.1833ZM60.0263 31.4422C58.8102 31.4422 57.8232 32.4479 57.8232 33.685V43.2274C57.8232 44.4645 58.813 45.4702 60.0263 45.4702H66.2482C66.432 45.4702 66.6074 45.5416 66.7403 45.6702L70.4763 49.3215V46.1844C70.4763 45.7902 70.793 45.4702 71.1833 45.4702H72.5324C73.7485 45.4702 74.7355 44.4645 74.7355 43.2274V33.685C74.7355 32.4479 73.7456 31.4422 72.5324 31.4422H60.0291H60.0263Z" fill="#54D2D2"/>
<path d="M48.3452 46.1763H47.8022C47.4119 46.1763 47.0951 45.8563 47.0951 45.462V41.885H46.4531C44.4593 41.885 42.8359 40.2394 42.8359 38.2137V28.6713C42.8359 26.6456 44.4593 25 46.4531 25H58.9564C60.9502 25 62.5736 26.6456 62.5736 28.6713C62.5736 29.0655 62.2568 29.3855 61.8665 29.3855C61.4763 29.3855 61.1595 29.0655 61.1595 28.6713C61.1595 27.4342 60.1697 26.4285 58.9564 26.4285H46.4531C45.237 26.4285 44.25 27.4342 44.25 28.6713V38.2137C44.25 39.4508 45.2399 40.4565 46.4531 40.4565H47.8022C48.1925 40.4565 48.5092 40.7765 48.5092 41.1708V44.3078L52.2452 40.6565C52.3781 40.5279 52.5535 40.4565 52.7373 40.4565H54.9602C55.3505 40.4565 55.6672 40.7765 55.6672 41.1708C55.6672 41.565 55.3505 41.885 54.9602 41.885H53.0229L48.8344 45.9763C48.7015 46.1049 48.5262 46.1763 48.3423 46.1763H48.3452Z" fill="#54D2D2"/>
</g>
<defs>
<clipPath id="clip0_1367_6421">
<rect width="51" height="70" fill="white" transform="translate(34.5 25)"/>
</clipPath>
</defs>
</svg>
