<svg width="120" height="120" viewBox="0 0 120 120" fill="none" xmlns="http://www.w3.org/2000/svg">
<rect width="120" height="120" rx="60" fill="#54D2D2" fill-opacity="0.1"/>
<g clip-path="url(#clip0_1353_6064)">
<path d="M58.1494 42.8262H88.2295C89.4811 42.8263 90.5 43.8473 90.5 45.1133V72.8721C90.4999 73.8569 89.7117 74.6426 88.752 74.6426H85.4971C85.4787 74.3212 85.4435 74.0058 85.3887 73.7021H85.3896C84.7184 69.8387 81.3624 67.003 77.4277 67.0029C73.4954 67.0029 70.1426 69.8348 69.4678 73.7217C69.4117 74.0101 69.3768 74.322 69.3584 74.6426H55.8789V45.1133L55.8906 44.8789C56.0069 43.7235 56.9757 42.8263 58.1494 42.8262ZM61.4375 61.8262H85.6875V56.9287H61.4375V61.8262ZM61.4375 54.0312H85.6875V49.1338H61.4375V54.0312Z" stroke="#111111"/>
<path d="M36.3916 47.4551H52.5732V74.6426H49.5576C49.5397 74.3104 49.5042 74.001 49.4482 73.7031H49.4492C48.7778 69.8397 45.4217 67.0039 41.4873 67.0039C37.5505 67.0039 34.2063 69.8414 33.5254 73.7314C33.4706 74.017 33.4363 74.3255 33.418 74.6426H29.5V62.5615L34.2295 48.917C34.5897 48.0319 35.444 47.4551 36.3916 47.4551ZM37.7285 50.0801C37.0297 50.0801 36.4006 50.5065 36.1406 51.1533L36.1338 51.1709L36.1279 51.1895L33.541 59.4033C33.1112 60.5219 33.9397 61.7292 35.1416 61.7295H48.2588C49.2105 61.7294 49.9793 60.9722 49.9795 60.0117V51.7979C49.9795 50.8495 49.2133 50.0802 48.2588 50.0801H37.7285Z" stroke="#111111"/>
<path d="M41.4873 70.4395C43.7858 70.4395 45.7044 72.1192 46.0811 74.3203L46.082 74.3291L46.084 74.3369C46.1324 74.5736 46.1514 74.8484 46.1514 75.1426C46.1513 77.724 44.0662 79.8262 41.4873 79.8262C38.9174 79.8259 36.8243 77.7232 36.8242 75.1426C36.8242 74.8605 36.851 74.5827 36.9014 74.3369L36.9023 74.3291L36.9043 74.3203C37.2812 72.1188 39.1991 70.4397 41.4873 70.4395Z" stroke="#111111"/>
<path d="M77.4287 70.4395C79.726 70.4395 81.6366 72.1181 82.0225 74.3223L82.0234 74.3301L82.0254 74.3369C82.074 74.5734 82.0928 74.8482 82.0928 75.1426C82.0927 77.7239 80.0076 79.8262 77.4287 79.8262C74.859 79.826 72.7657 77.7233 72.7656 75.1426C72.7656 74.8611 72.7922 74.578 72.8359 74.3223C73.2218 72.1182 75.1316 70.4396 77.4287 70.4395Z" stroke="#111111"/>
</g>
<defs>
<clipPath id="clip0_1353_6064">
<rect width="62" height="58" fill="white" transform="translate(29 31)"/>
</clipPath>
</defs>
</svg>
