<svg width="120" height="120" viewBox="0 0 120 120" fill="none" xmlns="http://www.w3.org/2000/svg">
<rect width="120" height="120" rx="60" fill="#54D2D2" fill-opacity="0.1"/>
<g clip-path="url(#clip0_1353_6135)">
<path d="M37.9482 41.6836C38.2028 41.6836 38.4046 41.7444 38.5332 41.8477C38.6424 41.9353 38.7627 42.1036 38.7627 42.4795V50.3984C38.7627 51.0631 39.3015 51.5986 39.9629 51.5986H40.1504C40.8118 51.5986 41.3505 51.063 41.3506 50.3984V42.5078C41.3506 42.1886 41.4602 41.9958 41.5859 41.8809C41.7196 41.7589 41.91 41.6901 42.1162 41.6934C42.3223 41.6967 42.5178 41.772 42.6572 41.9023C42.7893 42.0258 42.8965 42.2225 42.8965 42.5283V50.1455C42.9022 51.7189 42.7153 52.6432 42.4131 53.2803C42.116 53.9064 41.6849 54.3061 41.0645 54.7959C40.5973 55.1647 40.0416 55.5406 39.6445 56.0762C39.2208 56.6479 38.9824 57.3757 38.9824 58.4551V78.3184H36.9141V58.4551C36.9141 57.3755 36.6762 56.6479 36.252 56.0762C35.8545 55.5406 35.2981 55.1646 34.8311 54.7959C34.2107 54.3062 33.7793 53.9071 33.4824 53.2812C33.1804 52.6442 32.9934 51.7192 33 50.1455V42.5283C33 42.2226 33.1072 42.0258 33.2393 41.9023C33.3788 41.7718 33.5749 41.6966 33.7812 41.6934C33.9875 41.6901 34.1779 41.7587 34.3115 41.8809C34.4373 41.9958 34.5469 42.1886 34.5469 42.5078V50.3984C34.5469 51.0623 35.0824 51.5985 35.7461 51.5986H35.9326C36.5941 51.5986 37.1328 51.063 37.1328 50.3984V42.4795C37.1328 42.1039 37.2522 41.9353 37.3613 41.8477C37.49 41.7444 37.6926 41.6836 37.9482 41.6836Z" stroke="#111111"/>
<path d="M84.9326 63.5537L84.8965 63.4648L84.2051 61.7236L84.1904 61.6865L84.1699 61.6514L83.9121 61.2422C82.6059 59.2618 81.0847 58.1781 81.4531 54.8643C81.8656 51.1541 83.5229 45.0862 84.0801 43.2285C84.4417 42.0238 85.2266 41.6554 85.8242 41.7031C86.4392 41.7523 87 42.2365 87 43.085V78.292H84.9326V63.5537Z" stroke="#111111"/>
<path d="M61.3184 42.3613C71.0594 42.3629 78.9544 50.2579 78.9561 59.999C78.9544 69.7416 71.0593 77.635 61.3184 77.6367C51.5761 77.6349 43.6815 69.7415 43.6797 59.999C43.6813 50.2582 51.5759 42.3633 61.3184 42.3613ZM61.3184 44.5752C57.055 44.5769 53.2086 46.301 50.4131 49.0947C47.6192 51.8887 45.8955 55.7354 45.8955 59.999C45.8955 64.2642 47.6193 68.1098 50.4131 70.9053C53.2085 73.6989 57.0551 75.422 61.3184 75.4238H61.3193C65.5826 75.4221 69.4291 73.6989 72.2246 70.9053V70.9043C75.0166 68.1088 76.7404 64.2641 76.7422 59.999L76.7373 59.6006C76.6321 55.496 74.9296 51.8014 72.2246 49.0947C69.4292 46.301 65.5827 44.577 61.3193 44.5752H61.3184Z" stroke="#111111"/>
<path d="M61.3193 50.3984C62.8973 50.3984 64.3852 50.7874 65.6953 51.4619L65.2744 52.1865C64.0843 51.5806 62.7455 51.2344 61.3193 51.2344C58.8955 51.2344 56.7083 52.2146 55.1211 53.8018C53.5343 55.3904 52.5546 57.5753 52.5527 59.999V60C52.5543 61.4258 52.9002 62.7657 53.5049 63.9561L52.7822 64.3779C52.1063 63.0673 51.7168 61.5776 51.7168 59.999C51.717 54.6963 56.0147 50.3985 61.3193 50.3984Z" stroke="#111111"/>
</g>
<defs>
<clipPath id="clip0_1353_6135">
<rect width="55" height="55" fill="white" transform="translate(32.5 32.5)"/>
</clipPath>
</defs>
</svg>
