<svg width="338" height="132" viewBox="0 0 338 132" fill="none" xmlns="http://www.w3.org/2000/svg">
<path d="M169 1.5C181.856 1.5 194.423 5.31218 205.112 12.4545C215.801 19.5968 224.132 29.7484 229.052 41.6256C233.972 53.5028 235.259 66.5721 232.751 79.1809C230.243 91.7896 224.052 103.372 214.962 112.462C205.871 121.552 194.29 127.743 181.681 130.251C169.072 132.759 156.003 131.472 144.126 126.552C132.248 121.632 122.097 113.301 114.954 102.612C107.812 91.9228 104 79.3558 104 66.5L136.5 66.5C136.5 72.9279 138.406 79.2114 141.977 84.556C145.548 89.9006 150.624 94.0662 156.563 96.5261C162.501 98.9859 169.036 99.6295 175.34 98.3755C181.645 97.1215 187.436 94.0262 191.981 89.481C196.526 84.9357 199.621 79.1448 200.875 72.8404C202.13 66.536 201.486 60.0014 199.026 54.0628C196.566 48.1242 192.401 43.0484 187.056 39.4772C181.711 35.9061 175.428 34 169 34V1.5Z" fill="#54D2D2" fill-opacity="0.9"/>
<path d="M104 66.5C104 49.2609 110.848 32.7279 123.038 20.5381C135.228 8.34819 151.761 1.5 169 1.5V34C160.38 34 152.114 37.4241 146.019 43.519C139.924 49.614 136.5 57.8805 136.5 66.5L104 66.5Z" fill="#54D2D2" fill-opacity="0.3"/>
<path d="M174.291 66.796V62.98H180.939V80.5H176.667V66.796H174.291Z" fill="#111111"/>
<path d="M160.018 77.3802V74.0682L167.602 63.2202H172.186V73.8282H174.154V77.3802H172.186V80.5002H168.082V77.3802H160.018ZM168.37 67.7322L164.338 73.8282H168.37V67.7322Z" fill="#111111"/>
<path d="M154.744 67.7081C154.616 67.1161 154.392 66.6761 154.072 66.3881C153.752 66.0841 153.296 65.9321 152.704 65.9321C151.792 65.9321 151.136 66.3321 150.736 67.1321C150.336 67.9161 150.128 69.1641 150.112 70.8761C150.464 70.3161 150.968 69.8761 151.624 69.5561C152.296 69.2361 153.032 69.0761 153.832 69.0761C155.4 69.0761 156.656 69.5721 157.6 70.5641C158.56 71.5561 159.04 72.9401 159.04 74.7161C159.04 75.8841 158.8 76.9081 158.32 77.7881C157.856 78.6681 157.168 79.3561 156.256 79.8521C155.36 80.3481 154.296 80.5961 153.064 80.5961C150.6 80.5961 148.888 79.8281 147.928 78.2921C146.968 76.7401 146.488 74.5161 146.488 71.6201C146.488 68.5801 146.992 66.3241 148 64.8521C149.024 63.3641 150.656 62.6201 152.896 62.6201C154.096 62.6201 155.104 62.8601 155.92 63.3401C156.752 63.8041 157.376 64.4201 157.792 65.1881C158.224 65.9561 158.48 66.7961 158.56 67.7081H154.744ZM152.848 72.3161C152.16 72.3161 151.584 72.5241 151.12 72.9401C150.672 73.3401 150.448 73.9161 150.448 74.6681C150.448 75.4361 150.656 76.0361 151.072 76.4681C151.504 76.9001 152.112 77.1161 152.896 77.1161C153.6 77.1161 154.152 76.9081 154.552 76.4921C154.968 76.0601 155.176 75.4761 155.176 74.7401C155.176 73.9881 154.976 73.3961 154.576 72.9641C154.176 72.5321 153.6 72.3161 152.848 72.3161Z" fill="#111111"/>
<path d="M186.463 80.3042C186.351 80.1042 186.211 79.8882 186.043 79.6562C185.875 79.4322 185.703 79.2442 185.527 79.0922C186.415 78.6602 187.215 78.1322 187.927 77.5082C188.639 76.8762 189.199 76.1482 189.607 75.3242C190.023 74.5002 190.231 73.5922 190.231 72.6002V69.6602H191.719V72.1922C191.719 72.9922 191.851 73.7402 192.115 74.4362C192.379 75.1322 192.739 75.7682 193.195 76.3442C193.651 76.9202 194.167 77.4282 194.743 77.8682C195.319 78.3002 195.923 78.6562 196.555 78.9362C196.403 79.1042 196.235 79.3202 196.051 79.5842C195.875 79.8482 195.735 80.0802 195.631 80.2802C194.951 79.9282 194.311 79.4962 193.711 78.9842C193.111 78.4722 192.583 77.9002 192.127 77.2682C191.679 76.6362 191.323 75.9722 191.059 75.2762C190.827 75.9962 190.479 76.6722 190.015 77.3042C189.551 77.9282 189.015 78.4962 188.407 79.0082C187.799 79.5122 187.151 79.9442 186.463 80.3042Z" fill="#111111"/>
<path d="M270.684 10.8799H264.444V13.6399C264.71 13.3465 265.084 13.1065 265.564 12.9199C266.044 12.7332 266.564 12.6399 267.124 12.6399C268.124 12.6399 268.95 12.8665 269.604 13.3199C270.27 13.7732 270.757 14.3599 271.064 15.0799C271.37 15.7999 271.524 16.5799 271.524 17.4199C271.524 18.9799 271.084 20.2199 270.204 21.1399C269.324 22.0465 268.084 22.4999 266.484 22.4999C265.417 22.4999 264.49 22.3199 263.704 21.9599C262.917 21.5865 262.31 21.0732 261.884 20.4199C261.457 19.7665 261.224 19.0132 261.184 18.1599H264.524C264.604 18.5732 264.797 18.9199 265.104 19.1999C265.41 19.4666 265.83 19.5999 266.364 19.5999C266.99 19.5999 267.457 19.3999 267.764 18.9999C268.07 18.5999 268.224 18.0665 268.224 17.3999C268.224 16.7465 268.064 16.2465 267.744 15.8999C267.424 15.5532 266.957 15.3799 266.344 15.3799C265.89 15.3799 265.517 15.4932 265.224 15.7199C264.93 15.9332 264.737 16.2199 264.644 16.5799H261.344V7.87988H270.684V10.8799Z" fill="#111111"/>
<path d="M260.221 10.4599L255.201 22.4999H251.701L256.781 10.8399H250.561V7.91992H260.221V10.4599Z" fill="#111111"/>
<path d="M275.423 16.312C274.855 16.312 274.399 16.116 274.055 15.724C273.711 15.332 273.539 14.796 273.539 14.116C273.539 13.452 273.711 12.928 274.055 12.544C274.399 12.152 274.855 11.956 275.423 11.956C275.983 11.956 276.435 12.152 276.779 12.544C277.123 12.928 277.295 13.452 277.295 14.116C277.295 14.796 277.123 15.332 276.779 15.724C276.435 16.116 275.983 16.312 275.423 16.312ZM279.887 20.632C279.327 20.632 278.871 20.44 278.519 20.056C278.175 19.664 278.003 19.136 278.003 18.472C278.003 17.8 278.175 17.268 278.519 16.876C278.871 16.484 279.327 16.288 279.887 16.288C280.455 16.288 280.911 16.484 281.255 16.876C281.599 17.268 281.771 17.8 281.771 18.472C281.771 19.136 281.599 19.664 281.255 20.056C280.911 20.44 280.455 20.632 279.887 20.632ZM274.907 20.764L274.283 20.32L280.403 11.812L281.015 12.256L274.907 20.764ZM279.887 19.636C280.479 19.636 280.775 19.248 280.775 18.472C280.775 17.688 280.479 17.296 279.887 17.296C279.607 17.296 279.387 17.396 279.227 17.596C279.075 17.788 278.999 18.08 278.999 18.472C278.999 18.856 279.075 19.148 279.227 19.348C279.387 19.54 279.607 19.636 279.887 19.636ZM275.423 15.304C276.007 15.304 276.299 14.908 276.299 14.116C276.299 13.348 276.007 12.964 275.423 12.964C274.831 12.964 274.535 13.348 274.535 14.116C274.535 14.908 274.831 15.304 275.423 15.304Z" fill="#111111"/>
<path d="M246 13C246.276 13 246.5 13.2239 246.5 13.5C246.5 13.7761 246.276 14 246 14H228.755L207.905 42.793C207.743 43.0165 207.431 43.0669 207.207 42.9053C206.983 42.7434 206.933 42.4307 207.095 42.207L228.095 13.207C228.189 13.0772 228.34 13 228.5 13H246Z" fill="#00AAAA"/>
<path d="M95 13C94.7239 13 94.5 13.2239 94.5 13.5C94.5 13.7761 94.7239 14 95 14H112.245L133.095 42.793C133.257 43.0165 133.569 43.0669 133.793 42.9053C134.017 42.7434 134.067 42.4307 133.905 42.207L112.905 13.207C112.811 13.0772 112.66 13 112.5 13H95Z" fill="#00AAAA"/>
<path d="M82.4062 12.8799H76.1663V15.6399C76.4329 15.3465 76.8063 15.1065 77.2863 14.9199C77.7663 14.7332 78.2862 14.6399 78.8462 14.6399C79.8462 14.6399 80.6729 14.8665 81.3262 15.3199C81.9929 15.7732 82.4796 16.3599 82.7863 17.0799C83.0929 17.7999 83.2462 18.5799 83.2462 19.4199C83.2462 20.9799 82.8062 22.2199 81.9262 23.1399C81.0462 24.0465 79.8063 24.4999 78.2063 24.4999C77.1396 24.4999 76.2129 24.3199 75.4262 23.9599C74.6396 23.5865 74.0329 23.0732 73.6062 22.4199C73.1796 21.7665 72.9462 21.0132 72.9062 20.1599H76.2463C76.3262 20.5732 76.5196 20.9199 76.8263 21.1999C77.1329 21.4666 77.5529 21.5999 78.0862 21.5999C78.7129 21.5999 79.1796 21.3999 79.4863 20.9999C79.7929 20.5999 79.9462 20.0665 79.9462 19.3999C79.9462 18.7465 79.7863 18.2465 79.4663 17.8999C79.1463 17.5532 78.6796 17.3799 78.0662 17.3799C77.6129 17.3799 77.2396 17.4932 76.9462 17.7199C76.6529 17.9332 76.4596 18.2199 76.3663 18.5799H73.0662V9.87988H82.4062V12.8799Z" fill="#111111"/>
<path d="M61.7802 21.7601C62.2336 21.4001 62.4402 21.2334 62.4002 21.2601C63.7069 20.1801 64.7336 19.2934 65.4802 18.6001C66.2402 17.9067 66.8802 17.1801 67.4002 16.4201C67.9202 15.6601 68.1802 14.9201 68.1802 14.2001C68.1802 13.6534 68.0536 13.2267 67.8002 12.9201C67.5469 12.6134 67.1669 12.4601 66.6602 12.4601C66.1536 12.4601 65.7536 12.6534 65.4602 13.0401C65.1802 13.4134 65.0402 13.9467 65.0402 14.6401H61.7402C61.7669 13.5067 62.0069 12.5601 62.4602 11.8001C62.9269 11.0401 63.5336 10.4801 64.2802 10.1201C65.0402 9.76008 65.8802 9.58008 66.8002 9.58008C68.3869 9.58008 69.5802 9.98675 70.3802 10.8001C71.1936 11.6134 71.6002 12.6734 71.6002 13.9801C71.6002 15.4067 71.1136 16.7334 70.1402 17.9601C69.1669 19.1734 67.9269 20.3601 66.4202 21.5201H71.8202V24.3001H61.7802V21.7601Z" fill="#111111"/>
<path d="M87.4231 18.312C86.8551 18.312 86.3991 18.116 86.0551 17.724C85.7111 17.332 85.5391 16.796 85.5391 16.116C85.5391 15.452 85.7111 14.928 86.0551 14.544C86.3991 14.152 86.8551 13.956 87.4231 13.956C87.9831 13.956 88.4351 14.152 88.7791 14.544C89.1231 14.928 89.2951 15.452 89.2951 16.116C89.2951 16.796 89.1231 17.332 88.7791 17.724C88.4351 18.116 87.9831 18.312 87.4231 18.312ZM91.8871 22.632C91.3271 22.632 90.8711 22.44 90.5191 22.056C90.1751 21.664 90.0031 21.136 90.0031 20.472C90.0031 19.8 90.1751 19.268 90.5191 18.876C90.8711 18.484 91.3271 18.288 91.8871 18.288C92.4551 18.288 92.9111 18.484 93.2551 18.876C93.5991 19.268 93.7711 19.8 93.7711 20.472C93.7711 21.136 93.5991 21.664 93.2551 22.056C92.9111 22.44 92.4551 22.632 91.8871 22.632ZM86.9071 22.764L86.2831 22.32L92.4031 13.812L93.0151 14.256L86.9071 22.764ZM91.8871 21.636C92.4791 21.636 92.7751 21.248 92.7751 20.472C92.7751 19.688 92.4791 19.296 91.8871 19.296C91.6071 19.296 91.3871 19.396 91.2271 19.596C91.0751 19.788 90.9991 20.08 90.9991 20.472C90.9991 20.856 91.0751 21.148 91.2271 21.348C91.3871 21.54 91.6071 21.636 91.8871 21.636ZM87.4231 17.304C88.0071 17.304 88.2991 16.908 88.2991 16.116C88.2991 15.348 88.0071 14.964 87.4231 14.964C86.8311 14.964 86.5351 15.348 86.5351 16.116C86.5351 16.908 86.8311 17.304 87.4231 17.304Z" fill="#111111"/>
<path d="M176.232 56.3638V50.3158H174.024V49.0318H176.232V45.4678H177.684V49.0318H180.024V50.3158H177.684V56.3638H176.232ZM169.548 56.1598V52.6558H173.568V56.1598H169.548ZM169.092 48.6598V47.5678H173.94V48.6598H169.092ZM169.668 46.9798V45.8518H173.424V46.9798H169.668ZM169.668 52.0438V50.9398H173.424V52.0438H169.668ZM169.668 50.3518V49.2478H173.424V50.3518H169.668ZM170.832 55.0678H172.284V53.7598H170.832V55.0678Z" fill="#111111"/>
<path d="M156.972 51.0481C156.868 50.8401 156.736 50.6281 156.576 50.4121C156.416 50.1881 156.256 50.0081 156.096 49.8721C156.616 49.6561 157.136 49.3841 157.656 49.0561C158.184 48.7201 158.684 48.3521 159.156 47.9521C159.636 47.5441 160.064 47.1201 160.44 46.6801C160.824 46.2321 161.136 45.7881 161.376 45.3481L162.708 45.5281C162.964 45.9361 163.284 46.3401 163.668 46.7401C164.052 47.1401 164.476 47.5201 164.94 47.8801C165.404 48.2401 165.888 48.5681 166.392 48.8641C166.896 49.1521 167.396 49.3921 167.892 49.5841C167.82 49.6801 167.728 49.8121 167.616 49.9801C167.512 50.1401 167.408 50.3041 167.304 50.4721C167.2 50.6401 167.116 50.7921 167.052 50.9281C166.724 50.7681 166.388 50.5881 166.044 50.3881C165.7 50.1801 165.36 49.9601 165.024 49.7281V50.6881H158.952V49.8121C158.624 50.0521 158.292 50.2801 157.956 50.4961C157.62 50.7041 157.292 50.8881 156.972 51.0481ZM158.46 56.2921V51.6961H165.54V56.2921H158.46ZM159.936 55.0201H164.04V52.9801H159.936V55.0201ZM159.516 49.3801H164.556C164.044 48.9961 163.564 48.5841 163.116 48.1441C162.676 47.6961 162.304 47.2401 162 46.7761C161.728 47.2081 161.372 47.6481 160.932 48.0961C160.5 48.5441 160.028 48.9721 159.516 49.3801Z" fill="#111111"/>
<path d="M281.976 67.3758C279.709 66.1971 278.576 64.3725 278.576 61.9018C278.576 60.6778 278.882 59.5671 279.494 58.5698C280.129 57.5498 281.069 56.7451 282.316 56.1558C283.585 55.5438 285.127 55.2378 286.94 55.2378C288.753 55.2378 290.283 55.5438 291.53 56.1558C292.799 56.7451 293.74 57.5498 294.352 58.5698C294.987 59.5671 295.304 60.6778 295.304 61.9018C295.304 63.1485 294.998 64.2478 294.386 65.1998C293.774 66.1291 292.958 66.8545 291.938 67.3758C293.185 67.9198 294.159 68.7131 294.862 69.7558C295.565 70.7985 295.916 72.0338 295.916 73.4618C295.916 75.0031 295.519 76.3518 294.726 77.5078C293.955 78.6411 292.89 79.5138 291.53 80.1258C290.17 80.7378 288.64 81.0438 286.94 81.0438C285.24 81.0438 283.71 80.7378 282.35 80.1258C281.013 79.5138 279.947 78.6411 279.154 77.5078C278.383 76.3518 277.998 75.0031 277.998 73.4618C277.998 72.0338 278.349 70.7985 279.052 69.7558C279.755 68.6905 280.729 67.8971 281.976 67.3758ZM290.68 62.5818C290.68 61.4711 290.34 60.6098 289.66 59.9978C289.003 59.3858 288.096 59.0798 286.94 59.0798C285.807 59.0798 284.9 59.3858 284.22 59.9978C283.563 60.6098 283.234 61.4825 283.234 62.6158C283.234 63.6358 283.574 64.4518 284.254 65.0638C284.957 65.6758 285.852 65.9818 286.94 65.9818C288.028 65.9818 288.923 65.6758 289.626 65.0638C290.329 64.4291 290.68 63.6018 290.68 62.5818ZM286.94 69.4498C285.648 69.4498 284.594 69.7785 283.778 70.4358C282.985 71.0931 282.588 72.0338 282.588 73.2578C282.588 74.3911 282.973 75.3205 283.744 76.0458C284.537 76.7485 285.603 77.0998 286.94 77.0998C288.277 77.0998 289.331 76.7371 290.102 76.0118C290.873 75.2865 291.258 74.3685 291.258 73.2578C291.258 72.0565 290.861 71.1271 290.068 70.4698C289.275 69.7898 288.232 69.4498 286.94 69.4498Z" fill="#00AAAA"/>
<path d="M277.017 59.3182L267.973 80.5002H263.145L272.257 59.8622H260.629V55.7822H277.017V59.3182Z" fill="#00AAAA"/>
<path d="M240.598 75.672V71.932L251.716 56.02H257.258V71.524H260.25V75.672H257.258V80.5H252.498V75.672H240.598ZM252.804 61.12L245.834 71.524H252.804V61.12Z" fill="#00AAAA"/>
<path d="M304.197 80.7062C304.029 80.4062 303.819 80.0822 303.567 79.7342C303.315 79.3982 303.057 79.1162 302.793 78.8882C304.125 78.2402 305.325 77.4482 306.393 76.5122C307.461 75.5642 308.301 74.4722 308.913 73.2362C309.537 72.0002 309.849 70.6382 309.849 69.1502V64.7402H312.081V68.5382C312.081 69.7382 312.279 70.8602 312.675 71.9042C313.071 72.9482 313.611 73.9022 314.295 74.7662C314.979 75.6302 315.753 76.3922 316.617 77.0522C317.481 77.7002 318.387 78.2342 319.335 78.6542C319.107 78.9062 318.855 79.2302 318.579 79.6262C318.315 80.0222 318.105 80.3702 317.949 80.6702C316.929 80.1422 315.969 79.4942 315.069 78.7262C314.169 77.9582 313.377 77.1002 312.693 76.1522C312.021 75.2042 311.487 74.2082 311.091 73.1642C310.743 74.2442 310.221 75.2582 309.525 76.2062C308.829 77.1422 308.025 77.9942 307.113 78.7622C306.201 79.5182 305.229 80.1662 304.197 80.7062Z" fill="#00AAAA"/>
<path d="M246 41.5C246 43.433 244.433 45 242.5 45C240.567 45 239 43.433 239 41.5C239 39.567 240.567 38 242.5 38C244.433 38 246 39.567 246 41.5Z" fill="#D9D9D9"/>
<path d="M265.544 47.3881V36.4561H266.936V38.5561L267.368 38.2681C267.504 38.4201 267.664 38.6161 267.848 38.8561C268.032 39.0961 268.188 39.3081 268.316 39.4921C268.452 39.1161 268.568 38.7401 268.664 38.3641C268.76 37.9801 268.824 37.6281 268.856 37.3081L270.164 37.5361C270.14 37.7841 270.104 38.0361 270.056 38.2921C270.008 38.5481 269.952 38.8041 269.888 39.0601H270.62V36.5281H272.06V39.0601H274.688V40.3201H272.06V42.1681H274.268V43.4641H272.06V45.7081H274.904V47.0041H267.788V45.7081H270.62V43.4641H268.412V42.1681H270.62V40.3201H269.468C269.228 40.9361 268.948 41.4761 268.628 41.9401C268.532 41.8681 268.408 41.7921 268.256 41.7121C268.104 41.6321 267.948 41.5601 267.788 41.4961C267.636 41.4241 267.504 41.3761 267.392 41.3521C267.656 40.9761 267.896 40.5241 268.112 39.9961L267.512 40.4281C267.448 40.3001 267.364 40.1561 267.26 39.9961C267.156 39.8281 267.048 39.6641 266.936 39.5041V47.3881H265.544ZM264.812 42.3961C264.724 42.3561 264.604 42.3121 264.452 42.2641C264.308 42.2161 264.16 42.1721 264.008 42.1321C263.864 42.0921 263.748 42.0641 263.66 42.0481C263.716 41.8721 263.772 41.6481 263.828 41.3761C263.884 41.0961 263.932 40.8001 263.972 40.4881C264.02 40.1761 264.06 39.8801 264.092 39.6001C264.124 39.3121 264.14 39.0721 264.14 38.8801L265.352 39.0121C265.344 39.2841 265.32 39.5921 265.28 39.9361C265.24 40.2721 265.192 40.6041 265.136 40.9321C265.08 41.2601 265.02 41.5561 264.956 41.8201C264.9 42.0841 264.852 42.2761 264.812 42.3961Z" fill="#111111"/>
<path d="M252.093 47.4002C252.069 47.2802 252.025 47.1362 251.961 46.9682C251.897 46.8082 251.829 46.6482 251.757 46.4882C251.685 46.3282 251.617 46.2042 251.553 46.1162C252.569 45.9962 253.397 45.7522 254.037 45.3842C254.685 45.0162 255.185 44.5322 255.537 43.9322H251.817V42.7322H256.029C256.069 42.5882 256.101 42.4442 256.125 42.3002C256.157 42.1482 256.185 41.9922 256.209 41.8322H252.693V36.8042H261.333V41.8322H257.649C257.625 41.9842 257.601 42.1362 257.577 42.2882C257.553 42.4402 257.521 42.5882 257.481 42.7322H261.957C261.933 43.1002 261.893 43.4802 261.837 43.8722C261.781 44.2562 261.713 44.6282 261.633 44.9882C261.561 45.3402 261.477 45.6522 261.381 45.9242C261.205 46.4202 260.933 46.7762 260.565 46.9922C260.205 47.2082 259.749 47.3162 259.197 47.3162H258.153C258.145 47.1962 258.121 47.0402 258.081 46.8482C258.049 46.6642 258.013 46.4802 257.973 46.2962C257.933 46.1122 257.889 45.9722 257.841 45.8762H259.005C259.341 45.8762 259.581 45.8362 259.725 45.7562C259.869 45.6762 259.981 45.5042 260.061 45.2402C260.125 45.0402 260.185 44.8242 260.241 44.5922C260.305 44.3602 260.349 44.1402 260.373 43.9322H257.097C256.681 44.9002 256.065 45.6642 255.249 46.2242C254.433 46.7762 253.381 47.1682 252.093 47.4002ZM257.697 40.7282H259.917V39.8642H257.697V40.7282ZM254.121 40.7282H256.317V39.8642H254.121V40.7282ZM257.697 38.7722H259.917V37.9202H257.697V38.7722ZM254.121 38.7722H256.317V37.9202H254.121V38.7722Z" fill="#111111"/>
<path d="M63.8556 62.2422C63.969 59.9756 64.7623 58.2302 66.2356 57.0062C67.7316 55.7596 69.6923 55.1362 72.1176 55.1362C73.7723 55.1362 75.189 55.4309 76.3676 56.0202C77.5463 56.5869 78.4303 57.3689 79.0196 58.3662C79.6316 59.3409 79.9376 60.4516 79.9376 61.6982C79.9376 63.1262 79.5636 64.3389 78.8156 65.3362C78.0903 66.3109 77.2176 66.9682 76.1976 67.3082V67.4442C77.5123 67.8522 78.5323 68.5776 79.2576 69.6202C80.0056 70.6629 80.3796 72.0002 80.3796 73.6322C80.3796 74.9922 80.0623 76.2049 79.4276 77.2702C78.8156 78.3356 77.8976 79.1742 76.6736 79.7862C75.4723 80.3756 74.0216 80.6702 72.3216 80.6702C69.7603 80.6702 67.675 80.0242 66.0656 78.7322C64.4563 77.4402 63.6063 75.5362 63.5156 73.0202H68.1396C68.185 74.1309 68.559 75.0262 69.2616 75.7062C69.987 76.3636 70.973 76.6922 72.2196 76.6922C73.3756 76.6922 74.2596 76.3749 74.8716 75.7402C75.5063 75.0829 75.8236 74.2442 75.8236 73.2242C75.8236 71.8642 75.393 70.8896 74.5316 70.3002C73.6703 69.7109 72.333 69.4162 70.5196 69.4162H69.5336V65.5062H70.5196C73.7383 65.5062 75.3476 64.4296 75.3476 62.2762C75.3476 61.3016 75.053 60.5422 74.4636 59.9982C73.897 59.4542 73.0696 59.1822 71.9816 59.1822C70.9163 59.1822 70.089 59.4769 69.4996 60.0662C68.933 60.6329 68.6043 61.3582 68.5136 62.2422H63.8556Z" fill="#00AAAA"/>
<path d="M56.933 61.9022C56.7063 60.9502 56.3097 60.2362 55.743 59.7602C55.199 59.2842 54.4057 59.0462 53.363 59.0462C51.799 59.0462 50.643 59.6809 49.895 60.9502C49.1697 62.1969 48.7957 64.2369 48.773 67.0702C49.317 66.1636 50.1103 65.4609 51.153 64.9622C52.1957 64.4409 53.329 64.1802 54.553 64.1802C56.0263 64.1802 57.3297 64.4976 58.463 65.1322C59.5963 65.7669 60.4803 66.6962 61.115 67.9202C61.7497 69.1216 62.067 70.5722 62.067 72.2722C62.067 73.8816 61.7383 75.3209 61.081 76.5902C60.4463 77.8369 59.5057 78.8116 58.259 79.5142C57.0123 80.2169 55.5277 80.5682 53.805 80.5682C51.4477 80.5682 49.589 80.0469 48.229 79.0042C46.8917 77.9616 45.951 76.5109 45.407 74.6522C44.8857 72.7709 44.625 70.4589 44.625 67.7162C44.625 63.5682 45.339 60.4402 46.767 58.3322C48.195 56.2016 50.4503 55.1362 53.533 55.1362C55.913 55.1362 57.7603 55.7822 59.075 57.0742C60.3897 58.3662 61.149 59.9756 61.353 61.9022H56.933ZM53.465 68.0902C52.2637 68.0902 51.255 68.4416 50.439 69.1442C49.623 69.8469 49.215 70.8669 49.215 72.2042C49.215 73.5416 49.589 74.5956 50.337 75.3662C51.1077 76.1369 52.1843 76.5222 53.567 76.5222C54.791 76.5222 55.7543 76.1482 56.457 75.4002C57.1823 74.6522 57.545 73.6436 57.545 72.3742C57.545 71.0596 57.1937 70.0169 56.491 69.2462C55.811 68.4756 54.8023 68.0902 53.465 68.0902Z" fill="#00AAAA"/>
<path d="M33.2246 60.0999V55.7139H41.4186V80.4999H36.5226V60.0999H33.2246Z" fill="#00AAAA"/>
<path d="M83.197 80.7062C83.029 80.4062 82.819 80.0822 82.567 79.7342C82.315 79.3982 82.057 79.1162 81.793 78.8882C83.125 78.2402 84.325 77.4482 85.393 76.5122C86.461 75.5642 87.301 74.4722 87.913 73.2362C88.537 72.0002 88.849 70.6382 88.849 69.1502V64.7402H91.081V68.5382C91.081 69.7382 91.279 70.8602 91.675 71.9042C92.071 72.9482 92.611 73.9022 93.295 74.7662C93.979 75.6302 94.753 76.3922 95.617 77.0522C96.481 77.7002 97.387 78.2342 98.335 78.6542C98.107 78.9062 97.855 79.2302 97.579 79.6262C97.315 80.0222 97.105 80.3702 96.949 80.6702C95.929 80.1422 94.969 79.4942 94.069 78.7262C93.169 77.9582 92.377 77.1002 91.693 76.1522C91.021 75.2042 90.487 74.2082 90.091 73.1642C89.743 74.2442 89.221 75.2582 88.525 76.2062C87.829 77.1422 87.025 77.9942 86.113 78.7622C85.201 79.5182 84.229 80.1662 83.197 80.7062Z" fill="#00AAAA"/>
<path d="M39 41.5C39 43.433 37.433 45 35.5 45C33.567 45 32 43.433 32 41.5C32 39.567 33.567 38 35.5 38C37.433 38 39 39.567 39 41.5Z" fill="#D9D9D9"/>
<path d="M58.5442 47.3881V36.4561H59.9362V38.5561L60.3682 38.2681C60.5042 38.4201 60.6642 38.6161 60.8482 38.8561C61.0322 39.0961 61.1882 39.3081 61.3162 39.4921C61.4522 39.1161 61.5682 38.7401 61.6642 38.3641C61.7602 37.9801 61.8242 37.6281 61.8562 37.3081L63.1642 37.5361C63.1402 37.7841 63.1042 38.0361 63.0562 38.2921C63.0082 38.5481 62.9522 38.8041 62.8882 39.0601H63.6202V36.5281H65.0602V39.0601H67.6882V40.3201H65.0602V42.1681H67.2682V43.4641H65.0602V45.7081H67.9042V47.0041H60.7882V45.7081H63.6202V43.4641H61.4122V42.1681H63.6202V40.3201H62.4682C62.2282 40.9361 61.9482 41.4761 61.6282 41.9401C61.5322 41.8681 61.4082 41.7921 61.2562 41.7121C61.1042 41.6321 60.9482 41.5601 60.7882 41.4961C60.6362 41.4241 60.5042 41.3761 60.3922 41.3521C60.6562 40.9761 60.8962 40.5241 61.1122 39.9961L60.5122 40.4281C60.4482 40.3001 60.3642 40.1561 60.2602 39.9961C60.1562 39.8281 60.0482 39.6641 59.9362 39.5041V47.3881H58.5442ZM57.8122 42.3961C57.7242 42.3561 57.6042 42.3121 57.4522 42.2641C57.3082 42.2161 57.1602 42.1721 57.0082 42.1321C56.8642 42.0921 56.7482 42.0641 56.6602 42.0481C56.7162 41.8721 56.7722 41.6481 56.8282 41.3761C56.8842 41.0961 56.9322 40.8001 56.9722 40.4881C57.0202 40.1761 57.0602 39.8801 57.0922 39.6001C57.1242 39.3121 57.1402 39.0721 57.1402 38.8801L58.3522 39.0121C58.3442 39.2841 58.3202 39.5921 58.2802 39.9361C58.2402 40.2721 58.1922 40.6041 58.1362 40.9321C58.0802 41.2601 58.0202 41.5561 57.9562 41.8201C57.9002 42.0841 57.8522 42.2761 57.8122 42.3961Z" fill="#111111"/>
<path d="M53.5993 47.3642C53.1353 46.9162 52.6553 46.5042 52.1593 46.1282C51.6633 45.7522 51.1593 45.4122 50.6473 45.1082C49.4153 46.2282 47.7313 46.9762 45.5953 47.3522C45.5553 47.2242 45.4993 47.0722 45.4273 46.8962C45.3553 46.7282 45.2713 46.5602 45.1753 46.3922C45.0873 46.2162 44.9913 46.0722 44.8873 45.9602C45.8393 45.8482 46.6793 45.6642 47.4073 45.4082C48.1433 45.1522 48.7793 44.8082 49.3153 44.3762C48.7793 44.1202 48.2473 43.8962 47.7193 43.7042C47.1993 43.5042 46.6873 43.3362 46.1833 43.2002C46.3993 42.8802 46.6233 42.4882 46.8553 42.0242C47.0873 41.5602 47.3153 41.0682 47.5393 40.5482H44.5273V39.2402H48.0673C48.2833 38.6722 48.4673 38.1362 48.6193 37.6322C48.7793 37.1282 48.8873 36.7202 48.9433 36.4082L50.4553 36.6842C50.3753 37.0282 50.2633 37.4242 50.1193 37.8722C49.9753 38.3122 49.8113 38.7682 49.6273 39.2402H55.4473V40.5482H53.1073C52.8353 41.9002 52.3353 43.0682 51.6073 44.0522C52.1513 44.3642 52.6913 44.7042 53.2273 45.0722C53.7633 45.4322 54.2633 45.8122 54.7273 46.2122C54.6233 46.2842 54.4993 46.3842 54.3553 46.5122C54.2113 46.6482 54.0713 46.7922 53.9353 46.9442C53.7993 47.0962 53.6873 47.2362 53.5993 47.3642ZM50.2993 43.3682C50.8673 42.6162 51.2713 41.6762 51.5113 40.5482H49.0873C48.9273 40.9162 48.7633 41.2682 48.5953 41.6042C48.4353 41.9402 48.2793 42.2362 48.1273 42.4922C48.4713 42.5962 48.8233 42.7242 49.1833 42.8762C49.5513 43.0202 49.9233 43.1842 50.2993 43.3682Z" fill="#111111"/>
</svg>
