<svg width="338" height="131" viewBox="0 0 338 131" fill="none" xmlns="http://www.w3.org/2000/svg">
<path d="M169 1C181.856 0.999999 194.423 4.81218 205.112 11.9545C215.801 19.0968 224.132 29.2484 229.052 41.1256C233.972 53.0028 235.259 66.0721 232.751 78.6809C230.243 91.2896 224.052 102.872 214.962 111.962C205.871 121.052 194.29 127.243 181.681 129.751C169.072 132.259 156.003 130.972 144.126 126.052C132.248 121.132 122.097 112.801 114.954 102.112C107.812 91.4228 104 78.8558 104 66L136.5 66C136.5 72.4279 138.406 78.7114 141.977 84.056C145.548 89.4006 150.624 93.5662 156.563 96.0261C162.501 98.4859 169.036 99.1295 175.34 97.8755C181.645 96.6215 187.436 93.5262 191.981 88.981C196.526 84.4357 199.621 78.6448 200.875 72.3404C202.13 66.036 201.486 59.5014 199.026 53.5628C196.566 47.6242 192.401 42.5484 187.056 38.9772C181.711 35.4061 175.428 33.5 169 33.5V1Z" fill="#54D2D2" fill-opacity="0.9"/>
<path d="M104 66C104 48.7609 110.848 32.2279 123.038 20.0381C135.228 7.84819 151.761 1 169 1V33.5C160.38 33.5 152.114 36.9241 146.019 43.019C139.924 49.114 136.5 57.3805 136.5 66L104 66Z" fill="#54D2D2" fill-opacity="0.3"/>
<path d="M185.322 65.5519L179.298 79.9999H175.098L181.194 66.0079H173.73V62.5039H185.322V65.5519Z" fill="#111111"/>
<path d="M159.922 71.0001C159.922 68.2481 160.45 66.0801 161.506 64.4961C162.578 62.9121 164.298 62.1201 166.666 62.1201C169.034 62.1201 170.746 62.9121 171.802 64.4961C172.874 66.0801 173.41 68.2481 173.41 71.0001C173.41 73.7841 172.874 75.9681 171.802 77.5521C170.746 79.1361 169.034 79.9281 166.666 79.9281C164.298 79.9281 162.578 79.1361 161.506 77.5521C160.45 75.9681 159.922 73.7841 159.922 71.0001ZM169.378 71.0001C169.378 69.3841 169.202 68.1441 168.85 67.2801C168.498 66.4001 167.77 65.9601 166.666 65.9601C165.562 65.9601 164.834 66.4001 164.482 67.2801C164.13 68.1441 163.954 69.3841 163.954 71.0001C163.954 72.0881 164.018 72.9921 164.146 73.7121C164.274 74.4161 164.53 74.9921 164.914 75.4401C165.314 75.8721 165.898 76.0881 166.666 76.0881C167.434 76.0881 168.01 75.8721 168.394 75.4401C168.794 74.9921 169.058 74.4161 169.186 73.7121C169.314 72.9921 169.378 72.0881 169.378 71.0001Z" fill="#111111"/>
<path d="M154.744 67.2081C154.616 66.6161 154.392 66.1761 154.072 65.8881C153.752 65.5841 153.296 65.4321 152.704 65.4321C151.792 65.4321 151.136 65.8321 150.736 66.6321C150.336 67.4161 150.128 68.6641 150.112 70.3761C150.464 69.8161 150.968 69.3761 151.624 69.0561C152.296 68.7361 153.032 68.5761 153.832 68.5761C155.4 68.5761 156.656 69.0721 157.6 70.0641C158.56 71.0561 159.04 72.4401 159.04 74.2161C159.04 75.3841 158.8 76.4081 158.32 77.2881C157.856 78.1681 157.168 78.8561 156.256 79.3521C155.36 79.8481 154.296 80.0961 153.064 80.0961C150.6 80.0961 148.888 79.3281 147.928 77.7921C146.968 76.2401 146.488 74.0161 146.488 71.1201C146.488 68.0801 146.992 65.8241 148 64.3521C149.024 62.8641 150.656 62.1201 152.896 62.1201C154.096 62.1201 155.104 62.3601 155.92 62.8401C156.752 63.3041 157.376 63.9201 157.792 64.6881C158.224 65.4561 158.48 66.2961 158.56 67.2081H154.744ZM152.848 71.8161C152.16 71.8161 151.584 72.0241 151.12 72.4401C150.672 72.8401 150.448 73.4161 150.448 74.1681C150.448 74.9361 150.656 75.5361 151.072 75.9681C151.504 76.4001 152.112 76.6161 152.896 76.6161C153.6 76.6161 154.152 76.4081 154.552 75.9921C154.968 75.5601 155.176 74.9761 155.176 74.2401C155.176 73.4881 154.976 72.8961 154.576 72.4641C154.176 72.0321 153.6 71.8161 152.848 71.8161Z" fill="#111111"/>
<path d="M186.463 79.8042C186.351 79.6042 186.211 79.3882 186.043 79.1562C185.875 78.9322 185.703 78.7442 185.527 78.5922C186.415 78.1602 187.215 77.6322 187.927 77.0082C188.639 76.3762 189.199 75.6482 189.607 74.8242C190.023 74.0002 190.231 73.0922 190.231 72.1002V69.1602H191.719V71.6922C191.719 72.4922 191.851 73.2402 192.115 73.9362C192.379 74.6322 192.739 75.2682 193.195 75.8442C193.651 76.4202 194.167 76.9282 194.743 77.3682C195.319 77.8002 195.923 78.1562 196.555 78.4362C196.403 78.6042 196.235 78.8202 196.051 79.0842C195.875 79.3482 195.735 79.5802 195.631 79.7802C194.951 79.4282 194.311 78.9962 193.711 78.4842C193.111 77.9722 192.583 77.4002 192.127 76.7682C191.679 76.1362 191.323 75.4722 191.059 74.7762C190.827 75.4962 190.479 76.1722 190.015 76.8042C189.551 77.4282 189.015 77.9962 188.407 78.5082C187.799 79.0122 187.151 79.4442 186.463 79.8042Z" fill="#111111"/>
<path d="M270.123 3H263.883V5.76C264.15 5.46667 264.523 5.22667 265.003 5.04C265.483 4.85333 266.003 4.76 266.563 4.76C267.563 4.76 268.39 4.98667 269.043 5.44C269.71 5.89333 270.196 6.48 270.503 7.2C270.81 7.92 270.963 8.7 270.963 9.54C270.963 11.1 270.523 12.34 269.643 13.26C268.763 14.1667 267.523 14.62 265.923 14.62C264.856 14.62 263.93 14.44 263.143 14.08C262.356 13.7067 261.75 13.1933 261.323 12.54C260.896 11.8867 260.663 11.1333 260.623 10.28H263.963C264.043 10.6933 264.236 11.04 264.543 11.32C264.85 11.5867 265.27 11.72 265.803 11.72C266.43 11.72 266.896 11.52 267.203 11.12C267.51 10.72 267.663 10.1867 267.663 9.52C267.663 8.86667 267.503 8.36667 267.183 8.02C266.863 7.67333 266.396 7.5 265.783 7.5C265.33 7.5 264.956 7.61333 264.663 7.84C264.37 8.05333 264.176 8.34 264.083 8.7H260.783V0H270.123V3Z" fill="#111111"/>
<path d="M259.66 2.58004L254.64 14.62H251.14L256.22 2.96004H250V0.0400391H259.66V2.58004Z" fill="#111111"/>
<path d="M272.847 7.33399C272.279 7.33399 271.823 7.13799 271.479 6.74599C271.135 6.35399 270.963 5.81799 270.963 5.13799C270.963 4.47399 271.135 3.94999 271.479 3.56598C271.823 3.17399 272.279 2.97798 272.847 2.97798C273.407 2.97798 273.859 3.17399 274.203 3.56598C274.547 3.94999 274.719 4.47399 274.719 5.13799C274.719 5.81799 274.547 6.35399 274.203 6.74599C273.859 7.13799 273.407 7.33399 272.847 7.33399ZM277.311 11.654C276.751 11.654 276.295 11.462 275.943 11.078C275.599 10.686 275.427 10.158 275.427 9.49399C275.427 8.82199 275.599 8.28998 275.943 7.89798C276.295 7.50598 276.751 7.30999 277.311 7.30999C277.879 7.30999 278.335 7.50598 278.679 7.89798C279.023 8.28998 279.195 8.82199 279.195 9.49399C279.195 10.158 279.023 10.686 278.679 11.078C278.335 11.462 277.879 11.654 277.311 11.654ZM272.331 11.786L271.707 11.342L277.827 2.83398L278.439 3.27798L272.331 11.786ZM277.311 10.658C277.903 10.658 278.199 10.27 278.199 9.49399C278.199 8.70999 277.903 8.31798 277.311 8.31798C277.031 8.31798 276.811 8.41798 276.651 8.61798C276.499 8.80998 276.423 9.10199 276.423 9.49399C276.423 9.87799 276.499 10.17 276.651 10.37C276.811 10.562 277.031 10.658 277.311 10.658ZM272.847 6.32598C273.431 6.32598 273.723 5.92999 273.723 5.13799C273.723 4.36999 273.431 3.98598 272.847 3.98598C272.255 3.98598 271.959 4.36999 271.959 5.13799C271.959 5.92999 272.255 6.32598 272.847 6.32598Z" fill="#111111"/>
<path d="M246 12.5C246.276 12.5 246.5 12.7239 246.5 13C246.5 13.2761 246.276 13.5 246 13.5H228.755L207.905 42.293C207.743 42.5165 207.431 42.5669 207.207 42.4053C206.983 42.2434 206.933 41.9307 207.095 41.707L228.095 12.707C228.189 12.5772 228.34 12.5 228.5 12.5H246Z" fill="#00AAAA"/>
<path d="M95 12.5C94.7239 12.5 94.5 12.7239 94.5 13C94.5 13.2761 94.7239 13.5 95 13.5H112.245L133.095 42.293C133.257 42.5165 133.569 42.5669 133.793 42.4053C134.017 42.2434 134.067 41.9307 133.905 41.707L112.905 12.707C112.811 12.5772 112.66 12.5 112.5 12.5H95Z" fill="#00AAAA"/>
<path d="M81.666 5.2998H75.426V8.0598C75.6927 7.76647 76.066 7.52647 76.546 7.3398C77.026 7.15314 77.546 7.0598 78.106 7.0598C79.106 7.0598 79.9327 7.28647 80.586 7.7398C81.2527 8.19314 81.7393 8.7798 82.046 9.4998C82.3527 10.2198 82.506 10.9998 82.506 11.8398C82.506 13.3998 82.066 14.6398 81.186 15.5598C80.306 16.4665 79.066 16.9198 77.466 16.9198C76.3993 16.9198 75.4727 16.7398 74.686 16.3798C73.8993 16.0065 73.2927 15.4931 72.866 14.8398C72.4393 14.1865 72.206 13.4331 72.166 12.5798H75.506C75.586 12.9931 75.7793 13.3398 76.086 13.6198C76.3927 13.8865 76.8127 14.0198 77.346 14.0198C77.9727 14.0198 78.4393 13.8198 78.746 13.4198C79.0527 13.0198 79.206 12.4865 79.206 11.8198C79.206 11.1665 79.046 10.6665 78.726 10.3198C78.406 9.97314 77.9393 9.7998 77.326 9.7998C76.8727 9.7998 76.4993 9.91314 76.206 10.1398C75.9127 10.3531 75.7193 10.6398 75.626 10.9998H72.326V2.2998H81.666V5.2998Z" fill="#111111"/>
<path d="M61.04 14.18C61.4933 13.82 61.7 13.6533 61.66 13.68C62.9667 12.6 63.9933 11.7133 64.74 11.02C65.5 10.3267 66.14 9.6 66.66 8.84C67.18 8.08 67.44 7.34 67.44 6.62C67.44 6.07333 67.3133 5.64667 67.06 5.34C66.8067 5.03333 66.4267 4.88 65.92 4.88C65.4133 4.88 65.0133 5.07333 64.72 5.46C64.44 5.83333 64.3 6.36667 64.3 7.06H61C61.0267 5.92667 61.2667 4.98 61.72 4.22C62.1867 3.46 62.7933 2.9 63.54 2.54C64.3 2.18 65.14 2 66.06 2C67.6467 2 68.84 2.40667 69.64 3.22C70.4533 4.03333 70.86 5.09333 70.86 6.4C70.86 7.82667 70.3733 9.15333 69.4 10.38C68.4267 11.5933 67.1867 12.78 65.68 13.94H71.08V16.72H61.04V14.18Z" fill="#111111"/>
<path d="M84.3899 9.48389C83.8219 9.48389 83.3659 9.28789 83.0219 8.89589C82.6779 8.50389 82.5059 7.96789 82.5059 7.28789C82.5059 6.62389 82.6779 6.09989 83.0219 5.71589C83.3659 5.32389 83.8219 5.12789 84.3899 5.12789C84.9499 5.12789 85.4019 5.32389 85.7459 5.71589C86.0899 6.09989 86.2619 6.62389 86.2619 7.28789C86.2619 7.96789 86.0899 8.50389 85.7459 8.89589C85.4019 9.28789 84.9499 9.48389 84.3899 9.48389ZM88.8539 13.8039C88.2939 13.8039 87.8379 13.6119 87.4859 13.2279C87.1419 12.8359 86.9699 12.3079 86.9699 11.6439C86.9699 10.9719 87.1419 10.4399 87.4859 10.0479C87.8379 9.65589 88.2939 9.45989 88.8539 9.45989C89.4219 9.45989 89.8779 9.65589 90.2219 10.0479C90.5659 10.4399 90.7379 10.9719 90.7379 11.6439C90.7379 12.3079 90.5659 12.8359 90.2219 13.2279C89.8779 13.6119 89.4219 13.8039 88.8539 13.8039ZM83.8739 13.9359L83.2499 13.4919L89.3699 4.98389L89.9819 5.42789L83.8739 13.9359ZM88.8539 12.8079C89.4459 12.8079 89.7419 12.4199 89.7419 11.6439C89.7419 10.8599 89.4459 10.4679 88.8539 10.4679C88.5739 10.4679 88.3539 10.5679 88.1939 10.7679C88.0419 10.9599 87.9659 11.2519 87.9659 11.6439C87.9659 12.0279 88.0419 12.3199 88.1939 12.5199C88.3539 12.7119 88.5739 12.8079 88.8539 12.8079ZM84.3899 8.47589C84.9739 8.47589 85.2659 8.07989 85.2659 7.28789C85.2659 6.51989 84.9739 6.13589 84.3899 6.13589C83.7979 6.13589 83.5019 6.51989 83.5019 7.28789C83.5019 8.07989 83.7979 8.47589 84.3899 8.47589Z" fill="#111111"/>
<path d="M176.232 55.8638V49.8158H174.024V48.5318H176.232V44.9678H177.684V48.5318H180.024V49.8158H177.684V55.8638H176.232ZM169.548 55.6598V52.1558H173.568V55.6598H169.548ZM169.092 48.1598V47.0678H173.94V48.1598H169.092ZM169.668 46.4798V45.3518H173.424V46.4798H169.668ZM169.668 51.5438V50.4398H173.424V51.5438H169.668ZM169.668 49.8518V48.7478H173.424V49.8518H169.668ZM170.832 54.5678H172.284V53.2598H170.832V54.5678Z" fill="#111111"/>
<path d="M156.972 50.5481C156.868 50.3401 156.736 50.1281 156.576 49.9121C156.416 49.6881 156.256 49.5081 156.096 49.3721C156.616 49.1561 157.136 48.8841 157.656 48.5561C158.184 48.2201 158.684 47.8521 159.156 47.4521C159.636 47.0441 160.064 46.6201 160.44 46.1801C160.824 45.7321 161.136 45.2881 161.376 44.8481L162.708 45.0281C162.964 45.4361 163.284 45.8401 163.668 46.2401C164.052 46.6401 164.476 47.0201 164.94 47.3801C165.404 47.7401 165.888 48.0681 166.392 48.3641C166.896 48.6521 167.396 48.8921 167.892 49.0841C167.82 49.1801 167.728 49.3121 167.616 49.4801C167.512 49.6401 167.408 49.8041 167.304 49.9721C167.2 50.1401 167.116 50.2921 167.052 50.4281C166.724 50.2681 166.388 50.0881 166.044 49.8881C165.7 49.6801 165.36 49.4601 165.024 49.2281V50.1881H158.952V49.3121C158.624 49.5521 158.292 49.7801 157.956 49.9961C157.62 50.2041 157.292 50.3881 156.972 50.5481ZM158.46 55.7921V51.1961H165.54V55.7921H158.46ZM159.936 54.5201H164.04V52.4801H159.936V54.5201ZM159.516 48.8801H164.556C164.044 48.4961 163.564 48.0841 163.116 47.6441C162.676 47.1961 162.304 46.7401 162 46.2761C161.728 46.7081 161.372 47.1481 160.932 47.5961C160.5 48.0441 160.028 48.4721 159.516 48.8801Z" fill="#111111"/>
<path d="M280.877 75.172V71.432L291.995 55.52H297.537V71.024H300.529V75.172H297.537V80H292.777V75.172H280.877ZM293.083 60.62L286.113 71.024H293.083V60.62Z" fill="#00AAAA"/>
<path d="M277.901 59.328H266.885V65.142C267.361 64.5527 268.041 64.0767 268.925 63.714C269.809 63.3287 270.75 63.136 271.747 63.136C273.56 63.136 275.045 63.5327 276.201 64.326C277.357 65.1193 278.196 66.1393 278.717 67.386C279.238 68.61 279.499 69.9247 279.499 71.33C279.499 73.9367 278.751 76.0333 277.255 77.62C275.782 79.2067 273.674 80 270.931 80C268.347 80 266.284 79.354 264.743 78.062C263.202 76.77 262.329 75.0813 262.125 72.996H266.749C266.953 73.9027 267.406 74.628 268.109 75.172C268.834 75.716 269.752 75.988 270.863 75.988C272.2 75.988 273.209 75.5687 273.889 74.73C274.569 73.8913 274.909 72.7807 274.909 71.398C274.909 69.9927 274.558 68.9273 273.855 68.202C273.175 67.454 272.166 67.08 270.829 67.08C269.877 67.08 269.084 67.318 268.449 67.794C267.814 68.27 267.361 68.9047 267.089 69.698H262.533V55.146H277.901V59.328Z" fill="#00AAAA"/>
<path d="M240.598 75.172V71.432L251.716 55.52H257.258V71.024H260.25V75.172H257.258V80H252.498V75.172H240.598ZM252.804 60.62L245.834 71.024H252.804V60.62Z" fill="#00AAAA"/>
<path d="M304.197 80.2062C304.029 79.9062 303.819 79.5822 303.567 79.2342C303.315 78.8982 303.057 78.6162 302.793 78.3882C304.125 77.7402 305.325 76.9482 306.393 76.0122C307.461 75.0642 308.301 73.9722 308.913 72.7362C309.537 71.5002 309.849 70.1382 309.849 68.6502V64.2402H312.081V68.0382C312.081 69.2382 312.279 70.3602 312.675 71.4042C313.071 72.4482 313.611 73.4022 314.295 74.2662C314.979 75.1302 315.753 75.8922 316.617 76.5522C317.481 77.2002 318.387 77.7342 319.335 78.1542C319.107 78.4062 318.855 78.7302 318.579 79.1262C318.315 79.5222 318.105 79.8702 317.949 80.1702C316.929 79.6422 315.969 78.9942 315.069 78.2262C314.169 77.4582 313.377 76.6002 312.693 75.6522C312.021 74.7042 311.487 73.7082 311.091 72.6642C310.743 73.7442 310.221 74.7582 309.525 75.7062C308.829 76.6422 308.025 77.4942 307.113 78.2622C306.201 79.0182 305.229 79.6662 304.197 80.2062Z" fill="#00AAAA"/>
<path d="M246 37.4722C246 39.4052 244.433 40.9722 242.5 40.9722C240.567 40.9722 239 39.4052 239 37.4722C239 35.5392 240.567 33.9722 242.5 33.9722C244.433 33.9722 246 35.5392 246 37.4722Z" fill="#D9D9D9"/>
<path d="M264.991 42.932V32H266.383V34.1L266.815 33.812C266.951 33.964 267.111 34.16 267.295 34.4C267.479 34.64 267.635 34.852 267.763 35.036C267.899 34.66 268.015 34.284 268.111 33.908C268.207 33.524 268.271 33.172 268.303 32.852L269.611 33.08C269.587 33.328 269.551 33.58 269.503 33.836C269.455 34.092 269.399 34.348 269.335 34.604H270.067V32.072H271.507V34.604H274.135V35.864H271.507V37.712H273.715V39.008H271.507V41.252H274.351V42.548H267.235V41.252H270.067V39.008H267.859V37.712H270.067V35.864H268.915C268.675 36.48 268.395 37.02 268.075 37.484C267.979 37.412 267.855 37.336 267.703 37.256C267.551 37.176 267.395 37.104 267.235 37.04C267.083 36.968 266.951 36.92 266.839 36.896C267.103 36.52 267.343 36.068 267.559 35.54L266.959 35.972C266.895 35.844 266.811 35.7 266.707 35.54C266.603 35.372 266.495 35.208 266.383 35.048V42.932H264.991ZM264.259 37.94C264.171 37.9 264.051 37.856 263.899 37.808C263.755 37.76 263.607 37.716 263.455 37.676C263.311 37.636 263.195 37.608 263.107 37.592C263.163 37.416 263.219 37.192 263.275 36.92C263.331 36.64 263.379 36.344 263.419 36.032C263.467 35.72 263.507 35.424 263.539 35.144C263.571 34.856 263.587 34.616 263.587 34.424L264.799 34.556C264.791 34.828 264.767 35.136 264.727 35.48C264.687 35.816 264.639 36.148 264.583 36.476C264.527 36.804 264.467 37.1 264.403 37.364C264.347 37.628 264.299 37.82 264.259 37.94Z" fill="#111111"/>
<path d="M251.54 42.9441C251.516 42.8241 251.472 42.6801 251.408 42.5121C251.344 42.3521 251.276 42.1921 251.204 42.0321C251.132 41.8721 251.064 41.7481 251 41.6601C252.016 41.5401 252.844 41.2961 253.484 40.9281C254.132 40.5601 254.632 40.0761 254.984 39.4761H251.264V38.2761H255.476C255.516 38.1321 255.548 37.9881 255.572 37.8441C255.604 37.6921 255.632 37.5361 255.656 37.3761H252.14V32.3481H260.78V37.3761H257.096C257.072 37.5281 257.048 37.6801 257.024 37.8321C257 37.9841 256.968 38.1321 256.928 38.2761H261.404C261.38 38.6441 261.34 39.0241 261.284 39.4161C261.228 39.8001 261.16 40.1721 261.08 40.5321C261.008 40.8841 260.924 41.1961 260.828 41.4681C260.652 41.9641 260.38 42.3201 260.012 42.5361C259.652 42.7521 259.196 42.8601 258.644 42.8601H257.6C257.592 42.7401 257.568 42.5841 257.528 42.3921C257.496 42.2081 257.46 42.0241 257.42 41.8401C257.38 41.6561 257.336 41.5161 257.288 41.4201H258.452C258.788 41.4201 259.028 41.3801 259.172 41.3001C259.316 41.2201 259.428 41.0481 259.508 40.7841C259.572 40.5841 259.632 40.3681 259.688 40.1361C259.752 39.9041 259.796 39.6841 259.82 39.4761H256.544C256.128 40.4441 255.512 41.2081 254.696 41.7681C253.88 42.3201 252.828 42.7121 251.54 42.9441ZM257.144 36.2721H259.364V35.4081H257.144V36.2721ZM253.568 36.2721H255.764V35.4081H253.568V36.2721ZM257.144 34.3161H259.364V33.4641H257.144V34.3161ZM253.568 34.3161H255.764V33.4641H253.568V34.3161Z" fill="#111111"/>
<path d="M63.9884 61.7422C64.1018 59.4756 64.8951 57.7302 66.3684 56.5062C67.8644 55.2596 69.8251 54.6362 72.2504 54.6362C73.9051 54.6362 75.3218 54.9309 76.5004 55.5202C77.6791 56.0869 78.5631 56.8689 79.1524 57.8662C79.7644 58.8409 80.0704 59.9516 80.0704 61.1982C80.0704 62.6262 79.6964 63.8389 78.9484 64.8362C78.2231 65.8109 77.3504 66.4682 76.3304 66.8082V66.9442C77.6451 67.3522 78.6651 68.0776 79.3904 69.1202C80.1384 70.1629 80.5124 71.5002 80.5124 73.1322C80.5124 74.4922 80.1951 75.7049 79.5604 76.7702C78.9484 77.8356 78.0304 78.6742 76.8064 79.2862C75.6051 79.8756 74.1544 80.1702 72.4544 80.1702C69.8931 80.1702 67.8078 79.5242 66.1984 78.2322C64.5891 76.9402 63.7391 75.0362 63.6484 72.5202H68.2724C68.3178 73.6309 68.6918 74.5262 69.3944 75.2062C70.1198 75.8636 71.1058 76.1922 72.3524 76.1922C73.5084 76.1922 74.3924 75.8749 75.0044 75.2402C75.6391 74.5829 75.9564 73.7442 75.9564 72.7242C75.9564 71.3642 75.5258 70.3896 74.6644 69.8002C73.8031 69.2109 72.4658 68.9162 70.6524 68.9162H69.6664V65.0062H70.6524C73.8711 65.0062 75.4804 63.9296 75.4804 61.7762C75.4804 60.8016 75.1858 60.0422 74.5964 59.4982C74.0298 58.9542 73.2024 58.6822 72.1144 58.6822C71.0491 58.6822 70.2218 58.9769 69.6324 59.5662C69.0658 60.1329 68.7371 60.8582 68.6464 61.7422H63.9884Z" fill="#00AAAA"/>
<path d="M60.7408 59.328H49.7248V65.142C50.2008 64.5527 50.8808 64.0767 51.7648 63.714C52.6488 63.3287 53.5895 63.136 54.5868 63.136C56.4002 63.136 57.8848 63.5327 59.0408 64.326C60.1968 65.1193 61.0355 66.1393 61.5568 67.386C62.0782 68.61 62.3388 69.9247 62.3388 71.33C62.3388 73.9367 61.5908 76.0333 60.0948 77.62C58.6215 79.2067 56.5135 80 53.7708 80C51.1868 80 49.1242 79.354 47.5828 78.062C46.0415 76.77 45.1688 75.0813 44.9648 72.996H49.5888C49.7928 73.9027 50.2462 74.628 50.9488 75.172C51.6742 75.716 52.5922 75.988 53.7028 75.988C55.0402 75.988 56.0488 75.5687 56.7288 74.73C57.4088 73.8913 57.7488 72.7807 57.7488 71.398C57.7488 69.9927 57.3975 68.9273 56.6948 68.202C56.0148 67.454 55.0062 67.08 53.6688 67.08C52.7168 67.08 51.9235 67.318 51.2888 67.794C50.6542 68.27 50.2008 68.9047 49.9288 69.698H45.3728V55.146H60.7408V59.328Z" fill="#00AAAA"/>
<path d="M33.2246 59.5999V55.2139H41.4186V79.9999H36.5226V59.5999H33.2246Z" fill="#00AAAA"/>
<path d="M83.197 80.2062C83.029 79.9062 82.819 79.5822 82.567 79.2342C82.315 78.8982 82.057 78.6162 81.793 78.3882C83.125 77.7402 84.325 76.9482 85.393 76.0122C86.461 75.0642 87.301 73.9722 87.913 72.7362C88.537 71.5002 88.849 70.1382 88.849 68.6502V64.2402H91.081V68.0382C91.081 69.2382 91.279 70.3602 91.675 71.4042C92.071 72.4482 92.611 73.4022 93.295 74.2662C93.979 75.1302 94.753 75.8922 95.617 76.5522C96.481 77.2002 97.387 77.7342 98.335 78.1542C98.107 78.4062 97.855 78.7302 97.579 79.1262C97.315 79.5222 97.105 79.8702 96.949 80.1702C95.929 79.6422 94.969 78.9942 94.069 78.2262C93.169 77.4582 92.377 76.6002 91.693 75.6522C91.021 74.7042 90.487 73.7082 90.091 72.6642C89.743 73.7442 89.221 74.7582 88.525 75.7062C87.829 76.6422 87.025 77.4942 86.113 78.2622C85.201 79.0182 84.229 79.6662 83.197 80.2062Z" fill="#00AAAA"/>
<path d="M39 37.4897C39 39.4227 37.433 40.9897 35.5 40.9897C33.567 40.9897 32 39.4227 32 37.4897C32 35.5567 33.567 33.9897 35.5 33.9897C37.433 33.9897 39 35.5567 39 37.4897Z" fill="#D9D9D9"/>
<path d="M58.0168 42.9799V32.0479H59.4088V34.1479L59.8408 33.8599C59.9768 34.0119 60.1368 34.2079 60.3208 34.4479C60.5048 34.6879 60.6608 34.8999 60.7888 35.0839C60.9248 34.7079 61.0408 34.3319 61.1368 33.9559C61.2328 33.5719 61.2968 33.2199 61.3288 32.8999L62.6368 33.1279C62.6128 33.3759 62.5768 33.6279 62.5288 33.8839C62.4808 34.1399 62.4248 34.3959 62.3608 34.6519H63.0928V32.1199H64.5328V34.6519H67.1608V35.9119H64.5328V37.7599H66.7408V39.0559H64.5328V41.2999H67.3768V42.5959H60.2608V41.2999H63.0928V39.0559H60.8848V37.7599H63.0928V35.9119H61.9408C61.7008 36.5279 61.4208 37.0679 61.1008 37.5319C61.0048 37.4599 60.8808 37.3839 60.7288 37.3039C60.5768 37.2239 60.4208 37.1519 60.2608 37.0879C60.1088 37.0159 59.9768 36.9679 59.8648 36.9439C60.1288 36.5679 60.3688 36.1159 60.5848 35.5879L59.9848 36.0199C59.9208 35.8919 59.8368 35.7479 59.7328 35.5879C59.6288 35.4199 59.5208 35.2559 59.4088 35.0959V42.9799H58.0168ZM57.2848 37.9879C57.1968 37.9479 57.0768 37.9039 56.9248 37.8559C56.7808 37.8079 56.6328 37.7639 56.4808 37.7239C56.3368 37.6839 56.2208 37.6559 56.1328 37.6399C56.1888 37.4639 56.2448 37.2399 56.3008 36.9679C56.3568 36.6879 56.4048 36.3919 56.4448 36.0799C56.4928 35.7679 56.5328 35.4719 56.5648 35.1919C56.5968 34.9039 56.6128 34.6639 56.6128 34.4719L57.8248 34.6039C57.8168 34.8759 57.7928 35.1839 57.7528 35.5279C57.7128 35.8639 57.6648 36.1959 57.6088 36.5239C57.5528 36.8519 57.4928 37.1479 57.4288 37.4119C57.3728 37.6759 57.3248 37.8679 57.2848 37.9879Z" fill="#111111"/>
<path d="M53.072 42.956C52.608 42.508 52.128 42.096 51.632 41.72C51.136 41.344 50.632 41.004 50.12 40.7C48.888 41.82 47.204 42.568 45.068 42.944C45.028 42.816 44.972 42.664 44.9 42.488C44.828 42.32 44.744 42.152 44.648 41.984C44.56 41.808 44.464 41.664 44.36 41.552C45.312 41.44 46.152 41.256 46.88 41C47.616 40.744 48.252 40.4 48.788 39.968C48.252 39.712 47.72 39.488 47.192 39.296C46.672 39.096 46.16 38.928 45.656 38.792C45.872 38.472 46.096 38.08 46.328 37.616C46.56 37.152 46.788 36.66 47.012 36.14H44V34.832H47.54C47.756 34.264 47.94 33.728 48.092 33.224C48.252 32.72 48.36 32.312 48.416 32L49.928 32.276C49.848 32.62 49.736 33.016 49.592 33.464C49.448 33.904 49.284 34.36 49.1 34.832H54.92V36.14H52.58C52.308 37.492 51.808 38.66 51.08 39.644C51.624 39.956 52.164 40.296 52.7 40.664C53.236 41.024 53.736 41.404 54.2 41.804C54.096 41.876 53.972 41.976 53.828 42.104C53.684 42.24 53.544 42.384 53.408 42.536C53.272 42.688 53.16 42.828 53.072 42.956ZM49.772 38.96C50.34 38.208 50.744 37.268 50.984 36.14H48.56C48.4 36.508 48.236 36.86 48.068 37.196C47.908 37.532 47.752 37.828 47.6 38.084C47.944 38.188 48.296 38.316 48.656 38.468C49.024 38.612 49.396 38.776 49.772 38.96Z" fill="#111111"/>
</svg>
