<svg width="130" height="131" viewBox="0 0 130 131" fill="none" xmlns="http://www.w3.org/2000/svg">
<rect y="0.5" width="130" height="130" rx="65" fill="#59BFBF" fill-opacity="0.2"/>
<g clip-path="url(#clip0_191_5485)">
<path d="M65.045 57.9289H56.7613C55.4091 57.9289 54.3105 56.8292 54.3105 55.4754C54.3105 54.8187 54.5643 54.2022 55.0284 53.7406C55.4926 53.276 56.1084 53.0219 56.7613 53.0219C57.1017 53.0219 57.3802 53.3007 57.3802 53.6415C57.3802 53.9823 57.1017 54.2611 56.7613 54.2611C56.4395 54.2611 56.1332 54.3881 55.9042 54.6173C55.6752 54.8466 55.5514 55.1501 55.5514 55.4754C55.5514 56.1445 56.096 56.6898 56.7644 56.6898H65.0481C67.0286 56.6898 68.9192 55.841 70.2374 54.3664L71.9579 52.4364C72.5799 51.7425 73.468 51.346 74.3963 51.346H74.9378C75.2782 51.346 75.5567 51.6248 75.5567 51.9656C75.5567 52.3063 75.2782 52.5851 74.9378 52.5851H74.3963C73.8177 52.5851 73.2638 52.833 72.8801 53.2636L71.1596 55.1935C69.6062 56.9345 67.3751 57.932 65.045 57.932V57.9289Z" fill="#111111"/>
<path d="M52.502 41.9039C51.8522 41.9039 51.2395 41.6498 50.7754 41.1914C50.3112 40.7236 50.0606 40.1102 50.0606 39.4597C50.0575 38.1152 51.1498 37.0186 52.4928 37.0155C53.8821 37.0155 55.3798 37.0124 56.8961 37.0093C60.5599 37.0031 64.3443 36.9969 66.9405 37.0093C68.203 37.0155 69.4191 37.4833 70.366 38.3259L71.3191 39.1716C71.7833 39.5805 72.3805 39.8066 72.9994 39.8128C73.5533 39.8128 74.2433 39.819 74.9241 39.8128H74.9303C75.2676 39.8128 75.5461 40.0854 75.5492 40.4262C75.5523 40.767 75.2799 41.0489 74.9365 41.052C74.2464 41.0581 73.5502 41.0581 72.9901 41.052C72.0711 41.0458 71.1861 40.7081 70.496 40.1009L69.5367 39.2521C68.8157 38.6109 67.8874 38.2546 66.9282 38.2484C64.335 38.2391 60.5506 38.2453 56.8899 38.2484C55.3736 38.2484 53.876 38.2546 52.4835 38.2546C51.8213 38.2546 51.2828 38.7967 51.2828 39.4597C51.2828 39.7818 51.4097 40.0854 51.6356 40.3147C51.8615 40.5408 52.1647 40.6647 52.4866 40.6647C52.827 40.6647 53.1054 40.9435 53.1054 41.2843C53.1054 41.6251 52.827 41.9039 52.4866 41.9039H52.502Z" fill="#111111"/>
<path d="M62.6954 54.2611H48.6221C47.9073 54.2611 47.2141 53.9606 46.7252 53.4371C46.2301 52.9074 45.9825 52.2134 46.029 51.4855C46.1156 50.1224 47.2853 49.0568 48.6901 49.0568C49.0305 49.0568 49.309 49.3356 49.309 49.6763C49.309 50.0171 49.0305 50.2959 48.6901 50.2959C47.9351 50.2959 47.31 50.8535 47.2636 51.566C47.2389 51.947 47.3688 52.3126 47.6288 52.5883C47.8887 52.8671 48.2415 53.0189 48.6221 53.0189H62.6954C63.0358 53.0189 63.3143 53.2977 63.3143 53.6384C63.3143 53.9792 63.0358 54.258 62.6954 54.258V54.2611Z" fill="#111111"/>
<path d="M56.7421 50.2958H46.5801C45.0329 50.2958 43.7734 49.035 43.7734 47.4861C43.7734 45.9372 45.0329 44.6764 46.5801 44.6764H56.7421C57.0825 44.6764 57.361 44.9552 57.361 45.296C57.361 45.6367 57.0825 45.9155 56.7421 45.9155H46.5801C45.7136 45.9155 45.0112 46.6187 45.0112 47.4861C45.0112 48.3535 45.7136 49.0567 46.5801 49.0567H56.7421C57.0825 49.0567 57.361 49.3355 57.361 49.6763C57.361 50.017 57.0825 50.2958 56.7421 50.2958Z" fill="#111111"/>
<path d="M48.5661 45.9155C47.1334 45.9155 45.9668 44.7476 45.9668 43.3134C45.9668 41.8791 47.1334 40.7112 48.5661 40.7112H56.7415C57.0819 40.7112 57.3604 40.99 57.3604 41.3307C57.3604 41.6715 57.0819 41.9503 56.7415 41.9503H48.5661C47.8142 41.9503 47.2046 42.5606 47.2046 43.3134C47.2046 44.0661 47.8142 44.6764 48.5661 44.6764C48.9065 44.6764 49.185 44.9552 49.185 45.296C49.185 45.6367 48.9065 45.9155 48.5661 45.9155Z" fill="#111111"/>
<path d="M74.9372 52.579C74.5969 52.579 74.3184 52.3002 74.3184 51.9594V39.7447C74.3184 38.7348 75.1384 37.9108 76.1503 37.9108H90.6599C91.0003 37.9108 91.2788 38.1896 91.2788 38.5303C91.2788 38.8711 91.0003 39.1499 90.6599 39.1499H76.1503C75.8222 39.1499 75.5561 39.4163 75.5561 39.7447V51.9594C75.5561 52.3002 75.2776 52.579 74.9372 52.579Z" fill="#111111"/>
<path d="M66.8845 75.7197C66.6586 75.7197 66.4327 75.6888 66.2068 75.6299C65.5353 75.4502 64.9722 75.0196 64.6225 74.4156C64.409 74.0438 64.5358 73.573 64.9072 73.3561C65.2754 73.1424 65.7489 73.2694 65.9655 73.6411C66.1078 73.8858 66.3337 74.0593 66.6091 74.1337C66.8814 74.208 67.1661 74.1677 67.4106 74.0252C67.655 73.8827 67.8283 73.6566 67.9026 73.384C67.9768 73.1114 67.9397 72.8264 67.7974 72.5816L63.657 65.4009C62.6885 63.7219 61.0485 62.5323 59.1516 62.1358L56.6235 61.6091C55.6704 61.4078 54.8442 60.8099 54.3584 59.9642L54.086 59.4933C53.8725 59.1216 53.9994 58.6507 54.3707 58.4339C54.739 58.2201 55.2124 58.3471 55.429 58.7189L55.7013 59.1897C55.9674 59.6544 56.4223 59.9828 56.9453 60.0912L59.4734 60.6178C61.8004 61.1042 63.8149 62.5633 65.0031 64.6233L69.1434 71.8041C69.49 72.4082 69.5828 73.1083 69.4033 73.7836C69.2239 74.4589 68.7938 75.0196 68.1903 75.3666C67.7881 75.5989 67.3425 75.7167 66.8907 75.7167L66.8845 75.7197Z" fill="#59BFBF"/>
<path d="M55.1627 87.4078C54.2653 87.4078 53.3927 86.9432 52.913 86.116C52.2168 84.9141 51.468 83.6192 50.7098 82.3088C48.8718 79.1335 46.9687 75.8498 45.6783 73.5915C45.0347 72.4608 44.8243 71.135 45.0873 69.8555L45.341 68.604C45.4555 68.034 45.3596 67.4392 45.0718 66.9343C44.7964 66.4541 44.456 65.8563 44.1095 65.2677C43.8929 64.899 44.0135 64.4251 44.3818 64.2082C44.75 63.9914 45.2234 64.1122 45.4401 64.4808C45.7897 65.0756 46.1363 65.6797 46.4148 66.1691C46.8882 67.0025 47.043 67.9752 46.8573 68.9138L46.6005 70.1684C46.4148 71.0792 46.5633 72.0209 47.0213 72.8233C48.3086 75.0785 50.2085 78.3591 52.0466 81.5313C52.8047 82.8416 53.5567 84.1365 54.2498 85.3385C54.5376 85.8372 55.1812 86.0076 55.6825 85.7195C55.927 85.5801 56.1003 85.3509 56.1745 85.0783C56.2457 84.8119 56.2086 84.5269 56.0662 84.2821C55.8527 83.9104 55.9796 83.4395 56.3509 83.2258C56.7223 83.012 57.1926 83.139 57.4061 83.5108C57.7527 84.1117 57.8455 84.8088 57.6691 85.481C57.4866 86.1563 57.0565 86.717 56.4561 87.0609C56.0477 87.2963 55.6021 87.4078 55.1627 87.4078Z" fill="#59BFBF"/>
<path d="M67.6789 84.8242C66.7072 84.8242 65.7573 84.3038 65.2312 83.393C65.0177 83.0213 65.1446 82.5504 65.5159 82.3336C65.8841 82.1198 66.3576 82.2468 66.5742 82.6186C66.9115 83.201 67.617 83.4395 68.1833 83.1576C68.4865 83.0058 68.7093 82.7456 68.8052 82.4234C68.9043 82.1013 68.864 81.7605 68.6969 81.4693L61.6603 69.267C61.4467 68.8952 61.5736 68.4243 61.945 68.2075C62.3132 67.9937 62.7866 68.1208 63.0032 68.4925L70.0399 80.6948C70.4205 81.3516 70.5103 82.1446 70.2906 82.8726C70.0678 83.6099 69.5634 84.2047 68.8702 84.5454C68.4896 84.7344 68.0842 84.8211 67.682 84.8211L67.6789 84.8242Z" fill="#59BFBF"/>
<path d="M65.0674 88.8979C64.8106 88.8979 64.5507 88.8638 64.2969 88.7957C63.5326 88.5912 62.8952 88.0987 62.4991 87.4141L57.4181 78.6038C57.2046 78.2321 57.3314 77.7612 57.7028 77.5444C58.071 77.3306 58.5444 77.4577 58.761 77.8294L63.8421 86.6396C64.0308 86.968 64.3372 87.2003 64.7023 87.2994C65.0674 87.3986 65.4481 87.3459 65.7761 87.1569C66.4506 86.7666 66.6827 85.8992 66.2928 85.2239L61.2118 76.4137C60.9983 76.0419 61.1252 75.5711 61.4965 75.3542C61.8647 75.1405 62.3382 75.2675 62.5548 75.6392L67.6358 84.4494C68.4527 85.8652 67.9669 87.6836 66.5528 88.4983C66.0979 88.7616 65.5904 88.8979 65.0767 88.8979H65.0674Z" fill="#59BFBF"/>
<path d="M60.463 89.0528C60.2248 89.0528 59.9834 89.0218 59.7451 88.9568C59.0334 88.7678 58.4424 88.3093 58.0741 87.6712L53.9864 80.5834C53.7729 80.2116 53.8998 79.7408 54.2711 79.5239C54.6394 79.3102 55.1128 79.4372 55.3294 79.8089L59.4171 86.8967C59.578 87.1755 59.838 87.3769 60.1505 87.4605C60.463 87.5442 60.7879 87.5008 61.0664 87.3397C61.3449 87.1786 61.5461 86.9184 61.6296 86.6055C61.7132 86.2927 61.6698 85.9674 61.5089 85.6886C61.2954 85.3168 61.4223 84.846 61.7936 84.6291C62.1619 84.4154 62.6353 84.5424 62.8519 84.911C63.2201 85.5492 63.3161 86.2927 63.1273 87.0021C62.9355 87.7146 62.4806 88.3093 61.8431 88.6749C61.4192 88.9196 60.9488 89.0466 60.4723 89.0466L60.463 89.0528Z" fill="#59BFBF"/>
<path d="M43.5824 66.1536C42.8955 66.1536 42.2271 65.7974 41.8589 65.1592L34.6056 52.579C34.3921 52.2072 34.5189 51.7364 34.8903 51.5195C35.2585 51.3058 35.7319 51.4328 35.9485 51.8045L43.2018 64.3848C43.3225 64.5954 43.5917 64.6667 43.8021 64.5459L54.3695 58.4401C54.7378 58.2263 55.2112 58.3533 55.4278 58.7251C55.6413 59.0968 55.5145 59.5677 55.1431 59.7845L44.5757 65.8903C44.2632 66.07 43.9228 66.1567 43.5855 66.1567L43.5824 66.1536Z" fill="#59BFBF"/>
<path d="M71.0232 73.6535C70.918 73.6535 70.8127 73.6256 70.7137 73.5698C70.4167 73.3995 70.3176 73.0184 70.4878 72.7241L70.7601 72.2533C71.0479 71.7514 71.1129 71.1504 70.9334 70.599L70.1258 68.1424C69.3986 65.9244 69.6493 63.4926 70.8127 61.4728L74.9531 54.2921C75.2811 53.7252 75.8071 53.3194 76.4415 53.149C77.0727 52.9786 77.7349 53.0653 78.3012 53.3937C78.8675 53.7221 79.2759 54.2518 79.443 54.8838C79.6132 55.5188 79.5266 56.1786 79.1986 56.7455C79.0284 57.0429 78.6478 57.1421 78.3538 56.9717C78.0568 56.8013 77.9546 56.4234 78.1279 56.126C78.2888 55.8441 78.3322 55.5188 78.2486 55.2028C78.1651 54.8899 77.9639 54.6297 77.6823 54.4655C77.4038 54.3045 77.0758 54.2611 76.7633 54.3447C76.4508 54.4284 76.1908 54.6297 76.0268 54.9085L71.8865 62.0893C70.8963 63.8055 70.6828 65.8686 71.3017 67.7521L72.1124 70.2087C72.4002 71.0947 72.3012 72.0643 71.837 72.8697L71.5647 73.3406C71.4502 73.5389 71.2429 73.6504 71.0294 73.6504L71.0232 73.6535Z" fill="#111111"/>
<path d="M81.0085 79.4247C80.9063 79.4247 80.8011 79.3999 80.7052 79.3442C80.4081 79.1769 80.3029 78.799 80.47 78.5016C80.8073 77.9006 81.157 77.2996 81.4417 76.8132C81.9058 76.0202 82.6423 75.4223 83.5118 75.1249L83.9358 74.9824C84.1864 74.8988 84.4525 74.809 84.7248 74.7191C85.6408 74.4155 86.4113 73.7898 86.8971 72.9596C88.206 70.7105 90.0998 67.4144 91.9317 64.2268C92.6805 62.9195 93.4232 61.6308 94.1102 60.435C94.4382 59.8619 94.2401 59.1247 93.6677 58.7932C93.3892 58.6321 93.0643 58.5887 92.7517 58.6724C92.4454 58.756 92.1854 58.9574 92.0245 59.2362C91.8543 59.5336 91.4737 59.6327 91.1798 59.4623C90.8827 59.2919 90.7837 58.9109 90.9539 58.6166C91.2788 58.0528 91.8048 57.647 92.433 57.4766C93.0673 57.3093 93.7265 57.3961 94.2896 57.7213C95.4531 58.3936 95.8554 59.8898 95.187 61.0546C94.497 62.2504 93.7574 63.5422 93.0086 64.8463C91.1767 68.0371 89.2829 71.3332 87.9709 73.5853C87.3365 74.6757 86.3215 75.4967 85.1209 75.8963L83.911 76.3021C83.3262 76.5004 82.828 76.9062 82.5154 77.439C82.2369 77.9192 81.8904 78.5139 81.5562 79.1087C81.4417 79.3101 81.2313 79.4247 81.0146 79.4247H81.0085Z" fill="#111111"/>
<path d="M75.6966 62.2008C75.5913 62.2008 75.4861 62.1729 75.3871 62.1172C75.0901 61.9468 74.991 61.5658 75.1612 61.2715L82.1979 49.0691C82.5568 48.4496 83.1603 48.0004 83.8565 47.8362C84.562 47.672 85.2861 47.8021 85.8926 48.2079C87.0283 48.9638 87.3656 50.5127 86.6631 51.7302C86.4929 52.0276 86.1123 52.1267 85.8184 51.9563C85.5213 51.7859 85.4223 51.4049 85.5925 51.1106C85.97 50.457 85.7998 49.636 85.2057 49.2395C84.8869 49.0258 84.5094 48.9576 84.1381 49.0443C83.7668 49.1311 83.4573 49.3603 83.2686 49.6887L76.2319 61.891C76.1174 62.0893 75.9101 62.2008 75.6966 62.2008Z" fill="#111111"/>
<path d="M85.8915 61.2126C85.7863 61.2126 85.6811 61.1848 85.5821 61.129C85.285 60.9586 85.186 60.5776 85.3562 60.2833L90.4372 51.4731C90.8704 50.7234 90.6136 49.76 89.8616 49.3263C89.1128 48.8926 88.1504 49.1528 87.7172 49.9025L82.6362 58.7127C82.466 59.0101 82.0885 59.1092 81.7914 58.9388C81.4943 58.7685 81.3953 58.3874 81.5655 58.0931L86.6465 49.2829C87.4201 47.9415 89.1406 47.48 90.4805 48.2544C91.8204 49.0289 92.2814 50.7513 91.5078 52.0926L86.4268 60.9029C86.3123 61.1011 86.105 61.2126 85.8915 61.2126Z" fill="#111111"/>
<path d="M89.3196 63.1952C89.2144 63.1952 89.1092 63.1674 89.0102 63.1116C88.7131 62.9412 88.6141 62.5602 88.7843 62.2659L92.872 55.1781C93.2464 54.5275 93.0236 53.6911 92.3738 53.3163C92.0581 53.1335 91.693 53.087 91.3402 53.18C90.9906 53.2729 90.6966 53.499 90.514 53.815C90.3439 54.1124 89.9663 54.2146 89.6693 54.0412C89.3722 53.8708 89.2732 53.4898 89.4434 53.1955C89.79 52.5945 90.35 52.1639 91.0215 51.9842C91.693 51.8045 92.3923 51.8975 92.9927 52.2444C94.2335 52.9631 94.6605 54.5554 93.9426 55.7976L89.8549 62.8855C89.7404 63.0837 89.5331 63.1952 89.3196 63.1952Z" fill="#111111"/>
<path d="M74.7832 94C74.678 94 74.5728 93.9721 74.4738 93.9163C74.1767 93.746 74.0777 93.3649 74.2479 93.0706L81.5012 80.4904C81.5816 80.3541 81.6033 80.193 81.56 80.0381C81.5167 79.8832 81.4207 79.7562 81.2846 79.6787L70.7172 73.5729C70.4201 73.4025 70.3211 73.0215 70.4913 72.7272C70.6615 72.4298 71.039 72.3276 71.3361 72.5011L81.9035 78.6069C82.3274 78.8516 82.6306 79.2481 82.7575 79.719C82.8844 80.193 82.8194 80.6855 82.575 81.1099L75.3217 93.6902C75.2072 93.8885 74.9998 94 74.7863 94H74.7832Z" fill="#111111"/>
</g>
<defs>
<clipPath id="clip0_191_5485">
<rect width="61" height="57" fill="white" transform="translate(34.5 37)"/>
</clipPath>
</defs>
</svg>
