<svg width="131" height="131" viewBox="0 0 131 131" fill="none" xmlns="http://www.w3.org/2000/svg">
<rect x="0.332031" y="0.5" width="130" height="130" rx="65" fill="#59BFBF" fill-opacity="0.2"/>
<g clip-path="url(#clip0_191_5509)">
<path d="M39.4644 64.3154C39.3024 64.3154 39.1405 64.2641 39.0008 64.1647C38.7563 63.9884 38.6293 63.6838 38.6801 63.3824L39.7247 56.9576L35.0762 52.4468C34.8571 52.2352 34.7777 51.9178 34.8698 51.6261C34.9618 51.3343 35.2063 51.1227 35.5048 51.0747L41.8807 50.0904L44.694 44.2299C44.8274 43.9542 45.1005 43.781 45.4021 43.7778H45.4085C45.7069 43.7778 45.9832 43.9477 46.1165 44.2203L49.0124 50.0391L55.401 50.9272C55.6995 50.9689 55.9503 51.1772 56.0456 51.469C56.1409 51.7575 56.0646 52.0781 55.8519 52.2929L51.2668 56.8711L52.4036 63.2798C52.4575 63.5812 52.3369 63.8858 52.0924 64.0653C51.8479 64.248 51.524 64.2737 51.2573 64.1326L45.5259 61.1446L39.839 64.216C39.7216 64.2801 39.5914 64.3122 39.4644 64.3122V64.3154ZM37.3338 52.4148L41.125 56.092C41.3124 56.2748 41.4013 56.5409 41.3568 56.8005L40.5059 62.0391L45.1417 59.5352C45.3735 59.4102 45.6498 59.4102 45.8816 59.5288L50.5524 61.9654L49.6252 56.7396C49.5808 56.4799 49.6633 56.2138 49.8475 56.0279L53.5879 52.2929L48.3773 51.5684C48.1201 51.5331 47.8947 51.3696 47.7772 51.1356L45.4148 46.3907L43.1223 51.1676C43.008 51.4049 42.7857 51.5716 42.5285 51.6101L37.3306 52.4115L37.3338 52.4148Z" fill="#59BFBF"/>
<path d="M59.3386 56.0343C59.1767 56.0343 59.0148 55.983 58.875 55.8836C58.6306 55.7073 58.5035 55.4027 58.5543 55.1014L59.599 48.6766L54.9472 44.1658C54.7282 43.9542 54.6488 43.6368 54.7409 43.345C54.8329 43.0533 55.0774 42.8417 55.3759 42.7936L61.7518 41.8094L64.5651 35.952C64.6985 35.6763 64.9716 35.5032 65.2732 35.5H65.2796C65.578 35.5 65.8543 35.6699 65.9876 35.9424L68.8835 41.7613L75.2721 42.6493C75.5706 42.691 75.8214 42.8994 75.9167 43.1912C76.0119 43.4797 75.9357 43.8003 75.723 44.0151L71.1379 48.5932L72.2747 55.002C72.3286 55.3034 72.208 55.6079 71.9635 55.7875C71.719 55.9702 71.3951 55.9959 71.1284 55.8548L65.397 52.8668L59.7101 55.9381C59.5927 56.0023 59.4625 56.0343 59.3355 56.0343H59.3386ZM57.208 44.1337L60.9993 47.811C61.1866 47.9937 61.2755 48.2598 61.2311 48.5195L60.3801 53.7581L65.016 51.2542C65.2478 51.1292 65.524 51.1292 65.7558 51.2478L70.4267 53.6843L69.4995 48.4586C69.455 48.1989 69.5376 47.9328 69.7217 47.7469L73.459 44.0119L68.2484 43.2873C67.9912 43.2521 67.7658 43.0886 67.6483 42.8545L65.2859 38.1097L62.9934 42.8866C62.8791 43.1238 62.6568 43.2905 62.3996 43.329L57.2017 44.1305L57.208 44.1337Z" fill="#59BFBF"/>
<path d="M79.2097 64.3154C79.0478 64.3154 78.8859 64.2641 78.7461 64.1647C78.5016 63.9884 78.3746 63.6838 78.4254 63.3824L79.4701 56.9576L74.8183 52.4468C74.5992 52.2352 74.5199 51.9178 74.6119 51.6261C74.704 51.3343 74.9485 51.1227 75.247 51.0747L81.6229 50.0904L84.4362 44.2299C84.5696 43.9542 84.8426 43.781 85.1443 43.7778H85.1506C85.4491 43.7778 85.7254 43.9477 85.8587 44.2203L88.7546 50.0391L95.1432 50.9272C95.4417 50.9689 95.6925 51.1772 95.7878 51.469C95.883 51.7575 95.8068 52.0781 95.5941 52.2929L91.009 56.8711L92.1458 63.2798C92.1997 63.5812 92.0791 63.8858 91.8346 64.0653C91.5901 64.248 91.2662 64.2737 90.9995 64.1326L85.2681 61.1446L79.5812 64.216C79.4637 64.2801 79.3336 64.3122 79.2066 64.3122L79.2097 64.3154ZM77.0791 52.4148L80.8704 56.092C81.0577 56.2748 81.1466 56.5409 81.1022 56.8005L80.2512 62.0391L84.8871 59.5352C85.1189 59.4102 85.3951 59.4102 85.6269 59.5288L90.2977 61.9654L89.3706 56.7396C89.3261 56.4799 89.4087 56.2138 89.5928 56.0279L93.3301 52.2929L88.1195 51.5684C87.8623 51.5331 87.6369 51.3696 87.5194 51.1356L85.157 46.3907L82.8645 51.1676C82.7502 51.4049 82.5279 51.5716 82.2707 51.6101L77.0728 52.4115L77.0791 52.4148Z" fill="#59BFBF"/>
<path d="M65.3365 76.1647C61.3992 76.1647 58.1953 72.6926 58.1953 68.4255C58.1953 64.1583 61.3992 60.6862 65.3365 60.6862C69.2738 60.6862 72.4776 64.1583 72.4776 68.4255C72.4776 72.6926 69.2738 76.1647 65.3365 76.1647ZM65.3365 61.9686C62.0977 61.9686 59.4654 64.8668 59.4654 68.4255C59.4654 71.9841 62.1009 74.8823 65.3365 74.8823C68.5721 74.8823 71.2075 71.9841 71.2075 68.4255C71.2075 64.8668 68.5721 61.9686 65.3365 61.9686Z" fill="#2B2B2B"/>
<path d="M80.7149 95.5C80.3656 95.5 80.0798 95.2115 80.0798 94.8588V87.7127C80.0798 83.6571 76.8125 80.3581 72.7958 80.3581H57.8847C53.8648 80.3581 50.5943 83.6603 50.5943 87.7191V94.8588C50.5943 95.2115 50.3086 95.5 49.9593 95.5C49.61 95.5 49.3242 95.2115 49.3242 94.8588V87.7191C49.3242 82.9518 53.1631 79.0757 57.8847 79.0757H72.7958C77.5142 79.0757 81.3499 82.9518 81.3499 87.7127V94.8588C81.3499 95.2115 81.0642 95.5 80.7149 95.5Z" fill="#2B2B2B"/>
<path d="M56.5511 95.5C56.2018 95.5 55.916 95.2114 55.916 94.8588V89.8446C55.916 89.492 56.2018 89.2034 56.5511 89.2034C56.9003 89.2034 57.1861 89.492 57.1861 89.8446V94.8588C57.1861 95.2114 56.9003 95.5 56.5511 95.5Z" fill="#2B2B2B"/>
<path d="M74.1292 95.5C73.7799 95.5 73.4941 95.2114 73.4941 94.8588V89.8446C73.4941 89.492 73.7799 89.2034 74.1292 89.2034C74.4785 89.2034 74.7642 89.492 74.7642 89.8446V94.8588C74.7642 95.2114 74.4785 95.5 74.1292 95.5Z" fill="#2B2B2B"/>
</g>
<defs>
<clipPath id="clip0_191_5509">
<rect width="61" height="60" fill="white" transform="translate(34.832 35.5)"/>
</clipPath>
</defs>
</svg>
