<svg width="360" height="473" viewBox="0 0 360 473" fill="none" xmlns="http://www.w3.org/2000/svg">
<rect width="360" height="473" fill="white"/>
<path d="M103.085 95.7377V84.4577L100.645 86.0577L99.5048 84.2377L103.585 81.7177H105.225V95.7377H103.085ZM109.988 90.4577L108.548 89.1777C108.882 88.631 109.295 88.171 109.788 87.7977C110.295 87.4243 110.888 87.2377 111.568 87.2377C111.928 87.2377 112.295 87.3043 112.668 87.4377C113.055 87.571 113.428 87.7243 113.788 87.8977C114.148 88.071 114.488 88.2243 114.808 88.3577C115.142 88.491 115.435 88.5577 115.688 88.5577C116.022 88.5577 116.322 88.4443 116.588 88.2177C116.855 87.9777 117.095 87.7043 117.308 87.3977L118.748 88.6577C118.415 89.2177 117.995 89.6843 117.488 90.0577C116.995 90.4177 116.402 90.5977 115.708 90.5977C115.335 90.5977 114.962 90.531 114.588 90.3977C114.228 90.2643 113.875 90.1177 113.528 89.9577C113.182 89.7843 112.842 89.631 112.508 89.4977C112.188 89.3643 111.882 89.2977 111.588 89.2977C111.255 89.2977 110.955 89.4177 110.688 89.6577C110.422 89.8843 110.188 90.151 109.988 90.4577ZM124.081 95.8577C123.241 95.8577 122.461 95.651 121.741 95.2377C121.021 94.8243 120.454 94.271 120.041 93.5777L121.841 92.4377C122.107 92.851 122.421 93.1843 122.781 93.4377C123.154 93.691 123.587 93.8177 124.081 93.8177C124.827 93.8177 125.387 93.5977 125.761 93.1577C126.147 92.7043 126.341 92.0777 126.341 91.2777C126.341 90.411 126.174 89.7843 125.841 89.3977C125.521 88.9977 125.067 88.7977 124.481 88.7977C124.107 88.7977 123.774 88.8777 123.481 89.0377C123.187 89.1977 122.974 89.4377 122.841 89.7577H120.861V81.7377H127.981V83.6977H123.001V87.3777C123.227 87.2177 123.474 87.091 123.741 86.9977C124.007 86.891 124.274 86.8377 124.541 86.8377C125.287 86.8377 125.954 87.0043 126.541 87.3377C127.141 87.671 127.614 88.1643 127.961 88.8177C128.321 89.471 128.501 90.291 128.501 91.2777C128.501 92.731 128.094 93.8577 127.281 94.6577C126.467 95.4577 125.401 95.8577 124.081 95.8577ZM137.215 96.4977V94.1977H141.715V87.2377H138.335V84.9377H141.715V79.0377H144.135V84.9377H147.615V87.2377H144.135V94.1977H148.155V96.4977H137.215ZM133.235 97.1377V90.4777C132.862 90.811 132.475 91.1443 132.075 91.4777C131.675 91.7977 131.262 92.1043 130.835 92.3977C130.662 92.131 130.408 91.8177 130.075 91.4577C129.742 91.0977 129.455 90.8177 129.215 90.6177C129.748 90.311 130.308 89.931 130.895 89.4777C131.495 89.011 132.082 88.5043 132.655 87.9577C133.228 87.3977 133.748 86.8377 134.215 86.2777C134.682 85.7043 135.055 85.171 135.335 84.6777H130.275V82.5177H133.215V79.0177H135.535V82.5177H137.375L138.455 83.4177C137.895 84.671 137.168 85.8977 136.275 87.0977C136.622 87.3377 136.995 87.591 137.395 87.8577C137.808 88.111 138.202 88.351 138.575 88.5777C138.948 88.791 139.255 88.9643 139.495 89.0977C139.362 89.231 139.202 89.4177 139.015 89.6577C138.842 89.8843 138.668 90.1243 138.495 90.3777C138.335 90.6177 138.208 90.8243 138.115 90.9977C137.755 90.7577 137.348 90.4843 136.895 90.1777C136.442 89.8577 135.995 89.5443 135.555 89.2377V97.1377H133.235Z" fill="#111111"/>
<path d="M173.46 98.2657H189.06V103.738H167.508C167.412 103.226 167.332 102.714 167.268 102.202C167.204 101.674 167.172 101.066 167.172 100.378C167.172 98.3457 167.5 96.6097 168.156 95.1697C168.828 93.7297 169.804 92.4417 171.084 91.3057C172.38 90.1697 173.972 89.0497 175.86 87.9457C176.9 87.3377 177.94 86.6657 178.98 85.9297C180.02 85.1937 180.884 84.3217 181.572 83.3137C182.276 82.2897 182.628 81.0497 182.628 79.5937C182.628 78.3457 182.236 77.2337 181.452 76.2577C180.684 75.2817 179.444 74.7937 177.732 74.7937C175.956 74.7937 174.532 75.3697 173.46 76.5217C172.404 77.6737 171.732 79.1617 171.444 80.9857L166.356 78.5857C166.612 76.9217 167.26 75.4017 168.3 74.0257C169.34 72.6337 170.7 71.5297 172.38 70.7137C174.06 69.8817 175.988 69.4657 178.164 69.4657C180.148 69.4657 181.948 69.8417 183.564 70.5937C185.18 71.3297 186.468 72.4097 187.428 73.8337C188.388 75.2577 188.868 76.9857 188.868 79.0177C188.868 81.0977 188.492 82.8977 187.74 84.4177C186.988 85.9377 185.876 87.3217 184.404 88.5697C182.948 89.8177 181.156 91.0817 179.028 92.3617C177.524 93.2737 176.284 94.1297 175.308 94.9297C174.348 95.7137 173.732 96.8257 173.46 98.2657ZM206.177 104.602C204.673 104.602 203.169 104.418 201.665 104.05C200.177 103.682 198.817 103.106 197.585 102.322C196.369 101.522 195.393 100.482 194.657 99.2017C193.921 97.9217 193.553 96.3777 193.553 94.5697C193.553 92.4577 194.145 90.7137 195.329 89.3377C196.513 87.9617 198.057 86.9377 199.961 86.2657C198.425 85.5777 197.209 84.5697 196.313 83.2417C195.433 81.8977 194.993 80.2017 194.993 78.1537C194.993 76.0417 195.537 74.3537 196.625 73.0897C197.729 71.8097 199.137 70.8897 200.849 70.3297C202.577 69.7537 204.369 69.4657 206.225 69.4657C208.065 69.4657 209.833 69.7537 211.529 70.3297C213.225 70.8897 214.609 71.8097 215.681 73.0897C216.769 74.3537 217.313 76.0417 217.313 78.1537C217.313 80.1697 216.849 81.8497 215.921 83.1937C214.993 84.5217 213.785 85.5457 212.297 86.2657C214.217 86.9217 215.769 87.9457 216.953 89.3377C218.153 90.7137 218.753 92.4577 218.753 94.5697C218.753 96.3777 218.385 97.9217 217.649 99.2017C216.913 100.482 215.929 101.522 214.697 102.322C213.481 103.106 212.129 103.682 210.641 104.05C209.169 104.418 207.681 104.602 206.177 104.602ZM206.273 84.0577C207.761 84.0577 208.905 83.5777 209.705 82.6177C210.521 81.6577 210.929 80.3137 210.929 78.5857C210.929 77.0177 210.553 75.8417 209.801 75.0577C209.065 74.2737 207.889 73.8817 206.273 73.8817C203.041 73.8817 201.425 75.4497 201.425 78.5857C201.425 80.3137 201.857 81.6577 202.721 82.6177C203.601 83.5777 204.785 84.0577 206.273 84.0577ZM206.177 99.7537C209.921 99.7537 211.793 97.9937 211.793 94.4737C211.793 93.0337 211.513 91.8977 210.953 91.0657C210.409 90.2337 209.705 89.6417 208.841 89.2897C207.977 88.9377 207.089 88.7617 206.177 88.7617C205.249 88.7617 204.345 88.9377 203.465 89.2897C202.601 89.6417 201.881 90.2337 201.305 91.0657C200.745 91.8977 200.465 93.0337 200.465 94.4737C200.465 96.2497 200.953 97.5777 201.929 98.4577C202.921 99.3217 204.337 99.7537 206.177 99.7537Z" fill="#00B6B6"/>
<path d="M227.986 95.9857C226.61 95.9857 225.594 95.5737 224.938 94.7497C224.282 93.9177 223.954 92.8177 223.954 91.4497C223.954 89.8417 224.318 88.6777 225.046 87.9577C225.774 87.2297 226.754 86.8657 227.986 86.8657C229.21 86.8657 230.174 87.2297 230.878 87.9577C231.59 88.6777 231.946 89.8497 231.946 91.4737C231.946 92.3617 231.818 93.1457 231.562 93.8257C231.314 94.4977 230.898 95.0257 230.314 95.4097C229.738 95.7937 228.962 95.9857 227.986 95.9857ZM227.962 103.738L237.13 87.0097H239.482L230.314 103.738H227.962ZM227.962 94.1857C228.362 94.1857 228.658 94.0617 228.85 93.8137C229.042 93.5657 229.166 93.2417 229.222 92.8417C229.278 92.4337 229.306 91.9937 229.306 91.5217C229.306 90.5697 229.21 89.8617 229.018 89.3977C228.834 88.9257 228.466 88.6897 227.914 88.6897C227.386 88.6897 227.022 88.9217 226.822 89.3857C226.622 89.8497 226.522 90.5377 226.522 91.4497C226.522 92.2017 226.61 92.8457 226.786 93.3817C226.962 93.9177 227.354 94.1857 227.962 94.1857ZM239.578 104.098C238.186 104.098 237.166 103.682 236.518 102.85C235.87 102.01 235.546 100.906 235.546 99.5377C235.546 97.9377 235.906 96.7737 236.626 96.0457C237.346 95.3177 238.322 94.9537 239.554 94.9537C240.778 94.9537 241.746 95.3217 242.458 96.0577C243.178 96.7857 243.538 97.9617 243.538 99.5857C243.538 100.466 243.41 101.246 243.154 101.926C242.898 102.606 242.478 103.138 241.894 103.522C241.318 103.906 240.546 104.098 239.578 104.098ZM239.506 102.25C239.922 102.25 240.226 102.13 240.418 101.89C240.61 101.65 240.734 101.33 240.79 100.93C240.846 100.53 240.874 100.09 240.874 99.6097C240.874 98.6577 240.782 97.9497 240.598 97.4857C240.414 97.0137 240.05 96.7777 239.506 96.7777C238.954 96.7777 238.582 97.0097 238.39 97.4737C238.206 97.9377 238.114 98.6337 238.114 99.5617C238.114 100.306 238.194 100.942 238.354 101.47C238.522 101.99 238.906 102.25 239.506 102.25Z" fill="#00B6B6"/>
<path d="M200.885 148.858C200.045 148.858 199.265 148.651 198.545 148.238C197.825 147.824 197.259 147.271 196.845 146.578L198.645 145.438C198.912 145.851 199.225 146.184 199.585 146.438C199.959 146.691 200.392 146.818 200.885 146.818C201.632 146.818 202.192 146.598 202.565 146.158C202.952 145.704 203.145 145.078 203.145 144.278C203.145 143.411 202.979 142.784 202.645 142.398C202.325 141.998 201.872 141.798 201.285 141.798C200.912 141.798 200.579 141.878 200.285 142.038C199.992 142.198 199.779 142.438 199.645 142.758H197.665V134.738H204.785V136.698H199.805V140.378C200.032 140.218 200.279 140.091 200.545 139.998C200.812 139.891 201.079 139.838 201.345 139.838C202.092 139.838 202.759 140.004 203.345 140.338C203.945 140.671 204.419 141.164 204.765 141.818C205.125 142.471 205.305 143.291 205.305 144.278C205.305 145.731 204.899 146.858 204.085 147.658C203.272 148.458 202.205 148.858 200.885 148.858ZM208.18 143.458L206.74 142.178C207.073 141.631 207.487 141.171 207.98 140.798C208.487 140.424 209.08 140.238 209.76 140.238C210.12 140.238 210.487 140.304 210.86 140.438C211.247 140.571 211.62 140.724 211.98 140.898C212.34 141.071 212.68 141.224 213 141.358C213.333 141.491 213.627 141.558 213.88 141.558C214.213 141.558 214.513 141.444 214.78 141.218C215.047 140.978 215.287 140.704 215.5 140.398L216.94 141.658C216.607 142.218 216.187 142.684 215.68 143.058C215.187 143.418 214.593 143.598 213.9 143.598C213.527 143.598 213.153 143.531 212.78 143.398C212.42 143.264 212.067 143.118 211.72 142.958C211.373 142.784 211.033 142.631 210.7 142.498C210.38 142.364 210.073 142.298 209.78 142.298C209.447 142.298 209.147 142.418 208.88 142.658C208.613 142.884 208.38 143.151 208.18 143.458ZM221.452 148.738V137.458L219.012 139.058L217.872 137.238L221.952 134.718H223.592V148.738H221.452ZM231.056 148.938C229.989 148.938 229.156 148.671 228.556 148.138C227.956 147.604 227.529 146.804 227.276 145.738C227.036 144.671 226.916 143.338 226.916 141.738C226.916 140.138 227.036 138.804 227.276 137.738C227.529 136.658 227.956 135.851 228.556 135.318C229.156 134.784 229.989 134.518 231.056 134.518C232.122 134.518 232.949 134.784 233.536 135.318C234.136 135.851 234.556 136.658 234.796 137.738C235.049 138.804 235.176 140.138 235.176 141.738C235.176 143.338 235.049 144.671 234.796 145.738C234.556 146.804 234.136 147.604 233.536 148.138C232.949 148.671 232.122 148.938 231.056 148.938ZM231.056 146.898C231.549 146.898 231.936 146.744 232.216 146.438C232.509 146.118 232.722 145.584 232.856 144.838C232.989 144.091 233.056 143.058 233.056 141.738C233.056 140.404 232.989 139.364 232.856 138.618C232.722 137.871 232.509 137.344 232.216 137.038C231.936 136.718 231.549 136.558 231.056 136.558C230.562 136.558 230.169 136.718 229.876 137.038C229.582 137.344 229.369 137.871 229.236 138.618C229.116 139.364 229.056 140.404 229.056 141.738C229.056 143.058 229.116 144.091 229.236 144.838C229.369 145.584 229.582 146.118 229.876 146.438C230.169 146.744 230.562 146.898 231.056 146.898ZM244.235 149.498V147.198H248.735V140.238H245.355V137.938H248.735V132.038H251.155V137.938H254.635V140.238H251.155V147.198H255.175V149.498H244.235ZM240.255 150.138V143.478C239.881 143.811 239.495 144.144 239.095 144.478C238.695 144.798 238.281 145.104 237.855 145.398C237.681 145.131 237.428 144.818 237.095 144.458C236.761 144.098 236.475 143.818 236.235 143.618C236.768 143.311 237.328 142.931 237.915 142.478C238.515 142.011 239.101 141.504 239.675 140.958C240.248 140.398 240.768 139.838 241.235 139.278C241.701 138.704 242.075 138.171 242.355 137.678H237.295V135.518H240.235V132.018H242.555V135.518H244.395L245.475 136.418C244.915 137.671 244.188 138.898 243.295 140.098C243.641 140.338 244.015 140.591 244.415 140.858C244.828 141.111 245.221 141.351 245.595 141.578C245.968 141.791 246.275 141.964 246.515 142.098C246.381 142.231 246.221 142.418 246.035 142.658C245.861 142.884 245.688 143.124 245.515 143.378C245.355 143.618 245.228 143.824 245.135 143.998C244.775 143.758 244.368 143.484 243.915 143.178C243.461 142.858 243.015 142.544 242.575 142.238V150.138H240.255Z" fill="#111111"/>
<path d="M281.982 157.458C280.414 157.458 278.87 157.17 277.35 156.594C275.83 156.018 274.454 155.082 273.222 153.786C272.006 152.474 271.03 150.738 270.294 148.578C269.574 146.418 269.214 143.762 269.214 140.61C269.214 136.866 269.838 133.642 271.086 130.938C272.35 128.218 274.078 126.13 276.27 124.674C278.478 123.202 280.99 122.466 283.806 122.466C286.062 122.466 287.798 122.69 289.014 123.138C290.246 123.57 291.246 124.162 292.014 124.914L289.662 129.522C289.022 128.818 288.166 128.338 287.094 128.082C286.022 127.826 285.038 127.698 284.142 127.698C282.478 127.698 281.03 128.194 279.798 129.186C278.582 130.178 277.622 131.45 276.918 133.002C276.214 134.538 275.806 136.13 275.694 137.778C275.678 138.114 275.662 138.426 275.646 138.714C275.646 139.002 275.646 139.282 275.646 139.554C276.51 137.89 277.726 136.682 279.294 135.93C280.878 135.178 282.542 134.802 284.286 134.802C286.446 134.802 288.27 135.282 289.758 136.242C291.262 137.186 292.398 138.458 293.166 140.058C293.934 141.658 294.318 143.426 294.318 145.362C294.318 147.826 293.798 149.962 292.758 151.77C291.734 153.578 290.294 154.978 288.438 155.97C286.598 156.962 284.446 157.458 281.982 157.458ZM282.318 152.514C283.838 152.514 285.142 151.938 286.23 150.786C287.334 149.618 287.886 148.002 287.886 145.938C287.886 144.066 287.478 142.562 286.662 141.426C285.846 140.274 284.574 139.698 282.846 139.698C281.79 139.698 280.774 139.962 279.798 140.49C278.838 141.002 278.038 141.69 277.398 142.554C276.774 143.418 276.43 144.37 276.366 145.41C276.366 146.674 276.598 147.85 277.062 148.938C277.542 150.01 278.222 150.874 279.102 151.53C279.998 152.186 281.07 152.514 282.318 152.514ZM297.311 150.162L309.647 123.282H319.775V146.034H323.807V150.69H319.775V156.738H313.487V150.69H297.647L297.311 150.162ZM305.855 146.034H313.775L313.991 126.714L308.591 140.082L305.855 146.034Z" fill="#00B6B6"/>
<path d="M330.986 148.986C329.61 148.986 328.594 148.574 327.938 147.75C327.282 146.918 326.954 145.818 326.954 144.45C326.954 142.842 327.318 141.678 328.046 140.958C328.774 140.23 329.754 139.866 330.986 139.866C332.21 139.866 333.174 140.23 333.878 140.958C334.59 141.678 334.946 142.85 334.946 144.474C334.946 145.362 334.818 146.146 334.562 146.826C334.314 147.498 333.898 148.026 333.314 148.41C332.738 148.794 331.962 148.986 330.986 148.986ZM330.962 156.738L340.13 140.01H342.482L333.314 156.738H330.962ZM330.962 147.186C331.362 147.186 331.658 147.062 331.85 146.814C332.042 146.566 332.166 146.242 332.222 145.842C332.278 145.434 332.306 144.994 332.306 144.522C332.306 143.57 332.21 142.862 332.018 142.398C331.834 141.926 331.466 141.69 330.914 141.69C330.386 141.69 330.022 141.922 329.822 142.386C329.622 142.85 329.522 143.538 329.522 144.45C329.522 145.202 329.61 145.846 329.786 146.382C329.962 146.918 330.354 147.186 330.962 147.186ZM342.578 157.098C341.186 157.098 340.166 156.682 339.518 155.85C338.87 155.01 338.546 153.906 338.546 152.538C338.546 150.938 338.906 149.774 339.626 149.046C340.346 148.318 341.322 147.954 342.554 147.954C343.778 147.954 344.746 148.322 345.458 149.058C346.178 149.786 346.538 150.962 346.538 152.586C346.538 153.466 346.41 154.246 346.154 154.926C345.898 155.606 345.478 156.138 344.894 156.522C344.318 156.906 343.546 157.098 342.578 157.098ZM342.506 155.25C342.922 155.25 343.226 155.13 343.418 154.89C343.61 154.65 343.734 154.33 343.79 153.93C343.846 153.53 343.874 153.09 343.874 152.61C343.874 151.658 343.782 150.95 343.598 150.486C343.414 150.014 343.05 149.778 342.506 149.778C341.954 149.778 341.582 150.01 341.39 150.474C341.206 150.938 341.114 151.634 341.114 152.562C341.114 153.306 341.194 153.942 341.354 154.47C341.522 154.99 341.906 155.25 342.506 155.25Z" fill="#00B6B6"/>
<path d="M50.2587 204.701V193.421L47.8187 195.021L46.6787 193.201L50.7587 190.681H52.3987V204.701H50.2587ZM59.8623 204.901C58.7956 204.901 57.9623 204.634 57.3623 204.101C56.7623 203.567 56.3356 202.767 56.0823 201.701C55.8423 200.634 55.7223 199.301 55.7223 197.701C55.7223 196.101 55.8423 194.767 56.0823 193.701C56.3356 192.621 56.7623 191.814 57.3623 191.281C57.9623 190.747 58.7956 190.481 59.8623 190.481C60.9289 190.481 61.7556 190.747 62.3423 191.281C62.9423 191.814 63.3623 192.621 63.6023 193.701C63.8556 194.767 63.9823 196.101 63.9823 197.701C63.9823 199.301 63.8556 200.634 63.6023 201.701C63.3623 202.767 62.9423 203.567 62.3423 204.101C61.7556 204.634 60.9289 204.901 59.8623 204.901ZM59.8623 202.861C60.3556 202.861 60.7423 202.707 61.0223 202.401C61.3156 202.081 61.5289 201.547 61.6623 200.801C61.7956 200.054 61.8623 199.021 61.8623 197.701C61.8623 196.367 61.7956 195.327 61.6623 194.581C61.5289 193.834 61.3156 193.307 61.0223 193.001C60.7423 192.681 60.3556 192.521 59.8623 192.521C59.3689 192.521 58.9756 192.681 58.6823 193.001C58.3889 193.307 58.1756 193.834 58.0423 194.581C57.9223 195.327 57.8623 196.367 57.8623 197.701C57.8623 199.021 57.9223 200.054 58.0423 200.801C58.1756 201.547 58.3889 202.081 58.6823 202.401C58.9756 202.707 59.3689 202.861 59.8623 202.861ZM73.0413 205.461V203.161H77.5413V196.201H74.1613V193.901H77.5413V188.001H79.9613V193.901H83.4413V196.201H79.9613V203.161H83.9813V205.461H73.0413ZM69.0613 206.101V199.441C68.688 199.774 68.3013 200.107 67.9013 200.441C67.5013 200.761 67.088 201.067 66.6613 201.361C66.488 201.094 66.2347 200.781 65.9013 200.421C65.568 200.061 65.2813 199.781 65.0413 199.581C65.5747 199.274 66.1347 198.894 66.7213 198.441C67.3213 197.974 67.908 197.467 68.4813 196.921C69.0547 196.361 69.5747 195.801 70.0413 195.241C70.508 194.667 70.8813 194.134 71.1613 193.641H66.1013V191.481H69.0413V187.981H71.3613V191.481H73.2013L74.2813 192.381C73.7213 193.634 72.9947 194.861 72.1013 196.061C72.448 196.301 72.8213 196.554 73.2213 196.821C73.6347 197.074 74.028 197.314 74.4013 197.541C74.7747 197.754 75.0813 197.927 75.3213 198.061C75.188 198.194 75.028 198.381 74.8413 198.621C74.668 198.847 74.4947 199.087 74.3213 199.341C74.1613 199.581 74.0347 199.787 73.9413 199.961C73.5813 199.721 73.1747 199.447 72.7213 199.141C72.268 198.821 71.8213 198.507 71.3813 198.201V206.101H69.0613ZM92.3413 205.901C92.2747 205.687 92.168 205.441 92.0213 205.161C91.888 204.894 91.7347 204.627 91.5613 204.361C91.4013 204.094 91.2413 203.881 91.0813 203.721C92.668 203.347 93.9947 202.867 95.0613 202.281C96.1413 201.681 97.008 200.907 97.6613 199.961C98.3147 199.001 98.7813 197.801 99.0613 196.361C99.3547 194.907 99.5013 193.141 99.5013 191.061V188.661H102.061V191.061C102.061 193.021 101.921 194.741 101.641 196.221C101.375 197.701 100.961 198.994 100.401 200.101C100.841 200.407 101.308 200.767 101.801 201.181C102.295 201.594 102.761 202.001 103.201 202.401C103.641 202.787 103.988 203.127 104.241 203.421C104.081 203.554 103.875 203.741 103.621 203.981C103.381 204.221 103.148 204.467 102.921 204.721C102.708 204.974 102.541 205.201 102.421 205.401C102.195 205.094 101.895 204.747 101.521 204.361C101.148 203.961 100.748 203.561 100.321 203.161C99.908 202.747 99.508 202.381 99.1213 202.061C98.3213 202.994 97.3547 203.767 96.2213 204.381C95.1013 204.994 93.808 205.501 92.3413 205.901ZM86.3213 204.021L85.3813 201.681C85.648 201.614 85.9947 201.521 86.4213 201.401C86.848 201.267 87.3213 201.114 87.8413 200.941V188.701H90.3813V200.041C91.3413 199.694 92.248 199.347 93.1013 199.001C93.968 198.641 94.628 198.334 95.0813 198.081V200.561C94.588 200.827 93.968 201.127 93.2213 201.461C92.4747 201.781 91.6813 202.107 90.8413 202.441C90.0147 202.761 89.2013 203.061 88.4013 203.341C87.6147 203.621 86.9213 203.847 86.3213 204.021ZM95.9813 195.361C95.6747 194.947 95.2747 194.494 94.7813 194.001C94.3013 193.507 93.7947 193.034 93.2613 192.581C92.728 192.127 92.2347 191.761 91.7813 191.481L93.4413 189.741C93.908 190.047 94.4147 190.427 94.9613 190.881C95.5213 191.334 96.0547 191.801 96.5613 192.281C97.0813 192.747 97.5013 193.174 97.8213 193.561C97.6347 193.681 97.4147 193.861 97.1613 194.101C96.9213 194.327 96.6947 194.561 96.4813 194.801C96.268 195.027 96.1013 195.214 95.9813 195.361ZM105.841 205.101V202.741H113.001V188.501H115.601V194.421H122.621V196.861H115.601V202.741H123.881V205.101H105.841Z" fill="#111111"/>
<path d="M155.271 213.565C153.767 213.565 152.263 213.381 150.759 213.013C149.271 212.645 147.911 212.069 146.679 211.285C145.463 210.485 144.487 209.445 143.751 208.165C143.015 206.885 142.647 205.341 142.647 203.533C142.647 201.421 143.239 199.677 144.423 198.301C145.607 196.925 147.151 195.901 149.055 195.229C147.519 194.541 146.303 193.533 145.407 192.205C144.527 190.861 144.087 189.165 144.087 187.117C144.087 185.005 144.631 183.317 145.719 182.053C146.823 180.773 148.231 179.853 149.943 179.293C151.671 178.717 153.463 178.429 155.319 178.429C157.159 178.429 158.927 178.717 160.623 179.293C162.319 179.853 163.703 180.773 164.775 182.053C165.863 183.317 166.407 185.005 166.407 187.117C166.407 189.133 165.943 190.813 165.015 192.157C164.087 193.485 162.879 194.509 161.391 195.229C163.311 195.885 164.863 196.909 166.047 198.301C167.247 199.677 167.847 201.421 167.847 203.533C167.847 205.341 167.479 206.885 166.743 208.165C166.007 209.445 165.023 210.485 163.791 211.285C162.575 212.069 161.223 212.645 159.735 213.013C158.263 213.381 156.775 213.565 155.271 213.565ZM155.367 193.021C156.855 193.021 157.999 192.541 158.799 191.581C159.615 190.621 160.023 189.277 160.023 187.549C160.023 185.981 159.647 184.805 158.895 184.021C158.159 183.237 156.983 182.845 155.367 182.845C152.135 182.845 150.519 184.413 150.519 187.549C150.519 189.277 150.951 190.621 151.815 191.581C152.695 192.541 153.879 193.021 155.367 193.021ZM155.271 208.717C159.015 208.717 160.887 206.957 160.887 203.437C160.887 201.997 160.607 200.861 160.047 200.029C159.503 199.197 158.799 198.605 157.935 198.253C157.071 197.901 156.183 197.725 155.271 197.725C154.343 197.725 153.439 197.901 152.559 198.253C151.695 198.605 150.975 199.197 150.399 200.029C149.839 200.861 149.559 201.997 149.559 203.437C149.559 205.213 150.047 206.541 151.023 207.421C152.015 208.285 153.431 208.717 155.271 208.717Z" fill="#00B6B6"/>
<path d="M177.486 204.949C176.11 204.949 175.094 204.537 174.438 203.713C173.782 202.881 173.454 201.781 173.454 200.413C173.454 198.805 173.818 197.641 174.546 196.921C175.274 196.193 176.254 195.829 177.486 195.829C178.71 195.829 179.674 196.193 180.378 196.921C181.09 197.641 181.446 198.813 181.446 200.437C181.446 201.325 181.318 202.109 181.062 202.789C180.814 203.461 180.398 203.989 179.814 204.373C179.238 204.757 178.462 204.949 177.486 204.949ZM177.462 212.701L186.63 195.973H188.982L179.814 212.701H177.462ZM177.462 203.149C177.862 203.149 178.158 203.025 178.35 202.777C178.542 202.529 178.666 202.205 178.722 201.805C178.778 201.397 178.806 200.957 178.806 200.485C178.806 199.533 178.71 198.825 178.518 198.361C178.334 197.889 177.966 197.653 177.414 197.653C176.886 197.653 176.522 197.885 176.322 198.349C176.122 198.813 176.022 199.501 176.022 200.413C176.022 201.165 176.11 201.809 176.286 202.345C176.462 202.881 176.854 203.149 177.462 203.149ZM189.078 213.061C187.686 213.061 186.666 212.645 186.018 211.813C185.37 210.973 185.046 209.869 185.046 208.501C185.046 206.901 185.406 205.737 186.126 205.009C186.846 204.281 187.822 203.917 189.054 203.917C190.278 203.917 191.246 204.285 191.958 205.021C192.678 205.749 193.038 206.925 193.038 208.549C193.038 209.429 192.91 210.209 192.654 210.889C192.398 211.569 191.978 212.101 191.394 212.485C190.818 212.869 190.046 213.061 189.078 213.061ZM189.006 211.213C189.422 211.213 189.726 211.093 189.918 210.853C190.11 210.613 190.234 210.293 190.29 209.893C190.346 209.493 190.374 209.053 190.374 208.573C190.374 207.621 190.282 206.913 190.098 206.449C189.914 205.977 189.55 205.741 189.006 205.741C188.454 205.741 188.082 205.973 187.89 206.437C187.706 206.901 187.614 207.597 187.614 208.525C187.614 209.269 187.694 209.905 187.854 210.433C188.022 210.953 188.406 211.213 189.006 211.213Z" fill="#00B6B6"/>
<rect x="15.25" y="64.2444" width="76.4695" height="44.982" fill="#00B6B6"/>
<rect x="15.25" y="120.472" width="173.931" height="44.982" fill="#54D2D2"/>
<rect x="15.25" y="176.699" width="21.7413" height="44.982" fill="#6EE6E6"/>
<path d="M15.25 50V235.926" stroke="#DCDCDC" stroke-width="2" stroke-linecap="round"/>
<rect x="33.25" y="261" width="296" height="49" rx="5" fill="url(#paint0_linear_1099_12184)" fill-opacity="0.3"/>
<path d="M95.384 291.854V289.104C95.868 289.148 96.7773 289.177 98.112 289.192C99.4467 289.192 101.06 289.199 102.952 289.214V283.45C102.131 283.45 101.339 283.457 100.576 283.472C99.828 283.487 99.1827 283.501 98.64 283.516C98.0973 283.516 97.7233 283.531 97.518 283.56V280.81C97.9433 280.854 98.7573 280.883 99.96 280.898C101.177 280.913 102.651 280.92 104.382 280.92C106.054 280.92 107.491 280.913 108.694 280.898C109.911 280.883 110.718 280.854 111.114 280.81V283.56C110.791 283.531 110.161 283.509 109.222 283.494C108.298 283.479 107.125 283.465 105.702 283.45V289.192C106.905 289.192 108.005 289.192 109.002 289.192C110.014 289.177 110.857 289.163 111.532 289.148C112.221 289.133 112.691 289.119 112.94 289.104V291.854C112.471 291.81 111.473 291.781 109.948 291.766C108.437 291.751 106.545 291.744 104.272 291.744C103.319 291.744 102.365 291.744 101.412 291.744C100.459 291.744 99.564 291.751 98.728 291.766C97.9067 291.781 97.2027 291.795 96.616 291.81C96.0293 291.81 95.6187 291.825 95.384 291.854ZM120.266 294.384L118.77 291.678C119.811 291.458 120.904 291.099 122.048 290.6C123.207 290.087 124.365 289.493 125.524 288.818C126.683 288.129 127.783 287.395 128.824 286.618C129.865 285.826 130.804 285.027 131.64 284.22C132.491 283.413 133.18 282.643 133.708 281.91C133.767 282.159 133.862 282.467 133.994 282.834C134.141 283.201 134.295 283.56 134.456 283.912C134.617 284.249 134.757 284.513 134.874 284.704C134.155 285.628 133.253 286.567 132.168 287.52C131.097 288.459 129.909 289.368 128.604 290.248C127.299 291.113 125.935 291.905 124.512 292.624C123.089 293.343 121.674 293.929 120.266 294.384ZM122.62 284.682C122.429 284.477 122.158 284.235 121.806 283.956C121.469 283.677 121.087 283.384 120.662 283.076C120.251 282.768 119.848 282.489 119.452 282.24C119.056 281.976 118.711 281.778 118.418 281.646L120.178 279.424C120.471 279.585 120.816 279.791 121.212 280.04C121.608 280.289 122.011 280.561 122.422 280.854C122.847 281.147 123.243 281.441 123.61 281.734C123.977 282.013 124.27 282.262 124.49 282.482L122.62 284.682ZM145.742 295.682V277.95H148.426V284.616L149.416 283.208C149.768 283.457 150.23 283.773 150.802 284.154C151.389 284.521 152.012 284.902 152.672 285.298C153.332 285.679 153.97 286.031 154.586 286.354C155.202 286.677 155.723 286.919 156.148 287.08C155.972 287.241 155.767 287.476 155.532 287.784C155.312 288.077 155.107 288.385 154.916 288.708C154.725 289.016 154.571 289.28 154.454 289.5C154.102 289.309 153.662 289.067 153.134 288.774C152.621 288.466 152.071 288.129 151.484 287.762C150.912 287.395 150.355 287.036 149.812 286.684C149.284 286.317 148.822 285.987 148.426 285.694V295.682H145.742ZM167.412 296.034C167.309 295.829 167.155 295.587 166.95 295.308C166.759 295.029 166.547 294.751 166.312 294.472C166.077 294.193 165.857 293.966 165.652 293.79C167.163 293.159 168.409 292.404 169.392 291.524C170.375 290.644 171.108 289.573 171.592 288.312C172.076 287.036 172.318 285.518 172.318 283.758V282.746C172.318 282.423 172.311 282.005 172.296 281.492C172.296 280.979 172.289 280.451 172.274 279.908C172.274 279.365 172.267 278.874 172.252 278.434C172.252 277.994 172.245 277.679 172.23 277.488H175.068V283.758C175.068 285.811 174.797 287.601 174.254 289.126C173.711 290.637 172.875 291.957 171.746 293.086C170.617 294.201 169.172 295.183 167.412 296.034ZM165.586 288.422C165.601 288.29 165.601 287.967 165.586 287.454C165.586 286.926 165.579 286.288 165.564 285.54C165.564 284.792 165.557 284.007 165.542 283.186C165.527 282.365 165.505 281.58 165.476 280.832C165.461 280.084 165.447 279.453 165.432 278.94C165.417 278.412 165.403 278.082 165.388 277.95H168.116C168.116 278.111 168.116 278.449 168.116 278.962C168.116 279.475 168.116 280.099 168.116 280.832C168.131 281.551 168.145 282.306 168.16 283.098C168.175 283.89 168.189 284.66 168.204 285.408C168.233 286.141 168.255 286.779 168.27 287.322C168.299 287.85 168.321 288.209 168.336 288.4L165.586 288.422ZM183.274 288.07C183.289 287.865 183.296 287.586 183.296 287.234C183.296 286.882 183.296 286.53 183.296 286.178C183.296 285.826 183.289 285.547 183.274 285.342C183.553 285.357 184.044 285.371 184.748 285.386C185.467 285.401 186.317 285.415 187.3 285.43C188.297 285.445 189.361 285.459 190.49 285.474C191.619 285.474 192.749 285.474 193.878 285.474C195.007 285.474 196.071 285.467 197.068 285.452C198.08 285.437 198.953 285.423 199.686 285.408C200.419 285.393 200.94 285.371 201.248 285.342C201.233 285.533 201.219 285.804 201.204 286.156C201.204 286.508 201.204 286.867 201.204 287.234C201.219 287.586 201.226 287.857 201.226 288.048C200.859 288.033 200.317 288.019 199.598 288.004C198.894 287.989 198.065 287.975 197.112 287.96C196.173 287.945 195.169 287.938 194.098 287.938C193.042 287.938 191.971 287.938 190.886 287.938C189.801 287.938 188.767 287.945 187.784 287.96C186.801 287.975 185.914 287.989 185.122 288.004C184.345 288.019 183.729 288.041 183.274 288.07ZM204.79 296.012V293.68H208.09V286.222H210.708V293.68H213.348V282.416H215.988V287.102H221.136V289.522H215.988V293.68H223.666V296.012H204.79ZM205.076 286.31C204.929 285.987 204.695 285.606 204.372 285.166C204.049 284.726 203.741 284.352 203.448 284.044C204.357 283.692 205.296 283.223 206.264 282.636C207.247 282.049 208.185 281.397 209.08 280.678C209.975 279.959 210.781 279.226 211.5 278.478C212.219 277.73 212.776 277.026 213.172 276.366L215.636 276.718C216.135 277.437 216.743 278.148 217.462 278.852C218.195 279.541 218.987 280.201 219.838 280.832C220.689 281.448 221.561 282.005 222.456 282.504C223.351 282.988 224.216 283.384 225.052 283.692C224.729 284.015 224.399 284.425 224.062 284.924C223.725 285.423 223.475 285.833 223.314 286.156C222.17 285.628 221.033 284.99 219.904 284.242C218.789 283.494 217.755 282.687 216.802 281.822C215.849 280.942 215.035 280.055 214.36 279.16C213.92 279.761 213.326 280.407 212.578 281.096C211.845 281.785 211.038 282.467 210.158 283.142C209.278 283.802 208.391 284.411 207.496 284.968C206.616 285.525 205.809 285.973 205.076 286.31ZM235.04 296.826V292.448C234.38 293.035 233.632 293.592 232.796 294.12C231.975 294.648 231.124 295.125 230.244 295.55C229.379 295.975 228.535 296.327 227.714 296.606C227.641 296.43 227.531 296.21 227.384 295.946C227.237 295.697 227.076 295.44 226.9 295.176C226.724 294.927 226.555 294.729 226.394 294.582C227.113 294.362 227.883 294.069 228.704 293.702C229.525 293.321 230.332 292.903 231.124 292.448C231.931 291.979 232.649 291.509 233.28 291.04H226.438V289.038H235.04V288.048H228.726V286.134H235.04V285.166H227.736V283.208H231.74C231.637 282.959 231.535 282.717 231.432 282.482C231.329 282.233 231.219 282.013 231.102 281.822H226.438V279.82H229.562C229.415 279.439 229.239 279.021 229.034 278.566C228.843 278.111 228.645 277.745 228.44 277.466L230.662 276.564C230.809 276.784 230.963 277.07 231.124 277.422C231.3 277.759 231.461 278.097 231.608 278.434C231.755 278.757 231.872 279.028 231.96 279.248L230.574 279.82H233.016V276.586H235.414V279.82H236.932V276.586H239.352V279.82H241.948L240.166 279.204C240.313 278.999 240.474 278.735 240.65 278.412C240.841 278.075 241.017 277.737 241.178 277.4C241.354 277.048 241.479 276.769 241.552 276.564L243.972 277.268C243.84 277.517 243.679 277.811 243.488 278.148C243.297 278.485 243.107 278.808 242.916 279.116C242.74 279.409 242.593 279.644 242.476 279.82H246.04V281.822H241.354C241.163 282.321 240.973 282.783 240.782 283.208H244.544V285.166H237.482V286.134H243.664V288.048H237.482V289.038H246.062V291.04H239.198C239.829 291.509 240.54 291.979 241.332 292.448C242.124 292.903 242.931 293.313 243.752 293.68C244.573 294.047 245.343 294.34 246.062 294.56C245.915 294.707 245.754 294.905 245.578 295.154C245.402 295.418 245.241 295.682 245.094 295.946C244.947 296.21 244.837 296.43 244.764 296.606C243.957 296.327 243.121 295.975 242.256 295.55C241.391 295.139 240.547 294.67 239.726 294.142C238.905 293.614 238.157 293.057 237.482 292.47V296.826H235.04ZM234.49 283.208H237.988C238.091 283.003 238.193 282.783 238.296 282.548C238.399 282.299 238.501 282.057 238.604 281.822H233.896C234.013 282.057 234.123 282.299 234.226 282.548C234.329 282.797 234.417 283.017 234.49 283.208ZM258.536 296.672C258.433 296.467 258.287 296.217 258.096 295.924C257.92 295.631 257.729 295.345 257.524 295.066C257.333 295.286 257.135 295.521 256.93 295.77C256.725 296.019 256.563 296.225 256.446 296.386C256.182 296.137 255.874 295.873 255.522 295.594C255.17 295.33 254.789 295.059 254.378 294.78C253.659 295.279 252.838 295.675 251.914 295.968C251.005 296.276 249.993 296.503 248.878 296.65C248.834 296.474 248.761 296.239 248.658 295.946C248.57 295.667 248.475 295.389 248.372 295.11C248.269 294.846 248.167 294.641 248.064 294.494C249.721 294.362 251.1 294.003 252.2 293.416C251.012 292.727 249.978 292.199 249.098 291.832C249.259 291.627 249.443 291.37 249.648 291.062C249.853 290.739 250.066 290.395 250.286 290.028H248.152V287.938H251.496C251.98 287.087 252.325 286.398 252.53 285.87V283.714C252.075 284.227 251.569 284.741 251.012 285.254C250.455 285.767 249.934 286.2 249.45 286.552C249.333 286.376 249.171 286.178 248.966 285.958C248.775 285.738 248.577 285.54 248.372 285.364C248.181 285.173 248.02 285.034 247.888 284.946C248.211 284.755 248.577 284.506 248.988 284.198C249.413 283.875 249.839 283.523 250.264 283.142C250.689 282.761 251.078 282.394 251.43 282.042H248.372V280.04H250C249.78 279.615 249.531 279.189 249.252 278.764C248.973 278.324 248.709 277.965 248.46 277.686L250.176 276.718C250.381 276.953 250.601 277.239 250.836 277.576C251.071 277.913 251.291 278.251 251.496 278.588C251.716 278.911 251.885 279.197 252.002 279.446C251.65 279.593 251.269 279.791 250.858 280.04H252.53V276.542H254.73V280.04H256.292C256.101 279.923 255.911 279.82 255.72 279.732C255.529 279.644 255.361 279.571 255.214 279.512C255.537 279.072 255.837 278.595 256.116 278.082C256.409 277.569 256.637 277.099 256.798 276.674L258.778 277.488C258.602 277.869 258.375 278.295 258.096 278.764C257.832 279.233 257.568 279.659 257.304 280.04H258.822V282.042H255.83C256.211 282.467 256.637 282.9 257.106 283.34C257.59 283.765 258.037 284.11 258.448 284.374C258.228 284.55 257.971 284.792 257.678 285.1C257.385 285.393 257.143 285.672 256.952 285.936C256.571 285.643 256.189 285.313 255.808 284.946C255.427 284.565 255.067 284.169 254.73 283.758V286.046H253.102L254.774 286.596C254.686 286.787 254.583 286.999 254.466 287.234C254.349 287.454 254.224 287.689 254.092 287.938H259.064V290.028H257.634C257.311 291.245 256.805 292.287 256.116 293.152C256.439 293.343 256.739 293.541 257.018 293.746C257.311 293.951 257.583 294.157 257.832 294.362C258.741 293.981 259.548 293.511 260.252 292.954C260.971 292.397 261.587 291.773 262.1 291.084C261.689 290.336 261.337 289.551 261.044 288.73C260.751 287.909 260.509 287.065 260.318 286.2C260.171 286.479 260.017 286.743 259.856 286.992C259.709 287.227 259.555 287.461 259.394 287.696C259.159 287.491 258.837 287.278 258.426 287.058C258.03 286.823 257.649 286.647 257.282 286.53C257.781 285.914 258.228 285.203 258.624 284.396C259.02 283.589 259.365 282.739 259.658 281.844C259.966 280.935 260.215 280.04 260.406 279.16C260.597 278.265 260.736 277.429 260.824 276.652L263.244 277.004C263.039 278.28 262.76 279.571 262.408 280.876H268.37V283.076H267.072C266.955 284.66 266.72 286.119 266.368 287.454C266.031 288.774 265.554 289.977 264.938 291.062C265.994 292.397 267.321 293.555 268.92 294.538C268.729 294.729 268.517 294.956 268.282 295.22C268.047 295.484 267.827 295.741 267.622 295.99C267.431 296.239 267.307 296.43 267.248 296.562C266.5 296.078 265.811 295.55 265.18 294.978C264.564 294.391 263.999 293.783 263.486 293.152C262.21 294.604 260.56 295.777 258.536 296.672ZM263.464 288.686C263.816 287.835 264.087 286.941 264.278 286.002C264.469 285.049 264.586 284.073 264.63 283.076H262.056C262.129 284.117 262.283 285.107 262.518 286.046C262.753 286.985 263.068 287.865 263.464 288.686ZM254.026 291.942C254.466 291.385 254.818 290.747 255.082 290.028H252.904C252.772 290.233 252.647 290.431 252.53 290.622C252.427 290.798 252.332 290.959 252.244 291.106C252.831 291.341 253.425 291.619 254.026 291.942Z" fill="#111111"/>
<path d="M181.25 327L193.374 309.75H169.126L181.25 327Z" fill="url(#paint1_linear_1099_12184)" fill-opacity="0.3"/>
<path d="M165.966 390.02C163.744 390.02 161.557 389.612 159.404 388.796C157.25 387.98 155.301 386.654 153.556 384.818C151.833 382.959 150.45 380.5 149.408 377.44C148.388 374.38 147.878 370.617 147.878 366.152C147.878 360.848 148.762 356.281 150.53 352.45C152.32 348.597 154.768 345.639 157.874 343.576C161.002 341.491 164.56 340.448 168.55 340.448C171.746 340.448 174.205 340.765 175.928 341.4C177.673 342.012 179.09 342.851 180.178 343.916L176.846 350.444C175.939 349.447 174.726 348.767 173.208 348.404C171.689 348.041 170.295 347.86 169.026 347.86C166.668 347.86 164.617 348.563 162.872 349.968C161.149 351.373 159.789 353.175 158.792 355.374C157.794 357.55 157.216 359.805 157.058 362.14C157.035 362.616 157.012 363.058 156.99 363.466C156.99 363.874 156.99 364.271 156.99 364.656C158.214 362.299 159.936 360.587 162.158 359.522C164.402 358.457 166.759 357.924 169.23 357.924C172.29 357.924 174.874 358.604 176.982 359.964C179.112 361.301 180.722 363.103 181.81 365.37C182.898 367.637 183.442 370.141 183.442 372.884C183.442 376.375 182.705 379.401 181.232 381.962C179.781 384.523 177.741 386.507 175.112 387.912C172.505 389.317 169.456 390.02 165.966 390.02ZM166.442 383.016C168.595 383.016 170.442 382.2 171.984 380.568C173.548 378.913 174.33 376.624 174.33 373.7C174.33 371.048 173.752 368.917 172.596 367.308C171.44 365.676 169.638 364.86 167.19 364.86C165.694 364.86 164.254 365.234 162.872 365.982C161.512 366.707 160.378 367.682 159.472 368.906C158.588 370.13 158.1 371.479 158.01 372.952C158.01 374.743 158.338 376.409 158.996 377.95C159.676 379.469 160.639 380.693 161.886 381.622C163.155 382.551 164.674 383.016 166.442 383.016ZM187.174 389V378.868H195.13V389H187.174ZM217.231 390.02C215.01 390.02 212.823 389.612 210.669 388.796C208.516 387.98 206.567 386.654 204.821 384.818C203.099 382.959 201.716 380.5 200.673 377.44C199.653 374.38 199.143 370.617 199.143 366.152C199.143 360.848 200.027 356.281 201.795 352.45C203.586 348.597 206.034 345.639 209.139 343.576C212.267 341.491 215.826 340.448 219.815 340.448C223.011 340.448 225.471 340.765 227.193 341.4C228.939 342.012 230.355 342.851 231.443 343.916L228.111 350.444C227.205 349.447 225.992 348.767 224.473 348.404C222.955 348.041 221.561 347.86 220.291 347.86C217.934 347.86 215.883 348.563 214.137 349.968C212.415 351.373 211.055 353.175 210.057 355.374C209.06 357.55 208.482 359.805 208.323 362.14C208.301 362.616 208.278 363.058 208.255 363.466C208.255 363.874 208.255 364.271 208.255 364.656C209.479 362.299 211.202 360.587 213.423 359.522C215.667 358.457 218.025 357.924 220.495 357.924C223.555 357.924 226.139 358.604 228.247 359.964C230.378 361.301 231.987 363.103 233.075 365.37C234.163 367.637 234.707 370.141 234.707 372.884C234.707 376.375 233.971 379.401 232.497 381.962C231.047 384.523 229.007 386.507 226.377 387.912C223.771 389.317 220.722 390.02 217.231 390.02ZM217.707 383.016C219.861 383.016 221.708 382.2 223.249 380.568C224.813 378.913 225.595 376.624 225.595 373.7C225.595 371.048 225.017 368.917 223.861 367.308C222.705 365.676 220.903 364.86 218.455 364.86C216.959 364.86 215.52 365.234 214.137 365.982C212.777 366.707 211.644 367.682 210.737 368.906C209.853 370.13 209.366 371.479 209.275 372.952C209.275 374.743 209.604 376.409 210.261 377.95C210.941 379.469 211.905 380.693 213.151 381.622C214.421 382.551 215.939 383.016 217.707 383.016Z" fill="#00B6B6"/>
<path d="M258.701 388.482V383.997H267.476V370.425H260.885V365.94H267.476V354.435H272.195V365.94H278.981V370.425H272.195V383.997H280.034V388.482H258.701ZM250.94 389.73V376.743C250.212 377.393 249.458 378.043 248.678 378.693C247.898 379.317 247.092 379.915 246.26 380.487C245.922 379.967 245.428 379.356 244.778 378.654C244.128 377.952 243.569 377.406 243.101 377.016C244.141 376.418 245.233 375.677 246.377 374.793C247.547 373.883 248.691 372.895 249.809 371.829C250.927 370.737 251.941 369.645 252.851 368.553C253.761 367.435 254.489 366.395 255.035 365.433H245.168V361.221H250.901V354.396H255.425V361.221H259.013L261.119 362.976C260.027 365.42 258.61 367.812 256.868 370.152C257.544 370.62 258.272 371.114 259.052 371.634C259.858 372.128 260.625 372.596 261.353 373.038C262.081 373.454 262.679 373.792 263.147 374.052C262.887 374.312 262.575 374.676 262.211 375.144C261.873 375.586 261.535 376.054 261.197 376.548C260.885 377.016 260.638 377.419 260.456 377.757C259.754 377.289 258.961 376.756 258.077 376.158C257.193 375.534 256.322 374.923 255.464 374.325V389.73H250.94Z" fill="#00B6B6"/>
<path d="M93.481 388.175V378.489H82.055L82.026 375.27H93.481V366.077H83.273V362.829H107.111L107.14 366.077H97.106V375.27H108.358V378.489H97.106V388.175H93.481ZM101.63 374.661C101.359 374.487 101.021 374.294 100.615 374.081C100.228 373.868 99.8417 373.675 99.455 373.501C99.0877 373.308 98.788 373.163 98.556 373.066C98.9427 372.563 99.3777 371.925 99.861 371.152C100.364 370.359 100.837 369.567 101.282 368.774C101.727 367.962 102.065 367.266 102.297 366.686L105.545 368.136C105.352 368.581 105.081 369.112 104.733 369.731C104.404 370.33 104.047 370.949 103.66 371.587C103.273 372.206 102.896 372.786 102.529 373.327C102.181 373.868 101.881 374.313 101.63 374.661ZM88.841 374.719C88.667 374.294 88.435 373.791 88.145 373.211C87.8743 372.612 87.565 372.003 87.217 371.384C86.8883 370.746 86.55 370.147 86.202 369.586C85.8733 369.025 85.564 368.571 85.274 368.223L88.29 366.686C88.5607 367.034 88.8603 367.479 89.189 368.02C89.537 368.561 89.8947 369.141 90.262 369.76C90.6293 370.379 90.9677 370.988 91.277 371.587C91.5863 372.167 91.828 372.66 92.002 373.066C91.5573 373.221 91.0257 373.472 90.407 373.82C89.7883 374.149 89.2663 374.448 88.841 374.719ZM128.02 387.943C127.981 387.46 127.885 386.88 127.73 386.203C127.575 385.546 127.411 385.014 127.237 384.608H130.282C130.804 384.608 131.229 384.54 131.558 384.405C131.906 384.25 132.177 383.97 132.37 383.564C132.583 383.139 132.757 382.51 132.892 381.679C133.047 380.732 133.163 379.311 133.24 377.416C133.317 375.502 133.356 373.298 133.356 370.804V369.354H125.149C124.724 370.301 124.25 371.22 123.728 372.109C123.225 372.998 122.694 373.81 122.133 374.545C121.882 374.352 121.572 374.149 121.205 373.936C120.838 373.723 120.47 373.53 120.103 373.356C119.755 373.163 119.465 373.037 119.233 372.979C119.388 372.786 119.533 372.592 119.668 372.399C119.823 372.206 119.968 372.003 120.103 371.79H117.754V378.634C118.431 378.421 119.069 378.218 119.668 378.025C120.287 377.812 120.809 377.619 121.234 377.445V380.664C120.615 380.915 119.881 381.196 119.03 381.505C118.199 381.814 117.319 382.124 116.391 382.433C115.482 382.742 114.603 383.032 113.752 383.303C112.921 383.574 112.196 383.796 111.577 383.97L110.62 380.548C111.065 380.451 111.625 380.316 112.302 380.142C112.998 379.968 113.733 379.784 114.506 379.591V371.79H110.939V368.6H114.506V362.539H117.754V368.6H120.712V370.804C121.253 369.876 121.756 368.89 122.22 367.846C122.684 366.802 123.08 365.768 123.409 364.743C123.757 363.718 124.018 362.781 124.192 361.93L127.469 362.568C127.179 363.844 126.802 365.11 126.338 366.367H136.575V370.804C136.575 373.182 136.527 375.328 136.43 377.242C136.353 379.137 136.246 380.741 136.111 382.056C135.956 383.583 135.637 384.782 135.154 385.652C134.671 386.503 134.023 387.092 133.211 387.421C132.418 387.769 131.461 387.943 130.34 387.943H128.02ZM122.104 383.825L121.031 380.896C122.094 380.606 123.274 380.248 124.569 379.823C125.864 379.378 127.15 378.905 128.426 378.402C129.702 377.899 130.823 377.435 131.79 377.01C131.771 377.358 131.761 377.861 131.761 378.518C131.761 379.156 131.771 379.697 131.79 380.142C130.862 380.567 129.837 381.012 128.716 381.476C127.595 381.94 126.464 382.375 125.323 382.781C124.182 383.187 123.109 383.535 122.104 383.825ZM129.151 377.358C128.687 376.971 128.126 376.565 127.469 376.14C126.812 375.715 126.145 375.318 125.468 374.951C124.811 374.584 124.202 374.284 123.641 374.052L125.207 371.558C125.826 371.79 126.473 372.09 127.15 372.457C127.827 372.824 128.484 373.211 129.122 373.617C129.76 374.004 130.311 374.371 130.775 374.719C130.524 375.067 130.234 375.502 129.905 376.024C129.596 376.527 129.344 376.971 129.151 377.358Z" fill="#00B6B6"/>
<defs>
<linearGradient id="paint0_linear_1099_12184" x1="181.25" y1="261" x2="181.25" y2="310" gradientUnits="userSpaceOnUse">
<stop stop-color="#17B9FB" stop-opacity="0.6"/>
<stop offset="1" stop-color="#2DD5B9" stop-opacity="0.6"/>
</linearGradient>
<linearGradient id="paint1_linear_1099_12184" x1="181.25" y1="327" x2="181.25" y2="304" gradientUnits="userSpaceOnUse">
<stop stop-color="#17B9FB" stop-opacity="0.6"/>
<stop offset="1" stop-color="#2DD5B9" stop-opacity="0.6"/>
</linearGradient>
</defs>
</svg>
