<svg width="550" height="500" viewBox="0 0 550 500" fill="none" xmlns="http://www.w3.org/2000/svg">
<rect width="550" height="500" fill="white"/>
<path d="M486 145C486 206.856 435.856 257 374 257C312.144 257 262 206.856 262 145C262 83.1441 312.144 33 374 33C435.856 33 486 83.1441 486 145Z" fill="url(#paint0_linear_1096_6268)" fill-opacity="0.3"/>
<path d="M414.611 145.31V143.204H407.929V140.76H414.611V139.434H409.125V130.594H414.611V129.346H408.137V126.954H414.611V125.212H417.575V126.954H424.361V129.346H417.575V130.594H423.139V139.434H417.575V140.76H424.673V143.204H417.575V145.31H414.611ZM415.547 148.56C413.709 148.56 412.167 148.465 410.919 148.274C409.688 148.101 408.665 147.823 407.851 147.442C407.053 147.078 406.377 146.619 405.823 146.064C405.511 146.307 405.112 146.584 404.627 146.896C404.159 147.191 403.682 147.485 403.197 147.78C402.711 148.075 402.287 148.326 401.923 148.534L400.727 145.596C401.021 145.492 401.394 145.345 401.845 145.154C402.295 144.963 402.737 144.764 403.171 144.556C403.621 144.331 403.977 144.131 404.237 143.958V137.38H401.247V134.676H407.071V143.568C407.4 144.417 408.241 145.015 409.593 145.362C410.945 145.691 412.929 145.856 415.547 145.856C417.765 145.856 419.672 145.821 421.267 145.752C422.861 145.683 424.153 145.579 425.141 145.44C425.054 145.631 424.959 145.925 424.855 146.324C424.751 146.705 424.664 147.095 424.595 147.494C424.525 147.91 424.482 148.248 424.465 148.508C423.979 148.508 423.347 148.508 422.567 148.508C421.787 148.525 420.955 148.534 420.071 148.534C419.204 148.551 418.372 148.56 417.575 148.56C416.777 148.56 416.101 148.56 415.547 148.56ZM405.537 131.582C405.259 131.201 404.878 130.75 404.393 130.23C403.925 129.71 403.431 129.207 402.911 128.722C402.391 128.219 401.931 127.821 401.533 127.526L403.613 125.602C404.011 125.879 404.479 126.261 405.017 126.746C405.554 127.214 406.065 127.699 406.551 128.202C407.053 128.705 407.452 129.147 407.747 129.528C407.573 129.649 407.339 129.84 407.045 130.1C406.75 130.36 406.464 130.629 406.187 130.906C405.909 131.183 405.693 131.409 405.537 131.582ZM417.575 137.354H420.305V135.976H417.575V137.354ZM417.575 133.974H420.305V132.622H417.575V133.974ZM411.985 137.354H414.611V135.976H411.985V137.354ZM411.985 133.974H414.611V132.622H411.985V133.974Z" fill="#111111"/>
<path d="M393.45 148.872C393.432 148.525 393.372 148.118 393.268 147.65C393.181 147.182 393.086 146.775 392.982 146.428C392.548 147 392.219 147.529 391.994 148.014C390.936 147.65 389.983 147.104 389.134 146.376C388.302 145.648 387.617 144.842 387.08 143.958C386.542 144.946 385.814 145.795 384.896 146.506C383.977 147.217 382.85 147.771 381.516 148.17C381.377 147.858 381.152 147.468 380.84 147C380.528 146.515 380.25 146.133 380.008 145.856C381.204 145.561 382.174 145.163 382.92 144.66C383.665 144.157 384.228 143.533 384.61 142.788H379.93V140.63H385.286C385.32 140.439 385.346 140.24 385.364 140.032C385.381 139.807 385.398 139.581 385.416 139.356H380.632V137.198H383.492C383.301 136.869 383.102 136.548 382.894 136.236C382.686 135.924 382.486 135.655 382.296 135.43L384.532 134.416C384.792 134.763 385.086 135.213 385.416 135.768C385.762 136.323 386.04 136.799 386.248 137.198H387.756C387.998 136.799 388.25 136.323 388.51 135.768C388.787 135.213 388.986 134.754 389.108 134.39L391.526 135.17C391.404 135.499 391.257 135.846 391.084 136.21C390.91 136.557 390.737 136.886 390.564 137.198H393.268V139.356H388.276C388.276 139.581 388.258 139.798 388.224 140.006C388.206 140.214 388.18 140.422 388.146 140.63H393.97V142.788H389.29C389.775 143.412 390.373 143.975 391.084 144.478C391.794 144.963 392.626 145.353 393.58 145.648C393.545 145.683 393.502 145.726 393.45 145.778C393.415 145.83 393.38 145.882 393.346 145.934H394.386C394.732 145.934 394.949 145.891 395.036 145.804C395.14 145.7 395.192 145.492 395.192 145.18V134.234H387.912V125.862H398.13V146.22C398.13 147.121 397.887 147.789 397.402 148.222C396.934 148.655 396.162 148.872 395.088 148.872H393.45ZM375.926 148.898V125.862H386.092V134.234H378.864V148.898H375.926ZM390.746 132.076H395.192V130.984H390.746V132.076ZM390.746 129.112H395.192V128.02H390.746V129.112ZM378.864 132.076H383.258V130.984H378.864V132.076ZM378.864 129.112H383.258V128.02H378.864V129.112Z" fill="#111111"/>
<path d="M361.702 148.69C360.628 148.69 359.874 148.525 359.44 148.196C359.007 147.867 358.79 147.329 358.79 146.584V141.54L349.326 142.216L349.066 139.382L358.79 138.68V136.392C357.906 136.513 357.04 136.626 356.19 136.73C355.341 136.834 354.518 136.912 353.72 136.964C353.668 136.704 353.582 136.392 353.46 136.028C353.356 135.664 353.244 135.309 353.122 134.962C353.001 134.615 352.888 134.347 352.784 134.156C353.772 134.121 354.89 134.035 356.138 133.896C357.386 133.757 358.652 133.575 359.934 133.35C361.217 133.125 362.422 132.865 363.548 132.57C364.675 132.275 365.62 131.955 366.382 131.608L368.28 134.078C367.379 134.425 366.391 134.745 365.316 135.04C364.259 135.317 363.167 135.577 362.04 135.82V138.42L372.596 137.666L372.856 140.5L362.04 141.306V144.972C362.04 145.232 362.101 145.423 362.222 145.544C362.361 145.648 362.621 145.7 363.002 145.7H367.37C367.856 145.7 368.228 145.622 368.488 145.466C368.766 145.31 368.974 145.007 369.112 144.556C369.251 144.105 369.355 143.455 369.424 142.606C369.65 142.727 369.953 142.857 370.334 142.996C370.733 143.135 371.14 143.265 371.556 143.386C371.99 143.507 372.345 143.603 372.622 143.672C372.432 145.041 372.18 146.09 371.868 146.818C371.574 147.546 371.158 148.04 370.62 148.3C370.1 148.56 369.398 148.69 368.514 148.69H361.702ZM349.638 133.766V128.046H359.18V125.16H362.69V128.046H372.336V133.74H369.19V130.724H352.836V133.766H349.638Z" fill="#111111"/>
<path d="M330.06 148.092V145.232H336.716V140.292H331.438V137.354H336.716V133.194H330.476V130.386H337.678C337.158 129.831 336.56 129.242 335.884 128.618C335.208 127.994 334.593 127.483 334.038 127.084L336.222 124.952C336.69 125.247 337.202 125.637 337.756 126.122C338.328 126.59 338.874 127.075 339.394 127.578C339.932 128.063 340.382 128.505 340.746 128.904C340.521 129.077 340.261 129.303 339.966 129.58C339.672 129.857 339.386 130.126 339.108 130.386H346.102V133.194H339.94V137.354H345.114V140.292H339.94V145.232H346.674V148.092H330.06ZM326.186 148.976V136.054C325.701 136.799 325.19 137.493 324.652 138.134C324.323 137.839 323.924 137.545 323.456 137.25C322.988 136.938 322.555 136.669 322.156 136.444C322.815 135.751 323.448 134.919 324.054 133.948C324.678 132.96 325.25 131.929 325.77 130.854C326.29 129.779 326.741 128.739 327.122 127.734C327.504 126.729 327.781 125.862 327.954 125.134L330.944 125.862C330.442 127.578 329.826 129.233 329.098 130.828V148.976H326.186Z" fill="#111111"/>
<path d="M389.808 113.236C389.427 112.976 389.011 112.716 388.56 112.456C388.127 112.196 387.685 111.979 387.234 111.806C388.17 110.679 388.846 109.353 389.262 107.828C389.696 106.285 389.912 104.396 389.912 102.16V96.336H395.528C395.355 95.8854 395.164 95.4174 394.956 94.932C394.748 94.4294 394.549 93.9874 394.358 93.606H389.912V91.188H398.648V89.004H402.028V91.188H410.946V93.606H406.474C406.336 94.0047 406.162 94.4467 405.954 94.932C405.764 95.4174 405.556 95.8854 405.33 96.336H411.232V98.858H392.876V102.16C392.876 102.593 392.868 103.027 392.85 103.46C392.833 103.876 392.807 104.283 392.772 104.682C393.258 104.179 393.7 103.599 394.098 102.94C394.514 102.281 394.87 101.605 395.164 100.912C395.476 100.201 395.71 99.5514 395.866 98.962L398.57 99.794C398.501 100.071 398.414 100.357 398.31 100.652C398.206 100.947 398.085 101.241 397.946 101.536H400.416V99.482H403.458V101.536H409.932V103.954H403.458V105.618H408.372V108.062H403.458V109.934H411.31V112.378H392.642V109.934H400.416V108.062H395.762V105.618H400.416V103.954H396.698C396.421 104.405 396.135 104.847 395.84 105.28C395.546 105.696 395.225 106.095 394.878 106.476C394.601 106.251 394.263 106.008 393.864 105.748C393.466 105.488 393.093 105.271 392.746 105.098C392.573 106.693 392.252 108.157 391.784 109.492C391.316 110.809 390.658 112.057 389.808 113.236ZM398.648 96.336H402.21C402.401 95.9374 402.6 95.4954 402.808 95.01C403.016 94.5074 403.198 94.0394 403.354 93.606H397.504C397.712 94.0394 397.912 94.5074 398.102 95.01C398.31 95.4954 398.492 95.9374 398.648 96.336Z" fill="#111111"/>
<path d="M374.858 113.262C374.633 112.967 374.286 112.629 373.818 112.248C373.35 111.867 372.934 111.589 372.57 111.416C372.865 111.243 373.142 111.061 373.402 110.87C373.662 110.662 373.905 110.437 374.13 110.194C373.541 110.298 372.83 110.411 371.998 110.532C371.166 110.653 370.282 110.766 369.346 110.87C368.41 110.974 367.491 111.069 366.59 111.156C365.689 111.26 364.865 111.338 364.12 111.39C363.375 111.459 362.768 111.511 362.3 111.546L361.91 108.92C362.482 108.903 363.262 108.868 364.25 108.816C365.255 108.747 366.321 108.677 367.448 108.608V107.1H362.378V105.072H367.448V104.058H362.742V96.362H367.448V95.426H361.91V93.242H367.448V92.358C366.668 92.41 365.914 92.4534 365.186 92.488C364.475 92.5227 363.843 92.54 363.288 92.54C363.253 92.2454 363.167 91.8727 363.028 91.422C362.889 90.954 362.751 90.5814 362.612 90.304C363.288 90.3214 364.12 90.304 365.108 90.252C366.096 90.2 367.127 90.122 368.202 90.018C369.277 89.914 370.282 89.7927 371.218 89.654C372.154 89.498 372.908 89.3334 373.48 89.16L374.832 91.292C374.312 91.448 373.645 91.5954 372.83 91.734C372.033 91.8554 371.175 91.968 370.256 92.072V93.242H375.794V94.854H377.926V89.29H380.838V94.854H385.232C385.232 94.9927 385.232 95.2614 385.232 95.66C385.232 96.0587 385.223 96.492 385.206 96.96C385.206 97.428 385.206 97.844 385.206 98.208C385.206 100.253 385.18 102.091 385.128 103.72C385.076 105.349 384.998 106.684 384.894 107.724C384.79 109.041 384.565 110.064 384.218 110.792C383.871 111.52 383.386 112.023 382.762 112.3C382.138 112.595 381.349 112.742 380.396 112.742H378.836C378.767 112.239 378.663 111.693 378.524 111.104C378.385 110.532 378.273 110.107 378.186 109.83H379.85C380.283 109.83 380.63 109.778 380.89 109.674C381.15 109.57 381.358 109.336 381.514 108.972C381.687 108.608 381.826 108.045 381.93 107.282C382.034 106.415 382.121 105.237 382.19 103.746C382.277 102.238 382.329 100.6 382.346 98.832V97.87H380.812C380.691 101.631 380.127 104.795 379.122 107.36C378.117 109.908 376.695 111.875 374.858 113.262ZM374.676 109.596C375.664 108.4 376.427 106.831 376.964 104.89C377.519 102.931 377.831 100.591 377.9 97.87H375.534V95.426H370.256V96.362H374.936V104.058H370.256V105.072H374.858V107.1H370.256V108.374C371.227 108.287 372.111 108.201 372.908 108.114C373.705 108.01 374.295 107.923 374.676 107.854V109.596ZM365.472 102.238H367.448V101.016H365.472V102.238ZM370.256 102.238H372.232V101.016H370.256V102.238ZM365.472 99.378H367.448V98.156H365.472V99.378ZM370.256 99.378H372.232V98.156H370.256V99.378Z" fill="#111111"/>
<path d="M346.595 112.482V99.378C345.174 100.695 343.657 101.891 342.045 102.966C340.433 104.023 338.804 104.951 337.157 105.748C336.949 105.297 336.663 104.838 336.299 104.37C335.952 103.902 335.614 103.512 335.285 103.2C336.429 102.732 337.582 102.151 338.743 101.458C339.922 100.765 341.057 99.9933 342.149 99.144C343.258 98.2773 344.29 97.3846 345.243 96.466C346.214 95.53 347.063 94.594 347.791 93.658H336.637V90.798H359.335V93.658H351.587C351.327 94.0566 351.05 94.4466 350.755 94.828C350.478 95.2093 350.183 95.5906 349.871 95.972V112.482H346.595ZM357.983 105.956C357.567 105.505 357.03 104.959 356.371 104.318C355.73 103.677 355.028 103.018 354.265 102.342C353.502 101.649 352.748 101.007 352.003 100.418C351.275 99.8286 350.625 99.3606 350.053 99.014L352.029 96.83C352.722 97.2806 353.45 97.792 354.213 98.364C354.993 98.9186 355.756 99.508 356.501 100.132C357.246 100.739 357.94 101.337 358.581 101.926C359.222 102.515 359.768 103.061 360.219 103.564C360.028 103.72 359.786 103.937 359.491 104.214C359.214 104.491 358.936 104.786 358.659 105.098C358.399 105.41 358.174 105.696 357.983 105.956Z" fill="#111111"/>
<path d="M377.834 204.72C376.266 204.72 374.722 204.432 373.202 203.856C371.682 203.28 370.306 202.344 369.074 201.048C367.858 199.736 366.882 198 366.146 195.84C365.426 193.68 365.066 191.024 365.066 187.872C365.066 184.128 365.69 180.904 366.938 178.2C368.202 175.48 369.93 173.392 372.122 171.936C374.33 170.464 376.842 169.728 379.658 169.728C381.914 169.728 383.65 169.952 384.866 170.4C386.098 170.832 387.098 171.424 387.866 172.176L385.514 176.784C384.874 176.08 384.018 175.6 382.946 175.344C381.874 175.088 380.89 174.96 379.994 174.96C378.33 174.96 376.882 175.456 375.65 176.448C374.434 177.44 373.474 178.712 372.77 180.264C372.066 181.8 371.658 183.392 371.546 185.04C371.53 185.376 371.514 185.688 371.498 185.976C371.498 186.264 371.498 186.544 371.498 186.816C372.362 185.152 373.578 183.944 375.146 183.192C376.73 182.44 378.394 182.064 380.138 182.064C382.298 182.064 384.122 182.544 385.61 183.504C387.114 184.448 388.25 185.72 389.018 187.32C389.786 188.92 390.17 190.688 390.17 192.624C390.17 195.088 389.65 197.224 388.61 199.032C387.586 200.84 386.146 202.24 384.29 203.232C382.45 204.224 380.298 204.72 377.834 204.72ZM378.17 199.776C379.69 199.776 380.994 199.2 382.082 198.048C383.186 196.88 383.738 195.264 383.738 193.2C383.738 191.328 383.33 189.824 382.514 188.688C381.698 187.536 380.426 186.96 378.698 186.96C377.642 186.96 376.626 187.224 375.65 187.752C374.69 188.264 373.89 188.952 373.25 189.816C372.626 190.68 372.282 191.632 372.218 192.672C372.218 193.936 372.45 195.112 372.914 196.2C373.394 197.272 374.074 198.136 374.954 198.792C375.85 199.448 376.922 199.776 378.17 199.776Z" fill="#00B6B6"/>
<path d="M348.169 204.72C346.345 204.72 344.585 204.496 342.889 204.048C341.193 203.6 339.673 202.896 338.329 201.936L340.345 196.464C341.257 197.344 342.369 198.032 343.681 198.528C344.993 199.008 346.281 199.248 347.545 199.248C349.705 199.248 351.289 198.736 352.297 197.712C353.321 196.688 353.833 195.408 353.833 193.872C353.833 192.576 353.513 191.592 352.873 190.92C352.249 190.232 351.425 189.76 350.401 189.504C349.377 189.248 348.281 189.12 347.113 189.12H344.569V184.368H347.161C349.129 184.368 350.585 183.888 351.529 182.928C352.489 181.952 352.969 180.736 352.969 179.28C352.969 177.696 352.497 176.624 351.553 176.064C350.609 175.488 349.273 175.2 347.545 175.2C346.921 175.2 346.169 175.312 345.289 175.536C344.425 175.76 343.561 176.088 342.697 176.52C341.833 176.952 341.113 177.488 340.537 178.128L338.137 173.04C339.129 172.176 340.529 171.408 342.337 170.736C344.161 170.064 346.329 169.728 348.841 169.728C352.153 169.728 354.785 170.48 356.737 171.984C358.705 173.472 359.689 175.584 359.689 178.32C359.689 179.536 359.473 180.728 359.041 181.896C358.609 183.064 357.977 184.088 357.145 184.968C356.313 185.832 355.305 186.416 354.121 186.72C355.481 186.72 356.641 187.096 357.601 187.848C358.577 188.6 359.321 189.576 359.833 190.776C360.345 191.976 360.601 193.248 360.601 194.592C360.601 196.704 360.041 198.52 358.921 200.04C357.801 201.544 356.297 202.704 354.409 203.52C352.537 204.32 350.457 204.72 348.169 204.72Z" fill="#00B6B6"/>
<path d="M397.985 196.248C396.609 196.248 395.593 195.836 394.937 195.012C394.281 194.18 393.953 193.08 393.953 191.712C393.953 190.104 394.317 188.94 395.045 188.22C395.773 187.492 396.753 187.128 397.985 187.128C399.209 187.128 400.173 187.492 400.877 188.22C401.589 188.94 401.945 190.112 401.945 191.736C401.945 192.624 401.817 193.408 401.561 194.088C401.313 194.76 400.897 195.288 400.313 195.672C399.737 196.056 398.961 196.248 397.985 196.248ZM397.961 204L407.129 187.272H409.481L400.313 204H397.961ZM397.961 194.448C398.361 194.448 398.657 194.324 398.849 194.076C399.041 193.828 399.165 193.504 399.221 193.104C399.277 192.696 399.305 192.256 399.305 191.784C399.305 190.832 399.209 190.124 399.017 189.66C398.833 189.188 398.465 188.952 397.913 188.952C397.385 188.952 397.021 189.184 396.821 189.648C396.621 190.112 396.521 190.8 396.521 191.712C396.521 192.464 396.609 193.108 396.785 193.644C396.961 194.18 397.353 194.448 397.961 194.448ZM409.577 204.36C408.185 204.36 407.165 203.944 406.517 203.112C405.869 202.272 405.545 201.168 405.545 199.8C405.545 198.2 405.905 197.036 406.625 196.308C407.345 195.58 408.321 195.216 409.553 195.216C410.777 195.216 411.745 195.584 412.457 196.32C413.177 197.048 413.537 198.224 413.537 199.848C413.537 200.728 413.409 201.508 413.153 202.188C412.897 202.868 412.477 203.4 411.893 203.784C411.317 204.168 410.545 204.36 409.577 204.36ZM409.505 202.512C409.921 202.512 410.225 202.392 410.417 202.152C410.609 201.912 410.733 201.592 410.789 201.192C410.845 200.792 410.873 200.352 410.873 199.872C410.873 198.92 410.781 198.212 410.597 197.748C410.413 197.276 410.049 197.04 409.505 197.04C408.953 197.04 408.581 197.272 408.389 197.736C408.205 198.2 408.113 198.896 408.113 199.824C408.113 200.568 408.193 201.204 408.353 201.732C408.521 202.252 408.905 202.512 409.505 202.512Z" fill="#00B6B6"/>
<path d="M235 141.5C235 189.273 196.273 228 148.5 228C100.727 228 62 189.273 62 141.5C62 93.7274 100.727 55 148.5 55C196.273 55 235 93.7274 235 141.5Z" fill="url(#paint1_linear_1096_6268)" fill-opacity="0.3"/>
<path d="M189.679 120.584V113.104C188.169 113.163 186.702 113.207 185.279 113.236C183.871 113.265 182.654 113.287 181.627 113.302L181.231 110.926C182.141 110.941 183.255 110.941 184.575 110.926C185.895 110.911 187.267 110.897 188.689 110.882C188.161 110.427 187.582 109.958 186.951 109.474C186.321 108.99 185.683 108.521 185.037 108.066C184.407 107.611 183.798 107.215 183.211 106.878L184.817 104.876C185.155 105.096 185.499 105.323 185.851 105.558C186.203 105.793 186.555 106.035 186.907 106.284C187.23 105.903 187.56 105.485 187.897 105.03C188.235 104.561 188.543 104.113 188.821 103.688C187.78 103.747 186.761 103.783 185.763 103.798C184.766 103.813 183.835 103.813 182.969 103.798C182.911 103.446 182.815 103.043 182.683 102.588C182.551 102.119 182.427 101.723 182.309 101.4C183.087 101.459 183.996 101.488 185.037 101.488C186.079 101.488 187.179 101.466 188.337 101.422C189.496 101.363 190.633 101.283 191.747 101.18C192.877 101.077 193.918 100.953 194.871 100.806C195.839 100.659 196.646 100.498 197.291 100.322L199.029 102.456C198.003 102.705 196.764 102.925 195.312 103.116C193.874 103.307 192.371 103.461 190.801 103.578L191.725 104.084C191.52 104.407 191.263 104.788 190.955 105.228C190.662 105.653 190.339 106.093 189.987 106.548C189.635 106.988 189.291 107.406 188.953 107.802C189.203 107.993 189.437 108.183 189.657 108.374C189.892 108.565 190.127 108.763 190.361 108.968C190.845 108.44 191.329 107.89 191.813 107.318C192.312 106.731 192.767 106.181 193.177 105.668C193.603 105.14 193.926 104.7 194.146 104.348L196.455 105.712C196.074 106.225 195.627 106.783 195.113 107.384C194.6 107.985 194.065 108.579 193.507 109.166C192.965 109.753 192.429 110.295 191.901 110.794C192.767 110.765 193.573 110.743 194.321 110.728C195.084 110.699 195.759 110.677 196.345 110.662C196.169 110.442 195.986 110.229 195.795 110.024C195.619 109.819 195.443 109.621 195.267 109.43L197.203 108.088C197.673 108.543 198.149 109.078 198.633 109.694C199.132 110.31 199.594 110.933 200.02 111.564C200.445 112.18 200.789 112.745 201.053 113.258C200.877 113.346 200.65 113.471 200.371 113.632C200.107 113.793 199.843 113.962 199.579 114.138C199.33 114.314 199.125 114.475 198.964 114.622C198.817 114.329 198.641 114.021 198.436 113.698C198.245 113.361 198.039 113.031 197.819 112.708C197.071 112.752 196.228 112.803 195.289 112.862C194.351 112.906 193.361 112.95 192.319 112.994V120.584H189.679ZM199.139 119.814C198.083 119.286 197.057 118.619 196.059 117.812C195.062 117.005 194.233 116.199 193.573 115.392L195.399 113.896C195.795 114.365 196.279 114.842 196.851 115.326C197.423 115.795 198.039 116.243 198.699 116.668C199.374 117.079 200.034 117.431 200.679 117.724C200.357 118.003 200.063 118.34 199.799 118.736C199.535 119.132 199.315 119.491 199.139 119.814ZM182.815 119.814C182.654 119.491 182.419 119.139 182.111 118.758C181.818 118.377 181.51 118.069 181.188 117.834C181.818 117.585 182.463 117.247 183.123 116.822C183.783 116.382 184.399 115.913 184.971 115.414C185.558 114.901 186.042 114.409 186.424 113.94L188.382 115.392C187.956 115.935 187.443 116.485 186.841 117.042C186.24 117.585 185.587 118.098 184.883 118.582C184.194 119.051 183.505 119.462 182.815 119.814Z" fill="#111111"/>
<path d="M160.023 112.07C160.038 111.865 160.045 111.586 160.045 111.234C160.045 110.882 160.045 110.53 160.045 110.178C160.045 109.826 160.038 109.547 160.023 109.342C160.302 109.357 160.793 109.371 161.497 109.386C162.216 109.401 163.067 109.415 164.049 109.43C165.047 109.445 166.11 109.459 167.239 109.474C168.369 109.474 169.498 109.474 170.627 109.474C171.757 109.474 172.82 109.467 173.817 109.452C174.829 109.437 175.702 109.423 176.435 109.408C177.169 109.393 177.689 109.371 177.997 109.342C177.983 109.533 177.968 109.804 177.953 110.156C177.953 110.508 177.953 110.867 177.953 111.234C177.968 111.586 177.975 111.857 177.975 112.048C177.609 112.033 177.066 112.019 176.347 112.004C175.643 111.989 174.815 111.975 173.861 111.96C172.923 111.945 171.918 111.938 170.847 111.938C169.791 111.938 168.721 111.938 167.635 111.938C166.55 111.938 165.516 111.945 164.533 111.96C163.551 111.975 162.663 111.989 161.871 112.004C161.094 112.019 160.478 112.041 160.023 112.07Z" fill="#111111"/>
<path d="M140.005 119.242C139.844 118.919 139.573 118.538 139.191 118.098C138.825 117.658 138.465 117.321 138.113 117.086C139.976 116.338 141.509 115.289 142.711 113.94C143.929 112.576 144.823 110.86 145.395 108.792L139.455 108.968L139.257 106.394C139.448 106.409 139.866 106.416 140.511 106.416C141.157 106.401 141.949 106.387 142.887 106.372C143.826 106.357 144.823 106.335 145.879 106.306C146.085 104.942 146.173 103.446 146.143 101.818L148.871 101.84C148.886 102.617 148.871 103.373 148.827 104.106C148.783 104.839 148.717 105.551 148.629 106.24C149.656 106.211 150.617 106.181 151.511 106.152C152.406 106.123 153.154 106.093 153.755 106.064C154.371 106.035 154.76 106.013 154.921 105.998C154.921 106.614 154.885 107.355 154.811 108.22C154.738 109.085 154.643 109.98 154.525 110.904C154.408 111.813 154.283 112.671 154.151 113.478C154.019 114.285 153.887 114.937 153.755 115.436C153.506 116.448 153.169 117.218 152.743 117.746C152.333 118.274 151.753 118.633 151.005 118.824C150.272 119 149.289 119.081 148.057 119.066C147.999 118.714 147.881 118.259 147.705 117.702C147.544 117.145 147.339 116.683 147.089 116.316C148.028 116.331 148.761 116.309 149.289 116.25C149.817 116.191 150.213 116.045 150.477 115.81C150.756 115.575 150.969 115.216 151.115 114.732C151.262 114.277 151.401 113.698 151.533 112.994C151.665 112.29 151.783 111.549 151.885 110.772C151.988 109.98 152.061 109.239 152.105 108.55L148.189 108.682C147.573 111.19 146.576 113.317 145.197 115.062C143.833 116.807 142.103 118.201 140.005 119.242Z" fill="#111111"/>
<path d="M116.023 112.07C116.038 111.865 116.045 111.586 116.045 111.234C116.045 110.882 116.045 110.53 116.045 110.178C116.045 109.826 116.038 109.547 116.023 109.342C116.302 109.357 116.793 109.371 117.497 109.386C118.216 109.401 119.067 109.415 120.049 109.43C121.047 109.445 122.11 109.459 123.239 109.474C124.369 109.474 125.498 109.474 126.627 109.474C127.757 109.474 128.82 109.467 129.817 109.452C130.829 109.437 131.702 109.423 132.435 109.408C133.169 109.393 133.689 109.371 133.997 109.342C133.983 109.533 133.968 109.804 133.953 110.156C133.953 110.508 133.953 110.867 133.953 111.234C133.968 111.586 133.975 111.857 133.975 112.048C133.609 112.033 133.066 112.019 132.347 112.004C131.643 111.989 130.815 111.975 129.861 111.96C128.923 111.945 127.918 111.938 126.847 111.938C125.791 111.938 124.721 111.938 123.635 111.938C122.55 111.938 121.516 111.945 120.533 111.96C119.551 111.975 118.663 111.989 117.871 112.004C117.094 112.019 116.478 112.041 116.023 112.07Z" fill="#111111"/>
<path d="M96.3108 119.154C96.1201 118.846 95.8488 118.472 95.4968 118.032C95.1594 117.592 94.8441 117.255 94.5508 117.02C96.1201 116.287 97.5941 115.363 98.9728 114.248C100.366 113.133 101.62 111.909 102.735 110.574C102.06 110.061 101.407 109.599 100.777 109.188C100.146 108.777 99.5814 108.455 99.0828 108.22L100.667 106.35C101.209 106.599 101.789 106.915 102.405 107.296C103.021 107.677 103.644 108.088 104.275 108.528C104.92 107.575 105.477 106.592 105.947 105.58C106.431 104.568 106.812 103.571 107.091 102.588L109.665 103.468C108.887 105.815 107.802 108.022 106.409 110.09C107.069 110.618 107.692 111.146 108.279 111.674C108.865 112.187 109.364 112.671 109.775 113.126C109.569 113.302 109.335 113.529 109.071 113.808C108.821 114.072 108.579 114.343 108.345 114.622C108.11 114.886 107.919 115.121 107.773 115.326C107.421 114.886 106.981 114.402 106.453 113.874C105.939 113.346 105.382 112.818 104.781 112.29C103.622 113.698 102.331 114.989 100.909 116.162C99.4861 117.335 97.9534 118.333 96.3108 119.154Z" fill="#111111"/>
<path d="M143.672 175V143.704L150.152 140.68V175H143.672Z" fill="#00B6B6"/>
<path d="M122.03 169.528H137.63V175H116.078C115.982 174.488 115.902 173.976 115.838 173.464C115.774 172.936 115.742 172.328 115.742 171.64C115.742 169.608 116.07 167.872 116.726 166.432C117.398 164.992 118.374 163.704 119.654 162.568C120.95 161.432 122.542 160.312 124.43 159.208C125.47 158.6 126.51 157.928 127.55 157.192C128.59 156.456 129.454 155.584 130.142 154.576C130.846 153.552 131.198 152.312 131.198 150.856C131.198 149.608 130.806 148.496 130.022 147.52C129.254 146.544 128.014 146.056 126.302 146.056C124.526 146.056 123.102 146.632 122.03 147.784C120.974 148.936 120.302 150.424 120.014 152.248L114.926 149.848C115.182 148.184 115.83 146.664 116.87 145.288C117.91 143.896 119.27 142.792 120.95 141.976C122.63 141.144 124.558 140.728 126.734 140.728C128.718 140.728 130.518 141.104 132.134 141.856C133.75 142.592 135.038 143.672 135.998 145.096C136.958 146.52 137.438 148.248 137.438 150.28C137.438 152.36 137.062 154.16 136.31 155.68C135.558 157.2 134.446 158.584 132.974 159.832C131.518 161.08 129.726 162.344 127.598 163.624C126.094 164.536 124.854 165.392 123.878 166.192C122.918 166.976 122.302 168.088 122.03 169.528Z" fill="#00B6B6"/>
<path d="M167.485 167.248C166.109 167.248 165.093 166.836 164.437 166.012C163.781 165.18 163.453 164.08 163.453 162.712C163.453 161.104 163.817 159.94 164.545 159.22C165.273 158.492 166.253 158.128 167.485 158.128C168.709 158.128 169.673 158.492 170.377 159.22C171.089 159.94 171.445 161.112 171.445 162.736C171.445 163.624 171.317 164.408 171.061 165.088C170.813 165.76 170.397 166.288 169.813 166.672C169.237 167.056 168.461 167.248 167.485 167.248ZM167.461 175L176.629 158.272H178.981L169.813 175H167.461ZM167.461 165.448C167.861 165.448 168.157 165.324 168.349 165.076C168.541 164.828 168.665 164.504 168.721 164.104C168.777 163.696 168.805 163.256 168.805 162.784C168.805 161.832 168.709 161.124 168.517 160.66C168.333 160.188 167.965 159.952 167.413 159.952C166.885 159.952 166.521 160.184 166.321 160.648C166.121 161.112 166.021 161.8 166.021 162.712C166.021 163.464 166.109 164.108 166.285 164.644C166.461 165.18 166.853 165.448 167.461 165.448ZM179.077 175.36C177.685 175.36 176.665 174.944 176.017 174.112C175.369 173.272 175.045 172.168 175.045 170.8C175.045 169.2 175.405 168.036 176.125 167.308C176.845 166.58 177.821 166.216 179.053 166.216C180.277 166.216 181.245 166.584 181.957 167.32C182.677 168.048 183.037 169.224 183.037 170.848C183.037 171.728 182.909 172.508 182.653 173.188C182.397 173.868 181.977 174.4 181.393 174.784C180.817 175.168 180.045 175.36 179.077 175.36ZM179.005 173.512C179.421 173.512 179.725 173.392 179.917 173.152C180.109 172.912 180.233 172.592 180.289 172.192C180.345 171.792 180.373 171.352 180.373 170.872C180.373 169.92 180.281 169.212 180.097 168.748C179.913 168.276 179.549 168.04 179.005 168.04C178.453 168.04 178.081 168.272 177.889 168.736C177.705 169.2 177.613 169.896 177.613 170.824C177.613 171.568 177.693 172.204 177.853 172.732C178.021 173.252 178.405 173.512 179.005 173.512Z" fill="#00B6B6"/>
<path d="M290 289.5C290 326.779 259.779 357 222.5 357C185.221 357 155 326.779 155 289.5C155 252.221 185.221 222 222.5 222C259.779 222 290 252.221 290 289.5Z" fill="url(#paint2_linear_1096_6268)" fill-opacity="0.3"/>
<path d="M241.905 276.43C241.861 276.166 241.802 275.873 241.729 275.55C241.67 275.242 241.597 274.927 241.509 274.604C241.025 274.721 240.475 274.853 239.859 275C239.258 275.132 238.642 275.257 238.011 275.374C237.38 275.506 236.779 275.623 236.207 275.726C235.635 275.829 235.144 275.909 234.733 275.968L234.161 273.68C234.542 273.651 235.063 273.592 235.723 273.504C236.398 273.416 237.102 273.321 237.835 273.218V268.84H234.667V260.414H237.835V256.696H239.947V260.414H243.115V268.84H239.947V272.91C240.138 272.881 240.321 272.851 240.497 272.822C240.688 272.793 240.864 272.763 241.025 272.734C240.908 272.353 240.783 271.993 240.651 271.656C240.534 271.304 240.416 270.989 240.299 270.71L242.389 270.094C242.609 270.607 242.829 271.209 243.049 271.898C243.269 272.573 243.467 273.255 243.643 273.944C243.834 274.633 243.973 275.257 244.061 275.814C243.768 275.858 243.408 275.939 242.983 276.056C242.558 276.188 242.198 276.313 241.905 276.43ZM227.869 276.1V272.602H226.417V270.93H226.571C226.468 270.813 226.344 270.681 226.197 270.534C226.065 270.387 225.933 270.248 225.801 270.116V276.584H223.711V265.606H234.117V274.736C234.117 275.381 233.934 275.851 233.567 276.144C233.2 276.437 232.643 276.584 231.895 276.584H230.685C230.67 276.305 230.626 275.946 230.553 275.506C230.494 275.081 230.414 274.721 230.311 274.428H231.345C231.594 274.428 231.763 274.406 231.851 274.362C231.939 274.303 231.983 274.157 231.983 273.922V270.358H230.531C229.988 270.358 229.607 270.299 229.387 270.182C229.182 270.05 229.079 269.801 229.079 269.434V267.542H228.529C228.47 268.305 228.287 268.972 227.979 269.544C227.671 270.101 227.202 270.563 226.571 270.93H231.345V272.602H229.783V276.1H227.869ZM224.789 264.682V260.018H233.039V264.682H224.789ZM223.535 259.072V257.092H234.469V259.072H223.535ZM236.691 266.618H237.835V262.636H236.691V266.618ZM239.947 266.618H241.091V262.636H239.947V266.618ZM227.055 262.856H230.773V261.844H227.055V262.856ZM231.279 268.774H231.983V267.542H230.773V268.4C230.773 268.547 230.802 268.649 230.861 268.708C230.92 268.752 231.059 268.774 231.279 268.774ZM225.801 269.5C226.182 269.192 226.439 268.899 226.571 268.62C226.718 268.341 226.806 267.982 226.835 267.542H225.801V269.5Z" fill="#111111"/>
<path d="M202.173 276.034V273.768H206.771C206.507 273.225 206.177 272.661 205.781 272.074C205.385 271.473 205.004 270.967 204.637 270.556L206.595 269.368H203.515V267.014H210.115V265.276H206.529V263.516C205.796 264.029 205.063 264.506 204.329 264.946C203.596 265.371 202.921 265.731 202.305 266.024C202.144 265.701 201.917 265.327 201.623 264.902C201.345 264.477 201.037 264.117 200.699 263.824C201.609 263.487 202.547 263.032 203.515 262.46C204.483 261.873 205.415 261.228 206.309 260.524C207.219 259.82 208.033 259.101 208.751 258.368C209.47 257.635 210.027 256.953 210.423 256.322L212.909 256.696C213.423 257.4 214.053 258.089 214.801 258.764C215.549 259.439 216.349 260.077 217.199 260.678C218.065 261.279 218.937 261.815 219.817 262.284C220.697 262.753 221.526 263.127 222.303 263.406C222.025 263.714 221.724 264.081 221.401 264.506C221.093 264.917 220.807 265.357 220.543 265.826C219.253 265.269 217.874 264.484 216.407 263.472V265.276H212.887V267.014H219.399V269.368H216.121L218.299 270.27C218.021 270.857 217.713 271.465 217.375 272.096C217.038 272.712 216.723 273.269 216.429 273.768H220.631V276.034H202.173ZM207.321 262.966H215.725C214.919 262.365 214.156 261.734 213.437 261.074C212.719 260.414 212.11 259.747 211.611 259.072C211.157 259.659 210.548 260.297 209.785 260.986C209.023 261.661 208.201 262.321 207.321 262.966ZM212.887 273.768H215.681L214.075 273.02C214.281 272.697 214.493 272.316 214.713 271.876C214.948 271.436 215.168 270.996 215.373 270.556C215.579 270.101 215.755 269.705 215.901 269.368H212.887V273.768ZM207.651 273.768H210.115V269.368H206.771C207.05 269.691 207.336 270.072 207.629 270.512C207.923 270.937 208.201 271.37 208.465 271.81C208.744 272.235 208.964 272.609 209.125 272.932L207.651 273.768Z" fill="#111111"/>
<path d="M205.738 310.52L216.018 288.12H224.458V307.08H227.818V310.96H224.458V316H219.218V310.96H206.018L205.738 310.52ZM212.858 307.08H219.458L219.638 290.98L215.138 302.12L212.858 307.08Z" fill="#00B6B6"/>
<path d="M196.688 316V289.92L202.088 287.4V316H196.688Z" fill="#00B6B6"/>
<path d="M238.235 308.248C236.859 308.248 235.843 307.836 235.187 307.012C234.531 306.18 234.203 305.08 234.203 303.712C234.203 302.104 234.567 300.94 235.295 300.22C236.023 299.492 237.003 299.128 238.235 299.128C239.459 299.128 240.423 299.492 241.127 300.22C241.839 300.94 242.195 302.112 242.195 303.736C242.195 304.624 242.067 305.408 241.811 306.088C241.563 306.76 241.147 307.288 240.563 307.672C239.987 308.056 239.211 308.248 238.235 308.248ZM238.211 316L247.379 299.272H249.731L240.563 316H238.211ZM238.211 306.448C238.611 306.448 238.907 306.324 239.099 306.076C239.291 305.828 239.415 305.504 239.471 305.104C239.527 304.696 239.555 304.256 239.555 303.784C239.555 302.832 239.459 302.124 239.267 301.66C239.083 301.188 238.715 300.952 238.163 300.952C237.635 300.952 237.271 301.184 237.071 301.648C236.871 302.112 236.771 302.8 236.771 303.712C236.771 304.464 236.859 305.108 237.035 305.644C237.211 306.18 237.603 306.448 238.211 306.448ZM249.827 316.36C248.435 316.36 247.415 315.944 246.767 315.112C246.119 314.272 245.795 313.168 245.795 311.8C245.795 310.2 246.155 309.036 246.875 308.308C247.595 307.58 248.571 307.216 249.803 307.216C251.027 307.216 251.995 307.584 252.707 308.32C253.427 309.048 253.787 310.224 253.787 311.848C253.787 312.728 253.659 313.508 253.403 314.188C253.147 314.868 252.727 315.4 252.143 315.784C251.567 316.168 250.795 316.36 249.827 316.36ZM249.755 314.512C250.171 314.512 250.475 314.392 250.667 314.152C250.859 313.912 250.983 313.592 251.039 313.192C251.095 312.792 251.123 312.352 251.123 311.872C251.123 310.92 251.031 310.212 250.847 309.748C250.663 309.276 250.299 309.04 249.755 309.04C249.203 309.04 248.831 309.272 248.639 309.736C248.455 310.2 248.363 310.896 248.363 311.824C248.363 312.568 248.443 313.204 248.603 313.732C248.771 314.252 249.155 314.512 249.755 314.512Z" fill="#00B6B6"/>
<path d="M146 320.5C146 346.734 124.734 368 98.5 368C72.2665 368 51 346.734 51 320.5C51 294.266 72.2665 273 98.5 273C124.734 273 146 294.266 146 320.5Z" fill="url(#paint3_linear_1096_6268)" fill-opacity="0.3"/>
<path d="M109.134 311.224C109.122 311.02 109.086 310.774 109.026 310.486C108.978 310.21 108.918 309.94 108.846 309.676C108.786 309.4 108.72 309.178 108.648 309.01H110.538C110.802 309.01 110.988 308.968 111.096 308.884C111.204 308.8 111.258 308.632 111.258 308.38V302.404H106.164V300.37H116.262V302.404H113.508V309.226C113.508 309.922 113.316 310.426 112.932 310.738C112.548 311.062 111.954 311.224 111.15 311.224H109.134ZM102.528 311.26V304.492C102.228 304.792 101.928 305.074 101.628 305.338C101.328 305.59 101.04 305.818 100.764 306.022C100.572 305.746 100.326 305.452 100.026 305.14C99.7377 304.828 99.4557 304.582 99.1797 304.402C99.6357 304.078 100.116 303.694 100.62 303.25C101.124 302.794 101.622 302.308 102.114 301.792C102.606 301.264 103.05 300.736 103.446 300.208C103.854 299.68 104.178 299.182 104.418 298.714L106.344 299.74C106.128 300.112 105.876 300.496 105.588 300.892C105.312 301.288 105.012 301.69 104.688 302.098V311.26H102.528ZM107.19 297.76V295.744H115.47V297.76H107.19ZM100.908 299.992C100.788 299.716 100.59 299.398 100.314 299.038C100.05 298.678 99.7917 298.402 99.5397 298.21C100.128 297.934 100.728 297.61 101.34 297.238C101.952 296.854 102.522 296.458 103.05 296.05C103.578 295.63 104.01 295.24 104.346 294.88L105.948 296.23C105.552 296.674 105.066 297.13 104.49 297.598C103.914 298.066 103.314 298.51 102.69 298.93C102.066 299.338 101.472 299.692 100.908 299.992Z" fill="#111111"/>
<path d="M97.0392 311.332C95.8512 310.372 94.8852 309.16 94.1412 307.696C93.3972 306.232 92.9112 304.522 92.6832 302.566C92.5752 302.602 92.4672 302.638 92.3592 302.674C92.2632 302.71 92.1672 302.746 92.0712 302.782V311.296H89.9832V303.358C89.6232 303.442 89.2812 303.514 88.9572 303.574C88.9212 303.394 88.8612 303.184 88.7772 302.944C88.7052 302.704 88.6212 302.476 88.5252 302.26C88.5252 302.8 88.5132 303.4 88.4892 304.06C88.4772 304.72 88.4532 305.38 88.4172 306.04C88.3812 306.7 88.3332 307.312 88.2732 307.876C88.2252 308.428 88.1592 308.872 88.0752 309.208C87.8832 309.964 87.5832 310.498 87.1752 310.81C86.7792 311.134 86.1972 311.296 85.4292 311.296H84.7092C84.6972 311.128 84.6672 310.924 84.6192 310.684C84.5832 310.444 84.5352 310.21 84.4752 309.982C84.4272 309.742 84.3732 309.556 84.3132 309.424H85.1952C85.5072 309.424 85.7292 309.352 85.8612 309.208C86.0052 309.064 86.1192 308.788 86.2032 308.38C86.2632 308.116 86.3172 307.768 86.3652 307.336C86.4132 306.904 86.4552 306.448 86.4912 305.968C86.5392 305.488 86.5692 305.032 86.5812 304.6C86.6052 304.156 86.6172 303.796 86.6172 303.52H85.6092C85.5132 304.504 85.3452 305.476 85.1052 306.436C84.8652 307.396 84.5652 308.29 84.2052 309.118C83.8572 309.934 83.4492 310.63 82.9812 311.206C82.7532 311.002 82.4652 310.804 82.1172 310.612C81.7692 310.42 81.4632 310.288 81.1992 310.216C82.0152 309.256 82.6272 308.05 83.0352 306.598C83.4552 305.146 83.6652 303.4 83.6652 301.36V299.74H81.9192V297.904H84.4932V294.898H86.5632V297.904H88.8312V299.254C89.1432 298.798 89.4312 298.312 89.6952 297.796C89.9712 297.28 90.2052 296.77 90.3972 296.266C90.6012 295.75 90.7452 295.288 90.8292 294.88L92.7732 295.42C92.6892 295.708 92.5932 296.002 92.4852 296.302C92.3772 296.602 92.2572 296.902 92.1252 297.202H98.1732V298.984H95.8512L96.9852 300.46C96.6492 300.688 96.2652 300.922 95.8332 301.162C95.4012 301.39 94.9512 301.612 94.4832 301.828C94.5072 302.164 94.5432 302.5 94.5912 302.836C94.6392 303.16 94.6992 303.478 94.7712 303.79C95.1792 303.538 95.5872 303.262 95.9952 302.962C96.4152 302.65 96.7572 302.38 97.0212 302.152L98.3532 303.61C97.9812 303.934 97.5132 304.282 96.9492 304.654C96.3972 305.014 95.8692 305.332 95.3652 305.608C95.7492 306.52 96.2292 307.342 96.8052 308.074C97.3812 308.806 98.0292 309.394 98.7492 309.838C98.5692 309.934 98.3712 310.072 98.1552 310.252C97.9392 310.444 97.7292 310.636 97.5252 310.828C97.3332 311.02 97.1712 311.188 97.0392 311.332ZM85.7172 301.666H88.5252C89.3892 301.558 90.2712 301.372 91.1712 301.108C92.0712 300.832 92.9232 300.514 93.7272 300.154C94.5312 299.782 95.2212 299.392 95.7972 298.984H91.2792C91.0152 299.464 90.7392 299.908 90.4512 300.316C90.1752 300.724 89.8992 301.078 89.6232 301.378C89.4912 301.258 89.3172 301.126 89.1012 300.982C88.8852 300.826 88.6692 300.688 88.4532 300.568C88.2372 300.436 88.0692 300.352 87.9492 300.316C88.0332 300.232 88.1172 300.142 88.2012 300.046C88.2852 299.95 88.3692 299.848 88.4532 299.74H85.7352V301.36C85.7352 301.408 85.7352 301.456 85.7352 301.504C85.7352 301.552 85.7292 301.606 85.7172 301.666Z" fill="#111111"/>
<path d="M85.3519 344L91.7679 325.472H82.5039V321.696H97.1279L89.9279 344H85.3519Z" fill="#00B6B6"/>
<path d="M104.196 337.54C103.049 337.54 102.203 337.197 101.656 336.51C101.109 335.817 100.836 334.9 100.836 333.76C100.836 332.42 101.139 331.45 101.746 330.85C102.353 330.243 103.169 329.94 104.196 329.94C105.216 329.94 106.019 330.243 106.606 330.85C107.199 331.45 107.496 332.427 107.496 333.78C107.496 334.52 107.389 335.173 107.176 335.74C106.969 336.3 106.623 336.74 106.136 337.06C105.656 337.38 105.009 337.54 104.196 337.54ZM104.176 344L111.816 330.06H113.776L106.136 344H104.176ZM104.176 336.04C104.509 336.04 104.756 335.937 104.916 335.73C105.076 335.523 105.179 335.253 105.226 334.92C105.273 334.58 105.296 334.213 105.296 333.82C105.296 333.027 105.216 332.437 105.056 332.05C104.903 331.657 104.596 331.46 104.136 331.46C103.696 331.46 103.393 331.653 103.226 332.04C103.059 332.427 102.976 333 102.976 333.76C102.976 334.387 103.049 334.923 103.196 335.37C103.343 335.817 103.669 336.04 104.176 336.04ZM113.856 344.3C112.696 344.3 111.846 343.953 111.306 343.26C110.766 342.56 110.496 341.64 110.496 340.5C110.496 339.167 110.796 338.197 111.396 337.59C111.996 336.983 112.809 336.68 113.836 336.68C114.856 336.68 115.663 336.987 116.256 337.6C116.856 338.207 117.156 339.187 117.156 340.54C117.156 341.273 117.049 341.923 116.836 342.49C116.623 343.057 116.273 343.5 115.786 343.82C115.306 344.14 114.663 344.3 113.856 344.3ZM113.796 342.76C114.143 342.76 114.396 342.66 114.556 342.46C114.716 342.26 114.819 341.993 114.866 341.66C114.913 341.327 114.936 340.96 114.936 340.56C114.936 339.767 114.859 339.177 114.706 338.79C114.553 338.397 114.249 338.2 113.796 338.2C113.336 338.2 113.026 338.393 112.866 338.78C112.713 339.167 112.636 339.747 112.636 340.52C112.636 341.14 112.703 341.67 112.836 342.11C112.976 342.543 113.296 342.76 113.796 342.76Z" fill="#00B6B6"/>
<path d="M306 419.5C306 445.734 284.734 467 258.5 467C232.266 467 211 445.734 211 419.5C211 393.266 232.266 372 258.5 372C284.734 372 306 393.266 306 419.5Z" fill="url(#paint4_linear_1096_6268)" fill-opacity="0.3"/>
<path d="M268.691 408.494C268.667 408.194 268.607 407.852 268.511 407.468C268.415 407.084 268.313 406.772 268.205 406.532H269.501C269.765 406.532 269.945 406.49 270.041 406.406C270.149 406.322 270.203 406.16 270.203 405.92V405.326H263.759V408.44H261.581V398.864H272.399V406.55C272.399 407.222 272.207 407.714 271.823 408.026C271.439 408.338 270.857 408.494 270.077 408.494H268.691ZM273.767 399.35C273.539 399.11 273.269 398.852 272.957 398.576C272.645 398.288 272.315 397.994 271.967 397.694C271.343 397.754 270.605 397.814 269.753 397.874C268.901 397.934 268.001 397.988 267.053 398.036C266.117 398.084 265.181 398.132 264.245 398.18C263.321 398.228 262.451 398.264 261.635 398.288C260.819 398.312 260.129 398.33 259.565 398.342L259.241 396.416C259.769 396.416 260.345 396.416 260.969 396.416C261.605 396.404 262.253 396.392 262.913 396.38C263.081 396.14 263.249 395.894 263.417 395.642C263.585 395.378 263.747 395.12 263.903 394.868H258.863V393.194H265.829V391.772H268.043V393.194H275.117V394.868H271.391C271.835 395.132 272.291 395.432 272.759 395.768C273.227 396.104 273.677 396.446 274.109 396.794C274.541 397.13 274.913 397.454 275.225 397.766C275.093 397.886 274.931 398.048 274.739 398.252C274.547 398.444 274.361 398.642 274.181 398.846C274.013 399.05 273.875 399.218 273.767 399.35ZM263.759 403.796H270.203V402.932H263.759V403.796ZM263.759 401.384H270.203V400.52H263.759V401.384ZM265.505 396.308C266.321 396.284 267.107 396.26 267.863 396.236C268.619 396.212 269.309 396.188 269.933 396.164C269.573 395.912 269.231 395.696 268.907 395.516L269.627 394.868H266.477C266.345 395.096 266.189 395.336 266.009 395.588C265.841 395.828 265.673 396.068 265.505 396.308Z" fill="#111111"/>
<path d="M243.08 408.368C243.068 408.188 243.038 407.972 242.99 407.72C242.942 407.468 242.888 407.228 242.828 407C242.768 406.76 242.708 406.568 242.648 406.424H243.8C244.04 406.424 244.208 406.388 244.304 406.316C244.4 406.244 244.448 406.094 244.448 405.866V404.768C243.764 404.84 243.116 404.9 242.504 404.948C241.892 404.984 241.388 405.014 240.992 405.038L240.776 403.202C241.148 403.202 241.664 403.178 242.324 403.13C242.984 403.082 243.692 403.028 244.448 402.968V401.924L245.222 401.906C245.258 401.87 245.33 401.798 245.438 401.69C245.546 401.582 245.654 401.474 245.762 401.366C245.87 401.258 245.936 401.186 245.96 401.15H244.052C243.656 401.45 243.248 401.738 242.828 402.014C242.408 402.278 241.976 402.524 241.532 402.752C241.448 402.584 241.298 402.35 241.082 402.05C240.866 401.738 240.65 401.486 240.434 401.294C240.782 401.126 241.112 400.952 241.424 400.772C241.748 400.592 242.06 400.4 242.36 400.196V399.512H243.296C243.536 399.332 243.758 399.146 243.962 398.954C244.178 398.762 244.388 398.57 244.592 398.378H240.848V396.722H243.836V395.372H241.478V393.752H243.836V391.916H245.834V393.752H247.292V394.958C247.52 394.574 247.73 394.196 247.922 393.824C248.114 393.452 248.288 393.08 248.444 392.708L250.19 393.464C249.926 394.028 249.632 394.586 249.308 395.138C248.996 395.678 248.654 396.206 248.282 396.722H249.398V397.82C249.902 396.884 250.322 395.882 250.658 394.814C251.006 393.746 251.228 392.762 251.324 391.862L253.268 392.168C253.088 393.296 252.806 394.424 252.422 395.552H257.264V397.352H256.184C256.076 398.612 255.872 399.77 255.572 400.826C255.272 401.882 254.864 402.842 254.348 403.706C255.26 404.834 256.388 405.806 257.732 406.622C257.576 406.778 257.402 406.964 257.21 407.18C257.018 407.396 256.838 407.606 256.67 407.81C256.514 408.014 256.412 408.17 256.364 408.278C255.116 407.45 254.042 406.472 253.142 405.344C251.99 406.604 250.49 407.594 248.642 408.314C248.546 408.086 248.396 407.804 248.192 407.468C248 407.132 247.796 406.844 247.58 406.604C248.54 406.304 249.386 405.908 250.118 405.416C250.862 404.912 251.492 404.336 252.008 403.688C251.66 403.052 251.36 402.398 251.108 401.726C250.868 401.054 250.682 400.364 250.55 399.656C250.418 399.872 250.28 400.082 250.136 400.286C249.992 400.478 249.848 400.664 249.704 400.844C249.62 400.748 249.512 400.652 249.38 400.556C249.248 400.46 249.11 400.364 248.966 400.268C248.762 400.496 248.51 400.766 248.21 401.078C247.91 401.378 247.604 401.678 247.292 401.978C246.992 402.278 246.716 402.542 246.464 402.77C247.16 402.71 247.796 402.644 248.372 402.572C248.96 402.5 249.422 402.434 249.758 402.374V404.048C249.386 404.132 248.906 404.216 248.318 404.3C247.73 404.384 247.1 404.468 246.428 404.552V406.622C246.428 407.234 246.254 407.678 245.906 407.954C245.558 408.23 245.03 408.368 244.322 408.368H243.08ZM253.142 401.834C253.454 401.162 253.694 400.448 253.862 399.692C254.042 398.936 254.156 398.156 254.204 397.352H252.044C252.068 398.18 252.17 398.966 252.35 399.71C252.542 400.454 252.806 401.162 253.142 401.834ZM245.942 399.512H248.264C248.552 399.164 248.822 398.786 249.074 398.378H247.004C246.836 398.57 246.662 398.762 246.482 398.954C246.314 399.146 246.134 399.332 245.942 399.512ZM245.834 396.722H246.068C246.236 396.506 246.398 396.284 246.554 396.056C246.722 395.828 246.884 395.6 247.04 395.372H245.834V396.722Z" fill="#111111"/>
<path d="M244.352 441L250.768 422.472H241.504V418.696H256.128L248.928 441H244.352Z" fill="#00B6B6"/>
<path d="M263.196 434.54C262.049 434.54 261.203 434.197 260.656 433.51C260.109 432.817 259.836 431.9 259.836 430.76C259.836 429.42 260.139 428.45 260.746 427.85C261.353 427.243 262.169 426.94 263.196 426.94C264.216 426.94 265.019 427.243 265.606 427.85C266.199 428.45 266.496 429.427 266.496 430.78C266.496 431.52 266.389 432.173 266.176 432.74C265.969 433.3 265.623 433.74 265.136 434.06C264.656 434.38 264.009 434.54 263.196 434.54ZM263.176 441L270.816 427.06H272.776L265.136 441H263.176ZM263.176 433.04C263.509 433.04 263.756 432.937 263.916 432.73C264.076 432.523 264.179 432.253 264.226 431.92C264.273 431.58 264.296 431.213 264.296 430.82C264.296 430.027 264.216 429.437 264.056 429.05C263.903 428.657 263.596 428.46 263.136 428.46C262.696 428.46 262.393 428.653 262.226 429.04C262.059 429.427 261.976 430 261.976 430.76C261.976 431.387 262.049 431.923 262.196 432.37C262.343 432.817 262.669 433.04 263.176 433.04ZM272.856 441.3C271.696 441.3 270.846 440.953 270.306 440.26C269.766 439.56 269.496 438.64 269.496 437.5C269.496 436.167 269.796 435.197 270.396 434.59C270.996 433.983 271.809 433.68 272.836 433.68C273.856 433.68 274.663 433.987 275.256 434.6C275.856 435.207 276.156 436.187 276.156 437.54C276.156 438.273 276.049 438.923 275.836 439.49C275.623 440.057 275.273 440.5 274.786 440.82C274.306 441.14 273.663 441.3 272.856 441.3ZM272.796 439.76C273.143 439.76 273.396 439.66 273.556 439.46C273.716 439.26 273.819 438.993 273.866 438.66C273.913 438.327 273.936 437.96 273.936 437.56C273.936 436.767 273.859 436.177 273.706 435.79C273.553 435.397 273.249 435.2 272.796 435.2C272.336 435.2 272.026 435.393 271.866 435.78C271.713 436.167 271.636 436.747 271.636 437.52C271.636 438.14 271.703 438.67 271.836 439.11C271.976 439.543 272.296 439.76 272.796 439.76Z" fill="#00B6B6"/>
<path d="M404 324.5C404 350.734 382.734 372 356.5 372C330.266 372 309 350.734 309 324.5C309 298.266 330.266 277 356.5 277C382.734 277 404 298.266 404 324.5Z" fill="url(#paint5_linear_1096_6268)" fill-opacity="0.3"/>
<path d="M384.17 316.832V312.128H391.978V316.832H384.17ZM380.506 317.168V308.912C380.303 309.168 380.1 309.408 379.898 309.632C379.695 309.856 379.492 310.064 379.29 310.256C379.13 310.064 378.922 309.861 378.666 309.648C378.42 309.424 378.175 309.243 377.93 309.104C378.324 308.752 378.73 308.299 379.146 307.744C379.562 307.179 379.956 306.576 380.33 305.936C380.714 305.285 381.039 304.656 381.306 304.048C381.583 303.44 381.775 302.912 381.882 302.464L383.61 303.04C383.322 304 382.916 304.965 382.394 305.936V317.168H380.506ZM383.066 306.816V305.312H393.05V306.816H383.066ZM384.426 309.072V307.616H391.674V309.072H384.426ZM384.426 311.312V309.872H391.674V311.312H384.426ZM384.426 304.512V303.072H391.674V304.512H384.426ZM386.186 315.264H389.978V313.696H386.186V315.264Z" fill="#111111"/>
<path d="M373.398 314.656C373.377 314.421 373.339 314.144 373.286 313.824C373.233 313.504 373.174 313.253 373.11 313.072H373.846C374.049 313.072 374.187 313.04 374.262 312.976C374.347 312.912 374.39 312.779 374.39 312.576V312.032H372.598V314.384H370.854V312.032H369.094V314.624H367.35V306.368H370.63C370.321 306.144 370.011 305.936 369.702 305.744C369.403 305.541 369.131 305.381 368.886 305.264L369.67 304.304H367.27V302.912H374.998L375.638 303.648C375.403 303.861 375.115 304.107 374.774 304.384C374.433 304.661 374.075 304.944 373.702 305.232C373.339 305.52 372.998 305.792 372.678 306.048C372.753 306.101 372.822 306.155 372.886 306.208C372.961 306.261 373.035 306.315 373.11 306.368H376.15V313.12C376.15 313.664 375.995 314.059 375.686 314.304C375.377 314.539 374.907 314.656 374.278 314.656H373.398ZM371.366 316.96C370.235 316.96 369.286 316.901 368.518 316.784C367.75 316.677 367.115 316.507 366.614 316.272C366.113 316.048 365.691 315.765 365.35 315.424C365.147 315.573 364.902 315.744 364.614 315.936C364.337 316.117 364.049 316.299 363.75 316.48C363.462 316.661 363.206 316.816 362.982 316.944L362.246 315.136C362.427 315.072 362.651 314.981 362.918 314.864C363.195 314.747 363.467 314.624 363.734 314.496C364.001 314.357 364.214 314.235 364.374 314.128V310.08H362.598V308.416H366.118V313.888C366.31 314.411 366.827 314.779 367.67 314.992C368.523 315.195 369.755 315.296 371.366 315.296C372.731 315.296 373.905 315.275 374.886 315.232C375.867 315.189 376.662 315.125 377.27 315.04C377.217 315.157 377.158 315.339 377.094 315.584C377.03 315.819 376.977 316.059 376.934 316.304C376.891 316.56 376.865 316.768 376.854 316.928C376.555 316.928 376.166 316.928 375.686 316.928C375.206 316.939 374.694 316.944 374.15 316.944C373.617 316.955 373.105 316.96 372.614 316.96C372.123 316.96 371.707 316.96 371.366 316.96ZM365.366 306.64C365.185 306.373 364.945 306.075 364.646 305.744C364.347 305.413 364.033 305.093 363.702 304.784C363.371 304.464 363.067 304.208 362.79 304.016L364.054 302.832C364.321 303.003 364.625 303.243 364.966 303.552C365.318 303.861 365.654 304.187 365.974 304.528C366.294 304.859 366.545 305.141 366.726 305.376C366.619 305.451 366.475 305.568 366.294 305.728C366.113 305.888 365.937 306.053 365.766 306.224C365.595 306.395 365.462 306.533 365.366 306.64ZM372.598 310.736H374.39V309.888H372.598V310.736ZM372.598 308.592H374.39V307.744H372.598V308.592ZM369.094 310.736H370.854V309.888H369.094V310.736ZM369.094 308.592H370.854V307.744H369.094V308.592ZM371.494 305.232C371.707 305.061 371.921 304.891 372.134 304.72C372.347 304.549 372.523 304.411 372.662 304.304H369.99C370.203 304.421 370.438 304.56 370.694 304.72C370.961 304.88 371.227 305.051 371.494 305.232Z" fill="#111111"/>
<path d="M356.998 311.68C356.508 311.68 356.092 311.509 355.75 311.168C355.409 310.827 355.238 310.411 355.238 309.92C355.238 309.429 355.409 309.013 355.75 308.672C356.092 308.331 356.508 308.16 356.998 308.16C357.489 308.16 357.905 308.331 358.246 308.672C358.588 309.013 358.758 309.429 358.758 309.92C358.758 310.411 358.588 310.827 358.246 311.168C357.905 311.509 357.489 311.68 356.998 311.68Z" fill="#111111"/>
<path d="M344.598 317.152V302.976H350.726V306.048C350.726 306.741 350.566 307.248 350.246 307.568C349.926 307.877 349.452 308.032 348.822 308.032H347.638C347.617 307.755 347.569 307.445 347.494 307.104C347.42 306.763 347.34 306.491 347.254 306.288H348.358C348.561 306.288 348.71 306.256 348.806 306.192C348.902 306.128 348.95 305.995 348.95 305.792V304.608H346.39V308.512H351.126C351.094 309.504 350.956 310.464 350.71 311.392C350.476 312.32 350.14 313.189 349.702 314C349.99 314.331 350.31 314.64 350.662 314.928C351.025 315.205 351.414 315.472 351.83 315.728C351.66 315.867 351.468 316.069 351.254 316.336C351.041 316.613 350.86 316.869 350.71 317.104C349.964 316.645 349.302 316.096 348.726 315.456C348.492 315.744 348.246 316.016 347.99 316.272C347.734 316.528 347.462 316.763 347.174 316.976C346.982 316.731 346.721 316.469 346.39 316.192V317.152H344.598ZM339.734 317.152V314.384H337.206V312.832H339.734V311.728H336.998V310.176H338.47C338.374 309.909 338.268 309.643 338.15 309.376C338.044 309.109 337.942 308.891 337.846 308.72L339.398 308.288C339.516 308.523 339.644 308.827 339.782 309.2C339.921 309.573 340.028 309.899 340.102 310.176H341.094C341.212 309.877 341.324 309.552 341.43 309.2C341.537 308.848 341.617 308.544 341.67 308.288L343.254 308.656C343.19 308.88 343.11 309.131 343.014 309.408C342.918 309.675 342.817 309.931 342.71 310.176H344.038V311.728H341.478V312.832H343.846V314.384H341.478V317.152H339.734ZM336.742 308.208V306.656H339.734V305.616H337.446V304.128H339.734V302.592H341.478V304.128H343.718V305.616H341.478V306.656H344.31V308.208H336.742ZM346.39 315.36C346.625 315.157 346.849 314.944 347.062 314.72C347.276 314.496 347.473 314.256 347.654 314C347.366 313.509 347.121 312.987 346.918 312.432C346.716 311.877 346.556 311.291 346.438 310.672L347.99 310.368C348.129 311.115 348.337 311.776 348.614 312.352C348.934 311.648 349.142 310.907 349.238 310.128H346.39V315.36Z" fill="#111111"/>
<path d="M323.065 317.184V302.608H324.921V305.328L325.689 304.8C325.881 305.024 326.1 305.307 326.345 305.648C326.601 305.979 326.815 306.267 326.985 306.512V305.584H329.545V304.992H326.121V303.696H329.545V302.56H331.449V303.696H335.113V304.992H331.449V305.584H334.121V306.832H331.449V307.472H335.577V308.768H325.641V307.472H325.753C325.647 307.28 325.519 307.067 325.369 306.832C325.22 306.597 325.071 306.379 324.921 306.176V317.184H323.065ZM331.241 317.2C331.22 316.944 331.177 316.656 331.113 316.336C331.06 316.016 330.991 315.755 330.905 315.552H331.881C332.095 315.552 332.233 315.515 332.297 315.44C332.372 315.365 332.409 315.227 332.409 315.024V314.592H328.793V317.184H326.889V309.376H334.297V315.568C334.297 316.123 334.137 316.533 333.817 316.8C333.508 317.067 333.007 317.2 332.313 317.2H331.241ZM321.977 310.192C321.86 310.139 321.7 310.085 321.497 310.032C321.305 309.968 321.108 309.909 320.905 309.856C320.713 309.803 320.559 309.765 320.441 309.744C320.516 309.509 320.591 309.211 320.665 308.848C320.74 308.475 320.804 308.08 320.857 307.664C320.921 307.248 320.975 306.853 321.017 306.48C321.06 306.096 321.081 305.776 321.081 305.52L322.697 305.68C322.687 306.053 322.655 306.469 322.601 306.928C322.548 307.376 322.484 307.819 322.409 308.256C322.335 308.693 322.255 309.088 322.169 309.44C322.095 309.781 322.031 310.032 321.977 310.192ZM328.793 313.328H332.409V312.64H328.793V313.328ZM328.793 311.376H332.409V310.72H328.793V311.376ZM326.185 307.472H329.545V306.832H327.081L326.185 307.472Z" fill="#111111"/>
<path d="M343.352 349L349.768 330.472H340.504V326.696H355.128L347.928 349H343.352Z" fill="#00B6B6"/>
<path d="M362.196 342.54C361.049 342.54 360.203 342.197 359.656 341.51C359.109 340.817 358.836 339.9 358.836 338.76C358.836 337.42 359.139 336.45 359.746 335.85C360.353 335.243 361.169 334.94 362.196 334.94C363.216 334.94 364.019 335.243 364.606 335.85C365.199 336.45 365.496 337.427 365.496 338.78C365.496 339.52 365.389 340.173 365.176 340.74C364.969 341.3 364.623 341.74 364.136 342.06C363.656 342.38 363.009 342.54 362.196 342.54ZM362.176 349L369.816 335.06H371.776L364.136 349H362.176ZM362.176 341.04C362.509 341.04 362.756 340.937 362.916 340.73C363.076 340.523 363.179 340.253 363.226 339.92C363.273 339.58 363.296 339.213 363.296 338.82C363.296 338.027 363.216 337.437 363.056 337.05C362.903 336.657 362.596 336.46 362.136 336.46C361.696 336.46 361.393 336.653 361.226 337.04C361.059 337.427 360.976 338 360.976 338.76C360.976 339.387 361.049 339.923 361.196 340.37C361.343 340.817 361.669 341.04 362.176 341.04ZM371.856 349.3C370.696 349.3 369.846 348.953 369.306 348.26C368.766 347.56 368.496 346.64 368.496 345.5C368.496 344.167 368.796 343.197 369.396 342.59C369.996 341.983 370.809 341.68 371.836 341.68C372.856 341.68 373.663 341.987 374.256 342.6C374.856 343.207 375.156 344.187 375.156 345.54C375.156 346.273 375.049 346.923 374.836 347.49C374.623 348.057 374.273 348.5 373.786 348.82C373.306 349.14 372.663 349.3 371.856 349.3ZM371.796 347.76C372.143 347.76 372.396 347.66 372.556 347.46C372.716 347.26 372.819 346.993 372.866 346.66C372.913 346.327 372.936 345.96 372.936 345.56C372.936 344.767 372.859 344.177 372.706 343.79C372.553 343.397 372.249 343.2 371.796 343.2C371.336 343.2 371.026 343.393 370.866 343.78C370.713 344.167 370.636 344.747 370.636 345.52C370.636 346.14 370.703 346.67 370.836 347.11C370.976 347.543 371.296 347.76 371.796 347.76Z" fill="#00B6B6"/>
<path d="M495 407.5C495 433.734 473.734 455 447.5 455C421.266 455 400 433.734 400 407.5C400 381.266 421.266 360 447.5 360C473.734 360 495 381.266 495 407.5Z" fill="url(#paint6_linear_1096_6268)" fill-opacity="0.3"/>
<path d="M467.662 409.008V404.248C466.7 404.285 465.767 404.313 464.862 404.332C463.966 404.351 463.191 404.365 462.538 404.374L462.286 402.862C462.864 402.871 463.574 402.871 464.414 402.862C465.254 402.853 466.126 402.843 467.032 402.834C466.696 402.545 466.327 402.246 465.926 401.938C465.524 401.63 465.118 401.331 464.708 401.042C464.306 400.753 463.919 400.501 463.546 400.286L464.568 399.012C464.782 399.152 465.002 399.297 465.226 399.446C465.45 399.595 465.674 399.749 465.898 399.908C466.103 399.665 466.313 399.399 466.528 399.11C466.742 398.811 466.938 398.527 467.116 398.256C466.453 398.293 465.804 398.317 465.17 398.326C464.535 398.335 463.942 398.335 463.392 398.326C463.354 398.102 463.294 397.845 463.21 397.556C463.126 397.257 463.046 397.005 462.972 396.8C463.466 396.837 464.045 396.856 464.708 396.856C465.37 396.856 466.07 396.842 466.808 396.814C467.545 396.777 468.268 396.725 468.978 396.66C469.696 396.595 470.359 396.515 470.966 396.422C471.582 396.329 472.095 396.226 472.506 396.114L473.612 397.472C472.958 397.631 472.17 397.771 471.246 397.892C470.331 398.013 469.374 398.111 468.376 398.186L468.964 398.508C468.833 398.713 468.67 398.956 468.474 399.236C468.287 399.507 468.082 399.787 467.858 400.076C467.634 400.356 467.414 400.622 467.2 400.874C467.358 400.995 467.508 401.117 467.648 401.238C467.797 401.359 467.946 401.485 468.096 401.616C468.404 401.28 468.712 400.93 469.02 400.566C469.337 400.193 469.626 399.843 469.888 399.516C470.158 399.18 470.364 398.9 470.504 398.676L471.974 399.544C471.731 399.871 471.446 400.225 471.12 400.608C470.793 400.991 470.452 401.369 470.098 401.742C469.752 402.115 469.412 402.461 469.076 402.778C469.626 402.759 470.14 402.745 470.616 402.736C471.101 402.717 471.53 402.703 471.904 402.694C471.792 402.554 471.675 402.419 471.554 402.288C471.442 402.157 471.33 402.031 471.218 401.91L472.45 401.056C472.748 401.345 473.052 401.686 473.36 402.078C473.677 402.47 473.971 402.867 474.242 403.268C474.512 403.66 474.732 404.019 474.9 404.346C474.788 404.402 474.643 404.481 474.466 404.584C474.298 404.687 474.13 404.794 473.962 404.906C473.803 405.018 473.672 405.121 473.57 405.214C473.476 405.027 473.364 404.831 473.234 404.626C473.112 404.411 472.982 404.201 472.842 403.996C472.366 404.024 471.829 404.057 471.232 404.094C470.634 404.122 470.004 404.15 469.342 404.178V409.008H467.662ZM473.682 408.518C473.01 408.182 472.356 407.757 471.722 407.244C471.087 406.731 470.56 406.217 470.14 405.704L471.302 404.752C471.554 405.051 471.862 405.354 472.226 405.662C472.59 405.961 472.982 406.245 473.402 406.516C473.831 406.777 474.251 407.001 474.662 407.188C474.456 407.365 474.27 407.58 474.102 407.832C473.934 408.084 473.794 408.313 473.682 408.518ZM463.294 408.518C463.191 408.313 463.042 408.089 462.846 407.846C462.659 407.603 462.463 407.407 462.258 407.258C462.659 407.099 463.07 406.885 463.49 406.614C463.91 406.334 464.302 406.035 464.666 405.718C465.039 405.391 465.347 405.079 465.59 404.78L466.836 405.704C466.565 406.049 466.238 406.399 465.856 406.754C465.473 407.099 465.058 407.426 464.61 407.734C464.171 408.033 463.732 408.294 463.294 408.518Z" fill="#111111"/>
<path d="M459.442 409.218C459.031 409.078 458.574 408.896 458.07 408.672C457.566 408.457 457.081 408.224 456.614 407.972C456.147 407.72 455.755 407.477 455.438 407.244L456.11 406.544H452.904L453.576 407.244C453.268 407.477 452.881 407.72 452.414 407.972C451.947 408.215 451.462 408.443 450.958 408.658C450.454 408.882 449.987 409.064 449.558 409.204C449.493 409.092 449.404 408.952 449.292 408.784C449.18 408.625 449.059 408.467 448.928 408.308C448.807 408.159 448.69 408.037 448.578 407.944C448.858 407.869 449.199 407.762 449.6 407.622C450.011 407.473 450.431 407.305 450.86 407.118C451.289 406.931 451.667 406.74 451.994 406.544H449.866V400.244H459.162V406.544H457.02C457.356 406.731 457.734 406.913 458.154 407.09C458.583 407.267 458.999 407.426 459.4 407.566C459.811 407.706 460.151 407.809 460.422 407.874C460.31 407.967 460.189 408.098 460.058 408.266C459.927 408.434 459.806 408.602 459.694 408.77C459.591 408.947 459.507 409.097 459.442 409.218ZM450.272 399.642V396.534H458.728V399.642H450.272ZM451.98 398.466H457.02V397.696H451.98V398.466ZM451.63 405.41H457.398V404.766H451.63V405.41ZM451.63 403.702H457.398V403.058H451.63V403.702ZM451.63 401.994H457.398V401.378H451.63V401.994Z" fill="#111111"/>
<path d="M435.332 409.078C435.314 408.863 435.272 408.597 435.206 408.28C435.141 407.972 435.071 407.729 434.996 407.552H435.906C436.084 407.552 436.21 407.524 436.284 407.468C436.368 407.412 436.41 407.295 436.41 407.118V404.696C436.149 405.069 435.883 405.419 435.612 405.746C435.342 406.073 435.071 406.357 434.8 406.6C434.66 406.423 434.478 406.241 434.254 406.054C434.04 405.858 433.839 405.713 433.652 405.62C433.979 405.34 434.31 404.995 434.646 404.584C434.992 404.173 435.314 403.744 435.612 403.296C435.911 402.839 436.154 402.423 436.34 402.05H434.128V400.678H437.138C436.793 400.426 436.424 400.174 436.032 399.922C435.64 399.67 435.29 399.465 434.982 399.306L435.836 398.242C436.004 398.326 436.186 398.424 436.382 398.536C436.588 398.648 436.798 398.769 437.012 398.9C437.152 398.741 437.302 398.559 437.46 398.354C437.619 398.149 437.736 397.995 437.81 397.892H434.464V396.646H439.574L440.204 397.136C440.055 397.351 439.859 397.607 439.616 397.906C439.374 398.205 439.122 398.508 438.86 398.816C438.599 399.124 438.356 399.399 438.132 399.642C438.254 399.717 438.366 399.791 438.468 399.866C438.571 399.941 438.669 400.015 438.762 400.09C438.716 400.155 438.65 400.239 438.566 400.342C438.482 400.445 438.394 400.557 438.3 400.678H439.882L440.484 401.112C440.447 401.215 440.396 401.355 440.33 401.532C440.274 401.7 440.204 401.887 440.12 402.092C440.942 401.868 441.665 401.523 442.29 401.056C442.085 400.832 441.898 400.594 441.73 400.342C441.562 400.09 441.399 399.819 441.24 399.53C441.091 399.717 440.937 399.894 440.778 400.062C440.62 400.23 440.461 400.389 440.302 400.538C440.153 400.379 439.971 400.225 439.756 400.076C439.542 399.917 439.341 399.791 439.154 399.698C439.49 399.399 439.822 399.035 440.148 398.606C440.475 398.177 440.764 397.743 441.016 397.304C441.278 396.856 441.455 396.469 441.548 396.142L443.018 396.506C442.906 396.814 442.766 397.122 442.598 397.43H446.742V398.732H445.748C445.58 399.152 445.394 399.549 445.188 399.922C444.983 400.286 444.745 400.631 444.474 400.958C444.866 401.21 445.286 401.425 445.734 401.602C446.192 401.77 446.663 401.91 447.148 402.022C446.999 402.181 446.854 402.4 446.714 402.68C446.574 402.951 446.467 403.189 446.392 403.394C445.823 403.263 445.286 403.086 444.782 402.862C444.278 402.638 443.807 402.367 443.368 402.05C443.088 402.274 442.78 402.484 442.444 402.68L443.606 402.764C443.597 402.96 443.578 403.156 443.55 403.352C443.522 403.539 443.494 403.725 443.466 403.912H446.35C446.341 404.323 446.318 404.747 446.28 405.186C446.252 405.625 446.21 406.045 446.154 406.446C446.108 406.838 446.052 407.179 445.986 407.468C445.856 408.093 445.622 408.513 445.286 408.728C444.95 408.943 444.479 409.05 443.872 409.05H443.018C443.009 408.91 442.986 408.737 442.948 408.532C442.92 408.336 442.883 408.145 442.836 407.958C442.79 407.762 442.743 407.608 442.696 407.496H443.55C443.886 407.496 444.11 407.454 444.222 407.37C444.344 407.277 444.437 407.09 444.502 406.81C444.549 406.595 444.591 406.353 444.628 406.082C444.666 405.802 444.689 405.545 444.698 405.312H443.158C442.897 406.18 442.482 406.927 441.912 407.552C441.352 408.177 440.536 408.681 439.462 409.064C439.378 408.877 439.248 408.649 439.07 408.378C438.893 408.107 438.725 407.897 438.566 407.748C439.341 407.533 439.971 407.225 440.456 406.824C440.942 406.413 441.306 405.909 441.548 405.312H439.56V403.912H441.912C441.959 403.604 441.987 403.268 441.996 402.904C441.763 403.025 441.516 403.137 441.254 403.24C440.993 403.343 440.713 403.441 440.414 403.534C440.349 403.385 440.274 403.226 440.19 403.058C440.116 402.89 440.032 402.722 439.938 402.554C439.789 402.937 439.63 403.315 439.462 403.688C439.304 404.052 439.173 404.318 439.07 404.486C438.93 404.402 438.753 404.313 438.538 404.22C438.324 404.127 438.123 404.057 437.936 404.01V407.72C437.936 408.625 437.395 409.078 436.312 409.078H435.332ZM443.326 400.034C443.634 399.633 443.882 399.199 444.068 398.732H442.388C442.659 399.236 442.972 399.67 443.326 400.034ZM437.936 403.702C438.03 403.515 438.123 403.31 438.216 403.086C438.319 402.862 438.412 402.652 438.496 402.456C438.58 402.26 438.636 402.125 438.664 402.05H437.936V403.702Z" fill="#111111"/>
<path d="M430.642 408.91C430.54 408.714 430.404 408.485 430.236 408.224C430.078 407.963 429.9 407.687 429.704 407.398C429.284 407.463 428.771 407.533 428.164 407.608C427.558 407.683 426.914 407.762 426.232 407.846C425.56 407.921 424.893 407.991 424.23 408.056C423.577 408.131 422.98 408.191 422.438 408.238C421.897 408.294 421.468 408.336 421.15 408.364L420.786 406.712C420.992 406.703 421.262 406.689 421.598 406.67C421.934 406.651 422.312 406.623 422.732 406.586C422.956 406.175 423.204 405.699 423.474 405.158C423.745 404.607 424.006 404.043 424.258 403.464C424.52 402.885 424.748 402.349 424.944 401.854C425.15 401.35 425.299 400.944 425.392 400.636L427.072 401.252C426.951 401.588 426.797 401.971 426.61 402.4C426.424 402.829 426.218 403.282 425.994 403.758C425.77 404.234 425.542 404.701 425.308 405.158C425.084 405.615 424.865 406.04 424.65 406.432C425.369 406.376 426.088 406.315 426.806 406.25C427.534 406.175 428.169 406.105 428.71 406.04C428.421 405.657 428.132 405.303 427.842 404.976C427.562 404.649 427.306 404.383 427.072 404.178L428.318 403.142C428.598 403.403 428.911 403.73 429.256 404.122C429.611 404.505 429.966 404.92 430.32 405.368C430.684 405.807 431.025 406.245 431.342 406.684C431.669 407.113 431.944 407.501 432.168 407.846C432.019 407.93 431.846 408.033 431.65 408.154C431.454 408.285 431.268 408.415 431.09 408.546C430.913 408.686 430.764 408.807 430.642 408.91ZM432.14 403.758C431.394 403.338 430.717 402.843 430.11 402.274C429.504 401.705 428.99 401.093 428.57 400.44C428.15 399.787 427.842 399.124 427.646 398.452H425.28V396.94H429.004C429.07 397.565 429.233 398.153 429.494 398.704C429.765 399.245 430.101 399.745 430.502 400.202C430.904 400.65 431.347 401.056 431.832 401.42C432.318 401.775 432.812 402.087 433.316 402.358C433.195 402.461 433.055 402.596 432.896 402.764C432.747 402.932 432.602 403.109 432.462 403.296C432.332 403.473 432.224 403.627 432.14 403.758ZM421.052 403.912C420.959 403.791 420.828 403.66 420.66 403.52C420.492 403.371 420.315 403.231 420.128 403.1C419.951 402.969 419.792 402.871 419.652 402.806C420.044 402.545 420.432 402.209 420.814 401.798C421.197 401.387 421.556 400.944 421.892 400.468C422.228 399.992 422.518 399.525 422.76 399.068C423.003 398.601 423.18 398.186 423.292 397.822L424.916 398.466C424.459 399.567 423.89 400.589 423.208 401.532C422.527 402.475 421.808 403.268 421.052 403.912Z" fill="#111111"/>
<path d="M467.843 383.028V381.698H471.763V380.802H466.415V379.444H471.763V378.296H473.513V379.444H478.945V380.802H473.513V381.698H477.503V383.028H467.843ZM466.737 386.584V383.742H478.623V386.528H476.901V385.086H468.501V386.584H466.737ZM474.647 390.784C474.069 390.784 473.663 390.695 473.429 390.518C473.196 390.35 473.079 390.061 473.079 389.65V385.548H474.787V388.824C474.787 388.964 474.82 389.067 474.885 389.132C474.96 389.188 475.1 389.216 475.305 389.216H476.607C476.981 389.216 477.233 389.104 477.363 388.88C477.494 388.656 477.587 388.231 477.643 387.606C477.83 387.699 478.082 387.807 478.399 387.928C478.726 388.04 479.006 388.124 479.239 388.18C479.137 388.908 479.001 389.459 478.833 389.832C478.675 390.205 478.455 390.457 478.175 390.588C477.905 390.719 477.536 390.784 477.069 390.784H474.647ZM466.961 391.134C466.896 390.938 466.789 390.686 466.639 390.378C466.499 390.079 466.35 389.841 466.191 389.664C467.134 389.505 467.899 389.281 468.487 388.992C469.085 388.703 469.528 388.287 469.817 387.746C470.107 387.195 470.275 386.463 470.321 385.548L471.959 385.772C471.857 387.321 471.399 388.521 470.587 389.37C469.775 390.219 468.567 390.807 466.961 391.134Z" fill="#111111"/>
<path d="M459.833 391.078C459.702 390.901 459.534 390.709 459.329 390.504C459.133 390.299 458.951 390.145 458.783 390.042C459.278 389.743 459.726 389.403 460.127 389.02C460.538 388.628 460.902 388.208 461.219 387.76C460.902 387.144 460.636 386.477 460.421 385.758C460.206 385.03 460.057 384.251 459.973 383.42H459.889V383.574C459.889 384.703 459.824 385.707 459.693 386.584C459.562 387.461 459.348 388.259 459.049 388.978C458.75 389.697 458.34 390.387 457.817 391.05C457.649 390.919 457.448 390.789 457.215 390.658C456.991 390.527 456.772 390.415 456.557 390.322C456.604 390.266 456.65 390.21 456.697 390.154C456.744 390.098 456.786 390.042 456.823 389.986C456.552 389.725 456.286 389.44 456.025 389.132C455.764 388.824 455.535 388.525 455.339 388.236L456.221 387.592H453.001V378.702H457.383V387.592H456.599C456.73 387.779 456.879 387.97 457.047 388.166C457.224 388.353 457.402 388.539 457.579 388.726C457.878 388.073 458.092 387.335 458.223 386.514C458.363 385.683 458.433 384.703 458.433 383.574V378.716H464.873V380.116H459.889V382.076H463.991L464.481 382.44C464.369 383.457 464.187 384.414 463.935 385.31C463.692 386.206 463.347 387.041 462.899 387.816C463.515 388.656 464.262 389.337 465.139 389.86C464.943 390.009 464.747 390.196 464.551 390.42C464.355 390.644 464.192 390.849 464.061 391.036C463.688 390.765 463.328 390.462 462.983 390.126C462.647 389.799 462.334 389.445 462.045 389.062C461.746 389.435 461.41 389.79 461.037 390.126C460.673 390.462 460.272 390.779 459.833 391.078ZM453.337 391.008C453.234 390.933 453.099 390.845 452.931 390.742C452.772 390.649 452.614 390.555 452.455 390.462C452.296 390.369 452.156 390.303 452.035 390.266C452.231 390.061 452.432 389.809 452.637 389.51C452.842 389.211 453.034 388.903 453.211 388.586C453.388 388.269 453.524 387.979 453.617 387.718L454.919 388.278C454.807 388.567 454.662 388.88 454.485 389.216C454.308 389.543 454.116 389.865 453.911 390.182C453.715 390.499 453.524 390.775 453.337 391.008ZM462.031 386.332C462.432 385.436 462.698 384.465 462.829 383.42H461.261C461.392 384.493 461.648 385.464 462.031 386.332ZM454.387 386.234H455.997V384.946H454.387V386.234ZM454.387 383.714H455.997V382.496H454.387V383.714ZM454.387 381.264H455.997V380.06H454.387V381.264Z" fill="#111111"/>
<path d="M447.501 386.22C447.072 386.22 446.708 386.071 446.409 385.772C446.11 385.473 445.961 385.109 445.961 384.68C445.961 384.251 446.11 383.887 446.409 383.588C446.708 383.289 447.072 383.14 447.501 383.14C447.93 383.14 448.294 383.289 448.593 383.588C448.892 383.887 449.041 384.251 449.041 384.68C449.041 385.109 448.892 385.473 448.593 385.772C448.294 386.071 447.93 386.22 447.501 386.22Z" fill="#111111"/>
<path d="M438.078 390.994C438.068 390.845 438.045 390.663 438.008 390.448C437.97 390.243 437.924 390.037 437.868 389.832C437.821 389.627 437.77 389.463 437.714 389.342H438.778C438.974 389.342 439.114 389.314 439.198 389.258C439.282 389.193 439.324 389.067 439.324 388.88V384.708C438.857 385.473 438.32 386.206 437.714 386.906C437.107 387.597 436.486 388.185 435.852 388.67C435.777 388.549 435.665 388.413 435.516 388.264C435.376 388.105 435.226 387.956 435.068 387.816C434.909 387.667 434.764 387.55 434.634 387.466C435.016 387.223 435.404 386.915 435.796 386.542C436.197 386.169 436.584 385.758 436.958 385.31C437.34 384.862 437.69 384.4 438.008 383.924C438.325 383.448 438.596 382.981 438.82 382.524H436.468V381.054H439.324V378.366H440.99V381.054H442.712V382.524H440.99V389.538C440.99 390.051 440.845 390.42 440.556 390.644C440.266 390.877 439.823 390.994 439.226 390.994H438.078ZM432.436 390.994V385.954C432.184 386.383 431.927 386.789 431.666 387.172C431.414 387.555 431.166 387.881 430.924 388.152C430.756 387.984 430.546 387.797 430.294 387.592C430.042 387.387 429.808 387.237 429.594 387.144C429.846 386.911 430.107 386.612 430.378 386.248C430.658 385.875 430.928 385.473 431.19 385.044C431.46 384.605 431.703 384.176 431.918 383.756C432.142 383.327 432.314 382.939 432.436 382.594V382.524H430.084V381.068H432.436V378.38H434.06V381.068H435.88V382.524H434.06V382.986C434.237 383.229 434.466 383.509 434.746 383.826C435.035 384.134 435.324 384.428 435.614 384.708C435.912 384.988 436.16 385.207 436.356 385.366C436.253 385.45 436.127 385.567 435.978 385.716C435.838 385.865 435.702 386.015 435.572 386.164C435.441 386.313 435.343 386.439 435.278 386.542C435.119 386.383 434.928 386.183 434.704 385.94C434.489 385.697 434.274 385.445 434.06 385.184V390.994H432.436Z" fill="#111111"/>
<path d="M417.006 390.938C416.875 390.705 416.712 390.453 416.516 390.182C416.32 389.921 416.119 389.701 415.914 389.524C416.95 389.02 417.883 388.404 418.714 387.676C419.545 386.939 420.198 386.089 420.674 385.128C421.159 384.167 421.402 383.107 421.402 381.95V378.52H423.138V381.474C423.138 382.407 423.292 383.28 423.6 384.092C423.908 384.904 424.328 385.646 424.86 386.318C425.392 386.99 425.994 387.583 426.666 388.096C427.338 388.6 428.043 389.015 428.78 389.342C428.603 389.538 428.407 389.79 428.192 390.098C427.987 390.406 427.823 390.677 427.702 390.91C426.909 390.499 426.162 389.995 425.462 389.398C424.762 388.801 424.146 388.133 423.614 387.396C423.091 386.659 422.676 385.884 422.368 385.072C422.097 385.912 421.691 386.701 421.15 387.438C420.609 388.166 419.983 388.829 419.274 389.426C418.565 390.014 417.809 390.518 417.006 390.938Z" fill="#111111"/>
<path d="M433.852 440L440.268 421.472H431.004V417.696H445.628L438.428 440H433.852Z" fill="#00B6B6"/>
<path d="M452.696 433.54C451.549 433.54 450.703 433.197 450.156 432.51C449.609 431.817 449.336 430.9 449.336 429.76C449.336 428.42 449.639 427.45 450.246 426.85C450.853 426.243 451.669 425.94 452.696 425.94C453.716 425.94 454.519 426.243 455.106 426.85C455.699 427.45 455.996 428.427 455.996 429.78C455.996 430.52 455.889 431.173 455.676 431.74C455.469 432.3 455.123 432.74 454.636 433.06C454.156 433.38 453.509 433.54 452.696 433.54ZM452.676 440L460.316 426.06H462.276L454.636 440H452.676ZM452.676 432.04C453.009 432.04 453.256 431.937 453.416 431.73C453.576 431.523 453.679 431.253 453.726 430.92C453.773 430.58 453.796 430.213 453.796 429.82C453.796 429.027 453.716 428.437 453.556 428.05C453.403 427.657 453.096 427.46 452.636 427.46C452.196 427.46 451.893 427.653 451.726 428.04C451.559 428.427 451.476 429 451.476 429.76C451.476 430.387 451.549 430.923 451.696 431.37C451.843 431.817 452.169 432.04 452.676 432.04ZM462.356 440.3C461.196 440.3 460.346 439.953 459.806 439.26C459.266 438.56 458.996 437.64 458.996 436.5C458.996 435.167 459.296 434.197 459.896 433.59C460.496 432.983 461.309 432.68 462.336 432.68C463.356 432.68 464.163 432.987 464.756 433.6C465.356 434.207 465.656 435.187 465.656 436.54C465.656 437.273 465.549 437.923 465.336 438.49C465.123 439.057 464.773 439.5 464.286 439.82C463.806 440.14 463.163 440.3 462.356 440.3ZM462.296 438.76C462.643 438.76 462.896 438.66 463.056 438.46C463.216 438.26 463.319 437.993 463.366 437.66C463.413 437.327 463.436 436.96 463.436 436.56C463.436 435.767 463.359 435.177 463.206 434.79C463.053 434.397 462.749 434.2 462.296 434.2C461.836 434.2 461.526 434.393 461.366 434.78C461.213 435.167 461.136 435.747 461.136 436.52C461.136 437.14 461.203 437.67 461.336 438.11C461.476 438.543 461.796 438.76 462.296 438.76Z" fill="#00B6B6"/>
<defs>
<linearGradient id="paint0_linear_1096_6268" x1="374" y1="33" x2="374" y2="257" gradientUnits="userSpaceOnUse">
<stop stop-color="#17B9FB" stop-opacity="0.6"/>
<stop offset="1" stop-color="#2DD5B9" stop-opacity="0.6"/>
</linearGradient>
<linearGradient id="paint1_linear_1096_6268" x1="148.5" y1="55" x2="148.5" y2="228" gradientUnits="userSpaceOnUse">
<stop stop-color="#17B9FB" stop-opacity="0.6"/>
<stop offset="1" stop-color="#2DD5B9" stop-opacity="0.6"/>
</linearGradient>
<linearGradient id="paint2_linear_1096_6268" x1="222.5" y1="222" x2="222.5" y2="357" gradientUnits="userSpaceOnUse">
<stop stop-color="#17B9FB" stop-opacity="0.6"/>
<stop offset="1" stop-color="#2DD5B9" stop-opacity="0.6"/>
</linearGradient>
<linearGradient id="paint3_linear_1096_6268" x1="98.5" y1="273" x2="98.5" y2="368" gradientUnits="userSpaceOnUse">
<stop stop-color="#17B9FB" stop-opacity="0.6"/>
<stop offset="1" stop-color="#2DD5B9" stop-opacity="0.6"/>
</linearGradient>
<linearGradient id="paint4_linear_1096_6268" x1="258.5" y1="372" x2="258.5" y2="467" gradientUnits="userSpaceOnUse">
<stop stop-color="#17B9FB" stop-opacity="0.6"/>
<stop offset="1" stop-color="#2DD5B9" stop-opacity="0.6"/>
</linearGradient>
<linearGradient id="paint5_linear_1096_6268" x1="356.5" y1="277" x2="356.5" y2="372" gradientUnits="userSpaceOnUse">
<stop stop-color="#17B9FB" stop-opacity="0.6"/>
<stop offset="1" stop-color="#2DD5B9" stop-opacity="0.6"/>
</linearGradient>
<linearGradient id="paint6_linear_1096_6268" x1="447.5" y1="360" x2="447.5" y2="455" gradientUnits="userSpaceOnUse">
<stop stop-color="#17B9FB" stop-opacity="0.6"/>
<stop offset="1" stop-color="#2DD5B9" stop-opacity="0.6"/>
</linearGradient>
</defs>
</svg>
