<svg width="550" height="500" viewBox="0 0 550 500" fill="none" xmlns="http://www.w3.org/2000/svg">
<rect width="550" height="500" fill="white"/>
<path d="M248.965 101.76V99.46H253.465V92.5H250.085V90.2H253.465V84.3H255.885V90.2H259.365V92.5H255.885V99.46H259.905V101.76H248.965ZM244.985 102.4V95.74C244.612 96.0734 244.225 96.4067 243.825 96.74C243.425 97.06 243.012 97.3667 242.585 97.66C242.412 97.3934 242.158 97.08 241.825 96.72C241.492 96.36 241.205 96.08 240.965 95.88C241.498 95.5734 242.058 95.1934 242.645 94.74C243.245 94.2734 243.832 93.7667 244.405 93.22C244.978 92.66 245.498 92.1 245.965 91.54C246.432 90.9667 246.805 90.4334 247.085 89.94H242.025V87.78H244.965V84.28H247.285V87.78H249.125L250.205 88.68C249.645 89.9334 248.918 91.16 248.025 92.36C248.372 92.6 248.745 92.8534 249.145 93.12C249.558 93.3734 249.952 93.6134 250.325 93.84C250.698 94.0534 251.005 94.2267 251.245 94.36C251.112 94.4934 250.952 94.68 250.765 94.92C250.592 95.1467 250.418 95.3867 250.245 95.64C250.085 95.88 249.958 96.0867 249.865 96.26C249.505 96.02 249.098 95.7467 248.645 95.44C248.192 95.12 247.745 94.8067 247.305 94.5V102.4H244.985Z" fill="#111111"/>
<path d="M235.829 101.12C234.989 101.12 234.209 100.913 233.489 100.5C232.769 100.087 232.202 99.5333 231.789 98.84L233.589 97.7C233.856 98.1133 234.169 98.4467 234.529 98.7C234.902 98.9533 235.336 99.08 235.829 99.08C236.576 99.08 237.136 98.86 237.509 98.42C237.896 97.9667 238.089 97.34 238.089 96.54C238.089 95.6733 237.922 95.0467 237.589 94.66C237.269 94.26 236.816 94.06 236.229 94.06C235.856 94.06 235.522 94.14 235.229 94.3C234.936 94.46 234.722 94.7 234.589 95.02H232.609V87H239.729V88.96H234.749V92.64C234.976 92.48 235.222 92.3533 235.489 92.26C235.756 92.1533 236.022 92.1 236.289 92.1C237.036 92.1 237.702 92.2667 238.289 92.6C238.889 92.9333 239.362 93.4267 239.709 94.08C240.069 94.7333 240.249 95.5533 240.249 96.54C240.249 97.9933 239.842 99.12 239.029 99.92C238.216 100.72 237.149 101.12 235.829 101.12Z" fill="#111111"/>
<path d="M221.737 95.72L220.297 94.44C220.63 93.8933 221.044 93.4333 221.537 93.06C222.044 92.6867 222.637 92.5 223.317 92.5C223.677 92.5 224.044 92.5667 224.417 92.7C224.804 92.8333 225.177 92.9867 225.537 93.16C225.897 93.3333 226.237 93.4867 226.557 93.62C226.89 93.7533 227.184 93.82 227.437 93.82C227.77 93.82 228.07 93.7067 228.337 93.48C228.604 93.24 228.844 92.9667 229.057 92.66L230.497 93.92C230.164 94.48 229.744 94.9467 229.237 95.32C228.744 95.68 228.15 95.86 227.457 95.86C227.084 95.86 226.71 95.7933 226.337 95.66C225.977 95.5267 225.624 95.38 225.277 95.22C224.93 95.0467 224.59 94.8933 224.257 94.76C223.937 94.6267 223.63 94.56 223.337 94.56C223.004 94.56 222.704 94.68 222.437 94.92C222.17 95.1467 221.937 95.4133 221.737 95.72Z" fill="#111111"/>
<path d="M214.834 101V89.72L212.394 91.32L211.254 89.5L215.334 86.98H216.974V101H214.834Z" fill="#111111"/>
<path d="M323.929 109.864C322.425 109.864 320.921 109.68 319.417 109.312C317.929 108.944 316.569 108.368 315.337 107.584C314.121 106.784 313.145 105.744 312.409 104.464C311.673 103.184 311.305 101.64 311.305 99.832C311.305 97.72 311.897 95.976 313.081 94.6C314.265 93.224 315.809 92.2 317.713 91.528C316.177 90.84 314.961 89.832 314.065 88.504C313.185 87.16 312.745 85.464 312.745 83.416C312.745 81.304 313.289 79.616 314.377 78.352C315.481 77.072 316.889 76.152 318.601 75.592C320.329 75.016 322.121 74.728 323.977 74.728C325.817 74.728 327.585 75.016 329.281 75.592C330.977 76.152 332.361 77.072 333.433 78.352C334.521 79.616 335.065 81.304 335.065 83.416C335.065 85.432 334.601 87.112 333.673 88.456C332.745 89.784 331.537 90.808 330.049 91.528C331.969 92.184 333.521 93.208 334.705 94.6C335.905 95.976 336.505 97.72 336.505 99.832C336.505 101.64 336.137 103.184 335.401 104.464C334.665 105.744 333.681 106.784 332.449 107.584C331.233 108.368 329.881 108.944 328.393 109.312C326.921 109.68 325.433 109.864 323.929 109.864ZM324.025 89.32C325.513 89.32 326.657 88.84 327.457 87.88C328.273 86.92 328.681 85.576 328.681 83.848C328.681 82.28 328.305 81.104 327.553 80.32C326.817 79.536 325.641 79.144 324.025 79.144C320.793 79.144 319.177 80.712 319.177 83.848C319.177 85.576 319.609 86.92 320.473 87.88C321.353 88.84 322.537 89.32 324.025 89.32ZM323.929 105.016C327.673 105.016 329.545 103.256 329.545 99.736C329.545 98.296 329.265 97.16 328.705 96.328C328.161 95.496 327.457 94.904 326.593 94.552C325.729 94.2 324.841 94.024 323.929 94.024C323.001 94.024 322.097 94.2 321.217 94.552C320.353 94.904 319.633 95.496 319.057 96.328C318.497 97.16 318.217 98.296 318.217 99.736C318.217 101.512 318.705 102.84 319.681 103.72C320.673 104.584 322.089 105.016 323.929 105.016Z" fill="#00B6B6"/>
<path d="M291.209 103.528H306.809V109H285.257C285.161 108.488 285.081 107.976 285.017 107.464C284.953 106.936 284.921 106.328 284.921 105.64C284.921 103.608 285.249 101.872 285.905 100.432C286.577 98.992 287.553 97.704 288.833 96.568C290.129 95.432 291.721 94.312 293.609 93.208C294.649 92.6 295.689 91.928 296.729 91.192C297.769 90.456 298.633 89.584 299.321 88.576C300.025 87.552 300.377 86.312 300.377 84.856C300.377 83.608 299.985 82.496 299.201 81.52C298.433 80.544 297.193 80.056 295.481 80.056C293.705 80.056 292.281 80.632 291.209 81.784C290.153 82.936 289.481 84.424 289.193 86.248L284.105 83.848C284.361 82.184 285.009 80.664 286.049 79.288C287.089 77.896 288.449 76.792 290.129 75.976C291.809 75.144 293.737 74.728 295.913 74.728C297.897 74.728 299.697 75.104 301.313 75.856C302.929 76.592 304.217 77.672 305.177 79.096C306.137 80.52 306.617 82.248 306.617 84.28C306.617 86.36 306.241 88.16 305.489 89.68C304.737 91.2 303.625 92.584 302.153 93.832C300.697 95.08 298.905 96.344 296.777 97.624C295.273 98.536 294.033 99.392 293.057 100.192C292.097 100.976 291.481 102.088 291.209 103.528Z" fill="#00B6B6"/>
<path d="M345.735 101.248C344.359 101.248 343.343 100.836 342.687 100.012C342.031 99.1801 341.703 98.0801 341.703 96.7121C341.703 95.1041 342.067 93.9401 342.795 93.2201C343.523 92.4921 344.503 92.1281 345.735 92.1281C346.959 92.1281 347.923 92.4921 348.627 93.2201C349.339 93.9401 349.695 95.1121 349.695 96.7361C349.695 97.6241 349.567 98.4081 349.311 99.0881C349.063 99.7601 348.647 100.288 348.063 100.672C347.487 101.056 346.711 101.248 345.735 101.248ZM345.711 109L354.879 92.2721H357.231L348.063 109H345.711ZM345.711 99.4481C346.111 99.4481 346.407 99.3241 346.599 99.0761C346.791 98.8281 346.915 98.5041 346.971 98.1041C347.027 97.6961 347.055 97.2561 347.055 96.7841C347.055 95.8321 346.959 95.1241 346.767 94.6601C346.583 94.1881 346.215 93.9521 345.663 93.9521C345.135 93.9521 344.771 94.1841 344.571 94.6481C344.371 95.1121 344.271 95.8001 344.271 96.7121C344.271 97.4641 344.359 98.1081 344.535 98.6441C344.711 99.1801 345.103 99.4481 345.711 99.4481ZM357.327 109.36C355.935 109.36 354.915 108.944 354.267 108.112C353.619 107.272 353.295 106.168 353.295 104.8C353.295 103.2 353.655 102.036 354.375 101.308C355.095 100.58 356.071 100.216 357.303 100.216C358.527 100.216 359.495 100.584 360.207 101.32C360.927 102.048 361.287 103.224 361.287 104.848C361.287 105.728 361.159 106.508 360.903 107.188C360.647 107.868 360.227 108.4 359.643 108.784C359.067 109.168 358.295 109.36 357.327 109.36ZM357.255 107.512C357.671 107.512 357.975 107.392 358.167 107.152C358.359 106.912 358.483 106.592 358.539 106.192C358.595 105.792 358.623 105.352 358.623 104.872C358.623 103.92 358.531 103.212 358.347 102.748C358.163 102.276 357.799 102.04 357.255 102.04C356.703 102.04 356.331 102.272 356.139 102.736C355.955 103.2 355.863 103.896 355.863 104.824C355.863 105.568 355.943 106.204 356.103 106.732C356.271 107.252 356.655 107.512 357.255 107.512Z" fill="#00B6B6"/>
<path d="M369.984 172.76V170.46H374.484V163.5H371.104V161.2H374.484V155.3H376.904V161.2H380.384V163.5H376.904V170.46H380.924V172.76H369.984ZM366.004 173.4V166.74C365.631 167.073 365.244 167.407 364.844 167.74C364.444 168.06 364.031 168.367 363.604 168.66C363.431 168.393 363.178 168.08 362.844 167.72C362.511 167.36 362.224 167.08 361.984 166.88C362.518 166.573 363.078 166.193 363.664 165.74C364.264 165.273 364.851 164.767 365.424 164.22C365.998 163.66 366.518 163.1 366.984 162.54C367.451 161.967 367.824 161.433 368.104 160.94H363.044V158.78H365.984V155.28H368.304V158.78H370.144L371.224 159.68C370.664 160.933 369.938 162.16 369.044 163.36C369.391 163.6 369.764 163.853 370.164 164.12C370.578 164.373 370.971 164.613 371.344 164.84C371.718 165.053 372.024 165.227 372.264 165.36C372.131 165.493 371.971 165.68 371.784 165.92C371.611 166.147 371.438 166.387 371.264 166.64C371.104 166.88 370.978 167.087 370.884 167.26C370.524 167.02 370.118 166.747 369.664 166.44C369.211 166.12 368.764 165.807 368.324 165.5V173.4H366.004Z" fill="#111111"/>
<path d="M356.804 172.2C355.737 172.2 354.904 171.933 354.304 171.4C353.704 170.867 353.277 170.067 353.024 169C352.784 167.933 352.664 166.6 352.664 165C352.664 163.4 352.784 162.067 353.024 161C353.277 159.92 353.704 159.113 354.304 158.58C354.904 158.047 355.737 157.78 356.804 157.78C357.871 157.78 358.697 158.047 359.284 158.58C359.884 159.113 360.304 159.92 360.544 161C360.797 162.067 360.924 163.4 360.924 165C360.924 166.6 360.797 167.933 360.544 169C360.304 170.067 359.884 170.867 359.284 171.4C358.697 171.933 357.871 172.2 356.804 172.2ZM356.804 170.16C357.297 170.16 357.684 170.007 357.964 169.7C358.257 169.38 358.471 168.847 358.604 168.1C358.737 167.353 358.804 166.32 358.804 165C358.804 163.667 358.737 162.627 358.604 161.88C358.471 161.133 358.257 160.607 357.964 160.3C357.684 159.98 357.297 159.82 356.804 159.82C356.311 159.82 355.917 159.98 355.624 160.3C355.331 160.607 355.117 161.133 354.984 161.88C354.864 162.627 354.804 163.667 354.804 165C354.804 166.32 354.864 167.353 354.984 168.1C355.117 168.847 355.331 169.38 355.624 169.7C355.917 170.007 356.311 170.16 356.804 170.16Z" fill="#111111"/>
<path d="M347.201 172V160.72L344.761 162.32L343.621 160.5L347.701 157.98H349.341V172H347.201Z" fill="#111111"/>
<path d="M333.928 166.72L332.488 165.44C332.822 164.893 333.235 164.433 333.728 164.06C334.235 163.687 334.828 163.5 335.508 163.5C335.868 163.5 336.235 163.567 336.608 163.7C336.995 163.833 337.368 163.987 337.728 164.16C338.088 164.333 338.428 164.487 338.748 164.62C339.082 164.753 339.375 164.82 339.628 164.82C339.962 164.82 340.262 164.707 340.528 164.48C340.795 164.24 341.035 163.967 341.248 163.66L342.688 164.92C342.355 165.48 341.935 165.947 341.428 166.32C340.935 166.68 340.342 166.86 339.648 166.86C339.275 166.86 338.902 166.793 338.528 166.66C338.168 166.527 337.815 166.38 337.468 166.22C337.122 166.047 336.782 165.893 336.448 165.76C336.128 165.627 335.822 165.56 335.528 165.56C335.195 165.56 334.895 165.68 334.628 165.92C334.362 166.147 334.128 166.413 333.928 166.72Z" fill="#111111"/>
<path d="M326.634 172.12C325.794 172.12 325.014 171.913 324.294 171.5C323.574 171.087 323.007 170.533 322.594 169.84L324.394 168.7C324.66 169.113 324.974 169.447 325.334 169.7C325.707 169.953 326.14 170.08 326.634 170.08C327.38 170.08 327.94 169.86 328.314 169.42C328.7 168.967 328.894 168.34 328.894 167.54C328.894 166.673 328.727 166.047 328.394 165.66C328.074 165.26 327.62 165.06 327.034 165.06C326.66 165.06 326.327 165.14 326.034 165.3C325.74 165.46 325.527 165.7 325.394 166.02H323.414V158H330.534V159.96H325.554V163.64C325.78 163.48 326.027 163.353 326.294 163.26C326.56 163.153 326.827 163.1 327.094 163.1C327.84 163.1 328.507 163.267 329.094 163.6C329.694 163.933 330.167 164.427 330.514 165.08C330.874 165.733 331.054 166.553 331.054 167.54C331.054 168.993 330.647 170.12 329.834 170.92C329.02 171.72 327.954 172.12 326.634 172.12Z" fill="#111111"/>
<path d="M434.062 173.424L446.399 146.544H456.527V169.296H460.559V173.952H456.527V180H450.239V173.952H434.399L434.062 173.424ZM442.607 169.296H450.527L450.743 149.976L445.342 163.344L442.607 169.296Z" fill="#00B6B6"/>
<path d="M418.733 180.72C417.165 180.72 415.621 180.432 414.101 179.856C412.581 179.28 411.205 178.344 409.973 177.048C408.757 175.736 407.781 174 407.045 171.84C406.325 169.68 405.965 167.024 405.965 163.872C405.965 160.128 406.589 156.904 407.837 154.2C409.101 151.48 410.829 149.392 413.021 147.936C415.229 146.464 417.741 145.728 420.557 145.728C422.813 145.728 424.549 145.952 425.765 146.4C426.997 146.832 427.997 147.424 428.765 148.176L426.413 152.784C425.773 152.08 424.917 151.6 423.845 151.344C422.773 151.088 421.789 150.96 420.893 150.96C419.229 150.96 417.781 151.456 416.549 152.448C415.333 153.44 414.373 154.712 413.669 156.264C412.965 157.8 412.557 159.392 412.445 161.04C412.429 161.376 412.413 161.688 412.397 161.976C412.397 162.264 412.397 162.544 412.397 162.816C413.261 161.152 414.477 159.944 416.045 159.192C417.629 158.44 419.293 158.064 421.037 158.064C423.197 158.064 425.021 158.544 426.509 159.504C428.013 160.448 429.149 161.72 429.917 163.32C430.685 164.92 431.069 166.688 431.069 168.624C431.069 171.088 430.549 173.224 429.509 175.032C428.485 176.84 427.045 178.24 425.189 179.232C423.349 180.224 421.197 180.72 418.733 180.72ZM419.069 175.776C420.589 175.776 421.893 175.2 422.981 174.048C424.085 172.88 424.637 171.264 424.637 169.2C424.637 167.328 424.229 165.824 423.413 164.688C422.597 163.536 421.325 162.96 419.597 162.96C418.541 162.96 417.525 163.224 416.549 163.752C415.589 164.264 414.789 164.952 414.149 165.816C413.525 166.68 413.181 167.632 413.117 168.672C413.117 169.936 413.349 171.112 413.813 172.2C414.293 173.272 414.973 174.136 415.853 174.792C416.749 175.448 417.821 175.776 419.069 175.776Z" fill="#00B6B6"/>
<path d="M467.735 172.248C466.359 172.248 465.343 171.836 464.687 171.012C464.031 170.18 463.703 169.08 463.703 167.712C463.703 166.104 464.067 164.94 464.795 164.22C465.523 163.492 466.503 163.128 467.735 163.128C468.959 163.128 469.923 163.492 470.627 164.22C471.339 164.94 471.695 166.112 471.695 167.736C471.695 168.624 471.567 169.408 471.311 170.088C471.063 170.76 470.647 171.288 470.063 171.672C469.487 172.056 468.711 172.248 467.735 172.248ZM467.711 180L476.879 163.272H479.231L470.063 180H467.711ZM467.711 170.448C468.111 170.448 468.407 170.324 468.599 170.076C468.791 169.828 468.915 169.504 468.971 169.104C469.027 168.696 469.055 168.256 469.055 167.784C469.055 166.832 468.959 166.124 468.767 165.66C468.583 165.188 468.215 164.952 467.663 164.952C467.135 164.952 466.771 165.184 466.571 165.648C466.371 166.112 466.271 166.8 466.271 167.712C466.271 168.464 466.359 169.108 466.535 169.644C466.711 170.18 467.103 170.448 467.711 170.448ZM479.327 180.36C477.935 180.36 476.915 179.944 476.267 179.112C475.619 178.272 475.295 177.168 475.295 175.8C475.295 174.2 475.655 173.036 476.375 172.308C477.095 171.58 478.071 171.216 479.303 171.216C480.527 171.216 481.495 171.584 482.207 172.32C482.927 173.048 483.287 174.224 483.287 175.848C483.287 176.728 483.159 177.508 482.903 178.188C482.647 178.868 482.227 179.4 481.643 179.784C481.067 180.168 480.295 180.36 479.327 180.36ZM479.255 178.512C479.671 178.512 479.975 178.392 480.167 178.152C480.359 177.912 480.483 177.592 480.539 177.192C480.595 176.792 480.623 176.352 480.623 175.872C480.623 174.92 480.531 174.212 480.347 173.748C480.163 173.276 479.799 173.04 479.255 173.04C478.703 173.04 478.331 173.272 478.139 173.736C477.955 174.2 477.863 174.896 477.863 175.824C477.863 176.568 477.943 177.204 478.103 177.732C478.271 178.252 478.655 178.512 479.255 178.512Z" fill="#00B6B6"/>
<path d="M179.59 246.4V244.04H186.75V229.8H189.35V235.72H196.37V238.16H189.35V244.04H197.63V246.4H179.59Z" fill="#111111"/>
<path d="M166.093 247.2C166.026 246.987 165.919 246.74 165.773 246.46C165.639 246.193 165.486 245.927 165.313 245.66C165.153 245.393 164.993 245.18 164.833 245.02C166.419 244.647 167.746 244.167 168.813 243.58C169.893 242.98 170.759 242.207 171.413 241.26C172.066 240.3 172.533 239.1 172.813 237.66C173.106 236.207 173.253 234.44 173.253 232.36V229.96H175.813V232.36C175.813 234.32 175.673 236.04 175.393 237.52C175.126 239 174.713 240.293 174.153 241.4C174.593 241.707 175.059 242.067 175.553 242.48C176.046 242.893 176.513 243.3 176.953 243.7C177.393 244.087 177.739 244.427 177.993 244.72C177.833 244.853 177.626 245.04 177.373 245.28C177.133 245.52 176.899 245.767 176.673 246.02C176.459 246.273 176.293 246.5 176.173 246.7C175.946 246.393 175.646 246.047 175.273 245.66C174.899 245.26 174.499 244.86 174.073 244.46C173.659 244.047 173.259 243.68 172.873 243.36C172.073 244.293 171.106 245.067 169.973 245.68C168.853 246.293 167.559 246.8 166.093 247.2ZM160.073 245.32L159.133 242.98C159.399 242.913 159.746 242.82 160.173 242.7C160.599 242.567 161.073 242.413 161.593 242.24V230H164.133V241.34C165.093 240.993 165.999 240.647 166.853 240.3C167.719 239.94 168.379 239.633 168.833 239.38V241.86C168.339 242.127 167.719 242.427 166.973 242.76C166.226 243.08 165.433 243.407 164.593 243.74C163.766 244.06 162.953 244.36 162.153 244.64C161.366 244.92 160.673 245.147 160.073 245.32ZM169.733 236.66C169.426 236.247 169.026 235.793 168.533 235.3C168.053 234.807 167.546 234.333 167.013 233.88C166.479 233.427 165.986 233.06 165.533 232.78L167.193 231.04C167.659 231.347 168.166 231.727 168.713 232.18C169.273 232.633 169.806 233.1 170.313 233.58C170.833 234.047 171.253 234.473 171.573 234.86C171.386 234.98 171.166 235.16 170.913 235.4C170.673 235.627 170.446 235.86 170.233 236.1C170.019 236.327 169.853 236.513 169.733 236.66Z" fill="#111111"/>
<path d="M146.793 246.76V244.46H151.293V237.5H147.913V235.2H151.293V229.3H153.713V235.2H157.193V237.5H153.713V244.46H157.733V246.76H146.793ZM142.813 247.4V240.74C142.44 241.073 142.053 241.407 141.653 241.74C141.253 242.06 140.84 242.367 140.413 242.66C140.24 242.393 139.986 242.08 139.653 241.72C139.32 241.36 139.033 241.08 138.793 240.88C139.326 240.573 139.886 240.193 140.473 239.74C141.073 239.273 141.66 238.767 142.233 238.22C142.806 237.66 143.326 237.1 143.793 236.54C144.26 235.967 144.633 235.433 144.913 234.94H139.853V232.78H142.793V229.28H145.113V232.78H146.953L148.033 233.68C147.473 234.933 146.746 236.16 145.853 237.36C146.2 237.6 146.573 237.853 146.973 238.12C147.386 238.373 147.78 238.613 148.153 238.84C148.526 239.053 148.833 239.227 149.073 239.36C148.94 239.493 148.78 239.68 148.593 239.92C148.42 240.147 148.246 240.387 148.073 240.64C147.913 240.88 147.786 241.087 147.693 241.26C147.333 241.02 146.926 240.747 146.473 240.44C146.02 240.12 145.573 239.807 145.133 239.5V247.4H142.813Z" fill="#111111"/>
<path d="M133.613 246.2C132.546 246.2 131.713 245.933 131.113 245.4C130.513 244.867 130.086 244.067 129.833 243C129.593 241.933 129.473 240.6 129.473 239C129.473 237.4 129.593 236.067 129.833 235C130.086 233.92 130.513 233.113 131.113 232.58C131.713 232.047 132.546 231.78 133.613 231.78C134.679 231.78 135.506 232.047 136.093 232.58C136.693 233.113 137.113 233.92 137.353 235C137.606 236.067 137.733 237.4 137.733 239C137.733 240.6 137.606 241.933 137.353 243C137.113 244.067 136.693 244.867 136.093 245.4C135.506 245.933 134.679 246.2 133.613 246.2ZM133.613 244.16C134.106 244.16 134.493 244.007 134.773 243.7C135.066 243.38 135.279 242.847 135.413 242.1C135.546 241.353 135.613 240.32 135.613 239C135.613 237.667 135.546 236.627 135.413 235.88C135.279 235.133 135.066 234.607 134.773 234.3C134.493 233.98 134.106 233.82 133.613 233.82C133.119 233.82 132.726 233.98 132.433 234.3C132.139 234.607 131.926 235.133 131.793 235.88C131.673 236.627 131.613 237.667 131.613 239C131.613 240.32 131.673 241.353 131.793 242.1C131.926 242.847 132.139 243.38 132.433 243.7C132.726 244.007 133.119 244.16 133.613 244.16Z" fill="#111111"/>
<path d="M124.01 246V234.72L121.57 236.32L120.43 234.5L124.51 231.98H126.15V246H124.01Z" fill="#111111"/>
<path d="M235.022 254.864C233.518 254.864 232.014 254.68 230.51 254.312C229.022 253.944 227.662 253.368 226.43 252.584C225.214 251.784 224.238 250.744 223.502 249.464C222.766 248.184 222.398 246.64 222.398 244.832C222.398 242.72 222.99 240.976 224.174 239.6C225.358 238.224 226.902 237.2 228.806 236.528C227.27 235.84 226.054 234.832 225.158 233.504C224.278 232.16 223.838 230.464 223.838 228.416C223.838 226.304 224.382 224.616 225.47 223.352C226.574 222.072 227.982 221.152 229.694 220.592C231.422 220.016 233.214 219.728 235.07 219.728C236.91 219.728 238.678 220.016 240.374 220.592C242.07 221.152 243.454 222.072 244.526 223.352C245.614 224.616 246.158 226.304 246.158 228.416C246.158 230.432 245.694 232.112 244.766 233.456C243.838 234.784 242.63 235.808 241.142 236.528C243.062 237.184 244.614 238.208 245.798 239.6C246.998 240.976 247.598 242.72 247.598 244.832C247.598 246.64 247.23 248.184 246.494 249.464C245.758 250.744 244.774 251.784 243.542 252.584C242.326 253.368 240.974 253.944 239.486 254.312C238.014 254.68 236.526 254.864 235.022 254.864ZM235.118 234.32C236.606 234.32 237.75 233.84 238.55 232.88C239.366 231.92 239.774 230.576 239.774 228.848C239.774 227.28 239.398 226.104 238.646 225.32C237.91 224.536 236.734 224.144 235.118 224.144C231.886 224.144 230.27 225.712 230.27 228.848C230.27 230.576 230.702 231.92 231.566 232.88C232.446 233.84 233.63 234.32 235.118 234.32ZM235.022 250.016C238.766 250.016 240.638 248.256 240.638 244.736C240.638 243.296 240.358 242.16 239.798 241.328C239.254 240.496 238.55 239.904 237.686 239.552C236.822 239.2 235.934 239.024 235.022 239.024C234.094 239.024 233.19 239.2 232.31 239.552C231.446 239.904 230.726 240.496 230.15 241.328C229.59 242.16 229.31 243.296 229.31 244.736C229.31 246.512 229.798 247.84 230.774 248.72C231.766 249.584 233.182 250.016 235.022 250.016Z" fill="#00B6B6"/>
<path d="M270.735 246.248C269.359 246.248 268.343 245.836 267.687 245.012C267.031 244.18 266.703 243.08 266.703 241.712C266.703 240.104 267.067 238.94 267.795 238.22C268.523 237.492 269.503 237.128 270.735 237.128C271.959 237.128 272.923 237.492 273.627 238.22C274.339 238.94 274.695 240.112 274.695 241.736C274.695 242.624 274.567 243.408 274.311 244.088C274.063 244.76 273.647 245.288 273.063 245.672C272.487 246.056 271.711 246.248 270.735 246.248ZM270.711 254L279.879 237.272H282.231L273.063 254H270.711ZM270.711 244.448C271.111 244.448 271.407 244.324 271.599 244.076C271.791 243.828 271.915 243.504 271.971 243.104C272.027 242.696 272.055 242.256 272.055 241.784C272.055 240.832 271.959 240.124 271.767 239.66C271.583 239.188 271.215 238.952 270.663 238.952C270.135 238.952 269.771 239.184 269.571 239.648C269.371 240.112 269.271 240.8 269.271 241.712C269.271 242.464 269.359 243.108 269.535 243.644C269.711 244.18 270.103 244.448 270.711 244.448ZM282.327 254.36C280.935 254.36 279.915 253.944 279.267 253.112C278.619 252.272 278.295 251.168 278.295 249.8C278.295 248.2 278.655 247.036 279.375 246.308C280.095 245.58 281.071 245.216 282.303 245.216C283.527 245.216 284.495 245.584 285.207 246.32C285.927 247.048 286.287 248.224 286.287 249.848C286.287 250.728 286.159 251.508 285.903 252.188C285.647 252.868 285.227 253.4 284.643 253.784C284.067 254.168 283.295 254.36 282.327 254.36ZM282.255 252.512C282.671 252.512 282.975 252.392 283.167 252.152C283.359 251.912 283.483 251.592 283.539 251.192C283.595 250.792 283.623 250.352 283.623 249.872C283.623 248.92 283.531 248.212 283.347 247.748C283.163 247.276 282.799 247.04 282.255 247.04C281.703 247.04 281.331 247.272 281.139 247.736C280.955 248.2 280.863 248.896 280.863 249.824C280.863 250.568 280.943 251.204 281.103 251.732C281.271 252.252 281.655 252.512 282.255 252.512Z" fill="#00B6B6"/>
<path d="M64 61H166V121H64V61Z" fill="#00B6B6"/>
<path d="M64 136H296V196H64V136Z" fill="#54D2D2"/>
<path d="M64 211H93V271H64V211Z" fill="#6EE6E6"/>
<path d="M63 290V42C63 41.4477 63.4477 41 64 41C64.5523 41 65 41.4477 65 42V290C65 290.552 64.5523 291 64 291C63.4477 291 63 290.552 63 290Z" fill="#DCDCDC"/>
<rect x="127" y="307" width="296" height="49" rx="5" fill="url(#paint0_linear_1095_5896)" fill-opacity="0.3"/>
<path d="M352.285 342.672C352.182 342.467 352.035 342.217 351.845 341.924C351.669 341.631 351.478 341.345 351.273 341.066C351.082 341.286 350.884 341.521 350.679 341.77C350.473 342.019 350.312 342.225 350.195 342.386C349.931 342.137 349.623 341.873 349.271 341.594C348.919 341.33 348.537 341.059 348.127 340.78C347.408 341.279 346.587 341.675 345.663 341.968C344.753 342.276 343.741 342.503 342.627 342.65C342.583 342.474 342.509 342.239 342.407 341.946C342.319 341.667 342.223 341.389 342.121 341.11C342.018 340.846 341.915 340.641 341.813 340.494C343.47 340.362 344.849 340.003 345.949 339.416C344.761 338.727 343.727 338.199 342.847 337.832C343.008 337.627 343.191 337.37 343.397 337.062C343.602 336.739 343.815 336.395 344.035 336.028H341.901V333.938H345.245C345.729 333.087 346.073 332.398 346.279 331.87V329.714C345.824 330.227 345.318 330.741 344.761 331.254C344.203 331.767 343.683 332.2 343.199 332.552C343.081 332.376 342.92 332.178 342.715 331.958C342.524 331.738 342.326 331.54 342.121 331.364C341.93 331.173 341.769 331.034 341.637 330.946C341.959 330.755 342.326 330.506 342.737 330.198C343.162 329.875 343.587 329.523 344.013 329.142C344.438 328.761 344.827 328.394 345.179 328.042H342.121V326.04H343.749C343.529 325.615 343.279 325.189 343.001 324.764C342.722 324.324 342.458 323.965 342.209 323.686L343.925 322.718C344.13 322.953 344.35 323.239 344.585 323.576C344.819 323.913 345.039 324.251 345.245 324.588C345.465 324.911 345.633 325.197 345.751 325.446C345.399 325.593 345.017 325.791 344.607 326.04H346.279V322.542H348.479V326.04H350.041C349.85 325.923 349.659 325.82 349.469 325.732C349.278 325.644 349.109 325.571 348.963 325.512C349.285 325.072 349.586 324.595 349.865 324.082C350.158 323.569 350.385 323.099 350.547 322.674L352.527 323.488C352.351 323.869 352.123 324.295 351.845 324.764C351.581 325.233 351.317 325.659 351.053 326.04H352.571V328.042H349.579C349.96 328.467 350.385 328.9 350.855 329.34C351.339 329.765 351.786 330.11 352.197 330.374C351.977 330.55 351.72 330.792 351.427 331.1C351.133 331.393 350.891 331.672 350.701 331.936C350.319 331.643 349.938 331.313 349.557 330.946C349.175 330.565 348.816 330.169 348.479 329.758V332.046H346.851L348.523 332.596C348.435 332.787 348.332 332.999 348.215 333.234C348.097 333.454 347.973 333.689 347.841 333.938H352.813V336.028H351.383C351.06 337.245 350.554 338.287 349.865 339.152C350.187 339.343 350.488 339.541 350.767 339.746C351.06 339.951 351.331 340.157 351.581 340.362C352.49 339.981 353.297 339.511 354.001 338.954C354.719 338.397 355.335 337.773 355.849 337.084C355.438 336.336 355.086 335.551 354.793 334.73C354.499 333.909 354.257 333.065 354.067 332.2C353.92 332.479 353.766 332.743 353.605 332.992C353.458 333.227 353.304 333.461 353.143 333.696C352.908 333.491 352.585 333.278 352.175 333.058C351.779 332.823 351.397 332.647 351.031 332.53C351.529 331.914 351.977 331.203 352.373 330.396C352.769 329.589 353.113 328.739 353.407 327.844C353.715 326.935 353.964 326.04 354.155 325.16C354.345 324.265 354.485 323.429 354.573 322.652L356.993 323.004C356.787 324.28 356.509 325.571 356.157 326.876H362.119V329.076H360.821C360.703 330.66 360.469 332.119 360.117 333.454C359.779 334.774 359.303 335.977 358.687 337.062C359.743 338.397 361.07 339.555 362.669 340.538C362.478 340.729 362.265 340.956 362.031 341.22C361.796 341.484 361.576 341.741 361.371 341.99C361.18 342.239 361.055 342.43 360.997 342.562C360.249 342.078 359.559 341.55 358.929 340.978C358.313 340.391 357.748 339.783 357.235 339.152C355.959 340.604 354.309 341.777 352.285 342.672ZM357.213 334.686C357.565 333.835 357.836 332.941 358.027 332.002C358.217 331.049 358.335 330.073 358.379 329.076H355.805C355.878 330.117 356.032 331.107 356.267 332.046C356.501 332.985 356.817 333.865 357.213 334.686ZM347.775 337.942C348.215 337.385 348.567 336.747 348.831 336.028H346.653C346.521 336.233 346.396 336.431 346.279 336.622C346.176 336.798 346.081 336.959 345.993 337.106C346.579 337.341 347.173 337.619 347.775 337.942Z" fill="#111111"/>
<path d="M328.791 342.826V338.448C328.131 339.035 327.383 339.592 326.547 340.12C325.725 340.648 324.875 341.125 323.995 341.55C323.129 341.975 322.286 342.327 321.465 342.606C321.391 342.43 321.281 342.21 321.135 341.946C320.988 341.697 320.827 341.44 320.651 341.176C320.475 340.927 320.306 340.729 320.145 340.582C320.863 340.362 321.633 340.069 322.455 339.702C323.276 339.321 324.083 338.903 324.875 338.448C325.681 337.979 326.4 337.509 327.031 337.04H320.189V335.038H328.791V334.048H322.477V332.134H328.791V331.166H321.487V329.208H325.491C325.388 328.959 325.285 328.717 325.183 328.482C325.08 328.233 324.97 328.013 324.853 327.822H320.189V325.82H323.313C323.166 325.439 322.99 325.021 322.785 324.566C322.594 324.111 322.396 323.745 322.191 323.466L324.413 322.564C324.559 322.784 324.713 323.07 324.875 323.422C325.051 323.759 325.212 324.097 325.359 324.434C325.505 324.757 325.623 325.028 325.711 325.248L324.325 325.82H326.767V322.586H329.165V325.82H330.683V322.586H333.103V325.82H335.699L333.917 325.204C334.063 324.999 334.225 324.735 334.401 324.412C334.591 324.075 334.767 323.737 334.929 323.4C335.105 323.048 335.229 322.769 335.303 322.564L337.723 323.268C337.591 323.517 337.429 323.811 337.239 324.148C337.048 324.485 336.857 324.808 336.667 325.116C336.491 325.409 336.344 325.644 336.227 325.82H339.791V327.822H335.105C334.914 328.321 334.723 328.783 334.533 329.208H338.295V331.166H331.233V332.134H337.415V334.048H331.233V335.038H339.813V337.04H332.949C333.579 337.509 334.291 337.979 335.083 338.448C335.875 338.903 336.681 339.313 337.503 339.68C338.324 340.047 339.094 340.34 339.813 340.56C339.666 340.707 339.505 340.905 339.329 341.154C339.153 341.418 338.991 341.682 338.845 341.946C338.698 342.21 338.588 342.43 338.515 342.606C337.708 342.327 336.872 341.975 336.007 341.55C335.141 341.139 334.298 340.67 333.477 340.142C332.655 339.614 331.907 339.057 331.233 338.47V342.826H328.791ZM328.241 329.208H331.739C331.841 329.003 331.944 328.783 332.047 328.548C332.149 328.299 332.252 328.057 332.355 327.822H327.647C327.764 328.057 327.874 328.299 327.977 328.548C328.079 328.797 328.167 329.017 328.241 329.208Z" fill="#111111"/>
<path d="M298.541 342.012V339.68H301.841V332.222H304.459V339.68H307.099V328.416H309.739V333.102H314.887V335.522H309.739V339.68H317.417V342.012H298.541ZM298.827 332.31C298.681 331.987 298.446 331.606 298.123 331.166C297.801 330.726 297.493 330.352 297.199 330.044C298.109 329.692 299.047 329.223 300.015 328.636C300.998 328.049 301.937 327.397 302.831 326.678C303.726 325.959 304.533 325.226 305.251 324.478C305.97 323.73 306.527 323.026 306.923 322.366L309.387 322.718C309.886 323.437 310.495 324.148 311.213 324.852C311.947 325.541 312.739 326.201 313.589 326.832C314.44 327.448 315.313 328.005 316.207 328.504C317.102 328.988 317.967 329.384 318.803 329.692C318.481 330.015 318.151 330.425 317.813 330.924C317.476 331.423 317.227 331.833 317.065 332.156C315.921 331.628 314.785 330.99 313.655 330.242C312.541 329.494 311.507 328.687 310.553 327.822C309.6 326.942 308.786 326.055 308.111 325.16C307.671 325.761 307.077 326.407 306.329 327.096C305.596 327.785 304.789 328.467 303.909 329.142C303.029 329.802 302.142 330.411 301.247 330.968C300.367 331.525 299.561 331.973 298.827 332.31Z" fill="#111111"/>
<path d="M277.023 334.07C277.038 333.865 277.045 333.586 277.045 333.234C277.045 332.882 277.045 332.53 277.045 332.178C277.045 331.826 277.038 331.547 277.023 331.342C277.302 331.357 277.793 331.371 278.497 331.386C279.216 331.401 280.067 331.415 281.049 331.43C282.047 331.445 283.11 331.459 284.239 331.474C285.369 331.474 286.498 331.474 287.627 331.474C288.757 331.474 289.82 331.467 290.817 331.452C291.829 331.437 292.702 331.423 293.435 331.408C294.169 331.393 294.689 331.371 294.997 331.342C294.983 331.533 294.968 331.804 294.953 332.156C294.953 332.508 294.953 332.867 294.953 333.234C294.968 333.586 294.975 333.857 294.975 334.048C294.609 334.033 294.066 334.019 293.347 334.004C292.643 333.989 291.815 333.975 290.861 333.96C289.923 333.945 288.918 333.938 287.847 333.938C286.791 333.938 285.721 333.938 284.635 333.938C283.55 333.938 282.516 333.945 281.533 333.96C280.551 333.975 279.663 333.989 278.871 334.004C278.094 334.019 277.478 334.041 277.023 334.07Z" fill="#111111"/>
<path d="M261.161 342.034C261.058 341.829 260.904 341.587 260.699 341.308C260.508 341.029 260.295 340.751 260.061 340.472C259.826 340.193 259.606 339.966 259.401 339.79C260.911 339.159 262.158 338.404 263.141 337.524C264.123 336.644 264.857 335.573 265.341 334.312C265.825 333.036 266.067 331.518 266.067 329.758V328.746C266.067 328.423 266.059 328.005 266.045 327.492C266.045 326.979 266.037 326.451 266.023 325.908C266.023 325.365 266.015 324.874 266.001 324.434C266.001 323.994 265.993 323.679 265.979 323.488H268.817V329.758C268.817 331.811 268.545 333.601 268.003 335.126C267.46 336.637 266.624 337.957 265.495 339.086C264.365 340.201 262.921 341.183 261.161 342.034ZM259.335 334.422C259.349 334.29 259.349 333.967 259.335 333.454C259.335 332.926 259.327 332.288 259.313 331.54C259.313 330.792 259.305 330.007 259.291 329.186C259.276 328.365 259.254 327.58 259.225 326.832C259.21 326.084 259.195 325.453 259.181 324.94C259.166 324.412 259.151 324.082 259.137 323.95H261.865C261.865 324.111 261.865 324.449 261.865 324.962C261.865 325.475 261.865 326.099 261.865 326.832C261.879 327.551 261.894 328.306 261.909 329.098C261.923 329.89 261.938 330.66 261.953 331.408C261.982 332.141 262.004 332.779 262.019 333.322C262.048 333.85 262.07 334.209 262.085 334.4L259.335 334.422Z" fill="#111111"/>
<path d="M239.492 341.682V323.95H242.176V330.616L243.166 329.208C243.518 329.457 243.98 329.773 244.552 330.154C245.139 330.521 245.762 330.902 246.422 331.298C247.082 331.679 247.72 332.031 248.336 332.354C248.952 332.677 249.473 332.919 249.898 333.08C249.722 333.241 249.517 333.476 249.282 333.784C249.062 334.077 248.857 334.385 248.666 334.708C248.476 335.016 248.322 335.28 248.204 335.5C247.852 335.309 247.412 335.067 246.884 334.774C246.371 334.466 245.821 334.129 245.234 333.762C244.662 333.395 244.105 333.036 243.562 332.684C243.034 332.317 242.572 331.987 242.176 331.694V341.682H239.492Z" fill="#111111"/>
<path d="M214.016 340.384L212.52 337.678C213.561 337.458 214.654 337.099 215.798 336.6C216.957 336.087 218.115 335.493 219.274 334.818C220.433 334.129 221.533 333.395 222.574 332.618C223.615 331.826 224.554 331.027 225.39 330.22C226.241 329.413 226.93 328.643 227.458 327.91C227.517 328.159 227.612 328.467 227.744 328.834C227.891 329.201 228.045 329.56 228.206 329.912C228.367 330.249 228.507 330.513 228.624 330.704C227.905 331.628 227.003 332.567 225.918 333.52C224.847 334.459 223.659 335.368 222.354 336.248C221.049 337.113 219.685 337.905 218.262 338.624C216.839 339.343 215.424 339.929 214.016 340.384ZM216.37 330.682C216.179 330.477 215.908 330.235 215.556 329.956C215.219 329.677 214.837 329.384 214.412 329.076C214.001 328.768 213.598 328.489 213.202 328.24C212.806 327.976 212.461 327.778 212.168 327.646L213.928 325.424C214.221 325.585 214.566 325.791 214.962 326.04C215.358 326.289 215.761 326.561 216.172 326.854C216.597 327.147 216.993 327.441 217.36 327.734C217.727 328.013 218.02 328.262 218.24 328.482L216.37 330.682Z" fill="#111111"/>
<path d="M189.133 337.854V335.104C189.617 335.148 190.526 335.177 191.861 335.192C193.195 335.192 194.809 335.199 196.701 335.214V329.45C195.879 329.45 195.087 329.457 194.325 329.472C193.577 329.487 192.931 329.501 192.389 329.516C191.846 329.516 191.472 329.531 191.267 329.56V326.81C191.692 326.854 192.506 326.883 193.709 326.898C194.926 326.913 196.4 326.92 198.131 326.92C199.803 326.92 201.24 326.913 202.443 326.898C203.66 326.883 204.467 326.854 204.863 326.81V329.56C204.54 329.531 203.909 329.509 202.971 329.494C202.047 329.479 200.873 329.465 199.451 329.45V335.192C200.653 335.192 201.753 335.192 202.751 335.192C203.763 335.177 204.606 335.163 205.281 335.148C205.97 335.133 206.439 335.119 206.689 335.104V337.854C206.219 337.81 205.222 337.781 203.697 337.766C202.186 337.751 200.294 337.744 198.021 337.744C197.067 337.744 196.114 337.744 195.161 337.744C194.207 337.744 193.313 337.751 192.477 337.766C191.655 337.781 190.951 337.795 190.365 337.81C189.778 337.81 189.367 337.825 189.133 337.854Z" fill="#111111"/>
<path d="M274.999 373L287.124 355.75H262.875L274.999 373Z" fill="url(#paint1_linear_1095_5896)" fill-opacity="0.3"/>
<path d="M310.983 436.02C308.761 436.02 306.574 435.612 304.421 434.796C302.267 433.98 300.318 432.654 298.573 430.818C296.85 428.959 295.467 426.5 294.425 423.44C293.405 420.38 292.895 416.617 292.895 412.152C292.895 406.848 293.779 402.281 295.547 398.45C297.337 394.597 299.785 391.639 302.891 389.576C306.019 387.491 309.577 386.448 313.567 386.448C316.763 386.448 319.222 386.765 320.945 387.4C322.69 388.012 324.107 388.851 325.195 389.916L321.863 396.444C320.956 395.447 319.743 394.767 318.225 394.404C316.706 394.041 315.312 393.86 314.043 393.86C311.685 393.86 309.634 394.563 307.889 395.968C306.166 397.373 304.806 399.175 303.809 401.374C302.811 403.55 302.233 405.805 302.075 408.14C302.052 408.616 302.029 409.058 302.007 409.466C302.007 409.874 302.007 410.271 302.007 410.656C303.231 408.299 304.953 406.587 307.175 405.522C309.419 404.457 311.776 403.924 314.247 403.924C317.307 403.924 319.891 404.604 321.999 405.964C324.129 407.301 325.739 409.103 326.827 411.37C327.915 413.637 328.459 416.141 328.459 418.884C328.459 422.375 327.722 425.401 326.249 427.962C324.798 430.523 322.758 432.507 320.129 433.912C317.522 435.317 314.473 436.02 310.983 436.02ZM311.459 429.016C313.612 429.016 315.459 428.2 317.001 426.568C318.565 424.913 319.347 422.624 319.347 419.7C319.347 417.048 318.769 414.917 317.613 413.308C316.457 411.676 314.655 410.86 312.207 410.86C310.711 410.86 309.271 411.234 307.889 411.982C306.529 412.707 305.395 413.682 304.489 414.906C303.605 416.13 303.117 417.479 303.027 418.952C303.027 420.743 303.355 422.409 304.013 423.95C304.693 425.469 305.656 426.693 306.903 427.622C308.172 428.551 309.691 429.016 311.459 429.016Z" fill="#00B6B6"/>
<path d="M280.926 435V424.868H288.882V435H280.926Z" fill="#00B6B6"/>
<path d="M259.717 436.02C257.496 436.02 255.308 435.612 253.155 434.796C251.002 433.98 249.052 432.654 247.307 430.818C245.584 428.959 244.202 426.5 243.159 423.44C242.139 420.38 241.629 416.617 241.629 412.152C241.629 406.848 242.513 402.281 244.281 398.45C246.072 394.597 248.52 391.639 251.625 389.576C254.753 387.491 258.312 386.448 262.301 386.448C265.497 386.448 267.956 386.765 269.679 387.4C271.424 388.012 272.841 388.851 273.929 389.916L270.597 396.444C269.69 395.447 268.478 394.767 266.959 394.404C265.44 394.041 264.046 393.86 262.777 393.86C260.42 393.86 258.368 394.563 256.623 395.968C254.9 397.373 253.54 399.175 252.543 401.374C251.546 403.55 250.968 405.805 250.809 408.14C250.786 408.616 250.764 409.058 250.741 409.466C250.741 409.874 250.741 410.271 250.741 410.656C251.965 408.299 253.688 406.587 255.909 405.522C258.153 404.457 260.51 403.924 262.981 403.924C266.041 403.924 268.625 404.604 270.733 405.964C272.864 407.301 274.473 409.103 275.561 411.37C276.649 413.637 277.193 416.141 277.193 418.884C277.193 422.375 276.456 425.401 274.983 427.962C273.532 430.523 271.492 432.507 268.863 433.912C266.256 435.317 263.208 436.02 259.717 436.02ZM260.193 429.016C262.346 429.016 264.194 428.2 265.735 426.568C267.299 424.913 268.081 422.624 268.081 419.7C268.081 417.048 267.503 414.917 266.347 413.308C265.191 411.676 263.389 410.86 260.941 410.86C259.445 410.86 258.006 411.234 256.623 411.982C255.263 412.707 254.13 413.682 253.223 414.906C252.339 416.13 251.852 417.479 251.761 418.952C251.761 420.743 252.09 422.409 252.747 423.95C253.427 425.469 254.39 426.693 255.637 427.622C256.906 428.551 258.425 429.016 260.193 429.016Z" fill="#00B6B6"/>
<path d="M352.452 434.482V429.997H361.227V416.425H354.636V411.94H361.227V400.435H365.946V411.94H372.732V416.425H365.946V429.997H373.785V434.482H352.452ZM344.691 435.73V422.743C343.963 423.393 343.209 424.043 342.429 424.693C341.649 425.317 340.843 425.915 340.011 426.487C339.673 425.967 339.179 425.356 338.529 424.654C337.879 423.952 337.32 423.406 336.852 423.016C337.892 422.418 338.984 421.677 340.128 420.793C341.298 419.883 342.442 418.895 343.56 417.829C344.678 416.737 345.692 415.645 346.602 414.553C347.512 413.435 348.24 412.395 348.786 411.433H338.919V407.221H344.652V400.396H349.176V407.221H352.764L354.87 408.976C353.778 411.42 352.361 413.812 350.619 416.152C351.295 416.62 352.023 417.114 352.803 417.634C353.609 418.128 354.376 418.596 355.104 419.038C355.832 419.454 356.43 419.792 356.898 420.052C356.638 420.312 356.326 420.676 355.962 421.144C355.624 421.586 355.286 422.054 354.948 422.548C354.636 423.016 354.389 423.419 354.207 423.757C353.505 423.289 352.712 422.756 351.828 422.158C350.944 421.534 350.073 420.923 349.215 420.325V435.73H344.691Z" fill="#00B6B6"/>
<path d="M221.771 433.943C221.732 433.46 221.636 432.88 221.481 432.203C221.326 431.546 221.162 431.014 220.988 430.608H224.033C224.555 430.608 224.98 430.54 225.309 430.405C225.657 430.25 225.928 429.97 226.121 429.564C226.334 429.139 226.508 428.51 226.643 427.679C226.798 426.732 226.914 425.311 226.991 423.416C227.068 421.502 227.107 419.298 227.107 416.804V415.354H218.9C218.475 416.301 218.001 417.22 217.479 418.109C216.976 418.998 216.445 419.81 215.884 420.545C215.633 420.352 215.323 420.149 214.956 419.936C214.589 419.723 214.221 419.53 213.854 419.356C213.506 419.163 213.216 419.037 212.984 418.979C213.139 418.786 213.284 418.592 213.419 418.399C213.574 418.206 213.719 418.003 213.854 417.79H211.505V424.634C212.182 424.421 212.82 424.218 213.419 424.025C214.038 423.812 214.56 423.619 214.985 423.445V426.664C214.366 426.915 213.632 427.196 212.781 427.505C211.95 427.814 211.07 428.124 210.142 428.433C209.233 428.742 208.354 429.032 207.503 429.303C206.672 429.574 205.947 429.796 205.328 429.97L204.371 426.548C204.816 426.451 205.376 426.316 206.053 426.142C206.749 425.968 207.484 425.784 208.257 425.591V417.79H204.69V414.6H208.257V408.539H211.505V414.6H214.463V416.804C215.004 415.876 215.507 414.89 215.971 413.846C216.435 412.802 216.831 411.768 217.16 410.743C217.508 409.718 217.769 408.781 217.943 407.93L221.22 408.568C220.93 409.844 220.553 411.11 220.089 412.367H230.326V416.804C230.326 419.182 230.278 421.328 230.181 423.242C230.104 425.137 229.997 426.741 229.862 428.056C229.707 429.583 229.388 430.782 228.905 431.652C228.422 432.503 227.774 433.092 226.962 433.421C226.169 433.769 225.212 433.943 224.091 433.943H221.771ZM215.855 429.825L214.782 426.896C215.845 426.606 217.025 426.248 218.32 425.823C219.615 425.378 220.901 424.905 222.177 424.402C223.453 423.899 224.574 423.435 225.541 423.01C225.522 423.358 225.512 423.861 225.512 424.518C225.512 425.156 225.522 425.697 225.541 426.142C224.613 426.567 223.588 427.012 222.467 427.476C221.346 427.94 220.215 428.375 219.074 428.781C217.933 429.187 216.86 429.535 215.855 429.825ZM222.902 423.358C222.438 422.971 221.877 422.565 221.22 422.14C220.563 421.715 219.896 421.318 219.219 420.951C218.562 420.584 217.953 420.284 217.392 420.052L218.958 417.558C219.577 417.79 220.224 418.09 220.901 418.457C221.578 418.824 222.235 419.211 222.873 419.617C223.511 420.004 224.062 420.371 224.526 420.719C224.275 421.067 223.985 421.502 223.656 422.024C223.347 422.527 223.095 422.971 222.902 423.358Z" fill="#00B6B6"/>
<path d="M187.232 434.175V424.489H175.806L175.777 421.27H187.232V412.077H177.024V408.829H200.862L200.891 412.077H190.857V421.27H202.109V424.489H190.857V434.175H187.232ZM195.381 420.661C195.111 420.487 194.772 420.294 194.366 420.081C193.98 419.868 193.593 419.675 193.206 419.501C192.839 419.308 192.539 419.163 192.307 419.066C192.694 418.563 193.129 417.925 193.612 417.152C194.115 416.359 194.589 415.567 195.033 414.774C195.478 413.962 195.816 413.266 196.048 412.686L199.296 414.136C199.103 414.581 198.832 415.112 198.484 415.731C198.156 416.33 197.798 416.949 197.411 417.587C197.025 418.206 196.648 418.786 196.28 419.327C195.932 419.868 195.633 420.313 195.381 420.661ZM182.592 420.719C182.418 420.294 182.186 419.791 181.896 419.211C181.626 418.612 181.316 418.003 180.968 417.384C180.64 416.746 180.301 416.147 179.953 415.586C179.625 415.025 179.315 414.571 179.025 414.223L182.041 412.686C182.312 413.034 182.612 413.479 182.94 414.02C183.288 414.561 183.646 415.141 184.013 415.76C184.381 416.379 184.719 416.988 185.028 417.587C185.338 418.167 185.579 418.66 185.753 419.066C185.309 419.221 184.777 419.472 184.158 419.82C183.54 420.149 183.018 420.448 182.592 420.719Z" fill="#00B6B6"/>
<defs>
<linearGradient id="paint0_linear_1095_5896" x1="275" y1="307" x2="275" y2="356" gradientUnits="userSpaceOnUse">
<stop stop-color="#17B9FB" stop-opacity="0.6"/>
<stop offset="1" stop-color="#2DD5B9" stop-opacity="0.6"/>
</linearGradient>
<linearGradient id="paint1_linear_1095_5896" x1="274.999" y1="373" x2="274.999" y2="355.75" gradientUnits="userSpaceOnUse">
<stop stop-color="#17B9FB" stop-opacity="0.6"/>
<stop offset="1" stop-color="#2DD5B9" stop-opacity="0.6"/>
</linearGradient>
</defs>
</svg>
