<svg width="360" height="411" viewBox="0 0 360 411" fill="none" xmlns="http://www.w3.org/2000/svg">
<rect width="360" height="411" fill="white"/>
<path d="M318.445 125.676C318.445 167.47 284.564 201.351 242.769 201.351C200.975 201.351 167.094 167.47 167.094 125.676C167.094 83.8812 200.975 50 242.769 50C284.564 50 318.445 83.8812 318.445 125.676Z" fill="url(#paint0_linear_1099_12220)" fill-opacity="0.3"/>
<path d="M300.247 146.418V144.312H293.565V141.868H300.247V140.542H294.761V131.702H300.247V130.454H293.773V128.062H300.247V126.32H303.211V128.062H309.997V130.454H303.211V131.702H308.775V140.542H303.211V141.868H310.309V144.312H303.211V146.418H300.247ZM301.183 149.668C299.346 149.668 297.803 149.573 296.555 149.382C295.325 149.209 294.302 148.931 293.487 148.55C292.69 148.186 292.014 147.727 291.459 147.172C291.147 147.415 290.749 147.692 290.263 148.004C289.795 148.299 289.319 148.593 288.833 148.888C288.348 149.183 287.923 149.434 287.559 149.642L286.363 146.704C286.658 146.6 287.031 146.453 287.481 146.262C287.932 146.071 288.374 145.872 288.807 145.664C289.258 145.439 289.613 145.239 289.873 145.066V138.488H286.883V135.784H292.707V144.676C293.037 145.525 293.877 146.123 295.229 146.47C296.581 146.799 298.566 146.964 301.183 146.964C303.402 146.964 305.309 146.929 306.903 146.86C308.498 146.791 309.789 146.687 310.777 146.548C310.691 146.739 310.595 147.033 310.491 147.432C310.387 147.813 310.301 148.203 310.231 148.602C310.162 149.018 310.119 149.356 310.101 149.616C309.616 149.616 308.983 149.616 308.203 149.616C307.423 149.633 306.591 149.642 305.707 149.642C304.841 149.659 304.009 149.668 303.211 149.668C302.414 149.668 301.738 149.668 301.183 149.668ZM291.173 132.69C290.896 132.309 290.515 131.858 290.029 131.338C289.561 130.818 289.067 130.315 288.547 129.83C288.027 129.327 287.568 128.929 287.169 128.634L289.249 126.71C289.648 126.987 290.116 127.369 290.653 127.854C291.191 128.322 291.702 128.807 292.187 129.31C292.69 129.813 293.089 130.255 293.383 130.636C293.21 130.757 292.976 130.948 292.681 131.208C292.387 131.468 292.101 131.737 291.823 132.014C291.546 132.291 291.329 132.517 291.173 132.69ZM303.211 138.462H305.941V137.084H303.211V138.462ZM303.211 135.082H305.941V133.73H303.211V135.082ZM297.621 138.462H300.247V137.084H297.621V138.462ZM297.621 135.082H300.247V133.73H297.621V135.082Z" fill="#111111"/>
<path d="M279.086 149.98C279.069 149.633 279.008 149.226 278.904 148.758C278.818 148.29 278.723 147.883 278.619 147.536C278.185 148.108 277.856 148.637 277.631 149.122C276.573 148.758 275.62 148.212 274.771 147.484C273.939 146.756 273.254 145.95 272.717 145.066C272.179 146.054 271.451 146.903 270.533 147.614C269.614 148.325 268.487 148.879 267.153 149.278C267.014 148.966 266.789 148.576 266.477 148.108C266.165 147.623 265.887 147.241 265.645 146.964C266.841 146.669 267.811 146.271 268.556 145.768C269.302 145.265 269.865 144.641 270.247 143.896H265.567V141.738H270.923C270.957 141.547 270.983 141.348 271 141.14C271.018 140.915 271.035 140.689 271.053 140.464H266.269V138.306H269.129C268.938 137.977 268.738 137.656 268.53 137.344C268.322 137.032 268.123 136.763 267.932 136.538L270.169 135.524C270.429 135.871 270.723 136.321 271.053 136.876C271.399 137.431 271.677 137.907 271.885 138.306H273.392C273.635 137.907 273.887 137.431 274.147 136.876C274.424 136.321 274.623 135.862 274.745 135.498L277.163 136.278C277.041 136.607 276.894 136.954 276.721 137.318C276.547 137.665 276.374 137.994 276.201 138.306H278.904V140.464H273.913C273.913 140.689 273.895 140.906 273.861 141.114C273.843 141.322 273.817 141.53 273.782 141.738H279.607V143.896H274.927C275.412 144.52 276.01 145.083 276.721 145.586C277.431 146.071 278.263 146.461 279.217 146.756C279.182 146.791 279.138 146.834 279.086 146.886C279.052 146.938 279.017 146.99 278.983 147.042H280.023C280.369 147.042 280.586 146.999 280.672 146.912C280.776 146.808 280.829 146.6 280.829 146.288V135.342H273.549V126.97H283.766V147.328C283.766 148.229 283.524 148.897 283.039 149.33C282.571 149.763 281.799 149.98 280.724 149.98H279.086ZM261.562 150.006V126.97H271.729V135.342H264.5V150.006H261.562ZM276.383 133.184H280.829V132.092H276.383V133.184ZM276.383 130.22H280.829V129.128H276.383V130.22ZM264.5 133.184H268.895V132.092H264.5V133.184ZM264.5 130.22H268.895V129.128H264.5V130.22Z" fill="#111111"/>
<path d="M247.339 149.798C246.264 149.798 245.51 149.633 245.077 149.304C244.644 148.975 244.427 148.437 244.427 147.692V142.648L234.963 143.324L234.703 140.49L244.427 139.788V137.5C243.543 137.621 242.676 137.734 241.827 137.838C240.978 137.942 240.154 138.02 239.357 138.072C239.305 137.812 239.218 137.5 239.097 137.136C238.993 136.772 238.88 136.417 238.759 136.07C238.638 135.723 238.525 135.455 238.421 135.264C239.409 135.229 240.527 135.143 241.775 135.004C243.023 134.865 244.288 134.683 245.571 134.458C246.854 134.233 248.058 133.973 249.185 133.678C250.312 133.383 251.256 133.063 252.019 132.716L253.917 135.186C253.016 135.533 252.028 135.853 250.953 136.148C249.896 136.425 248.804 136.685 247.677 136.928V139.528L258.233 138.774L258.493 141.608L247.677 142.414V146.08C247.677 146.34 247.738 146.531 247.859 146.652C247.998 146.756 248.258 146.808 248.639 146.808H253.007C253.492 146.808 253.865 146.73 254.125 146.574C254.402 146.418 254.61 146.115 254.749 145.664C254.888 145.213 254.992 144.563 255.061 143.714C255.286 143.835 255.59 143.965 255.971 144.104C256.37 144.243 256.777 144.373 257.193 144.494C257.626 144.615 257.982 144.711 258.259 144.78C258.068 146.149 257.817 147.198 257.505 147.926C257.21 148.654 256.794 149.148 256.257 149.408C255.737 149.668 255.035 149.798 254.151 149.798H247.339ZM235.275 134.874V129.154H244.817V126.268H248.327V129.154H257.973V134.848H254.827V131.832H238.473V134.874H235.275Z" fill="#111111"/>
<path d="M215.697 149.2V146.34H222.353V141.4H217.075V138.462H222.353V134.302H216.113V131.494H223.315C222.795 130.94 222.197 130.35 221.521 129.726C220.845 129.102 220.23 128.591 219.675 128.192L221.859 126.06C222.327 126.355 222.838 126.745 223.393 127.23C223.965 127.698 224.511 128.184 225.031 128.686C225.568 129.172 226.019 129.614 226.383 130.012C226.158 130.186 225.898 130.411 225.603 130.688C225.308 130.966 225.022 131.234 224.745 131.494H231.739V134.302H225.577V138.462H230.751V141.4H225.577V146.34H232.311V149.2H215.697ZM211.823 150.084V137.162C211.338 137.908 210.826 138.601 210.289 139.242C209.96 138.948 209.561 138.653 209.093 138.358C208.625 138.046 208.192 137.778 207.793 137.552C208.452 136.859 209.084 136.027 209.691 135.056C210.315 134.068 210.887 133.037 211.407 131.962C211.927 130.888 212.378 129.848 212.759 128.842C213.14 127.837 213.418 126.97 213.591 126.242L216.581 126.97C216.078 128.686 215.463 130.342 214.735 131.936V150.084H211.823Z" fill="#111111"/>
<path d="M275.445 114.344C275.064 114.084 274.648 113.824 274.197 113.564C273.764 113.304 273.322 113.088 272.871 112.914C273.807 111.788 274.483 110.462 274.899 108.936C275.332 107.394 275.549 105.504 275.549 103.268V97.4442H281.165C280.992 96.9935 280.801 96.5255 280.593 96.0402C280.385 95.5375 280.186 95.0955 279.995 94.7142H275.549V92.2962H284.285V90.1122H287.665V92.2962H296.583V94.7142H292.111C291.972 95.1128 291.799 95.5548 291.591 96.0402C291.4 96.5255 291.192 96.9935 290.967 97.4442H296.869V99.9662H278.513V103.268C278.513 103.702 278.504 104.135 278.487 104.568C278.47 104.984 278.444 105.392 278.409 105.79C278.894 105.288 279.336 104.707 279.735 104.048C280.151 103.39 280.506 102.714 280.801 102.02C281.113 101.31 281.347 100.66 281.503 100.07L284.207 100.902C284.138 101.18 284.051 101.466 283.947 101.76C283.843 102.055 283.722 102.35 283.583 102.644H286.053V100.59H289.095V102.644H295.569V105.062H289.095V106.726H294.009V109.17H289.095V111.042H296.947V113.486H278.279V111.042H286.053V109.17H281.399V106.726H286.053V105.062H282.335C282.058 105.513 281.772 105.955 281.477 106.388C281.182 106.804 280.862 107.203 280.515 107.584C280.238 107.359 279.9 107.116 279.501 106.856C279.102 106.596 278.73 106.38 278.383 106.206C278.21 107.801 277.889 109.266 277.421 110.6C276.953 111.918 276.294 113.166 275.445 114.344ZM284.285 97.4442H287.847C288.038 97.0455 288.237 96.6035 288.445 96.1182C288.653 95.6155 288.835 95.1475 288.991 94.7142H283.141C283.349 95.1475 283.548 95.6155 283.739 96.1182C283.947 96.6035 284.129 97.0455 284.285 97.4442Z" fill="#111111"/>
<path d="M260.495 114.37C260.27 114.075 259.923 113.737 259.455 113.356C258.987 112.975 258.571 112.697 258.207 112.524C258.502 112.351 258.779 112.169 259.039 111.978C259.299 111.77 259.542 111.545 259.767 111.302C259.178 111.406 258.467 111.519 257.635 111.64C256.803 111.761 255.919 111.874 254.983 111.978C254.047 112.082 253.128 112.177 252.227 112.264C251.326 112.368 250.502 112.446 249.757 112.498C249.012 112.567 248.405 112.619 247.937 112.654L247.547 110.028C248.119 110.011 248.899 109.976 249.887 109.924C250.892 109.855 251.958 109.785 253.085 109.716V108.208H248.015V106.18H253.085V105.166H248.379V97.4701H253.085V96.5341H247.547V94.3501H253.085V93.4661C252.305 93.5181 251.551 93.5615 250.823 93.5961C250.112 93.6308 249.48 93.6481 248.925 93.6481C248.89 93.3535 248.804 92.9808 248.665 92.5301C248.526 92.0621 248.388 91.6895 248.249 91.4121C248.925 91.4295 249.757 91.4121 250.745 91.3601C251.733 91.3081 252.764 91.2301 253.839 91.1261C254.914 91.0221 255.919 90.9008 256.855 90.7621C257.791 90.6061 258.545 90.4415 259.117 90.2681L260.469 92.4001C259.949 92.5561 259.282 92.7035 258.467 92.8421C257.67 92.9635 256.812 93.0761 255.893 93.1801V94.3501H261.431V95.9621H263.563V90.3981H266.475V95.9621H270.869C270.869 96.1008 270.869 96.3695 270.869 96.7681C270.869 97.1668 270.86 97.6001 270.843 98.0681C270.843 98.5361 270.843 98.9521 270.843 99.3161C270.843 101.361 270.817 103.199 270.765 104.828C270.713 106.457 270.635 107.792 270.531 108.832C270.427 110.149 270.202 111.172 269.855 111.9C269.508 112.628 269.023 113.131 268.399 113.408C267.775 113.703 266.986 113.85 266.033 113.85H264.473C264.404 113.347 264.3 112.801 264.161 112.212C264.022 111.64 263.91 111.215 263.823 110.938H265.487C265.92 110.938 266.267 110.886 266.527 110.782C266.787 110.678 266.995 110.444 267.151 110.08C267.324 109.716 267.463 109.153 267.567 108.39C267.671 107.523 267.758 106.345 267.827 104.854C267.914 103.346 267.966 101.708 267.983 99.9401V98.9781H266.449C266.328 102.739 265.764 105.903 264.759 108.468C263.754 111.016 262.332 112.983 260.495 114.37ZM260.313 110.704C261.301 109.508 262.064 107.939 262.601 105.998C263.156 104.039 263.468 101.699 263.537 98.9781H261.171V96.5341H255.893V97.4701H260.573V105.166H255.893V106.18H260.495V108.208H255.893V109.482C256.864 109.395 257.748 109.309 258.545 109.222C259.342 109.118 259.932 109.031 260.313 108.962V110.704ZM251.109 103.346H253.085V102.124H251.109V103.346ZM255.893 103.346H257.869V102.124H255.893V103.346ZM251.109 100.486H253.085V99.2641H251.109V100.486ZM255.893 100.486H257.869V99.2641H255.893V100.486Z" fill="#111111"/>
<path d="M232.232 113.59V100.486C230.811 101.803 229.294 102.999 227.682 104.074C226.07 105.131 224.441 106.059 222.794 106.856C222.586 106.405 222.3 105.946 221.936 105.478C221.589 105.01 221.251 104.62 220.922 104.308C222.066 103.84 223.219 103.259 224.38 102.566C225.559 101.873 226.694 101.101 227.786 100.252C228.895 99.3855 229.927 98.4928 230.88 97.5741C231.851 96.6381 232.7 95.7021 233.428 94.7661H222.274V91.9061H244.972V94.7661H237.224C236.964 95.1648 236.687 95.5548 236.392 95.9361C236.115 96.3175 235.82 96.6988 235.508 97.0801V113.59H232.232ZM243.62 107.064C243.204 106.613 242.667 106.067 242.008 105.426C241.367 104.785 240.665 104.126 239.902 103.45C239.139 102.757 238.385 102.115 237.64 101.526C236.912 100.937 236.262 100.469 235.69 100.122L237.666 97.9381C238.359 98.3888 239.087 98.9001 239.85 99.4721C240.63 100.027 241.393 100.616 242.138 101.24C242.883 101.847 243.577 102.445 244.218 103.034C244.859 103.623 245.405 104.169 245.856 104.672C245.665 104.828 245.423 105.045 245.128 105.322C244.851 105.599 244.573 105.894 244.296 106.206C244.036 106.518 243.811 106.804 243.62 107.064Z" fill="#111111"/>
<path d="M263.471 205.828C261.903 205.828 260.359 205.54 258.839 204.964C257.319 204.388 255.943 203.452 254.711 202.156C253.495 200.844 252.519 199.108 251.783 196.948C251.063 194.788 250.703 192.132 250.703 188.98C250.703 185.236 251.327 182.012 252.575 179.308C253.839 176.588 255.567 174.5 257.759 173.044C259.967 171.572 262.479 170.836 265.295 170.836C267.551 170.836 269.287 171.06 270.503 171.508C271.735 171.94 272.735 172.532 273.503 173.284L271.151 177.892C270.511 177.188 269.655 176.708 268.583 176.452C267.511 176.196 266.527 176.068 265.631 176.068C263.967 176.068 262.519 176.564 261.287 177.556C260.071 178.548 259.111 179.82 258.407 181.372C257.703 182.908 257.295 184.5 257.183 186.148C257.167 186.484 257.151 186.796 257.135 187.084C257.135 187.372 257.135 187.652 257.135 187.924C257.999 186.26 259.215 185.052 260.783 184.3C262.367 183.548 264.031 183.172 265.775 183.172C267.935 183.172 269.759 183.652 271.247 184.612C272.751 185.556 273.887 186.828 274.655 188.428C275.423 190.028 275.807 191.796 275.807 193.732C275.807 196.196 275.287 198.332 274.247 200.14C273.223 201.948 271.783 203.348 269.927 204.34C268.087 205.332 265.935 205.828 263.471 205.828ZM263.807 200.884C265.327 200.884 266.631 200.308 267.719 199.156C268.823 197.988 269.375 196.372 269.375 194.308C269.375 192.436 268.967 190.932 268.151 189.796C267.335 188.644 266.063 188.068 264.335 188.068C263.279 188.068 262.263 188.332 261.287 188.86C260.327 189.372 259.527 190.06 258.887 190.924C258.263 191.788 257.919 192.74 257.855 193.78C257.855 195.044 258.087 196.22 258.551 197.308C259.031 198.38 259.711 199.244 260.591 199.9C261.487 200.556 262.559 200.884 263.807 200.884Z" fill="#00B6B6"/>
<path d="M233.805 205.828C231.981 205.828 230.221 205.604 228.525 205.156C226.829 204.708 225.309 204.004 223.965 203.044L225.981 197.572C226.893 198.452 228.005 199.14 229.317 199.636C230.629 200.116 231.917 200.356 233.181 200.356C235.341 200.356 236.925 199.844 237.933 198.82C238.957 197.796 239.469 196.516 239.469 194.98C239.469 193.684 239.149 192.7 238.509 192.028C237.885 191.34 237.061 190.868 236.037 190.612C235.013 190.356 233.917 190.228 232.749 190.228H230.205V185.476H232.797C234.765 185.476 236.221 184.996 237.165 184.036C238.125 183.06 238.605 181.844 238.605 180.388C238.605 178.804 238.133 177.732 237.189 177.172C236.245 176.596 234.909 176.308 233.181 176.308C232.557 176.308 231.805 176.42 230.925 176.644C230.061 176.868 229.197 177.196 228.333 177.628C227.469 178.06 226.749 178.596 226.173 179.236L223.773 174.148C224.765 173.284 226.165 172.516 227.973 171.844C229.797 171.172 231.965 170.836 234.477 170.836C237.789 170.836 240.421 171.588 242.373 173.092C244.341 174.58 245.325 176.692 245.325 179.428C245.325 180.644 245.109 181.836 244.677 183.004C244.245 184.172 243.613 185.196 242.781 186.076C241.949 186.94 240.941 187.524 239.757 187.828C241.117 187.828 242.277 188.204 243.237 188.956C244.213 189.708 244.957 190.684 245.469 191.884C245.981 193.084 246.237 194.356 246.237 195.7C246.237 197.812 245.677 199.628 244.557 201.148C243.437 202.652 241.933 203.812 240.045 204.628C238.173 205.428 236.093 205.828 233.805 205.828Z" fill="#00B6B6"/>
<path d="M283.622 197.356C282.246 197.356 281.23 196.944 280.574 196.12C279.918 195.288 279.59 194.188 279.59 192.82C279.59 191.212 279.954 190.048 280.682 189.328C281.41 188.6 282.39 188.236 283.622 188.236C284.846 188.236 285.81 188.6 286.514 189.328C287.226 190.048 287.582 191.22 287.582 192.844C287.582 193.732 287.454 194.516 287.198 195.196C286.95 195.868 286.534 196.396 285.95 196.78C285.374 197.164 284.598 197.356 283.622 197.356ZM283.598 205.108L292.766 188.38H295.118L285.95 205.108H283.598ZM283.598 195.556C283.998 195.556 284.294 195.432 284.486 195.184C284.678 194.936 284.802 194.612 284.858 194.212C284.914 193.804 284.942 193.364 284.942 192.892C284.942 191.94 284.846 191.232 284.654 190.768C284.47 190.296 284.102 190.06 283.55 190.06C283.022 190.06 282.658 190.292 282.458 190.756C282.258 191.22 282.158 191.908 282.158 192.82C282.158 193.572 282.246 194.216 282.422 194.752C282.598 195.288 282.99 195.556 283.598 195.556ZM295.214 205.468C293.822 205.468 292.802 205.052 292.154 204.22C291.506 203.38 291.182 202.276 291.182 200.908C291.182 199.308 291.542 198.144 292.262 197.416C292.982 196.688 293.958 196.324 295.19 196.324C296.414 196.324 297.382 196.692 298.094 197.428C298.814 198.156 299.174 199.332 299.174 200.956C299.174 201.836 299.046 202.616 298.79 203.296C298.534 203.976 298.114 204.508 297.53 204.892C296.954 205.276 296.182 205.468 295.214 205.468ZM295.142 203.62C295.558 203.62 295.862 203.5 296.054 203.26C296.246 203.02 296.37 202.7 296.426 202.3C296.482 201.9 296.51 201.46 296.51 200.98C296.51 200.028 296.418 199.32 296.234 198.856C296.05 198.384 295.686 198.148 295.142 198.148C294.59 198.148 294.218 198.38 294.026 198.844C293.842 199.308 293.75 200.004 293.75 200.932C293.75 201.676 293.83 202.312 293.99 202.84C294.158 203.36 294.542 203.62 295.142 203.62Z" fill="#00B6B6"/>
<path d="M148.853 123.311C148.853 155.59 122.686 181.757 90.4069 181.757C58.1281 181.757 31.9609 155.59 31.9609 123.311C31.9609 91.032 58.1281 64.8649 90.4069 64.8649C122.686 64.8649 148.853 91.032 148.853 123.311Z" fill="url(#paint1_linear_1099_12220)" fill-opacity="0.3"/>
<path d="M149.91 117.8V110.32C148.399 110.379 146.933 110.423 145.51 110.452C144.102 110.482 142.885 110.504 141.858 110.518L141.462 108.142C142.371 108.157 143.486 108.157 144.806 108.142C146.126 108.128 147.497 108.113 148.92 108.098C148.392 107.644 147.813 107.174 147.182 106.69C146.551 106.206 145.913 105.737 145.268 105.282C144.637 104.828 144.029 104.432 143.442 104.094L145.048 102.092C145.385 102.312 145.73 102.54 146.082 102.774C146.434 103.009 146.786 103.251 147.138 103.5C147.461 103.119 147.791 102.701 148.128 102.246C148.465 101.777 148.773 101.33 149.052 100.904C148.011 100.963 146.991 101 145.994 101.014C144.997 101.029 144.065 101.029 143.2 101.014C143.141 100.662 143.046 100.259 142.914 99.8042C142.782 99.3349 142.657 98.9389 142.54 98.6162C143.317 98.6749 144.227 98.7042 145.268 98.7042C146.309 98.7042 147.409 98.6822 148.568 98.6382C149.727 98.5795 150.863 98.4989 151.978 98.3962C153.107 98.2935 154.149 98.1689 155.102 98.0222C156.07 97.8755 156.877 97.7142 157.522 97.5382L159.26 99.6722C158.233 99.9215 156.994 100.142 155.542 100.332C154.105 100.523 152.601 100.677 151.032 100.794L151.956 101.3C151.751 101.623 151.494 102.004 151.186 102.444C150.893 102.87 150.57 103.31 150.218 103.764C149.866 104.204 149.521 104.622 149.184 105.018C149.433 105.209 149.668 105.4 149.888 105.59C150.123 105.781 150.357 105.979 150.592 106.184C151.076 105.656 151.56 105.106 152.044 104.534C152.543 103.948 152.997 103.398 153.408 102.884C153.833 102.356 154.156 101.916 154.376 101.564L156.686 102.928C156.305 103.442 155.857 103.999 155.344 104.6C154.831 105.202 154.295 105.796 153.738 106.382C153.195 106.969 152.66 107.512 152.132 108.01C152.997 107.981 153.804 107.959 154.552 107.944C155.315 107.915 155.989 107.893 156.576 107.878C156.4 107.658 156.217 107.446 156.026 107.24C155.85 107.035 155.674 106.837 155.498 106.646L157.434 105.304C157.903 105.759 158.38 106.294 158.864 106.91C159.363 107.526 159.825 108.15 160.25 108.78C160.675 109.396 161.02 109.961 161.284 110.474C161.108 110.562 160.881 110.687 160.602 110.848C160.338 111.01 160.074 111.178 159.81 111.354C159.561 111.53 159.355 111.692 159.194 111.838C159.047 111.545 158.871 111.237 158.666 110.914C158.475 110.577 158.27 110.247 158.05 109.924C157.302 109.968 156.459 110.02 155.52 110.078C154.581 110.122 153.591 110.166 152.55 110.21V117.8H149.91ZM159.37 117.03C158.314 116.502 157.287 115.835 156.29 115.028C155.293 114.222 154.464 113.415 153.804 112.608L155.63 111.112C156.026 111.582 156.51 112.058 157.082 112.542C157.654 113.012 158.27 113.459 158.93 113.884C159.605 114.295 160.265 114.647 160.91 114.94C160.587 115.219 160.294 115.556 160.03 115.952C159.766 116.348 159.546 116.708 159.37 117.03ZM143.046 117.03C142.885 116.708 142.65 116.356 142.342 115.974C142.049 115.593 141.741 115.285 141.418 115.05C142.049 114.801 142.694 114.464 143.354 114.038C144.014 113.598 144.63 113.129 145.202 112.63C145.789 112.117 146.273 111.626 146.654 111.156L148.612 112.608C148.187 113.151 147.673 113.701 147.072 114.258C146.471 114.801 145.818 115.314 145.114 115.798C144.425 116.268 143.735 116.678 143.046 117.03Z" fill="#111111"/>
<path d="M120.254 109.286C120.269 109.081 120.276 108.802 120.276 108.45C120.276 108.098 120.276 107.746 120.276 107.394C120.276 107.042 120.269 106.763 120.254 106.558C120.533 106.573 121.024 106.587 121.728 106.602C122.447 106.617 123.297 106.631 124.28 106.646C125.277 106.661 126.341 106.675 127.47 106.69C128.599 106.69 129.729 106.69 130.858 106.69C131.987 106.69 133.051 106.683 134.048 106.668C135.06 106.653 135.933 106.639 136.666 106.624C137.399 106.61 137.92 106.587 138.228 106.558C138.213 106.749 138.199 107.02 138.184 107.372C138.184 107.724 138.184 108.083 138.184 108.45C138.199 108.802 138.206 109.073 138.206 109.264C137.839 109.25 137.297 109.235 136.578 109.22C135.874 109.205 135.045 109.191 134.092 109.176C133.153 109.161 132.149 109.154 131.078 109.154C130.022 109.154 128.951 109.154 127.866 109.154C126.781 109.154 125.747 109.161 124.764 109.176C123.781 109.191 122.894 109.205 122.102 109.22C121.325 109.235 120.709 109.257 120.254 109.286Z" fill="#111111"/>
<path d="M100.236 116.458C100.074 116.136 99.8031 115.754 99.4217 115.314C99.0551 114.874 98.6958 114.537 98.3438 114.302C100.206 113.554 101.739 112.506 102.942 111.156C104.159 109.792 105.054 108.076 105.626 106.008L99.6857 106.184L99.4878 103.61C99.6784 103.625 100.096 103.632 100.742 103.632C101.387 103.618 102.179 103.603 103.118 103.588C104.056 103.574 105.054 103.552 106.11 103.522C106.315 102.158 106.403 100.662 106.374 99.0342L109.102 99.0562C109.116 99.8335 109.102 100.589 109.058 101.322C109.014 102.056 108.948 102.767 108.86 103.456C109.886 103.427 110.847 103.398 111.742 103.368C112.636 103.339 113.384 103.31 113.986 103.28C114.602 103.251 114.99 103.229 115.152 103.214C115.152 103.83 115.115 104.571 115.042 105.436C114.968 106.302 114.873 107.196 114.756 108.12C114.638 109.03 114.514 109.888 114.382 110.694C114.25 111.501 114.118 112.154 113.986 112.652C113.736 113.664 113.399 114.434 112.974 114.962C112.563 115.49 111.984 115.85 111.236 116.04C110.502 116.216 109.52 116.297 108.288 116.282C108.229 115.93 108.112 115.476 107.936 114.918C107.774 114.361 107.569 113.899 107.32 113.532C108.258 113.547 108.992 113.525 109.52 113.466C110.048 113.408 110.444 113.261 110.708 113.026C110.986 112.792 111.199 112.432 111.346 111.948C111.492 111.494 111.632 110.914 111.764 110.21C111.896 109.506 112.013 108.766 112.116 107.988C112.218 107.196 112.292 106.456 112.336 105.766L108.42 105.898C107.804 108.406 106.806 110.533 105.428 112.278C104.064 114.024 102.333 115.417 100.236 116.458Z" fill="#111111"/>
<path d="M76.2539 109.286C76.2686 109.081 76.2759 108.802 76.2759 108.45C76.2759 108.098 76.2759 107.746 76.2759 107.394C76.2759 107.042 76.2686 106.763 76.2539 106.558C76.5326 106.573 77.0239 106.587 77.7279 106.602C78.4466 106.617 79.2972 106.631 80.2799 106.646C81.2772 106.661 82.3406 106.675 83.4699 106.69C84.5992 106.69 85.7286 106.69 86.8579 106.69C87.9872 106.69 89.0506 106.683 90.0479 106.668C91.0599 106.653 91.9326 106.639 92.6659 106.624C93.3992 106.61 93.9199 106.587 94.2279 106.558C94.2132 106.749 94.1986 107.02 94.1839 107.372C94.1839 107.724 94.1839 108.083 94.1839 108.45C94.1986 108.802 94.2059 109.073 94.2059 109.264C93.8392 109.25 93.2966 109.235 92.5779 109.22C91.8739 109.205 91.0452 109.191 90.0919 109.176C89.1532 109.161 88.1486 109.154 87.0779 109.154C86.0219 109.154 84.9512 109.154 83.8659 109.154C82.7806 109.154 81.7466 109.161 80.7639 109.176C79.7812 109.191 78.8939 109.205 78.1019 109.22C77.3246 109.235 76.7086 109.257 76.2539 109.286Z" fill="#111111"/>
<path d="M56.5413 116.37C56.3506 116.062 56.0793 115.688 55.7273 115.248C55.3899 114.808 55.0746 114.471 54.7812 114.236C56.3506 113.503 57.8246 112.579 59.2032 111.464C60.5966 110.35 61.8506 109.125 62.9653 107.79C62.2906 107.277 61.6379 106.815 61.0073 106.404C60.3766 105.994 59.8119 105.671 59.3133 105.436L60.8973 103.566C61.4399 103.816 62.0193 104.131 62.6353 104.512C63.2513 104.894 63.8746 105.304 64.5053 105.744C65.1506 104.791 65.7079 103.808 66.1772 102.796C66.6613 101.784 67.0426 100.787 67.3213 99.8042L69.8953 100.684C69.1179 103.031 68.0326 105.238 66.6393 107.306C67.2993 107.834 67.9226 108.362 68.5093 108.89C69.0959 109.404 69.5946 109.888 70.0053 110.342C69.7999 110.518 69.5653 110.746 69.3013 111.024C69.0519 111.288 68.8099 111.56 68.5753 111.838C68.3406 112.102 68.1499 112.337 68.0033 112.542C67.6513 112.102 67.2113 111.618 66.6833 111.09C66.1699 110.562 65.6126 110.034 65.0113 109.506C63.8526 110.914 62.5619 112.205 61.1393 113.378C59.7166 114.552 58.1839 115.549 56.5413 116.37Z" fill="#111111"/>
<path d="M103.902 172.216V140.92L110.382 137.896V172.216H103.902Z" fill="#00B6B6"/>
<path d="M82.2603 166.744H97.8603V172.216H76.3083C76.2123 171.704 76.1323 171.192 76.0683 170.68C76.0043 170.152 75.9723 169.544 75.9723 168.856C75.9723 166.824 76.3003 165.088 76.9563 163.648C77.6283 162.208 78.6043 160.92 79.8843 159.784C81.1803 158.648 82.7723 157.528 84.6603 156.424C85.7003 155.816 86.7403 155.144 87.7803 154.408C88.8203 153.672 89.6843 152.8 90.3723 151.792C91.0763 150.768 91.4283 149.528 91.4283 148.072C91.4283 146.824 91.0363 145.712 90.2523 144.736C89.4843 143.76 88.2443 143.272 86.5323 143.272C84.7563 143.272 83.3323 143.848 82.2603 145C81.2043 146.152 80.5323 147.64 80.2443 149.464L75.1562 147.064C75.4123 145.4 76.0602 143.88 77.1003 142.504C78.1402 141.112 79.5003 140.008 81.1803 139.192C82.8603 138.36 84.7883 137.944 86.9643 137.944C88.9483 137.944 90.7483 138.32 92.3643 139.072C93.9803 139.808 95.2683 140.888 96.2283 142.312C97.1883 143.736 97.6683 145.464 97.6683 147.496C97.6683 149.576 97.2923 151.376 96.5403 152.896C95.7883 154.416 94.6763 155.8 93.2043 157.048C91.7483 158.296 89.9563 159.56 87.8283 160.84C86.3243 161.752 85.0843 162.608 84.1083 163.408C83.1483 164.192 82.5323 165.304 82.2603 166.744Z" fill="#00B6B6"/>
<path d="M127.716 164.464C126.34 164.464 125.324 164.052 124.668 163.228C124.012 162.396 123.684 161.296 123.684 159.928C123.684 158.32 124.048 157.156 124.776 156.436C125.504 155.708 126.484 155.344 127.716 155.344C128.94 155.344 129.904 155.708 130.608 156.436C131.32 157.156 131.676 158.328 131.676 159.952C131.676 160.84 131.548 161.624 131.292 162.304C131.044 162.976 130.628 163.504 130.044 163.888C129.468 164.272 128.692 164.464 127.716 164.464ZM127.692 172.216L136.86 155.488H139.212L130.044 172.216H127.692ZM127.692 162.664C128.092 162.664 128.388 162.54 128.58 162.292C128.772 162.044 128.896 161.72 128.952 161.32C129.008 160.912 129.036 160.472 129.036 160C129.036 159.048 128.94 158.34 128.748 157.876C128.564 157.404 128.196 157.168 127.644 157.168C127.116 157.168 126.752 157.4 126.552 157.864C126.352 158.328 126.252 159.016 126.252 159.928C126.252 160.68 126.34 161.324 126.516 161.86C126.692 162.396 127.084 162.664 127.692 162.664ZM139.308 172.576C137.916 172.576 136.896 172.16 136.248 171.328C135.6 170.488 135.276 169.384 135.276 168.016C135.276 166.416 135.636 165.252 136.356 164.524C137.076 163.796 138.052 163.432 139.284 163.432C140.508 163.432 141.476 163.8 142.188 164.536C142.908 165.264 143.268 166.44 143.268 168.064C143.268 168.944 143.14 169.724 142.884 170.404C142.628 171.084 142.208 171.616 141.624 172C141.048 172.384 140.276 172.576 139.308 172.576ZM139.236 170.728C139.652 170.728 139.956 170.608 140.148 170.368C140.34 170.128 140.464 169.808 140.52 169.408C140.576 169.008 140.604 168.568 140.604 168.088C140.604 167.136 140.512 166.428 140.328 165.964C140.144 165.492 139.78 165.256 139.236 165.256C138.684 165.256 138.312 165.488 138.12 165.952C137.936 166.416 137.844 167.112 137.844 168.04C137.844 168.784 137.924 169.42 138.084 169.948C138.252 170.468 138.636 170.728 139.236 170.728Z" fill="#00B6B6"/>
<path d="M186.013 223.311C186.013 248.5 165.594 268.919 140.405 268.919C115.216 268.919 94.7969 248.5 94.7969 223.311C94.7969 198.122 115.216 177.703 140.405 177.703C165.594 177.703 186.013 198.122 186.013 223.311Z" fill="url(#paint2_linear_1099_12220)" fill-opacity="0.3"/>
<path d="M169.378 223.052C169.334 222.788 169.275 222.494 169.202 222.172C169.143 221.864 169.07 221.548 168.982 221.226C168.498 221.343 167.948 221.475 167.332 221.622C166.73 221.754 166.114 221.878 165.484 221.996C164.853 222.128 164.252 222.245 163.68 222.348C163.108 222.45 162.616 222.531 162.206 222.59L161.634 220.302C162.015 220.272 162.536 220.214 163.196 220.126C163.87 220.038 164.574 219.942 165.308 219.84V215.462H162.14V207.036H165.308V203.318H167.42V207.036H170.588V215.462H167.42V219.532C167.61 219.502 167.794 219.473 167.97 219.444C168.16 219.414 168.336 219.385 168.498 219.356C168.38 218.974 168.256 218.615 168.124 218.278C168.006 217.926 167.889 217.61 167.772 217.332L169.862 216.716C170.082 217.229 170.302 217.83 170.522 218.52C170.742 219.194 170.94 219.876 171.116 220.566C171.306 221.255 171.446 221.878 171.534 222.436C171.24 222.48 170.881 222.56 170.456 222.678C170.03 222.81 169.671 222.934 169.378 223.052ZM155.342 222.722V219.224H153.89V217.552H154.044C153.941 217.434 153.816 217.302 153.67 217.156C153.538 217.009 153.406 216.87 153.274 216.738V223.206H151.184V212.228H161.59V221.358C161.59 222.003 161.406 222.472 161.04 222.766C160.673 223.059 160.116 223.206 159.368 223.206H158.158C158.143 222.927 158.099 222.568 158.026 222.128C157.967 221.702 157.886 221.343 157.784 221.05H158.818C159.067 221.05 159.236 221.028 159.324 220.984C159.412 220.925 159.456 220.778 159.456 220.544V216.98H158.004C157.461 216.98 157.08 216.921 156.86 216.804C156.654 216.672 156.552 216.422 156.552 216.056V214.164H156.002C155.943 214.926 155.76 215.594 155.452 216.166C155.144 216.723 154.674 217.185 154.044 217.552H158.818V219.224H157.256V222.722H155.342ZM152.262 211.304V206.64H160.512V211.304H152.262ZM151.008 205.694V203.714H161.942V205.694H151.008ZM164.164 213.24H165.308V209.258H164.164V213.24ZM167.42 213.24H168.564V209.258H167.42V213.24ZM154.528 209.478H158.246V208.466H154.528V209.478ZM158.752 215.396H159.456V214.164H158.246V215.022C158.246 215.168 158.275 215.271 158.334 215.33C158.392 215.374 158.532 215.396 158.752 215.396ZM153.274 216.122C153.655 215.814 153.912 215.52 154.044 215.242C154.19 214.963 154.278 214.604 154.308 214.164H153.274V216.122Z" fill="#111111"/>
<path d="M129.646 222.656V220.39H134.244C133.98 219.847 133.65 219.282 133.254 218.696C132.858 218.094 132.477 217.588 132.11 217.178L134.068 215.99H130.988V213.636H137.588V211.898H134.002V210.138C133.269 210.651 132.535 211.128 131.802 211.568C131.069 211.993 130.394 212.352 129.778 212.646C129.617 212.323 129.389 211.949 129.096 211.524C128.817 211.098 128.509 210.739 128.172 210.446C129.081 210.108 130.02 209.654 130.988 209.082C131.956 208.495 132.887 207.85 133.782 207.146C134.691 206.442 135.505 205.723 136.224 204.99C136.943 204.256 137.5 203.574 137.896 202.944L140.382 203.318C140.895 204.022 141.526 204.711 142.274 205.386C143.022 206.06 143.821 206.698 144.672 207.3C145.537 207.901 146.41 208.436 147.29 208.906C148.17 209.375 148.999 209.749 149.776 210.028C149.497 210.336 149.197 210.702 148.874 211.128C148.566 211.538 148.28 211.978 148.016 212.448C146.725 211.89 145.347 211.106 143.88 210.094V211.898H140.36V213.636H146.872V215.99H143.594L145.772 216.892C145.493 217.478 145.185 218.087 144.848 218.718C144.511 219.334 144.195 219.891 143.902 220.39H148.104V222.656H129.646ZM134.794 209.588H143.198C142.391 208.986 141.629 208.356 140.91 207.696C140.191 207.036 139.583 206.368 139.084 205.694C138.629 206.28 138.021 206.918 137.258 207.608C136.495 208.282 135.674 208.942 134.794 209.588ZM140.36 220.39H143.154L141.548 219.642C141.753 219.319 141.966 218.938 142.186 218.498C142.421 218.058 142.641 217.618 142.846 217.178C143.051 216.723 143.227 216.327 143.374 215.99H140.36V220.39ZM135.124 220.39H137.588V215.99H134.244C134.523 216.312 134.809 216.694 135.102 217.134C135.395 217.559 135.674 217.992 135.938 218.432C136.217 218.857 136.437 219.231 136.598 219.554L135.124 220.39Z" fill="#111111"/>
<path d="M133.211 257.142L143.491 234.742H151.931V253.702H155.291V257.582H151.931V262.622H146.691V257.582H133.491L133.211 257.142ZM140.331 253.702H146.931L147.111 237.602L142.611 248.742L140.331 253.702Z" fill="#00B6B6"/>
<path d="M124.16 262.622V236.542L129.56 234.022V262.622H124.16Z" fill="#00B6B6"/>
<path d="M165.708 254.87C164.332 254.87 163.316 254.458 162.66 253.634C162.004 252.802 161.676 251.702 161.676 250.334C161.676 248.726 162.04 247.562 162.768 246.842C163.496 246.114 164.476 245.75 165.708 245.75C166.932 245.75 167.896 246.114 168.6 246.842C169.312 247.562 169.668 248.734 169.668 250.358C169.668 251.246 169.54 252.03 169.284 252.71C169.036 253.382 168.62 253.91 168.036 254.294C167.46 254.678 166.684 254.87 165.708 254.87ZM165.684 262.622L174.852 245.894H177.204L168.036 262.622H165.684ZM165.684 253.07C166.084 253.07 166.38 252.946 166.572 252.698C166.764 252.45 166.888 252.126 166.944 251.726C167 251.318 167.028 250.878 167.028 250.406C167.028 249.454 166.932 248.746 166.74 248.282C166.556 247.81 166.188 247.574 165.636 247.574C165.108 247.574 164.744 247.806 164.544 248.27C164.344 248.734 164.244 249.422 164.244 250.334C164.244 251.086 164.332 251.73 164.508 252.266C164.684 252.802 165.076 253.07 165.684 253.07ZM177.3 262.982C175.908 262.982 174.888 262.566 174.24 261.734C173.592 260.894 173.268 259.79 173.268 258.422C173.268 256.822 173.628 255.658 174.348 254.93C175.068 254.202 176.044 253.838 177.276 253.838C178.5 253.838 179.468 254.206 180.18 254.942C180.9 255.67 181.26 256.846 181.26 258.47C181.26 259.35 181.132 260.13 180.876 260.81C180.62 261.49 180.2 262.022 179.616 262.406C179.04 262.79 178.268 262.982 177.3 262.982ZM177.228 261.134C177.644 261.134 177.948 261.014 178.14 260.774C178.332 260.534 178.456 260.214 178.512 259.814C178.568 259.414 178.596 258.974 178.596 258.494C178.596 257.542 178.504 256.834 178.32 256.37C178.136 255.898 177.772 255.662 177.228 255.662C176.676 255.662 176.304 255.894 176.112 256.358C175.928 256.822 175.836 257.518 175.836 258.446C175.836 259.19 175.916 259.826 176.076 260.354C176.244 260.874 176.628 261.134 177.228 261.134Z" fill="#00B6B6"/>
<path d="M88.7165 244.257C88.7165 261.982 74.3473 276.351 56.6219 276.351C38.8966 276.351 24.5273 261.982 24.5273 244.257C24.5273 226.531 38.8966 212.162 56.6219 212.162C74.3473 212.162 88.7165 226.531 88.7165 244.257Z" fill="url(#paint3_linear_1099_12220)" fill-opacity="0.3"/>
<path d="M72.9306 244.873C72.9186 244.669 72.8826 244.423 72.8226 244.135C72.7746 243.859 72.7146 243.589 72.6426 243.325C72.5826 243.049 72.5166 242.827 72.4446 242.659H74.3346C74.5986 242.659 74.7846 242.617 74.8926 242.533C75.0006 242.449 75.0546 242.281 75.0546 242.029V236.053H69.9606V234.019H80.0586V236.053H77.3046V242.875C77.3046 243.571 77.1126 244.075 76.7286 244.387C76.3446 244.711 75.7506 244.873 74.9466 244.873H72.9306ZM66.3246 244.909V238.141C66.0246 238.441 65.7246 238.723 65.4246 238.987C65.1246 239.239 64.8366 239.467 64.5606 239.671C64.3686 239.395 64.1226 239.101 63.8226 238.789C63.5346 238.477 63.2526 238.231 62.9766 238.051C63.4326 237.727 63.9126 237.343 64.4166 236.899C64.9206 236.443 65.4186 235.957 65.9106 235.441C66.4026 234.913 66.8466 234.385 67.2426 233.857C67.6506 233.329 67.9746 232.831 68.2146 232.363L70.1406 233.389C69.9246 233.761 69.6726 234.145 69.3846 234.541C69.1086 234.937 68.8086 235.339 68.4846 235.747V244.909H66.3246ZM70.9866 231.409V229.393H79.2666V231.409H70.9866ZM64.7046 233.641C64.5846 233.365 64.3866 233.047 64.1106 232.687C63.8466 232.327 63.5886 232.051 63.3366 231.859C63.9246 231.583 64.5246 231.259 65.1366 230.887C65.7486 230.503 66.3186 230.107 66.8466 229.699C67.3746 229.279 67.8066 228.889 68.1426 228.529L69.7446 229.879C69.3486 230.323 68.8626 230.779 68.2866 231.247C67.7106 231.715 67.1106 232.159 66.4866 232.579C65.8626 232.987 65.2686 233.341 64.7046 233.641Z" fill="#111111"/>
<path d="M60.8361 244.981C59.6481 244.021 58.6821 242.809 57.9381 241.345C57.1941 239.881 56.7081 238.171 56.4801 236.215C56.3721 236.251 56.2641 236.287 56.1561 236.323C56.0601 236.359 55.9641 236.395 55.8681 236.431V244.945H53.7801V237.007C53.4201 237.091 53.0781 237.163 52.7541 237.223C52.7181 237.043 52.6581 236.833 52.5741 236.593C52.5021 236.353 52.4181 236.125 52.3221 235.909C52.3221 236.449 52.3101 237.049 52.2861 237.709C52.2741 238.369 52.2501 239.029 52.2141 239.689C52.1781 240.349 52.1301 240.961 52.0701 241.525C52.0221 242.077 51.9561 242.521 51.8721 242.857C51.6801 243.613 51.3801 244.147 50.9721 244.459C50.5761 244.783 49.9941 244.945 49.2261 244.945H48.5061C48.4941 244.777 48.4641 244.573 48.4161 244.333C48.3801 244.093 48.3321 243.859 48.2721 243.631C48.2241 243.391 48.1701 243.205 48.1101 243.073H48.9921C49.3041 243.073 49.5261 243.001 49.6581 242.857C49.8021 242.713 49.9161 242.437 50.0001 242.029C50.0601 241.765 50.1141 241.417 50.1621 240.985C50.2101 240.553 50.2521 240.097 50.2881 239.617C50.3361 239.137 50.3661 238.681 50.3781 238.249C50.4021 237.805 50.4141 237.445 50.4141 237.169H49.4061C49.3101 238.153 49.1421 239.125 48.9021 240.085C48.6621 241.045 48.3621 241.939 48.0021 242.767C47.6541 243.583 47.2461 244.279 46.7781 244.855C46.5501 244.651 46.2621 244.453 45.9141 244.261C45.5661 244.069 45.2601 243.937 44.9961 243.865C45.8121 242.905 46.4241 241.699 46.8321 240.247C47.2521 238.795 47.4621 237.049 47.4621 235.009V233.389H45.7161V231.553H48.2901V228.547H50.3601V231.553H52.6281V232.903C52.9401 232.447 53.2281 231.961 53.4921 231.445C53.7681 230.929 54.0021 230.419 54.1941 229.915C54.3981 229.399 54.5421 228.937 54.6261 228.529L56.5701 229.069C56.4861 229.357 56.3901 229.651 56.2821 229.951C56.1741 230.251 56.0541 230.551 55.9221 230.851H61.9701V232.633H59.6481L60.7821 234.109C60.4461 234.337 60.0621 234.571 59.6301 234.811C59.1981 235.039 58.7481 235.261 58.2801 235.477C58.3041 235.813 58.3401 236.149 58.3881 236.485C58.4361 236.809 58.4961 237.127 58.5681 237.439C58.9761 237.187 59.3841 236.911 59.7921 236.611C60.2121 236.299 60.5541 236.029 60.8181 235.801L62.1501 237.259C61.7781 237.583 61.3101 237.931 60.7461 238.303C60.1941 238.663 59.6661 238.981 59.1621 239.257C59.5461 240.169 60.0261 240.991 60.6021 241.723C61.1781 242.455 61.8261 243.043 62.5461 243.487C62.3661 243.583 62.1681 243.721 61.9521 243.901C61.7361 244.093 61.5261 244.285 61.3221 244.477C61.1301 244.669 60.9681 244.837 60.8361 244.981ZM49.5141 235.315H52.3221C53.1861 235.207 54.0681 235.021 54.9681 234.757C55.8681 234.481 56.7201 234.163 57.5241 233.803C58.3281 233.431 59.0181 233.041 59.5941 232.633H55.0761C54.8121 233.113 54.5361 233.557 54.2481 233.965C53.9721 234.373 53.6961 234.727 53.4201 235.027C53.2881 234.907 53.1141 234.775 52.8981 234.631C52.6821 234.475 52.4661 234.337 52.2501 234.217C52.0341 234.085 51.8661 234.001 51.7461 233.965C51.8301 233.881 51.9141 233.791 51.9981 233.695C52.0821 233.599 52.1661 233.497 52.2501 233.389H49.5321V235.009C49.5321 235.057 49.5321 235.105 49.5321 235.153C49.5321 235.201 49.5261 235.255 49.5141 235.315Z" fill="#111111"/>
<path d="M49.1488 277.649L55.5648 259.121H46.3008V255.345H60.9248L53.7248 277.649H49.1488Z" fill="#00B6B6"/>
<path d="M67.9928 271.189C66.8461 271.189 65.9995 270.845 65.4528 270.159C64.9061 269.465 64.6328 268.549 64.6328 267.409C64.6328 266.069 64.9361 265.099 65.5428 264.499C66.1495 263.892 66.9661 263.589 67.9928 263.589C69.0128 263.589 69.8161 263.892 70.4028 264.499C70.9961 265.099 71.2928 266.075 71.2928 267.429C71.2928 268.169 71.1861 268.822 70.9728 269.389C70.7661 269.949 70.4195 270.389 69.9328 270.709C69.4528 271.029 68.8061 271.189 67.9928 271.189ZM67.9728 277.649L75.6128 263.709H77.5728L69.9328 277.649H67.9728ZM67.9728 269.689C68.3061 269.689 68.5528 269.585 68.7128 269.379C68.8728 269.172 68.9761 268.902 69.0228 268.569C69.0695 268.229 69.0928 267.862 69.0928 267.469C69.0928 266.675 69.0128 266.085 68.8528 265.699C68.6995 265.305 68.3928 265.109 67.9328 265.109C67.4928 265.109 67.1895 265.302 67.0228 265.689C66.8561 266.075 66.7728 266.649 66.7728 267.409C66.7728 268.035 66.8461 268.572 66.9928 269.019C67.1395 269.465 67.4661 269.689 67.9728 269.689ZM77.6528 277.949C76.4928 277.949 75.6428 277.602 75.1028 276.909C74.5628 276.209 74.2928 275.289 74.2928 274.149C74.2928 272.815 74.5928 271.845 75.1928 271.239C75.7928 270.632 76.6061 270.329 77.6328 270.329C78.6528 270.329 79.4595 270.635 80.0528 271.249C80.6528 271.855 80.9528 272.835 80.9528 274.189C80.9528 274.922 80.8461 275.572 80.6328 276.139C80.4195 276.705 80.0695 277.149 79.5828 277.469C79.1028 277.789 78.4595 277.949 77.6528 277.949ZM77.5928 276.409C77.9395 276.409 78.1928 276.309 78.3528 276.109C78.5128 275.909 78.6161 275.642 78.6628 275.309C78.7095 274.975 78.7328 274.609 78.7328 274.209C78.7328 273.415 78.6561 272.825 78.5028 272.439C78.3495 272.045 78.0461 271.849 77.5928 271.849C77.1328 271.849 76.8228 272.042 76.6628 272.429C76.5095 272.815 76.4328 273.395 76.4328 274.169C76.4328 274.789 76.4995 275.319 76.6328 275.759C76.7728 276.192 77.0928 276.409 77.5928 276.409Z" fill="#00B6B6"/>
<path d="M196.826 311.149C196.826 328.874 182.457 343.243 164.731 343.243C147.006 343.243 132.637 328.874 132.637 311.149C132.637 293.423 147.006 279.054 164.731 279.054C182.457 279.054 196.826 293.423 196.826 311.149Z" fill="url(#paint4_linear_1099_12220)" fill-opacity="0.3"/>
<path d="M180.922 310.683C180.898 310.383 180.838 310.041 180.742 309.657C180.646 309.273 180.544 308.961 180.436 308.721H181.732C181.996 308.721 182.176 308.679 182.272 308.595C182.38 308.511 182.434 308.349 182.434 308.109V307.515H175.99V310.629H173.812V301.053H184.63V308.739C184.63 309.411 184.438 309.903 184.054 310.215C183.67 310.527 183.088 310.683 182.308 310.683H180.922ZM185.998 301.539C185.77 301.299 185.5 301.041 185.188 300.765C184.876 300.477 184.546 300.183 184.198 299.883C183.574 299.943 182.836 300.003 181.984 300.063C181.132 300.123 180.232 300.177 179.284 300.225C178.348 300.273 177.412 300.321 176.476 300.369C175.552 300.417 174.682 300.453 173.866 300.477C173.05 300.501 172.36 300.519 171.796 300.531L171.472 298.605C172 298.605 172.576 298.605 173.2 298.605C173.836 298.593 174.484 298.581 175.144 298.569C175.312 298.329 175.48 298.083 175.648 297.831C175.816 297.567 175.978 297.309 176.134 297.057H171.094V295.383H178.06V293.961H180.274V295.383H187.348V297.057H183.622C184.066 297.321 184.522 297.621 184.99 297.957C185.458 298.293 185.908 298.635 186.34 298.983C186.772 299.319 187.144 299.643 187.456 299.955C187.324 300.075 187.162 300.237 186.97 300.441C186.778 300.633 186.592 300.831 186.412 301.035C186.244 301.239 186.106 301.407 185.998 301.539ZM175.99 305.985H182.434V305.121H175.99V305.985ZM175.99 303.573H182.434V302.709H175.99V303.573ZM177.736 298.497C178.552 298.473 179.338 298.449 180.094 298.425C180.85 298.401 181.54 298.377 182.164 298.353C181.804 298.101 181.462 297.885 181.138 297.705L181.858 297.057H178.708C178.576 297.285 178.42 297.525 178.24 297.777C178.072 298.017 177.904 298.257 177.736 298.497Z" fill="#111111"/>
<path d="M155.31 310.557C155.298 310.377 155.268 310.161 155.22 309.909C155.172 309.657 155.118 309.417 155.058 309.189C154.998 308.949 154.938 308.757 154.878 308.613H156.03C156.27 308.613 156.438 308.577 156.534 308.505C156.63 308.433 156.678 308.283 156.678 308.055V306.957C155.994 307.029 155.346 307.089 154.734 307.137C154.122 307.173 153.618 307.203 153.222 307.227L153.006 305.391C153.378 305.391 153.894 305.367 154.554 305.319C155.214 305.271 155.922 305.217 156.678 305.157V304.113L157.452 304.095C157.488 304.059 157.56 303.987 157.668 303.879C157.776 303.771 157.884 303.663 157.992 303.555C158.1 303.447 158.166 303.375 158.19 303.339H156.282C155.886 303.639 155.478 303.927 155.058 304.203C154.638 304.467 154.206 304.713 153.762 304.941C153.678 304.773 153.528 304.539 153.312 304.239C153.096 303.927 152.88 303.675 152.664 303.483C153.012 303.315 153.342 303.141 153.654 302.961C153.978 302.781 154.29 302.589 154.59 302.385V301.701H155.526C155.766 301.521 155.988 301.335 156.192 301.143C156.408 300.951 156.618 300.759 156.822 300.567H153.078V298.911H156.066V297.561H153.708V295.941H156.066V294.105H158.064V295.941H159.522V297.147C159.75 296.763 159.96 296.385 160.152 296.013C160.344 295.641 160.518 295.269 160.674 294.897L162.42 295.653C162.156 296.217 161.862 296.775 161.538 297.327C161.226 297.867 160.884 298.395 160.512 298.911H161.628V300.009C162.132 299.073 162.552 298.071 162.888 297.003C163.236 295.935 163.458 294.951 163.554 294.051L165.498 294.357C165.318 295.485 165.036 296.613 164.652 297.741H169.494V299.541H168.414C168.306 300.801 168.102 301.959 167.802 303.015C167.502 304.071 167.094 305.031 166.578 305.895C167.49 307.023 168.618 307.995 169.962 308.811C169.806 308.967 169.632 309.153 169.44 309.369C169.248 309.585 169.068 309.795 168.9 309.999C168.744 310.203 168.642 310.359 168.594 310.467C167.346 309.639 166.272 308.661 165.372 307.533C164.22 308.793 162.72 309.783 160.872 310.503C160.776 310.275 160.626 309.993 160.422 309.657C160.23 309.321 160.026 309.033 159.81 308.793C160.77 308.493 161.616 308.097 162.348 307.605C163.092 307.101 163.722 306.525 164.238 305.877C163.89 305.241 163.59 304.587 163.338 303.915C163.098 303.243 162.912 302.553 162.78 301.845C162.648 302.061 162.51 302.271 162.366 302.475C162.222 302.667 162.078 302.853 161.934 303.033C161.85 302.937 161.742 302.841 161.61 302.745C161.478 302.649 161.34 302.553 161.196 302.457C160.992 302.685 160.74 302.955 160.44 303.267C160.14 303.567 159.834 303.867 159.522 304.167C159.222 304.467 158.946 304.731 158.694 304.959C159.39 304.899 160.026 304.833 160.602 304.761C161.19 304.689 161.652 304.623 161.988 304.563V306.237C161.616 306.321 161.136 306.405 160.548 306.489C159.96 306.573 159.33 306.657 158.658 306.741V308.811C158.658 309.423 158.484 309.867 158.136 310.143C157.788 310.419 157.26 310.557 156.552 310.557H155.31ZM165.372 304.023C165.684 303.351 165.924 302.637 166.092 301.881C166.272 301.125 166.386 300.345 166.434 299.541H164.274C164.298 300.369 164.4 301.155 164.58 301.899C164.772 302.643 165.036 303.351 165.372 304.023ZM158.172 301.701H160.494C160.782 301.353 161.052 300.975 161.304 300.567H159.234C159.066 300.759 158.892 300.951 158.712 301.143C158.544 301.335 158.364 301.521 158.172 301.701ZM158.064 298.911H158.298C158.466 298.695 158.628 298.473 158.784 298.245C158.952 298.017 159.114 297.789 159.27 297.561H158.064V298.911Z" fill="#111111"/>
<path d="M156.582 343.189L162.998 324.661H153.734V320.885H168.358L161.158 343.189H156.582Z" fill="#00B6B6"/>
<path d="M175.426 336.729C174.28 336.729 173.433 336.386 172.886 335.699C172.34 335.006 172.066 334.089 172.066 332.949C172.066 331.609 172.37 330.639 172.976 330.039C173.583 329.433 174.4 329.129 175.426 329.129C176.446 329.129 177.25 329.433 177.836 330.039C178.43 330.639 178.726 331.616 178.726 332.969C178.726 333.709 178.62 334.363 178.406 334.929C178.2 335.489 177.853 335.929 177.366 336.249C176.886 336.569 176.24 336.729 175.426 336.729ZM175.406 343.189L183.046 329.249H185.006L177.366 343.189H175.406ZM175.406 335.229C175.74 335.229 175.986 335.126 176.146 334.919C176.306 334.713 176.41 334.443 176.456 334.109C176.503 333.769 176.526 333.403 176.526 333.009C176.526 332.216 176.446 331.626 176.286 331.239C176.133 330.846 175.826 330.649 175.366 330.649C174.926 330.649 174.623 330.843 174.456 331.229C174.29 331.616 174.206 332.189 174.206 332.949C174.206 333.576 174.28 334.113 174.426 334.559C174.573 335.006 174.9 335.229 175.406 335.229ZM185.086 343.489C183.926 343.489 183.076 343.143 182.536 342.449C181.996 341.749 181.726 340.829 181.726 339.689C181.726 338.356 182.026 337.386 182.626 336.779C183.226 336.173 184.04 335.869 185.066 335.869C186.086 335.869 186.893 336.176 187.486 336.789C188.086 337.396 188.386 338.376 188.386 339.729C188.386 340.463 188.28 341.113 188.066 341.679C187.853 342.246 187.503 342.689 187.016 343.009C186.536 343.329 185.893 343.489 185.086 343.489ZM185.026 341.949C185.373 341.949 185.626 341.849 185.786 341.649C185.946 341.449 186.05 341.183 186.096 340.849C186.143 340.516 186.166 340.149 186.166 339.749C186.166 338.956 186.09 338.366 185.936 337.979C185.783 337.586 185.48 337.389 185.026 337.389C184.566 337.389 184.256 337.583 184.096 337.969C183.943 338.356 183.866 338.936 183.866 339.709C183.866 340.329 183.933 340.859 184.066 341.299C184.206 341.733 184.526 341.949 185.026 341.949Z" fill="#00B6B6"/>
<path d="M263.041 246.959C263.041 264.685 248.672 279.054 230.946 279.054C213.221 279.054 198.852 264.685 198.852 246.959C198.852 229.234 213.221 214.865 230.946 214.865C248.672 214.865 263.041 229.234 263.041 246.959Z" fill="url(#paint5_linear_1099_12220)" fill-opacity="0.3"/>
<path d="M270.455 247.886V243.182H278.263V247.886H270.455ZM266.791 248.222V239.966C266.588 240.222 266.386 240.462 266.183 240.686C265.98 240.91 265.778 241.118 265.575 241.31C265.415 241.118 265.207 240.915 264.951 240.702C264.706 240.478 264.46 240.297 264.215 240.158C264.61 239.806 265.015 239.353 265.431 238.798C265.847 238.233 266.242 237.63 266.615 236.99C266.999 236.339 267.324 235.71 267.591 235.102C267.868 234.494 268.06 233.966 268.167 233.518L269.895 234.094C269.607 235.054 269.202 236.019 268.679 236.99V248.222H266.791ZM269.351 237.87V236.366H279.335V237.87H269.351ZM270.711 240.126V238.67H277.959V240.126H270.711ZM270.711 242.366V240.926H277.959V242.366H270.711ZM270.711 235.566V234.126H277.959V235.566H270.711ZM272.471 246.318H276.263V244.75H272.471V246.318Z" fill="#111111"/>
<path d="M259.683 245.71C259.662 245.475 259.625 245.198 259.571 244.878C259.518 244.558 259.459 244.307 259.395 244.126H260.131C260.334 244.126 260.473 244.094 260.547 244.03C260.633 243.966 260.675 243.833 260.675 243.63V243.086H258.883V245.438H257.139V243.086H255.379V245.678H253.635V237.422H256.915C256.606 237.198 256.297 236.99 255.987 236.798C255.689 236.595 255.417 236.435 255.171 236.318L255.955 235.358H253.555V233.966H261.283L261.923 234.702C261.689 234.915 261.401 235.161 261.059 235.438C260.718 235.715 260.361 235.998 259.987 236.286C259.625 236.574 259.283 236.846 258.963 237.102C259.038 237.155 259.107 237.209 259.171 237.262C259.246 237.315 259.321 237.369 259.395 237.422H262.435V244.174C262.435 244.718 262.281 245.113 261.971 245.358C261.662 245.593 261.193 245.71 260.563 245.71H259.683ZM257.651 248.014C256.521 248.014 255.571 247.955 254.803 247.838C254.035 247.731 253.401 247.561 252.899 247.326C252.398 247.102 251.977 246.819 251.635 246.478C251.433 246.627 251.187 246.798 250.899 246.99C250.622 247.171 250.334 247.353 250.035 247.534C249.747 247.715 249.491 247.87 249.267 247.998L248.531 246.19C248.713 246.126 248.937 246.035 249.203 245.918C249.481 245.801 249.753 245.678 250.019 245.55C250.286 245.411 250.499 245.289 250.659 245.182V241.134H248.883V239.47H252.403V244.942C252.595 245.465 253.113 245.833 253.955 246.046C254.809 246.249 256.041 246.35 257.651 246.35C259.017 246.35 260.19 246.329 261.171 246.286C262.153 246.243 262.947 246.179 263.555 246.094C263.502 246.211 263.443 246.393 263.379 246.638C263.315 246.873 263.262 247.113 263.219 247.358C263.177 247.614 263.15 247.822 263.139 247.982C262.841 247.982 262.451 247.982 261.971 247.982C261.491 247.993 260.979 247.998 260.435 247.998C259.902 248.009 259.39 248.014 258.899 248.014C258.409 248.014 257.993 248.014 257.651 248.014ZM251.651 237.694C251.47 237.427 251.23 237.129 250.931 236.798C250.633 236.467 250.318 236.147 249.987 235.838C249.657 235.518 249.353 235.262 249.075 235.07L250.339 233.886C250.606 234.057 250.91 234.297 251.251 234.606C251.603 234.915 251.939 235.241 252.259 235.582C252.579 235.913 252.83 236.195 253.011 236.43C252.905 236.505 252.761 236.622 252.579 236.782C252.398 236.942 252.222 237.107 252.051 237.278C251.881 237.449 251.747 237.587 251.651 237.694ZM258.883 241.79H260.675V240.942H258.883V241.79ZM258.883 239.646H260.675V238.798H258.883V239.646ZM255.379 241.79H257.139V240.942H255.379V241.79ZM255.379 239.646H257.139V238.798H255.379V239.646ZM257.779 236.286C257.993 236.115 258.206 235.945 258.419 235.774C258.633 235.603 258.809 235.465 258.947 235.358H256.275C256.489 235.475 256.723 235.614 256.979 235.774C257.246 235.934 257.513 236.105 257.779 236.286Z" fill="#111111"/>
<path d="M243.283 242.734C242.793 242.734 242.377 242.563 242.035 242.222C241.694 241.881 241.523 241.465 241.523 240.974C241.523 240.483 241.694 240.067 242.035 239.726C242.377 239.385 242.793 239.214 243.283 239.214C243.774 239.214 244.19 239.385 244.531 239.726C244.873 240.067 245.043 240.483 245.043 240.974C245.043 241.465 244.873 241.881 244.531 242.222C244.19 242.563 243.774 242.734 243.283 242.734Z" fill="#111111"/>
<path d="M230.883 248.206V234.03H237.011V237.102C237.011 237.795 236.851 238.302 236.531 238.622C236.211 238.931 235.737 239.086 235.107 239.086H233.923C233.902 238.809 233.854 238.499 233.779 238.158C233.705 237.817 233.625 237.545 233.539 237.342H234.643C234.846 237.342 234.995 237.31 235.091 237.246C235.187 237.182 235.235 237.049 235.235 236.846V235.662H232.675V239.566H237.411C237.379 240.558 237.241 241.518 236.995 242.446C236.761 243.374 236.425 244.243 235.987 245.054C236.275 245.385 236.595 245.694 236.947 245.982C237.31 246.259 237.699 246.526 238.115 246.782C237.945 246.921 237.753 247.123 237.539 247.39C237.326 247.667 237.145 247.923 236.995 248.158C236.249 247.699 235.587 247.15 235.011 246.51C234.777 246.798 234.531 247.07 234.275 247.326C234.019 247.582 233.747 247.817 233.459 248.03C233.267 247.785 233.006 247.523 232.675 247.246V248.206H230.883ZM226.019 248.206V245.438H223.491V243.886H226.019V242.782H223.283V241.23H224.755C224.659 240.963 224.553 240.697 224.435 240.43C224.329 240.163 224.227 239.945 224.131 239.774L225.683 239.342C225.801 239.577 225.929 239.881 226.067 240.254C226.206 240.627 226.313 240.953 226.387 241.23H227.379C227.497 240.931 227.609 240.606 227.715 240.254C227.822 239.902 227.902 239.598 227.955 239.342L229.539 239.71C229.475 239.934 229.395 240.185 229.299 240.462C229.203 240.729 229.102 240.985 228.995 241.23H230.323V242.782H227.763V243.886H230.131V245.438H227.763V248.206H226.019ZM223.027 239.262V237.71H226.019V236.67H223.731V235.182H226.019V233.646H227.763V235.182H230.003V236.67H227.763V237.71H230.595V239.262H223.027ZM232.675 246.414C232.91 246.211 233.134 245.998 233.347 245.774C233.561 245.55 233.758 245.31 233.939 245.054C233.651 244.563 233.406 244.041 233.203 243.486C233.001 242.931 232.841 242.345 232.723 241.726L234.275 241.422C234.414 242.169 234.622 242.83 234.899 243.406C235.219 242.702 235.427 241.961 235.523 241.182H232.675V246.414Z" fill="#111111"/>
<path d="M209.351 248.238V233.662H211.207V236.382L211.975 235.854C212.167 236.078 212.385 236.361 212.631 236.702C212.887 237.033 213.1 237.321 213.271 237.566V236.638H215.831V236.046H212.407V234.75H215.831V233.614H217.735V234.75H221.399V236.046H217.735V236.638H220.407V237.886H217.735V238.526H221.863V239.822H211.927V238.526H212.039C211.932 238.334 211.804 238.121 211.655 237.886C211.505 237.651 211.356 237.433 211.207 237.23V248.238H209.351ZM217.527 248.254C217.505 247.998 217.463 247.71 217.399 247.39C217.345 247.07 217.276 246.809 217.191 246.606H218.167C218.38 246.606 218.519 246.569 218.583 246.494C218.657 246.419 218.695 246.281 218.695 246.078V245.646H215.079V248.238H213.175V240.43H220.583V246.622C220.583 247.177 220.423 247.587 220.103 247.854C219.793 248.121 219.292 248.254 218.599 248.254H217.527ZM208.263 241.246C208.145 241.193 207.985 241.139 207.783 241.086C207.591 241.022 207.393 240.963 207.191 240.91C206.999 240.857 206.844 240.819 206.727 240.798C206.801 240.563 206.876 240.265 206.951 239.902C207.025 239.529 207.089 239.134 207.143 238.718C207.207 238.302 207.26 237.907 207.303 237.534C207.345 237.15 207.367 236.83 207.367 236.574L208.983 236.734C208.972 237.107 208.94 237.523 208.887 237.982C208.833 238.43 208.769 238.873 208.695 239.31C208.62 239.747 208.54 240.142 208.455 240.494C208.38 240.835 208.316 241.086 208.263 241.246ZM215.079 244.382H218.695V243.694H215.079V244.382ZM215.079 242.43H218.695V241.774H215.079V242.43ZM212.471 238.526H215.831V237.886H213.367L212.471 238.526Z" fill="#111111"/>
<path d="M229.637 280.054L236.053 261.526H226.789V257.75H241.413L234.213 280.054H229.637Z" fill="#00B6B6"/>
<path d="M248.481 273.594C247.334 273.594 246.488 273.251 245.941 272.564C245.394 271.871 245.121 270.954 245.121 269.814C245.121 268.474 245.424 267.504 246.031 266.904C246.638 266.297 247.454 265.994 248.481 265.994C249.501 265.994 250.304 266.297 250.891 266.904C251.484 267.504 251.781 268.481 251.781 269.834C251.781 270.574 251.674 271.227 251.461 271.794C251.254 272.354 250.908 272.794 250.421 273.114C249.941 273.434 249.294 273.594 248.481 273.594ZM248.461 280.054L256.101 266.114H258.061L250.421 280.054H248.461ZM248.461 272.094C248.794 272.094 249.041 271.991 249.201 271.784C249.361 271.577 249.464 271.307 249.511 270.974C249.558 270.634 249.581 270.267 249.581 269.874C249.581 269.081 249.501 268.491 249.341 268.104C249.188 267.711 248.881 267.514 248.421 267.514C247.981 267.514 247.678 267.707 247.511 268.094C247.344 268.481 247.261 269.054 247.261 269.814C247.261 270.441 247.334 270.977 247.481 271.424C247.628 271.871 247.954 272.094 248.461 272.094ZM258.141 280.354C256.981 280.354 256.131 280.007 255.591 279.314C255.051 278.614 254.781 277.694 254.781 276.554C254.781 275.221 255.081 274.251 255.681 273.644C256.281 273.037 257.094 272.734 258.121 272.734C259.141 272.734 259.948 273.041 260.541 273.654C261.141 274.261 261.441 275.241 261.441 276.594C261.441 277.327 261.334 277.977 261.121 278.544C260.908 279.111 260.558 279.554 260.071 279.874C259.591 280.194 258.948 280.354 258.141 280.354ZM258.081 278.814C258.428 278.814 258.681 278.714 258.841 278.514C259.001 278.314 259.104 278.047 259.151 277.714C259.198 277.381 259.221 277.014 259.221 276.614C259.221 275.821 259.144 275.231 258.991 274.844C258.838 274.451 258.534 274.254 258.081 274.254C257.621 274.254 257.311 274.447 257.151 274.834C256.998 275.221 256.921 275.801 256.921 276.574C256.921 277.194 256.988 277.724 257.121 278.164C257.261 278.597 257.581 278.814 258.081 278.814Z" fill="#00B6B6"/>
<path d="M324.529 303.041C324.529 320.766 310.16 335.135 292.434 335.135C274.709 335.135 260.34 320.766 260.34 303.041C260.34 285.315 274.709 270.946 292.434 270.946C310.16 270.946 324.529 285.315 324.529 303.041Z" fill="url(#paint6_linear_1099_12220)" fill-opacity="0.3"/>
<path d="M323.134 315.089V310.329C322.173 310.366 321.24 310.394 320.334 310.413C319.438 310.432 318.664 310.446 318.01 310.455L317.758 308.943C318.337 308.952 319.046 308.952 319.886 308.943C320.726 308.934 321.599 308.924 322.504 308.915C322.168 308.626 321.8 308.327 321.398 308.019C320.997 307.711 320.591 307.412 320.18 307.123C319.779 306.834 319.392 306.582 319.018 306.367L320.04 305.093C320.255 305.233 320.474 305.378 320.698 305.527C320.922 305.676 321.146 305.83 321.37 305.989C321.576 305.746 321.786 305.48 322 305.191C322.215 304.892 322.411 304.608 322.588 304.337C321.926 304.374 321.277 304.398 320.642 304.407C320.008 304.416 319.415 304.416 318.864 304.407C318.827 304.183 318.766 303.926 318.682 303.637C318.598 303.338 318.519 303.086 318.444 302.881C318.939 302.918 319.518 302.937 320.18 302.937C320.843 302.937 321.543 302.923 322.28 302.895C323.018 302.858 323.741 302.806 324.45 302.741C325.169 302.676 325.832 302.596 326.438 302.503C327.054 302.41 327.568 302.307 327.978 302.195L329.084 303.553C328.431 303.712 327.642 303.852 326.718 303.973C325.804 304.094 324.847 304.192 323.848 304.267L324.436 304.589C324.306 304.794 324.142 305.037 323.946 305.317C323.76 305.588 323.554 305.868 323.33 306.157C323.106 306.437 322.887 306.703 322.672 306.955C322.831 307.076 322.98 307.198 323.12 307.319C323.27 307.44 323.419 307.566 323.568 307.697C323.876 307.361 324.184 307.011 324.492 306.647C324.81 306.274 325.099 305.924 325.36 305.597C325.631 305.261 325.836 304.981 325.976 304.757L327.446 305.625C327.204 305.952 326.919 306.306 326.592 306.689C326.266 307.072 325.925 307.45 325.57 307.823C325.225 308.196 324.884 308.542 324.548 308.859C325.099 308.84 325.612 308.826 326.088 308.817C326.574 308.798 327.003 308.784 327.376 308.775C327.264 308.635 327.148 308.5 327.026 308.369C326.914 308.238 326.802 308.112 326.69 307.991L327.922 307.137C328.221 307.426 328.524 307.767 328.832 308.159C329.15 308.551 329.444 308.948 329.714 309.349C329.985 309.741 330.204 310.1 330.372 310.427C330.26 310.483 330.116 310.562 329.938 310.665C329.77 310.768 329.602 310.875 329.434 310.987C329.276 311.099 329.145 311.202 329.042 311.295C328.949 311.108 328.837 310.912 328.706 310.707C328.585 310.492 328.454 310.282 328.314 310.077C327.838 310.105 327.302 310.138 326.704 310.175C326.107 310.203 325.477 310.231 324.814 310.259V315.089H323.134ZM329.154 314.599C328.482 314.263 327.829 313.838 327.194 313.325C326.56 312.812 326.032 312.298 325.612 311.785L326.774 310.833C327.026 311.132 327.334 311.435 327.698 311.743C328.062 312.042 328.454 312.326 328.874 312.597C329.304 312.858 329.724 313.082 330.134 313.269C329.929 313.446 329.742 313.661 329.574 313.913C329.406 314.165 329.266 314.394 329.154 314.599ZM318.766 314.599C318.664 314.394 318.514 314.17 318.318 313.927C318.132 313.684 317.936 313.488 317.73 313.339C318.132 313.18 318.542 312.966 318.962 312.695C319.382 312.415 319.774 312.116 320.138 311.799C320.512 311.472 320.82 311.16 321.062 310.861L322.308 311.785C322.038 312.13 321.711 312.48 321.328 312.835C320.946 313.18 320.53 313.507 320.082 313.815C319.644 314.114 319.205 314.375 318.766 314.599Z" fill="#111111"/>
<path d="M314.915 315.299C314.504 315.159 314.047 314.977 313.543 314.753C313.039 314.538 312.553 314.305 312.087 314.053C311.62 313.801 311.228 313.558 310.911 313.325L311.583 312.625H308.377L309.049 313.325C308.741 313.558 308.353 313.801 307.887 314.053C307.42 314.296 306.935 314.524 306.431 314.739C305.927 314.963 305.46 315.145 305.031 315.285C304.965 315.173 304.877 315.033 304.765 314.865C304.653 314.706 304.531 314.548 304.401 314.389C304.279 314.24 304.163 314.118 304.051 314.025C304.331 313.95 304.671 313.843 305.073 313.703C305.483 313.554 305.903 313.386 306.333 313.199C306.762 313.012 307.14 312.821 307.467 312.625H305.339V306.325H314.635V312.625H312.493C312.829 312.812 313.207 312.994 313.627 313.171C314.056 313.348 314.471 313.507 314.873 313.647C315.283 313.787 315.624 313.89 315.895 313.955C315.783 314.048 315.661 314.179 315.531 314.347C315.4 314.515 315.279 314.683 315.167 314.851C315.064 315.028 314.98 315.178 314.915 315.299ZM305.745 305.723V302.615H314.201V305.723H305.745ZM307.453 304.547H312.493V303.777H307.453V304.547ZM307.103 311.491H312.871V310.847H307.103V311.491ZM307.103 309.783H312.871V309.139H307.103V309.783ZM307.103 308.075H312.871V307.459H307.103V308.075Z" fill="#111111"/>
<path d="M290.805 315.159C290.786 314.944 290.744 314.678 290.679 314.361C290.614 314.053 290.544 313.81 290.469 313.633H291.379C291.556 313.633 291.682 313.605 291.757 313.549C291.841 313.493 291.883 313.376 291.883 313.199V310.777C291.622 311.15 291.356 311.5 291.085 311.827C290.814 312.154 290.544 312.438 290.273 312.681C290.133 312.504 289.951 312.322 289.727 312.135C289.512 311.939 289.312 311.794 289.125 311.701C289.452 311.421 289.783 311.076 290.119 310.665C290.464 310.254 290.786 309.825 291.085 309.377C291.384 308.92 291.626 308.504 291.813 308.131H289.601V306.759H292.611C292.266 306.507 291.897 306.255 291.505 306.003C291.113 305.751 290.763 305.546 290.455 305.387L291.309 304.323C291.477 304.407 291.659 304.505 291.855 304.617C292.06 304.729 292.27 304.85 292.485 304.981C292.625 304.822 292.774 304.64 292.933 304.435C293.092 304.23 293.208 304.076 293.283 303.973H289.937V302.727H295.047L295.677 303.217C295.528 303.432 295.332 303.688 295.089 303.987C294.846 304.286 294.594 304.589 294.333 304.897C294.072 305.205 293.829 305.48 293.605 305.723C293.726 305.798 293.838 305.872 293.941 305.947C294.044 306.022 294.142 306.096 294.235 306.171C294.188 306.236 294.123 306.32 294.039 306.423C293.955 306.526 293.866 306.638 293.773 306.759H295.355L295.957 307.193C295.92 307.296 295.868 307.436 295.803 307.613C295.747 307.781 295.677 307.968 295.593 308.173C296.414 307.949 297.138 307.604 297.763 307.137C297.558 306.913 297.371 306.675 297.203 306.423C297.035 306.171 296.872 305.9 296.713 305.611C296.564 305.798 296.41 305.975 296.251 306.143C296.092 306.311 295.934 306.47 295.775 306.619C295.626 306.46 295.444 306.306 295.229 306.157C295.014 305.998 294.814 305.872 294.627 305.779C294.963 305.48 295.294 305.116 295.621 304.687C295.948 304.258 296.237 303.824 296.489 303.385C296.75 302.937 296.928 302.55 297.021 302.223L298.491 302.587C298.379 302.895 298.239 303.203 298.071 303.511H302.215V304.813H301.221C301.053 305.233 300.866 305.63 300.661 306.003C300.456 306.367 300.218 306.712 299.947 307.039C300.339 307.291 300.759 307.506 301.207 307.683C301.664 307.851 302.136 307.991 302.621 308.103C302.472 308.262 302.327 308.481 302.187 308.761C302.047 309.032 301.94 309.27 301.865 309.475C301.296 309.344 300.759 309.167 300.255 308.943C299.751 308.719 299.28 308.448 298.841 308.131C298.561 308.355 298.253 308.565 297.917 308.761L299.079 308.845C299.07 309.041 299.051 309.237 299.023 309.433C298.995 309.62 298.967 309.806 298.939 309.993H301.823C301.814 310.404 301.79 310.828 301.753 311.267C301.725 311.706 301.683 312.126 301.627 312.527C301.58 312.919 301.524 313.26 301.459 313.549C301.328 314.174 301.095 314.594 300.759 314.809C300.423 315.024 299.952 315.131 299.345 315.131H298.491C298.482 314.991 298.458 314.818 298.421 314.613C298.393 314.417 298.356 314.226 298.309 314.039C298.262 313.843 298.216 313.689 298.169 313.577H299.023C299.359 313.577 299.583 313.535 299.695 313.451C299.816 313.358 299.91 313.171 299.975 312.891C300.022 312.676 300.064 312.434 300.101 312.163C300.138 311.883 300.162 311.626 300.171 311.393H298.631C298.37 312.261 297.954 313.008 297.385 313.633C296.825 314.258 296.008 314.762 294.935 315.145C294.851 314.958 294.72 314.73 294.543 314.459C294.366 314.188 294.198 313.978 294.039 313.829C294.814 313.614 295.444 313.306 295.929 312.905C296.414 312.494 296.778 311.99 297.021 311.393H295.033V309.993H297.385C297.432 309.685 297.46 309.349 297.469 308.985C297.236 309.106 296.988 309.218 296.727 309.321C296.466 309.424 296.186 309.522 295.887 309.615C295.822 309.466 295.747 309.307 295.663 309.139C295.588 308.971 295.504 308.803 295.411 308.635C295.262 309.018 295.103 309.396 294.935 309.769C294.776 310.133 294.646 310.399 294.543 310.567C294.403 310.483 294.226 310.394 294.011 310.301C293.796 310.208 293.596 310.138 293.409 310.091V313.801C293.409 314.706 292.868 315.159 291.785 315.159H290.805ZM298.799 306.115C299.107 305.714 299.354 305.28 299.541 304.813H297.861C298.132 305.317 298.444 305.751 298.799 306.115ZM293.409 309.783C293.502 309.596 293.596 309.391 293.689 309.167C293.792 308.943 293.885 308.733 293.969 308.537C294.053 308.341 294.109 308.206 294.137 308.131H293.409V309.783Z" fill="#111111"/>
<path d="M286.115 314.991C286.012 314.795 285.877 314.566 285.709 314.305C285.55 314.044 285.373 313.768 285.177 313.479C284.757 313.544 284.244 313.614 283.637 313.689C283.03 313.764 282.386 313.843 281.705 313.927C281.033 314.002 280.366 314.072 279.703 314.137C279.05 314.212 278.452 314.272 277.911 314.319C277.37 314.375 276.94 314.417 276.623 314.445L276.259 312.793C276.464 312.784 276.735 312.77 277.071 312.751C277.407 312.732 277.785 312.704 278.205 312.667C278.429 312.256 278.676 311.78 278.947 311.239C279.218 310.688 279.479 310.124 279.731 309.545C279.992 308.966 280.221 308.43 280.417 307.935C280.622 307.431 280.772 307.025 280.865 306.717L282.545 307.333C282.424 307.669 282.27 308.052 282.083 308.481C281.896 308.91 281.691 309.363 281.467 309.839C281.243 310.315 281.014 310.782 280.781 311.239C280.557 311.696 280.338 312.121 280.123 312.513C280.842 312.457 281.56 312.396 282.279 312.331C283.007 312.256 283.642 312.186 284.183 312.121C283.894 311.738 283.604 311.384 283.315 311.057C283.035 310.73 282.778 310.464 282.545 310.259L283.791 309.223C284.071 309.484 284.384 309.811 284.729 310.203C285.084 310.586 285.438 311.001 285.793 311.449C286.157 311.888 286.498 312.326 286.815 312.765C287.142 313.194 287.417 313.582 287.641 313.927C287.492 314.011 287.319 314.114 287.123 314.235C286.927 314.366 286.74 314.496 286.563 314.627C286.386 314.767 286.236 314.888 286.115 314.991ZM287.613 309.839C286.866 309.419 286.19 308.924 285.583 308.355C284.976 307.786 284.463 307.174 284.043 306.521C283.623 305.868 283.315 305.205 283.119 304.533H280.753V303.021H284.477C284.542 303.646 284.706 304.234 284.967 304.785C285.238 305.326 285.574 305.826 285.975 306.283C286.376 306.731 286.82 307.137 287.305 307.501C287.79 307.856 288.285 308.168 288.789 308.439C288.668 308.542 288.528 308.677 288.369 308.845C288.22 309.013 288.075 309.19 287.935 309.377C287.804 309.554 287.697 309.708 287.613 309.839ZM276.525 309.993C276.432 309.872 276.301 309.741 276.133 309.601C275.965 309.452 275.788 309.312 275.601 309.181C275.424 309.05 275.265 308.952 275.125 308.887C275.517 308.626 275.904 308.29 276.287 307.879C276.67 307.468 277.029 307.025 277.365 306.549C277.701 306.073 277.99 305.606 278.233 305.149C278.476 304.682 278.653 304.267 278.765 303.903L280.389 304.547C279.932 305.648 279.362 306.67 278.681 307.613C278 308.556 277.281 309.349 276.525 309.993Z" fill="#111111"/>
<path d="M323.316 289.109V287.779H327.236V286.883H321.888V285.525H327.236V284.377H328.986V285.525H334.418V286.883H328.986V287.779H332.976V289.109H323.316ZM322.21 292.665V289.823H334.096V292.609H332.374V291.167H323.974V292.665H322.21ZM330.12 296.865C329.541 296.865 329.135 296.776 328.902 296.599C328.669 296.431 328.552 296.142 328.552 295.731V291.629H330.26V294.905C330.26 295.045 330.293 295.148 330.358 295.213C330.433 295.269 330.573 295.297 330.778 295.297H332.08C332.453 295.297 332.705 295.185 332.836 294.961C332.967 294.737 333.06 294.312 333.116 293.687C333.303 293.78 333.555 293.888 333.872 294.009C334.199 294.121 334.479 294.205 334.712 294.261C334.609 294.989 334.474 295.54 334.306 295.913C334.147 296.286 333.928 296.538 333.648 296.669C333.377 296.8 333.009 296.865 332.542 296.865H330.12ZM322.434 297.215C322.369 297.019 322.261 296.767 322.112 296.459C321.972 296.16 321.823 295.922 321.664 295.745C322.607 295.586 323.372 295.362 323.96 295.073C324.557 294.784 325.001 294.368 325.29 293.827C325.579 293.276 325.747 292.544 325.794 291.629L327.432 291.853C327.329 293.402 326.872 294.602 326.06 295.451C325.248 296.3 324.039 296.888 322.434 297.215Z" fill="#111111"/>
<path d="M315.306 297.159C315.175 296.982 315.007 296.79 314.802 296.585C314.606 296.38 314.424 296.226 314.256 296.123C314.75 295.824 315.198 295.484 315.6 295.101C316.01 294.709 316.374 294.289 316.692 293.841C316.374 293.225 316.108 292.558 315.894 291.839C315.679 291.111 315.53 290.332 315.446 289.501H315.362V289.655C315.362 290.784 315.296 291.788 315.166 292.665C315.035 293.542 314.82 294.34 314.522 295.059C314.223 295.778 313.812 296.468 313.29 297.131C313.122 297 312.921 296.87 312.688 296.739C312.464 296.608 312.244 296.496 312.03 296.403C312.076 296.347 312.123 296.291 312.17 296.235C312.216 296.179 312.258 296.123 312.296 296.067C312.025 295.806 311.759 295.521 311.498 295.213C311.236 294.905 311.008 294.606 310.812 294.317L311.694 293.673H308.474V284.783H312.856V293.673H312.072C312.202 293.86 312.352 294.051 312.52 294.247C312.697 294.434 312.874 294.62 313.052 294.807C313.35 294.154 313.565 293.416 313.696 292.595C313.836 291.764 313.906 290.784 313.906 289.655V284.797H320.346V286.197H315.362V288.157H319.464L319.954 288.521C319.842 289.538 319.66 290.495 319.408 291.391C319.165 292.287 318.82 293.122 318.372 293.897C318.988 294.737 319.734 295.418 320.612 295.941C320.416 296.09 320.22 296.277 320.024 296.501C319.828 296.725 319.664 296.93 319.534 297.117C319.16 296.846 318.801 296.543 318.456 296.207C318.12 295.88 317.807 295.526 317.518 295.143C317.219 295.516 316.883 295.871 316.51 296.207C316.146 296.543 315.744 296.86 315.306 297.159ZM308.81 297.089C308.707 297.014 308.572 296.926 308.404 296.823C308.245 296.73 308.086 296.636 307.928 296.543C307.769 296.45 307.629 296.384 307.508 296.347C307.704 296.142 307.904 295.89 308.11 295.591C308.315 295.292 308.506 294.984 308.684 294.667C308.861 294.35 308.996 294.06 309.09 293.799L310.392 294.359C310.28 294.648 310.135 294.961 309.958 295.297C309.78 295.624 309.589 295.946 309.384 296.263C309.188 296.58 308.996 296.856 308.81 297.089ZM317.504 292.413C317.905 291.517 318.171 290.546 318.302 289.501H316.734C316.864 290.574 317.121 291.545 317.504 292.413ZM309.86 292.315H311.47V291.027H309.86V292.315ZM309.86 289.795H311.47V288.577H309.86V289.795ZM309.86 287.345H311.47V286.141H309.86V287.345Z" fill="#111111"/>
<path d="M302.974 292.301C302.544 292.301 302.18 292.152 301.882 291.853C301.583 291.554 301.434 291.19 301.434 290.761C301.434 290.332 301.583 289.968 301.882 289.669C302.18 289.37 302.544 289.221 302.974 289.221C303.403 289.221 303.767 289.37 304.066 289.669C304.364 289.968 304.514 290.332 304.514 290.761C304.514 291.19 304.364 291.554 304.066 291.853C303.767 292.152 303.403 292.301 302.974 292.301Z" fill="#111111"/>
<path d="M293.55 297.075C293.541 296.926 293.518 296.744 293.48 296.529C293.443 296.324 293.396 296.118 293.34 295.913C293.294 295.708 293.242 295.544 293.186 295.423H294.25C294.446 295.423 294.586 295.395 294.67 295.339C294.754 295.274 294.796 295.148 294.796 294.961V290.789C294.33 291.554 293.793 292.287 293.186 292.987C292.58 293.678 291.959 294.266 291.324 294.751C291.25 294.63 291.138 294.494 290.988 294.345C290.848 294.186 290.699 294.037 290.54 293.897C290.382 293.748 290.237 293.631 290.106 293.547C290.489 293.304 290.876 292.996 291.268 292.623C291.67 292.25 292.057 291.839 292.43 291.391C292.813 290.943 293.163 290.481 293.48 290.005C293.798 289.529 294.068 289.062 294.292 288.605H291.94V287.135H294.796V284.447H296.462V287.135H298.184V288.605H296.462V295.619C296.462 296.132 296.318 296.501 296.028 296.725C295.739 296.958 295.296 297.075 294.698 297.075H293.55ZM287.908 297.075V292.035C287.656 292.464 287.4 292.87 287.138 293.253C286.886 293.636 286.639 293.962 286.396 294.233C286.228 294.065 286.018 293.878 285.766 293.673C285.514 293.468 285.281 293.318 285.066 293.225C285.318 292.992 285.58 292.693 285.85 292.329C286.13 291.956 286.401 291.554 286.662 291.125C286.933 290.686 287.176 290.257 287.39 289.837C287.614 289.408 287.787 289.02 287.908 288.675V288.605H285.556V287.149H287.908V284.461H289.532V287.149H291.352V288.605H289.532V289.067C289.71 289.31 289.938 289.59 290.218 289.907C290.508 290.215 290.797 290.509 291.086 290.789C291.385 291.069 291.632 291.288 291.828 291.447C291.726 291.531 291.6 291.648 291.45 291.797C291.31 291.946 291.175 292.096 291.044 292.245C290.914 292.394 290.816 292.52 290.75 292.623C290.592 292.464 290.4 292.264 290.176 292.021C289.962 291.778 289.747 291.526 289.532 291.265V297.075H287.908Z" fill="#111111"/>
<path d="M272.479 297.019C272.348 296.786 272.185 296.534 271.989 296.263C271.793 296.002 271.592 295.782 271.387 295.605C272.423 295.101 273.356 294.485 274.187 293.757C275.017 293.02 275.671 292.17 276.147 291.209C276.632 290.248 276.875 289.188 276.875 288.031V284.601H278.611V287.555C278.611 288.488 278.765 289.361 279.073 290.173C279.381 290.985 279.801 291.727 280.333 292.399C280.865 293.071 281.467 293.664 282.139 294.177C282.811 294.681 283.515 295.096 284.253 295.423C284.075 295.619 283.879 295.871 283.665 296.179C283.459 296.487 283.296 296.758 283.175 296.991C282.381 296.58 281.635 296.076 280.935 295.479C280.235 294.882 279.619 294.214 279.087 293.477C278.564 292.74 278.149 291.965 277.841 291.153C277.57 291.993 277.164 292.782 276.623 293.519C276.081 294.247 275.456 294.91 274.747 295.507C274.037 296.095 273.281 296.599 272.479 297.019Z" fill="#111111"/>
<path d="M289.325 346.081L295.741 327.553H286.477V323.777H301.101L293.901 346.081H289.325Z" fill="#00B6B6"/>
<path d="M308.169 339.621C307.022 339.621 306.175 339.278 305.629 338.591C305.082 337.898 304.809 336.981 304.809 335.841C304.809 334.501 305.112 333.531 305.719 332.931C306.325 332.324 307.142 332.021 308.169 332.021C309.189 332.021 309.992 332.324 310.579 332.931C311.172 333.531 311.469 334.508 311.469 335.861C311.469 336.601 311.362 337.254 311.149 337.821C310.942 338.381 310.595 338.821 310.109 339.141C309.629 339.461 308.982 339.621 308.169 339.621ZM308.149 346.081L315.789 332.141H317.749L310.109 346.081H308.149ZM308.149 338.121C308.482 338.121 308.729 338.018 308.889 337.811C309.049 337.604 309.152 337.334 309.199 337.001C309.245 336.661 309.269 336.294 309.269 335.901C309.269 335.108 309.189 334.518 309.029 334.131C308.875 333.738 308.569 333.541 308.109 333.541C307.669 333.541 307.365 333.734 307.199 334.121C307.032 334.508 306.949 335.081 306.949 335.841C306.949 336.468 307.022 337.004 307.169 337.451C307.315 337.898 307.642 338.121 308.149 338.121ZM317.829 346.381C316.669 346.381 315.819 346.034 315.279 345.341C314.739 344.641 314.469 343.721 314.469 342.581C314.469 341.248 314.769 340.278 315.369 339.671C315.969 339.064 316.782 338.761 317.809 338.761C318.829 338.761 319.635 339.068 320.229 339.681C320.829 340.288 321.129 341.268 321.129 342.621C321.129 343.354 321.022 344.004 320.809 344.571C320.595 345.138 320.245 345.581 319.759 345.901C319.279 346.221 318.635 346.381 317.829 346.381ZM317.769 344.841C318.115 344.841 318.369 344.741 318.529 344.541C318.689 344.341 318.792 344.074 318.839 343.741C318.885 343.408 318.909 343.041 318.909 342.641C318.909 341.848 318.832 341.258 318.679 340.871C318.525 340.478 318.222 340.281 317.769 340.281C317.309 340.281 316.999 340.474 316.839 340.861C316.685 341.248 316.609 341.828 316.609 342.601C316.609 343.221 316.675 343.751 316.809 344.191C316.949 344.624 317.269 344.841 317.769 344.841Z" fill="#00B6B6"/>
<defs>
<linearGradient id="paint0_linear_1099_12220" x1="242.769" y1="50" x2="242.769" y2="201.351" gradientUnits="userSpaceOnUse">
<stop stop-color="#17B9FB" stop-opacity="0.6"/>
<stop offset="1" stop-color="#2DD5B9" stop-opacity="0.6"/>
</linearGradient>
<linearGradient id="paint1_linear_1099_12220" x1="90.4069" y1="64.8649" x2="90.4069" y2="181.757" gradientUnits="userSpaceOnUse">
<stop stop-color="#17B9FB" stop-opacity="0.6"/>
<stop offset="1" stop-color="#2DD5B9" stop-opacity="0.6"/>
</linearGradient>
<linearGradient id="paint2_linear_1099_12220" x1="140.405" y1="177.703" x2="140.405" y2="268.919" gradientUnits="userSpaceOnUse">
<stop stop-color="#17B9FB" stop-opacity="0.6"/>
<stop offset="1" stop-color="#2DD5B9" stop-opacity="0.6"/>
</linearGradient>
<linearGradient id="paint3_linear_1099_12220" x1="56.6219" y1="212.162" x2="56.6219" y2="276.351" gradientUnits="userSpaceOnUse">
<stop stop-color="#17B9FB" stop-opacity="0.6"/>
<stop offset="1" stop-color="#2DD5B9" stop-opacity="0.6"/>
</linearGradient>
<linearGradient id="paint4_linear_1099_12220" x1="164.731" y1="279.054" x2="164.731" y2="343.243" gradientUnits="userSpaceOnUse">
<stop stop-color="#17B9FB" stop-opacity="0.6"/>
<stop offset="1" stop-color="#2DD5B9" stop-opacity="0.6"/>
</linearGradient>
<linearGradient id="paint5_linear_1099_12220" x1="230.946" y1="214.865" x2="230.946" y2="279.054" gradientUnits="userSpaceOnUse">
<stop stop-color="#17B9FB" stop-opacity="0.6"/>
<stop offset="1" stop-color="#2DD5B9" stop-opacity="0.6"/>
</linearGradient>
<linearGradient id="paint6_linear_1099_12220" x1="292.434" y1="270.946" x2="292.434" y2="335.135" gradientUnits="userSpaceOnUse">
<stop stop-color="#17B9FB" stop-opacity="0.6"/>
<stop offset="1" stop-color="#2DD5B9" stop-opacity="0.6"/>
</linearGradient>
</defs>
</svg>
