<svg width="550" height="530" viewBox="0 0 550 530" fill="none" xmlns="http://www.w3.org/2000/svg">
<rect width="550" height="530" fill="white"/>
<path d="M499.766 133.254C499.766 189.727 453.985 235.508 397.512 235.508C341.038 235.508 295.258 189.727 295.258 133.254C295.258 76.7807 341.038 31 397.512 31C453.985 31 499.766 76.7807 499.766 133.254Z" fill="url(#paint0_linear_1099_11209)" fill-opacity="0.3"/>
<path d="M407.445 178.216V174.536H414.645V163.4H409.237V159.72H414.645V150.28H418.517V159.72H424.085V163.4H418.517V174.536H424.949V178.216H407.445ZM401.077 179.24V168.584C400.479 169.117 399.861 169.651 399.221 170.184C398.581 170.696 397.919 171.187 397.237 171.656C396.959 171.229 396.554 170.728 396.021 170.152C395.487 169.576 395.029 169.128 394.645 168.808C395.498 168.317 396.394 167.709 397.333 166.984C398.293 166.237 399.231 165.427 400.149 164.552C401.066 163.656 401.898 162.76 402.645 161.864C403.391 160.947 403.989 160.093 404.437 159.304H396.341V155.848H401.045V150.248H404.757V155.848H407.701L409.429 157.288C408.533 159.293 407.37 161.256 405.941 163.176C406.495 163.56 407.093 163.965 407.733 164.392C408.394 164.797 409.023 165.181 409.621 165.544C410.218 165.885 410.709 166.163 411.093 166.376C410.879 166.589 410.623 166.888 410.325 167.272C410.047 167.635 409.77 168.019 409.493 168.424C409.237 168.808 409.034 169.139 408.885 169.416C408.309 169.032 407.658 168.595 406.933 168.104C406.207 167.592 405.493 167.091 404.789 166.6V179.24H401.077Z" fill="#111111"/>
<path d="M388.053 179.72C387.797 179.229 387.455 178.685 387.029 178.088C386.623 177.491 386.165 176.883 385.653 176.264C384.671 176.435 383.541 176.616 382.261 176.808C380.981 177 379.626 177.192 378.197 177.384C376.767 177.576 375.349 177.747 373.941 177.896C372.554 178.067 371.253 178.205 370.037 178.312C368.842 178.44 367.818 178.536 366.965 178.6L366.229 174.792C366.698 174.792 367.274 174.781 367.957 174.76C368.661 174.717 369.418 174.664 370.229 174.6C370.719 173.853 371.221 172.968 371.733 171.944C372.266 170.92 372.735 169.949 373.141 169.032H365.269V165.608H391.477V169.032H383.765C384.341 169.48 384.981 170.045 385.685 170.728C386.389 171.411 387.103 172.147 387.829 172.936C388.554 173.704 389.215 174.461 389.813 175.208C390.431 175.955 390.922 176.605 391.285 177.16C391.007 177.331 390.655 177.576 390.229 177.896C389.802 178.216 389.386 178.536 388.981 178.856C388.575 179.197 388.266 179.485 388.053 179.72ZM365.077 163.656C364.927 163.357 364.714 163.005 364.437 162.6C364.159 162.195 363.861 161.8 363.541 161.416C363.221 161.032 362.922 160.723 362.645 160.488C363.967 159.976 365.322 159.315 366.709 158.504C368.117 157.672 369.471 156.765 370.773 155.784C372.074 154.781 373.237 153.768 374.261 152.744C375.285 151.699 376.074 150.717 376.629 149.8L380.245 150.312C380.927 151.229 381.802 152.168 382.869 153.128C383.935 154.088 385.098 155.005 386.357 155.88C387.637 156.733 388.938 157.512 390.261 158.216C391.583 158.92 392.853 159.496 394.069 159.944C393.749 160.2 393.407 160.552 393.045 161C392.682 161.427 392.341 161.864 392.021 162.312C391.722 162.76 391.498 163.144 391.349 163.464C390.517 163.101 389.653 162.675 388.757 162.184C387.882 161.693 386.997 161.16 386.101 160.584V163.304H370.645V160.488C369.663 161.149 368.693 161.757 367.733 162.312C366.773 162.845 365.887 163.293 365.077 163.656ZM371.541 159.848H385.045C383.743 158.952 382.506 157.992 381.333 156.968C380.159 155.923 379.167 154.877 378.357 153.832C377.631 154.792 376.661 155.805 375.445 156.872C374.229 157.917 372.927 158.909 371.541 159.848ZM374.933 174.216C376.362 174.088 377.781 173.949 379.189 173.8C380.597 173.629 381.877 173.469 383.029 173.32C382.111 172.381 381.301 171.656 380.597 171.144L383.093 169.032H377.621C377.258 169.864 376.831 170.739 376.341 171.656C375.871 172.552 375.402 173.405 374.933 174.216Z" fill="#111111"/>
<path d="M464.638 127.96C463.305 128.707 462.052 129.013 460.878 128.88C459.705 128.72 458.665 127.96 457.758 126.6C456.932 125.32 456.172 123.813 455.478 122.08C454.785 120.347 454.185 118.507 453.678 116.56C453.198 114.613 452.825 112.667 452.558 110.72C452.318 108.773 452.212 106.947 452.238 105.24L457.118 105.28C457.038 106.587 457.078 108.013 457.238 109.56C457.398 111.107 457.652 112.667 457.998 114.24C458.345 115.813 458.758 117.28 459.238 118.64C459.718 119.973 460.238 121.093 460.798 122C461.172 122.64 461.572 123.013 461.998 123.12C462.452 123.2 462.932 123.08 463.438 122.76C464.078 122.333 464.745 121.747 465.438 121C466.158 120.253 466.758 119.533 467.238 118.84C467.372 119.24 467.585 119.693 467.878 120.2C468.198 120.707 468.532 121.2 468.878 121.68C469.252 122.16 469.585 122.547 469.878 122.84C469.158 123.907 468.332 124.893 467.398 125.8C466.492 126.707 465.572 127.427 464.638 127.96ZM479.758 120.48C479.492 119.707 479.078 118.747 478.518 117.6C477.958 116.453 477.318 115.267 476.598 114.04C475.878 112.787 475.158 111.64 474.438 110.6C473.718 109.533 473.052 108.707 472.438 108.12L476.278 105.68C476.945 106.347 477.678 107.24 478.478 108.36C479.305 109.48 480.105 110.68 480.878 111.96C481.678 113.213 482.385 114.44 482.998 115.64C483.612 116.813 484.052 117.813 484.318 118.64C483.492 118.8 482.652 119.053 481.798 119.4C480.972 119.747 480.292 120.107 479.758 120.48Z" fill="#00B6B6"/>
<path d="M426.8 133.24C424.667 133.24 422.933 133.027 421.6 132.6C420.293 132.173 419.333 131.453 418.72 130.44C418.133 129.427 417.84 128.053 417.84 126.32V99.88L423.08 100.2C423.027 100.653 422.973 101.413 422.92 102.48C422.867 103.547 422.827 104.693 422.8 105.92C422.773 106.907 422.747 107.987 422.72 109.16C422.72 110.333 422.72 111.627 422.72 113.04V125.36C422.72 126.533 423.04 127.333 423.68 127.76C424.347 128.187 425.493 128.4 427.12 128.4C429.733 128.4 432.2 127.907 434.52 126.92C436.867 125.933 438.893 124.707 440.6 123.24C440.627 123.747 440.68 124.36 440.76 125.08C440.867 125.773 440.973 126.44 441.08 127.08C441.213 127.693 441.32 128.173 441.4 128.52C439.48 129.907 437.24 131.04 434.68 131.92C432.147 132.8 429.52 133.24 426.8 133.24Z" fill="#00B6B6"/>
<path d="M380.88 135.32C380.72 134.76 380.493 134.133 380.2 133.44C379.933 132.747 379.627 132.2 379.28 131.8C380.853 131.667 382.48 131.427 384.16 131.08C385.867 130.707 387.493 130.267 389.04 129.76C388.213 129.12 387.4 128.36 386.6 127.48C385.773 127.987 384.92 128.453 384.04 128.88C383.187 129.307 382.333 129.667 381.48 129.96C381.32 129.56 381.053 129.067 380.68 128.48C380.307 127.867 379.933 127.373 379.56 127C380.973 126.6 382.48 125.96 384.08 125.08C385.68 124.173 387.093 123.227 388.32 122.24C387.787 122.133 387.4 121.933 387.16 121.64C386.947 121.347 386.84 120.92 386.84 120.36V118.84C386.227 119.8 385.467 120.76 384.56 121.72C383.68 122.68 382.813 123.493 381.96 124.16C381.8 123.947 381.533 123.68 381.16 123.36C380.813 123.013 380.453 122.693 380.08 122.4C379.733 122.08 379.44 121.867 379.2 121.76C379.707 121.387 380.227 120.947 380.76 120.44C381.32 119.933 381.853 119.427 382.36 118.92H379.36V113.56H383.48V103.52H388.76C388.813 103.333 388.88 103.147 388.96 102.96C389.04 102.747 389.107 102.547 389.16 102.36H380.6V99.1599H405.2V102.36H393.96L393.56 103.52H401.8V113.56H405.84V118.92H403.64C404.093 119.32 404.52 119.72 404.92 120.12C405.347 120.52 405.733 120.907 406.08 121.28C405.733 121.547 405.28 121.947 404.72 122.48C404.16 123.013 403.733 123.467 403.44 123.84C402.96 123.173 402.32 122.44 401.52 121.64C400.72 120.813 399.92 120.067 399.12 119.4C398.853 120.6 398.387 121.387 397.72 121.76C397.053 122.133 396.107 122.32 394.88 122.32H393.12C392.933 122.507 392.747 122.707 392.56 122.92C392.373 123.107 392.173 123.307 391.96 123.52H400.48L401.56 125C400.227 126.867 398.6 128.467 396.68 129.8C398.093 130.253 399.6 130.613 401.2 130.88C402.827 131.147 404.533 131.32 406.32 131.4C405.973 131.827 405.653 132.413 405.36 133.16C405.067 133.933 404.853 134.573 404.72 135.08C402.56 134.893 400.467 134.56 398.44 134.08C396.413 133.6 394.52 132.933 392.76 132.08C391.027 132.88 389.16 133.547 387.16 134.08C385.187 134.613 383.093 135.027 380.88 135.32ZM373.64 135V113.6C373.293 114.187 372.933 114.76 372.56 115.32C372.187 115.88 371.813 116.4 371.44 116.88C371.253 116.587 370.96 116.253 370.56 115.88C370.16 115.48 369.733 115.093 369.28 114.72C368.853 114.347 368.48 114.067 368.16 113.88C368.96 112.92 369.747 111.773 370.52 110.44C371.293 109.107 372.013 107.72 372.68 106.28C373.373 104.813 373.96 103.387 374.44 102C374.92 100.613 375.267 99.3866 375.48 98.3199L379.88 99.2799C379.427 101.013 378.8 102.88 378 104.88V135H373.64ZM391.52 119.4H393.88C394.6 119.4 395.093 119.28 395.36 119.04C395.627 118.8 395.813 118.253 395.92 117.4C396.213 117.533 396.613 117.68 397.12 117.84C397.653 118 398.133 118.147 398.56 118.28L400.52 116.36C400.707 116.467 400.88 116.587 401.04 116.72C401.2 116.853 401.373 116.987 401.56 117.12V116.12H394.68C394.84 116.307 395 116.507 395.16 116.72C395.32 116.907 395.453 117.093 395.56 117.28C395.187 117.493 394.72 117.787 394.16 118.16C393.627 118.533 393.2 118.84 392.88 119.08C392.613 118.6 392.267 118.08 391.84 117.52C391.44 116.96 391.013 116.493 390.56 116.12H383.68V117.28C383.893 117.04 384.053 116.8 384.16 116.56L386.84 118.4V116.72H390.48V118.68C390.48 118.947 390.547 119.133 390.68 119.24C390.813 119.347 391.093 119.4 391.52 119.4ZM387.88 110.36H397.48V109.2H387.88V110.36ZM387.88 107.08H397.48V105.96H387.88V107.08ZM387.88 113.56H397.48V112.52H387.88V113.56ZM392.84 128.16C393.4 127.867 393.933 127.56 394.44 127.24C394.947 126.92 395.413 126.587 395.84 126.24H390.16C390.56 126.587 390.987 126.92 391.44 127.24C391.893 127.56 392.36 127.867 392.84 128.16Z" fill="#00B6B6"/>
<path d="M342.502 132.21C342.362 131.39 342.252 130.39 342.172 129.21C342.092 128.01 342.032 126.71 341.992 125.31C341.972 123.89 341.972 122.43 341.992 120.93C342.032 119.43 342.092 117.97 342.172 116.55C342.272 115.11 342.392 113.78 342.532 112.56C342.692 111.34 342.872 110.3 343.072 109.44L346.582 110.16C346.362 110.88 346.172 111.82 346.012 112.98C345.852 114.12 345.722 115.38 345.622 116.76C345.522 118.12 345.452 119.52 345.412 120.96C345.392 122.4 345.402 123.8 345.442 125.16C345.482 126.52 345.552 127.75 345.652 128.85C345.752 129.95 345.882 130.84 346.042 131.52L342.502 132.21ZM355.252 130.59C351.792 130.49 349.832 129.36 349.372 127.2C349.252 126.66 349.212 126.06 349.252 125.4C349.292 124.74 349.442 124.01 349.702 123.21L352.852 123.99C352.712 124.37 352.632 124.71 352.612 125.01C352.612 125.31 352.652 125.58 352.732 125.82C352.992 126.54 354.052 126.93 355.912 126.99C356.812 127.01 357.772 126.98 358.792 126.9C359.832 126.8 360.842 126.66 361.822 126.48C362.822 126.3 363.692 126.1 364.432 125.88C364.392 126.16 364.342 126.54 364.282 127.02C364.242 127.5 364.212 127.99 364.192 128.49C364.172 128.97 364.172 129.37 364.192 129.69C363.252 129.93 362.242 130.12 361.162 130.26C360.102 130.4 359.052 130.5 358.012 130.56C356.992 130.6 356.072 130.61 355.252 130.59ZM350.752 115.95L350.542 112.26C351.302 112.36 352.232 112.42 353.332 112.44C354.432 112.46 355.572 112.45 356.752 112.41C357.952 112.35 359.092 112.26 360.172 112.14C361.272 112 362.182 111.83 362.902 111.63L362.752 115.26C361.952 115.4 361.022 115.53 359.962 115.65C358.902 115.75 357.802 115.83 356.662 115.89C355.542 115.95 354.462 115.99 353.422 116.01C352.402 116.01 351.512 115.99 350.752 115.95Z" fill="#111111"/>
<path d="M311.66 134.01C311.38 133.51 311.03 132.97 310.61 132.39C310.19 131.83 309.76 131.36 309.32 130.98C311.54 129.9 313.54 128.58 315.32 127.02C317.1 125.44 318.5 123.62 319.52 121.56C320.56 119.5 321.08 117.23 321.08 114.75V107.4H324.8V113.73C324.8 115.73 325.13 117.6 325.79 119.34C326.45 121.08 327.35 122.67 328.49 124.11C329.63 125.55 330.92 126.82 332.36 127.92C333.8 129 335.31 129.89 336.89 130.59C336.51 131.01 336.09 131.55 335.63 132.21C335.19 132.87 334.84 133.45 334.58 133.95C332.88 133.07 331.28 131.99 329.78 130.71C328.28 129.43 326.96 128 325.82 126.42C324.7 124.84 323.81 123.18 323.15 121.44C322.57 123.24 321.7 124.93 320.54 126.51C319.38 128.07 318.04 129.49 316.52 130.77C315 132.03 313.38 133.11 311.66 134.01Z" fill="#111111"/>
<path d="M225.335 170.63C225.335 219.047 186.085 258.297 137.667 258.297C89.25 258.297 50 219.047 50 170.63C50 122.212 89.25 82.9622 137.667 82.9622C186.085 82.9622 225.335 122.212 225.335 170.63Z" fill="url(#paint1_linear_1099_11209)" fill-opacity="0.3"/>
<path d="M149.945 212.216V208.536H157.145V197.4H151.737V193.72H157.145V184.28H161.017V193.72H166.585V197.4H161.017V208.536H167.449V212.216H149.945ZM143.577 213.24V202.584C142.979 203.117 142.361 203.651 141.721 204.184C141.081 204.696 140.419 205.187 139.737 205.656C139.459 205.229 139.054 204.728 138.521 204.152C137.987 203.576 137.529 203.128 137.145 202.808C137.998 202.317 138.894 201.709 139.833 200.984C140.793 200.237 141.731 199.427 142.649 198.552C143.566 197.656 144.398 196.76 145.145 195.864C145.891 194.947 146.489 194.093 146.937 193.304H138.841V189.848H143.545V184.248H147.257V189.848H150.201L151.929 191.288C151.033 193.293 149.87 195.256 148.441 197.176C148.995 197.56 149.593 197.965 150.233 198.392C150.894 198.797 151.523 199.181 152.121 199.544C152.718 199.885 153.209 200.163 153.593 200.376C153.379 200.589 153.123 200.888 152.825 201.272C152.547 201.635 152.27 202.019 151.993 202.424C151.737 202.808 151.534 203.139 151.385 203.416C150.809 203.032 150.158 202.595 149.433 202.104C148.707 201.592 147.993 201.091 147.289 200.6V213.24H143.577Z" fill="#111111"/>
<path d="M129.592 213.72C129.336 213.229 128.994 212.685 128.568 212.088C128.162 211.491 127.704 210.883 127.192 210.264C126.21 210.435 125.08 210.616 123.8 210.808C122.52 211 121.165 211.192 119.736 211.384C118.306 211.576 116.888 211.747 115.48 211.896C114.093 212.067 112.792 212.205 111.576 212.312C110.381 212.44 109.357 212.536 108.504 212.6L107.768 208.792C108.237 208.792 108.813 208.781 109.496 208.76C110.2 208.717 110.957 208.664 111.768 208.6C112.258 207.853 112.76 206.968 113.272 205.944C113.805 204.92 114.274 203.949 114.68 203.032H106.808V199.608H133.016V203.032H125.304C125.88 203.48 126.52 204.045 127.224 204.728C127.928 205.411 128.642 206.147 129.368 206.936C130.093 207.704 130.754 208.461 131.352 209.208C131.97 209.955 132.461 210.605 132.824 211.16C132.546 211.331 132.194 211.576 131.768 211.896C131.341 212.216 130.925 212.536 130.52 212.856C130.114 213.197 129.805 213.485 129.592 213.72ZM106.616 197.656C106.466 197.357 106.253 197.005 105.976 196.6C105.698 196.195 105.4 195.8 105.08 195.416C104.76 195.032 104.461 194.723 104.184 194.488C105.506 193.976 106.861 193.315 108.248 192.504C109.656 191.672 111.01 190.765 112.312 189.784C113.613 188.781 114.776 187.768 115.8 186.744C116.824 185.699 117.613 184.717 118.168 183.8L121.784 184.312C122.466 185.229 123.341 186.168 124.408 187.128C125.474 188.088 126.637 189.005 127.896 189.88C129.176 190.733 130.477 191.512 131.8 192.216C133.122 192.92 134.392 193.496 135.608 193.944C135.288 194.2 134.946 194.552 134.584 195C134.221 195.427 133.88 195.864 133.56 196.312C133.261 196.76 133.037 197.144 132.888 197.464C132.056 197.101 131.192 196.675 130.296 196.184C129.421 195.693 128.536 195.16 127.64 194.584V197.304H112.184V194.488C111.202 195.149 110.232 195.757 109.272 196.312C108.312 196.845 107.426 197.293 106.616 197.656ZM113.08 193.848H126.584C125.282 192.952 124.045 191.992 122.872 190.968C121.698 189.923 120.706 188.877 119.896 187.832C119.17 188.792 118.2 189.805 116.984 190.872C115.768 191.917 114.466 192.909 113.08 193.848ZM116.472 208.216C117.901 208.088 119.32 207.949 120.728 207.8C122.136 207.629 123.416 207.469 124.568 207.32C123.65 206.381 122.84 205.656 122.136 205.144L124.632 203.032H119.16C118.797 203.864 118.37 204.739 117.88 205.656C117.41 206.552 116.941 207.405 116.472 208.216Z" fill="#111111"/>
<path d="M178.342 161.96C177.008 162.707 175.755 163.013 174.582 162.88C173.408 162.72 172.368 161.96 171.462 160.6C170.635 159.32 169.875 157.813 169.182 156.08C168.488 154.347 167.888 152.507 167.382 150.56C166.902 148.613 166.528 146.667 166.261 144.72C166.021 142.773 165.915 140.947 165.942 139.24L170.822 139.28C170.742 140.587 170.782 142.013 170.942 143.56C171.102 145.107 171.355 146.667 171.702 148.24C172.048 149.813 172.462 151.28 172.942 152.64C173.422 153.973 173.942 155.093 174.502 156C174.875 156.64 175.275 157.013 175.702 157.12C176.155 157.2 176.635 157.08 177.142 156.76C177.782 156.333 178.448 155.747 179.142 155C179.862 154.253 180.461 153.533 180.941 152.84C181.075 153.24 181.288 153.693 181.581 154.2C181.901 154.707 182.235 155.2 182.581 155.68C182.955 156.16 183.288 156.547 183.582 156.84C182.862 157.907 182.035 158.893 181.102 159.8C180.195 160.707 179.275 161.427 178.342 161.96ZM193.462 154.48C193.195 153.707 192.782 152.747 192.222 151.6C191.662 150.453 191.022 149.267 190.302 148.04C189.582 146.787 188.862 145.64 188.142 144.6C187.422 143.533 186.755 142.707 186.142 142.12L189.982 139.68C190.648 140.347 191.382 141.24 192.182 142.36C193.008 143.48 193.808 144.68 194.582 145.96C195.382 147.213 196.088 148.44 196.702 149.64C197.315 150.813 197.755 151.813 198.022 152.64C197.195 152.8 196.355 153.053 195.502 153.4C194.675 153.747 193.995 154.107 193.462 154.48Z" fill="#00B6B6"/>
<path d="M126.938 167C126.698 166.76 126.325 166.467 125.818 166.12C125.312 165.8 124.792 165.493 124.258 165.2C123.725 164.907 123.272 164.707 122.898 164.6C124.018 163.4 125.098 161.947 126.138 160.24C127.178 158.507 128.165 156.627 129.098 154.6C130.032 152.573 130.858 150.493 131.578 148.36C130.218 148.52 128.898 148.707 127.618 148.92C126.365 149.133 125.325 149.347 124.498 149.56C124.472 149.213 124.405 148.747 124.298 148.16C124.192 147.573 124.072 147 123.938 146.44C123.805 145.853 123.672 145.413 123.538 145.12C124.152 145.067 124.952 145 125.938 144.92C126.925 144.84 128.018 144.747 129.218 144.64C130.418 144.507 131.618 144.4 132.818 144.32C133.298 142.64 133.685 141 133.978 139.4C134.298 137.773 134.512 136.267 134.618 134.88L139.338 135.72C139.205 136.947 138.992 138.267 138.698 139.68C138.405 141.067 138.045 142.493 137.618 143.96C138.152 143.933 138.632 143.92 139.058 143.92C139.485 143.893 139.858 143.88 140.178 143.88C141.245 143.88 142.192 144.053 143.018 144.4C143.872 144.72 144.552 145.307 145.058 146.16C145.565 146.987 145.858 148.147 145.938 149.64C146.018 151.107 145.845 152.987 145.418 155.28C144.885 158.16 144.272 160.413 143.578 162.04C142.912 163.667 142.072 164.813 141.058 165.48C140.045 166.147 138.752 166.48 137.178 166.48C136.432 166.48 135.698 166.4 134.978 166.24C134.258 166.107 133.592 165.88 132.978 165.56C133.005 164.947 133.005 164.187 132.978 163.28C132.952 162.373 132.872 161.627 132.738 161.04C134.072 161.627 135.378 161.92 136.658 161.92C137.298 161.92 137.845 161.747 138.298 161.4C138.778 161.027 139.232 160.307 139.658 159.24C140.085 158.147 140.512 156.547 140.938 154.44C141.338 152.493 141.498 151.053 141.418 150.12C141.338 149.16 141.085 148.533 140.658 148.24C140.232 147.947 139.698 147.8 139.058 147.8C138.312 147.8 137.418 147.84 136.378 147.92C135.552 150.4 134.605 152.84 133.538 155.24C132.498 157.64 131.405 159.853 130.258 161.88C129.138 163.907 128.032 165.613 126.938 167ZM156.098 156.64C155.672 155.92 155.085 155.067 154.338 154.08C153.592 153.093 152.778 152.107 151.898 151.12C151.018 150.107 150.165 149.187 149.338 148.36C148.512 147.507 147.792 146.867 147.178 146.44L150.698 143.48C151.338 143.96 152.085 144.613 152.938 145.44C153.792 146.24 154.672 147.12 155.578 148.08C156.485 149.04 157.325 149.987 158.098 150.92C158.872 151.853 159.472 152.667 159.898 153.36L156.098 156.64Z" fill="#00B6B6"/>
<path d="M89.3819 167.96V164H92.3819V151.28H115.342V164H118.182V167.96H89.3819ZM93.5819 148.92V133.72H114.182V148.92H93.5819ZM84.5019 168.68L80.4219 165.76C81.0352 164.96 81.6619 164.013 82.3019 162.92C82.9419 161.827 83.5552 160.693 84.1419 159.52C84.7552 158.32 85.3019 157.147 85.7819 156C86.2885 154.853 86.6752 153.827 86.9419 152.92C87.1819 153.16 87.5285 153.467 87.9819 153.84C88.4352 154.213 88.9152 154.573 89.4219 154.92C89.9552 155.267 90.3952 155.547 90.7419 155.76C90.4485 156.693 90.0485 157.747 89.5419 158.92C89.0619 160.067 88.5285 161.24 87.9419 162.44C87.3552 163.64 86.7685 164.787 86.1819 165.88C85.5952 166.947 85.0352 167.88 84.5019 168.68ZM87.7819 150.56C87.3019 150.133 86.6352 149.627 85.7819 149.04C84.9552 148.453 84.0885 147.893 83.1819 147.36C82.2752 146.8 81.4752 146.373 80.7819 146.08L83.1419 142.24C84.3152 142.8 85.5819 143.48 86.9419 144.28C88.3285 145.053 89.4885 145.827 90.4219 146.6C90.2085 146.84 89.9152 147.227 89.5419 147.76C89.1952 148.267 88.8485 148.787 88.5019 149.32C88.1819 149.827 87.9419 150.24 87.7819 150.56ZM89.3419 141.2C88.8885 140.773 88.2352 140.267 87.3819 139.68C86.5552 139.093 85.6752 138.533 84.7419 138C83.8352 137.467 83.0352 137.053 82.3419 136.76L84.7419 133C85.4619 133.293 86.2885 133.707 87.2219 134.24C88.1819 134.773 89.1019 135.32 89.9819 135.88C90.8619 136.44 91.5419 136.933 92.0219 137.36C91.8085 137.6 91.5152 137.973 91.1419 138.48C90.7952 138.987 90.4485 139.493 90.1019 140C89.7552 140.507 89.5019 140.907 89.3419 141.2ZM98.1019 145.48H109.662V142.92H98.1019V145.48ZM98.1019 139.68H109.662V137.16H98.1019V139.68ZM96.5419 164H98.9819V155.08H96.5419V164ZM102.662 164H105.102V155.08H102.662V164ZM108.742 164H111.182V155.08H108.742V164Z" fill="#00B6B6"/>
<path d="M375.19 380.534C375.19 428.951 335.94 468.201 287.523 468.201C239.105 468.201 199.855 428.951 199.855 380.534C199.855 332.116 239.105 292.866 287.523 292.866C335.94 292.866 375.19 332.116 375.19 380.534Z" fill="url(#paint2_linear_1099_11209)" fill-opacity="0.3"/>
<path d="M312.219 423.856C312.155 423.493 312.027 423.056 311.835 422.544C311.664 422.053 311.461 421.573 311.227 421.104C310.992 420.613 310.747 420.219 310.491 419.92C314.053 420.197 316.859 419.931 318.907 419.12C320.955 418.288 321.979 416.997 321.979 415.248C321.979 414.309 321.584 413.563 320.795 413.008C320.027 412.453 319.045 412.176 317.851 412.176C316.464 412.176 315.056 412.443 313.627 412.976C312.197 413.488 310.907 414.363 309.755 415.6C309.669 415.707 309.573 415.824 309.467 415.952C309.381 416.059 309.285 416.165 309.179 416.272L306.075 414.064C307.099 413.061 307.973 411.707 308.699 410C309.424 408.293 309.989 406.501 310.395 404.624C307.429 404.731 304.901 404.731 302.811 404.624L302.555 400.848C303.493 400.976 304.709 401.061 306.203 401.104C307.696 401.125 309.307 401.104 311.035 401.04C311.291 399.013 311.387 397.179 311.323 395.536H315.355C315.355 397.093 315.227 398.864 314.971 400.848C316.464 400.741 317.904 400.613 319.291 400.464C320.677 400.315 321.936 400.155 323.067 399.984C324.197 399.792 325.115 399.589 325.819 399.376L325.563 403.152C324.304 403.429 322.672 403.685 320.667 403.92C318.661 404.133 316.56 404.304 314.363 404.432C314.149 405.413 313.904 406.395 313.627 407.376C313.371 408.357 313.061 409.307 312.699 410.224C313.637 409.733 314.555 409.36 315.451 409.104C316.368 408.827 317.275 408.688 318.171 408.688C319.685 408.667 321.029 408.923 322.203 409.456C323.397 409.989 324.336 410.757 325.019 411.76C325.701 412.741 326.043 413.925 326.043 415.312C326.043 418.128 324.859 420.293 322.491 421.808C320.123 423.323 316.699 424.005 312.219 423.856Z" fill="#111111"/>
<path d="M287.931 424.432C287.91 424.091 287.857 423.685 287.771 423.216C287.686 422.747 287.579 422.288 287.451 421.84C287.345 421.392 287.227 421.029 287.099 420.752H289.627C290.054 420.752 290.363 420.688 290.555 420.56C290.747 420.411 290.843 420.133 290.843 419.728V413.936H283.739C284.145 414.299 284.593 414.747 285.083 415.28C285.595 415.792 286.075 416.315 286.523 416.848C286.993 417.381 287.355 417.861 287.611 418.288C287.398 418.437 287.078 418.683 286.651 419.024C286.246 419.344 285.841 419.685 285.435 420.048C285.051 420.389 284.774 420.656 284.603 420.848C284.326 420.4 283.953 419.877 283.483 419.28C283.014 418.683 282.523 418.096 282.011 417.52C281.499 416.944 281.03 416.475 280.603 416.112L283.131 413.936H280.571V410.64H290.843V408.08H280.251V404.752H286.843V401.936H281.275V398.832H286.843V395.184H290.683V398.832H296.475V401.936H290.683V404.752H298.619V408.08H294.555V410.64H298.235V413.936H294.555V421.168C294.555 422.299 294.225 423.12 293.563 423.632C292.923 424.165 291.942 424.432 290.619 424.432H287.931ZM270.939 424.336C270.918 424.016 270.865 423.611 270.779 423.12C270.715 422.629 270.63 422.149 270.523 421.68C270.417 421.189 270.299 420.816 270.171 420.56H272.283C272.71 420.56 273.009 420.496 273.179 420.368C273.371 420.219 273.467 419.941 273.467 419.536V414.288C272.593 414.629 271.793 414.928 271.067 415.184C270.363 415.44 269.862 415.611 269.563 415.696L268.699 411.824C269.211 411.696 269.894 411.504 270.747 411.248C271.601 410.992 272.507 410.715 273.467 410.416V404.688H269.307V401.168H273.467V395.28H277.115V401.168H280.091V404.688H277.115V409.136C278.651 408.603 279.686 408.187 280.219 407.888V411.44C280.006 411.568 279.611 411.76 279.035 412.016C278.481 412.251 277.841 412.517 277.115 412.816V421.168C277.115 422.277 276.795 423.077 276.155 423.568C275.537 424.08 274.587 424.336 273.307 424.336H270.939Z" fill="#111111"/>
<path d="M240.411 423.984C240.155 423.429 239.782 422.832 239.291 422.192C238.822 421.552 238.406 421.061 238.043 420.72C239.92 419.973 241.52 419.163 242.843 418.288C244.187 417.413 245.296 416.4 246.171 415.248C247.067 414.075 247.76 412.688 248.251 411.088C248.742 409.467 249.062 407.557 249.211 405.36H239.451V401.648H249.371V395.76H253.467V401.136C253.467 401.221 253.456 401.307 253.435 401.392C253.435 401.477 253.435 401.563 253.435 401.648H264.955C264.955 403.952 264.902 406.128 264.795 408.176C264.71 410.224 264.592 412.037 264.443 413.616C264.315 415.195 264.166 416.443 263.995 417.36C263.718 419.024 263.302 420.315 262.747 421.232C262.214 422.149 261.467 422.789 260.507 423.152C259.568 423.536 258.352 423.728 256.859 423.728H254.299C254.256 423.323 254.182 422.853 254.075 422.32C253.99 421.808 253.883 421.307 253.755 420.816C253.627 420.304 253.488 419.888 253.339 419.568H256.795C257.734 419.568 258.427 419.387 258.875 419.024C259.344 418.64 259.686 417.872 259.899 416.72C260.006 416.208 260.112 415.653 260.219 415.056C260.326 414.459 260.422 413.744 260.507 412.912C260.614 412.059 260.688 411.024 260.731 409.808C260.795 408.571 260.827 407.088 260.827 405.36H253.307C253.072 408.411 252.507 411.088 251.611 413.392C250.736 415.696 249.392 417.712 247.579 419.44C245.787 421.147 243.398 422.661 240.411 423.984Z" fill="#111111"/>
<path d="M349.263 377.288C349.178 376.947 349.018 376.541 348.783 376.072C348.548 375.603 348.271 375.155 347.951 374.728C347.652 374.28 347.354 373.917 347.055 373.64C349.978 373.192 352.196 372.243 353.711 370.792C355.247 369.32 356.058 367.592 356.143 365.608C356.228 364.029 355.94 362.621 355.279 361.384C354.618 360.147 353.711 359.144 352.559 358.376C351.428 357.608 350.18 357.149 348.815 357C348.644 358.984 348.324 361.011 347.855 363.08C347.386 365.149 346.746 367.091 345.935 368.904C345.146 370.717 344.175 372.253 343.023 373.512C342.148 374.451 341.295 374.995 340.463 375.144C339.652 375.293 338.788 375.176 337.871 374.792C336.975 374.408 336.186 373.8 335.503 372.968C334.82 372.136 334.298 371.155 333.935 370.024C333.572 368.872 333.423 367.645 333.487 366.344C333.594 364.403 334.052 362.632 334.863 361.032C335.674 359.411 336.762 358.013 338.127 356.84C339.492 355.667 341.06 354.781 342.831 354.184C344.602 353.587 346.49 353.341 348.495 353.448C350.116 353.533 351.642 353.896 353.071 354.536C354.5 355.176 355.748 356.061 356.815 357.192C357.903 358.301 358.735 359.592 359.311 361.064C359.908 362.536 360.154 364.147 360.047 365.896C359.898 368.819 358.874 371.272 356.975 373.256C355.076 375.219 352.506 376.563 349.263 377.288ZM338.863 370.824C339.098 370.995 339.343 371.08 339.599 371.08C339.855 371.08 340.111 370.952 340.367 370.696C341.135 369.928 341.839 368.84 342.479 367.432C343.14 366.024 343.684 364.435 344.111 362.664C344.559 360.893 344.847 359.091 344.975 357.256C343.503 357.597 342.191 358.216 341.039 359.112C339.908 360.008 339.012 361.096 338.351 362.376C337.69 363.635 337.316 365.021 337.231 366.536C337.188 367.539 337.316 368.413 337.615 369.16C337.935 369.885 338.351 370.44 338.863 370.824Z" fill="#111111"/>
<path d="M307.802 379.52V350.48H293.602V345.76H329.602V350.48H312.962V357.28L315.162 354.48C316.042 355.04 317.042 355.72 318.162 356.52C319.282 357.32 320.415 358.173 321.562 359.08C322.735 359.96 323.842 360.813 324.882 361.64C325.922 362.467 326.775 363.2 327.442 363.84C327.042 364.16 326.602 364.573 326.122 365.08C325.642 365.56 325.188 366.067 324.762 366.6C324.335 367.133 324.002 367.613 323.762 368.04C323.255 367.507 322.562 366.867 321.682 366.12C320.828 365.347 319.882 364.533 318.842 363.68C317.828 362.827 316.802 362.013 315.762 361.24C314.748 360.44 313.815 359.76 312.962 359.2V379.52H307.802Z" fill="#00B6B6"/>
<path d="M275.48 377.36C275.374 376.933 275.174 376.427 274.88 375.84C274.587 375.253 274.24 374.693 273.84 374.16C273.467 373.6 273.094 373.147 272.72 372.8C276.374 372.24 279.147 371.053 281.04 369.24C282.96 367.4 283.974 365.24 284.08 362.76C284.187 360.787 283.827 359.027 283 357.48C282.174 355.933 281.04 354.68 279.6 353.72C278.187 352.76 276.627 352.187 274.92 352C274.707 354.48 274.307 357.013 273.72 359.6C273.134 362.187 272.334 364.613 271.32 366.88C270.334 369.147 269.12 371.067 267.68 372.64C266.587 373.813 265.52 374.493 264.48 374.68C263.467 374.867 262.387 374.72 261.24 374.24C260.12 373.76 259.134 373 258.28 371.96C257.427 370.92 256.774 369.693 256.32 368.28C255.867 366.84 255.68 365.307 255.76 363.68C255.894 361.253 256.467 359.04 257.48 357.04C258.494 355.013 259.854 353.267 261.56 351.8C263.267 350.333 265.227 349.227 267.44 348.48C269.654 347.733 272.014 347.427 274.52 347.56C276.547 347.667 278.454 348.12 280.24 348.92C282.027 349.72 283.587 350.827 284.92 352.24C286.28 353.627 287.32 355.24 288.04 357.08C288.787 358.92 289.094 360.933 288.96 363.12C288.774 366.773 287.494 369.84 285.12 372.32C282.747 374.773 279.534 376.453 275.48 377.36ZM262.48 369.28C262.774 369.493 263.08 369.6 263.4 369.6C263.72 369.6 264.04 369.44 264.36 369.12C265.32 368.16 266.2 366.8 267 365.04C267.827 363.28 268.507 361.293 269.04 359.08C269.6 356.867 269.96 354.613 270.12 352.32C268.28 352.747 266.64 353.52 265.2 354.64C263.787 355.76 262.667 357.12 261.84 358.72C261.014 360.293 260.547 362.027 260.44 363.92C260.387 365.173 260.547 366.267 260.92 367.2C261.32 368.107 261.84 368.8 262.48 369.28Z" fill="#00B6B6"/>
<path d="M236.802 380C236.749 379.467 236.629 378.8 236.442 378C236.282 377.2 236.109 376.573 235.922 376.12H238.002C238.802 376.12 239.429 375.92 239.882 375.52C240.335 375.093 240.562 374.307 240.562 373.16C240.562 372.867 240.562 372.573 240.562 372.28C240.562 371.96 240.549 371.653 240.522 371.36C239.589 372.24 238.482 373.133 237.202 374.04C235.949 374.92 234.642 375.747 233.282 376.52C231.949 377.267 230.682 377.893 229.482 378.4C229.269 377.947 228.935 377.387 228.482 376.72C228.055 376.053 227.682 375.573 227.362 375.28C228.242 374.96 229.255 374.507 230.402 373.92C231.549 373.333 232.722 372.667 233.922 371.92C235.149 371.173 236.282 370.427 237.322 369.68C238.389 368.933 239.255 368.24 239.922 367.6C239.869 367.36 239.802 367.133 239.722 366.92C239.642 366.68 239.562 366.453 239.482 366.24C238.335 367.227 237.042 368.173 235.602 369.08C234.189 369.987 232.842 370.747 231.562 371.36C231.375 370.96 231.069 370.453 230.642 369.84C230.242 369.2 229.895 368.733 229.602 368.44C230.375 368.147 231.269 367.72 232.282 367.16C233.322 366.6 234.349 365.987 235.362 365.32C236.375 364.627 237.269 363.96 238.042 363.32C237.935 363.133 237.802 362.96 237.642 362.8C237.509 362.613 237.375 362.427 237.242 362.24C236.229 362.987 235.162 363.693 234.042 364.36C232.922 365.027 231.842 365.587 230.802 366.04C230.642 365.72 230.429 365.387 230.162 365.04C229.922 364.667 229.669 364.307 229.402 363.96C229.055 364.093 228.682 364.24 228.282 364.4C227.909 364.533 227.575 364.667 227.282 364.8C227.229 364.507 227.162 364.187 227.082 363.84C227.002 363.467 226.895 363.093 226.762 362.72C226.469 362.773 226.149 362.827 225.802 362.88C225.482 362.933 225.135 362.987 224.762 363.04V379.92H220.642V363.6C219.602 363.707 218.602 363.813 217.642 363.92C216.709 364.027 215.882 364.107 215.162 364.16L214.602 360.16C214.975 360.133 215.362 360.12 215.762 360.12C216.189 360.12 216.642 360.107 217.122 360.08C217.575 359.547 218.069 358.933 218.602 358.24C219.162 357.547 219.735 356.8 220.322 356C219.442 355.307 218.455 354.573 217.362 353.8C216.295 353.027 215.269 352.347 214.282 351.76L216.402 348.52C216.669 348.68 216.949 348.853 217.242 349.04C217.535 349.2 217.829 349.387 218.122 349.6C218.495 348.987 218.882 348.293 219.282 347.52C219.709 346.747 220.095 346 220.442 345.28C220.815 344.533 221.095 343.907 221.282 343.4L225.002 344.84C224.415 345.933 223.762 347.093 223.042 348.32C222.322 349.547 221.642 350.64 221.002 351.6C221.295 351.787 221.562 351.973 221.802 352.16C222.069 352.347 222.322 352.533 222.562 352.72C223.282 351.6 223.935 350.547 224.522 349.56C225.109 348.547 225.575 347.707 225.922 347.04L229.482 348.84C228.949 349.827 228.255 350.96 227.402 352.24C226.575 353.493 225.695 354.787 224.762 356.12C223.829 357.427 222.922 358.64 222.042 359.76C222.682 359.707 223.309 359.653 223.922 359.6C224.562 359.547 225.162 359.493 225.722 359.44C225.562 358.987 225.389 358.56 225.202 358.16C225.042 357.76 224.895 357.4 224.762 357.08L228.082 355.84C228.509 356.667 228.935 357.68 229.362 358.88C229.815 360.053 230.215 361.16 230.562 362.2C231.415 361.773 232.309 361.28 233.242 360.72C234.202 360.16 235.095 359.573 235.922 358.96H229.682V355.32H242.922V353.44H232.282V349.84H242.922V347.96H231.482V344.36H247.122V355.32H251.602V358.96H241.042C240.722 359.333 240.375 359.68 240.002 360C241.175 361.173 242.149 362.6 242.922 364.28C243.775 363.613 244.655 362.893 245.562 362.12C246.469 361.32 247.202 360.6 247.762 359.96L250.722 362.56C249.975 363.227 249.029 363.987 247.882 364.84C246.735 365.693 245.615 366.48 244.522 367.2C245.242 367.973 246.082 368.8 247.042 369.68C248.002 370.533 248.989 371.333 250.002 372.08C251.015 372.827 251.935 373.44 252.762 373.92C252.362 374.293 251.895 374.813 251.362 375.48C250.829 376.12 250.415 376.667 250.122 377.12C249.215 376.507 248.282 375.8 247.322 375C246.362 374.173 245.442 373.293 244.562 372.36C244.562 372.44 244.562 372.52 244.562 372.6C244.589 372.68 244.602 372.76 244.602 372.84C244.602 374.707 244.375 376.16 243.922 377.2C243.495 378.24 242.855 378.96 242.002 379.36C241.175 379.787 240.162 380 238.962 380H236.802ZM217.482 375.88C216.975 375.667 216.375 375.453 215.682 375.24C215.015 375 214.429 374.853 213.922 374.8C214.322 374.08 214.709 373.187 215.082 372.12C215.482 371.027 215.842 369.907 216.162 368.76C216.482 367.587 216.709 366.52 216.842 365.56L220.282 366.28C220.149 367.24 219.935 368.32 219.642 369.52C219.349 370.72 219.015 371.893 218.642 373.04C218.269 374.16 217.882 375.107 217.482 375.88ZM227.402 374.12C227.189 373.533 226.922 372.733 226.602 371.72C226.309 370.68 226.015 369.613 225.722 368.52C225.429 367.4 225.189 366.467 225.002 365.72L228.402 364.84C228.562 365.48 228.789 366.307 229.082 367.32C229.402 368.333 229.722 369.333 230.042 370.32C230.389 371.28 230.695 372.053 230.962 372.64C230.375 372.773 229.762 372.987 229.122 373.28C228.482 373.547 227.909 373.827 227.402 374.12Z" fill="#00B6B6"/>
<path d="M212.754 414.377C212.754 438.334 193.334 457.754 169.377 457.754C145.421 457.754 126 438.334 126 414.377C126 390.421 145.421 371 169.377 371C193.334 371 212.754 390.421 212.754 414.377Z" fill="white"/>
<path d="M212.754 414.377C212.754 390.421 193.333 371 169.377 371C145.421 371 126 390.421 126 414.377C126 438.333 145.421 457.754 169.377 457.754C193.333 457.754 212.754 438.333 212.754 414.377ZM218.754 414.377C218.754 441.647 196.647 463.754 169.377 463.754C142.107 463.754 120 441.647 120 414.377C120 387.107 142.107 365 169.377 365C196.647 365 218.754 387.107 218.754 414.377Z" fill="url(#paint3_linear_1099_11209)" fill-opacity="0.3"/>
<path d="M161.295 427.345V417.855C160.948 418.514 160.593 419.138 160.229 419.727C159.865 420.316 159.509 420.836 159.163 421.287C158.885 421.044 158.495 420.776 157.993 420.481C157.49 420.186 157.065 419.952 156.719 419.779C157.187 419.242 157.646 418.618 158.097 417.907C158.565 417.179 158.998 416.425 159.397 415.645C159.813 414.848 160.177 414.068 160.489 413.305C160.818 412.525 161.061 411.823 161.217 411.199H157.551V408.495H161.295V403.763H164.233V408.495H166.859V411.199H164.233V412.889C164.51 413.305 164.865 413.799 165.299 414.371C165.732 414.943 166.191 415.506 166.677 416.061C167.162 416.598 167.595 417.049 167.977 417.413V415.801H172.397V411.199H167.535V408.495H173.255C172.804 407.888 172.293 407.299 171.721 406.727C171.166 406.138 170.585 405.6 169.979 405.115L172.501 403.477C173.211 404.032 173.896 404.656 174.555 405.349C175.231 406.042 175.811 406.736 176.297 407.429C176.054 407.55 175.777 407.706 175.465 407.897C175.153 408.088 174.849 408.287 174.555 408.495H180.665V411.199H175.543V415.801H180.249V418.531H175.543V424.173H181.185V426.851H166.521V424.173H172.397V418.531H167.977V417.803C167.665 418.028 167.301 418.332 166.885 418.713C166.486 419.077 166.191 419.372 166.001 419.597C165.775 419.337 165.507 419.008 165.195 418.609C164.883 418.193 164.562 417.751 164.233 417.283V427.345H161.295Z" fill="#111111"/>
<path d="M456.754 362.377C456.754 386.334 437.334 405.754 413.377 405.754C389.421 405.754 370 386.334 370 362.377C370 338.421 389.421 319 413.377 319C437.334 319 456.754 338.421 456.754 362.377Z" fill="white"/>
<path d="M456.754 362.377C456.754 338.421 437.333 319 413.377 319C389.421 319 370 338.421 370 362.377C370 386.333 389.421 405.754 413.377 405.754C437.333 405.754 456.754 386.333 456.754 362.377ZM462.754 362.377C462.754 389.647 440.647 411.754 413.377 411.754C386.107 411.754 364 389.647 364 362.377C364 335.107 386.107 313 413.377 313C440.647 313 462.754 335.107 462.754 362.377Z" fill="url(#paint4_linear_1099_11209)" fill-opacity="0.3"/>
<path d="M417.438 371.834V361.382H434.338V371.834H417.438ZM435.456 360.758C435.196 360.359 434.884 359.943 434.52 359.51C434.174 359.059 433.801 358.591 433.402 358.106C432.501 358.227 431.418 358.348 430.152 358.47C428.887 358.591 427.526 358.712 426.07 358.834C424.614 358.938 423.167 359.042 421.728 359.146C420.29 359.232 418.946 359.31 417.698 359.38C416.45 359.432 415.402 359.475 414.552 359.51L413.98 356.364C414.518 356.381 415.168 356.381 415.93 356.364C416.693 356.346 417.525 356.329 418.426 356.312C418.513 356.294 418.6 356.286 418.686 356.286C418.773 356.286 418.86 356.286 418.946 356.286C419.293 355.766 419.674 355.159 420.09 354.466C420.506 353.755 420.914 353.036 421.312 352.308C421.711 351.562 422.066 350.852 422.378 350.176C422.708 349.482 422.95 348.884 423.106 348.382L426.538 349.11C426.261 349.716 425.888 350.444 425.42 351.294C424.97 352.126 424.484 352.975 423.964 353.842C423.462 354.691 422.985 355.454 422.534 356.13C424.077 356.06 425.594 355.982 427.084 355.896C428.592 355.809 429.918 355.722 431.062 355.636C430.594 355.185 430.126 354.752 429.658 354.336C429.208 353.92 428.774 353.556 428.358 353.244L430.568 351.19C431.14 351.64 431.764 352.178 432.44 352.802C433.134 353.426 433.827 354.084 434.52 354.778C435.214 355.471 435.864 356.156 436.47 356.832C437.094 357.49 437.623 358.088 438.056 358.626C437.779 358.782 437.467 358.998 437.12 359.276C436.791 359.536 436.47 359.804 436.158 360.082C435.864 360.342 435.63 360.567 435.456 360.758ZM420.766 368.948H431.036V364.294H420.766V368.948Z" fill="#111111"/>
<path d="M388.113 371.132V368.194H398.279V359.198H389.803V356.286H398.279V349.032H401.607V356.286H410.213V359.198H401.607V368.194H411.903V371.132H388.113Z" fill="#111111"/>
<path d="M350.398 217.659C350.398 248.677 325.254 273.821 294.236 273.821C263.219 273.821 238.074 248.677 238.074 217.659C238.074 186.642 263.219 161.497 294.236 161.497C325.254 161.497 350.398 186.642 350.398 217.659Z" fill="white"/>
<path d="M350.398 217.66C350.398 186.884 325.645 161.891 294.962 161.502L294.236 161.497C263.219 161.497 238.074 186.642 238.074 217.66L238.079 218.385C238.465 248.826 263.069 273.431 293.51 273.817L294.236 273.822C325.011 273.822 350.005 249.068 350.394 218.385L350.398 217.66ZM356.398 217.66C356.398 251.99 328.567 279.822 294.236 279.822C259.905 279.822 232.074 251.991 232.074 217.66C232.074 183.328 259.905 155.497 294.236 155.497C328.567 155.498 356.398 183.329 356.398 217.66Z" fill="url(#paint5_linear_1099_11209)" fill-opacity="0.3"/>
<path d="M314.545 247.608V245.768H318.145V240.2H315.441V238.36H318.145V233.64H320.081V238.36H322.865V240.2H320.081V245.768H323.297V247.608H314.545ZM311.361 248.12V242.792C311.062 243.059 310.753 243.325 310.433 243.592C310.113 243.848 309.782 244.093 309.441 244.328C309.302 244.115 309.099 243.864 308.833 243.576C308.566 243.288 308.337 243.064 308.145 242.904C308.571 242.659 309.019 242.355 309.489 241.992C309.969 241.619 310.438 241.213 310.897 240.776C311.355 240.328 311.771 239.88 312.145 239.432C312.518 238.973 312.817 238.547 313.041 238.152H308.993V236.424H311.345V233.624H313.201V236.424H314.673L315.537 237.144C315.089 238.147 314.507 239.128 313.793 240.088C314.07 240.28 314.369 240.483 314.689 240.696C315.019 240.899 315.334 241.091 315.633 241.272C315.931 241.443 316.177 241.581 316.369 241.688C316.262 241.795 316.134 241.944 315.985 242.136C315.846 242.317 315.707 242.509 315.569 242.712C315.441 242.904 315.339 243.069 315.265 243.208C314.977 243.016 314.651 242.797 314.289 242.552C313.926 242.296 313.569 242.045 313.217 241.8V248.12H311.361Z" fill="#111111"/>
<path d="M304.849 248.36C304.721 248.115 304.55 247.843 304.337 247.544C304.134 247.245 303.905 246.941 303.649 246.632C303.158 246.717 302.593 246.808 301.953 246.904C301.313 247 300.635 247.096 299.921 247.192C299.206 247.288 298.497 247.373 297.793 247.448C297.099 247.533 296.449 247.603 295.841 247.656C295.243 247.72 294.731 247.768 294.305 247.8L293.937 245.896C294.171 245.896 294.459 245.891 294.801 245.88C295.153 245.859 295.531 245.832 295.937 245.8C296.182 245.427 296.433 244.984 296.689 244.472C296.955 243.96 297.19 243.475 297.393 243.016H293.457V241.304H306.561V243.016H302.705C302.993 243.24 303.313 243.523 303.665 243.864C304.017 244.205 304.374 244.573 304.737 244.968C305.099 245.352 305.43 245.731 305.729 246.104C306.038 246.477 306.283 246.803 306.465 247.08C306.326 247.165 306.15 247.288 305.937 247.448C305.723 247.608 305.515 247.768 305.313 247.928C305.11 248.099 304.955 248.243 304.849 248.36ZM293.361 240.328C293.286 240.179 293.179 240.003 293.041 239.8C292.902 239.597 292.753 239.4 292.593 239.208C292.433 239.016 292.283 238.861 292.145 238.744C292.806 238.488 293.483 238.157 294.177 237.752C294.881 237.336 295.558 236.883 296.209 236.392C296.859 235.891 297.441 235.384 297.953 234.872C298.465 234.349 298.859 233.859 299.137 233.4L300.945 233.656C301.286 234.115 301.723 234.584 302.257 235.064C302.79 235.544 303.371 236.003 304.001 236.44C304.641 236.867 305.291 237.256 305.953 237.608C306.614 237.96 307.249 238.248 307.857 238.472C307.697 238.6 307.526 238.776 307.345 239C307.163 239.213 306.993 239.432 306.833 239.656C306.683 239.88 306.571 240.072 306.497 240.232C306.081 240.051 305.649 239.837 305.201 239.592C304.763 239.347 304.321 239.08 303.873 238.792V240.152H296.145V238.744C295.654 239.075 295.169 239.379 294.689 239.656C294.209 239.923 293.766 240.147 293.361 240.328ZM296.593 238.424H303.345C302.694 237.976 302.075 237.496 301.489 236.984C300.902 236.461 300.406 235.939 300.001 235.416C299.638 235.896 299.153 236.403 298.545 236.936C297.937 237.459 297.286 237.955 296.593 238.424ZM298.289 245.608C299.003 245.544 299.713 245.475 300.417 245.4C301.121 245.315 301.761 245.235 302.337 245.16C301.878 244.691 301.473 244.328 301.121 244.072L302.369 243.016H299.633C299.451 243.432 299.238 243.869 298.993 244.328C298.758 244.776 298.523 245.203 298.289 245.608Z" fill="#111111"/>
<path d="M284.434 247.512C283.154 247.512 282.21 247.272 281.602 246.792C280.994 246.301 280.69 245.704 280.69 245C280.69 244.541 280.802 244.152 281.026 243.832C281.25 243.512 281.543 243.267 281.906 243.096C282.268 242.915 282.658 242.824 283.074 242.824C283.863 242.824 284.498 243.069 284.978 243.56C285.468 244.051 285.783 244.659 285.922 245.384C286.316 245.203 286.636 244.925 286.882 244.552C287.138 244.179 287.266 243.731 287.266 243.208C287.266 242.76 287.159 242.36 286.946 242.008C286.732 241.656 286.428 241.379 286.034 241.176C285.65 240.963 285.202 240.856 284.69 240.856C283.975 240.856 283.351 240.941 282.818 241.112C282.295 241.283 281.82 241.555 281.394 241.928C281.202 242.099 280.946 242.317 280.626 242.584C280.316 242.851 280.023 243.091 279.746 243.304L278.434 241.896C278.914 241.619 279.426 241.267 279.97 240.84C280.514 240.413 281.063 239.939 281.618 239.416C282.172 238.893 282.7 238.355 283.202 237.8C283.703 237.235 284.151 236.68 284.546 236.136C284.087 236.243 283.586 236.344 283.042 236.44C282.508 236.536 281.991 236.616 281.49 236.68C280.999 236.744 280.583 236.787 280.242 236.808L279.89 234.984C280.178 235.005 280.535 235.005 280.962 234.984C281.399 234.952 281.868 234.915 282.37 234.872C282.871 234.819 283.356 234.755 283.826 234.68C284.306 234.605 284.732 234.531 285.106 234.456C285.49 234.371 285.772 234.285 285.954 234.2L287.394 235.16C287.031 235.875 286.53 236.627 285.89 237.416C285.26 238.195 284.583 238.947 283.858 239.672C284.039 239.587 284.242 239.523 284.466 239.48C284.69 239.427 284.908 239.4 285.122 239.4C285.964 239.4 286.695 239.56 287.314 239.88C287.932 240.2 288.412 240.648 288.754 241.224C289.106 241.789 289.282 242.451 289.282 243.208C289.282 244.008 289.079 244.733 288.674 245.384C288.279 246.035 287.719 246.552 286.994 246.936C286.268 247.32 285.415 247.512 284.434 247.512ZM284.226 245.752C284.172 245.347 284.044 245.021 283.842 244.776C283.65 244.531 283.394 244.408 283.074 244.408C282.903 244.408 282.759 244.451 282.642 244.536C282.524 244.621 282.466 244.749 282.466 244.92C282.466 245.144 282.583 245.331 282.818 245.48C283.063 245.629 283.468 245.715 284.034 245.736C284.066 245.747 284.098 245.752 284.13 245.752C284.162 245.752 284.194 245.752 284.226 245.752Z" fill="#111111"/>
<path d="M265.534 248.104C265.406 247.891 265.236 247.635 265.022 247.336C264.809 247.037 264.564 246.781 264.286 246.568C265.417 246.248 266.286 245.88 266.894 245.464C267.502 245.037 267.924 244.536 268.158 243.96C267.817 244.131 267.476 244.216 267.134 244.216C266.324 244.216 265.668 243.987 265.166 243.528C264.676 243.069 264.414 242.451 264.382 241.672C264.361 241.139 264.468 240.664 264.702 240.248C264.937 239.821 265.268 239.485 265.694 239.24C266.121 238.995 266.606 238.872 267.15 238.872C267.236 238.872 267.31 238.877 267.374 238.888C267.438 238.888 267.508 238.893 267.582 238.904C267.561 238.712 267.54 238.515 267.518 238.312C267.497 238.109 267.486 237.896 267.486 237.672C266.622 237.704 265.78 237.752 264.958 237.816C264.137 237.88 263.385 237.955 262.702 238.04C262.02 238.115 261.454 238.205 261.006 238.312L260.734 236.456C261.118 236.424 261.657 236.392 262.35 236.36C263.044 236.317 263.833 236.275 264.718 236.232C265.614 236.189 266.537 236.147 267.486 236.104V233.848H269.342V236.024C270.174 235.992 270.969 235.965 271.726 235.944C272.484 235.912 273.161 235.891 273.758 235.88C274.356 235.859 274.825 235.853 275.166 235.864L275.038 237.736C274.42 237.661 273.598 237.619 272.574 237.608C271.561 237.587 270.484 237.587 269.342 237.608C269.342 237.992 269.353 238.381 269.374 238.776C269.406 239.171 269.433 239.549 269.454 239.912C269.977 240.531 270.238 241.352 270.238 242.376C270.238 243.795 269.828 244.989 269.006 245.96C268.185 246.92 267.028 247.635 265.534 248.104ZM267.15 242.616C267.449 242.595 267.684 242.493 267.854 242.312C268.025 242.131 268.11 241.896 268.11 241.608C268.11 241.512 268.1 241.411 268.078 241.304C268.068 241.187 268.052 241.064 268.03 240.936C267.806 240.68 267.524 240.552 267.182 240.552C266.884 240.552 266.633 240.648 266.43 240.84C266.228 241.032 266.132 241.277 266.142 241.576C266.142 241.885 266.233 242.141 266.414 242.344C266.606 242.536 266.852 242.627 267.15 242.616Z" fill="#111111"/>
<path d="M310.401 226.112C310.326 225.675 310.268 225.141 310.225 224.512C310.182 223.872 310.15 223.179 310.129 222.432C310.118 221.675 310.118 220.896 310.129 220.096C310.15 219.296 310.182 218.517 310.225 217.76C310.278 216.992 310.342 216.283 310.417 215.632C310.502 214.981 310.598 214.427 310.705 213.968L312.577 214.352C312.46 214.736 312.358 215.237 312.273 215.856C312.188 216.464 312.118 217.136 312.065 217.872C312.012 218.597 311.974 219.344 311.953 220.112C311.942 220.88 311.948 221.627 311.969 222.352C311.99 223.077 312.028 223.733 312.081 224.32C312.134 224.907 312.204 225.381 312.289 225.744L310.401 226.112ZM317.201 225.248C315.356 225.195 314.31 224.592 314.065 223.44C314.001 223.152 313.98 222.832 314.001 222.48C314.022 222.128 314.102 221.739 314.241 221.312L315.921 221.728C315.846 221.931 315.804 222.112 315.793 222.272C315.793 222.432 315.814 222.576 315.857 222.704C315.996 223.088 316.561 223.296 317.553 223.328C318.033 223.339 318.545 223.323 319.089 223.28C319.644 223.227 320.182 223.152 320.705 223.056C321.238 222.96 321.702 222.853 322.097 222.736C322.076 222.885 322.049 223.088 322.017 223.344C321.996 223.6 321.98 223.861 321.969 224.128C321.958 224.384 321.958 224.597 321.969 224.768C321.468 224.896 320.929 224.997 320.353 225.072C319.788 225.147 319.228 225.2 318.673 225.232C318.129 225.253 317.638 225.259 317.201 225.248ZM314.801 217.44L314.689 215.472C315.094 215.525 315.59 215.557 316.177 215.568C316.764 215.579 317.372 215.573 318.001 215.552C318.641 215.52 319.249 215.472 319.825 215.408C320.412 215.333 320.897 215.243 321.281 215.136L321.201 217.072C320.774 217.147 320.278 217.216 319.713 217.28C319.148 217.333 318.561 217.376 317.953 217.408C317.356 217.44 316.78 217.461 316.225 217.472C315.681 217.472 315.206 217.461 314.801 217.44Z" fill="#111111"/>
<path d="M297.999 227.2C297.903 227.04 297.769 226.853 297.599 226.64C297.428 226.427 297.257 226.229 297.087 226.048C296.916 225.867 296.788 225.744 296.703 225.68C297.567 225.328 298.276 224.891 298.831 224.368C299.385 223.835 299.817 223.179 300.127 222.4C300.447 221.611 300.671 220.661 300.799 219.552C300.927 218.432 300.996 217.115 301.007 215.6H298.175V213.744H306.751V216.816C306.751 218.245 306.719 219.552 306.655 220.736C306.601 221.909 306.537 222.827 306.463 223.488C306.377 224.384 306.196 225.083 305.919 225.584C305.641 226.085 305.268 226.437 304.799 226.64C304.329 226.843 303.759 226.944 303.087 226.944H302.063C302.041 226.667 301.988 226.336 301.903 225.952C301.817 225.568 301.727 225.259 301.631 225.024H303.039C303.444 225.024 303.764 224.912 303.999 224.688C304.233 224.453 304.415 223.968 304.543 223.232C304.596 222.933 304.644 222.469 304.687 221.84C304.74 221.211 304.777 220.464 304.799 219.6C304.831 218.736 304.847 217.808 304.847 216.816V215.6H302.927C302.916 217.392 302.82 218.917 302.639 220.176C302.468 221.435 302.191 222.496 301.807 223.36C301.423 224.224 300.916 224.96 300.287 225.568C299.668 226.165 298.905 226.709 297.999 227.2ZM296.063 223.888C295.476 223.888 295.055 223.792 294.799 223.6C294.553 223.408 294.431 223.083 294.431 222.624V219.616C294.068 219.701 293.727 219.787 293.407 219.872C293.097 219.947 292.831 220.011 292.607 220.064L292.223 218.16C292.489 218.107 292.815 218.043 293.199 217.968C293.583 217.893 293.993 217.813 294.431 217.728V213.232H296.399V217.312C297.017 217.173 297.604 217.04 298.159 216.912C298.713 216.784 299.167 216.667 299.519 216.56L299.855 218.384C299.513 218.459 299.023 218.565 298.383 218.704C297.753 218.843 297.092 218.992 296.399 219.152V221.632C296.399 221.739 296.42 221.819 296.463 221.872C296.516 221.925 296.628 221.952 296.799 221.952H297.167C297.327 221.952 297.46 221.915 297.567 221.84C297.673 221.765 297.764 221.6 297.839 221.344C297.913 221.088 297.972 220.688 298.015 220.144C298.217 220.251 298.484 220.363 298.815 220.48C299.156 220.587 299.476 220.677 299.775 220.752C299.679 221.595 299.535 222.245 299.343 222.704C299.151 223.152 298.895 223.461 298.575 223.632C298.255 223.803 297.844 223.888 297.343 223.888H296.063Z" fill="#111111"/>
<path d="M277.665 227.264C277.58 227.093 277.463 226.891 277.313 226.656C277.175 226.432 277.025 226.213 276.865 226C276.716 225.797 276.577 225.637 276.449 225.52C277.633 225.104 278.679 224.539 279.585 223.824C280.503 223.109 281.244 222.293 281.809 221.376C282.385 220.459 282.748 219.488 282.897 218.464H276.913V216.624H282.977V212.672H284.993V216.624H291.073V218.464H285.089C285.26 219.467 285.639 220.432 286.225 221.36C286.812 222.277 287.559 223.093 288.465 223.808C289.383 224.523 290.407 225.083 291.537 225.488C291.399 225.627 291.244 225.803 291.073 226.016C290.913 226.229 290.759 226.448 290.609 226.672C290.471 226.907 290.364 227.104 290.289 227.264C289.404 226.859 288.551 226.357 287.729 225.76C286.908 225.152 286.172 224.464 285.521 223.696C284.871 222.917 284.359 222.069 283.985 221.152C283.612 222.069 283.095 222.917 282.433 223.696C281.772 224.475 281.025 225.163 280.193 225.76C279.372 226.357 278.529 226.859 277.665 227.264Z" fill="#111111"/>
<path d="M269.218 226.848C268.343 226.848 267.554 226.763 266.85 226.592C266.146 226.421 265.591 226.149 265.186 225.776C264.78 225.392 264.578 224.891 264.578 224.272C264.578 223.76 264.732 223.296 265.042 222.88C265.351 222.453 265.778 222.069 266.322 221.728C266.866 221.376 267.484 221.056 268.178 220.768V220.64C268.178 220.267 268.082 219.995 267.89 219.824C267.708 219.643 267.474 219.541 267.186 219.52C266.695 219.488 266.226 219.557 265.778 219.728C265.33 219.899 264.887 220.208 264.45 220.656C264.322 220.784 264.156 220.949 263.954 221.152C263.751 221.344 263.548 221.536 263.346 221.728C263.143 221.92 262.967 222.08 262.818 222.208L261.426 220.832C262.172 220.341 262.876 219.723 263.538 218.976C264.199 218.229 264.759 217.435 265.218 216.592C264.62 216.613 264.076 216.635 263.586 216.656C263.095 216.667 262.727 216.667 262.482 216.656L262.418 214.816C262.78 214.848 263.282 214.864 263.922 214.864C264.572 214.864 265.276 214.848 266.034 214.816C266.279 214.112 266.418 213.451 266.45 212.832L268.354 212.928C268.322 213.493 268.215 214.08 268.034 214.688C268.823 214.624 269.554 214.555 270.226 214.48C270.908 214.395 271.431 214.299 271.794 214.192L271.906 215.968C271.607 216.021 271.218 216.08 270.738 216.144C270.258 216.197 269.724 216.251 269.138 216.304C268.562 216.357 267.97 216.405 267.362 216.448C267.223 216.747 267.063 217.051 266.882 217.36C266.711 217.659 266.53 217.947 266.338 218.224C266.764 218.053 267.196 217.968 267.634 217.968C268.263 217.968 268.791 218.133 269.218 218.464C269.655 218.795 269.927 219.339 270.034 220.096C270.631 219.893 271.239 219.712 271.858 219.552C272.487 219.381 273.095 219.227 273.682 219.088L274.226 220.848C273.479 220.955 272.754 221.088 272.05 221.248C271.346 221.397 270.69 221.568 270.082 221.76V223.888H268.194V222.48C267.66 222.736 267.234 223.003 266.914 223.28C266.594 223.547 266.434 223.803 266.434 224.048C266.434 224.411 266.652 224.667 267.09 224.816C267.527 224.955 268.194 225.024 269.09 225.024C269.452 225.024 269.858 225.003 270.306 224.96C270.764 224.907 271.218 224.843 271.666 224.768C272.124 224.683 272.524 224.592 272.866 224.496C272.844 224.635 272.823 224.837 272.802 225.104C272.791 225.36 272.786 225.616 272.786 225.872C272.786 226.128 272.791 226.32 272.802 226.448C272.279 226.576 271.692 226.672 271.042 226.736C270.391 226.811 269.783 226.848 269.218 226.848Z" fill="#111111"/>
<path d="M330.831 206.104C330.682 205.848 330.469 205.565 330.191 205.256C329.914 204.957 329.647 204.717 329.391 204.536C330.853 203.96 331.978 203.096 332.767 201.944C333.567 200.792 333.967 199.384 333.967 197.72C333.967 196.707 333.786 196.003 333.423 195.608C333.071 195.203 332.645 195.016 332.143 195.048C331.749 195.069 331.381 195.293 331.039 195.72C330.698 196.136 330.447 196.739 330.287 197.528C330.138 198.317 330.143 199.283 330.303 200.424C330.154 200.435 329.957 200.461 329.711 200.504C329.477 200.547 329.247 200.595 329.023 200.648C328.81 200.701 328.65 200.749 328.543 200.792C328.469 200.397 328.405 199.901 328.351 199.304C328.309 198.707 328.271 198.061 328.239 197.368C328.218 196.675 328.202 195.981 328.191 195.288C328.191 194.595 328.202 193.955 328.223 193.368C328.245 192.781 328.277 192.307 328.319 191.944L330.271 192.12C330.218 192.376 330.165 192.707 330.111 193.112C330.069 193.507 330.031 193.928 329.999 194.376C329.967 194.824 329.946 195.256 329.935 195.672C330.181 195 330.533 194.445 330.991 194.008C331.461 193.56 331.978 193.331 332.543 193.32C333.194 193.309 333.775 193.469 334.287 193.8C334.799 194.12 335.205 194.611 335.503 195.272C335.802 195.923 335.951 196.739 335.951 197.72C335.951 199.779 335.498 201.485 334.591 202.84C333.695 204.184 332.442 205.272 330.831 206.104Z" fill="#00B6B6"/>
<path d="M312.67 205.72V201.144C311.891 201.891 311.235 202.605 310.702 203.288L309.246 201.944C309.694 201.581 310.211 201.139 310.798 200.616C311.385 200.083 312.009 199.555 312.67 199.032V196.872C312.19 196.979 311.721 197.08 311.262 197.176C310.803 197.261 310.435 197.331 310.158 197.384L309.758 195.64C310.046 195.629 310.462 195.581 311.006 195.496C311.561 195.4 312.115 195.299 312.67 195.192V192.2H314.462V194.728C314.601 194.696 314.702 194.659 314.766 194.616L315.79 195.384L314.702 197.56C315.321 197.187 315.945 196.877 316.574 196.632C317.203 196.387 317.811 196.264 318.398 196.264C319.241 196.264 319.987 196.424 320.638 196.744C321.289 197.053 321.795 197.501 322.158 198.088C322.531 198.664 322.718 199.363 322.718 200.184C322.718 201.411 322.27 202.456 321.374 203.32C320.478 204.184 319.155 204.776 317.406 205.096C317.363 204.925 317.283 204.723 317.166 204.488C317.059 204.253 316.937 204.019 316.798 203.784C316.659 203.549 316.521 203.357 316.382 203.208C317.225 203.101 317.977 202.931 318.638 202.696C319.299 202.451 319.822 202.125 320.206 201.72C320.59 201.304 320.782 200.792 320.782 200.184C320.782 199.427 320.574 198.867 320.158 198.504C319.742 198.131 319.155 197.944 318.398 197.944C317.811 197.944 317.177 198.104 316.494 198.424C315.811 198.744 315.134 199.155 314.462 199.656V205.72H312.67Z" fill="#00B6B6"/>
<path d="M303.968 206.152C303.957 205.939 303.92 205.688 303.856 205.4C303.802 205.112 303.744 204.861 303.68 204.648C303.413 205 303.21 205.325 303.072 205.624C302.421 205.4 301.834 205.064 301.312 204.616C300.8 204.168 300.378 203.672 300.048 203.128C299.717 203.736 299.269 204.259 298.704 204.696C298.138 205.133 297.445 205.475 296.624 205.72C296.538 205.528 296.4 205.288 296.208 205C296.016 204.701 295.845 204.467 295.696 204.296C296.432 204.115 297.029 203.869 297.488 203.56C297.946 203.251 298.293 202.867 298.528 202.408H295.648V201.08H298.944C298.965 200.963 298.981 200.84 298.992 200.712C299.002 200.573 299.013 200.435 299.024 200.296H296.08V198.968H297.84C297.722 198.765 297.6 198.568 297.472 198.376C297.344 198.184 297.221 198.019 297.104 197.88L298.48 197.256C298.64 197.469 298.821 197.747 299.024 198.088C299.237 198.429 299.408 198.723 299.536 198.968H300.464C300.613 198.723 300.768 198.429 300.928 198.088C301.098 197.747 301.221 197.464 301.296 197.24L302.784 197.72C302.709 197.923 302.618 198.136 302.512 198.36C302.405 198.573 302.298 198.776 302.192 198.968H303.856V200.296H300.784C300.784 200.435 300.773 200.568 300.752 200.696C300.741 200.824 300.725 200.952 300.704 201.08H304.288V202.408H301.408C301.706 202.792 302.074 203.139 302.512 203.448C302.949 203.747 303.461 203.987 304.048 204.168C304.026 204.189 304 204.216 303.968 204.248C303.946 204.28 303.925 204.312 303.904 204.344H304.544C304.757 204.344 304.89 204.317 304.944 204.264C305.008 204.2 305.04 204.072 305.04 203.88V197.144H300.56V191.992H306.848V204.52C306.848 205.075 306.698 205.485 306.4 205.752C306.112 206.019 305.637 206.152 304.976 206.152H303.968ZM293.184 206.168V191.992H299.44V197.144H294.992V206.168H293.184ZM302.304 195.816H305.04V195.144H302.304V195.816ZM302.304 193.992H305.04V193.32H302.304V193.992ZM294.992 195.816H297.696V195.144H294.992V195.816ZM294.992 193.992H297.696V193.32H294.992V193.992Z" fill="#00B6B6"/>
<path d="M285.231 205.144C285.188 204.973 285.108 204.771 284.991 204.536C284.874 204.301 284.735 204.077 284.575 203.864C284.426 203.64 284.276 203.459 284.127 203.32C285.588 203.096 286.698 202.621 287.455 201.896C288.223 201.16 288.628 200.296 288.671 199.304C288.714 198.515 288.57 197.811 288.239 197.192C287.908 196.573 287.455 196.072 286.879 195.688C286.314 195.304 285.69 195.075 285.007 195C284.922 195.992 284.762 197.005 284.527 198.04C284.292 199.075 283.972 200.045 283.567 200.952C283.172 201.859 282.687 202.627 282.111 203.256C281.674 203.725 281.247 203.997 280.831 204.072C280.426 204.147 279.994 204.088 279.535 203.896C279.087 203.704 278.692 203.4 278.351 202.984C278.01 202.568 277.748 202.077 277.567 201.512C277.386 200.936 277.311 200.323 277.343 199.672C277.396 198.701 277.626 197.816 278.031 197.016C278.436 196.205 278.98 195.507 279.663 194.92C280.346 194.333 281.13 193.891 282.015 193.592C282.9 193.293 283.844 193.171 284.847 193.224C285.658 193.267 286.42 193.448 287.135 193.768C287.85 194.088 288.474 194.531 289.007 195.096C289.551 195.651 289.967 196.296 290.255 197.032C290.554 197.768 290.676 198.573 290.623 199.448C290.548 200.909 290.036 202.136 289.087 203.128C288.138 204.109 286.852 204.781 285.231 205.144ZM280.031 201.912C280.148 201.997 280.271 202.04 280.399 202.04C280.527 202.04 280.655 201.976 280.783 201.848C281.167 201.464 281.519 200.92 281.839 200.216C282.17 199.512 282.442 198.717 282.655 197.832C282.879 196.947 283.023 196.045 283.087 195.128C282.351 195.299 281.695 195.608 281.119 196.056C280.554 196.504 280.106 197.048 279.775 197.688C279.444 198.317 279.258 199.011 279.215 199.768C279.194 200.269 279.258 200.707 279.407 201.08C279.567 201.443 279.775 201.72 280.031 201.912Z" fill="#00B6B6"/>
<path d="M272.735 205.128C271.733 205.299 270.757 205.416 269.807 205.48C268.858 205.544 267.973 205.533 267.151 205.448C266.33 205.363 265.61 205.192 264.991 204.936C264.373 204.669 263.887 204.307 263.535 203.848C263.194 203.379 263.023 202.797 263.023 202.104C263.023 201.187 263.343 200.408 263.983 199.768C264.634 199.117 265.503 198.557 266.591 198.088C266.421 197.629 266.271 197.08 266.143 196.44C266.026 195.789 265.946 195.085 265.903 194.328C265.861 193.56 265.855 192.776 265.887 191.976H267.951C267.887 192.563 267.866 193.197 267.887 193.88C267.909 194.552 267.957 195.197 268.031 195.816C268.117 196.435 268.223 196.968 268.351 197.416C268.885 197.245 269.445 197.08 270.031 196.92C270.629 196.76 271.237 196.6 271.855 196.44L272.239 198.44C271.301 198.547 270.399 198.717 269.535 198.952C268.671 199.176 267.898 199.448 267.215 199.768C266.533 200.077 265.989 200.424 265.583 200.808C265.189 201.181 264.991 201.576 264.991 201.992C264.991 202.44 265.205 202.797 265.631 203.064C266.058 203.331 266.645 203.512 267.391 203.608C268.138 203.693 268.991 203.693 269.951 203.608C270.922 203.512 271.946 203.325 273.023 203.048C272.917 203.315 272.837 203.656 272.783 204.072C272.741 204.488 272.725 204.84 272.735 205.128Z" fill="#00B6B6"/>
<path d="M245.951 206.072C245.802 205.805 245.615 205.517 245.391 205.208C245.167 204.909 244.938 204.659 244.703 204.456C245.887 203.88 246.954 203.176 247.903 202.344C248.852 201.501 249.599 200.531 250.143 199.432C250.698 198.333 250.975 197.123 250.975 195.8V191.88H252.959V195.256C252.959 196.323 253.135 197.32 253.487 198.248C253.839 199.176 254.319 200.024 254.927 200.792C255.535 201.56 256.223 202.237 256.991 202.824C257.759 203.4 258.564 203.875 259.407 204.248C259.204 204.472 258.98 204.76 258.735 205.112C258.5 205.464 258.314 205.773 258.175 206.04C257.268 205.571 256.415 204.995 255.615 204.312C254.815 203.629 254.111 202.867 253.503 202.024C252.906 201.181 252.431 200.296 252.079 199.368C251.77 200.328 251.306 201.229 250.687 202.072C250.068 202.904 249.354 203.661 248.543 204.344C247.732 205.016 246.868 205.592 245.951 206.072Z" fill="#00B6B6"/>
<path d="M162.735 289.071C162.735 319.181 138.326 343.589 108.217 343.589C78.1077 343.589 53.6992 319.181 53.6992 289.071C53.6992 258.962 78.1077 234.553 108.217 234.553C138.326 234.553 162.735 258.962 162.735 289.071Z" fill="white"/>
<path d="M162.735 289.071C162.735 258.962 138.326 234.553 108.217 234.553C78.1076 234.554 53.6994 258.962 53.6992 289.071C53.6992 318.945 77.7279 343.208 107.513 343.585L108.217 343.59C138.091 343.59 162.353 319.561 162.73 289.776L162.735 289.071ZM168.735 289.071C168.735 322.494 141.64 349.59 108.217 349.59C74.7938 349.589 47.6992 322.494 47.6992 289.071C47.6994 255.648 74.7939 228.554 108.217 228.553C141.64 228.553 168.735 255.648 168.735 289.071Z" fill="url(#paint6_linear_1099_11209)" fill-opacity="0.3"/>
<path d="M119.36 319.684V317.614H123.41V311.35H120.368V309.28H123.41V303.97H125.588V309.28H128.72V311.35H125.588V317.614H129.206V319.684H119.36ZM115.778 320.26V314.266C115.442 314.566 115.094 314.866 114.734 315.166C114.374 315.454 114.002 315.73 113.618 315.994C113.462 315.754 113.234 315.472 112.934 315.148C112.634 314.824 112.376 314.572 112.16 314.392C112.64 314.116 113.144 313.774 113.672 313.366C114.212 312.946 114.74 312.49 115.256 311.998C115.772 311.494 116.24 310.99 116.66 310.486C117.08 309.97 117.416 309.49 117.668 309.046H113.114V307.102H115.76V303.952H117.848V307.102H119.504L120.476 307.912C119.972 309.04 119.318 310.144 118.514 311.224C118.826 311.44 119.162 311.668 119.522 311.908C119.894 312.136 120.248 312.352 120.584 312.556C120.92 312.748 121.196 312.904 121.412 313.024C121.292 313.144 121.148 313.312 120.98 313.528C120.824 313.732 120.668 313.948 120.512 314.176C120.368 314.392 120.254 314.578 120.17 314.734C119.846 314.518 119.48 314.272 119.072 313.996C118.664 313.708 118.262 313.426 117.866 313.15V320.26H115.778Z" fill="#111111"/>
<path d="M108.452 320.53C108.308 320.254 108.116 319.948 107.876 319.612C107.648 319.276 107.39 318.934 107.102 318.586C106.55 318.682 105.914 318.784 105.194 318.892C104.474 319 103.712 319.108 102.908 319.216C102.104 319.324 101.306 319.42 100.514 319.504C99.7342 319.6 99.0022 319.678 98.3182 319.738C97.6462 319.81 97.0702 319.864 96.5902 319.9L96.1762 317.758C96.4402 317.758 96.7642 317.752 97.1482 317.74C97.5442 317.716 97.9702 317.686 98.4262 317.65C98.7022 317.23 98.9842 316.732 99.2722 316.156C99.5722 315.58 99.8362 315.034 100.064 314.518H95.6362V312.592H110.378V314.518H106.04C106.364 314.77 106.724 315.088 107.12 315.472C107.516 315.856 107.918 316.27 108.326 316.714C108.734 317.146 109.106 317.572 109.442 317.992C109.79 318.412 110.066 318.778 110.27 319.09C110.114 319.186 109.916 319.324 109.676 319.504C109.436 319.684 109.202 319.864 108.974 320.044C108.746 320.236 108.572 320.398 108.452 320.53ZM95.5282 311.494C95.4442 311.326 95.3242 311.128 95.1682 310.9C95.0122 310.672 94.8442 310.45 94.6642 310.234C94.4842 310.018 94.3162 309.844 94.1602 309.712C94.9042 309.424 95.6662 309.052 96.4462 308.596C97.2382 308.128 98.0002 307.618 98.7322 307.066C99.4642 306.502 100.118 305.932 100.694 305.356C101.27 304.768 101.714 304.216 102.026 303.7L104.06 303.988C104.444 304.504 104.936 305.032 105.536 305.572C106.136 306.112 106.79 306.628 107.498 307.12C108.218 307.6 108.95 308.038 109.694 308.434C110.438 308.83 111.152 309.154 111.836 309.406C111.656 309.55 111.464 309.748 111.26 310C111.056 310.24 110.864 310.486 110.684 310.738C110.516 310.99 110.39 311.206 110.306 311.386C109.838 311.182 109.352 310.942 108.848 310.666C108.356 310.39 107.858 310.09 107.354 309.766V311.296H98.6602V309.712C98.1082 310.084 97.5622 310.426 97.0222 310.738C96.4822 311.038 95.9842 311.29 95.5282 311.494ZM99.1642 309.352H106.76C106.028 308.848 105.332 308.308 104.672 307.732C104.012 307.144 103.454 306.556 102.998 305.968C102.59 306.508 102.044 307.078 101.36 307.678C100.676 308.266 99.9442 308.824 99.1642 309.352ZM101.072 317.434C101.876 317.362 102.674 317.284 103.466 317.2C104.258 317.104 104.978 317.014 105.626 316.93C105.11 316.402 104.654 315.994 104.258 315.706L105.662 314.518H102.584C102.38 314.986 102.14 315.478 101.864 315.994C101.6 316.498 101.336 316.978 101.072 317.434Z" fill="#111111"/>
<path d="M157.484 296.576C156.044 296.576 154.982 296.306 154.298 295.766C153.614 295.214 153.272 294.542 153.272 293.75C153.272 293.234 153.398 292.796 153.65 292.436C153.902 292.076 154.232 291.8 154.64 291.608C155.048 291.404 155.486 291.302 155.954 291.302C156.842 291.302 157.556 291.578 158.096 292.13C158.648 292.682 159.002 293.366 159.158 294.182C159.602 293.978 159.962 293.666 160.238 293.246C160.526 292.826 160.67 292.322 160.67 291.734C160.67 291.23 160.55 290.78 160.31 290.384C160.07 289.988 159.728 289.676 159.284 289.448C158.852 289.208 158.348 289.088 157.772 289.088C156.968 289.088 156.266 289.184 155.666 289.376C155.078 289.568 154.544 289.874 154.064 290.294C153.848 290.486 153.56 290.732 153.2 291.032C152.852 291.332 152.522 291.602 152.21 291.842L150.734 290.258C151.274 289.946 151.85 289.55 152.462 289.07C153.074 288.59 153.692 288.056 154.316 287.468C154.94 286.88 155.534 286.274 156.098 285.65C156.662 285.014 157.166 284.39 157.61 283.778C157.094 283.898 156.53 284.012 155.918 284.12C155.318 284.228 154.736 284.318 154.172 284.39C153.62 284.462 153.152 284.51 152.768 284.534L152.372 282.482C152.696 282.506 153.098 282.506 153.578 282.482C154.07 282.446 154.598 282.404 155.162 282.356C155.726 282.296 156.272 282.224 156.8 282.14C157.34 282.056 157.82 281.972 158.24 281.888C158.672 281.792 158.99 281.696 159.194 281.6L160.814 282.68C160.406 283.484 159.842 284.33 159.122 285.218C158.414 286.094 157.652 286.94 156.836 287.756C157.04 287.66 157.268 287.588 157.52 287.54C157.772 287.48 158.018 287.45 158.258 287.45C159.206 287.45 160.028 287.63 160.724 287.99C161.42 288.35 161.96 288.854 162.344 289.502C162.74 290.138 162.938 290.882 162.938 291.734C162.938 292.634 162.71 293.45 162.254 294.182C161.81 294.914 161.18 295.496 160.364 295.928C159.548 296.36 158.588 296.576 157.484 296.576ZM157.25 294.596C157.19 294.14 157.046 293.774 156.818 293.498C156.602 293.222 156.314 293.084 155.954 293.084C155.762 293.084 155.6 293.132 155.468 293.228C155.336 293.324 155.27 293.468 155.27 293.66C155.27 293.912 155.402 294.122 155.666 294.29C155.942 294.458 156.398 294.554 157.034 294.578C157.07 294.59 157.106 294.596 157.142 294.596C157.178 294.596 157.214 294.596 157.25 294.596Z" fill="#00B6B6"/>
<path d="M134.768 296.972V291.842C134.324 292.334 133.916 292.802 133.544 293.246C133.172 293.678 132.878 294.032 132.662 294.308L131.078 292.94C131.582 292.52 132.146 291.992 132.77 291.356C133.406 290.708 134.072 290.036 134.768 289.34V286.874C134.24 286.994 133.718 287.108 133.202 287.216C132.698 287.324 132.29 287.408 131.978 287.468L131.546 285.47C131.894 285.446 132.368 285.386 132.968 285.29C133.58 285.194 134.18 285.086 134.768 284.966V281.42H136.784V284.426L136.82 284.408L137.918 285.218L136.874 287.252C137.438 286.736 137.996 286.268 138.548 285.848C139.1 285.428 139.628 285.092 140.132 284.84C140.636 284.588 141.098 284.462 141.518 284.462C142.346 284.462 142.946 284.72 143.318 285.236C143.69 285.74 143.828 286.556 143.732 287.684C143.72 287.876 143.69 288.164 143.642 288.548C143.606 288.92 143.564 289.34 143.516 289.808C143.48 290.276 143.438 290.744 143.39 291.212C143.354 291.668 143.318 292.082 143.282 292.454C143.246 292.814 143.222 293.078 143.21 293.246C143.15 293.762 143.366 294.02 143.858 294.02C144.35 294.02 144.806 293.84 145.226 293.48C145.646 293.12 146.006 292.682 146.306 292.166C146.366 292.334 146.462 292.544 146.594 292.796C146.738 293.036 146.888 293.27 147.044 293.498C147.212 293.714 147.356 293.882 147.476 294.002C147.2 294.446 146.852 294.836 146.432 295.172C146.012 295.508 145.562 295.772 145.082 295.964C144.614 296.144 144.152 296.234 143.696 296.234C141.764 296.234 140.882 295.262 141.05 293.318C141.074 293.126 141.104 292.838 141.14 292.454C141.176 292.058 141.212 291.626 141.248 291.158C141.296 290.678 141.344 290.204 141.392 289.736C141.44 289.256 141.482 288.83 141.518 288.458C141.554 288.074 141.578 287.798 141.59 287.63C141.614 287.222 141.578 286.934 141.482 286.766C141.386 286.598 141.2 286.514 140.924 286.514C140.684 286.514 140.348 286.664 139.916 286.964C139.484 287.252 138.998 287.642 138.458 288.134C137.918 288.614 137.36 289.142 136.784 289.718V296.972H134.768Z" fill="#00B6B6"/>
<path d="M122.834 297.35C122.618 296.906 122.324 296.408 121.952 295.856C121.592 295.292 121.19 294.716 120.746 294.128C120.314 293.528 119.87 292.946 119.414 292.382C118.958 291.818 118.526 291.314 118.118 290.87C117.722 290.414 117.38 290.054 117.092 289.79C116.684 289.394 116.48 289.046 116.48 288.746C116.48 288.434 116.678 288.11 117.074 287.774C117.374 287.51 117.728 287.174 118.136 286.766C118.544 286.358 118.97 285.908 119.414 285.416C119.858 284.924 120.29 284.42 120.71 283.904C121.142 283.388 121.526 282.89 121.862 282.41C122.21 281.918 122.48 281.474 122.672 281.078L124.724 282.464C124.46 282.824 124.094 283.268 123.626 283.796C123.17 284.324 122.678 284.876 122.15 285.452C121.634 286.016 121.13 286.556 120.638 287.072C120.146 287.576 119.726 287.996 119.378 288.332C119.102 288.608 119.114 288.902 119.414 289.214C119.678 289.478 120.002 289.832 120.386 290.276C120.782 290.708 121.196 291.194 121.628 291.734C122.072 292.262 122.51 292.796 122.942 293.336C123.374 293.876 123.764 294.386 124.112 294.866C124.46 295.334 124.736 295.724 124.94 296.036C124.748 296.108 124.514 296.222 124.238 296.378C123.962 296.534 123.692 296.696 123.428 296.864C123.176 297.044 122.978 297.206 122.834 297.35Z" fill="#00B6B6"/>
<path d="M107.266 296.702C106.018 296.558 104.914 296.198 103.954 295.622C102.994 295.034 102.244 294.272 101.704 293.336C101.164 292.388 100.894 291.314 100.894 290.114C100.894 289.25 101.104 288.374 101.524 287.486C101.944 286.586 102.562 285.788 103.378 285.092C102.418 285.248 101.464 285.416 100.516 285.596C99.5683 285.764 98.7043 285.926 97.9243 286.082C97.1563 286.238 96.5623 286.376 96.1423 286.496L95.6562 284.156C96.0522 284.132 96.5983 284.078 97.2943 283.994C98.0023 283.91 98.7943 283.808 99.6703 283.688C100.558 283.556 101.47 283.418 102.406 283.274C103.354 283.118 104.266 282.962 105.142 282.806C106.03 282.65 106.822 282.5 107.518 282.356C108.226 282.2 108.778 282.062 109.174 281.942L109.75 284.138C109.57 284.15 109.342 284.18 109.066 284.228C108.802 284.264 108.496 284.306 108.148 284.354C107.5 284.438 106.87 284.642 106.258 284.966C105.658 285.29 105.118 285.71 104.638 286.226C104.17 286.73 103.798 287.312 103.522 287.972C103.246 288.632 103.108 289.346 103.108 290.114C103.108 291.026 103.342 291.788 103.81 292.4C104.278 293.012 104.914 293.492 105.718 293.84C106.534 294.176 107.446 294.404 108.454 294.524C108.274 294.716 108.1 294.95 107.932 295.226C107.764 295.49 107.62 295.754 107.5 296.018C107.38 296.294 107.302 296.522 107.266 296.702Z" fill="#00B6B6"/>
<path d="M85.7928 296.324C85.7208 296.048 85.5708 295.712 85.3428 295.316C85.1268 294.92 84.8988 294.596 84.6588 294.344C86.3628 294.248 87.6648 293.834 88.5648 293.102C89.4768 292.37 89.9328 291.38 89.9328 290.132C89.9328 289.364 89.7048 288.704 89.2488 288.152C88.7928 287.6 88.1688 287.204 87.3768 286.964C86.7288 288.368 85.9908 289.646 85.1628 290.798C85.5228 291.062 85.8708 291.278 86.2068 291.446C85.9668 291.626 85.7268 291.884 85.4868 292.22C85.2468 292.544 85.0608 292.838 84.9288 293.102C84.7488 293.006 84.5688 292.904 84.3888 292.796C84.2088 292.676 84.0288 292.55 83.8488 292.418C83.1048 293.246 82.3608 293.876 81.6168 294.308C80.9448 294.704 80.3148 294.896 79.7268 294.884C79.1508 294.86 78.6828 294.638 78.3228 294.218C77.9748 293.786 77.8008 293.15 77.8008 292.31C77.8008 291.434 77.9928 290.582 78.3768 289.754C78.7608 288.914 79.2708 288.164 79.9068 287.504C79.5468 286.832 79.2228 286.166 78.9348 285.506C78.6588 284.834 78.4308 284.21 78.2508 283.634L80.1408 282.878C80.2248 283.382 80.3748 283.922 80.5908 284.498C80.8068 285.074 81.0768 285.662 81.4008 286.262C82.0368 285.842 82.7088 285.518 83.4168 285.29C84.1368 285.05 84.8688 284.93 85.6128 284.93H86.0088C86.2128 284.366 86.3868 283.802 86.5308 283.238C86.6868 282.662 86.7948 282.116 86.8548 281.6L89.0148 282.14C88.9068 282.656 88.7748 283.178 88.6188 283.706C88.4748 284.222 88.3008 284.744 88.0968 285.272C88.9488 285.524 89.6688 285.896 90.2568 286.388C90.8568 286.868 91.3128 287.432 91.6248 288.08C91.9488 288.716 92.1108 289.4 92.1108 290.132C92.1108 291.212 91.8708 292.19 91.3908 293.066C90.9108 293.93 90.2028 294.644 89.2668 295.208C88.3308 295.772 87.1728 296.144 85.7928 296.324ZM80.6808 292.634C81.2568 292.322 81.8448 291.818 82.4448 291.122C82.1688 290.822 81.9048 290.51 81.6528 290.186C81.4008 289.85 81.1548 289.514 80.9148 289.178C80.5428 289.634 80.2488 290.126 80.0328 290.654C79.8288 291.182 79.7268 291.722 79.7268 292.274C79.7268 292.85 80.0448 292.97 80.6808 292.634ZM83.6868 289.484C84.2508 288.62 84.7668 287.708 85.2348 286.748C84.7308 286.784 84.2328 286.898 83.7408 287.09C83.2488 287.27 82.7868 287.516 82.3548 287.828C82.7628 288.404 83.2068 288.956 83.6868 289.484Z" fill="#00B6B6"/>
<path d="M65.9542 289.826C65.8462 289.61 65.6902 289.358 65.4862 289.07C65.2822 288.77 65.0842 288.53 64.8922 288.35C65.5162 288.086 66.0502 287.774 66.4942 287.414C66.9502 287.042 67.3282 286.634 67.6282 286.19C67.3402 286.034 67.0522 285.89 66.7642 285.758C66.4762 285.626 66.2002 285.518 65.9362 285.434L66.8542 283.85C67.0942 283.934 67.3462 284.036 67.6102 284.156C67.8742 284.264 68.1382 284.384 68.4022 284.516C68.4622 284.312 68.5102 284.108 68.5462 283.904C68.5822 283.7 68.6122 283.49 68.6362 283.274H65.9002V281.51H74.5402C74.5402 282.134 74.5282 282.806 74.5042 283.526C74.4802 284.234 74.4442 284.906 74.3962 285.542C74.3482 286.178 74.2822 286.694 74.1982 287.09C74.0422 287.894 73.7602 288.452 73.3522 288.764C72.9442 289.064 72.3442 289.214 71.5522 289.214H70.6882C70.6762 289.046 70.6522 288.848 70.6162 288.62C70.5802 288.392 70.5322 288.164 70.4722 287.936L70.4542 287.972C70.1182 287.708 69.7162 287.426 69.2482 287.126C68.8762 287.678 68.4142 288.182 67.8622 288.638C67.3222 289.094 66.6862 289.49 65.9542 289.826ZM59.3122 296.918V291.734H64.7662V295.046C64.9222 294.722 65.0782 294.344 65.2342 293.912C65.4022 293.48 65.5462 293.048 65.6662 292.616C65.7982 292.184 65.8942 291.806 65.9542 291.482L67.6822 291.842C67.5742 292.538 67.3762 293.282 67.0882 294.074C66.8122 294.866 66.5002 295.556 66.1522 296.144C65.9842 296.036 65.7682 295.928 65.5042 295.82C65.2522 295.7 65.0062 295.598 64.7662 295.514V296.918H59.3122ZM69.4102 297.08C68.8582 297.08 68.4622 296.99 68.2222 296.81C67.9822 296.63 67.8622 296.318 67.8622 295.874V291.086H69.5182C69.0862 290.69 68.6722 290.366 68.2762 290.114L69.3742 288.8C69.7582 289.052 70.1782 289.37 70.6342 289.754C71.1022 290.138 71.5162 290.522 71.8762 290.906C71.7202 291.062 71.5162 291.284 71.2642 291.572C71.0242 291.848 70.8262 292.088 70.6702 292.292C70.5502 292.136 70.4062 291.974 70.2382 291.806C70.0822 291.626 69.9082 291.452 69.7162 291.284V294.74C69.7162 294.896 69.7462 295.004 69.8062 295.064C69.8662 295.124 69.9862 295.154 70.1662 295.154H70.6162C70.7842 295.154 70.9102 295.124 70.9942 295.064C71.0782 294.992 71.1382 294.848 71.1742 294.632C71.2222 294.404 71.2582 294.056 71.2822 293.588C71.4142 293.648 71.5882 293.72 71.8042 293.804C72.0322 293.876 72.2662 293.948 72.5062 294.02C72.7462 294.08 72.9502 294.134 73.1182 294.182C73.0462 294.962 72.9202 295.562 72.7402 295.982C72.5722 296.402 72.3322 296.69 72.0202 296.846C71.7082 297.002 71.3062 297.08 70.8142 297.08H69.4102ZM58.5742 285.74V284.102H65.3422V285.74H58.5742ZM59.4562 283.22V281.528H64.5502V283.22H59.4562ZM59.4382 290.816V289.16H64.5502V290.816H59.4382ZM59.4382 288.278V286.622H64.5502V288.278H59.4382ZM74.0722 295.748C73.9162 295.376 73.7122 294.962 73.4602 294.506C73.2082 294.05 72.9322 293.606 72.6322 293.174C72.3442 292.73 72.0562 292.346 71.7682 292.022L73.2262 291.014C73.5382 291.362 73.8442 291.758 74.1442 292.202C74.4562 292.646 74.7442 293.096 75.0082 293.552C75.2722 293.996 75.4882 294.392 75.6562 294.74C75.5122 294.8 75.3322 294.896 75.1162 295.028C74.9122 295.148 74.7142 295.274 74.5222 295.406C74.3302 295.538 74.1802 295.652 74.0722 295.748ZM70.8142 287.324H71.2462C71.6782 287.324 71.9482 287.258 72.0562 287.126C72.1762 286.994 72.2662 286.766 72.3262 286.442C72.3742 286.226 72.4102 285.932 72.4342 285.56C72.4702 285.188 72.4942 284.798 72.5062 284.39C72.5302 283.97 72.5422 283.598 72.5422 283.274H70.5082C70.4722 283.646 70.4182 284.012 70.3462 284.372C70.2862 284.72 70.2022 285.056 70.0942 285.38C70.3582 285.524 70.6102 285.674 70.8502 285.83C71.0902 285.974 71.3062 286.112 71.4982 286.244C71.4142 286.364 71.3062 286.526 71.1742 286.73C71.0542 286.922 70.9342 287.12 70.8142 287.324ZM61.2022 295.262H62.8762V293.39H61.2022V295.262Z" fill="#00B6B6"/>
<path d="M131.368 273.954C130.384 273.954 129.496 273.858 128.704 273.666C127.912 273.474 127.288 273.168 126.832 272.748C126.376 272.316 126.148 271.752 126.148 271.056C126.148 270.48 126.322 269.958 126.67 269.49C127.018 269.01 127.498 268.578 128.11 268.194C128.722 267.798 129.418 267.438 130.198 267.114V266.97C130.198 266.55 130.09 266.244 129.874 266.052C129.67 265.848 129.406 265.734 129.082 265.71C128.53 265.674 128.002 265.752 127.498 265.944C126.994 266.136 126.496 266.484 126.004 266.988C125.86 267.132 125.674 267.318 125.446 267.546C125.218 267.762 124.99 267.978 124.762 268.194C124.534 268.41 124.336 268.59 124.168 268.734L122.602 267.186C123.442 266.634 124.234 265.938 124.978 265.098C125.722 264.258 126.352 263.364 126.868 262.416C126.196 262.44 125.584 262.464 125.032 262.488C124.48 262.5 124.066 262.5 123.79 262.488L123.718 260.418C124.126 260.454 124.69 260.472 125.41 260.472C126.142 260.472 126.934 260.454 127.786 260.418C128.062 259.626 128.218 258.882 128.254 258.186L130.396 258.294C130.36 258.93 130.24 259.59 130.036 260.274C130.924 260.202 131.746 260.124 132.502 260.04C133.27 259.944 133.858 259.836 134.266 259.716L134.392 261.714C134.056 261.774 133.618 261.84 133.078 261.912C132.538 261.972 131.938 262.032 131.278 262.092C130.63 262.152 129.964 262.206 129.28 262.254C129.124 262.59 128.944 262.932 128.74 263.28C128.548 263.616 128.344 263.94 128.128 264.252C128.608 264.06 129.094 263.964 129.586 263.964C130.294 263.964 130.888 264.15 131.368 264.522C131.86 264.894 132.166 265.506 132.286 266.358C132.958 266.13 133.642 265.926 134.338 265.746C135.046 265.554 135.73 265.38 136.39 265.224L137.002 267.204C136.162 267.324 135.346 267.474 134.554 267.654C133.762 267.822 133.024 268.014 132.34 268.23V270.624H130.216V269.04C129.616 269.328 129.136 269.628 128.776 269.94C128.416 270.24 128.236 270.528 128.236 270.804C128.236 271.212 128.482 271.5 128.974 271.668C129.466 271.824 130.216 271.902 131.224 271.902C131.632 271.902 132.088 271.878 132.592 271.83C133.108 271.77 133.618 271.698 134.122 271.614C134.638 271.518 135.088 271.416 135.472 271.308C135.448 271.464 135.424 271.692 135.4 271.992C135.388 272.28 135.382 272.568 135.382 272.856C135.382 273.144 135.388 273.36 135.4 273.504C134.812 273.648 134.152 273.756 133.42 273.828C132.688 273.912 132.004 273.954 131.368 273.954Z" fill="#111111"/>
<path d="M105.752 274.314C105.668 274.074 105.512 273.762 105.284 273.378C105.068 273.006 104.84 272.706 104.6 272.478C106.16 272.046 107.372 271.332 108.236 270.336C109.1 269.328 109.61 268.152 109.766 266.808H107.048V265.206C106.664 265.566 106.274 265.902 105.878 266.214C105.494 266.514 105.11 266.784 104.726 267.024C104.57 266.784 104.336 266.496 104.024 266.16C103.724 265.824 103.436 265.542 103.16 265.314C103.844 264.942 104.528 264.456 105.212 263.856C105.908 263.244 106.538 262.566 107.102 261.822C107.678 261.078 108.122 260.328 108.434 259.572L110.486 260.598C110.15 261.33 109.73 262.044 109.226 262.74C108.722 263.436 108.17 264.084 107.57 264.684H116.336C115.688 264.072 115.118 263.4 114.626 262.668C114.146 261.936 113.798 261.162 113.582 260.346H110.612V258.312H115.346C115.514 259.668 116.084 260.904 117.056 262.02C118.028 263.124 119.3 264.054 120.872 264.81C120.704 264.966 120.518 265.164 120.314 265.404C120.122 265.644 119.936 265.89 119.756 266.142C119.588 266.382 119.45 266.598 119.342 266.79C118.97 266.598 118.604 266.388 118.244 266.16C117.896 265.932 117.548 265.686 117.2 265.422C117.188 266.178 117.152 266.976 117.092 267.816C117.044 268.644 116.972 269.43 116.876 270.174C116.792 270.906 116.684 271.5 116.552 271.956C116.324 272.808 115.94 273.39 115.4 273.702C114.872 274.026 114.146 274.188 113.222 274.188H111.782C111.758 273.984 111.722 273.738 111.674 273.45C111.626 273.174 111.566 272.904 111.494 272.64C111.434 272.364 111.368 272.142 111.296 271.974H112.898C113.378 271.974 113.726 271.902 113.942 271.758C114.17 271.614 114.35 271.338 114.482 270.93C114.578 270.63 114.656 270.234 114.716 269.742C114.788 269.238 114.842 268.722 114.878 268.194C114.914 267.654 114.932 267.192 114.932 266.808H111.944C111.788 268.548 111.2 270.084 110.18 271.416C109.172 272.736 107.696 273.702 105.752 274.314Z" fill="#111111"/>
<path d="M87.9883 273.738V260.256H91.5703C91.6783 259.98 91.7863 259.674 91.8943 259.338C92.0143 259.002 92.1163 258.69 92.2003 258.402C92.2963 258.114 92.3503 257.916 92.3623 257.808L94.9903 258.06C94.9183 258.288 94.7803 258.618 94.5763 259.05C94.3843 259.47 94.1923 259.872 94.0003 260.256H100.03V273.738H87.9883ZM90.2383 271.83H97.7803V269.85H90.2383V271.83ZM90.2383 267.978H97.7803V265.998H90.2383V267.978ZM90.2383 264.144H97.7803V262.164H90.2383V264.144Z" fill="#111111"/>
<path d="M315.742 75.943C315.742 99.8995 296.322 119.32 272.365 119.32C248.409 119.32 228.988 99.8995 228.988 75.943C228.988 51.9865 248.409 32.5659 272.365 32.5659C296.322 32.5659 315.742 51.9865 315.742 75.943Z" fill="white"/>
<path d="M315.742 75.9429C315.742 51.9864 296.322 32.5659 272.365 32.5659C248.409 32.566 228.988 51.9865 228.988 75.9429C228.988 99.8993 248.409 119.32 272.365 119.32C296.322 119.32 315.742 99.8994 315.742 75.9429ZM321.742 75.9429C321.742 103.213 299.635 125.32 272.365 125.32C245.095 125.32 222.988 103.213 222.988 75.9429C222.988 48.6728 245.095 26.566 272.365 26.5659C299.635 26.5659 321.742 48.6727 321.742 75.9429Z" fill="url(#paint7_linear_1099_11209)" fill-opacity="0.3"/>
<path d="M274.392 89.054C274.323 88.794 274.21 88.4734 274.054 88.092C273.898 87.728 273.725 87.364 273.534 87C273.361 86.6534 273.205 86.3934 273.066 86.22C275.129 85.96 276.897 85.5007 278.37 84.842C279.844 84.1834 280.996 83.282 281.828 82.138H273.43V79.59H283.024C283.094 79.3647 283.146 79.1394 283.18 78.914C283.232 78.6714 283.267 78.42 283.284 78.16H276.732V75.69H283.388V74.286H276.498V73.532H273.794V67.526H283.258V65.186H286.638V67.526H296.154V73.402H293.502V74.286H286.508V75.69H293.242V78.16H286.43C286.413 78.4027 286.387 78.6454 286.352 78.888C286.318 79.1134 286.274 79.3474 286.222 79.59H296.596V82.138H287.912C288.814 83.178 290.053 84.0447 291.63 84.738C293.208 85.4314 294.984 85.8907 296.96 86.116C296.787 86.324 296.588 86.61 296.362 86.974C296.154 87.338 295.955 87.7107 295.764 88.092C295.591 88.4734 295.461 88.794 295.374 89.054C292.965 88.6034 290.868 87.8494 289.082 86.792C287.314 85.7347 285.945 84.4 284.974 82.788C283.085 85.9947 279.558 88.0834 274.392 89.054ZM286.508 71.79H293.19V69.996H286.508V71.79ZM276.81 71.79H283.388V69.996H276.81V71.79Z" fill="#111111"/>
<path d="M262.407 88.898C262.13 88.6034 261.801 88.2914 261.419 87.962C261.038 87.6327 260.691 87.3814 260.379 87.208C261.246 86.5667 262.026 85.856 262.719 85.076C263.43 84.2787 264.071 83.4294 264.643 82.528C264.262 81.1587 263.941 79.5987 263.681 77.848C263.421 76.0974 263.231 74.1214 263.109 71.92H259.001V74.572H262.875V76.938C262.875 78.1687 262.858 79.3127 262.823 80.37C262.806 81.41 262.737 82.2767 262.615 82.97C262.442 83.9754 262.121 84.6514 261.653 84.998C261.185 85.3274 260.449 85.492 259.443 85.492H258.819C258.802 85.2494 258.759 84.92 258.689 84.504C258.62 84.0707 258.542 83.672 258.455 83.308C258.282 84.2787 258.048 85.206 257.753 86.09C257.476 86.9567 257.129 87.7714 256.713 88.534C256.193 88.1874 255.578 87.9014 254.867 87.676V88.378H247.743V80.916H254.867V86.22C255.422 84.9374 255.812 83.412 256.037 81.644C256.28 79.8587 256.401 77.8654 256.401 75.664V69.424H263.005C262.988 68.7654 262.971 68.0894 262.953 67.396C262.953 66.7027 262.953 65.992 262.953 65.264H265.631C265.614 65.992 265.597 66.7027 265.579 67.396C265.579 68.0894 265.588 68.7654 265.605 69.424H268.049C267.72 68.9734 267.339 68.4794 266.905 67.942C266.472 67.3874 266.108 66.9627 265.813 66.668L267.737 65.264C267.997 65.5067 268.283 65.81 268.595 66.174C268.925 66.538 269.245 66.9107 269.557 67.292C269.869 67.656 270.121 67.9767 270.311 68.254C269.843 68.566 269.332 68.956 268.777 69.424H270.545V71.92H265.683C265.77 73.22 265.874 74.4507 265.995 75.612C266.134 76.7734 266.307 77.8654 266.515 78.888C267.174 77.2587 267.685 75.5427 268.049 73.74L270.519 74.468C270.121 75.9414 269.679 77.3454 269.193 78.68C268.725 80.0147 268.162 81.2887 267.503 82.502C267.677 82.9874 267.859 83.4467 268.049 83.88C268.257 84.3134 268.474 84.712 268.699 85.076C268.821 84.6774 268.933 84.2614 269.037 83.828C269.141 83.3947 269.228 83.0134 269.297 82.684C269.488 82.788 269.739 82.9267 270.051 83.1C270.381 83.256 270.693 83.4034 270.987 83.542C271.282 83.6807 271.499 83.7674 271.637 83.802C271.481 84.5474 271.273 85.3187 271.013 86.116C270.753 86.896 270.476 87.5374 270.181 88.04C269.835 88.6294 269.41 88.9414 268.907 88.976C268.422 89.0107 267.945 88.7507 267.477 88.196C267.148 87.7974 266.836 87.364 266.541 86.896C266.247 86.428 265.969 85.9167 265.709 85.362C265.241 85.986 264.73 86.5927 264.175 87.182C263.638 87.7714 263.049 88.3434 262.407 88.898ZM246.859 72.206V69.814H255.517V72.206H246.859ZM247.925 68.54V66.096H254.581V68.54H247.925ZM247.925 75.898V73.48H254.581V75.898H247.925ZM247.925 79.564V77.172H254.581V79.564H247.925ZM258.507 82.944H259.183C259.53 82.944 259.781 82.8834 259.937 82.762C260.111 82.6407 260.232 82.346 260.301 81.878C260.388 81.4447 260.44 80.8467 260.457 80.084C260.475 79.3214 260.483 78.3074 260.483 77.042H258.975C258.958 78.0647 258.915 79.0787 258.845 80.084C258.776 81.072 258.663 82.0254 258.507 82.944ZM250.317 85.986H252.319V83.308H250.317V85.986Z" fill="#111111"/>
<path d="M500.254 240.489C500.254 264.446 480.834 283.866 456.877 283.866C432.921 283.866 413.5 264.446 413.5 240.489C413.5 216.533 432.921 197.112 456.877 197.112C480.834 197.112 500.254 216.533 500.254 240.489Z" fill="white"/>
<path d="M500.254 240.489C500.254 216.533 480.833 197.112 456.877 197.112C432.921 197.112 413.5 216.533 413.5 240.489C413.5 264.446 432.921 283.866 456.877 283.866C480.833 283.866 500.254 264.446 500.254 240.489ZM506.254 240.489C506.254 267.759 484.147 289.866 456.877 289.866C429.607 289.866 407.5 267.759 407.5 240.489C407.5 213.219 429.607 191.112 456.877 191.112C484.147 191.112 506.254 213.219 506.254 240.489Z" fill="url(#paint8_linear_1099_11209)" fill-opacity="0.3"/>
<path d="M447.173 252.742C446.93 252.309 446.627 251.841 446.263 251.338C445.899 250.853 445.526 250.445 445.145 250.116C447.069 249.18 448.802 248.036 450.345 246.684C451.887 245.315 453.101 243.737 453.985 241.952C454.886 240.167 455.337 238.199 455.337 236.05V229.68H458.561V235.166C458.561 236.899 458.847 238.52 459.419 240.028C459.991 241.536 460.771 242.914 461.759 244.162C462.747 245.41 463.865 246.511 465.113 247.464C466.361 248.4 467.669 249.171 469.039 249.778C468.709 250.142 468.345 250.61 467.947 251.182C467.565 251.754 467.262 252.257 467.037 252.69C465.563 251.927 464.177 250.991 462.877 249.882C461.577 248.773 460.433 247.533 459.445 246.164C458.474 244.795 457.703 243.356 457.131 241.848C456.628 243.408 455.874 244.873 454.869 246.242C453.863 247.594 452.702 248.825 451.385 249.934C450.067 251.026 448.663 251.962 447.173 252.742Z" fill="#111111"/>
<defs>
<linearGradient id="paint0_linear_1099_11209" x1="397.512" y1="31" x2="397.512" y2="235.508" gradientUnits="userSpaceOnUse">
<stop stop-color="#17B9FB" stop-opacity="0.6"/>
<stop offset="1" stop-color="#2DD5B9" stop-opacity="0.6"/>
</linearGradient>
<linearGradient id="paint1_linear_1099_11209" x1="137.667" y1="82.9622" x2="137.667" y2="258.297" gradientUnits="userSpaceOnUse">
<stop stop-color="#17B9FB" stop-opacity="0.6"/>
<stop offset="1" stop-color="#2DD5B9" stop-opacity="0.6"/>
</linearGradient>
<linearGradient id="paint2_linear_1099_11209" x1="287.523" y1="292.866" x2="287.523" y2="468.201" gradientUnits="userSpaceOnUse">
<stop stop-color="#17B9FB" stop-opacity="0.6"/>
<stop offset="1" stop-color="#2DD5B9" stop-opacity="0.6"/>
</linearGradient>
<linearGradient id="paint3_linear_1099_11209" x1="169.377" y1="365" x2="169.377" y2="463.754" gradientUnits="userSpaceOnUse">
<stop stop-color="#17B9FB" stop-opacity="0.6"/>
<stop offset="1" stop-color="#2DD5B9" stop-opacity="0.6"/>
</linearGradient>
<linearGradient id="paint4_linear_1099_11209" x1="413.377" y1="313" x2="413.377" y2="411.754" gradientUnits="userSpaceOnUse">
<stop stop-color="#17B9FB" stop-opacity="0.6"/>
<stop offset="1" stop-color="#2DD5B9" stop-opacity="0.6"/>
</linearGradient>
<linearGradient id="paint5_linear_1099_11209" x1="294.236" y1="155.497" x2="294.236" y2="279.822" gradientUnits="userSpaceOnUse">
<stop stop-color="#17B9FB" stop-opacity="0.6"/>
<stop offset="1" stop-color="#2DD5B9" stop-opacity="0.6"/>
</linearGradient>
<linearGradient id="paint6_linear_1099_11209" x1="108.217" y1="228.553" x2="108.217" y2="349.59" gradientUnits="userSpaceOnUse">
<stop stop-color="#17B9FB" stop-opacity="0.6"/>
<stop offset="1" stop-color="#2DD5B9" stop-opacity="0.6"/>
</linearGradient>
<linearGradient id="paint7_linear_1099_11209" x1="272.365" y1="26.5659" x2="272.365" y2="125.32" gradientUnits="userSpaceOnUse">
<stop stop-color="#17B9FB" stop-opacity="0.6"/>
<stop offset="1" stop-color="#2DD5B9" stop-opacity="0.6"/>
</linearGradient>
<linearGradient id="paint8_linear_1099_11209" x1="456.877" y1="191.112" x2="456.877" y2="289.866" gradientUnits="userSpaceOnUse">
<stop stop-color="#17B9FB" stop-opacity="0.6"/>
<stop offset="1" stop-color="#2DD5B9" stop-opacity="0.6"/>
</linearGradient>
</defs>
</svg>
