<svg width="550" height="500" viewBox="0 0 550 500" fill="none" xmlns="http://www.w3.org/2000/svg">
<rect width="550" height="500" fill="white"/>
<path d="M272.5 110C293.532 110 314.294 114.739 333.244 123.864L272.5 250V110Z" fill="#00B6B6"/>
<path d="M333.244 123.864C352.193 132.99 368.843 146.268 381.956 162.711C395.07 179.155 404.31 198.342 408.99 218.847C413.67 239.352 413.67 260.648 408.99 281.153C404.31 301.658 395.07 320.845 381.956 337.289L272.5 250L333.244 123.864Z" fill="#54D2D2"/>
<path d="M381.956 337.289C368.842 353.732 352.193 367.01 333.243 376.136C314.294 385.261 293.532 390 272.499 390C251.467 390 230.705 385.261 211.756 376.136C192.806 367.01 176.156 353.732 163.043 337.289L272.499 250L381.956 337.289Z" fill="#6EE6E6"/>
<path d="M163.044 337.289C143.269 312.492 132.5 281.716 132.5 250C132.5 218.284 143.269 187.508 163.044 162.711L272.5 250L163.044 337.289Z" fill="#7EFCFC"/>
<path d="M163.043 162.711C176.156 146.268 192.806 132.99 211.756 123.864C230.705 114.739 251.467 110 272.499 110V250L163.043 162.711Z" fill="#C8FFFF"/>
<path d="M375.533 50.96C375.426 50.6133 375.266 50.2267 375.053 49.8C374.84 49.3733 374.64 49.0333 374.453 48.78C375.84 48.5 377.213 48.08 378.573 47.52C379.946 46.96 381.206 46.3 382.353 45.54C381.646 44.8067 381.006 43.9933 380.433 43.1C379.233 44.3 377.86 45.3333 376.313 46.2C376.14 45.9467 375.906 45.6467 375.613 45.3C375.333 44.94 375.06 44.66 374.793 44.46C375.726 43.98 376.633 43.3867 377.513 42.68C378.406 41.96 379.213 41.1867 379.933 40.36C380.653 39.5333 381.206 38.7 381.593 37.86L383.733 38.58C383.64 38.78 383.533 38.98 383.413 39.18C383.306 39.3667 383.2 39.5533 383.093 39.74H389.013L389.893 40.5C388.866 42.4467 387.553 44.14 385.953 45.58C387.06 46.2867 388.266 46.8733 389.573 47.34C390.88 47.7933 392.22 48.1333 393.593 48.36C393.46 48.5467 393.306 48.7867 393.133 49.08C392.96 49.36 392.8 49.6533 392.653 49.96C392.506 50.2667 392.4 50.5333 392.333 50.76C390.72 50.3467 389.226 49.84 387.853 49.24C386.48 48.6267 385.233 47.9 384.113 47.06C382.886 47.94 381.546 48.7067 380.093 49.36C378.653 50 377.133 50.5333 375.533 50.96ZM387.973 56.8C387.346 56.4533 386.64 56.1133 385.853 55.78C385.066 55.4467 384.24 55.1333 383.373 54.84C382.506 54.5467 381.64 54.2933 380.773 54.08C379.92 53.8533 379.1 53.68 378.313 53.56L379.233 51.52C379.98 51.6533 380.793 51.8333 381.673 52.06C382.553 52.2867 383.44 52.5467 384.333 52.84C385.24 53.1333 386.106 53.4467 386.933 53.78C387.76 54.1 388.5 54.4267 389.153 54.76C388.94 55 388.713 55.3267 388.473 55.74C388.246 56.1667 388.08 56.52 387.973 56.8ZM386.153 52.64C385.753 52.3333 385.273 52.0267 384.713 51.72C384.166 51.4133 383.606 51.1333 383.033 50.88C382.46 50.6133 381.933 50.4133 381.453 50.28L382.693 48.48C383.133 48.6133 383.646 48.8133 384.233 49.08C384.82 49.3333 385.4 49.6133 385.973 49.92C386.56 50.2133 387.06 50.5 387.473 50.78C387.366 50.8733 387.226 51.04 387.053 51.28C386.88 51.5067 386.706 51.7533 386.533 52.02C386.373 52.2733 386.246 52.48 386.153 52.64ZM384.133 44.2C385.04 43.4133 385.786 42.5733 386.373 41.68H381.993C382.566 42.6133 383.28 43.4533 384.133 44.2Z" fill="#111111"/>
<path d="M365.533 55.18C365.48 54.9667 365.38 54.7134 365.233 54.42C365.086 54.1267 364.913 53.8467 364.713 53.58C364.526 53.3 364.34 53.0734 364.153 52.9C365.98 52.62 367.366 52.0267 368.313 51.12C369.273 50.2 369.78 49.12 369.833 47.88C369.886 46.8934 369.706 46.0134 369.293 45.24C368.88 44.4667 368.313 43.84 367.593 43.36C366.886 42.88 366.106 42.5934 365.253 42.5C365.146 43.74 364.946 45.0067 364.653 46.3C364.36 47.5934 363.96 48.8067 363.453 49.94C362.96 51.0734 362.353 52.0334 361.633 52.82C361.086 53.4067 360.553 53.7467 360.033 53.84C359.526 53.9334 358.986 53.86 358.413 53.62C357.853 53.38 357.36 53 356.933 52.48C356.506 51.96 356.18 51.3467 355.953 50.64C355.726 49.92 355.633 49.1534 355.673 48.34C355.74 47.1267 356.026 46.02 356.533 45.02C357.04 44.0067 357.72 43.1334 358.573 42.4C359.426 41.6667 360.406 41.1134 361.513 40.74C362.62 40.3667 363.8 40.2134 365.053 40.28C366.066 40.3334 367.02 40.56 367.913 40.96C368.806 41.36 369.586 41.9134 370.253 42.62C370.933 43.3134 371.453 44.12 371.813 45.04C372.186 45.96 372.34 46.9667 372.273 48.06C372.18 49.8867 371.54 51.42 370.353 52.66C369.166 53.8867 367.56 54.7267 365.533 55.18ZM359.033 51.14C359.18 51.2467 359.333 51.3 359.493 51.3C359.653 51.3 359.813 51.22 359.973 51.06C360.453 50.58 360.893 49.9 361.293 49.02C361.706 48.14 362.046 47.1467 362.313 46.04C362.593 44.9334 362.773 43.8067 362.853 42.66C361.933 42.8734 361.113 43.26 360.393 43.82C359.686 44.38 359.126 45.06 358.713 45.86C358.3 46.6467 358.066 47.5134 358.013 48.46C357.986 49.0867 358.066 49.6334 358.253 50.1C358.453 50.5534 358.713 50.9 359.033 51.14Z" fill="#111111"/>
<path d="M343.853 56.4801V52.1401H334.833V50.0601H338.213V45.1001H343.853V42.7401H339.793C339.313 43.5001 338.793 44.2201 338.233 44.9001C337.687 45.5667 337.113 46.1734 336.513 46.7201C336.3 46.4934 336.02 46.2401 335.673 45.9601C335.34 45.6801 334.987 45.4467 334.613 45.2601C335.347 44.6601 336.04 43.9534 336.693 43.1401C337.347 42.3134 337.913 41.4601 338.393 40.5801C338.887 39.6867 339.253 38.8467 339.493 38.0601L341.753 38.7601C341.527 39.3867 341.267 40.0001 340.973 40.6001H352.213V42.7401H346.333V45.1001H350.793V47.1801H346.333V50.0601H353.073V52.1401H346.333V56.4801H343.853ZM340.673 50.0601H343.853V47.1801H340.673V50.0601Z" fill="#111111"/>
<path d="M325.566 55V54.34C325.566 53.38 325.813 52.4467 326.306 51.54C326.813 50.6333 327.653 49.62 328.826 48.5C329.24 48.1 329.633 47.7 330.006 47.3C330.38 46.8867 330.686 46.4867 330.926 46.1C331.166 45.7 331.293 45.32 331.306 44.96C331.32 44.2667 331.16 43.7533 330.826 43.42C330.506 43.0867 330.046 42.92 329.446 42.92C328.873 42.92 328.446 43.1267 328.166 43.54C327.886 43.9533 327.746 44.5333 327.746 45.28H325.626C325.626 43.8933 325.98 42.8133 326.686 42.04C327.393 41.2667 328.313 40.88 329.446 40.88C330.22 40.88 330.906 41.04 331.506 41.36C332.12 41.68 332.6 42.1467 332.946 42.76C333.293 43.3733 333.453 44.1267 333.426 45.02C333.413 45.6467 333.266 46.2267 332.986 46.76C332.706 47.2933 332.333 47.8133 331.866 48.32C331.413 48.8133 330.893 49.34 330.306 49.9C329.693 50.5 329.146 51.0733 328.666 51.62C328.2 52.1667 327.926 52.64 327.846 53.04H333.186V55H325.566Z" fill="#111111"/>
<path d="M311.728 56.58C311.701 56.26 311.635 55.8666 311.528 55.4C311.421 54.9466 311.315 54.5866 311.208 54.32H313.208C313.475 54.32 313.668 54.28 313.788 54.2C313.908 54.1066 313.968 53.9266 313.968 53.66V51.6H306.168V49.56H313.968V48.38H314.868C315.068 48.2333 315.328 48.0333 315.648 47.78C315.981 47.5133 316.281 47.26 316.548 47.02H309.728V45.06H319.828L320.728 45.98C320.475 46.2333 320.161 46.5266 319.788 46.86C319.415 47.1933 319.021 47.5333 318.608 47.88C318.195 48.2266 317.795 48.5466 317.408 48.84C317.035 49.1333 316.715 49.3733 316.448 49.56H323.828V51.6H316.348V54.5C316.348 55.8866 315.508 56.58 313.828 56.58H311.728ZM306.328 46.64V41.92H309.408C309.221 41.4933 308.981 41.0333 308.688 40.54C308.408 40.0333 308.141 39.6333 307.888 39.34L309.948 38.4C310.148 38.6266 310.361 38.9266 310.588 39.3C310.828 39.66 311.055 40.0333 311.268 40.42C311.481 40.7933 311.641 41.12 311.748 41.4L310.528 41.92H314.008C313.901 41.6133 313.755 41.2733 313.568 40.9C313.395 40.5133 313.208 40.14 313.008 39.78C312.808 39.42 312.608 39.1133 312.408 38.86L314.548 38.08C314.748 38.3066 314.961 38.62 315.188 39.02C315.428 39.4066 315.648 39.8066 315.848 40.22C316.061 40.6333 316.215 40.9866 316.308 41.28L314.708 41.92H317.328C317.555 41.56 317.788 41.1533 318.028 40.7C318.281 40.2333 318.515 39.7733 318.728 39.32C318.955 38.8666 319.135 38.4866 319.268 38.18L321.668 38.8C321.441 39.28 321.168 39.8066 320.848 40.38C320.528 40.9533 320.228 41.4666 319.948 41.92H323.688V46.64H321.388V43.84H308.588V46.64H306.328Z" fill="#111111"/>
<path d="M287.086 56.58C286.98 56.3666 286.833 56.1133 286.646 55.82C286.473 55.54 286.286 55.2666 286.086 55C285.9 54.7466 285.726 54.5466 285.566 54.4C287.046 53.88 288.353 53.1733 289.486 52.28C290.633 51.3866 291.56 50.3666 292.266 49.22C292.986 48.0733 293.44 46.86 293.626 45.58H286.146V43.28H293.726V38.34H296.246V43.28H303.846V45.58H296.366C296.58 46.8333 297.053 48.04 297.786 49.2C298.52 50.3466 299.453 51.3666 300.586 52.26C301.733 53.1533 303.013 53.8533 304.426 54.36C304.253 54.5333 304.06 54.7533 303.846 55.02C303.646 55.2866 303.453 55.56 303.266 55.84C303.093 56.1333 302.96 56.38 302.866 56.58C301.76 56.0733 300.693 55.4466 299.666 54.7C298.64 53.94 297.72 53.08 296.906 52.12C296.093 51.1466 295.453 50.0866 294.986 48.94C294.52 50.0866 293.873 51.1466 293.046 52.12C292.22 53.0933 291.286 53.9533 290.246 54.7C289.22 55.4466 288.166 56.0733 287.086 56.58Z" fill="#111111"/>
<path d="M320.776 102L330.4 74.2079H316.504V68.5439H338.44L327.64 102H320.776Z" fill="#00B6B6"/>
<path d="M346.235 94.2481C344.859 94.2481 343.843 93.8361 343.187 93.0121C342.531 92.1801 342.203 91.0801 342.203 89.7121C342.203 88.1041 342.567 86.9401 343.295 86.2201C344.023 85.4921 345.003 85.1281 346.235 85.1281C347.459 85.1281 348.423 85.4921 349.127 86.2201C349.839 86.9401 350.195 88.1121 350.195 89.7361C350.195 90.6241 350.067 91.4081 349.811 92.0881C349.563 92.7601 349.147 93.2881 348.563 93.6721C347.987 94.0561 347.211 94.2481 346.235 94.2481ZM346.211 102L355.379 85.2721H357.731L348.563 102H346.211ZM346.211 92.4481C346.611 92.4481 346.907 92.3241 347.099 92.0761C347.291 91.8281 347.415 91.5041 347.471 91.1041C347.527 90.6961 347.555 90.2561 347.555 89.7841C347.555 88.8321 347.459 88.1241 347.267 87.6601C347.083 87.1881 346.715 86.9521 346.163 86.9521C345.635 86.9521 345.271 87.1841 345.071 87.6481C344.871 88.1121 344.771 88.8001 344.771 89.7121C344.771 90.4641 344.859 91.1081 345.035 91.6441C345.211 92.1801 345.603 92.4481 346.211 92.4481ZM357.827 102.36C356.435 102.36 355.415 101.944 354.767 101.112C354.119 100.272 353.795 99.1681 353.795 97.8001C353.795 96.2001 354.155 95.0361 354.875 94.3081C355.595 93.58 356.571 93.2161 357.803 93.2161C359.027 93.2161 359.995 93.5841 360.707 94.3201C361.427 95.0481 361.787 96.2241 361.787 97.8481C361.787 98.7281 361.659 99.5081 361.403 100.188C361.147 100.868 360.727 101.4 360.143 101.784C359.567 102.168 358.795 102.36 357.827 102.36ZM357.755 100.512C358.171 100.512 358.475 100.392 358.667 100.152C358.859 99.9121 358.983 99.5921 359.039 99.1921C359.095 98.7921 359.123 98.3521 359.123 97.8721C359.123 96.9201 359.031 96.2121 358.847 95.7481C358.663 95.2761 358.299 95.0401 357.755 95.0401C357.203 95.0401 356.831 95.2721 356.639 95.7361C356.455 96.2001 356.363 96.8961 356.363 97.8241C356.363 98.5681 356.443 99.2041 356.603 99.7321C356.771 100.252 357.155 100.512 357.755 100.512Z" fill="#00B6B6"/>
<path d="M496.023 180.26V173.72C495.049 174.613 493.936 175.413 492.683 176.12C492.496 175.813 492.263 175.48 491.983 175.12C491.703 174.76 491.449 174.487 491.223 174.3C492.036 173.913 492.783 173.473 493.463 172.98C494.156 172.487 494.783 171.953 495.343 171.38H491.763V169.5H496.823C497.063 169.113 497.283 168.733 497.483 168.36H494.043V166.58H498.263C498.329 166.393 498.389 166.213 498.443 166.04C498.496 165.853 498.549 165.667 498.603 165.48H492.823V163.62H499.023C499.063 163.367 499.096 163.12 499.123 162.88C499.149 162.627 499.169 162.373 499.183 162.12L501.463 162.26C501.449 162.487 501.429 162.713 501.403 162.94C501.376 163.167 501.349 163.393 501.323 163.62H508.843V165.48H500.963C500.909 165.667 500.856 165.853 500.803 166.04C500.763 166.213 500.716 166.393 500.663 166.58H507.723V168.36H503.943C504.183 168.733 504.443 169.113 504.723 169.5H509.883V171.38H506.563C507.749 172.367 509.036 173.153 510.423 173.74C510.263 173.873 510.083 174.067 509.883 174.32C509.683 174.56 509.489 174.813 509.303 175.08C509.129 175.333 508.989 175.56 508.883 175.76C507.749 175.16 506.669 174.413 505.643 173.52V180.26H496.023ZM497.183 172.58H504.643C504.456 172.393 504.269 172.2 504.083 172C503.896 171.8 503.723 171.593 503.563 171.38H498.183C498.036 171.58 497.876 171.787 497.703 172C497.543 172.2 497.369 172.393 497.183 172.58ZM498.403 178.58H503.283V177.3H498.403V178.58ZM498.403 175.7H503.283V174.46H498.403V175.7ZM499.403 169.5H502.263C502.169 169.313 502.069 169.127 501.963 168.94C501.869 168.74 501.783 168.547 501.703 168.36H499.963C499.883 168.547 499.796 168.74 499.703 168.94C499.609 169.127 499.509 169.313 499.403 169.5Z" fill="#111111"/>
<path d="M482.365 179.18C482.312 178.967 482.212 178.713 482.065 178.42C481.918 178.127 481.745 177.847 481.545 177.58C481.358 177.3 481.172 177.073 480.985 176.9C482.812 176.62 484.198 176.027 485.145 175.12C486.105 174.2 486.612 173.12 486.665 171.88C486.718 170.893 486.538 170.013 486.125 169.24C485.712 168.467 485.145 167.84 484.425 167.36C483.718 166.88 482.938 166.593 482.085 166.5C481.978 167.74 481.778 169.007 481.485 170.3C481.192 171.593 480.792 172.807 480.285 173.94C479.792 175.073 479.185 176.033 478.465 176.82C477.918 177.407 477.385 177.747 476.865 177.84C476.358 177.933 475.818 177.86 475.245 177.62C474.685 177.38 474.192 177 473.765 176.48C473.338 175.96 473.012 175.347 472.785 174.64C472.558 173.92 472.465 173.153 472.505 172.34C472.572 171.127 472.858 170.02 473.365 169.02C473.872 168.007 474.552 167.133 475.405 166.4C476.258 165.667 477.238 165.113 478.345 164.74C479.452 164.367 480.632 164.213 481.885 164.28C482.898 164.333 483.852 164.56 484.745 164.96C485.638 165.36 486.418 165.913 487.085 166.62C487.765 167.313 488.285 168.12 488.645 169.04C489.018 169.96 489.172 170.967 489.105 172.06C489.012 173.887 488.372 175.42 487.185 176.66C485.998 177.887 484.392 178.727 482.365 179.18ZM475.865 175.14C476.012 175.247 476.165 175.3 476.325 175.3C476.485 175.3 476.645 175.22 476.805 175.06C477.285 174.58 477.725 173.9 478.125 173.02C478.538 172.14 478.878 171.147 479.145 170.04C479.425 168.933 479.605 167.807 479.685 166.66C478.765 166.873 477.945 167.26 477.225 167.82C476.518 168.38 475.958 169.06 475.545 169.86C475.132 170.647 474.898 171.513 474.845 172.46C474.818 173.087 474.898 173.633 475.085 174.1C475.285 174.553 475.545 174.9 475.865 175.14Z" fill="#111111"/>
<path d="M460.685 180.48V176.14H451.665V174.06H455.045V169.1H460.685V166.74H456.625C456.145 167.5 455.625 168.22 455.065 168.9C454.519 169.567 453.945 170.173 453.345 170.72C453.132 170.493 452.852 170.24 452.505 169.96C452.172 169.68 451.819 169.447 451.445 169.26C452.179 168.66 452.872 167.953 453.525 167.14C454.179 166.313 454.745 165.46 455.225 164.58C455.719 163.687 456.085 162.847 456.325 162.06L458.585 162.76C458.359 163.387 458.099 164 457.805 164.6H469.045V166.74H463.165V169.1H467.625V171.18H463.165V174.06H469.905V176.14H463.165V180.48H460.685ZM457.505 174.06H460.685V171.18H457.505V174.06Z" fill="#111111"/>
<path d="M445.514 179.2C444.568 179.2 443.748 178.953 443.054 178.46C442.374 177.953 441.881 177.213 441.574 176.24L443.534 175.58C443.601 175.767 443.708 175.987 443.854 176.24C444.001 176.48 444.208 176.693 444.474 176.88C444.741 177.067 445.074 177.16 445.474 177.16C446.154 177.16 446.694 176.993 447.094 176.66C447.494 176.327 447.694 175.767 447.694 174.98C447.694 174.273 447.494 173.707 447.094 173.28C446.694 172.853 446.121 172.64 445.374 172.64H444.374V170.68H445.374C446.041 170.68 446.534 170.487 446.854 170.1C447.174 169.7 447.334 169.213 447.334 168.64C447.334 167.973 447.141 167.507 446.754 167.24C446.381 166.96 445.954 166.82 445.474 166.82C445.128 166.82 444.834 166.92 444.594 167.12C444.354 167.307 444.154 167.527 443.994 167.78C443.848 168.02 443.741 168.233 443.674 168.42L441.734 167.64C442.081 166.733 442.588 166.033 443.254 165.54C443.934 165.033 444.688 164.78 445.514 164.78C446.328 164.78 447.034 164.94 447.634 165.26C448.248 165.567 448.721 166 449.054 166.56C449.401 167.12 449.574 167.78 449.574 168.54C449.574 169.233 449.388 169.86 449.014 170.42C448.654 170.967 448.194 171.367 447.634 171.62C448.301 171.873 448.841 172.307 449.254 172.92C449.681 173.533 449.894 174.247 449.894 175.06C449.894 176.327 449.508 177.333 448.734 178.08C447.974 178.827 446.901 179.2 445.514 179.2Z" fill="#111111"/>
<path d="M427.896 180.58C427.869 180.26 427.803 179.867 427.696 179.4C427.589 178.947 427.483 178.587 427.376 178.32H429.376C429.643 178.32 429.836 178.28 429.956 178.2C430.076 178.107 430.136 177.927 430.136 177.66V175.6H422.336V173.56H430.136V172.38H431.036C431.236 172.233 431.496 172.033 431.816 171.78C432.149 171.513 432.449 171.26 432.716 171.02H425.896V169.06H435.996L436.896 169.98C436.643 170.233 436.329 170.527 435.956 170.86C435.583 171.193 435.189 171.533 434.776 171.88C434.363 172.227 433.963 172.547 433.576 172.84C433.203 173.133 432.883 173.373 432.616 173.56H439.996V175.6H432.516V178.5C432.516 179.887 431.676 180.58 429.996 180.58H427.896ZM422.496 170.64V165.92H425.576C425.389 165.493 425.149 165.033 424.856 164.54C424.576 164.033 424.309 163.633 424.056 163.34L426.116 162.4C426.316 162.627 426.529 162.927 426.756 163.3C426.996 163.66 427.223 164.033 427.436 164.42C427.649 164.793 427.809 165.12 427.916 165.4L426.696 165.92H430.176C430.069 165.613 429.923 165.273 429.736 164.9C429.563 164.513 429.376 164.14 429.176 163.78C428.976 163.42 428.776 163.113 428.576 162.86L430.716 162.08C430.916 162.307 431.129 162.62 431.356 163.02C431.596 163.407 431.816 163.807 432.016 164.22C432.229 164.633 432.383 164.987 432.476 165.28L430.876 165.92H433.496C433.723 165.56 433.956 165.153 434.196 164.7C434.449 164.233 434.683 163.773 434.896 163.32C435.123 162.867 435.303 162.487 435.436 162.18L437.836 162.8C437.609 163.28 437.336 163.807 437.016 164.38C436.696 164.953 436.396 165.467 436.116 165.92H439.856V170.64H437.556V167.84H424.756V170.64H422.496Z" fill="#111111"/>
<path d="M403.254 180.58C403.148 180.367 403.001 180.113 402.814 179.82C402.641 179.54 402.454 179.267 402.254 179C402.068 178.747 401.894 178.547 401.734 178.4C403.214 177.88 404.521 177.173 405.654 176.28C406.801 175.387 407.728 174.367 408.434 173.22C409.154 172.073 409.608 170.86 409.794 169.58H402.314V167.28H409.894V162.34H412.414V167.28H420.014V169.58H412.534C412.748 170.833 413.221 172.04 413.954 173.2C414.688 174.347 415.621 175.367 416.754 176.26C417.901 177.153 419.181 177.853 420.594 178.36C420.421 178.533 420.228 178.753 420.014 179.02C419.814 179.287 419.621 179.56 419.434 179.84C419.261 180.133 419.128 180.38 419.034 180.58C417.928 180.073 416.861 179.447 415.834 178.7C414.808 177.94 413.888 177.08 413.074 176.12C412.261 175.147 411.621 174.087 411.154 172.94C410.688 174.087 410.041 175.147 409.214 176.12C408.388 177.093 407.454 177.953 406.414 178.7C405.388 179.447 404.334 180.073 403.254 180.58Z" fill="#111111"/>
<path d="M457.383 226.72C455.127 226.72 453.383 226.496 452.151 226.048C450.935 225.6 449.943 225.008 449.175 224.272L451.527 219.472C452.183 220.16 453.047 220.64 454.119 220.912C455.191 221.168 456.167 221.296 457.047 221.296C458.711 221.296 460.167 220.88 461.415 220.048C462.679 219.2 463.679 218.032 464.415 216.544C465.151 215.056 465.559 213.344 465.639 211.408C465.671 211.072 465.687 210.76 465.687 210.472C465.687 210.168 465.687 209.888 465.687 209.632C464.823 211.28 463.583 212.488 461.967 213.256C460.351 214.008 458.663 214.384 456.903 214.384C454.743 214.384 452.919 213.896 451.431 212.92C449.943 211.928 448.807 210.616 448.023 208.984C447.255 207.352 446.871 205.568 446.871 203.632C446.871 201.168 447.407 199.048 448.479 197.272C449.551 195.496 451.031 194.128 452.919 193.168C454.807 192.208 456.983 191.728 459.447 191.728C460.871 191.728 462.319 192.016 463.791 192.592C465.263 193.168 466.615 194.112 467.847 195.424C469.095 196.72 470.095 198.448 470.847 200.608C471.599 202.768 471.975 205.424 471.975 208.576C471.975 212.32 471.343 215.552 470.079 218.272C468.831 220.976 467.103 223.064 464.895 224.536C462.703 225.992 460.199 226.72 457.383 226.72ZM458.487 209.488C459.543 209.488 460.543 209.232 461.487 208.72C462.431 208.192 463.207 207.496 463.815 206.632C464.423 205.768 464.759 204.816 464.823 203.776C464.823 202.528 464.615 201.368 464.199 200.296C463.783 199.208 463.159 198.336 462.327 197.68C461.511 197.008 460.503 196.672 459.303 196.672C458.295 196.672 457.327 196.92 456.399 197.416C455.487 197.896 454.743 198.616 454.167 199.576C453.591 200.52 453.303 201.68 453.303 203.056C453.303 204.928 453.735 206.472 454.599 207.688C455.463 208.888 456.759 209.488 458.487 209.488Z" fill="#00B6B6"/>
<path d="M426.483 220.528H442.083V226H420.531C420.435 225.488 420.355 224.976 420.291 224.464C420.227 223.936 420.195 223.328 420.195 222.64C420.195 220.608 420.523 218.872 421.179 217.432C421.851 215.992 422.827 214.704 424.107 213.568C425.403 212.432 426.995 211.312 428.883 210.208C429.923 209.6 430.963 208.928 432.003 208.192C433.043 207.456 433.907 206.584 434.595 205.576C435.299 204.552 435.651 203.312 435.651 201.856C435.651 200.608 435.259 199.496 434.475 198.52C433.707 197.544 432.467 197.056 430.755 197.056C428.979 197.056 427.555 197.632 426.483 198.784C425.427 199.936 424.755 201.424 424.467 203.248L419.379 200.848C419.635 199.184 420.283 197.664 421.323 196.288C422.363 194.896 423.723 193.792 425.403 192.976C427.083 192.144 429.011 191.728 431.187 191.728C433.171 191.728 434.971 192.104 436.587 192.856C438.203 193.592 439.491 194.672 440.451 196.096C441.411 197.52 441.891 199.248 441.891 201.28C441.891 203.36 441.515 205.16 440.763 206.68C440.011 208.2 438.899 209.584 437.427 210.832C435.971 212.08 434.179 213.344 432.051 214.624C430.547 215.536 429.307 216.392 428.331 217.192C427.371 217.976 426.755 219.088 426.483 220.528Z" fill="#00B6B6"/>
<path d="M480.985 218.248C479.609 218.248 478.593 217.836 477.937 217.012C477.281 216.18 476.953 215.08 476.953 213.712C476.953 212.104 477.317 210.94 478.045 210.22C478.773 209.492 479.753 209.128 480.985 209.128C482.209 209.128 483.173 209.492 483.877 210.22C484.589 210.94 484.945 212.112 484.945 213.736C484.945 214.624 484.817 215.408 484.561 216.088C484.313 216.76 483.897 217.288 483.313 217.672C482.737 218.056 481.961 218.248 480.985 218.248ZM480.961 226L490.129 209.272H492.481L483.313 226H480.961ZM480.961 216.448C481.361 216.448 481.657 216.324 481.849 216.076C482.041 215.828 482.165 215.504 482.221 215.104C482.277 214.696 482.305 214.256 482.305 213.784C482.305 212.832 482.209 212.124 482.017 211.66C481.833 211.188 481.465 210.952 480.913 210.952C480.385 210.952 480.021 211.184 479.821 211.648C479.621 212.112 479.521 212.8 479.521 213.712C479.521 214.464 479.609 215.108 479.785 215.644C479.961 216.18 480.353 216.448 480.961 216.448ZM492.577 226.36C491.185 226.36 490.165 225.944 489.517 225.112C488.869 224.272 488.545 223.168 488.545 221.8C488.545 220.2 488.905 219.036 489.625 218.308C490.345 217.58 491.321 217.216 492.553 217.216C493.777 217.216 494.745 217.584 495.457 218.32C496.177 219.048 496.537 220.224 496.537 221.848C496.537 222.728 496.409 223.508 496.153 224.188C495.897 224.868 495.477 225.4 494.893 225.784C494.317 226.168 493.545 226.36 492.577 226.36ZM492.505 224.512C492.921 224.512 493.225 224.392 493.417 224.152C493.609 223.912 493.733 223.592 493.789 223.192C493.845 222.792 493.873 222.352 493.873 221.872C493.873 220.92 493.781 220.212 493.597 219.748C493.413 219.276 493.049 219.04 492.505 219.04C491.953 219.04 491.581 219.272 491.389 219.736C491.205 220.2 491.113 220.896 491.113 221.824C491.113 222.568 491.193 223.204 491.353 223.732C491.521 224.252 491.905 224.512 492.505 224.512Z" fill="#00B6B6"/>
<path d="M106.025 245.44V238.64C105.665 239.307 105.299 239.933 104.925 240.52C104.565 241.093 104.259 241.533 104.005 241.84C103.899 241.667 103.752 241.48 103.565 241.28C103.379 241.067 103.179 240.873 102.965 240.7C102.765 240.527 102.592 240.4 102.445 240.32C102.752 240.013 103.079 239.627 103.425 239.16C103.772 238.68 104.105 238.16 104.425 237.6C104.759 237.04 105.059 236.48 105.325 235.92C105.592 235.36 105.805 234.84 105.965 234.36H103.005V232.24H106.025V230.66C105.599 230.74 105.179 230.813 104.765 230.88C104.365 230.933 103.979 230.973 103.605 231C103.565 230.813 103.499 230.587 103.405 230.32C103.325 230.053 103.232 229.793 103.125 229.54C103.032 229.273 102.939 229.06 102.845 228.9C103.605 228.86 104.412 228.773 105.265 228.64C106.119 228.493 106.945 228.313 107.745 228.1C108.545 227.873 109.232 227.613 109.805 227.32L110.985 229.14C110.199 229.527 109.305 229.853 108.305 230.12V232.24H110.685V234.36H108.305V235.36C108.532 235.64 108.819 235.96 109.165 236.32C109.512 236.667 109.872 237 110.245 237.32C110.619 237.627 110.952 237.873 111.245 238.06C111.099 238.167 110.932 238.327 110.745 238.54C110.559 238.753 110.379 238.973 110.205 239.2C110.045 239.413 109.919 239.607 109.825 239.78C109.612 239.593 109.372 239.36 109.105 239.08C108.839 238.787 108.572 238.487 108.305 238.18V245.44H106.025ZM110.925 245.38C110.832 245.22 110.679 245.02 110.465 244.78C110.265 244.54 110.052 244.307 109.825 244.08C109.599 243.853 109.405 243.687 109.245 243.58C110.405 242.967 111.352 242.2 112.085 241.28C112.819 240.36 113.359 239.353 113.705 238.26C114.052 237.153 114.225 236.047 114.225 234.94V227.38H116.525V234.94C116.525 235.02 116.525 235.1 116.525 235.18C116.525 235.26 116.532 235.34 116.545 235.42C116.839 235.02 117.132 234.553 117.425 234.02C117.719 233.487 117.992 232.94 118.245 232.38C118.499 231.807 118.699 231.273 118.845 230.78L120.985 231.62C120.652 232.5 120.259 233.393 119.805 234.3C119.352 235.193 118.905 235.953 118.465 236.58C118.332 236.46 118.145 236.333 117.905 236.2C117.679 236.053 117.439 235.913 117.185 235.78C116.945 235.647 116.732 235.553 116.545 235.5C116.612 236.66 116.872 237.733 117.325 238.72C117.792 239.707 118.379 240.593 119.085 241.38C119.805 242.153 120.579 242.82 121.405 243.38C121.219 243.5 120.999 243.68 120.745 243.92C120.505 244.16 120.272 244.407 120.045 244.66C119.832 244.927 119.672 245.14 119.565 245.3C118.792 244.673 118.025 243.88 117.265 242.92C116.519 241.947 115.912 240.82 115.445 239.54C115.045 240.74 114.452 241.847 113.665 242.86C112.892 243.86 111.979 244.7 110.925 245.38ZM112.325 236.92C112.165 236.84 111.945 236.753 111.665 236.66C111.399 236.567 111.125 236.48 110.845 236.4C110.565 236.32 110.332 236.273 110.145 236.26C110.385 235.793 110.592 235.253 110.765 234.64C110.939 234.013 111.079 233.387 111.185 232.76C111.305 232.133 111.385 231.58 111.425 231.1L113.585 231.52C113.545 232.053 113.459 232.653 113.325 233.32C113.205 233.973 113.059 234.62 112.885 235.26C112.712 235.887 112.525 236.44 112.325 236.92Z" fill="#111111"/>
<path d="M93.3651 244.18C93.3118 243.967 93.2118 243.713 93.0651 243.42C92.9184 243.127 92.7451 242.847 92.5451 242.58C92.3584 242.3 92.1718 242.073 91.9851 241.9C93.8118 241.62 95.1984 241.027 96.1451 240.12C97.1051 239.2 97.6118 238.12 97.6651 236.88C97.7184 235.893 97.5384 235.013 97.1251 234.24C96.7118 233.467 96.1451 232.84 95.4251 232.36C94.7184 231.88 93.9384 231.593 93.0851 231.5C92.9784 232.74 92.7784 234.007 92.4851 235.3C92.1918 236.593 91.7918 237.807 91.2851 238.94C90.7918 240.073 90.1851 241.033 89.4651 241.82C88.9184 242.407 88.3851 242.747 87.8651 242.84C87.3584 242.933 86.8184 242.86 86.2451 242.62C85.6851 242.38 85.1918 242 84.7651 241.48C84.3384 240.96 84.0118 240.347 83.7851 239.64C83.5584 238.92 83.4651 238.153 83.5051 237.34C83.5718 236.127 83.8584 235.02 84.3651 234.02C84.8718 233.007 85.5518 232.133 86.4051 231.4C87.2584 230.667 88.2384 230.113 89.3451 229.74C90.4518 229.367 91.6318 229.213 92.8851 229.28C93.8984 229.333 94.8518 229.56 95.7451 229.96C96.6384 230.36 97.4184 230.913 98.0851 231.62C98.7651 232.313 99.2851 233.12 99.6451 234.04C100.018 234.96 100.172 235.967 100.105 237.06C100.012 238.887 99.3718 240.42 98.1851 241.66C96.9984 242.887 95.3918 243.727 93.3651 244.18ZM86.8651 240.14C87.0118 240.247 87.1651 240.3 87.3251 240.3C87.4851 240.3 87.6451 240.22 87.8051 240.06C88.2851 239.58 88.7251 238.9 89.1251 238.02C89.5384 237.14 89.8784 236.147 90.1451 235.04C90.4251 233.933 90.6051 232.807 90.6851 231.66C89.7651 231.873 88.9451 232.26 88.2251 232.82C87.5184 233.38 86.9584 234.06 86.5451 234.86C86.1318 235.647 85.8984 236.513 85.8451 237.46C85.8184 238.087 85.8984 238.633 86.0851 239.1C86.2851 239.553 86.5451 239.9 86.8651 240.14Z" fill="#111111"/>
<path d="M71.6853 245.48V241.14H62.6653V239.06H66.0453V234.1H71.6853V231.74H67.6253C67.1453 232.5 66.6253 233.22 66.0653 233.9C65.5186 234.567 64.9453 235.173 64.3453 235.72C64.132 235.493 63.852 235.24 63.5053 234.96C63.172 234.68 62.8186 234.447 62.4453 234.26C63.1786 233.66 63.872 232.953 64.5253 232.14C65.1786 231.313 65.7453 230.46 66.2253 229.58C66.7186 228.687 67.0853 227.847 67.3253 227.06L69.5853 227.76C69.3586 228.387 69.0986 229 68.8053 229.6H80.0453V231.74H74.1653V234.1H78.6253V236.18H74.1653V239.06H80.9053V241.14H74.1653V245.48H71.6853ZM68.5053 239.06H71.6853V236.18H68.5053V239.06Z" fill="#111111"/>
<path d="M56.5142 244.2C55.5676 244.2 54.7476 243.953 54.0542 243.46C53.3742 242.953 52.8809 242.213 52.5742 241.24L54.5342 240.58C54.6009 240.767 54.7076 240.987 54.8542 241.24C55.0009 241.48 55.2075 241.693 55.4742 241.88C55.7409 242.067 56.0742 242.16 56.4742 242.16C57.1542 242.16 57.6942 241.993 58.0942 241.66C58.4942 241.327 58.6942 240.767 58.6942 239.98C58.6942 239.273 58.4942 238.707 58.0942 238.28C57.6942 237.853 57.1209 237.64 56.3742 237.64H55.3742V235.68H56.3742C57.0409 235.68 57.5342 235.487 57.8542 235.1C58.1742 234.7 58.3342 234.213 58.3342 233.64C58.3342 232.973 58.1409 232.507 57.7542 232.24C57.3809 231.96 56.9542 231.82 56.4742 231.82C56.1275 231.82 55.8342 231.92 55.5942 232.12C55.3542 232.307 55.1542 232.527 54.9942 232.78C54.8476 233.02 54.7409 233.233 54.6742 233.42L52.7342 232.64C53.0809 231.733 53.5876 231.033 54.2542 230.54C54.9342 230.033 55.6876 229.78 56.5142 229.78C57.3276 229.78 58.0342 229.94 58.6342 230.26C59.2475 230.567 59.7209 231 60.0542 231.56C60.4009 232.12 60.5742 232.78 60.5742 233.54C60.5742 234.233 60.3876 234.86 60.0142 235.42C59.6542 235.967 59.1942 236.367 58.6342 236.62C59.3009 236.873 59.8409 237.307 60.2542 237.92C60.6809 238.533 60.8942 239.247 60.8942 240.06C60.8942 241.327 60.5076 242.333 59.7342 243.08C58.9742 243.827 57.9009 244.2 56.5142 244.2Z" fill="#111111"/>
<path d="M38.8959 245.58C38.8693 245.26 38.8026 244.867 38.6959 244.4C38.5893 243.947 38.4826 243.587 38.3759 243.32H40.3759C40.6426 243.32 40.8359 243.28 40.9559 243.2C41.0759 243.107 41.1359 242.927 41.1359 242.66V240.6H33.3359V238.56H41.1359V237.38H42.0359C42.2359 237.233 42.4959 237.033 42.8159 236.78C43.1493 236.513 43.4493 236.26 43.7159 236.02H36.8959V234.06H46.9959L47.8959 234.98C47.6426 235.233 47.3293 235.527 46.9559 235.86C46.5826 236.193 46.1893 236.533 45.7759 236.88C45.3626 237.227 44.9626 237.547 44.5759 237.84C44.2026 238.133 43.8826 238.373 43.6159 238.56H50.9959V240.6H43.5159V243.5C43.5159 244.887 42.6759 245.58 40.9959 245.58H38.8959ZM33.4959 235.64V230.92H36.5759C36.3893 230.493 36.1493 230.033 35.8559 229.54C35.5759 229.033 35.3093 228.633 35.0559 228.34L37.1159 227.4C37.3159 227.627 37.5293 227.927 37.7559 228.3C37.9959 228.66 38.2226 229.033 38.4359 229.42C38.6493 229.793 38.8093 230.12 38.9159 230.4L37.6959 230.92H41.1759C41.0693 230.613 40.9226 230.273 40.7359 229.9C40.5626 229.513 40.3759 229.14 40.1759 228.78C39.9759 228.42 39.7759 228.113 39.5759 227.86L41.7159 227.08C41.9159 227.307 42.1293 227.62 42.3559 228.02C42.5959 228.407 42.8159 228.807 43.0159 229.22C43.2293 229.633 43.3826 229.987 43.4759 230.28L41.8759 230.92H44.4959C44.7226 230.56 44.9559 230.153 45.1959 229.7C45.4493 229.233 45.6826 228.773 45.8959 228.32C46.1226 227.867 46.3026 227.487 46.4359 227.18L48.8359 227.8C48.6093 228.28 48.3359 228.807 48.0159 229.38C47.6959 229.953 47.3959 230.467 47.1159 230.92H50.8559V235.64H48.5559V232.84H35.7559V235.64H33.4959Z" fill="#111111"/>
<path d="M14.2544 245.58C14.1477 245.367 14.001 245.113 13.8144 244.82C13.641 244.54 13.4544 244.267 13.2544 244C13.0677 243.747 12.8944 243.547 12.7344 243.4C14.2144 242.88 15.521 242.173 16.6544 241.28C17.801 240.387 18.7277 239.367 19.4344 238.22C20.1544 237.073 20.6077 235.86 20.7944 234.58H13.3144V232.28H20.8944V227.34H23.4144V232.28H31.0144V234.58H23.5344C23.7477 235.833 24.221 237.04 24.9544 238.2C25.6877 239.347 26.621 240.367 27.7544 241.26C28.901 242.153 30.181 242.853 31.5944 243.36C31.421 243.533 31.2277 243.753 31.0144 244.02C30.8144 244.287 30.621 244.56 30.4344 244.84C30.261 245.133 30.1277 245.38 30.0344 245.58C28.9277 245.073 27.861 244.447 26.8344 243.7C25.8077 242.94 24.8877 242.08 24.0744 241.12C23.261 240.147 22.621 239.087 22.1544 237.94C21.6877 239.087 21.041 240.147 20.2144 241.12C19.3877 242.093 18.4544 242.953 17.4144 243.7C16.3877 244.447 15.3344 245.073 14.2544 245.58Z" fill="#111111"/>
<path d="M62.6719 291V259.704L69.1519 256.68V291H62.6719Z" fill="#00B6B6"/>
<path d="M41.0298 285.528H56.6298V291H35.0778C34.9818 290.488 34.9018 289.976 34.8378 289.464C34.7738 288.936 34.7418 288.328 34.7418 287.64C34.7418 285.608 35.0698 283.872 35.7258 282.432C36.3978 280.992 37.3738 279.704 38.6538 278.568C39.9498 277.432 41.5418 276.312 43.4298 275.208C44.4698 274.6 45.5098 273.928 46.5498 273.192C47.5898 272.456 48.4538 271.584 49.1418 270.576C49.8458 269.552 50.1978 268.312 50.1978 266.856C50.1978 265.608 49.8058 264.496 49.0218 263.52C48.2538 262.544 47.0138 262.056 45.3018 262.056C43.5258 262.056 42.1018 262.632 41.0298 263.784C39.9738 264.936 39.3018 266.424 39.0138 268.248L33.9258 265.848C34.1818 264.184 34.8298 262.664 35.8698 261.288C36.9098 259.896 38.2698 258.792 39.9498 257.976C41.6298 257.144 43.5578 256.728 45.7338 256.728C47.7178 256.728 49.5178 257.104 51.1338 257.856C52.7498 258.592 54.0378 259.672 54.9978 261.096C55.9578 262.52 56.4378 264.248 56.4378 266.28C56.4378 268.36 56.0618 270.16 55.3098 271.68C54.5578 273.2 53.4458 274.584 51.9738 275.832C50.5178 277.08 48.7258 278.344 46.5978 279.624C45.0938 280.536 43.8538 281.392 42.8778 282.192C41.9178 282.976 41.3018 284.088 41.0298 285.528Z" fill="#00B6B6"/>
<path d="M88.4851 283.248C87.1091 283.248 86.0931 282.836 85.4371 282.012C84.7811 281.18 84.4531 280.08 84.4531 278.712C84.4531 277.104 84.8171 275.94 85.5451 275.22C86.2731 274.492 87.2531 274.128 88.4851 274.128C89.7091 274.128 90.6731 274.492 91.3771 275.22C92.0891 275.94 92.4451 277.112 92.4451 278.736C92.4451 279.624 92.3171 280.408 92.0611 281.088C91.8131 281.76 91.3971 282.288 90.8131 282.672C90.2371 283.056 89.4611 283.248 88.4851 283.248ZM88.4611 291L97.6291 274.272H99.9811L90.8131 291H88.4611ZM88.4611 281.448C88.8611 281.448 89.1571 281.324 89.3491 281.076C89.5411 280.828 89.6651 280.504 89.7211 280.104C89.7771 279.696 89.8051 279.256 89.8051 278.784C89.8051 277.832 89.7091 277.124 89.5171 276.66C89.3331 276.188 88.9651 275.952 88.4131 275.952C87.8851 275.952 87.5211 276.184 87.3211 276.648C87.1211 277.112 87.0211 277.8 87.0211 278.712C87.0211 279.464 87.1091 280.108 87.2851 280.644C87.4611 281.18 87.8531 281.448 88.4611 281.448ZM100.077 291.36C98.6851 291.36 97.6651 290.944 97.0171 290.112C96.3691 289.272 96.0451 288.168 96.0451 286.8C96.0451 285.2 96.4051 284.036 97.1251 283.308C97.8451 282.58 98.8211 282.216 100.053 282.216C101.277 282.216 102.245 282.584 102.957 283.32C103.677 284.048 104.037 285.224 104.037 286.848C104.037 287.728 103.909 288.508 103.653 289.188C103.397 289.868 102.977 290.4 102.393 290.784C101.817 291.168 101.045 291.36 100.077 291.36ZM100.005 289.512C100.421 289.512 100.725 289.392 100.917 289.152C101.109 288.912 101.233 288.592 101.289 288.192C101.345 287.792 101.373 287.352 101.373 286.872C101.373 285.92 101.281 285.212 101.097 284.748C100.913 284.276 100.549 284.04 100.005 284.04C99.4531 284.04 99.0811 284.272 98.8891 284.736C98.7051 285.2 98.6131 285.896 98.6131 286.824C98.6131 287.568 98.6931 288.204 98.8531 288.732C99.0211 289.252 99.4051 289.512 100.005 289.512Z" fill="#00B6B6"/>
<path d="M185.365 67.96C185.258 67.6133 185.098 67.2267 184.885 66.8C184.672 66.3733 184.472 66.0333 184.285 65.78C185.672 65.5 187.045 65.08 188.405 64.52C189.778 63.96 191.038 63.3 192.185 62.54C191.478 61.8067 190.838 60.9933 190.265 60.1C189.065 61.3 187.692 62.3333 186.145 63.2C185.972 62.9467 185.738 62.6467 185.445 62.3C185.165 61.94 184.892 61.66 184.625 61.46C185.558 60.98 186.465 60.3867 187.345 59.68C188.238 58.96 189.045 58.1867 189.765 57.36C190.485 56.5333 191.038 55.7 191.425 54.86L193.565 55.58C193.472 55.78 193.365 55.98 193.245 56.18C193.138 56.3667 193.032 56.5533 192.925 56.74H198.845L199.725 57.5C198.698 59.4467 197.385 61.14 195.785 62.58C196.892 63.2867 198.098 63.8733 199.405 64.34C200.712 64.7933 202.052 65.1333 203.425 65.36C203.292 65.5467 203.138 65.7867 202.965 66.08C202.792 66.36 202.632 66.6533 202.485 66.96C202.338 67.2667 202.232 67.5333 202.165 67.76C200.552 67.3467 199.058 66.84 197.685 66.24C196.312 65.6267 195.065 64.9 193.945 64.06C192.718 64.94 191.378 65.7067 189.925 66.36C188.485 67 186.965 67.5333 185.365 67.96ZM197.805 73.8C197.178 73.4533 196.472 73.1133 195.685 72.78C194.898 72.4467 194.072 72.1333 193.205 71.84C192.338 71.5467 191.472 71.2933 190.605 71.08C189.752 70.8533 188.932 70.68 188.145 70.56L189.065 68.52C189.812 68.6533 190.625 68.8333 191.505 69.06C192.385 69.2867 193.272 69.5467 194.165 69.84C195.072 70.1333 195.938 70.4467 196.765 70.78C197.592 71.1 198.332 71.4267 198.985 71.76C198.772 72 198.545 72.3267 198.305 72.74C198.078 73.1667 197.912 73.52 197.805 73.8ZM195.985 69.64C195.585 69.3333 195.105 69.0267 194.545 68.72C193.998 68.4133 193.438 68.1333 192.865 67.88C192.292 67.6133 191.765 67.4133 191.285 67.28L192.525 65.48C192.965 65.6133 193.478 65.8133 194.065 66.08C194.652 66.3333 195.232 66.6133 195.805 66.92C196.392 67.2133 196.892 67.5 197.305 67.78C197.198 67.8733 197.058 68.04 196.885 68.28C196.712 68.5067 196.538 68.7533 196.365 69.02C196.205 69.2733 196.078 69.48 195.985 69.64ZM193.965 61.2C194.872 60.4133 195.618 59.5733 196.205 58.68H191.825C192.398 59.6133 193.112 60.4533 193.965 61.2Z" fill="#111111"/>
<path d="M175.365 72.18C175.312 71.9667 175.212 71.7134 175.065 71.42C174.918 71.1267 174.745 70.8467 174.545 70.58C174.358 70.3 174.172 70.0734 173.985 69.9C175.812 69.62 177.198 69.0267 178.145 68.12C179.105 67.2 179.612 66.12 179.665 64.88C179.718 63.8934 179.538 63.0134 179.125 62.24C178.712 61.4667 178.145 60.84 177.425 60.36C176.718 59.88 175.938 59.5934 175.085 59.5C174.978 60.74 174.778 62.0067 174.485 63.3C174.192 64.5934 173.792 65.8067 173.285 66.94C172.792 68.0734 172.185 69.0334 171.465 69.82C170.918 70.4067 170.385 70.7467 169.865 70.84C169.358 70.9334 168.818 70.86 168.245 70.62C167.685 70.38 167.192 70 166.765 69.48C166.338 68.96 166.012 68.3467 165.785 67.64C165.558 66.92 165.465 66.1534 165.505 65.34C165.572 64.1267 165.858 63.02 166.365 62.02C166.872 61.0067 167.552 60.1334 168.405 59.4C169.258 58.6667 170.238 58.1134 171.345 57.74C172.452 57.3667 173.632 57.2134 174.885 57.28C175.898 57.3334 176.852 57.56 177.745 57.96C178.638 58.36 179.418 58.9134 180.085 59.62C180.765 60.3134 181.285 61.12 181.645 62.04C182.018 62.96 182.172 63.9667 182.105 65.06C182.012 66.8867 181.372 68.42 180.185 69.66C178.998 70.8867 177.392 71.7267 175.365 72.18ZM168.865 68.14C169.012 68.2467 169.165 68.3 169.325 68.3C169.485 68.3 169.645 68.22 169.805 68.06C170.285 67.58 170.725 66.9 171.125 66.02C171.538 65.14 171.878 64.1467 172.145 63.04C172.425 61.9334 172.605 60.8067 172.685 59.66C171.765 59.8734 170.945 60.26 170.225 60.82C169.518 61.38 168.958 62.06 168.545 62.86C168.132 63.6467 167.898 64.5134 167.845 65.46C167.818 66.0867 167.898 66.6334 168.085 67.1C168.285 67.5534 168.545 67.9 168.865 68.14Z" fill="#111111"/>
<path d="M153.685 73.4801V69.1401H144.665V67.0601H148.045V62.1001H153.685V59.7401H149.625C149.145 60.5001 148.625 61.2201 148.065 61.9001C147.519 62.5667 146.945 63.1734 146.345 63.7201C146.132 63.4934 145.852 63.2401 145.505 62.9601C145.172 62.6801 144.819 62.4467 144.445 62.2601C145.179 61.6601 145.872 60.9534 146.525 60.1401C147.179 59.3134 147.745 58.4601 148.225 57.5801C148.719 56.6867 149.085 55.8467 149.325 55.0601L151.585 55.7601C151.359 56.3867 151.099 57.0001 150.805 57.6001H162.045V59.7401H156.165V62.1001H160.625V64.1801H156.165V67.0601H162.905V69.1401H156.165V73.4801H153.685ZM150.505 67.0601H153.685V64.1801H150.505V67.0601Z" fill="#111111"/>
<path d="M138.514 72.2C137.568 72.2 136.748 71.9534 136.054 71.46C135.374 70.9534 134.881 70.2134 134.574 69.24L136.534 68.58C136.601 68.7667 136.708 68.9867 136.854 69.24C137.001 69.48 137.208 69.6934 137.474 69.88C137.741 70.0667 138.074 70.16 138.474 70.16C139.154 70.16 139.694 69.9934 140.094 69.66C140.494 69.3267 140.694 68.7667 140.694 67.98C140.694 67.2734 140.494 66.7067 140.094 66.28C139.694 65.8534 139.121 65.64 138.374 65.64H137.374V63.68H138.374C139.041 63.68 139.534 63.4867 139.854 63.1C140.174 62.7 140.334 62.2134 140.334 61.64C140.334 60.9734 140.141 60.5067 139.754 60.24C139.381 59.96 138.954 59.82 138.474 59.82C138.128 59.82 137.834 59.92 137.594 60.12C137.354 60.3067 137.154 60.5267 136.994 60.78C136.848 61.02 136.741 61.2334 136.674 61.42L134.734 60.64C135.081 59.7334 135.588 59.0334 136.254 58.54C136.934 58.0334 137.688 57.78 138.514 57.78C139.328 57.78 140.034 57.94 140.634 58.26C141.248 58.5667 141.721 59 142.054 59.56C142.401 60.12 142.574 60.78 142.574 61.54C142.574 62.2334 142.388 62.86 142.014 63.42C141.654 63.9667 141.194 64.3667 140.634 64.62C141.301 64.8734 141.841 65.3067 142.254 65.92C142.681 66.5334 142.894 67.2467 142.894 68.06C142.894 69.3267 142.508 70.3334 141.734 71.08C140.974 71.8267 139.901 72.2 138.514 72.2Z" fill="#111111"/>
<path d="M120.896 73.58C120.869 73.26 120.803 72.8666 120.696 72.4C120.589 71.9466 120.483 71.5866 120.376 71.32H122.376C122.643 71.32 122.836 71.28 122.956 71.2C123.076 71.1066 123.136 70.9266 123.136 70.66V68.6H115.336V66.56H123.136V65.38H124.036C124.236 65.2333 124.496 65.0333 124.816 64.78C125.149 64.5133 125.449 64.26 125.716 64.02H118.896V62.06H128.996L129.896 62.98C129.643 63.2333 129.329 63.5266 128.956 63.86C128.583 64.1933 128.189 64.5333 127.776 64.88C127.363 65.2266 126.963 65.5466 126.576 65.84C126.203 66.1333 125.883 66.3733 125.616 66.56H132.996V68.6H125.516V71.5C125.516 72.8866 124.676 73.58 122.996 73.58H120.896ZM115.496 63.64V58.92H118.576C118.389 58.4933 118.149 58.0333 117.856 57.54C117.576 57.0333 117.309 56.6333 117.056 56.34L119.116 55.4C119.316 55.6266 119.529 55.9266 119.756 56.3C119.996 56.66 120.223 57.0333 120.436 57.42C120.649 57.7933 120.809 58.12 120.916 58.4L119.696 58.92H123.176C123.069 58.6133 122.923 58.2733 122.736 57.9C122.563 57.5133 122.376 57.14 122.176 56.78C121.976 56.42 121.776 56.1133 121.576 55.86L123.716 55.08C123.916 55.3066 124.129 55.62 124.356 56.02C124.596 56.4066 124.816 56.8066 125.016 57.22C125.229 57.6333 125.383 57.9866 125.476 58.28L123.876 58.92H126.496C126.723 58.56 126.956 58.1533 127.196 57.7C127.449 57.2333 127.683 56.7733 127.896 56.32C128.123 55.8666 128.303 55.4866 128.436 55.18L130.836 55.8C130.609 56.28 130.336 56.8066 130.016 57.38C129.696 57.9533 129.396 58.4666 129.116 58.92H132.856V63.64H130.556V60.84H117.756V63.64H115.496Z" fill="#111111"/>
<path d="M96.2544 73.58C96.1477 73.3666 96.001 73.1133 95.8144 72.82C95.641 72.54 95.4544 72.2666 95.2544 72C95.0677 71.7466 94.8944 71.5466 94.7344 71.4C96.2144 70.88 97.521 70.1733 98.6544 69.28C99.801 68.3866 100.728 67.3666 101.434 66.22C102.154 65.0733 102.608 63.86 102.794 62.58H95.3144V60.28H102.894V55.34H105.414V60.28H113.014V62.58H105.534C105.748 63.8333 106.221 65.04 106.954 66.2C107.688 67.3466 108.621 68.3666 109.754 69.26C110.901 70.1533 112.181 70.8533 113.594 71.36C113.421 71.5333 113.228 71.7533 113.014 72.02C112.814 72.2866 112.621 72.56 112.434 72.84C112.261 73.1333 112.128 73.38 112.034 73.58C110.928 73.0733 109.861 72.4466 108.834 71.7C107.808 70.94 106.888 70.08 106.074 69.12C105.261 68.1466 104.621 67.0866 104.154 65.94C103.688 67.0866 103.041 68.1466 102.214 69.12C101.388 70.0933 100.454 70.9533 99.4144 71.7C98.3877 72.4466 97.3344 73.0733 96.2544 73.58Z" fill="#111111"/>
<path d="M128.938 112.424L141.274 85.5439H151.402V108.296H155.434V112.952H151.402V119H145.114V112.952H129.274L128.938 112.424ZM137.482 108.296H145.402L145.618 88.9759L140.218 102.344L137.482 108.296Z" fill="#00B6B6"/>
<path d="M118.078 119V87.7041L124.558 84.6801V119H118.078Z" fill="#00B6B6"/>
<path d="M170.485 111.248C169.109 111.248 168.093 110.836 167.437 110.012C166.781 109.18 166.453 108.08 166.453 106.712C166.453 105.104 166.817 103.94 167.545 103.22C168.273 102.492 169.253 102.128 170.485 102.128C171.709 102.128 172.673 102.492 173.377 103.22C174.089 103.94 174.445 105.112 174.445 106.736C174.445 107.624 174.317 108.408 174.061 109.088C173.813 109.76 173.397 110.288 172.813 110.672C172.237 111.056 171.461 111.248 170.485 111.248ZM170.461 119L179.629 102.272H181.981L172.813 119H170.461ZM170.461 109.448C170.861 109.448 171.157 109.324 171.349 109.076C171.541 108.828 171.665 108.504 171.721 108.104C171.777 107.696 171.805 107.256 171.805 106.784C171.805 105.832 171.709 105.124 171.517 104.66C171.333 104.188 170.965 103.952 170.413 103.952C169.885 103.952 169.521 104.184 169.321 104.648C169.121 105.112 169.021 105.8 169.021 106.712C169.021 107.464 169.109 108.108 169.285 108.644C169.461 109.18 169.853 109.448 170.461 109.448ZM182.077 119.36C180.685 119.36 179.665 118.944 179.017 118.112C178.369 117.272 178.045 116.168 178.045 114.8C178.045 113.2 178.405 112.036 179.125 111.308C179.845 110.58 180.821 110.216 182.053 110.216C183.277 110.216 184.245 110.584 184.957 111.32C185.677 112.048 186.037 113.224 186.037 114.848C186.037 115.728 185.909 116.508 185.653 117.188C185.397 117.868 184.977 118.4 184.393 118.784C183.817 119.168 183.045 119.36 182.077 119.36ZM182.005 117.512C182.421 117.512 182.725 117.392 182.917 117.152C183.109 116.912 183.233 116.592 183.289 116.192C183.345 115.792 183.373 115.352 183.373 114.872C183.373 113.92 183.281 113.212 183.097 112.748C182.913 112.276 182.549 112.04 182.005 112.04C181.453 112.04 181.081 112.272 180.889 112.736C180.705 113.2 180.613 113.896 180.613 114.824C180.613 115.568 180.693 116.204 180.853 116.732C181.021 117.252 181.405 117.512 182.005 117.512Z" fill="#00B6B6"/>
<path d="M426.285 404.58C426.232 404.313 426.145 403.987 426.025 403.6C425.918 403.213 425.792 402.893 425.645 402.64C428.298 402.613 430.705 402.247 432.865 401.54C432.158 401.1 431.532 400.593 430.985 400.02C429.598 400.847 428.185 401.48 426.745 401.92C426.652 401.653 426.498 401.353 426.285 401.02C426.072 400.673 425.852 400.387 425.625 400.16C426.412 399.973 427.192 399.713 427.965 399.38C428.752 399.033 429.485 398.647 430.165 398.22C430.858 397.78 431.452 397.333 431.945 396.88H428.645V389.38H432.565C432.698 389.073 432.812 388.787 432.905 388.52H426.005V386.76H443.665V388.52H435.545C435.492 388.667 435.438 388.813 435.385 388.96C435.332 389.093 435.272 389.233 435.205 389.38H440.905V396.88H434.525C434.432 397.013 434.332 397.147 434.225 397.28C434.132 397.4 434.032 397.52 433.925 397.64H440.145L440.845 398.3C439.952 399.527 438.832 400.573 437.485 401.44C438.432 401.707 439.458 401.92 440.565 402.08C441.672 402.227 442.838 402.32 444.065 402.36C443.892 402.613 443.725 402.947 443.565 403.36C443.405 403.787 443.292 404.16 443.225 404.48C441.905 404.373 440.538 404.18 439.125 403.9C437.712 403.633 436.372 403.233 435.105 402.7C433.878 403.233 432.525 403.66 431.045 403.98C429.578 404.313 427.992 404.513 426.285 404.58ZM431.005 395.48H438.545V394.7H431.005V395.48ZM431.005 391.52H438.545V390.76H431.005V391.52ZM431.005 393.48H438.545V392.74H431.005V393.48ZM435.165 400.56C435.965 400.147 436.652 399.66 437.225 399.1H432.905C433.225 399.38 433.572 399.647 433.945 399.9C434.332 400.14 434.738 400.36 435.165 400.56Z" fill="#111111"/>
<path d="M416.365 403.18C416.312 402.967 416.212 402.713 416.065 402.42C415.918 402.127 415.745 401.847 415.545 401.58C415.358 401.3 415.172 401.073 414.985 400.9C416.812 400.62 418.198 400.027 419.145 399.12C420.105 398.2 420.612 397.12 420.665 395.88C420.718 394.893 420.538 394.013 420.125 393.24C419.712 392.467 419.145 391.84 418.425 391.36C417.718 390.88 416.938 390.593 416.085 390.5C415.978 391.74 415.778 393.007 415.485 394.3C415.192 395.593 414.792 396.807 414.285 397.94C413.792 399.073 413.185 400.033 412.465 400.82C411.918 401.407 411.385 401.747 410.865 401.84C410.358 401.933 409.818 401.86 409.245 401.62C408.685 401.38 408.192 401 407.765 400.48C407.338 399.96 407.012 399.347 406.785 398.64C406.558 397.92 406.465 397.153 406.505 396.34C406.572 395.127 406.858 394.02 407.365 393.02C407.872 392.007 408.552 391.133 409.405 390.4C410.258 389.667 411.238 389.113 412.345 388.74C413.452 388.367 414.632 388.213 415.885 388.28C416.898 388.333 417.852 388.56 418.745 388.96C419.638 389.36 420.418 389.913 421.085 390.62C421.765 391.313 422.285 392.12 422.645 393.04C423.018 393.96 423.172 394.967 423.105 396.06C423.012 397.887 422.372 399.42 421.185 400.66C419.998 401.887 418.392 402.727 416.365 403.18ZM409.865 399.14C410.012 399.247 410.165 399.3 410.325 399.3C410.485 399.3 410.645 399.22 410.805 399.06C411.285 398.58 411.725 397.9 412.125 397.02C412.538 396.14 412.878 395.147 413.145 394.04C413.425 392.933 413.605 391.807 413.685 390.66C412.765 390.873 411.945 391.26 411.225 391.82C410.518 392.38 409.958 393.06 409.545 393.86C409.132 394.647 408.898 395.513 408.845 396.46C408.818 397.087 408.898 397.633 409.085 398.1C409.285 398.553 409.545 398.9 409.865 399.14Z" fill="#111111"/>
<path d="M394.685 404.48V400.14H385.665V398.06H389.045V393.1H394.685V390.74H390.625C390.145 391.5 389.625 392.22 389.065 392.9C388.519 393.567 387.945 394.173 387.345 394.72C387.132 394.493 386.852 394.24 386.505 393.96C386.172 393.68 385.819 393.447 385.445 393.26C386.179 392.66 386.872 391.953 387.525 391.14C388.179 390.313 388.745 389.46 389.225 388.58C389.719 387.687 390.085 386.847 390.325 386.06L392.585 386.76C392.359 387.387 392.099 388 391.805 388.6H403.045V390.74H397.165V393.1H401.625V395.18H397.165V398.06H403.905V400.14H397.165V404.48H394.685ZM391.505 398.06H394.685V395.18H391.505V398.06Z" fill="#111111"/>
<path d="M379.514 403.2C378.568 403.2 377.748 402.953 377.054 402.46C376.374 401.953 375.881 401.213 375.574 400.24L377.534 399.58C377.601 399.767 377.708 399.987 377.854 400.24C378.001 400.48 378.208 400.693 378.474 400.88C378.741 401.067 379.074 401.16 379.474 401.16C380.154 401.16 380.694 400.993 381.094 400.66C381.494 400.327 381.694 399.767 381.694 398.98C381.694 398.273 381.494 397.707 381.094 397.28C380.694 396.853 380.121 396.64 379.374 396.64H378.374V394.68H379.374C380.041 394.68 380.534 394.487 380.854 394.1C381.174 393.7 381.334 393.213 381.334 392.64C381.334 391.973 381.141 391.507 380.754 391.24C380.381 390.96 379.954 390.82 379.474 390.82C379.128 390.82 378.834 390.92 378.594 391.12C378.354 391.307 378.154 391.527 377.994 391.78C377.848 392.02 377.741 392.233 377.674 392.42L375.734 391.64C376.081 390.733 376.588 390.033 377.254 389.54C377.934 389.033 378.688 388.78 379.514 388.78C380.328 388.78 381.034 388.94 381.634 389.26C382.248 389.567 382.721 390 383.054 390.56C383.401 391.12 383.574 391.78 383.574 392.54C383.574 393.233 383.388 393.86 383.014 394.42C382.654 394.967 382.194 395.367 381.634 395.62C382.301 395.873 382.841 396.307 383.254 396.92C383.681 397.533 383.894 398.247 383.894 399.06C383.894 400.327 383.508 401.333 382.734 402.08C381.974 402.827 380.901 403.2 379.514 403.2Z" fill="#111111"/>
<path d="M361.896 404.58C361.869 404.26 361.803 403.867 361.696 403.4C361.589 402.947 361.483 402.587 361.376 402.32H363.376C363.643 402.32 363.836 402.28 363.956 402.2C364.076 402.107 364.136 401.927 364.136 401.66V399.6H356.336V397.56H364.136V396.38H365.036C365.236 396.233 365.496 396.033 365.816 395.78C366.149 395.513 366.449 395.26 366.716 395.02H359.896V393.06H369.996L370.896 393.98C370.643 394.233 370.329 394.527 369.956 394.86C369.583 395.193 369.189 395.533 368.776 395.88C368.363 396.227 367.963 396.547 367.576 396.84C367.203 397.133 366.883 397.373 366.616 397.56H373.996V399.6H366.516V402.5C366.516 403.887 365.676 404.58 363.996 404.58H361.896ZM356.496 394.64V389.92H359.576C359.389 389.493 359.149 389.033 358.856 388.54C358.576 388.033 358.309 387.633 358.056 387.34L360.116 386.4C360.316 386.627 360.529 386.927 360.756 387.3C360.996 387.66 361.223 388.033 361.436 388.42C361.649 388.793 361.809 389.12 361.916 389.4L360.696 389.92H364.176C364.069 389.613 363.923 389.273 363.736 388.9C363.563 388.513 363.376 388.14 363.176 387.78C362.976 387.42 362.776 387.113 362.576 386.86L364.716 386.08C364.916 386.307 365.129 386.62 365.356 387.02C365.596 387.407 365.816 387.807 366.016 388.22C366.229 388.633 366.383 388.987 366.476 389.28L364.876 389.92H367.496C367.723 389.56 367.956 389.153 368.196 388.7C368.449 388.233 368.683 387.773 368.896 387.32C369.123 386.867 369.303 386.487 369.436 386.18L371.836 386.8C371.609 387.28 371.336 387.807 371.016 388.38C370.696 388.953 370.396 389.467 370.116 389.92H373.856V394.64H371.556V391.84H358.756V394.64H356.496Z" fill="#111111"/>
<path d="M337.254 404.58C337.148 404.367 337.001 404.113 336.814 403.82C336.641 403.54 336.454 403.267 336.254 403C336.068 402.747 335.894 402.547 335.734 402.4C337.214 401.88 338.521 401.173 339.654 400.28C340.801 399.387 341.728 398.367 342.434 397.22C343.154 396.073 343.608 394.86 343.794 393.58H336.314V391.28H343.894V386.34H346.414V391.28H354.014V393.58H346.534C346.748 394.833 347.221 396.04 347.954 397.2C348.688 398.347 349.621 399.367 350.754 400.26C351.901 401.153 353.181 401.853 354.594 402.36C354.421 402.533 354.228 402.753 354.014 403.02C353.814 403.287 353.621 403.56 353.434 403.84C353.261 404.133 353.128 404.38 353.034 404.58C351.928 404.073 350.861 403.447 349.834 402.7C348.808 401.94 347.888 401.08 347.074 400.12C346.261 399.147 345.621 398.087 345.154 396.94C344.688 398.087 344.041 399.147 343.214 400.12C342.388 401.093 341.454 401.953 340.414 402.7C339.388 403.447 338.334 404.073 337.254 404.58Z" fill="#111111"/>
<path d="M391.383 450.72C389.127 450.72 387.383 450.496 386.151 450.048C384.935 449.6 383.943 449.008 383.175 448.272L385.527 443.472C386.183 444.16 387.047 444.64 388.119 444.912C389.191 445.168 390.167 445.296 391.047 445.296C392.711 445.296 394.167 444.88 395.415 444.048C396.679 443.2 397.679 442.032 398.415 440.544C399.151 439.056 399.559 437.344 399.639 435.408C399.671 435.072 399.687 434.76 399.687 434.472C399.687 434.168 399.687 433.888 399.687 433.632C398.823 435.28 397.583 436.488 395.967 437.256C394.351 438.008 392.663 438.384 390.903 438.384C388.743 438.384 386.919 437.896 385.431 436.92C383.943 435.928 382.807 434.616 382.023 432.984C381.255 431.352 380.871 429.568 380.871 427.632C380.871 425.168 381.407 423.048 382.479 421.272C383.551 419.496 385.031 418.128 386.919 417.168C388.807 416.208 390.983 415.728 393.447 415.728C394.871 415.728 396.319 416.016 397.791 416.592C399.263 417.168 400.615 418.112 401.847 419.424C403.095 420.72 404.095 422.448 404.847 424.608C405.599 426.768 405.975 429.424 405.975 432.576C405.975 436.32 405.343 439.552 404.079 442.272C402.831 444.976 401.103 447.064 398.895 448.536C396.703 449.992 394.199 450.72 391.383 450.72ZM392.487 433.488C393.543 433.488 394.543 433.232 395.487 432.72C396.431 432.192 397.207 431.496 397.815 430.632C398.423 429.768 398.759 428.816 398.823 427.776C398.823 426.528 398.615 425.368 398.199 424.296C397.783 423.208 397.159 422.336 396.327 421.68C395.511 421.008 394.503 420.672 393.303 420.672C392.295 420.672 391.327 420.92 390.399 421.416C389.487 421.896 388.743 422.616 388.167 423.576C387.591 424.52 387.303 425.68 387.303 427.056C387.303 428.928 387.735 430.472 388.599 431.688C389.463 432.888 390.759 433.488 392.487 433.488Z" fill="#00B6B6"/>
<path d="M360.483 444.528H376.083V450H354.531C354.435 449.488 354.355 448.976 354.291 448.464C354.227 447.936 354.195 447.328 354.195 446.64C354.195 444.608 354.523 442.872 355.179 441.432C355.851 439.992 356.827 438.704 358.107 437.568C359.403 436.432 360.995 435.312 362.883 434.208C363.923 433.6 364.963 432.928 366.003 432.192C367.043 431.456 367.907 430.584 368.595 429.576C369.299 428.552 369.651 427.312 369.651 425.856C369.651 424.608 369.259 423.496 368.475 422.52C367.707 421.544 366.467 421.056 364.755 421.056C362.979 421.056 361.555 421.632 360.483 422.784C359.427 423.936 358.755 425.424 358.467 427.248L353.379 424.848C353.635 423.184 354.283 421.664 355.323 420.288C356.363 418.896 357.723 417.792 359.403 416.976C361.083 416.144 363.011 415.728 365.187 415.728C367.171 415.728 368.971 416.104 370.587 416.856C372.203 417.592 373.491 418.672 374.451 420.096C375.411 421.52 375.891 423.248 375.891 425.28C375.891 427.36 375.515 429.16 374.763 430.68C374.011 432.2 372.899 433.584 371.427 434.832C369.971 436.08 368.179 437.344 366.051 438.624C364.547 439.536 363.307 440.392 362.331 441.192C361.371 441.976 360.755 443.088 360.483 444.528Z" fill="#00B6B6"/>
<path d="M414.985 442.248C413.609 442.248 412.593 441.836 411.937 441.012C411.281 440.18 410.953 439.08 410.953 437.712C410.953 436.104 411.317 434.94 412.045 434.22C412.773 433.492 413.753 433.128 414.985 433.128C416.209 433.128 417.173 433.492 417.877 434.22C418.589 434.94 418.945 436.112 418.945 437.736C418.945 438.624 418.817 439.408 418.561 440.088C418.313 440.76 417.897 441.288 417.313 441.672C416.737 442.056 415.961 442.248 414.985 442.248ZM414.961 450L424.129 433.272H426.481L417.313 450H414.961ZM414.961 440.448C415.361 440.448 415.657 440.324 415.849 440.076C416.041 439.828 416.165 439.504 416.221 439.104C416.277 438.696 416.305 438.256 416.305 437.784C416.305 436.832 416.209 436.124 416.017 435.66C415.833 435.188 415.465 434.952 414.913 434.952C414.385 434.952 414.021 435.184 413.821 435.648C413.621 436.112 413.521 436.8 413.521 437.712C413.521 438.464 413.609 439.108 413.785 439.644C413.961 440.18 414.353 440.448 414.961 440.448ZM426.577 450.36C425.185 450.36 424.165 449.944 423.517 449.112C422.869 448.272 422.545 447.168 422.545 445.8C422.545 444.2 422.905 443.036 423.625 442.308C424.345 441.58 425.321 441.216 426.553 441.216C427.777 441.216 428.745 441.584 429.457 442.32C430.177 443.048 430.537 444.224 430.537 445.848C430.537 446.728 430.409 447.508 430.153 448.188C429.897 448.868 429.477 449.4 428.893 449.784C428.317 450.168 427.545 450.36 426.577 450.36ZM426.505 448.512C426.921 448.512 427.225 448.392 427.417 448.152C427.609 447.912 427.733 447.592 427.789 447.192C427.845 446.792 427.873 446.352 427.873 445.872C427.873 444.92 427.781 444.212 427.597 443.748C427.413 443.276 427.049 443.04 426.505 443.04C425.953 443.04 425.581 443.272 425.389 443.736C425.205 444.2 425.113 444.896 425.113 445.824C425.113 446.568 425.193 447.204 425.353 447.732C425.521 448.252 425.905 448.512 426.505 448.512Z" fill="#00B6B6"/>
</svg>
