<svg width="338" height="142" viewBox="0 0 338 142" fill="none" xmlns="http://www.w3.org/2000/svg">
<path d="M234 77C234 112.899 204.899 142 169 142C133.101 142 104 112.899 104 77C104 41.1015 133.101 12 169 12C204.899 12 234 41.1015 234 77ZM136.5 77C136.5 94.9493 151.051 109.5 169 109.5C186.949 109.5 201.5 94.9493 201.5 77C201.5 59.0507 186.949 44.5 169 44.5C151.051 44.5 136.5 59.0507 136.5 77Z" fill="#E3FAFA"/>
<path d="M169 12C186.221 12 202.739 18.8342 214.926 31.002C227.113 43.1698 233.973 59.6765 234 76.8979C234.027 94.1193 227.219 110.648 215.07 122.854C202.921 135.06 186.425 141.946 169.204 142C151.983 142.054 135.444 135.272 123.219 123.142C110.994 111.013 104.082 94.5275 104.001 77.3063C103.92 60.0851 110.676 43.5356 122.786 31.2914C134.896 19.0473 151.371 12.1095 168.592 12.0013L168.796 44.5006C160.185 44.5547 151.948 48.0237 145.893 54.1457C139.838 60.2678 136.46 68.5426 136.5 77.1532C136.541 85.7637 139.997 94.0063 146.109 100.071C152.222 106.136 160.491 109.527 169.102 109.5C177.713 109.473 185.961 106.03 192.035 99.9268C198.109 93.8238 201.513 85.5596 201.5 76.949C201.486 68.3383 198.056 60.0849 191.963 54.001C185.869 47.9171 177.611 44.5 169 44.5V12Z" fill="#B9EFEF"/>
<path d="M169 12C181.856 12 194.423 15.8122 205.112 22.9545C215.801 30.0968 224.132 40.2484 229.052 52.1256C233.972 64.0028 235.259 77.0721 232.751 89.6809C230.243 102.29 224.052 113.872 214.962 122.962C205.872 132.052 194.29 138.243 181.681 140.751C169.072 143.259 156.003 141.972 144.126 137.052C132.248 132.132 122.097 123.801 114.954 113.112C107.812 102.423 104 89.8558 104 77L136.5 77C136.5 83.4279 138.406 89.7114 141.977 95.056C145.548 100.401 150.624 104.566 156.563 107.026C162.501 109.486 169.036 110.13 175.34 108.876C181.645 107.622 187.436 104.526 191.981 99.981C196.526 95.4358 199.621 89.6448 200.876 83.3404C202.13 77.0361 201.486 70.5014 199.026 64.5628C196.566 58.6242 192.401 53.5484 187.056 49.9772C181.711 46.4061 175.428 44.5 169 44.5V12Z" fill="#8EE5E5"/>
<path d="M169 12C180.156 12 191.124 14.8713 200.849 20.3377C210.574 25.8041 218.729 33.6815 224.528 43.2119C230.327 52.7423 233.576 63.6048 233.961 74.7542C234.347 85.9036 231.856 96.9646 226.729 106.873L197.864 91.9363C200.428 86.9823 201.673 81.4518 201.481 75.8771C201.288 70.3024 199.664 64.8711 196.764 60.1059C193.864 55.3407 189.787 51.402 184.925 48.6689C180.062 45.9357 174.578 44.5 169 44.5V12Z" fill="#54D2D2"/>
<path d="M169 12C183.705 12 197.976 16.9863 209.481 26.1446C220.986 35.3028 229.046 48.0917 232.344 62.4224L200.672 69.7112C199.023 62.5459 194.993 56.1514 189.241 51.5723C183.488 46.9932 176.353 44.5 169 44.5V12Z" fill="#36C4C4"/>
<path d="M169 12C178.086 12 187.071 13.9049 195.376 17.5919C203.68 21.2788 211.119 26.6659 217.213 33.4054L193.107 55.2027C190.06 51.833 186.34 49.1394 182.188 47.2959C178.036 45.4525 173.543 44.5 169 44.5V12Z" fill="#1FB5B5"/>
<path d="M154.744 78.208C154.616 77.616 154.392 77.176 154.072 76.888C153.752 76.584 153.296 76.432 152.704 76.432C151.792 76.432 151.136 76.832 150.736 77.632C150.336 78.416 150.128 79.664 150.112 81.376C150.464 80.816 150.968 80.376 151.624 80.056C152.296 79.736 153.032 79.576 153.832 79.576C155.4 79.576 156.656 80.072 157.6 81.064C158.56 82.056 159.04 83.44 159.04 85.216C159.04 86.384 158.8 87.408 158.32 88.288C157.856 89.168 157.168 89.856 156.256 90.352C155.36 90.848 154.296 91.096 153.064 91.096C150.6 91.096 148.888 90.328 147.928 88.792C146.968 87.24 146.488 85.016 146.488 82.12C146.488 79.08 146.992 76.824 148 75.352C149.024 73.864 150.656 73.12 152.896 73.12C154.096 73.12 155.104 73.36 155.92 73.84C156.752 74.304 157.376 74.92 157.792 75.688C158.224 76.456 158.48 77.296 158.56 78.208H154.744ZM152.848 82.816C152.16 82.816 151.584 83.024 151.12 83.44C150.672 83.84 150.448 84.416 150.448 85.168C150.448 85.936 150.656 86.536 151.072 86.968C151.504 87.4 152.112 87.616 152.896 87.616C153.6 87.616 154.152 87.408 154.552 86.992C154.968 86.56 155.176 85.976 155.176 85.24C155.176 84.488 154.976 83.896 154.576 83.464C154.176 83.032 153.6 82.816 152.848 82.816ZM160.017 87.88V84.568L167.601 73.72H172.185V84.328H174.153V87.88H172.185V91H168.081V87.88H160.017ZM168.369 78.232L164.337 84.328H168.369V78.232ZM174.291 77.296V73.48H180.939V91H176.667V77.296H174.291Z" fill="#111111"/>
<path d="M186.464 90.804C186.352 90.604 186.212 90.388 186.044 90.156C185.876 89.932 185.704 89.744 185.528 89.592C186.416 89.16 187.216 88.632 187.928 88.008C188.64 87.376 189.2 86.648 189.608 85.824C190.024 85 190.232 84.092 190.232 83.1V80.16H191.72V82.692C191.72 83.492 191.852 84.24 192.116 84.936C192.38 85.632 192.74 86.268 193.196 86.844C193.652 87.42 194.168 87.928 194.744 88.368C195.32 88.8 195.924 89.156 196.556 89.436C196.404 89.604 196.236 89.82 196.052 90.084C195.876 90.348 195.736 90.58 195.632 90.78C194.952 90.428 194.312 89.996 193.712 89.484C193.112 88.972 192.584 88.4 192.128 87.768C191.68 87.136 191.324 86.472 191.06 85.776C190.828 86.496 190.48 87.172 190.016 87.804C189.552 88.428 189.016 88.996 188.408 89.508C187.8 90.012 187.152 90.444 186.464 90.804Z" fill="#111111"/>
<circle cx="258.5" cy="46" r="3.5" fill="#D9D9D9"/>
<path d="M270.038 52.64C269.375 52.64 268.801 52.4673 268.316 52.122C267.84 51.7673 267.495 51.2493 267.28 50.568L268.652 50.106C268.699 50.2367 268.773 50.3907 268.876 50.568C268.979 50.736 269.123 50.8853 269.31 51.016C269.497 51.1467 269.73 51.212 270.01 51.212C270.486 51.212 270.864 51.0953 271.144 50.862C271.424 50.6287 271.564 50.2367 271.564 49.686C271.564 49.1913 271.424 48.7947 271.144 48.496C270.864 48.1973 270.463 48.048 269.94 48.048H269.24V46.676H269.94C270.407 46.676 270.752 46.5407 270.976 46.27C271.2 45.99 271.312 45.6493 271.312 45.248C271.312 44.7813 271.177 44.4547 270.906 44.268C270.645 44.072 270.346 43.974 270.01 43.974C269.767 43.974 269.562 44.044 269.394 44.184C269.226 44.3147 269.086 44.4687 268.974 44.646C268.871 44.814 268.797 44.9633 268.75 45.094L267.392 44.548C267.635 43.9133 267.989 43.4233 268.456 43.078C268.932 42.7233 269.459 42.546 270.038 42.546C270.607 42.546 271.102 42.658 271.522 42.882C271.951 43.0967 272.283 43.4 272.516 43.792C272.759 44.184 272.88 44.646 272.88 45.178C272.88 45.6633 272.749 46.102 272.488 46.494C272.236 46.8767 271.914 47.1567 271.522 47.334C271.989 47.5113 272.367 47.8147 272.656 48.244C272.955 48.6733 273.104 49.1727 273.104 49.742C273.104 50.6287 272.833 51.3333 272.292 51.856C271.76 52.3787 271.009 52.64 270.038 52.64ZM277.842 52.64C277.095 52.64 276.512 52.4533 276.092 52.08C275.672 51.7067 275.373 51.1467 275.196 50.4C275.028 49.6533 274.944 48.72 274.944 47.6C274.944 46.48 275.028 45.5467 275.196 44.8C275.373 44.044 275.672 43.4793 276.092 43.106C276.512 42.7327 277.095 42.546 277.842 42.546C278.589 42.546 279.167 42.7327 279.578 43.106C279.998 43.4793 280.292 44.044 280.46 44.8C280.637 45.5467 280.726 46.48 280.726 47.6C280.726 48.72 280.637 49.6533 280.46 50.4C280.292 51.1467 279.998 51.7067 279.578 52.08C279.167 52.4533 278.589 52.64 277.842 52.64ZM277.842 51.212C278.187 51.212 278.458 51.1047 278.654 50.89C278.859 50.666 279.009 50.2927 279.102 49.77C279.195 49.2473 279.242 48.524 279.242 47.6C279.242 46.6667 279.195 45.9387 279.102 45.416C279.009 44.8933 278.859 44.5247 278.654 44.31C278.458 44.086 278.187 43.974 277.842 43.974C277.497 43.974 277.221 44.086 277.016 44.31C276.811 44.5247 276.661 44.8933 276.568 45.416C276.484 45.9387 276.442 46.6667 276.442 47.6C276.442 48.524 276.484 49.2473 276.568 49.77C276.661 50.2927 276.811 50.666 277.016 50.89C277.221 51.1047 277.497 51.212 277.842 51.212ZM291.729 53.184C291.409 53.048 291.073 52.84 290.721 52.56C290.377 52.288 290.045 51.92 289.725 51.456C289.405 50.992 289.113 50.408 288.849 49.704C288.593 48.992 288.389 48.14 288.237 47.148L286.149 47.364L285.993 45.972L288.081 45.768C288.049 45.424 288.025 45.068 288.009 44.7C287.993 44.332 287.985 43.948 287.985 43.548V42.492H289.413V43.536C289.413 43.92 289.421 44.284 289.437 44.628C289.453 44.972 289.473 45.304 289.497 45.624L292.953 45.276L293.109 46.656L289.665 47.004C289.809 47.876 290.001 48.616 290.241 49.224C290.481 49.824 290.753 50.316 291.057 50.7C291.369 51.076 291.697 51.364 292.041 51.564C292.129 51.308 292.205 51.036 292.269 50.748C292.333 50.452 292.377 50.208 292.401 50.016C292.489 50.072 292.613 50.14 292.773 50.22C292.933 50.292 293.097 50.36 293.265 50.424C293.433 50.488 293.573 50.536 293.685 50.568C293.645 50.832 293.585 51.112 293.505 51.408C293.433 51.704 293.349 51.984 293.253 52.248C293.165 52.504 293.077 52.716 292.989 52.884C292.861 53.116 292.689 53.252 292.473 53.292C292.257 53.34 292.009 53.304 291.729 53.184ZM284.277 53.376V47.256C284.069 47.528 283.857 47.788 283.641 48.036C283.433 48.284 283.225 48.5 283.017 48.684C282.897 48.54 282.741 48.388 282.549 48.228C282.365 48.06 282.181 47.924 281.997 47.82C282.237 47.62 282.489 47.356 282.753 47.028C283.025 46.7 283.293 46.336 283.557 45.936C283.829 45.536 284.077 45.132 284.301 44.724C284.533 44.308 284.733 43.916 284.901 43.548C285.069 43.172 285.185 42.852 285.249 42.588L286.569 43.044C286.465 43.356 286.341 43.68 286.197 44.016C286.053 44.344 285.889 44.68 285.705 45.024V53.376H284.277ZM291.717 45.192C291.493 44.912 291.225 44.624 290.913 44.328C290.609 44.032 290.329 43.8 290.073 43.632L290.973 42.696C291.157 42.808 291.361 42.964 291.585 43.164C291.817 43.356 292.037 43.552 292.245 43.752C292.453 43.952 292.613 44.124 292.725 44.268C292.629 44.332 292.513 44.424 292.377 44.544C292.241 44.656 292.113 44.772 291.993 44.892C291.873 45.012 291.781 45.112 291.717 45.192Z" fill="#111111"/>
<path d="M310.18 41.38H303.94V44.14C304.207 43.8467 304.58 43.6067 305.06 43.42C305.54 43.2333 306.06 43.14 306.62 43.14C307.62 43.14 308.447 43.3667 309.1 43.82C309.767 44.2733 310.253 44.86 310.56 45.58C310.867 46.3 311.02 47.08 311.02 47.92C311.02 49.48 310.58 50.72 309.7 51.64C308.82 52.5467 307.58 53 305.98 53C304.913 53 303.987 52.82 303.2 52.46C302.413 52.0867 301.807 51.5733 301.38 50.92C300.953 50.2667 300.72 49.5133 300.68 48.66H304.02C304.1 49.0733 304.293 49.42 304.6 49.7C304.907 49.9667 305.327 50.1 305.86 50.1C306.487 50.1 306.953 49.9 307.26 49.5C307.567 49.1 307.72 48.5667 307.72 47.9C307.72 47.2467 307.56 46.7467 307.24 46.4C306.92 46.0533 306.453 45.88 305.84 45.88C305.387 45.88 305.013 45.9933 304.72 46.22C304.427 46.4333 304.233 46.72 304.14 47.08H300.84V38.38H310.18V41.38ZM311.588 50.26C312.041 49.9 312.248 49.7333 312.208 49.76C313.514 48.68 314.541 47.7933 315.288 47.1C316.048 46.4067 316.688 45.68 317.208 44.92C317.728 44.16 317.988 43.42 317.988 42.7C317.988 42.1533 317.861 41.7267 317.608 41.42C317.354 41.1133 316.974 40.96 316.468 40.96C315.961 40.96 315.561 41.1533 315.268 41.54C314.988 41.9133 314.848 42.4467 314.848 43.14H311.548C311.574 42.0067 311.814 41.06 312.268 40.3C312.734 39.54 313.341 38.98 314.088 38.62C314.848 38.26 315.688 38.08 316.608 38.08C318.194 38.08 319.388 38.4867 320.188 39.3C321.001 40.1133 321.408 41.1733 321.408 42.48C321.408 43.9067 320.921 45.2333 319.948 46.46C318.974 47.6733 317.734 48.86 316.228 50.02H321.628V52.8H311.588V50.26Z" fill="#111111"/>
<path d="M324.464 51.804C324.352 51.604 324.212 51.388 324.044 51.156C323.876 50.932 323.704 50.744 323.528 50.592C324.416 50.16 325.216 49.632 325.928 49.008C326.64 48.376 327.2 47.648 327.608 46.824C328.024 46 328.232 45.092 328.232 44.1V41.16H329.72V43.692C329.72 44.492 329.852 45.24 330.116 45.936C330.38 46.632 330.74 47.268 331.196 47.844C331.652 48.42 332.168 48.928 332.744 49.368C333.32 49.8 333.924 50.156 334.556 50.436C334.404 50.604 334.236 50.82 334.052 51.084C333.876 51.348 333.736 51.58 333.632 51.78C332.952 51.428 332.312 50.996 331.712 50.484C331.112 49.972 330.584 49.4 330.128 48.768C329.68 48.136 329.324 47.472 329.06 46.776C328.828 47.496 328.48 48.172 328.016 48.804C327.552 49.428 327.016 49.996 326.408 50.508C325.8 51.012 325.152 51.444 324.464 51.804Z" fill="#111111"/>
<circle cx="258.5" cy="84" r="3.5" fill="#D9D9D9"/>
<path d="M270.976 90.5V88.358H267.14V87.21L270.99 80.658H272.39V87.042H273.762V88.358H272.39V90.5H270.976ZM268.638 87.042H270.976V83.038L268.638 87.042ZM278.006 90.64C277.259 90.64 276.676 90.4533 276.256 90.08C275.836 89.7067 275.537 89.1467 275.36 88.4C275.192 87.6533 275.108 86.72 275.108 85.6C275.108 84.48 275.192 83.5467 275.36 82.8C275.537 82.044 275.836 81.4793 276.256 81.106C276.676 80.7327 277.259 80.546 278.006 80.546C278.753 80.546 279.331 80.7327 279.742 81.106C280.162 81.4793 280.456 82.044 280.624 82.8C280.801 83.5467 280.89 84.48 280.89 85.6C280.89 86.72 280.801 87.6533 280.624 88.4C280.456 89.1467 280.162 89.7067 279.742 90.08C279.331 90.4533 278.753 90.64 278.006 90.64ZM278.006 89.212C278.351 89.212 278.622 89.1047 278.818 88.89C279.023 88.666 279.173 88.2927 279.266 87.77C279.359 87.2473 279.406 86.524 279.406 85.6C279.406 84.6667 279.359 83.9387 279.266 83.416C279.173 82.8933 279.023 82.5247 278.818 82.31C278.622 82.086 278.351 81.974 278.006 81.974C277.661 81.974 277.385 82.086 277.18 82.31C276.975 82.5247 276.825 82.8933 276.732 83.416C276.648 83.9387 276.606 84.6667 276.606 85.6C276.606 86.524 276.648 87.2473 276.732 87.77C276.825 88.2927 276.975 88.666 277.18 88.89C277.385 89.1047 277.661 89.212 278.006 89.212ZM291.893 91.184C291.573 91.048 291.237 90.84 290.885 90.56C290.541 90.288 290.209 89.92 289.889 89.456C289.569 88.992 289.277 88.408 289.013 87.704C288.757 86.992 288.553 86.14 288.401 85.148L286.313 85.364L286.157 83.972L288.245 83.768C288.213 83.424 288.189 83.068 288.173 82.7C288.157 82.332 288.149 81.948 288.149 81.548V80.492H289.577V81.536C289.577 81.92 289.585 82.284 289.601 82.628C289.617 82.972 289.637 83.304 289.661 83.624L293.117 83.276L293.273 84.656L289.829 85.004C289.973 85.876 290.165 86.616 290.405 87.224C290.645 87.824 290.917 88.316 291.221 88.7C291.533 89.076 291.861 89.364 292.205 89.564C292.293 89.308 292.369 89.036 292.433 88.748C292.497 88.452 292.541 88.208 292.565 88.016C292.653 88.072 292.777 88.14 292.937 88.22C293.097 88.292 293.261 88.36 293.429 88.424C293.597 88.488 293.737 88.536 293.849 88.568C293.809 88.832 293.749 89.112 293.669 89.408C293.597 89.704 293.513 89.984 293.417 90.248C293.329 90.504 293.241 90.716 293.153 90.884C293.025 91.116 292.853 91.252 292.637 91.292C292.421 91.34 292.173 91.304 291.893 91.184ZM284.441 91.376V85.256C284.233 85.528 284.021 85.788 283.805 86.036C283.597 86.284 283.389 86.5 283.181 86.684C283.061 86.54 282.905 86.388 282.713 86.228C282.529 86.06 282.345 85.924 282.161 85.82C282.401 85.62 282.653 85.356 282.917 85.028C283.189 84.7 283.457 84.336 283.721 83.936C283.993 83.536 284.241 83.132 284.465 82.724C284.697 82.308 284.897 81.916 285.065 81.548C285.233 81.172 285.349 80.852 285.413 80.588L286.733 81.044C286.629 81.356 286.505 81.68 286.361 82.016C286.217 82.344 286.053 82.68 285.869 83.024V91.376H284.441ZM291.881 83.192C291.657 82.912 291.389 82.624 291.077 82.328C290.773 82.032 290.493 81.8 290.237 81.632L291.137 80.696C291.321 80.808 291.525 80.964 291.749 81.164C291.981 81.356 292.201 81.552 292.409 81.752C292.617 81.952 292.777 82.124 292.889 82.268C292.793 82.332 292.677 82.424 292.541 82.544C292.405 82.656 292.277 82.772 292.157 82.892C292.037 83.012 291.945 83.112 291.881 83.192Z" fill="#111111"/>
<path d="M310.22 78.96L305.2 91H301.7L306.78 79.34H300.56V76.42H310.22V78.96ZM310.283 88.26C310.736 87.9 310.943 87.7333 310.903 87.76C312.21 86.68 313.236 85.7933 313.983 85.1C314.743 84.4067 315.383 83.68 315.903 82.92C316.423 82.16 316.683 81.42 316.683 80.7C316.683 80.1533 316.556 79.7267 316.303 79.42C316.05 79.1133 315.67 78.96 315.163 78.96C314.656 78.96 314.256 79.1533 313.963 79.54C313.683 79.9133 313.543 80.4467 313.543 81.14H310.243C310.27 80.0067 310.51 79.06 310.963 78.3C311.43 77.54 312.036 76.98 312.783 76.62C313.543 76.26 314.383 76.08 315.303 76.08C316.89 76.08 318.083 76.4867 318.883 77.3C319.696 78.1133 320.103 79.1733 320.103 80.48C320.103 81.9067 319.616 83.2333 318.643 84.46C317.67 85.6733 316.43 86.86 314.923 88.02H320.323V90.8H310.283V88.26Z" fill="#111111"/>
<path d="M322.464 89.804C322.352 89.604 322.212 89.388 322.044 89.156C321.876 88.932 321.704 88.744 321.528 88.592C322.416 88.16 323.216 87.632 323.928 87.008C324.64 86.376 325.2 85.648 325.608 84.824C326.024 84 326.232 83.092 326.232 82.1V79.16H327.72V81.692C327.72 82.492 327.852 83.24 328.116 83.936C328.38 84.632 328.74 85.268 329.196 85.844C329.652 86.42 330.168 86.928 330.744 87.368C331.32 87.8 331.924 88.156 332.556 88.436C332.404 88.604 332.236 88.82 332.052 89.084C331.876 89.348 331.736 89.58 331.632 89.78C330.952 89.428 330.312 88.996 329.712 88.484C329.112 87.972 328.584 87.4 328.128 86.768C327.68 86.136 327.324 85.472 327.06 84.776C326.828 85.496 326.48 86.172 326.016 86.804C325.552 87.428 325.016 87.996 324.408 88.508C323.8 89.012 323.152 89.444 322.464 89.804Z" fill="#111111"/>
<circle cx="7.5" cy="106" r="3.5" fill="#D9D9D9"/>
<path d="M19.108 112.584C18.52 112.584 17.974 112.439 17.47 112.15C16.966 111.861 16.5693 111.473 16.28 110.988L17.54 110.19C17.7267 110.479 17.946 110.713 18.198 110.89C18.4593 111.067 18.7627 111.156 19.108 111.156C19.6307 111.156 20.0227 111.002 20.284 110.694C20.5547 110.377 20.69 109.938 20.69 109.378C20.69 108.771 20.5733 108.333 20.34 108.062C20.116 107.782 19.7987 107.642 19.388 107.642C19.1267 107.642 18.8933 107.698 18.688 107.81C18.4827 107.922 18.3333 108.09 18.24 108.314H16.854V102.7H21.838V104.072H18.352V106.648C18.5107 106.536 18.6833 106.447 18.87 106.382C19.0567 106.307 19.2433 106.27 19.43 106.27C19.9527 106.27 20.4193 106.387 20.83 106.62C21.25 106.853 21.5813 107.199 21.824 107.656C22.076 108.113 22.202 108.687 22.202 109.378C22.202 110.395 21.9173 111.184 21.348 111.744C20.7787 112.304 20.032 112.584 19.108 112.584ZM26.6642 112.64C25.9175 112.64 25.3342 112.453 24.9142 112.08C24.4942 111.707 24.1955 111.147 24.0182 110.4C23.8502 109.653 23.7662 108.72 23.7662 107.6C23.7662 106.48 23.8502 105.547 24.0182 104.8C24.1955 104.044 24.4942 103.479 24.9142 103.106C25.3342 102.733 25.9175 102.546 26.6642 102.546C27.4108 102.546 27.9895 102.733 28.4002 103.106C28.8202 103.479 29.1142 104.044 29.2822 104.8C29.4595 105.547 29.5482 106.48 29.5482 107.6C29.5482 108.72 29.4595 109.653 29.2822 110.4C29.1142 111.147 28.8202 111.707 28.4002 112.08C27.9895 112.453 27.4108 112.64 26.6642 112.64ZM26.6642 111.212C27.0095 111.212 27.2802 111.105 27.4762 110.89C27.6815 110.666 27.8308 110.293 27.9242 109.77C28.0175 109.247 28.0642 108.524 28.0642 107.6C28.0642 106.667 28.0175 105.939 27.9242 105.416C27.8308 104.893 27.6815 104.525 27.4762 104.31C27.2802 104.086 27.0095 103.974 26.6642 103.974C26.3188 103.974 26.0435 104.086 25.8382 104.31C25.6328 104.525 25.4835 104.893 25.3902 105.416C25.3062 105.939 25.2642 106.667 25.2642 107.6C25.2642 108.524 25.3062 109.247 25.3902 109.77C25.4835 110.293 25.6328 110.666 25.8382 110.89C26.0435 111.105 26.3188 111.212 26.6642 111.212ZM40.5515 113.184C40.2315 113.048 39.8955 112.84 39.5435 112.56C39.1995 112.288 38.8675 111.92 38.5475 111.456C38.2275 110.992 37.9355 110.408 37.6715 109.704C37.4155 108.992 37.2115 108.14 37.0595 107.148L34.9715 107.364L34.8155 105.972L36.9035 105.768C36.8715 105.424 36.8475 105.068 36.8315 104.7C36.8155 104.332 36.8075 103.948 36.8075 103.548V102.492H38.2355V103.536C38.2355 103.92 38.2435 104.284 38.2595 104.628C38.2755 104.972 38.2955 105.304 38.3195 105.624L41.7755 105.276L41.9315 106.656L38.4875 107.004C38.6315 107.876 38.8235 108.616 39.0635 109.224C39.3035 109.824 39.5755 110.316 39.8795 110.7C40.1915 111.076 40.5195 111.364 40.8635 111.564C40.9515 111.308 41.0275 111.036 41.0915 110.748C41.1555 110.452 41.1995 110.208 41.2235 110.016C41.3115 110.072 41.4355 110.14 41.5955 110.22C41.7555 110.292 41.9195 110.36 42.0875 110.424C42.2555 110.488 42.3955 110.536 42.5075 110.568C42.4675 110.832 42.4075 111.112 42.3275 111.408C42.2555 111.704 42.1715 111.984 42.0755 112.248C41.9875 112.504 41.8995 112.716 41.8115 112.884C41.6835 113.116 41.5115 113.252 41.2955 113.292C41.0795 113.34 40.8315 113.304 40.5515 113.184ZM33.0995 113.376V107.256C32.8915 107.528 32.6795 107.788 32.4635 108.036C32.2555 108.284 32.0475 108.5 31.8395 108.684C31.7195 108.54 31.5635 108.388 31.3715 108.228C31.1875 108.06 31.0035 107.924 30.8195 107.82C31.0595 107.62 31.3115 107.356 31.5755 107.028C31.8475 106.7 32.1155 106.336 32.3795 105.936C32.6515 105.536 32.8995 105.132 33.1235 104.724C33.3555 104.308 33.5555 103.916 33.7235 103.548C33.8915 103.172 34.0075 102.852 34.0715 102.588L35.3915 103.044C35.2875 103.356 35.1635 103.68 35.0195 104.016C34.8755 104.344 34.7115 104.68 34.5275 105.024V113.376H33.0995ZM40.5395 105.192C40.3155 104.912 40.0475 104.624 39.7355 104.328C39.4315 104.032 39.1515 103.8 38.8955 103.632L39.7955 102.696C39.9795 102.808 40.1835 102.964 40.4075 103.164C40.6395 103.356 40.8595 103.552 41.0675 103.752C41.2755 103.952 41.4355 104.124 41.5475 104.268C41.4515 104.332 41.3355 104.424 41.1995 104.544C41.0635 104.656 40.9355 104.772 40.8155 104.892C40.6955 105.012 40.6035 105.112 40.5395 105.192Z" fill="#111111"/>
<path d="M49.02 102.52C49.0733 101.093 49.54 99.9933 50.42 99.22C51.3 98.4467 52.4933 98.06 54 98.06C55 98.06 55.8533 98.2333 56.56 98.58C57.28 98.9267 57.82 99.4 58.18 100C58.5533 100.6 58.74 101.273 58.74 102.02C58.74 102.9 58.52 103.62 58.08 104.18C57.64 104.727 57.1267 105.1 56.54 105.3V105.38C57.3 105.633 57.9 106.053 58.34 106.64C58.78 107.227 59 107.98 59 108.9C59 109.727 58.8067 110.46 58.42 111.1C58.0467 111.727 57.4933 112.22 56.76 112.58C56.04 112.94 55.18 113.12 54.18 113.12C52.58 113.12 51.3 112.727 50.34 111.94C49.3933 111.153 48.8933 109.967 48.84 108.38H52.16C52.1733 108.967 52.34 109.433 52.66 109.78C52.98 110.113 53.4467 110.28 54.06 110.28C54.58 110.28 54.98 110.133 55.26 109.84C55.5533 109.533 55.7 109.133 55.7 108.64C55.7 108 55.4933 107.54 55.08 107.26C54.68 106.967 54.0333 106.82 53.14 106.82H52.5V104.04H53.14C53.82 104.04 54.3667 103.927 54.78 103.7C55.2067 103.46 55.42 103.04 55.42 102.44C55.42 101.96 55.2867 101.587 55.02 101.32C54.7533 101.053 54.3867 100.92 53.92 100.92C53.4133 100.92 53.0333 101.073 52.78 101.38C52.54 101.687 52.4 102.067 52.36 102.52H49.02ZM59.9294 102.52C59.9827 101.093 60.4494 99.9933 61.3294 99.22C62.2094 98.4467 63.4027 98.06 64.9094 98.06C65.9094 98.06 66.7627 98.2333 67.4694 98.58C68.1894 98.9267 68.7294 99.4 69.0894 100C69.4627 100.6 69.6494 101.273 69.6494 102.02C69.6494 102.9 69.4294 103.62 68.9894 104.18C68.5494 104.727 68.036 105.1 67.4494 105.3V105.38C68.2094 105.633 68.8094 106.053 69.2494 106.64C69.6894 107.227 69.9094 107.98 69.9094 108.9C69.9094 109.727 69.716 110.46 69.3294 111.1C68.956 111.727 68.4027 112.22 67.6694 112.58C66.9494 112.94 66.0894 113.12 65.0894 113.12C63.4894 113.12 62.2094 112.727 61.2494 111.94C60.3027 111.153 59.8027 109.967 59.7494 108.38H63.0694C63.0827 108.967 63.2494 109.433 63.5694 109.78C63.8894 110.113 64.356 110.28 64.9694 110.28C65.4894 110.28 65.8894 110.133 66.1694 109.84C66.4627 109.533 66.6094 109.133 66.6094 108.64C66.6094 108 66.4027 107.54 65.9894 107.26C65.5894 106.967 64.9427 106.82 64.0494 106.82H63.4094V104.04H64.0494C64.7294 104.04 65.276 103.927 65.6894 103.7C66.116 103.46 66.3294 103.04 66.3294 102.44C66.3294 101.96 66.196 101.587 65.9294 101.32C65.6627 101.053 65.296 100.92 64.8294 100.92C64.3227 100.92 63.9427 101.073 63.6894 101.38C63.4494 101.687 63.3094 102.067 63.2694 102.52H59.9294ZM70.7188 105.5C70.7188 103.207 71.1588 101.4 72.0388 100.08C72.9321 98.76 74.3654 98.1 76.3388 98.1C78.3121 98.1 79.7388 98.76 80.6188 100.08C81.5121 101.4 81.9588 103.207 81.9588 105.5C81.9588 107.82 81.5121 109.64 80.6188 110.96C79.7388 112.28 78.3121 112.94 76.3388 112.94C74.3654 112.94 72.9321 112.28 72.0388 110.96C71.1588 109.64 70.7188 107.82 70.7188 105.5ZM78.5988 105.5C78.5988 104.153 78.4521 103.12 78.1588 102.4C77.8654 101.667 77.2588 101.3 76.3388 101.3C75.4188 101.3 74.8121 101.667 74.5188 102.4C74.2254 103.12 74.0788 104.153 74.0788 105.5C74.0788 106.407 74.1321 107.16 74.2388 107.76C74.3454 108.347 74.5588 108.827 74.8788 109.2C75.2121 109.56 75.6988 109.74 76.3388 109.74C76.9788 109.74 77.4588 109.56 77.7788 109.2C78.1121 108.827 78.3321 108.347 78.4388 107.76C78.5454 107.16 78.5988 106.407 78.5988 105.5Z" fill="#111111"/>
<path d="M84.464 111.804C84.352 111.604 84.212 111.388 84.044 111.156C83.876 110.932 83.704 110.744 83.528 110.592C84.416 110.16 85.216 109.632 85.928 109.008C86.64 108.376 87.2 107.648 87.608 106.824C88.024 106 88.232 105.092 88.232 104.1V101.16H89.72V103.692C89.72 104.492 89.852 105.24 90.116 105.936C90.38 106.632 90.74 107.268 91.196 107.844C91.652 108.42 92.168 108.928 92.744 109.368C93.32 109.8 93.924 110.156 94.556 110.436C94.404 110.604 94.236 110.82 94.052 111.084C93.876 111.348 93.736 111.58 93.632 111.78C92.952 111.428 92.312 110.996 91.712 110.484C91.112 109.972 90.584 109.4 90.128 108.768C89.68 108.136 89.324 107.472 89.06 106.776C88.828 107.496 88.48 108.172 88.016 108.804C87.552 109.428 87.016 109.996 86.408 110.508C85.8 111.012 85.152 111.444 84.464 111.804Z" fill="#111111"/>
<circle cx="241.5" cy="11" r="3.5" fill="#D9D9D9"/>
<path d="M250.392 17.5V17.038C250.392 16.366 250.565 15.7127 250.91 15.078C251.265 14.4433 251.853 13.734 252.674 12.95C252.963 12.67 253.239 12.39 253.5 12.11C253.761 11.8207 253.976 11.5407 254.144 11.27C254.312 10.99 254.401 10.724 254.41 10.472C254.419 9.98667 254.307 9.62733 254.074 9.394C253.85 9.16067 253.528 9.044 253.108 9.044C252.707 9.044 252.408 9.18867 252.212 9.478C252.016 9.76733 251.918 10.1733 251.918 10.696H250.434C250.434 9.72533 250.681 8.96933 251.176 8.428C251.671 7.88667 252.315 7.616 253.108 7.616C253.649 7.616 254.13 7.728 254.55 7.952C254.979 8.176 255.315 8.50267 255.558 8.932C255.801 9.36133 255.913 9.88867 255.894 10.514C255.885 10.9527 255.782 11.3587 255.586 11.732C255.39 12.1053 255.129 12.4693 254.802 12.824C254.485 13.1693 254.121 13.538 253.71 13.93C253.281 14.35 252.898 14.7513 252.562 15.134C252.235 15.5167 252.044 15.848 251.988 16.128H255.726V17.5H250.392ZM260.377 17.64C259.63 17.64 259.047 17.4533 258.627 17.08C258.207 16.7067 257.908 16.1467 257.731 15.4C257.563 14.6533 257.479 13.72 257.479 12.6C257.479 11.48 257.563 10.5467 257.731 9.8C257.908 9.044 258.207 8.47933 258.627 8.106C259.047 7.73267 259.63 7.546 260.377 7.546C261.124 7.546 261.702 7.73267 262.113 8.106C262.533 8.47933 262.827 9.044 262.995 9.8C263.172 10.5467 263.261 11.48 263.261 12.6C263.261 13.72 263.172 14.6533 262.995 15.4C262.827 16.1467 262.533 16.7067 262.113 17.08C261.702 17.4533 261.124 17.64 260.377 17.64ZM260.377 16.212C260.722 16.212 260.993 16.1047 261.189 15.89C261.394 15.666 261.544 15.2927 261.637 14.77C261.73 14.2473 261.777 13.524 261.777 12.6C261.777 11.6667 261.73 10.9387 261.637 10.416C261.544 9.89333 261.394 9.52467 261.189 9.31C260.993 9.086 260.722 8.974 260.377 8.974C260.032 8.974 259.756 9.086 259.551 9.31C259.346 9.52467 259.196 9.89333 259.103 10.416C259.019 10.9387 258.977 11.6667 258.977 12.6C258.977 13.524 259.019 14.2473 259.103 14.77C259.196 15.2927 259.346 15.666 259.551 15.89C259.756 16.1047 260.032 16.212 260.377 16.212ZM274.264 18.184C273.944 18.048 273.608 17.84 273.256 17.56C272.912 17.288 272.58 16.92 272.26 16.456C271.94 15.992 271.648 15.408 271.384 14.704C271.128 13.992 270.924 13.14 270.772 12.148L268.684 12.364L268.528 10.972L270.616 10.768C270.584 10.424 270.56 10.068 270.544 9.7C270.528 9.332 270.52 8.948 270.52 8.548V7.492H271.948V8.536C271.948 8.92 271.956 9.284 271.972 9.628C271.988 9.972 272.008 10.304 272.032 10.624L275.488 10.276L275.644 11.656L272.2 12.004C272.344 12.876 272.536 13.616 272.776 14.224C273.016 14.824 273.288 15.316 273.592 15.7C273.904 16.076 274.232 16.364 274.576 16.564C274.664 16.308 274.74 16.036 274.804 15.748C274.868 15.452 274.912 15.208 274.936 15.016C275.024 15.072 275.148 15.14 275.308 15.22C275.468 15.292 275.632 15.36 275.8 15.424C275.968 15.488 276.108 15.536 276.22 15.568C276.18 15.832 276.12 16.112 276.04 16.408C275.968 16.704 275.884 16.984 275.788 17.248C275.7 17.504 275.612 17.716 275.524 17.884C275.396 18.116 275.224 18.252 275.008 18.292C274.792 18.34 274.544 18.304 274.264 18.184ZM266.812 18.376V12.256C266.604 12.528 266.392 12.788 266.176 13.036C265.968 13.284 265.76 13.5 265.552 13.684C265.432 13.54 265.276 13.388 265.084 13.228C264.9 13.06 264.716 12.924 264.532 12.82C264.772 12.62 265.024 12.356 265.288 12.028C265.56 11.7 265.828 11.336 266.092 10.936C266.364 10.536 266.612 10.132 266.836 9.724C267.068 9.308 267.268 8.916 267.436 8.548C267.604 8.172 267.72 7.852 267.784 7.588L269.104 8.044C269 8.356 268.876 8.68 268.732 9.016C268.588 9.344 268.424 9.68 268.24 10.024V18.376H266.812ZM274.252 10.192C274.028 9.912 273.76 9.624 273.448 9.328C273.144 9.032 272.864 8.8 272.608 8.632L273.508 7.696C273.692 7.808 273.896 7.964 274.12 8.164C274.352 8.356 274.572 8.552 274.78 8.752C274.988 8.952 275.148 9.124 275.26 9.268C275.164 9.332 275.048 9.424 274.912 9.544C274.776 9.656 274.648 9.772 274.528 9.892C274.408 10.012 274.316 10.112 274.252 10.192Z" fill="#111111"/>
<path d="M285.3 10.16C284.047 9.49333 283.42 8.44667 283.42 7.02C283.42 6.3 283.607 5.64667 283.98 5.06C284.353 4.46 284.92 3.98667 285.68 3.64C286.44 3.28 287.373 3.1 288.48 3.1C289.587 3.1 290.513 3.28 291.26 3.64C292.02 3.98667 292.587 4.46 292.96 5.06C293.333 5.64667 293.52 6.3 293.52 7.02C293.52 7.74 293.347 8.36667 293 8.9C292.667 9.43333 292.213 9.85333 291.64 10.16C292.36 10.5067 292.913 10.9867 293.3 11.6C293.687 12.2 293.88 12.9067 293.88 13.72C293.88 14.6667 293.64 15.4867 293.16 16.18C292.68 16.86 292.027 17.38 291.2 17.74C290.387 18.1 289.48 18.28 288.48 18.28C287.48 18.28 286.567 18.1 285.74 17.74C284.927 17.38 284.28 16.86 283.8 16.18C283.32 15.4867 283.08 14.6667 283.08 13.72C283.08 12.8933 283.273 12.18 283.66 11.58C284.047 10.9667 284.593 10.4933 285.3 10.16ZM290.2 7.54C290.2 6.99333 290.04 6.57333 289.72 6.28C289.413 5.97333 289 5.82 288.48 5.82C287.96 5.82 287.54 5.97333 287.22 6.28C286.913 6.58667 286.76 7.01333 286.76 7.56C286.76 8.08 286.92 8.49333 287.24 8.8C287.56 9.09333 287.973 9.24 288.48 9.24C288.987 9.24 289.4 9.08667 289.72 8.78C290.04 8.47333 290.2 8.06 290.2 7.54ZM288.48 11.64C287.853 11.64 287.347 11.8133 286.96 12.16C286.573 12.4933 286.38 12.96 286.38 13.56C286.38 14.12 286.567 14.58 286.94 14.94C287.327 15.3 287.84 15.48 288.48 15.48C289.12 15.48 289.62 15.3 289.98 14.94C290.353 14.58 290.54 14.12 290.54 13.56C290.54 12.9733 290.347 12.5067 289.96 12.16C289.587 11.8133 289.093 11.64 288.48 11.64ZM304.949 6.38H298.709V9.14C298.975 8.84667 299.349 8.60667 299.829 8.42C300.309 8.23333 300.829 8.14 301.389 8.14C302.389 8.14 303.215 8.36667 303.869 8.82C304.535 9.27333 305.022 9.86 305.329 10.58C305.635 11.3 305.789 12.08 305.789 12.92C305.789 14.48 305.349 15.72 304.469 16.64C303.589 17.5467 302.349 18 300.749 18C299.682 18 298.755 17.82 297.969 17.46C297.182 17.0867 296.575 16.5733 296.149 15.92C295.722 15.2667 295.489 14.5133 295.449 13.66H298.789C298.869 14.0733 299.062 14.42 299.369 14.7C299.675 14.9667 300.095 15.1 300.629 15.1C301.255 15.1 301.722 14.9 302.029 14.5C302.335 14.1 302.489 13.5667 302.489 12.9C302.489 12.2467 302.329 11.7467 302.009 11.4C301.689 11.0533 301.222 10.88 300.609 10.88C300.155 10.88 299.782 10.9933 299.489 11.22C299.195 11.4333 299.002 11.72 298.909 12.08H295.609V3.38H304.949V6.38Z" fill="#111111"/>
<path d="M308.464 16.804C308.352 16.604 308.212 16.388 308.044 16.156C307.876 15.932 307.704 15.744 307.528 15.592C308.416 15.16 309.216 14.632 309.928 14.008C310.64 13.376 311.2 12.648 311.608 11.824C312.024 11 312.232 10.092 312.232 9.1V6.16H313.72V8.692C313.72 9.492 313.852 10.24 314.116 10.936C314.38 11.632 314.74 12.268 315.196 12.844C315.652 13.42 316.168 13.928 316.744 14.368C317.32 14.8 317.924 15.156 318.556 15.436C318.404 15.604 318.236 15.82 318.052 16.084C317.876 16.348 317.736 16.58 317.632 16.78C316.952 16.428 316.312 15.996 315.712 15.484C315.112 14.972 314.584 14.4 314.128 13.768C313.68 13.136 313.324 12.472 313.06 11.776C312.828 12.496 312.48 13.172 312.016 13.804C311.552 14.428 311.016 14.996 310.408 15.508C309.8 16.012 309.152 16.444 308.464 16.804Z" fill="#111111"/>
<path d="M196 41.5L217 12.5H234.5" stroke="#00AAAA" stroke-linecap="round" stroke-linejoin="round"/>
<path d="M212 58.5L232.727 46.5H250" stroke="#00AAAA" stroke-linecap="round" stroke-linejoin="round"/>
<path d="M132.5 114.5L113.409 106.5H97.5" stroke="#00AAAA" stroke-linecap="round" stroke-linejoin="round"/>
<path d="M130 66.5L110.909 58.5H95" stroke="#00AAAA" stroke-linecap="round" stroke-linejoin="round"/>
<path d="M169 31.5L138.914 19.5H111" stroke="#00AAAA" stroke-linecap="round" stroke-linejoin="round"/>
<circle cx="3.5" cy="59" r="3.5" fill="#D9D9D9"/>
<path d="M15.654 65.64C15.2527 65.64 14.8653 65.5747 14.492 65.444C14.128 65.304 13.8013 65.066 13.512 64.73C13.2227 64.3847 12.9987 63.904 12.84 63.288C12.6813 62.6627 12.6113 61.86 12.63 60.88C12.658 59.032 12.9567 57.6833 13.526 56.834C14.0953 55.9753 14.9027 55.546 15.948 55.546C16.4427 55.546 16.914 55.6813 17.362 55.952C17.81 56.2133 18.1647 56.54 18.426 56.932L17.306 57.8C17.138 57.5293 16.942 57.3193 16.718 57.17C16.5033 57.0207 16.2467 56.946 15.948 56.946C15.3227 56.946 14.856 57.2353 14.548 57.814C14.2493 58.3927 14.0907 59.2513 14.072 60.39C14.2307 60.1567 14.4547 59.9747 14.744 59.844C15.0427 59.704 15.3413 59.634 15.64 59.634C16.1627 59.634 16.6293 59.7553 17.04 59.998C17.4507 60.2313 17.7727 60.5673 18.006 61.006C18.2487 61.4353 18.37 61.9487 18.37 62.546C18.37 63.1433 18.258 63.6753 18.034 64.142C17.81 64.6087 17.4927 64.9773 17.082 65.248C16.6807 65.5093 16.2047 65.64 15.654 65.64ZM15.556 64.212C15.9667 64.212 16.284 64.058 16.508 63.75C16.7413 63.442 16.858 63.0407 16.858 62.546C16.858 62.0793 16.7413 61.706 16.508 61.426C16.284 61.1367 15.9853 60.992 15.612 60.992C15.1827 60.992 14.8467 61.1367 14.604 61.426C14.3613 61.7153 14.2493 62.0933 14.268 62.56C14.2867 63.092 14.408 63.5027 14.632 63.792C14.856 64.072 15.164 64.212 15.556 64.212ZM23.0333 65.64C22.2866 65.64 21.7033 65.4533 21.2833 65.08C20.8633 64.7067 20.5646 64.1467 20.3873 63.4C20.2193 62.6533 20.1353 61.72 20.1353 60.6C20.1353 59.48 20.2193 58.5467 20.3873 57.8C20.5646 57.044 20.8633 56.4793 21.2833 56.106C21.7033 55.7327 22.2866 55.546 23.0333 55.546C23.78 55.546 24.3586 55.7327 24.7693 56.106C25.1893 56.4793 25.4833 57.044 25.6513 57.8C25.8286 58.5467 25.9173 59.48 25.9173 60.6C25.9173 61.72 25.8286 62.6533 25.6513 63.4C25.4833 64.1467 25.1893 64.7067 24.7693 65.08C24.3586 65.4533 23.78 65.64 23.0333 65.64ZM23.0333 64.212C23.3786 64.212 23.6493 64.1047 23.8453 63.89C24.0506 63.666 24.2 63.2927 24.2933 62.77C24.3866 62.2473 24.4333 61.524 24.4333 60.6C24.4333 59.6667 24.3866 58.9387 24.2933 58.416C24.2 57.8933 24.0506 57.5247 23.8453 57.31C23.6493 57.086 23.3786 56.974 23.0333 56.974C22.688 56.974 22.4126 57.086 22.2073 57.31C22.002 57.5247 21.8526 57.8933 21.7593 58.416C21.6753 58.9387 21.6333 59.6667 21.6333 60.6C21.6333 61.524 21.6753 62.2473 21.7593 62.77C21.8526 63.2927 22.002 63.666 22.2073 63.89C22.4126 64.1047 22.688 64.212 23.0333 64.212ZM36.9207 66.184C36.6007 66.048 36.2647 65.84 35.9127 65.56C35.5687 65.288 35.2367 64.92 34.9167 64.456C34.5967 63.992 34.3047 63.408 34.0407 62.704C33.7847 61.992 33.5807 61.14 33.4287 60.148L31.3407 60.364L31.1847 58.972L33.2727 58.768C33.2407 58.424 33.2167 58.068 33.2007 57.7C33.1847 57.332 33.1767 56.948 33.1767 56.548V55.492H34.6047V56.536C34.6047 56.92 34.6127 57.284 34.6287 57.628C34.6447 57.972 34.6647 58.304 34.6887 58.624L38.1447 58.276L38.3007 59.656L34.8567 60.004C35.0007 60.876 35.1927 61.616 35.4327 62.224C35.6727 62.824 35.9447 63.316 36.2487 63.7C36.5607 64.076 36.8887 64.364 37.2327 64.564C37.3207 64.308 37.3967 64.036 37.4607 63.748C37.5247 63.452 37.5687 63.208 37.5927 63.016C37.6807 63.072 37.8047 63.14 37.9647 63.22C38.1247 63.292 38.2887 63.36 38.4567 63.424C38.6247 63.488 38.7647 63.536 38.8767 63.568C38.8367 63.832 38.7767 64.112 38.6967 64.408C38.6247 64.704 38.5407 64.984 38.4447 65.248C38.3567 65.504 38.2687 65.716 38.1807 65.884C38.0527 66.116 37.8807 66.252 37.6647 66.292C37.4487 66.34 37.2007 66.304 36.9207 66.184ZM29.4687 66.376V60.256C29.2607 60.528 29.0487 60.788 28.8327 61.036C28.6247 61.284 28.4167 61.5 28.2087 61.684C28.0887 61.54 27.9327 61.388 27.7407 61.228C27.5567 61.06 27.3727 60.924 27.1887 60.82C27.4287 60.62 27.6807 60.356 27.9447 60.028C28.2167 59.7 28.4847 59.336 28.7487 58.936C29.0207 58.536 29.2687 58.132 29.4927 57.724C29.7247 57.308 29.9247 56.916 30.0927 56.548C30.2607 56.172 30.3767 55.852 30.4407 55.588L31.7607 56.044C31.6567 56.356 31.5327 56.68 31.3887 57.016C31.2447 57.344 31.0807 57.68 30.8967 58.024V66.376H29.4687ZM36.9087 58.192C36.6847 57.912 36.4167 57.624 36.1047 57.328C35.8007 57.032 35.5207 56.8 35.2647 56.632L36.1647 55.696C36.3487 55.808 36.5527 55.964 36.7767 56.164C37.0087 56.356 37.2287 56.552 37.4367 56.752C37.6447 56.952 37.8047 57.124 37.9167 57.268C37.8207 57.332 37.7047 57.424 37.5687 57.544C37.4327 57.656 37.3047 57.772 37.1847 57.892C37.0647 58.012 36.9727 58.112 36.9087 58.192Z" fill="#111111"/>
<path d="M45.54 54.58V51.4H51.08V66H47.52V54.58H45.54ZM52.2195 58.5C52.2195 56.2067 52.6595 54.4 53.5395 53.08C54.4329 51.76 55.8662 51.1 57.8395 51.1C59.8129 51.1 61.2395 51.76 62.1195 53.08C63.0129 54.4 63.4595 56.2067 63.4595 58.5C63.4595 60.82 63.0129 62.64 62.1195 63.96C61.2395 65.28 59.8129 65.94 57.8395 65.94C55.8662 65.94 54.4329 65.28 53.5395 63.96C52.6595 62.64 52.2195 60.82 52.2195 58.5ZM60.0995 58.5C60.0995 57.1533 59.9529 56.12 59.6595 55.4C59.3662 54.6667 58.7595 54.3 57.8395 54.3C56.9195 54.3 56.3129 54.6667 56.0195 55.4C55.7262 56.12 55.5795 57.1533 55.5795 58.5C55.5795 59.4067 55.6329 60.16 55.7395 60.76C55.8462 61.3467 56.0595 61.8267 56.3795 62.2C56.7129 62.56 57.1995 62.74 57.8395 62.74C58.4795 62.74 58.9595 62.56 59.2795 62.2C59.6129 61.8267 59.8329 61.3467 59.9395 60.76C60.0462 60.16 60.0995 59.4067 60.0995 58.5ZM63.7064 54.58V51.4H69.2464V66H65.6864V54.58H63.7064Z" fill="#111111"/>
<path d="M72.464 64.804C72.352 64.604 72.212 64.388 72.044 64.156C71.876 63.932 71.704 63.744 71.528 63.592C72.416 63.16 73.216 62.632 73.928 62.008C74.64 61.376 75.2 60.648 75.608 59.824C76.024 59 76.232 58.092 76.232 57.1V54.16H77.72V56.692C77.72 57.492 77.852 58.24 78.116 58.936C78.38 59.632 78.74 60.268 79.196 60.844C79.652 61.42 80.168 61.928 80.744 62.368C81.32 62.8 81.924 63.156 82.556 63.436C82.404 63.604 82.236 63.82 82.052 64.084C81.876 64.348 81.736 64.58 81.632 64.78C80.952 64.428 80.312 63.996 79.712 63.484C79.112 62.972 78.584 62.4 78.128 61.768C77.68 61.136 77.324 60.472 77.06 59.776C76.828 60.496 76.48 61.172 76.016 61.804C75.552 62.428 75.016 62.996 74.408 63.508C73.8 64.012 73.152 64.444 72.464 64.804Z" fill="#111111"/>
<path d="M156.972 61.548C156.868 61.34 156.736 61.128 156.576 60.912C156.416 60.688 156.256 60.508 156.096 60.372C156.616 60.156 157.136 59.884 157.656 59.556C158.184 59.22 158.684 58.852 159.156 58.452C159.636 58.044 160.064 57.62 160.44 57.18C160.824 56.732 161.136 56.288 161.376 55.848L162.708 56.028C162.964 56.436 163.284 56.84 163.668 57.24C164.052 57.64 164.476 58.02 164.94 58.38C165.404 58.74 165.888 59.068 166.392 59.364C166.896 59.652 167.396 59.892 167.892 60.084C167.82 60.18 167.728 60.312 167.616 60.48C167.512 60.64 167.408 60.804 167.304 60.972C167.2 61.14 167.116 61.292 167.052 61.428C166.724 61.268 166.388 61.088 166.044 60.888C165.7 60.68 165.36 60.46 165.024 60.228V61.188H158.952V60.312C158.624 60.552 158.292 60.78 157.956 60.996C157.62 61.204 157.292 61.388 156.972 61.548ZM158.46 66.792V62.196H165.54V66.792H158.46ZM159.936 65.52H164.04V63.48H159.936V65.52ZM159.516 59.88H164.556C164.044 59.496 163.564 59.084 163.116 58.644C162.676 58.196 162.304 57.74 162 57.276C161.728 57.708 161.372 58.148 160.932 58.596C160.5 59.044 160.028 59.472 159.516 59.88ZM176.232 66.864V60.816H174.024V59.532H176.232V55.968H177.684V59.532H180.024V60.816H177.684V66.864H176.232ZM169.548 66.66V63.156H173.568V66.66H169.548ZM169.092 59.16V58.068H173.94V59.16H169.092ZM169.668 57.48V56.352H173.424V57.48H169.668ZM169.668 62.544V61.44H173.424V62.544H169.668ZM169.668 60.852V59.748H173.424V60.852H169.668ZM170.832 65.568H172.284V64.26H170.832V65.568Z" fill="#111111"/>
<line x1="215.5" y1="84" x2="249.557" y2="84" stroke="#00AAAA" stroke-linecap="round" stroke-linejoin="round"/>
<circle cx="48.5" cy="19" r="3.5" fill="#D9D9D9"/>
<path d="M58.61 25.5C58.6847 25.0053 58.806 24.4033 58.974 23.694C59.1513 22.9847 59.352 22.238 59.576 21.454C59.8 20.6607 60.038 19.886 60.29 19.13C60.542 18.3647 60.7847 17.6833 61.018 17.086H57.14V15.7H62.67V16.75C62.4927 17.1607 62.306 17.6553 62.11 18.234C61.914 18.8127 61.7133 19.4333 61.508 20.096C61.312 20.7587 61.1253 21.4213 60.948 22.084C60.7707 22.7467 60.612 23.3767 60.472 23.974C60.3413 24.562 60.2387 25.0707 60.164 25.5H58.61ZM66.9122 25.64C66.1656 25.64 65.5822 25.4533 65.1622 25.08C64.7422 24.7067 64.4436 24.1467 64.2662 23.4C64.0982 22.6533 64.0142 21.72 64.0142 20.6C64.0142 19.48 64.0982 18.5467 64.2662 17.8C64.4436 17.044 64.7422 16.4793 65.1622 16.106C65.5822 15.7327 66.1656 15.546 66.9122 15.546C67.6589 15.546 68.2376 15.7327 68.6482 16.106C69.0682 16.4793 69.3622 17.044 69.5302 17.8C69.7076 18.5467 69.7962 19.48 69.7962 20.6C69.7962 21.72 69.7076 22.6533 69.5302 23.4C69.3622 24.1467 69.0682 24.7067 68.6482 25.08C68.2376 25.4533 67.6589 25.64 66.9122 25.64ZM66.9122 24.212C67.2576 24.212 67.5282 24.1047 67.7242 23.89C67.9296 23.666 68.0789 23.2927 68.1722 22.77C68.2656 22.2473 68.3122 21.524 68.3122 20.6C68.3122 19.6667 68.2656 18.9387 68.1722 18.416C68.0789 17.8933 67.9296 17.5247 67.7242 17.31C67.5282 17.086 67.2576 16.974 66.9122 16.974C66.5669 16.974 66.2916 17.086 66.0862 17.31C65.8809 17.5247 65.7316 17.8933 65.6382 18.416C65.5542 18.9387 65.5122 19.6667 65.5122 20.6C65.5122 21.524 65.5542 22.2473 65.6382 22.77C65.7316 23.2927 65.8809 23.666 66.0862 23.89C66.2916 24.1047 66.5669 24.212 66.9122 24.212ZM80.7996 26.184C80.4796 26.048 80.1436 25.84 79.7916 25.56C79.4476 25.288 79.1156 24.92 78.7956 24.456C78.4756 23.992 78.1836 23.408 77.9196 22.704C77.6636 21.992 77.4596 21.14 77.3076 20.148L75.2196 20.364L75.0636 18.972L77.1516 18.768C77.1196 18.424 77.0956 18.068 77.0796 17.7C77.0636 17.332 77.0556 16.948 77.0556 16.548V15.492H78.4836V16.536C78.4836 16.92 78.4916 17.284 78.5076 17.628C78.5236 17.972 78.5436 18.304 78.5676 18.624L82.0236 18.276L82.1796 19.656L78.7356 20.004C78.8796 20.876 79.0716 21.616 79.3116 22.224C79.5516 22.824 79.8236 23.316 80.1276 23.7C80.4396 24.076 80.7676 24.364 81.1116 24.564C81.1996 24.308 81.2756 24.036 81.3396 23.748C81.4036 23.452 81.4476 23.208 81.4716 23.016C81.5596 23.072 81.6836 23.14 81.8436 23.22C82.0036 23.292 82.1676 23.36 82.3356 23.424C82.5036 23.488 82.6436 23.536 82.7556 23.568C82.7156 23.832 82.6556 24.112 82.5756 24.408C82.5036 24.704 82.4196 24.984 82.3236 25.248C82.2356 25.504 82.1476 25.716 82.0596 25.884C81.9316 26.116 81.7596 26.252 81.5436 26.292C81.3276 26.34 81.0796 26.304 80.7996 26.184ZM73.3476 26.376V20.256C73.1396 20.528 72.9276 20.788 72.7116 21.036C72.5036 21.284 72.2956 21.5 72.0876 21.684C71.9676 21.54 71.8116 21.388 71.6196 21.228C71.4356 21.06 71.2516 20.924 71.0676 20.82C71.3076 20.62 71.5596 20.356 71.8236 20.028C72.0956 19.7 72.3636 19.336 72.6276 18.936C72.8996 18.536 73.1476 18.132 73.3716 17.724C73.6036 17.308 73.8036 16.916 73.9716 16.548C74.1396 16.172 74.2556 15.852 74.3196 15.588L75.6396 16.044C75.5356 16.356 75.4116 16.68 75.2676 17.016C75.1236 17.344 74.9596 17.68 74.7756 18.024V26.376H73.3476ZM80.7876 18.192C80.5636 17.912 80.2956 17.624 79.9836 17.328C79.6796 17.032 79.3996 16.8 79.1436 16.632L80.0436 15.696C80.2276 15.808 80.4316 15.964 80.6556 16.164C80.8876 16.356 81.1076 16.552 81.3156 16.752C81.5236 16.952 81.6836 17.124 81.7956 17.268C81.6996 17.332 81.5836 17.424 81.4476 17.544C81.3116 17.656 81.1836 17.772 81.0636 17.892C80.9436 18.012 80.8516 18.112 80.7876 18.192Z" fill="#111111"/>
<path d="M88.54 14.58V11.4H94.08V26H90.52V14.58H88.54Z" fill="#111111"/>
<path d="M97.464 24.804C97.352 24.604 97.212 24.388 97.044 24.156C96.876 23.932 96.704 23.744 96.528 23.592C97.416 23.16 98.216 22.632 98.928 22.008C99.64 21.376 100.2 20.648 100.608 19.824C101.024 19 101.232 18.092 101.232 17.1V14.16H102.72V16.692C102.72 17.492 102.852 18.24 103.116 18.936C103.38 19.632 103.74 20.268 104.196 20.844C104.652 21.42 105.168 21.928 105.744 22.368C106.32 22.8 106.924 23.156 107.556 23.436C107.404 23.604 107.236 23.82 107.052 24.084C106.876 24.348 106.736 24.58 106.632 24.78C105.952 24.428 105.312 23.996 104.712 23.484C104.112 22.972 103.584 22.4 103.128 21.768C102.68 21.136 102.324 20.472 102.06 19.776C101.828 20.496 101.48 21.172 101.016 21.804C100.552 22.428 100.016 22.996 99.408 23.508C98.8 24.012 98.152 24.444 97.464 24.804Z" fill="#111111"/>
</svg>
