<svg width="477" height="164" viewBox="0 0 477 164" fill="none" xmlns="http://www.w3.org/2000/svg">
<path d="M336.319 57.9801C335.653 58.3535 335.026 58.5068 334.439 58.4401C333.853 58.3601 333.333 57.9801 332.879 57.3001C332.466 56.6601 332.086 55.9068 331.739 55.0401C331.393 54.1735 331.093 53.2535 330.839 52.2801C330.599 51.3068 330.413 50.3335 330.279 49.3601C330.159 48.3868 330.106 47.4735 330.119 46.6201L332.559 46.6401C332.519 47.2935 332.539 48.0068 332.619 48.7801C332.699 49.5535 332.826 50.3335 332.999 51.1201C333.173 51.9068 333.379 52.6401 333.619 53.3201C333.859 53.9868 334.119 54.5468 334.399 55.0001C334.586 55.3201 334.786 55.5068 334.999 55.5601C335.226 55.6001 335.466 55.5401 335.719 55.3801C336.039 55.1668 336.373 54.8735 336.719 54.5001C337.079 54.1268 337.379 53.7668 337.619 53.4201C337.686 53.6201 337.793 53.8468 337.939 54.1001C338.099 54.3535 338.266 54.6001 338.439 54.8401C338.626 55.0801 338.793 55.2735 338.939 55.4201C338.579 55.9535 338.166 56.4468 337.699 56.9001C337.246 57.3535 336.786 57.7135 336.319 57.9801ZM343.879 54.2401C343.746 53.8535 343.539 53.3735 343.259 52.8001C342.979 52.2268 342.659 51.6335 342.299 51.0201C341.939 50.3935 341.579 49.8201 341.219 49.3001C340.859 48.7668 340.526 48.3535 340.219 48.0601L342.139 46.8401C342.473 47.1735 342.839 47.6201 343.239 48.1801C343.653 48.7401 344.053 49.3401 344.439 49.9801C344.839 50.6068 345.193 51.2201 345.499 51.8201C345.806 52.4068 346.026 52.9068 346.159 53.3201C345.746 53.4001 345.326 53.5268 344.899 53.7001C344.486 53.8735 344.146 54.0535 343.879 54.2401Z" fill="#111111"/>
<path d="M311.219 60.4999C311.099 60.3799 310.913 60.2333 310.659 60.0599C310.406 59.8999 310.146 59.7466 309.879 59.5999C309.613 59.4533 309.386 59.3533 309.199 59.2999C309.759 58.6999 310.299 57.9733 310.819 57.1199C311.339 56.2533 311.833 55.3133 312.299 54.2999C312.766 53.2866 313.179 52.2466 313.539 51.1799C312.859 51.2599 312.199 51.3533 311.559 51.4599C310.933 51.5666 310.413 51.6733 309.999 51.7799C309.986 51.6066 309.953 51.3733 309.899 51.0799C309.846 50.7866 309.786 50.4999 309.719 50.2199C309.653 49.9266 309.586 49.7066 309.519 49.5599C309.826 49.5333 310.226 49.4999 310.719 49.4599C311.213 49.4199 311.759 49.3733 312.359 49.3199C312.959 49.2533 313.559 49.1999 314.159 49.1599C314.399 48.3199 314.593 47.4999 314.739 46.6999C314.899 45.8866 315.006 45.1333 315.059 44.4399L317.419 44.8599C317.353 45.4733 317.246 46.1333 317.099 46.8399C316.953 47.5333 316.773 48.2466 316.559 48.9799C316.826 48.9666 317.066 48.9599 317.279 48.9599C317.493 48.9466 317.679 48.9399 317.839 48.9399C318.373 48.9399 318.846 49.0266 319.259 49.1999C319.686 49.3599 320.026 49.6533 320.279 50.0799C320.533 50.4933 320.679 51.0733 320.719 51.8199C320.759 52.5533 320.673 53.4933 320.459 54.6399C320.193 56.0799 319.886 57.2066 319.539 58.0199C319.206 58.8333 318.786 59.4066 318.279 59.7399C317.773 60.0733 317.126 60.2399 316.339 60.2399C315.966 60.2399 315.599 60.1999 315.239 60.1199C314.879 60.0533 314.546 59.9399 314.239 59.7799C314.253 59.4733 314.253 59.0933 314.239 58.6399C314.226 58.1866 314.186 57.8133 314.119 57.5199C314.786 57.8133 315.439 57.9599 316.079 57.9599C316.399 57.9599 316.673 57.8733 316.899 57.6999C317.139 57.5133 317.366 57.1533 317.579 56.6199C317.793 56.0733 318.006 55.2733 318.219 54.2199C318.419 53.2466 318.499 52.5266 318.459 52.0599C318.419 51.5799 318.293 51.2666 318.079 51.1199C317.866 50.9733 317.599 50.8999 317.279 50.8999C316.906 50.8999 316.459 50.9199 315.939 50.9599C315.526 52.1999 315.053 53.4199 314.519 54.6199C313.999 55.8199 313.453 56.9266 312.879 57.9399C312.319 58.9533 311.766 59.8066 311.219 60.4999ZM325.799 55.3199C325.586 54.9599 325.293 54.5333 324.919 54.0399C324.546 53.5466 324.139 53.0533 323.699 52.5599C323.259 52.0533 322.833 51.5933 322.419 51.1799C322.006 50.7533 321.646 50.4333 321.339 50.2199L323.099 48.7399C323.419 48.9799 323.793 49.3066 324.219 49.7199C324.646 50.1199 325.086 50.5599 325.539 51.0399C325.993 51.5199 326.413 51.9933 326.799 52.4599C327.186 52.9266 327.486 53.3333 327.699 53.6799L325.799 55.3199Z" fill="#111111"/>
<path d="M293.039 60.98V59H294.539V52.64H306.019V59H307.439V60.98H293.039ZM295.139 51.46V43.86H305.439V51.46H295.139ZM290.599 61.34L288.559 59.88C288.865 59.48 289.179 59.0067 289.499 58.46C289.819 57.9133 290.125 57.3467 290.419 56.76C290.725 56.16 290.999 55.5733 291.239 55C291.492 54.4267 291.685 53.9133 291.819 53.46C291.939 53.58 292.112 53.7333 292.339 53.92C292.565 54.1067 292.805 54.2867 293.059 54.46C293.325 54.6333 293.545 54.7733 293.719 54.88C293.572 55.3467 293.372 55.8733 293.119 56.46C292.879 57.0333 292.612 57.62 292.319 58.22C292.025 58.82 291.732 59.3933 291.439 59.94C291.145 60.4733 290.865 60.94 290.599 61.34ZM292.239 52.28C291.999 52.0667 291.665 51.8133 291.239 51.52C290.825 51.2267 290.392 50.9467 289.939 50.68C289.485 50.4 289.085 50.1867 288.739 50.04L289.919 48.12C290.505 48.4 291.139 48.74 291.819 49.14C292.512 49.5267 293.092 49.9133 293.559 50.3C293.452 50.42 293.305 50.6133 293.119 50.88C292.945 51.1333 292.772 51.3933 292.599 51.66C292.439 51.9133 292.319 52.12 292.239 52.28ZM293.019 47.6C292.792 47.3867 292.465 47.1333 292.039 46.84C291.625 46.5467 291.185 46.2667 290.719 46C290.265 45.7333 289.865 45.5267 289.519 45.38L290.719 43.5C291.079 43.6467 291.492 43.8533 291.959 44.12C292.439 44.3867 292.899 44.66 293.339 44.94C293.779 45.22 294.119 45.4667 294.359 45.68C294.252 45.8 294.105 45.9867 293.919 46.24C293.745 46.4933 293.572 46.7467 293.399 47C293.225 47.2533 293.099 47.4533 293.019 47.6ZM297.399 49.74H303.179V48.46H297.399V49.74ZM297.399 46.84H303.179V45.58H297.399V46.84ZM296.619 59H297.839V54.54H296.619V59ZM299.679 59H300.899V54.54H299.679V59ZM302.719 59H303.939V54.54H302.719V59Z" fill="#111111"/>
<path d="M272.902 61.1599C272.648 60.7332 272.308 60.2732 271.882 59.7799C271.468 59.2866 271.028 58.8199 270.562 58.3799C270.108 57.9265 269.675 57.5532 269.262 57.2599L270.782 55.8799C271.088 56.0799 271.422 56.3399 271.782 56.6599C272.142 56.9666 272.508 57.2999 272.882 57.6599C273.255 58.0066 273.595 58.3466 273.902 58.6799C274.222 59.0132 274.482 59.3065 274.682 59.5599L272.902 61.1599Z" fill="#111111"/>
<path d="M251.219 60.4999C251.099 60.3799 250.913 60.2333 250.659 60.0599C250.406 59.8999 250.146 59.7466 249.879 59.5999C249.613 59.4533 249.386 59.3533 249.199 59.2999C249.759 58.6999 250.299 57.9733 250.819 57.1199C251.339 56.2533 251.833 55.3133 252.299 54.2999C252.766 53.2866 253.179 52.2466 253.539 51.1799C252.859 51.2599 252.199 51.3533 251.559 51.4599C250.933 51.5666 250.413 51.6733 249.999 51.7799C249.986 51.6066 249.953 51.3733 249.899 51.0799C249.846 50.7866 249.786 50.4999 249.719 50.2199C249.653 49.9266 249.586 49.7066 249.519 49.5599C249.826 49.5333 250.226 49.4999 250.719 49.4599C251.213 49.4199 251.759 49.3733 252.359 49.3199C252.959 49.2533 253.559 49.1999 254.159 49.1599C254.399 48.3199 254.593 47.4999 254.739 46.6999C254.899 45.8866 255.006 45.1333 255.059 44.4399L257.419 44.8599C257.353 45.4733 257.246 46.1333 257.099 46.8399C256.953 47.5333 256.773 48.2466 256.559 48.9799C256.826 48.9666 257.066 48.9599 257.279 48.9599C257.493 48.9466 257.679 48.9399 257.839 48.9399C258.373 48.9399 258.846 49.0266 259.259 49.1999C259.686 49.3599 260.026 49.6533 260.279 50.0799C260.533 50.4933 260.679 51.0733 260.719 51.8199C260.759 52.5533 260.673 53.4933 260.459 54.6399C260.193 56.0799 259.886 57.2066 259.539 58.0199C259.206 58.8333 258.786 59.4066 258.279 59.7399C257.773 60.0733 257.126 60.2399 256.339 60.2399C255.966 60.2399 255.599 60.1999 255.239 60.1199C254.879 60.0533 254.546 59.9399 254.239 59.7799C254.253 59.4733 254.253 59.0933 254.239 58.6399C254.226 58.1866 254.186 57.8133 254.119 57.5199C254.786 57.8133 255.439 57.9599 256.079 57.9599C256.399 57.9599 256.673 57.8733 256.899 57.6999C257.139 57.5133 257.366 57.1533 257.579 56.6199C257.793 56.0733 258.006 55.2733 258.219 54.2199C258.419 53.2466 258.499 52.5266 258.459 52.0599C258.419 51.5799 258.293 51.2666 258.079 51.1199C257.866 50.9733 257.599 50.8999 257.279 50.8999C256.906 50.8999 256.459 50.9199 255.939 50.9599C255.526 52.1999 255.053 53.4199 254.519 54.6199C253.999 55.8199 253.453 56.9266 252.879 57.9399C252.319 58.9533 251.766 59.8066 251.219 60.4999ZM265.799 55.3199C265.586 54.9599 265.293 54.5333 264.919 54.0399C264.546 53.5466 264.139 53.0533 263.699 52.5599C263.259 52.0533 262.833 51.5933 262.419 51.1799C262.006 50.7533 261.646 50.4333 261.339 50.2199L263.099 48.7399C263.419 48.9799 263.793 49.3066 264.219 49.7199C264.646 50.1199 265.086 50.5599 265.539 51.0399C265.993 51.5199 266.413 51.9933 266.799 52.4599C267.186 52.9266 267.486 53.3333 267.699 53.6799L265.799 55.3199Z" fill="#111111"/>
<path d="M237.539 61.0801C237.352 60.3068 237.079 59.4268 236.719 58.4401C236.372 57.4401 235.966 56.4001 235.499 55.3201C235.032 54.2401 234.532 53.1868 233.999 52.1601C233.159 52.5468 232.392 52.9134 231.699 53.2601C231.019 53.5934 230.506 53.8534 230.159 54.0401L228.879 51.9001C229.319 51.7268 229.899 51.4934 230.619 51.2001C231.339 50.9068 232.112 50.5801 232.939 50.2201C232.526 49.5134 232.112 48.8734 231.699 48.3001C231.286 47.7134 230.879 47.2134 230.479 46.8001L232.439 45.7201C232.866 46.1868 233.292 46.7268 233.719 47.3401C234.159 47.9534 234.592 48.6134 235.019 49.3201C235.526 49.0934 236.026 48.8734 236.519 48.6601C237.012 48.4334 237.472 48.2268 237.899 48.0401C237.792 47.7334 237.646 47.4001 237.459 47.0401C237.286 46.6668 237.086 46.3068 236.859 45.9601C236.646 45.6134 236.426 45.3268 236.199 45.1001L238.199 44.1001C238.412 44.3134 238.639 44.6001 238.879 44.9601C239.119 45.3201 239.346 45.6934 239.559 46.0801C239.772 46.4534 239.939 46.7934 240.059 47.1001C240.886 46.7534 241.699 46.5801 242.499 46.5801C243.312 46.5801 244.046 46.7268 244.699 47.0201C245.352 47.3134 245.872 47.7401 246.259 48.3001C246.646 48.8601 246.839 49.5334 246.839 50.3201C246.839 51.3334 246.612 52.1601 246.159 52.8001C245.706 53.4401 245.092 53.9068 244.319 54.2001C243.559 54.4801 242.699 54.6001 241.739 54.5601C240.792 54.5201 239.819 54.3268 238.819 53.9801C238.832 53.7801 238.832 53.5268 238.819 53.2201C238.806 52.9001 238.786 52.5868 238.759 52.2801C238.732 51.9734 238.692 51.7201 238.639 51.5201C239.252 51.8001 239.892 52.0001 240.559 52.1201C241.226 52.2401 241.846 52.2601 242.419 52.1801C243.006 52.1001 243.479 51.9068 243.839 51.6001C244.199 51.2801 244.379 50.8334 244.379 50.2601C244.379 49.7668 244.212 49.3934 243.879 49.1401C243.559 48.8734 243.132 48.7401 242.599 48.7401C242.066 48.7268 241.486 48.8468 240.859 49.1001C240.286 49.3268 239.572 49.6268 238.719 50.0001C237.879 50.3601 237.006 50.7534 236.099 51.1801C236.659 52.2068 237.186 53.2534 237.679 54.3201C238.186 55.3868 238.639 56.4201 239.039 57.4201C239.439 58.4201 239.766 59.3268 240.019 60.1401C239.792 60.1801 239.519 60.2468 239.199 60.3401C238.892 60.4468 238.586 60.5601 238.279 60.6801C237.986 60.8134 237.739 60.9468 237.539 61.0801Z" fill="#111111"/>
<path d="M220.462 61.3401C219.702 61.3401 219.168 61.2334 218.862 61.0201C218.555 60.8067 218.402 60.4334 218.402 59.9001V56.2601H220.222C220.168 56.2067 220.115 56.1601 220.062 56.1201C220.008 56.0667 219.955 56.0201 219.902 55.9801L220.702 55.3001H216.322V53.6001H224.262V52.7601H216.762V51.2801H224.262V50.4601H216.262V48.7601H217.462C217.288 48.4267 217.075 48.0667 216.822 47.6801C216.568 47.2801 216.328 46.9534 216.102 46.7001L217.442 45.9401C217.282 45.9401 217.115 45.9467 216.942 45.9601C216.782 45.9601 216.628 45.9601 216.482 45.9601C216.442 45.6667 216.375 45.3334 216.282 44.9601C216.188 44.5734 216.088 44.2534 215.982 44.0001C216.715 44.0267 217.515 44.0334 218.382 44.0201C219.248 43.9934 220.122 43.9401 221.002 43.8601C221.882 43.7801 222.715 43.6801 223.502 43.5601C224.302 43.4267 224.995 43.2667 225.582 43.0801L226.602 44.7401C226.362 44.8067 226.102 44.8734 225.822 44.9401C225.542 44.9934 225.235 45.0534 224.902 45.1201L226.582 45.7401C226.395 46.1667 226.155 46.6601 225.862 47.2201C225.568 47.7667 225.275 48.2801 224.982 48.7601H226.422V55.3001H221.862C222.142 55.5534 222.422 55.8334 222.702 56.1401C222.995 56.4334 223.242 56.7001 223.442 56.9401C223.215 57.0867 222.942 57.2934 222.622 57.5601C222.315 57.8134 222.088 58.0334 221.942 58.2201C221.768 57.9667 221.548 57.6801 221.282 57.3601C221.015 57.0401 220.748 56.7534 220.482 56.5001V58.8401C220.482 59.0134 220.522 59.1334 220.602 59.2001C220.695 59.2667 220.868 59.3001 221.122 59.3001H221.982C222.262 59.3001 222.475 59.2734 222.622 59.2201C222.782 59.1667 222.902 59.0467 222.982 58.8601C223.075 58.6601 223.148 58.3467 223.202 57.9201C223.388 58.0267 223.628 58.1334 223.922 58.2401C224.228 58.3467 224.515 58.4401 224.782 58.5201C224.435 57.8934 224.088 57.3801 223.742 56.9801L225.422 56.0601C225.675 56.3534 225.955 56.7467 226.262 57.2401C226.568 57.7201 226.862 58.2067 227.142 58.7001C227.422 59.1934 227.642 59.6134 227.802 59.9601C227.548 60.0401 227.242 60.1734 226.882 60.3601C226.522 60.5467 226.228 60.7201 226.002 60.8801C225.908 60.6534 225.782 60.3734 225.622 60.0401C225.475 59.7201 225.308 59.3934 225.122 59.0601C224.975 59.7401 224.782 60.2401 224.542 60.5601C224.315 60.8934 224.028 61.1067 223.682 61.2001C223.335 61.2934 222.908 61.3401 222.402 61.3401H220.462ZM211.582 61.4801V54.6801C211.288 55.2667 210.995 55.8201 210.702 56.3401C210.422 56.8601 210.168 57.2734 209.942 57.5801C209.822 57.4334 209.655 57.2734 209.442 57.1001C209.242 56.9134 209.028 56.7467 208.802 56.6001C208.588 56.4401 208.408 56.3267 208.262 56.2601C208.648 55.8334 209.048 55.2734 209.462 54.5801C209.888 53.8867 210.282 53.1467 210.642 52.3601C211.015 51.5734 211.295 50.8334 211.482 50.1401H208.982V48.1601H211.582V46.3601C211.222 46.4267 210.862 46.4934 210.502 46.5601C210.155 46.6134 209.808 46.6601 209.462 46.7001C209.408 46.4334 209.315 46.1201 209.182 45.7601C209.048 45.3867 208.915 45.0867 208.782 44.8601C209.448 44.8067 210.148 44.7134 210.882 44.5801C211.628 44.4334 212.348 44.2534 213.042 44.0401C213.735 43.8267 214.335 43.5867 214.842 43.3201L216.002 44.9801C215.668 45.1401 215.308 45.2934 214.922 45.4401C214.535 45.5734 214.128 45.7001 213.702 45.8201V48.1601H215.782V50.1401H213.702V50.8601C213.928 51.1534 214.195 51.4801 214.502 51.8401C214.822 52.1867 215.142 52.5201 215.462 52.8401C215.782 53.1601 216.062 53.4067 216.302 53.5801C216.168 53.6734 216.002 53.8201 215.802 54.0201C215.615 54.2067 215.428 54.4001 215.242 54.6001C215.068 54.7867 214.935 54.9467 214.842 55.0801C214.668 54.9334 214.482 54.7467 214.282 54.5201C214.095 54.2934 213.902 54.0534 213.702 53.8001V61.4801H211.582ZM216.282 61.0401C216.055 60.8801 215.742 60.7001 215.342 60.5001C214.955 60.3134 214.635 60.1867 214.382 60.1201C214.622 59.8001 214.862 59.4067 215.102 58.9401C215.355 58.4734 215.588 57.9934 215.802 57.5001C216.015 56.9934 216.175 56.5467 216.282 56.1601L218.142 56.8001C218.022 57.2267 217.855 57.7134 217.642 58.2601C217.428 58.7934 217.202 59.3134 216.962 59.8201C216.722 60.3267 216.495 60.7334 216.282 61.0401ZM221.142 48.7601H222.782C222.982 48.4134 223.188 48.0267 223.402 47.6001C223.628 47.1734 223.835 46.7467 224.022 46.3201C224.222 45.8934 224.382 45.5201 224.502 45.2001C224.008 45.2801 223.482 45.3601 222.922 45.4401C222.362 45.5201 221.788 45.5934 221.202 45.6601C221.348 45.8601 221.508 46.1201 221.682 46.4401C221.868 46.7467 222.042 47.0601 222.202 47.3801C222.362 47.6867 222.482 47.9467 222.562 48.1601C222.402 48.2134 222.182 48.3001 221.902 48.4201C221.622 48.5267 221.368 48.6401 221.142 48.7601ZM218.282 48.7601H220.602C220.455 48.4134 220.262 48.0134 220.022 47.5601C219.782 47.0934 219.555 46.7134 219.342 46.4201L221.042 45.6601C220.535 45.7134 220.022 45.7667 219.502 45.8201C218.995 45.8601 218.495 45.8934 218.002 45.9201C218.175 46.1201 218.355 46.3601 218.542 46.6401C218.728 46.9201 218.902 47.1934 219.062 47.4601C219.235 47.7134 219.362 47.9334 219.442 48.1201C219.308 48.1734 219.128 48.2601 218.902 48.3801C218.688 48.5001 218.482 48.6267 218.282 48.7601Z" fill="#111111"/>
<path d="M202.74 60.7799C201.353 60.6199 200.127 60.2199 199.06 59.5799C197.993 58.9266 197.16 58.0799 196.56 57.0399C195.96 55.9866 195.66 54.7932 195.66 53.4599C195.66 52.4999 195.893 51.5265 196.36 50.5399C196.827 49.5399 197.513 48.6532 198.42 47.8799C197.353 48.0532 196.293 48.2399 195.24 48.4399C194.187 48.6265 193.227 48.8065 192.36 48.9799C191.507 49.1532 190.847 49.3066 190.38 49.4399L189.84 46.8399C190.28 46.8132 190.887 46.7532 191.66 46.6599C192.447 46.5665 193.327 46.4532 194.3 46.3199C195.287 46.1732 196.3 46.0199 197.34 45.8599C198.393 45.6865 199.407 45.5132 200.38 45.3399C201.367 45.1665 202.247 44.9999 203.02 44.8399C203.807 44.6666 204.42 44.5132 204.86 44.3799L205.5 46.8199C205.3 46.8332 205.047 46.8665 204.74 46.9199C204.447 46.9599 204.107 47.0065 203.72 47.0599C203 47.1532 202.3 47.3799 201.62 47.7399C200.953 48.0999 200.353 48.5665 199.82 49.1399C199.3 49.6999 198.887 50.3465 198.58 51.0799C198.273 51.8132 198.12 52.6065 198.12 53.4599C198.12 54.4732 198.38 55.3199 198.9 55.9999C199.42 56.6799 200.127 57.2132 201.02 57.5999C201.927 57.9732 202.94 58.2266 204.06 58.3599C203.86 58.5732 203.667 58.8332 203.48 59.1399C203.293 59.4332 203.133 59.7266 203 60.0199C202.867 60.3266 202.78 60.5799 202.74 60.7799Z" fill="#111111"/>
<path d="M180.04 61.4999C179.8 61.0066 179.474 60.4533 179.06 59.8399C178.66 59.2133 178.214 58.5733 177.72 57.9199C177.24 57.2533 176.747 56.6066 176.24 55.9799C175.734 55.3533 175.254 54.7933 174.8 54.2999C174.36 53.7933 173.98 53.3933 173.66 53.0999C173.207 52.6599 172.98 52.2733 172.98 51.9399C172.98 51.5933 173.2 51.2333 173.64 50.8599C173.974 50.5666 174.367 50.1933 174.82 49.7399C175.274 49.2866 175.747 48.7866 176.24 48.2399C176.734 47.6933 177.214 47.1333 177.68 46.5599C178.16 45.9866 178.587 45.4333 178.96 44.8999C179.347 44.3533 179.647 43.8599 179.86 43.4199L182.14 44.9599C181.847 45.3599 181.44 45.8533 180.92 46.4399C180.414 47.0266 179.867 47.6399 179.28 48.2799C178.707 48.9066 178.147 49.5066 177.6 50.0799C177.054 50.6399 176.587 51.1066 176.2 51.4799C175.894 51.7866 175.907 52.1133 176.24 52.4599C176.534 52.7533 176.894 53.1466 177.32 53.6399C177.76 54.1199 178.22 54.6599 178.7 55.2599C179.194 55.8466 179.68 56.4399 180.16 57.0399C180.64 57.6399 181.074 58.2066 181.46 58.7399C181.847 59.2599 182.154 59.6933 182.38 60.0399C182.167 60.1199 181.907 60.2466 181.6 60.4199C181.294 60.5933 180.994 60.7733 180.7 60.9599C180.42 61.1599 180.2 61.3399 180.04 61.4999Z" fill="#111111"/>
<path d="M157.402 60.6199C156.335 60.6199 155.469 60.5133 154.802 60.2999C154.149 60.0866 153.669 59.7266 153.362 59.2199C153.069 58.7133 152.922 58.0266 152.922 57.1599V43.9399L155.542 44.0999C155.515 44.3266 155.489 44.7066 155.462 45.2399C155.435 45.7733 155.415 46.3466 155.402 46.9599C155.389 47.4533 155.375 47.9933 155.362 48.5799C155.362 49.1666 155.362 49.8133 155.362 50.5199V56.6799C155.362 57.2666 155.522 57.6666 155.842 57.8799C156.175 58.0933 156.749 58.1999 157.562 58.1999C158.869 58.1999 160.102 57.9533 161.262 57.4599C162.435 56.9666 163.449 56.3533 164.302 55.6199C164.315 55.8733 164.342 56.1799 164.382 56.5399C164.435 56.8866 164.489 57.2199 164.542 57.5399C164.609 57.8466 164.662 58.0866 164.702 58.2599C163.742 58.9533 162.622 59.5199 161.342 59.9599C160.075 60.3999 158.762 60.6199 157.402 60.6199Z" fill="#111111"/>
<path d="M134.438 61.6602C134.358 61.3802 134.245 61.0668 134.098 60.7202C133.965 60.3735 133.811 60.1002 133.638 59.9002C134.425 59.8335 135.238 59.7135 136.078 59.5402C136.931 59.3535 137.745 59.1335 138.518 58.8802C138.105 58.5602 137.698 58.1802 137.298 57.7402C136.885 57.9935 136.458 58.2268 136.018 58.4402C135.591 58.6535 135.165 58.8335 134.738 58.9802C134.658 58.7802 134.525 58.5335 134.338 58.2402C134.151 57.9335 133.965 57.6868 133.778 57.5002C134.485 57.3002 135.238 56.9802 136.038 56.5402C136.838 56.0868 137.545 55.6135 138.158 55.1202C137.891 55.0668 137.698 54.9668 137.578 54.8202C137.471 54.6735 137.418 54.4602 137.418 54.1802V53.4202C137.111 53.9002 136.731 54.3802 136.278 54.8602C135.838 55.3402 135.405 55.7468 134.978 56.0802C134.898 55.9735 134.765 55.8402 134.578 55.6802C134.405 55.5068 134.225 55.3468 134.038 55.2002C133.865 55.0402 133.718 54.9335 133.598 54.8802C133.851 54.6935 134.111 54.4735 134.378 54.2202C134.658 53.9668 134.925 53.7135 135.178 53.4602H133.678V50.7802H135.738V45.7602H138.378C138.405 45.6668 138.438 45.5735 138.478 45.4802C138.518 45.3735 138.551 45.2735 138.578 45.1802H134.298V43.5802H146.598V45.1802H140.978L140.778 45.7602H144.898V50.7802H146.918V53.4602H145.818C146.045 53.6602 146.258 53.8602 146.458 54.0602C146.671 54.2602 146.865 54.4535 147.038 54.6402C146.865 54.7735 146.638 54.9735 146.358 55.2402C146.078 55.5068 145.865 55.7335 145.718 55.9202C145.478 55.5868 145.158 55.2202 144.758 54.8202C144.358 54.4068 143.958 54.0335 143.558 53.7002C143.425 54.3002 143.191 54.6935 142.858 54.8802C142.525 55.0668 142.051 55.1602 141.438 55.1602H140.558C140.465 55.2535 140.371 55.3535 140.278 55.4602C140.185 55.5535 140.085 55.6535 139.978 55.7602H144.238L144.778 56.5002C144.111 57.4335 143.298 58.2335 142.338 58.9002C143.045 59.1268 143.798 59.3068 144.598 59.4402C145.411 59.5735 146.265 59.6602 147.158 59.7002C146.985 59.9135 146.825 60.2068 146.678 60.5802C146.531 60.9668 146.425 61.2868 146.358 61.5402C145.278 61.4468 144.231 61.2802 143.218 61.0402C142.205 60.8002 141.258 60.4668 140.378 60.0402C139.511 60.4402 138.578 60.7735 137.578 61.0402C136.591 61.3068 135.545 61.5135 134.438 61.6602ZM130.818 61.5002V50.8002C130.645 51.0935 130.465 51.3802 130.278 51.6602C130.091 51.9402 129.905 52.2002 129.718 52.4402C129.625 52.2935 129.478 52.1268 129.278 51.9402C129.078 51.7402 128.865 51.5468 128.638 51.3602C128.425 51.1735 128.238 51.0335 128.078 50.9402C128.478 50.4602 128.871 49.8868 129.258 49.2202C129.645 48.5535 130.005 47.8602 130.338 47.1402C130.685 46.4068 130.978 45.6935 131.218 45.0002C131.458 44.3068 131.631 43.6935 131.738 43.1602L133.938 43.6402C133.711 44.5068 133.398 45.4402 132.998 46.4402V61.5002H130.818ZM139.758 53.7002H140.938C141.298 53.7002 141.545 53.6402 141.678 53.5202C141.811 53.4002 141.905 53.1268 141.958 52.7002C142.105 52.7668 142.305 52.8402 142.558 52.9202C142.825 53.0002 143.065 53.0735 143.278 53.1402L144.258 52.1802C144.351 52.2335 144.438 52.2935 144.518 52.3602C144.598 52.4268 144.685 52.4935 144.778 52.5602V52.0602H141.338C141.418 52.1535 141.498 52.2535 141.578 52.3602C141.658 52.4535 141.725 52.5468 141.778 52.6402C141.591 52.7468 141.358 52.8935 141.078 53.0802C140.811 53.2668 140.598 53.4202 140.438 53.5402C140.305 53.3002 140.131 53.0402 139.918 52.7602C139.718 52.4802 139.505 52.2468 139.278 52.0602H135.838V52.6402C135.945 52.5202 136.025 52.4002 136.078 52.2802L137.418 53.2002V52.3602H139.238V53.3402C139.238 53.4735 139.271 53.5668 139.338 53.6202C139.405 53.6735 139.545 53.7002 139.758 53.7002ZM137.938 49.1802H142.738V48.6002H137.938V49.1802ZM137.938 47.5402H142.738V46.9802H137.938V47.5402ZM137.938 50.7802H142.738V50.2602H137.938V50.7802ZM140.418 58.0802C140.698 57.9335 140.965 57.7802 141.218 57.6202C141.471 57.4602 141.705 57.2935 141.918 57.1202H139.078C139.278 57.2935 139.491 57.4602 139.718 57.6202C139.945 57.7802 140.178 57.9335 140.418 58.0802Z" fill="#111111"/>
<path d="M429.932 67.9999L439.556 40.2079H425.66V34.5439H447.596L436.796 67.9999H429.932Z" fill="#00B6B6"/>
<path d="M409.228 68.6239C407.772 68.6239 406.22 68.4559 404.572 68.1199C402.94 67.7999 401.532 67.2479 400.348 66.4639L402.124 61.0879C402.828 61.7279 403.772 62.2719 404.956 62.7199C406.14 63.1679 407.292 63.3919 408.412 63.3919C409.18 63.3919 409.996 63.3359 410.86 63.2239C411.74 63.0959 412.564 62.8319 413.332 62.4319C414.1 62.0159 414.724 61.3919 415.204 60.5599C415.7 59.7119 415.948 58.5759 415.948 57.1519C415.948 55.2479 415.316 53.7359 414.052 52.6159C412.788 51.4799 410.988 50.9119 408.652 50.9119C407.756 50.9119 406.844 50.9999 405.916 51.1759C405.004 51.3359 404.18 51.5359 403.444 51.7759C402.708 52.0159 402.172 52.2399 401.836 52.4479L402.46 34.5439H420.988V39.6319H407.932L407.452 46.7839C408.204 46.5599 408.94 46.4079 409.66 46.3279C410.396 46.2479 411.196 46.2079 412.06 46.2079C415.452 46.2079 418.028 47.1439 419.788 49.0159C421.548 50.8719 422.428 53.3759 422.428 56.5279C422.428 59.0239 421.868 61.1759 420.748 62.9839C419.644 64.7919 418.1 66.1839 416.116 67.1599C414.132 68.1359 411.836 68.6239 409.228 68.6239Z" fill="#00B6B6"/>
<path d="M458.735 60.2479C457.359 60.2479 456.343 59.8359 455.687 59.0119C455.031 58.1799 454.703 57.0799 454.703 55.7119C454.703 54.1039 455.067 52.9399 455.795 52.2199C456.523 51.4919 457.503 51.1279 458.735 51.1279C459.959 51.1279 460.923 51.4919 461.627 52.2199C462.339 52.9399 462.695 54.1119 462.695 55.7359C462.695 56.6239 462.567 57.4079 462.311 58.0879C462.063 58.7599 461.647 59.2879 461.063 59.6719C460.487 60.0559 459.711 60.2479 458.735 60.2479ZM458.711 67.9999L467.879 51.2719H470.231L461.063 67.9999H458.711ZM458.711 58.4479C459.111 58.4479 459.407 58.3239 459.599 58.0759C459.791 57.8279 459.915 57.5039 459.971 57.1039C460.027 56.6959 460.055 56.2559 460.055 55.7839C460.055 54.8319 459.959 54.1239 459.767 53.6599C459.583 53.1879 459.215 52.9519 458.663 52.9519C458.135 52.9519 457.771 53.1839 457.571 53.6479C457.371 54.1119 457.271 54.7999 457.271 55.7119C457.271 56.4639 457.359 57.1079 457.535 57.6439C457.711 58.1799 458.103 58.4479 458.711 58.4479ZM470.327 68.3599C468.935 68.3599 467.915 67.9439 467.267 67.1119C466.619 66.2719 466.295 65.1679 466.295 63.7999C466.295 62.1999 466.655 61.0359 467.375 60.3079C468.095 59.5799 469.071 59.2159 470.303 59.2159C471.527 59.2159 472.495 59.5839 473.207 60.3199C473.927 61.0479 474.287 62.2239 474.287 63.8479C474.287 64.7279 474.159 65.5079 473.903 66.1879C473.647 66.8679 473.227 67.3999 472.643 67.7839C472.067 68.1679 471.295 68.3599 470.327 68.3599ZM470.255 66.5119C470.671 66.5119 470.975 66.3919 471.167 66.1519C471.359 65.9119 471.483 65.5919 471.539 65.1919C471.595 64.7919 471.623 64.3519 471.623 63.8719C471.623 62.9199 471.531 62.2119 471.347 61.7479C471.163 61.2759 470.799 61.0399 470.255 61.0399C469.703 61.0399 469.331 61.2719 469.139 61.7359C468.955 62.1999 468.863 62.8959 468.863 63.8239C468.863 64.5679 468.943 65.2039 469.103 65.7319C469.271 66.2519 469.655 66.5119 470.255 66.5119Z" fill="#00B6B6"/>
<path d="M369.84 121.7C369.853 121.514 369.86 121.26 369.86 120.94C369.86 120.62 369.86 120.3 369.86 119.98C369.86 119.66 369.853 119.407 369.84 119.22C370.093 119.234 370.54 119.247 371.18 119.26C371.833 119.274 372.607 119.287 373.5 119.3C374.407 119.314 375.373 119.327 376.4 119.34C377.427 119.34 378.453 119.34 379.48 119.34C380.507 119.34 381.473 119.334 382.38 119.32C383.3 119.307 384.093 119.294 384.76 119.28C385.427 119.267 385.9 119.247 386.18 119.22C386.167 119.394 386.153 119.64 386.14 119.96C386.14 120.28 386.14 120.607 386.14 120.94C386.153 121.26 386.16 121.507 386.16 121.68C385.827 121.667 385.333 121.654 384.68 121.64C384.04 121.627 383.287 121.614 382.42 121.6C381.567 121.587 380.653 121.58 379.68 121.58C378.72 121.58 377.747 121.58 376.76 121.58C375.773 121.58 374.833 121.587 373.94 121.6C373.047 121.614 372.24 121.627 371.52 121.64C370.813 121.654 370.253 121.674 369.84 121.7Z" fill="#111111"/>
<path d="M355.418 128.94C355.325 128.753 355.185 128.533 354.998 128.28C354.825 128.027 354.631 127.773 354.418 127.52C354.205 127.267 354.005 127.06 353.818 126.9C355.191 126.327 356.325 125.64 357.218 124.84C358.111 124.04 358.778 123.067 359.218 121.92C359.658 120.76 359.878 119.38 359.878 117.78V116.86C359.878 116.567 359.871 116.187 359.858 115.72C359.858 115.253 359.851 114.773 359.838 114.28C359.838 113.787 359.831 113.34 359.818 112.94C359.818 112.54 359.811 112.253 359.798 112.08H362.378V117.78C362.378 119.647 362.131 121.273 361.638 122.66C361.145 124.033 360.385 125.233 359.358 126.26C358.331 127.273 357.018 128.167 355.418 128.94ZM353.758 122.02C353.771 121.9 353.771 121.607 353.758 121.14C353.758 120.66 353.751 120.08 353.738 119.4C353.738 118.72 353.731 118.007 353.718 117.26C353.705 116.513 353.685 115.8 353.658 115.12C353.645 114.44 353.631 113.867 353.618 113.4C353.605 112.92 353.591 112.62 353.578 112.5H356.058C356.058 112.647 356.058 112.953 356.058 113.42C356.058 113.887 356.058 114.453 356.058 115.12C356.071 115.773 356.085 116.46 356.098 117.18C356.111 117.9 356.125 118.6 356.138 119.28C356.165 119.947 356.185 120.527 356.198 121.02C356.225 121.5 356.245 121.827 356.258 122L353.758 122.02Z" fill="#111111"/>
<path d="M335.719 128.62V112.5H338.159V118.56L339.059 117.28C339.379 117.52 339.799 117.807 340.319 118.14C340.852 118.473 341.419 118.82 342.019 119.18C342.619 119.527 343.199 119.847 343.759 120.14C344.319 120.433 344.792 120.653 345.179 120.8C345.019 120.947 344.832 121.16 344.619 121.44C344.419 121.707 344.225 121.987 344.039 122.28C343.865 122.56 343.732 122.8 343.639 123C343.319 122.84 342.919 122.62 342.439 122.34C341.972 122.06 341.472 121.76 340.939 121.44C340.419 121.107 339.912 120.773 339.419 120.44C338.939 120.107 338.519 119.807 338.159 119.54V128.62H335.719ZM345.319 115.4C345.065 114.973 344.732 114.527 344.319 114.06C343.919 113.58 343.552 113.193 343.219 112.9L344.339 112.04C344.525 112.2 344.759 112.44 345.039 112.76C345.319 113.067 345.592 113.38 345.859 113.7C346.125 114.02 346.332 114.293 346.479 114.52L345.319 115.4ZM343.479 116.86C343.225 116.433 342.899 115.98 342.499 115.5C342.099 115.02 341.732 114.633 341.399 114.34L342.519 113.48C342.705 113.653 342.939 113.9 343.219 114.22C343.499 114.527 343.765 114.84 344.019 115.16C344.285 115.48 344.492 115.753 344.639 115.98L343.479 116.86Z" fill="#111111"/>
<path d="M312.559 127.44L311.199 124.98C312.146 124.78 313.139 124.453 314.179 124C315.232 123.533 316.286 122.993 317.339 122.38C318.392 121.753 319.392 121.087 320.339 120.38C321.286 119.66 322.139 118.933 322.899 118.2C323.672 117.467 324.299 116.767 324.779 116.1C324.832 116.327 324.919 116.607 325.039 116.94C325.172 117.273 325.312 117.6 325.459 117.92C325.606 118.227 325.732 118.467 325.839 118.64C325.186 119.48 324.366 120.333 323.379 121.2C322.406 122.053 321.326 122.88 320.139 123.68C318.952 124.467 317.712 125.187 316.419 125.84C315.126 126.493 313.839 127.027 312.559 127.44ZM314.699 118.62C314.526 118.433 314.279 118.213 313.959 117.96C313.652 117.707 313.306 117.44 312.919 117.16C312.546 116.88 312.179 116.627 311.819 116.4C311.459 116.16 311.146 115.98 310.879 115.86L312.479 113.84C312.746 113.987 313.059 114.173 313.419 114.4C313.779 114.627 314.146 114.873 314.519 115.14C314.906 115.407 315.266 115.673 315.599 115.94C315.932 116.193 316.199 116.42 316.399 116.62L314.699 118.62Z" fill="#111111"/>
<path d="M293.359 126.82L292.059 125.82C292.072 125.66 292.085 125.36 292.099 124.92C292.112 124.48 292.119 123.953 292.119 123.34C292.132 122.727 292.139 122.067 292.139 121.36C292.139 120.64 292.139 119.933 292.139 119.24C292.139 118.467 292.132 117.74 292.119 117.06C292.119 116.367 292.112 115.767 292.099 115.26C292.085 114.74 292.072 114.367 292.059 114.14H294.619C294.592 114.38 294.572 114.767 294.559 115.3C294.545 115.833 294.532 116.433 294.519 117.1C294.519 117.767 294.519 118.44 294.519 119.12V123.68C295.439 123.333 296.419 122.92 297.459 122.44C298.499 121.947 299.519 121.42 300.519 120.86C301.532 120.287 302.459 119.713 303.299 119.14C304.139 118.567 304.825 118.02 305.359 117.5C305.372 117.727 305.405 118.033 305.459 118.42C305.512 118.793 305.572 119.16 305.639 119.52C305.719 119.88 305.785 120.153 305.839 120.34C305.305 120.78 304.659 121.247 303.899 121.74C303.152 122.22 302.332 122.707 301.439 123.2C300.545 123.693 299.625 124.173 298.679 124.64C297.745 125.093 296.819 125.507 295.899 125.88C294.992 126.253 294.145 126.567 293.359 126.82Z" fill="#111111"/>
<path d="M273.439 127.94C273.359 127.767 273.233 127.54 273.059 127.26C272.886 126.98 272.693 126.7 272.479 126.42C272.279 126.14 272.086 125.92 271.899 125.76C274.433 124.92 276.526 123.767 278.179 122.3C279.846 120.834 281.046 118.954 281.779 116.66C281.153 116.674 280.439 116.694 279.639 116.72C278.839 116.747 278.019 116.774 277.179 116.8C276.353 116.827 275.553 116.854 274.779 116.88C274.019 116.907 273.353 116.934 272.779 116.96C272.206 116.987 271.786 117.007 271.519 117.02L271.359 114.32C271.746 114.347 272.253 114.367 272.879 114.38C273.506 114.394 274.199 114.4 274.959 114.4C275.733 114.4 276.519 114.4 277.319 114.4C278.133 114.387 278.919 114.374 279.679 114.36C280.439 114.334 281.126 114.307 281.739 114.28C282.353 114.254 282.839 114.227 283.199 114.2L284.819 115.04C284.366 117.174 283.619 119.087 282.579 120.78C281.539 122.46 280.246 123.907 278.699 125.12C277.153 126.32 275.399 127.26 273.439 127.94Z" fill="#111111"/>
<path d="M252.902 129.16C252.648 128.733 252.308 128.273 251.882 127.78C251.468 127.287 251.028 126.82 250.562 126.38C250.108 125.927 249.675 125.553 249.262 125.26L250.782 123.88C251.088 124.08 251.422 124.34 251.782 124.66C252.142 124.967 252.508 125.3 252.882 125.66C253.255 126.007 253.595 126.347 253.902 126.68C254.222 127.013 254.482 127.307 254.682 127.56L252.902 129.16Z" fill="#111111"/>
<path d="M240.04 129.5C239.8 129.007 239.474 128.453 239.06 127.84C238.66 127.213 238.214 126.573 237.72 125.92C237.24 125.253 236.747 124.607 236.24 123.98C235.734 123.353 235.254 122.793 234.8 122.3C234.36 121.793 233.98 121.393 233.66 121.1C233.207 120.66 232.98 120.273 232.98 119.94C232.98 119.593 233.2 119.233 233.64 118.86C233.974 118.567 234.367 118.193 234.82 117.74C235.274 117.287 235.747 116.787 236.24 116.24C236.734 115.693 237.214 115.133 237.68 114.56C238.16 113.987 238.587 113.433 238.96 112.9C239.347 112.353 239.647 111.86 239.86 111.42L242.14 112.96C241.847 113.36 241.44 113.853 240.92 114.44C240.414 115.027 239.867 115.64 239.28 116.28C238.707 116.907 238.147 117.507 237.6 118.08C237.054 118.64 236.587 119.107 236.2 119.48C235.894 119.787 235.907 120.113 236.24 120.46C236.534 120.753 236.894 121.147 237.32 121.64C237.76 122.12 238.22 122.66 238.7 123.26C239.194 123.847 239.68 124.44 240.16 125.04C240.64 125.64 241.074 126.207 241.46 126.74C241.847 127.26 242.154 127.693 242.38 128.04C242.167 128.12 241.907 128.247 241.6 128.42C241.294 128.593 240.994 128.773 240.7 128.96C240.42 129.16 240.2 129.34 240.04 129.5Z" fill="#111111"/>
<path d="M221.058 129C219.925 129.053 218.838 129.013 217.798 128.88C216.758 128.746 215.832 128.493 215.018 128.12C214.205 127.746 213.558 127.246 213.078 126.62C212.612 125.98 212.378 125.193 212.378 124.26C212.378 123.353 212.678 122.593 213.278 121.98C213.878 121.353 214.685 120.906 215.698 120.64C216.712 120.36 217.832 120.293 219.058 120.44C218.725 119.973 218.412 119.493 218.118 119C217.825 118.493 217.558 117.973 217.318 117.44C216.038 117.533 214.798 117.613 213.598 117.68C212.398 117.733 211.378 117.753 210.538 117.74L210.238 115.4C210.972 115.466 211.898 115.493 213.018 115.48C214.152 115.466 215.332 115.42 216.558 115.34C216.212 114.113 216.038 112.926 216.038 111.78H218.438C218.425 112.34 218.458 112.906 218.538 113.48C218.618 114.04 218.732 114.593 218.878 115.14C220.158 115.02 221.352 114.873 222.458 114.7C223.578 114.526 224.458 114.333 225.098 114.12L225.438 116.42C224.812 116.553 223.985 116.693 222.958 116.84C221.945 116.973 220.845 117.1 219.658 117.22C220.072 118.073 220.578 118.886 221.178 119.66C221.792 120.42 222.498 121.093 223.298 121.68L221.858 123.32C221.285 122.986 220.678 122.733 220.038 122.56C219.398 122.386 218.765 122.3 218.138 122.3C217.525 122.286 216.965 122.353 216.458 122.5C215.952 122.646 215.545 122.866 215.238 123.16C214.945 123.453 214.798 123.82 214.798 124.26C214.798 124.913 215.118 125.42 215.758 125.78C216.412 126.126 217.285 126.36 218.378 126.48C219.485 126.586 220.705 126.6 222.038 126.52C221.892 126.72 221.745 126.98 221.598 127.3C221.465 127.606 221.345 127.913 221.238 128.22C221.145 128.526 221.085 128.786 221.058 129Z" fill="#111111"/>
<path d="M190.52 129.68C190.4 129.413 190.206 129.067 189.94 128.64C189.686 128.227 189.426 127.893 189.16 127.64C190.12 127.373 191.053 127.007 191.96 126.54C192.88 126.073 193.733 125.547 194.52 124.96C193.986 124.533 193.453 124.14 192.92 123.78C192.4 123.42 191.906 123.14 191.44 122.94L192.88 121.34C193.426 121.593 193.98 121.907 194.54 122.28C195.113 122.653 195.686 123.053 196.26 123.48C197.126 122.6 197.806 121.7 198.3 120.78H190.36V118.82H204.2C204.16 119.167 204.126 119.6 204.1 120.12C204.073 120.627 204.06 121.18 204.06 121.78C204.06 122.847 204.146 123.78 204.32 124.58C204.506 125.38 204.76 126.053 205.08 126.6C205.266 126.2 205.433 125.813 205.58 125.44C205.74 125.067 205.846 124.793 205.9 124.62C206.02 124.713 206.186 124.82 206.4 124.94C206.626 125.06 206.866 125.18 207.12 125.3C207.386 125.407 207.62 125.487 207.82 125.54C207.753 125.753 207.653 126.027 207.52 126.36C207.386 126.68 207.24 127.02 207.08 127.38C206.933 127.727 206.786 128.047 206.64 128.34C206.493 128.633 206.36 128.86 206.24 129.02C206.013 129.353 205.733 129.553 205.4 129.62C205.08 129.687 204.78 129.64 204.5 129.48C203.953 129.16 203.473 128.62 203.06 127.86C202.66 127.087 202.346 126.153 202.12 125.06C201.906 123.953 201.8 122.74 201.8 121.42V120.78H198.4L200.36 121.88C199.72 122.933 198.933 123.94 198 124.9C198.506 125.353 198.98 125.807 199.42 126.26C199.873 126.713 200.28 127.153 200.64 127.58C200.333 127.82 200.013 128.093 199.68 128.4C199.346 128.72 199.06 129.013 198.82 129.28C198.526 128.893 198.16 128.453 197.72 127.96C197.28 127.467 196.793 126.973 196.26 126.48C195.393 127.173 194.473 127.793 193.5 128.34C192.526 128.887 191.533 129.333 190.52 129.68ZM190.4 118.64C190.146 118.4 189.866 118.16 189.56 117.92C189.253 117.667 188.906 117.447 188.52 117.26C189.12 116.727 189.686 116.12 190.22 115.44C190.753 114.747 191.22 114.02 191.62 113.26C192.02 112.487 192.313 111.74 192.5 111.02L194.72 111.62C194.666 111.82 194.6 112.027 194.52 112.24C194.44 112.44 194.353 112.647 194.26 112.86H205.96V114.72H193.36C192.946 115.453 192.486 116.167 191.98 116.86C191.473 117.54 190.946 118.133 190.4 118.64ZM193.9 117.6V115.78H203.96V117.6H193.9Z" fill="#111111"/>
<path d="M180.04 129.5C179.8 129.007 179.474 128.453 179.06 127.84C178.66 127.213 178.214 126.573 177.72 125.92C177.24 125.253 176.747 124.607 176.24 123.98C175.734 123.353 175.254 122.793 174.8 122.3C174.36 121.793 173.98 121.393 173.66 121.1C173.207 120.66 172.98 120.273 172.98 119.94C172.98 119.593 173.2 119.233 173.64 118.86C173.974 118.567 174.367 118.193 174.82 117.74C175.274 117.287 175.747 116.787 176.24 116.24C176.734 115.693 177.214 115.133 177.68 114.56C178.16 113.987 178.587 113.433 178.96 112.9C179.347 112.353 179.647 111.86 179.86 111.42L182.14 112.96C181.847 113.36 181.44 113.853 180.92 114.44C180.414 115.027 179.867 115.64 179.28 116.28C178.707 116.907 178.147 117.507 177.6 118.08C177.054 118.64 176.587 119.107 176.2 119.48C175.894 119.787 175.907 120.113 176.24 120.46C176.534 120.753 176.894 121.147 177.32 121.64C177.76 122.12 178.22 122.66 178.7 123.26C179.194 123.847 179.68 124.44 180.16 125.04C180.64 125.64 181.074 126.207 181.46 126.74C181.847 127.26 182.154 127.693 182.38 128.04C182.167 128.12 181.907 128.247 181.6 128.42C181.294 128.593 180.994 128.773 180.7 128.96C180.42 129.16 180.2 129.34 180.04 129.5Z" fill="#111111"/>
<path d="M158.539 128.64C156.939 128.64 155.759 128.34 154.999 127.74C154.239 127.127 153.859 126.38 153.859 125.5C153.859 124.927 153.999 124.44 154.279 124.04C154.559 123.64 154.926 123.333 155.379 123.12C155.832 122.893 156.319 122.78 156.839 122.78C157.826 122.78 158.619 123.087 159.219 123.7C159.832 124.313 160.226 125.073 160.399 125.98C160.892 125.753 161.292 125.407 161.599 124.94C161.919 124.473 162.079 123.913 162.079 123.26C162.079 122.7 161.946 122.2 161.679 121.76C161.412 121.32 161.032 120.973 160.539 120.72C160.059 120.453 159.499 120.32 158.859 120.32C157.966 120.32 157.186 120.427 156.519 120.64C155.866 120.853 155.272 121.193 154.739 121.66C154.499 121.873 154.179 122.147 153.779 122.48C153.392 122.813 153.026 123.113 152.679 123.38L151.039 121.62C151.639 121.273 152.279 120.833 152.959 120.3C153.639 119.767 154.326 119.173 155.019 118.52C155.712 117.867 156.372 117.193 156.999 116.5C157.626 115.793 158.186 115.1 158.679 114.42C158.106 114.553 157.479 114.68 156.799 114.8C156.132 114.92 155.486 115.02 154.859 115.1C154.246 115.18 153.726 115.233 153.299 115.26L152.859 112.98C153.219 113.007 153.666 113.007 154.199 112.98C154.746 112.94 155.332 112.893 155.959 112.84C156.586 112.773 157.192 112.693 157.779 112.6C158.379 112.507 158.912 112.413 159.379 112.32C159.859 112.213 160.212 112.107 160.439 112L162.239 113.2C161.786 114.093 161.159 115.033 160.359 116.02C159.572 116.993 158.726 117.933 157.819 118.84C158.046 118.733 158.299 118.653 158.579 118.6C158.859 118.533 159.132 118.5 159.399 118.5C160.452 118.5 161.366 118.7 162.139 119.1C162.912 119.5 163.512 120.06 163.939 120.78C164.379 121.487 164.599 122.313 164.599 123.26C164.599 124.26 164.346 125.167 163.839 125.98C163.346 126.793 162.646 127.44 161.739 127.92C160.832 128.4 159.766 128.64 158.539 128.64ZM158.279 126.44C158.212 125.933 158.052 125.527 157.799 125.22C157.559 124.913 157.239 124.76 156.839 124.76C156.626 124.76 156.446 124.813 156.299 124.92C156.152 125.027 156.079 125.187 156.079 125.4C156.079 125.68 156.226 125.913 156.519 126.1C156.826 126.287 157.332 126.393 158.039 126.42C158.079 126.433 158.119 126.44 158.159 126.44C158.199 126.44 158.239 126.44 158.279 126.44Z" fill="#111111"/>
<path d="M134.282 129.54C134.148 129.233 133.935 128.893 133.642 128.52C133.348 128.147 133.062 127.847 132.782 127.62C134.008 127.207 135.015 126.687 135.802 126.06C136.588 125.433 137.175 124.627 137.562 123.64C137.948 122.64 138.142 121.387 138.142 119.88V111.88H146.302V127.3C146.302 128.033 146.088 128.567 145.662 128.9C145.235 129.247 144.588 129.42 143.722 129.42H142.182C142.168 129.193 142.128 128.927 142.062 128.62C142.008 128.313 141.942 128.013 141.862 127.72C141.795 127.427 141.722 127.193 141.642 127.02H143.202C143.482 127.02 143.682 126.973 143.802 126.88C143.922 126.787 143.982 126.607 143.982 126.34V122.32H140.262C139.968 124.213 139.322 125.72 138.322 126.84C137.322 127.947 135.975 128.847 134.282 129.54ZM129.262 124.08V112.32H136.542V124.08H129.262ZM140.442 120.34H143.982V118.16H140.442V120.34ZM140.442 116.18H143.982V114.06H140.442V116.18ZM131.582 121.92H134.282V119.16H131.582V121.92ZM131.582 117.14H134.282V114.42H131.582V117.14Z" fill="#111111"/>
<path d="M438.692 136.72C436.868 136.72 435.108 136.496 433.412 136.048C431.716 135.6 430.196 134.896 428.852 133.936L430.868 128.464C431.78 129.344 432.892 130.032 434.204 130.528C435.516 131.008 436.804 131.248 438.068 131.248C440.228 131.248 441.812 130.736 442.82 129.712C443.844 128.688 444.356 127.408 444.356 125.872C444.356 124.576 444.036 123.592 443.396 122.92C442.772 122.232 441.948 121.76 440.924 121.504C439.9 121.248 438.804 121.12 437.636 121.12H435.092V116.368H437.684C439.652 116.368 441.108 115.888 442.052 114.928C443.012 113.952 443.492 112.736 443.492 111.28C443.492 109.696 443.02 108.624 442.076 108.064C441.132 107.488 439.796 107.2 438.068 107.2C437.444 107.2 436.692 107.312 435.812 107.536C434.948 107.76 434.084 108.088 433.22 108.52C432.356 108.952 431.636 109.488 431.06 110.128L428.66 105.04C429.652 104.176 431.052 103.408 432.86 102.736C434.684 102.064 436.852 101.728 439.364 101.728C442.676 101.728 445.308 102.48 447.26 103.984C449.228 105.472 450.212 107.584 450.212 110.32C450.212 111.536 449.996 112.728 449.564 113.896C449.132 115.064 448.5 116.088 447.668 116.968C446.836 117.832 445.828 118.416 444.644 118.72C446.004 118.72 447.164 119.096 448.124 119.848C449.1 120.6 449.844 121.576 450.356 122.776C450.868 123.976 451.124 125.248 451.124 126.592C451.124 128.704 450.564 130.52 449.444 132.04C448.324 133.544 446.82 134.704 444.932 135.52C443.06 136.32 440.98 136.72 438.692 136.72Z" fill="#00B6B6"/>
<path d="M399.594 129.424L411.93 102.544H422.058V125.296H426.09V129.952H422.058V136H415.77V129.952H399.93L399.594 129.424ZM408.138 125.296H416.058L416.274 105.976L410.874 119.344L408.138 125.296Z" fill="#00B6B6"/>
<path d="M460.735 128.248C459.359 128.248 458.343 127.836 457.687 127.012C457.031 126.18 456.703 125.08 456.703 123.712C456.703 122.104 457.067 120.94 457.795 120.22C458.523 119.492 459.503 119.128 460.735 119.128C461.959 119.128 462.923 119.492 463.627 120.22C464.339 120.94 464.695 122.112 464.695 123.736C464.695 124.624 464.567 125.408 464.311 126.088C464.063 126.76 463.647 127.288 463.063 127.672C462.487 128.056 461.711 128.248 460.735 128.248ZM460.711 136L469.879 119.272H472.231L463.063 136H460.711ZM460.711 126.448C461.111 126.448 461.407 126.324 461.599 126.076C461.791 125.828 461.915 125.504 461.971 125.104C462.027 124.696 462.055 124.256 462.055 123.784C462.055 122.832 461.959 122.124 461.767 121.66C461.583 121.188 461.215 120.952 460.663 120.952C460.135 120.952 459.771 121.184 459.571 121.648C459.371 122.112 459.271 122.8 459.271 123.712C459.271 124.464 459.359 125.108 459.535 125.644C459.711 126.18 460.103 126.448 460.711 126.448ZM472.327 136.36C470.935 136.36 469.915 135.944 469.267 135.112C468.619 134.272 468.295 133.168 468.295 131.8C468.295 130.2 468.655 129.036 469.375 128.308C470.095 127.58 471.071 127.216 472.303 127.216C473.527 127.216 474.495 127.584 475.207 128.32C475.927 129.048 476.287 130.224 476.287 131.848C476.287 132.728 476.159 133.508 475.903 134.188C475.647 134.868 475.227 135.4 474.643 135.784C474.067 136.168 473.295 136.36 472.327 136.36ZM472.255 134.512C472.671 134.512 472.975 134.392 473.167 134.152C473.359 133.912 473.483 133.592 473.539 133.192C473.595 132.792 473.623 132.352 473.623 131.872C473.623 130.92 473.531 130.212 473.347 129.748C473.163 129.276 472.799 129.04 472.255 129.04C471.703 129.04 471.331 129.272 471.139 129.736C470.955 130.2 470.863 130.896 470.863 131.824C470.863 132.568 470.943 133.204 471.103 133.732C471.271 134.252 471.655 134.512 472.255 134.512Z" fill="#00B6B6"/>
<path d="M1 15H103V75H1V15Z" fill="#00B6B6"/>
<path d="M1 90H78V150H1V90Z" fill="#54D2D2"/>
<path d="M-7.12495e-06 163L-4.37114e-08 1C-1.95702e-08 0.447715 0.447715 1.95702e-08 1 4.37114e-08C1.55228 6.78525e-08 2 0.447715 2 1L1.99999 163L1.99511 163.103C1.94378 163.607 1.51767 164 0.999993 164C0.482315 164 0.0562063 163.607 0.00487568 163.103L-7.12495e-06 163Z" fill="#DCDCDC"/>
</svg>
