<svg width="360" height="417" viewBox="0 0 360 417" fill="none" xmlns="http://www.w3.org/2000/svg">
<rect width="360" height="417" fill="white"/>
<g clip-path="url(#clip0_1099_12587)">
<path d="M266.5 199.852C307.102 199.852 340.016 167.019 340.016 126.516C340.016 86.0138 307.102 53.1802 266.5 53.1802C225.899 53.1802 192.984 86.0138 192.984 126.516C192.984 167.019 225.899 199.852 266.5 199.852Z" fill="url(#paint0_linear_1099_12587)" fill-opacity="0.3"/>
<path d="M204.776 127.058C204.575 126.7 204.323 126.312 204.021 125.896C203.719 125.495 203.41 125.158 203.094 124.885C204.69 124.11 206.128 123.164 207.407 122.045C208.687 120.912 209.694 119.607 210.427 118.129C211.175 116.652 211.549 115.024 211.549 113.245V107.974H214.223V112.513C214.223 113.948 214.46 115.289 214.935 116.537C215.409 117.785 216.056 118.925 216.876 119.958C217.696 120.991 218.623 121.901 219.658 122.69C220.694 123.465 221.779 124.103 222.915 124.605C222.642 124.907 222.34 125.294 222.009 125.767C221.693 126.241 221.441 126.656 221.255 127.015C220.032 126.384 218.882 125.609 217.804 124.691C216.725 123.773 215.776 122.748 214.956 121.615C214.151 120.482 213.511 119.291 213.037 118.043C212.62 119.334 211.994 120.546 211.16 121.679C210.326 122.798 209.363 123.816 208.27 124.734C207.177 125.638 206.013 126.413 204.776 127.058ZM226.949 125.767C226.848 125.179 226.769 124.462 226.711 123.616C226.654 122.755 226.611 121.823 226.582 120.819C226.568 119.8 226.568 118.753 226.582 117.677C226.611 116.601 226.654 115.554 226.711 114.536C226.783 113.503 226.87 112.549 226.97 111.674C227.085 110.799 227.215 110.053 227.358 109.437L229.882 109.953C229.724 110.469 229.587 111.144 229.472 111.976C229.357 112.793 229.264 113.697 229.192 114.687C229.12 115.662 229.07 116.666 229.041 117.699C229.026 118.732 229.034 119.736 229.062 120.711C229.091 121.686 229.141 122.568 229.213 123.357C229.285 124.146 229.379 124.785 229.494 125.272L226.949 125.767ZM236.115 124.605C233.628 124.534 232.219 123.723 231.888 122.174C231.802 121.787 231.773 121.356 231.802 120.883C231.83 120.41 231.938 119.886 232.125 119.312L234.39 119.872C234.289 120.144 234.232 120.388 234.217 120.603C234.217 120.819 234.246 121.012 234.304 121.184C234.49 121.701 235.253 121.98 236.59 122.023C237.237 122.038 237.927 122.016 238.66 121.959C239.408 121.887 240.134 121.787 240.839 121.658C241.558 121.529 242.183 121.385 242.715 121.227C242.687 121.428 242.651 121.701 242.607 122.045C242.579 122.389 242.557 122.741 242.543 123.099C242.528 123.443 242.528 123.73 242.543 123.96C241.867 124.132 241.141 124.268 240.364 124.369C239.602 124.469 238.847 124.541 238.1 124.584C237.366 124.612 236.705 124.62 236.115 124.605ZM232.88 114.106L232.729 111.459C233.275 111.531 233.944 111.574 234.735 111.588C235.526 111.603 236.345 111.595 237.194 111.567C238.056 111.524 238.876 111.459 239.653 111.373C240.443 111.273 241.098 111.151 241.615 111.007L241.507 113.611C240.932 113.711 240.264 113.804 239.502 113.89C238.739 113.962 237.949 114.02 237.129 114.063C236.324 114.106 235.547 114.134 234.8 114.149C234.066 114.149 233.426 114.134 232.88 114.106ZM259.698 159.841C259.514 159.489 259.269 159.099 258.962 158.671C258.671 158.242 258.341 157.806 257.973 157.362C257.268 157.485 256.455 157.615 255.534 157.753C254.614 157.89 253.641 158.028 252.612 158.166C251.585 158.303 250.565 158.426 249.553 158.533C248.556 158.656 247.62 158.755 246.746 158.831C245.887 158.923 245.151 158.992 244.537 159.038L244.008 156.307C244.346 156.307 244.76 156.299 245.25 156.284C245.756 156.253 246.301 156.215 246.884 156.169C247.237 155.633 247.597 154.999 247.965 154.264C248.349 153.53 248.686 152.833 248.977 152.176H243.318V149.72H262.16V152.176H256.616C257.03 152.497 257.49 152.902 257.996 153.392C258.502 153.882 259.016 154.41 259.537 154.976C260.059 155.526 260.535 156.069 260.964 156.605C261.409 157.141 261.762 157.607 262.022 158.005C261.823 158.128 261.57 158.303 261.263 158.533C260.957 158.762 260.658 158.992 260.366 159.221C260.074 159.466 259.852 159.673 259.698 159.841ZM243.18 148.32C243.073 148.106 242.919 147.853 242.72 147.563C242.52 147.272 242.306 146.989 242.075 146.714C241.845 146.438 241.631 146.217 241.431 146.048C242.382 145.681 243.357 145.207 244.353 144.625C245.365 144.028 246.34 143.378 247.275 142.674C248.211 141.955 249.046 141.228 249.783 140.494C250.519 139.745 251.087 139.04 251.485 138.383L254.085 138.75C254.576 139.407 255.205 140.081 255.971 140.769C256.739 141.458 257.575 142.116 258.479 142.743C259.399 143.355 260.335 143.914 261.286 144.419C262.237 144.923 263.149 145.337 264.024 145.658C263.794 145.841 263.548 146.094 263.287 146.415C263.027 146.721 262.781 147.035 262.551 147.356C262.337 147.677 262.176 147.953 262.068 148.182C261.47 147.922 260.849 147.616 260.205 147.264C259.576 146.912 258.939 146.53 258.295 146.117V148.068H247.183V146.048C246.478 146.522 245.779 146.958 245.089 147.356C244.399 147.738 243.763 148.06 243.18 148.32ZM247.827 145.589H257.536C256.6 144.946 255.711 144.258 254.867 143.523C254.024 142.774 253.311 142.024 252.727 141.274C252.206 141.963 251.508 142.689 250.634 143.455C249.76 144.204 248.824 144.916 247.827 145.589ZM250.266 155.894C251.294 155.802 252.313 155.702 253.326 155.595C254.338 155.473 255.258 155.358 256.086 155.251C255.427 154.578 254.844 154.058 254.338 153.69L256.132 152.176H252.198C251.938 152.772 251.631 153.4 251.278 154.058C250.941 154.7 250.604 155.312 250.266 155.894ZM273.64 158.762V156.123H278.817V148.136H274.929V145.497H278.817V138.727H281.601V145.497H285.604V148.136H281.601V156.123H286.225V158.762H273.64ZM269.062 159.497V151.854C268.633 152.237 268.188 152.62 267.728 153.002C267.268 153.369 266.792 153.721 266.301 154.058C266.102 153.751 265.811 153.392 265.427 152.979C265.044 152.566 264.714 152.245 264.438 152.015C265.052 151.663 265.696 151.227 266.37 150.707C267.061 150.171 267.736 149.59 268.395 148.963C269.055 148.32 269.653 147.677 270.189 147.035C270.726 146.377 271.156 145.765 271.478 145.199H265.657V142.72H269.039V138.704H271.708V142.72H273.824L275.067 143.753C274.423 145.191 273.587 146.599 272.559 147.976C272.958 148.251 273.387 148.542 273.847 148.848C274.323 149.138 274.776 149.414 275.205 149.674C275.635 149.919 275.987 150.118 276.263 150.271C276.11 150.424 275.926 150.638 275.711 150.913C275.512 151.174 275.313 151.449 275.113 151.74C274.929 152.015 274.784 152.252 274.676 152.451C274.262 152.176 273.794 151.862 273.272 151.51C272.751 151.143 272.237 150.784 271.731 150.431V159.497H269.062Z" fill="#111111"/>
<path d="M254.544 127.998C254.429 127.596 254.265 127.146 254.055 126.649C253.863 126.152 253.642 125.76 253.393 125.473C254.524 125.378 255.694 125.206 256.902 124.957C258.128 124.689 259.298 124.374 260.41 124.01C259.816 123.551 259.231 123.006 258.656 122.375C258.061 122.738 257.448 123.073 256.815 123.379C256.201 123.685 255.588 123.943 254.975 124.153C254.86 123.867 254.668 123.513 254.4 123.092C254.131 122.652 253.863 122.298 253.595 122.03C254.61 121.744 255.694 121.285 256.844 120.654C257.995 120.003 259.01 119.324 259.893 118.617C259.509 118.54 259.231 118.397 259.059 118.186C258.905 117.976 258.828 117.67 258.828 117.268V116.178C258.387 116.867 257.841 117.555 257.189 118.244C256.557 118.932 255.933 119.516 255.32 119.994C255.205 119.841 255.013 119.649 254.745 119.42C254.495 119.171 254.237 118.942 253.968 118.731C253.719 118.502 253.508 118.349 253.336 118.272C253.699 118.005 254.073 117.689 254.457 117.326C254.86 116.962 255.243 116.599 255.608 116.236H253.451V112.391H256.413V105.191H260.209C260.247 105.057 260.295 104.923 260.353 104.789C260.41 104.636 260.458 104.493 260.496 104.359H254.342V102.064H272.029V104.359H263.947L263.66 105.191H269.584V112.391H272.489V116.236H270.907C271.233 116.523 271.54 116.809 271.827 117.096C272.133 117.383 272.412 117.66 272.661 117.928C272.412 118.119 272.086 118.406 271.683 118.789C271.281 119.171 270.974 119.496 270.763 119.764C270.418 119.286 269.958 118.76 269.383 118.186C268.808 117.593 268.232 117.058 267.657 116.58C267.465 117.441 267.13 118.005 266.651 118.272C266.171 118.54 265.49 118.674 264.609 118.674H263.344C263.209 118.808 263.075 118.951 262.941 119.104C262.806 119.238 262.663 119.382 262.51 119.535H268.635L269.412 120.596C268.452 121.935 267.283 123.083 265.903 124.039C266.919 124.364 268.002 124.622 269.153 124.813C270.322 125.005 271.549 125.129 272.834 125.186C272.584 125.492 272.354 125.913 272.144 126.448C271.932 127.003 271.779 127.462 271.683 127.825C270.13 127.691 268.625 127.452 267.168 127.108C265.711 126.764 264.35 126.286 263.085 125.674C261.838 126.248 260.496 126.726 259.059 127.108C257.639 127.491 256.135 127.787 254.544 127.998ZM249.338 127.768V112.42C249.089 112.841 248.83 113.252 248.562 113.654C248.293 114.055 248.025 114.428 247.757 114.773C247.622 114.562 247.412 114.323 247.124 114.055C246.836 113.768 246.529 113.491 246.204 113.223C245.897 112.956 245.629 112.755 245.398 112.621C245.974 111.932 246.539 111.11 247.095 110.154C247.651 109.198 248.169 108.203 248.648 107.17C249.146 106.118 249.568 105.095 249.913 104.101C250.259 103.106 250.507 102.226 250.661 101.461L253.825 102.15C253.498 103.393 253.048 104.732 252.473 106.166V127.768H249.338ZM262.193 116.58H263.89C264.408 116.58 264.762 116.494 264.954 116.322C265.145 116.15 265.28 115.757 265.357 115.146C265.567 115.241 265.855 115.346 266.219 115.461C266.603 115.576 266.948 115.681 267.255 115.777L268.664 114.4C268.798 114.476 268.923 114.562 269.038 114.658C269.153 114.753 269.277 114.849 269.412 114.945V114.227H264.465C264.58 114.361 264.695 114.505 264.81 114.658C264.925 114.792 265.021 114.926 265.098 115.059C264.829 115.212 264.494 115.423 264.091 115.691C263.707 115.958 263.401 116.178 263.171 116.35C262.979 116.006 262.73 115.633 262.423 115.232C262.136 114.83 261.829 114.495 261.503 114.227H256.557V115.059C256.71 114.887 256.825 114.715 256.902 114.543L258.828 115.863V114.658H261.446V116.064C261.446 116.255 261.493 116.389 261.589 116.465C261.685 116.542 261.886 116.58 262.193 116.58ZM259.576 110.096H266.478V109.265H259.576V110.096ZM259.576 107.744H266.478V106.941H259.576V107.744ZM259.576 112.391H266.478V111.646H259.576V112.391ZM263.142 122.862C263.545 122.652 263.928 122.432 264.293 122.203C264.656 121.973 264.992 121.734 265.299 121.486H261.215C261.503 121.734 261.809 121.973 262.136 122.203C262.461 122.432 262.797 122.652 263.142 122.862ZM287.558 126.506C286.024 126.506 284.778 126.353 283.819 126.047C282.88 125.741 282.189 125.224 281.749 124.498C281.327 123.771 281.116 122.786 281.116 121.543V102.58L284.883 102.81C284.845 103.135 284.806 103.68 284.768 104.445C284.73 105.21 284.701 106.032 284.682 106.912C284.663 107.62 284.643 108.394 284.625 109.236C284.625 110.077 284.625 111.005 284.625 112.019V120.854C284.625 121.696 284.855 122.269 285.315 122.576C285.794 122.882 286.618 123.035 287.788 123.035C289.667 123.035 291.44 122.681 293.108 121.973C294.795 121.266 296.252 120.386 297.479 119.334C297.498 119.697 297.537 120.137 297.595 120.654C297.671 121.151 297.748 121.629 297.825 122.088C297.92 122.528 297.997 122.872 298.055 123.121C296.674 124.115 295.064 124.928 293.223 125.559C291.401 126.19 289.513 126.506 287.558 126.506ZM314.763 122.719C313.804 123.255 312.903 123.474 312.06 123.379C311.216 123.264 310.468 122.719 309.817 121.744C309.222 120.826 308.676 119.745 308.178 118.502C307.679 117.259 307.247 115.939 306.883 114.543C306.538 113.147 306.269 111.751 306.078 110.355C305.906 108.958 305.829 107.648 305.848 106.424L309.357 106.453C309.299 107.39 309.328 108.413 309.443 109.523C309.558 110.632 309.74 111.751 309.989 112.879C310.238 114.008 310.536 115.059 310.881 116.035C311.226 116.991 311.6 117.794 312.002 118.445C312.271 118.904 312.558 119.171 312.865 119.248C313.191 119.305 313.536 119.219 313.9 118.99C314.361 118.684 314.839 118.263 315.338 117.727C315.856 117.192 316.287 116.675 316.632 116.178C316.728 116.465 316.881 116.79 317.093 117.154C317.323 117.517 317.562 117.871 317.812 118.215C318.08 118.559 318.319 118.837 318.53 119.047C318.013 119.812 317.418 120.52 316.747 121.17C316.095 121.82 315.434 122.337 314.763 122.719ZM325.634 117.354C325.442 116.8 325.145 116.111 324.742 115.289C324.34 114.467 323.879 113.615 323.362 112.736C322.844 111.837 322.327 111.014 321.809 110.269C321.291 109.504 320.812 108.911 320.371 108.49L323.132 106.74C323.611 107.218 324.138 107.859 324.713 108.662C325.307 109.465 325.882 110.326 326.439 111.244C327.014 112.143 327.522 113.023 327.963 113.883C328.404 114.725 328.72 115.442 328.912 116.035C328.318 116.15 327.714 116.331 327.1 116.58C326.506 116.828 326.017 117.087 325.634 117.354Z" fill="#00B6B6"/>
<path d="M79.6812 216.196C114.491 216.196 142.71 188.047 142.71 153.322C142.71 118.597 114.491 90.4473 79.6812 90.4473C44.8713 90.4473 16.6523 118.597 16.6523 153.322C16.6523 188.047 44.8713 216.196 79.6812 216.196Z" fill="url(#paint1_linear_1099_12587)" fill-opacity="0.3"/>
<path d="M44.9653 151.407V148.567H47.1221V139.444H63.6293V148.567H65.6711V151.407H44.9653ZM47.9849 137.752V126.85H62.7953V137.752H47.9849ZM41.4568 151.923L38.5234 149.829C38.9644 149.256 39.4149 148.576 39.8751 147.792C40.3352 147.009 40.7761 146.195 41.1979 145.354C41.6389 144.493 42.0319 143.652 42.377 142.829C42.7413 142.007 43.0193 141.271 43.211 140.62C43.3836 140.793 43.6328 141.013 43.9587 141.28C44.2846 141.548 44.6297 141.806 44.994 142.055C45.3774 142.304 45.6938 142.505 45.943 142.657C45.7321 143.326 45.4445 144.082 45.0803 144.924C44.7352 145.746 44.3517 146.588 43.93 147.448C43.5082 148.309 43.0864 149.131 42.6646 149.915C42.2428 150.681 41.8402 151.35 41.4568 151.923ZM43.8149 138.928C43.4698 138.622 42.9905 138.259 42.377 137.838C41.7827 137.417 41.1596 137.015 40.5078 136.633C39.8559 136.231 39.2807 135.925 38.7823 135.715L40.479 132.961C41.3225 133.362 42.2332 133.85 43.211 134.424C44.2079 134.978 45.0419 135.533 45.713 136.088C45.5596 136.26 45.3487 136.538 45.0803 136.92C44.831 137.283 44.5818 137.656 44.3326 138.039C44.1025 138.402 43.93 138.698 43.8149 138.928ZM44.9365 132.215C44.6105 131.909 44.1408 131.546 43.5274 131.125C42.933 130.704 42.3003 130.302 41.6293 129.92C40.9774 129.538 40.4023 129.241 39.9038 129.031L41.6293 126.334C42.147 126.544 42.7413 126.841 43.4123 127.223C44.1025 127.606 44.764 127.998 45.3966 128.4C46.0293 128.801 46.5182 129.155 46.8633 129.461C46.7099 129.633 46.499 129.901 46.2306 130.264C45.9814 130.628 45.7321 130.991 45.4829 131.354C45.2337 131.718 45.0515 132.005 44.9365 132.215ZM51.2345 135.285H59.5457V133.449H51.2345V135.285ZM51.2345 131.125H59.5457V129.318H51.2345V131.125ZM50.113 148.567H51.8672V142.17H50.113V148.567ZM54.513 148.567H56.2672V142.17H54.513V148.567ZM58.8842 148.567H60.6385V142.17H58.8842V148.567ZM71.9692 150.719C71.7966 150.546 71.5282 150.336 71.164 150.087C70.7997 149.858 70.4258 149.638 70.0424 149.428C69.6589 149.218 69.333 149.074 69.0646 148.997C69.8698 148.137 70.6463 147.095 71.394 145.87C72.1417 144.627 72.8511 143.279 73.5221 141.825C74.1931 140.372 74.7875 138.88 75.3051 137.35C74.3274 137.465 73.3783 137.599 72.4581 137.752C71.5569 137.904 70.8092 138.058 70.2149 138.211C70.1957 137.962 70.1478 137.628 70.0711 137.207C69.9944 136.786 69.9082 136.375 69.8123 135.973C69.7164 135.552 69.6206 135.237 69.5247 135.026C69.9657 134.988 70.5408 134.94 71.2502 134.883C71.9596 134.826 72.7457 134.759 73.6084 134.682C74.4711 134.587 75.3339 134.51 76.1966 134.453C76.5417 133.248 76.8197 132.072 77.0306 130.924C77.2607 129.757 77.414 128.677 77.4908 127.682L80.8842 128.285C80.7883 129.165 80.635 130.111 80.4241 131.125C80.2132 132.12 79.9543 133.142 79.6476 134.194C80.031 134.175 80.3761 134.166 80.6829 134.166C80.9896 134.146 81.2581 134.137 81.4881 134.137C82.255 134.137 82.9356 134.261 83.53 134.51C84.1435 134.74 84.6323 135.161 84.9966 135.772C85.3609 136.365 85.5718 137.197 85.6293 138.268C85.6868 139.32 85.5622 140.669 85.2555 142.313C84.872 144.379 84.431 145.994 83.9326 147.161C83.4533 148.328 82.8493 149.15 82.1208 149.628C81.3922 150.107 80.4624 150.346 79.3313 150.346C78.7944 150.346 78.2672 150.288 77.7496 150.174C77.2319 150.078 76.7526 149.915 76.3117 149.686C76.3308 149.246 76.3308 148.701 76.3117 148.051C76.2925 147.4 76.235 146.865 76.1391 146.444C77.0977 146.865 78.0372 147.075 78.9574 147.075C79.4176 147.075 79.8105 146.951 80.1365 146.702C80.4816 146.435 80.8075 145.918 81.1143 145.153C81.421 144.369 81.7278 143.222 82.0345 141.711C82.3221 140.314 82.4372 139.281 82.3796 138.612C82.3221 137.924 82.1399 137.474 81.8332 137.264C81.5265 137.054 81.143 136.948 80.6829 136.948C80.1461 136.948 79.5038 136.977 78.7561 137.035C78.1618 138.813 77.4811 140.563 76.7143 142.284C75.9666 144.006 75.1805 145.593 74.3561 147.047C73.5509 148.5 72.7552 149.724 71.9692 150.719ZM92.934 143.288C92.627 142.772 92.205 142.16 91.6687 141.452C91.1316 140.745 90.5471 140.037 89.9144 139.33C89.2817 138.603 88.6678 137.943 88.0739 137.35C87.4793 136.738 86.9617 136.279 86.5208 135.973L89.0517 133.85C89.5118 134.194 90.0482 134.663 90.6621 135.256C91.2754 135.83 91.9081 136.461 92.5602 137.149C93.2116 137.838 93.8155 138.517 94.3719 139.186C94.9277 139.855 95.3591 140.439 95.6661 140.936L92.934 143.288ZM108.924 147.104C107.964 147.64 107.064 147.859 106.22 147.764C105.376 147.649 104.629 147.104 103.977 146.129C103.383 145.211 102.836 144.13 102.338 142.887C101.839 141.644 101.408 140.324 101.044 138.928C100.699 137.532 100.43 136.136 100.239 134.74C100.066 133.343 99.9891 132.034 100.009 130.809L103.517 130.838C103.46 131.775 103.488 132.798 103.603 133.908C103.718 135.017 103.9 136.136 104.15 137.264C104.398 138.392 104.696 139.444 105.041 140.42C105.386 141.376 105.76 142.179 106.163 142.829C106.431 143.288 106.719 143.556 107.026 143.633C107.351 143.69 107.696 143.604 108.061 143.375C108.521 143.068 109 142.648 109.499 142.112C110.016 141.577 110.448 141.06 110.793 140.563C110.888 140.85 111.042 141.175 111.253 141.539C111.483 141.902 111.722 142.256 111.972 142.6C112.24 142.944 112.48 143.222 112.691 143.432C112.173 144.197 111.579 144.904 110.908 145.555C110.256 146.205 109.594 146.722 108.924 147.104ZM119.794 141.739C119.602 141.185 119.305 140.496 118.903 139.674C118.5 138.851 118.04 138.001 117.522 137.121C117.005 136.222 116.487 135.399 115.969 134.653C115.452 133.888 114.972 133.296 114.531 132.875L117.292 131.125C117.771 131.603 118.299 132.244 118.874 133.047C119.468 133.85 120.043 134.711 120.599 135.629C121.175 136.527 121.682 137.407 122.124 138.268C122.564 139.109 122.881 139.827 123.073 140.42C122.478 140.534 121.874 140.716 121.261 140.965C120.666 141.214 120.177 141.472 119.794 141.739Z" fill="#00B6B6"/>
<path d="M73.8766 184.226C73.6925 183.874 73.4471 183.484 73.1404 183.056C72.849 182.627 72.5192 182.191 72.1511 181.747C71.4456 181.87 70.6326 182 69.7124 182.138C68.7921 182.275 67.8182 182.413 66.7906 182.551C65.763 182.688 64.743 182.811 63.7307 182.918C62.7338 183.041 61.7981 183.139 60.9239 183.216C60.065 183.308 59.3288 183.377 58.7153 183.423L58.1861 180.692C58.5236 180.692 58.9377 180.684 59.4285 180.669C59.9346 180.638 60.4791 180.6 61.0619 180.554C61.4147 180.018 61.7751 179.384 62.1432 178.649C62.5267 177.915 62.8641 177.218 63.1555 176.561H57.4959V174.105H76.3383V176.561H70.7937C71.2078 176.882 71.6679 177.287 72.1741 177.777C72.6802 178.267 73.1941 178.795 73.7155 179.361C74.237 179.911 74.7125 180.454 75.1419 180.99C75.5867 181.526 75.9395 181.992 76.2002 182.39C76.0009 182.513 75.7478 182.688 75.441 182.918C75.1343 183.147 74.8352 183.377 74.5438 183.606C74.2524 183.851 74.03 184.058 73.8766 184.226ZM57.3579 172.705C57.2505 172.491 57.0972 172.238 56.8977 171.948C56.6984 171.657 56.4836 171.374 56.2536 171.099C56.0235 170.823 55.8088 170.601 55.6094 170.433C56.5603 170.066 57.5343 169.592 58.5312 169.01C59.5435 168.413 60.5175 167.763 61.453 167.059C62.3887 166.34 63.2245 165.613 63.9607 164.879C64.697 164.13 65.2645 163.425 65.6632 162.768L68.263 163.135C68.7538 163.792 69.3827 164.466 70.1495 165.154C70.9164 165.843 71.7523 166.501 72.6572 167.128C73.5775 167.74 74.5131 168.299 75.464 168.803C76.415 169.308 77.3275 169.722 78.2018 170.043C77.9717 170.226 77.7264 170.479 77.4656 170.8C77.2049 171.106 76.9594 171.42 76.7294 171.741C76.5147 172.062 76.3537 172.338 76.2462 172.567C75.6481 172.307 75.0269 172.001 74.3827 171.649C73.7539 171.297 73.1174 170.915 72.4732 170.502V172.453H61.361V170.433C60.6555 170.907 59.9576 171.343 59.2674 171.741C58.5772 172.123 57.9407 172.445 57.3579 172.705ZM62.0052 169.974H71.714C70.7784 169.331 69.8888 168.643 69.0452 167.908C68.2016 167.159 67.4884 166.409 66.9056 165.659C66.3841 166.348 65.6862 167.074 64.812 167.84C63.9377 168.589 63.0022 169.301 62.0052 169.974ZM64.4439 180.279C65.4716 180.187 66.4915 180.087 67.5038 179.98C68.516 179.858 69.4363 179.743 70.2645 179.636C69.605 178.963 69.0222 178.443 68.516 178.075L70.3106 176.561H66.3764C66.1157 177.157 65.809 177.785 65.4562 178.443C65.1188 179.085 64.7814 179.697 64.4439 180.279ZM88.5086 183.147V180.508H93.6851V172.521H89.7969V169.882H93.6851V163.112H96.4688V169.882H100.472V172.521H96.4688V180.508H101.093V183.147H88.5086ZM83.9304 183.882V176.239C83.501 176.622 83.0562 177.005 82.596 177.387C82.1359 177.754 81.6605 178.106 81.1696 178.443C80.9703 178.136 80.6789 177.777 80.2954 177.364C79.912 176.951 79.5822 176.63 79.3061 176.4C79.9197 176.048 80.5638 175.612 81.2387 175.092C81.9289 174.556 82.6037 173.975 83.2632 173.348C83.9228 172.705 84.521 172.062 85.0577 171.42C85.5946 170.762 86.024 170.15 86.3461 169.584H80.5255V167.105H83.9074V163.089H86.5762V167.105H88.6926L89.935 168.138C89.2908 169.576 88.4554 170.984 87.4273 172.361C87.8263 172.636 88.2555 172.927 88.7156 173.233C89.1916 173.523 89.6438 173.799 90.073 174.059C90.503 174.304 90.8552 174.503 91.1313 174.656C90.9782 174.809 90.7941 175.023 90.5792 175.298C90.38 175.559 90.1809 175.834 89.981 176.125C89.7969 176.4 89.6517 176.637 89.5439 176.836C89.1298 176.561 88.6624 176.247 88.1405 175.895C87.6192 175.528 87.1052 175.169 86.5992 174.816V183.882H83.9304Z" fill="#111111"/>
<path d="M187.423 366.738C222.233 366.738 250.452 338.589 250.452 303.864C250.452 269.139 222.233 240.989 187.423 240.989C152.614 240.989 124.395 269.139 124.395 303.864C124.395 338.589 152.614 366.738 187.423 366.738Z" fill="url(#paint2_linear_1099_12587)" fill-opacity="0.3"/>
<path d="M150.954 303.481C150.915 303.098 150.828 302.62 150.695 302.046C150.58 301.473 150.455 301.023 150.321 300.698H151.816C152.391 300.698 152.842 300.555 153.168 300.268C153.494 299.961 153.657 299.398 153.657 298.575C153.657 298.365 153.657 298.154 153.657 297.944C153.657 297.715 153.647 297.494 153.628 297.284C152.957 297.915 152.161 298.556 151.241 299.206C150.34 299.837 149.401 300.431 148.423 300.985C147.464 301.521 146.554 301.97 145.691 302.333C145.537 302.008 145.298 301.607 144.972 301.128C144.665 300.65 144.397 300.306 144.167 300.096C144.799 299.866 145.528 299.541 146.352 299.12C147.176 298.699 148.02 298.222 148.883 297.686C149.764 297.15 150.58 296.615 151.327 296.079C152.094 295.544 152.717 295.047 153.197 294.588C153.158 294.415 153.11 294.253 153.053 294.1C152.995 293.928 152.938 293.765 152.88 293.612C152.056 294.32 151.126 294.999 150.091 295.649C149.074 296.299 148.107 296.845 147.186 297.284C147.052 296.997 146.831 296.634 146.525 296.194C146.237 295.735 145.988 295.4 145.777 295.19C146.333 294.98 146.975 294.674 147.704 294.272C148.452 293.87 149.189 293.431 149.918 292.952C150.647 292.455 151.289 291.977 151.845 291.518C151.768 291.384 151.673 291.26 151.558 291.145C151.461 291.011 151.366 290.878 151.27 290.743C150.541 291.279 149.775 291.785 148.969 292.264C148.164 292.742 147.388 293.144 146.64 293.469C146.525 293.239 146.371 293 146.18 292.752C146.007 292.484 145.825 292.226 145.633 291.977C145.384 292.072 145.116 292.178 144.828 292.293C144.559 292.388 144.32 292.484 144.109 292.579C144.07 292.369 144.023 292.14 143.965 291.891C143.908 291.623 143.831 291.355 143.735 291.088C143.524 291.126 143.294 291.164 143.045 291.202C142.815 291.24 142.566 291.279 142.297 291.317V303.423H139.335V291.719C138.588 291.796 137.869 291.872 137.178 291.948C136.507 292.025 135.913 292.082 135.395 292.12L134.993 289.252C135.261 289.232 135.539 289.223 135.827 289.223C136.133 289.223 136.459 289.214 136.805 289.194C137.13 288.812 137.485 288.372 137.869 287.875C138.271 287.378 138.683 286.842 139.105 286.268C138.473 285.771 137.763 285.245 136.977 284.69C136.21 284.136 135.472 283.648 134.763 283.227L136.287 280.903C136.478 281.018 136.679 281.142 136.891 281.276C137.101 281.391 137.312 281.525 137.524 281.678C137.792 281.238 138.07 280.741 138.358 280.186C138.664 279.632 138.942 279.096 139.191 278.58C139.46 278.044 139.661 277.595 139.795 277.231L142.47 278.264C142.048 279.048 141.578 279.88 141.061 280.76C140.543 281.64 140.054 282.424 139.594 283.112C139.805 283.247 139.997 283.38 140.169 283.514C140.361 283.648 140.543 283.782 140.716 283.916C141.233 283.112 141.703 282.357 142.125 281.649C142.546 280.923 142.882 280.32 143.131 279.842L145.691 281.133C145.307 281.841 144.809 282.653 144.195 283.571C143.601 284.47 142.968 285.398 142.297 286.354C141.626 287.292 140.975 288.161 140.342 288.965C140.802 288.927 141.252 288.888 141.693 288.85C142.154 288.812 142.585 288.773 142.988 288.735C142.873 288.41 142.747 288.104 142.614 287.817C142.499 287.53 142.393 287.272 142.297 287.043L144.684 286.153C144.991 286.746 145.298 287.473 145.605 288.334C145.93 289.175 146.218 289.969 146.467 290.715C147.081 290.408 147.723 290.055 148.394 289.653C149.084 289.252 149.726 288.831 150.321 288.391H145.835V285.78H155.354V284.432H147.704V281.85H155.354V280.502H147.129V277.92H158.373V285.78H161.594V288.391H154.002C153.772 288.659 153.522 288.907 153.254 289.137C154.098 289.978 154.797 291.002 155.354 292.206C155.967 291.728 156.6 291.212 157.252 290.657C157.903 290.084 158.431 289.567 158.833 289.108L160.961 290.973C160.424 291.451 159.744 291.996 158.92 292.608C158.095 293.22 157.29 293.784 156.504 294.301C157.022 294.855 157.625 295.448 158.316 296.079C159.006 296.691 159.715 297.265 160.444 297.801C161.172 298.336 161.834 298.776 162.428 299.12C162.141 299.388 161.805 299.761 161.422 300.239C161.038 300.698 160.741 301.09 160.53 301.415C159.878 300.976 159.207 300.469 158.517 299.895C157.827 299.302 157.165 298.671 156.533 298.001C156.533 298.059 156.533 298.116 156.533 298.174C156.551 298.231 156.561 298.288 156.561 298.346C156.561 299.685 156.398 300.727 156.073 301.473C155.766 302.218 155.305 302.735 154.692 303.022C154.098 303.328 153.369 303.481 152.507 303.481H150.954ZM137.063 300.526C136.699 300.373 136.268 300.22 135.769 300.067C135.29 299.895 134.868 299.789 134.504 299.751C134.791 299.235 135.069 298.594 135.338 297.829C135.625 297.045 135.884 296.242 136.114 295.419C136.344 294.578 136.507 293.813 136.603 293.124L139.076 293.641C138.98 294.329 138.827 295.104 138.616 295.965C138.405 296.825 138.166 297.666 137.897 298.489C137.628 299.292 137.351 299.972 137.063 300.526ZM144.195 299.264C144.042 298.843 143.85 298.269 143.62 297.542C143.409 296.796 143.198 296.031 142.988 295.247C142.776 294.444 142.604 293.775 142.47 293.239L144.914 292.608C145.029 293.067 145.192 293.66 145.403 294.387C145.633 295.113 145.863 295.83 146.093 296.538C146.342 297.227 146.563 297.781 146.755 298.202C146.333 298.298 145.892 298.451 145.432 298.661C144.972 298.853 144.559 299.054 144.195 299.264ZM178.763 301.587C178.686 301.281 178.542 300.918 178.331 300.497C178.12 300.076 177.871 299.675 177.584 299.292C177.315 298.891 177.047 298.566 176.778 298.317C179.405 297.915 181.398 297.064 182.76 295.764C184.141 294.444 184.869 292.895 184.946 291.116C185.022 289.701 184.763 288.439 184.169 287.33C183.575 286.22 182.76 285.321 181.725 284.633C180.708 283.944 179.587 283.533 178.36 283.399C178.206 285.178 177.919 286.995 177.497 288.85C177.075 290.705 176.5 292.445 175.772 294.071C175.062 295.697 174.19 297.074 173.155 298.202C172.368 299.043 171.602 299.531 170.854 299.665C170.125 299.799 169.349 299.694 168.525 299.35C167.72 299.005 167.01 298.46 166.397 297.715C165.783 296.969 165.313 296.089 164.988 295.075C164.661 294.042 164.527 292.943 164.585 291.776C164.681 290.036 165.093 288.448 165.822 287.014C166.55 285.56 167.528 284.308 168.755 283.256C169.981 282.204 171.391 281.411 172.982 280.875C174.573 280.339 176.27 280.12 178.073 280.215C179.529 280.292 180.9 280.617 182.185 281.19C183.469 281.764 184.591 282.558 185.55 283.571C186.527 284.566 187.275 285.723 187.793 287.043C188.329 288.362 188.55 289.806 188.454 291.375C188.32 293.994 187.4 296.194 185.693 297.973C183.987 299.732 181.677 300.937 178.763 301.587ZM169.416 295.792C169.627 295.945 169.848 296.022 170.078 296.022C170.308 296.022 170.538 295.907 170.768 295.678C171.458 294.989 172.091 294.014 172.666 292.752C173.26 291.489 173.749 290.064 174.133 288.477C174.535 286.89 174.794 285.273 174.909 283.629C173.586 283.935 172.407 284.489 171.372 285.293C170.355 286.096 169.55 287.071 168.956 288.219C168.362 289.347 168.026 290.591 167.95 291.948C167.911 292.847 168.026 293.632 168.295 294.301C168.582 294.951 168.956 295.448 169.416 295.792ZM201.999 303.137V282.309H191.79V278.924H217.673V282.309H205.709V287.186L207.291 285.178C207.924 285.58 208.642 286.067 209.448 286.641C210.253 287.215 211.068 287.827 211.892 288.477C212.735 289.108 213.531 289.72 214.279 290.313C215.027 290.906 215.64 291.432 216.12 291.891C215.832 292.12 215.516 292.417 215.171 292.78C214.825 293.124 214.499 293.488 214.193 293.87C213.886 294.253 213.646 294.597 213.474 294.903C213.109 294.521 212.611 294.062 211.978 293.526C211.364 292.972 210.684 292.388 209.937 291.776C209.208 291.164 208.47 290.581 207.722 290.026C206.993 289.452 206.322 288.965 205.709 288.563V303.137H201.999Z" fill="#00B6B6"/>
<path d="M231.81 301.536C231.749 301.291 231.634 301 231.465 300.664C231.296 300.327 231.097 300.006 230.867 299.7C230.652 299.378 230.437 299.118 230.223 298.919C232.324 298.598 233.919 297.918 235.008 296.877C236.113 295.821 236.695 294.582 236.757 293.159C236.818 292.026 236.611 291.017 236.136 290.13C235.66 289.242 235.008 288.523 234.18 287.972C233.367 287.421 232.47 287.092 231.488 286.985C231.365 288.408 231.135 289.862 230.798 291.346C230.46 292.83 230 294.223 229.418 295.523C228.85 296.823 228.152 297.925 227.324 298.828C226.695 299.501 226.082 299.891 225.484 299.998C224.901 300.105 224.279 300.021 223.62 299.746C222.976 299.47 222.408 299.034 221.918 298.438C221.427 297.841 221.051 297.137 220.79 296.326C220.529 295.5 220.422 294.62 220.468 293.687C220.544 292.295 220.874 291.025 221.458 289.877C222.04 288.715 222.822 287.712 223.804 286.871C224.786 286.029 225.913 285.394 227.186 284.966C228.459 284.538 229.816 284.361 231.258 284.438C232.424 284.499 233.52 284.759 234.548 285.218C235.576 285.677 236.473 286.312 237.24 287.123C238.022 287.918 238.62 288.844 239.035 289.9C239.464 290.956 239.64 292.111 239.564 293.365C239.456 295.462 238.72 297.221 237.355 298.644C235.99 300.052 234.141 301.016 231.81 301.536ZM224.333 296.9C224.502 297.022 224.678 297.083 224.863 297.083C225.047 297.083 225.231 296.992 225.415 296.808C225.967 296.257 226.473 295.477 226.933 294.467C227.408 293.457 227.799 292.318 228.106 291.048C228.429 289.777 228.636 288.485 228.728 287.169C227.669 287.414 226.726 287.857 225.898 288.5C225.085 289.143 224.44 289.923 223.965 290.841C223.489 291.744 223.221 292.738 223.16 293.825C223.129 294.544 223.221 295.171 223.436 295.706C223.666 296.226 223.965 296.624 224.333 296.9ZM153.55 335.026C153.366 334.628 153.098 334.2 152.745 333.741C152.408 333.282 152.109 332.93 151.848 332.685C153.198 332.149 154.348 331.568 155.299 330.941C156.265 330.313 157.063 329.587 157.691 328.76C158.336 327.919 158.834 326.924 159.187 325.777C159.54 324.614 159.77 323.245 159.877 321.669H152.86V319.007H159.992V314.784H162.937V318.639C162.937 318.7 162.93 318.762 162.914 318.823C162.914 318.884 162.914 318.946 162.914 319.007H171.196C171.196 320.659 171.158 322.22 171.081 323.688C171.02 325.157 170.936 326.458 170.828 327.59C170.736 328.722 170.629 329.618 170.506 330.275C170.307 331.469 170.008 332.395 169.609 333.052C169.226 333.71 168.688 334.169 167.998 334.429C167.324 334.705 166.45 334.842 165.376 334.842H163.535C163.505 334.552 163.451 334.215 163.374 333.832C163.313 333.465 163.236 333.106 163.144 332.754C163.052 332.387 162.953 332.088 162.845 331.859H165.329C166.005 331.859 166.503 331.729 166.825 331.469C167.163 331.193 167.408 330.642 167.561 329.816C167.638 329.449 167.715 329.051 167.791 328.623C167.868 328.195 167.937 327.682 167.998 327.085C168.075 326.473 168.129 325.731 168.159 324.859C168.205 323.972 168.228 322.908 168.228 321.669H162.822C162.654 323.857 162.247 325.777 161.602 327.429C160.974 329.082 160.008 330.528 158.704 331.767C157.415 332.991 155.698 334.077 153.55 335.026ZM187.715 335.347C187.7 335.103 187.662 334.811 187.6 334.475C187.539 334.139 187.462 333.81 187.37 333.488C187.294 333.167 187.209 332.907 187.117 332.708H188.934C189.241 332.708 189.463 332.662 189.601 332.57C189.739 332.463 189.808 332.264 189.808 331.974V327.82H184.701C184.993 328.08 185.315 328.401 185.667 328.783C186.035 329.151 186.38 329.526 186.703 329.908C187.04 330.29 187.301 330.635 187.485 330.941C187.332 331.048 187.102 331.224 186.795 331.469C186.503 331.698 186.212 331.943 185.92 332.203C185.644 332.448 185.445 332.639 185.322 332.777C185.123 332.455 184.855 332.08 184.517 331.652C184.18 331.224 183.827 330.803 183.459 330.39C183.091 329.977 182.753 329.64 182.446 329.38L184.264 327.82H182.423V325.456H189.808V323.62H182.193V321.233H186.933V319.213H182.929V316.987H186.933V314.371H189.693V316.987H193.858V319.213H189.693V321.233H195.399V323.62H192.477V325.456H195.123V327.82H192.477V333.006C192.477 333.817 192.24 334.406 191.764 334.773C191.304 335.156 190.599 335.347 189.647 335.347H187.715ZM175.498 335.278C175.483 335.049 175.445 334.758 175.383 334.406C175.337 334.054 175.276 333.71 175.199 333.373C175.123 333.021 175.038 332.754 174.946 332.57H176.465C176.772 332.57 176.987 332.524 177.109 332.433C177.247 332.326 177.316 332.126 177.316 331.836V328.072C176.688 328.317 176.112 328.531 175.59 328.715C175.084 328.898 174.724 329.021 174.509 329.082L173.888 326.305C174.256 326.213 174.747 326.075 175.36 325.892C175.974 325.708 176.626 325.509 177.316 325.295V321.187H174.325V318.662H177.316V314.44H179.939V318.662H182.078V321.187H179.939V324.377C181.043 323.995 181.787 323.696 182.17 323.482V326.029C182.017 326.121 181.733 326.259 181.319 326.443C180.921 326.611 180.461 326.802 179.939 327.016V333.006C179.939 333.802 179.709 334.375 179.248 334.728C178.804 335.095 178.121 335.278 177.201 335.278H175.498ZM205.177 334.934C205.131 334.674 205.039 334.36 204.901 333.993C204.779 333.641 204.633 333.297 204.464 332.96C204.295 332.608 204.119 332.326 203.934 332.111C206.496 332.31 208.513 332.119 209.985 331.537C211.458 330.941 212.194 330.015 212.194 328.76C212.194 328.087 211.911 327.552 211.343 327.154C210.79 326.756 210.085 326.557 209.226 326.557C208.229 326.557 207.217 326.749 206.189 327.131C205.162 327.498 204.234 328.126 203.405 329.013C203.344 329.09 203.275 329.174 203.198 329.265C203.137 329.342 203.068 329.418 202.991 329.495L200.76 327.911C201.496 327.192 202.125 326.221 202.646 324.997C203.168 323.772 203.574 322.487 203.865 321.141C201.734 321.218 199.916 321.218 198.413 321.141L198.229 318.433C198.904 318.525 199.778 318.586 200.852 318.616C201.926 318.632 203.083 318.616 204.326 318.571C204.51 317.117 204.579 315.802 204.533 314.623H207.431C207.431 315.74 207.339 317.01 207.155 318.433C208.229 318.356 209.265 318.264 210.261 318.157C211.258 318.051 212.164 317.936 212.976 317.813C213.789 317.676 214.448 317.53 214.955 317.377L214.771 320.085C213.866 320.284 212.693 320.468 211.251 320.636C209.809 320.789 208.299 320.912 206.718 321.003C206.565 321.707 206.389 322.411 206.189 323.115C206.005 323.818 205.783 324.5 205.522 325.157C206.197 324.805 206.856 324.538 207.5 324.354C208.16 324.155 208.812 324.056 209.456 324.056C210.545 324.041 211.512 324.224 212.355 324.607C213.214 324.989 213.889 325.54 214.379 326.259C214.87 326.962 215.116 327.812 215.116 328.806C215.116 330.826 214.264 332.379 212.562 333.465C210.859 334.552 208.398 335.041 205.177 334.934Z" fill="#111111"/>
<path d="M102.479 359.246C119.703 359.246 133.665 345.318 133.665 328.136C133.665 310.955 119.703 297.026 102.479 297.026C85.2555 297.026 71.293 310.955 71.293 328.136C71.293 345.318 85.2555 359.246 102.479 359.246Z" fill="white"/>
<path d="M132.822 328.136C132.822 311.43 119.244 297.875 102.479 297.875C85.7147 297.875 72.1367 311.43 72.1367 328.136C72.1369 344.842 85.7148 358.397 102.479 358.397C119.244 358.397 132.822 344.842 132.822 328.136ZM138.822 328.136C138.822 348.17 122.544 364.397 102.479 364.397C82.4149 364.397 66.1369 348.17 66.1367 328.136C66.1367 308.103 82.4148 291.875 102.479 291.875C122.544 291.875 138.822 308.103 138.822 328.136Z" fill="url(#paint3_linear_1099_12587)" fill-opacity="0.3"/>
<path d="M96.6688 337.436V330.63C96.4194 331.103 96.1641 331.55 95.9024 331.973C95.6407 332.395 95.3855 332.768 95.136 333.092C94.9369 332.917 94.6565 332.725 94.2949 332.514C93.9332 332.302 93.6284 332.134 93.3789 332.01C93.7154 331.625 94.0454 331.177 94.3696 330.667C94.7061 330.145 95.0174 329.605 95.3043 329.045C95.6034 328.474 95.8651 327.914 96.0894 327.367C96.3259 326.808 96.5006 326.304 96.6128 325.857H93.9771V323.917H96.6688V320.523H98.7811V323.917H100.669V325.857H98.7811V327.069C98.9803 327.367 99.2362 327.721 99.5475 328.131C99.8588 328.542 100.19 328.945 100.538 329.344C100.887 329.729 101.199 330.052 101.473 330.313V329.157H104.651V325.857H101.155V323.917H105.268C104.943 323.482 104.576 323.059 104.165 322.649C103.766 322.227 103.349 321.841 102.912 321.493L104.725 320.318C105.237 320.716 105.728 321.164 106.202 321.661C106.688 322.158 107.106 322.656 107.455 323.153C107.28 323.239 107.081 323.351 106.856 323.488C106.632 323.625 106.414 323.768 106.202 323.917H110.595V325.857H106.913V329.157H110.296V331.115H106.913V335.161H110.969V337.082H100.426V335.161H104.651V331.115H101.473V330.593C101.249 330.754 100.987 330.972 100.688 331.246C100.401 331.507 100.19 331.718 100.052 331.88C99.8905 331.693 99.6971 331.457 99.4728 331.171C99.2485 330.873 99.0177 330.556 98.7811 330.22V337.436H96.6688Z" fill="#111111"/>
<path d="M277.905 321.952C295.129 321.952 309.091 308.023 309.091 290.842C309.091 273.66 295.129 259.732 277.905 259.732C260.681 259.732 246.719 273.66 246.719 290.842C246.719 308.023 260.681 321.952 277.905 321.952Z" fill="white"/>
<path d="M308.249 290.842C308.249 274.136 294.67 260.581 277.905 260.581C261.14 260.581 247.562 274.136 247.562 290.842C247.563 307.548 261.141 321.103 277.905 321.103C294.67 321.103 308.249 307.548 308.249 290.842ZM314.249 290.842C314.249 310.876 297.97 327.103 277.905 327.103C257.841 327.103 241.563 310.876 241.562 290.842C241.562 270.809 257.841 254.581 277.905 254.581C297.97 254.581 314.249 270.809 314.249 290.842Z" fill="url(#paint4_linear_1099_12587)" fill-opacity="0.3"/>
<path d="M259.742 297.121V295.014H267.051V288.562H260.957V286.473H267.051V281.271H269.444V286.473H275.631V288.562H269.444V295.014H276.846V297.121H259.742ZM280.828 297.624V290.128H292.978V297.624H280.828ZM293.782 289.681C293.595 289.395 293.371 289.096 293.109 288.786C292.86 288.462 292.592 288.127 292.305 287.779C291.657 287.865 290.879 287.953 289.968 288.04C289.059 288.127 288.081 288.214 287.034 288.301C285.987 288.375 284.947 288.45 283.912 288.525C282.878 288.587 281.912 288.643 281.015 288.692C280.117 288.73 279.364 288.761 278.753 288.786L278.342 286.529C278.728 286.542 279.196 286.542 279.743 286.529C280.292 286.517 280.89 286.504 281.538 286.492C281.601 286.48 281.663 286.473 281.725 286.473C281.787 286.473 281.85 286.473 281.912 286.473C282.161 286.1 282.435 285.665 282.734 285.168C283.033 284.658 283.327 284.143 283.613 283.62C283.9 283.086 284.155 282.576 284.379 282.091C284.617 281.594 284.791 281.165 284.903 280.805L287.37 281.327C287.171 281.762 286.903 282.284 286.566 282.893C286.243 283.49 285.893 284.099 285.52 284.721C285.159 285.329 284.816 285.877 284.491 286.362C285.601 286.312 286.691 286.256 287.763 286.194C288.847 286.131 289.8 286.07 290.623 286.007C290.286 285.684 289.95 285.373 289.613 285.075C289.29 284.776 288.978 284.515 288.679 284.292L290.268 282.819C290.679 283.142 291.127 283.527 291.613 283.975C292.112 284.422 292.611 284.895 293.109 285.392C293.608 285.889 294.075 286.38 294.511 286.865C294.959 287.338 295.34 287.766 295.651 288.152C295.452 288.264 295.228 288.419 294.978 288.618C294.742 288.804 294.511 288.997 294.287 289.196C294.075 289.382 293.907 289.544 293.782 289.681ZM283.22 295.554H290.604V292.217H283.22V295.554Z" fill="#111111"/>
<path d="M192.249 227.33C214.549 227.33 232.627 209.297 232.627 187.051C232.627 164.806 214.549 146.772 192.249 146.772C169.949 146.772 151.871 164.806 151.871 187.051C151.871 209.297 169.949 227.33 192.249 227.33Z" fill="white"/>
<path d="M231.784 187.052C231.784 165.282 214.091 147.621 192.25 147.621C170.409 147.621 152.715 165.282 152.715 187.052C152.715 208.822 170.409 226.482 192.25 226.482C214.091 226.482 231.784 208.822 231.784 187.052ZM237.784 187.052C237.784 212.149 217.391 232.482 192.25 232.482C167.109 232.482 146.715 212.149 146.715 187.052C146.715 161.954 167.109 141.621 192.25 141.621C217.391 141.621 237.784 161.954 237.784 187.052Z" fill="url(#paint5_linear_1099_12587)" fill-opacity="0.3"/>
<path d="M157.534 178.741C157.426 178.549 157.292 178.343 157.131 178.121C156.97 177.907 156.805 177.728 156.637 177.582C157.488 177.169 158.254 176.664 158.937 176.067C159.62 175.463 160.157 174.767 160.548 173.979C160.946 173.191 161.146 172.323 161.146 171.374V168.562H162.572V170.984C162.572 171.749 162.699 172.464 162.952 173.13C163.205 173.795 163.55 174.403 163.987 174.954C164.424 175.505 164.919 175.99 165.471 176.411C166.023 176.825 166.602 177.165 167.208 177.433C167.062 177.593 166.901 177.8 166.725 178.052C166.556 178.305 166.422 178.526 166.322 178.718C165.67 178.382 165.057 177.969 164.482 177.479C163.907 176.989 163.401 176.442 162.964 175.838C162.534 175.233 162.193 174.598 161.94 173.933C161.717 174.621 161.383 175.268 160.939 175.872C160.494 176.469 159.98 177.012 159.398 177.502C158.814 177.984 158.193 178.397 157.534 178.741ZM176.79 178.064C176.069 178.187 175.368 178.27 174.685 178.316C174.002 178.362 173.366 178.354 172.776 178.293C172.185 178.232 171.667 178.11 171.223 177.926C170.778 177.735 170.429 177.475 170.176 177.146C169.93 176.81 169.808 176.392 169.808 175.895C169.808 175.237 170.038 174.679 170.498 174.22C170.965 173.753 171.591 173.351 172.373 173.015C172.25 172.686 172.143 172.292 172.051 171.833C171.966 171.366 171.909 170.861 171.879 170.318C171.848 169.767 171.844 169.205 171.867 168.631H173.351C173.305 169.052 173.289 169.507 173.305 169.997C173.32 170.479 173.355 170.941 173.408 171.385C173.47 171.829 173.547 172.212 173.639 172.533C174.022 172.41 174.424 172.292 174.846 172.177C175.276 172.062 175.713 171.948 176.158 171.833L176.434 173.267C175.759 173.344 175.111 173.466 174.49 173.635C173.869 173.795 173.312 173.99 172.822 174.22C172.331 174.441 171.94 174.69 171.648 174.966C171.364 175.233 171.223 175.516 171.223 175.815C171.223 176.136 171.376 176.392 171.683 176.584C171.989 176.775 172.411 176.905 172.948 176.974C173.485 177.035 174.099 177.035 174.789 176.974C175.486 176.905 176.222 176.771 176.997 176.572C176.921 176.764 176.863 177.008 176.825 177.307C176.794 177.605 176.783 177.857 176.79 178.064ZM185.774 178.075C185.744 177.953 185.686 177.808 185.602 177.639C185.517 177.471 185.418 177.31 185.303 177.157C185.195 176.997 185.088 176.867 184.981 176.767C186.031 176.607 186.828 176.266 187.373 175.746C187.926 175.218 188.217 174.598 188.248 173.887C188.278 173.321 188.174 172.816 187.937 172.372C187.699 171.928 187.373 171.569 186.959 171.294C186.552 171.018 186.104 170.854 185.613 170.8C185.552 171.512 185.437 172.238 185.268 172.98C185.099 173.723 184.869 174.418 184.578 175.069C184.294 175.719 183.945 176.27 183.531 176.721C183.216 177.058 182.91 177.253 182.611 177.307C182.319 177.36 182.009 177.318 181.679 177.18C181.357 177.043 181.073 176.825 180.828 176.526C180.582 176.228 180.395 175.876 180.264 175.471C180.134 175.057 180.08 174.618 180.103 174.151C180.141 173.454 180.306 172.82 180.598 172.246C180.889 171.664 181.28 171.164 181.771 170.743C182.262 170.322 182.825 170.005 183.462 169.79C184.099 169.576 184.777 169.488 185.498 169.526C186.081 169.557 186.629 169.687 187.143 169.917C187.657 170.146 188.105 170.464 188.489 170.869C188.88 171.267 189.179 171.73 189.387 172.257C189.601 172.785 189.689 173.363 189.651 173.99C189.597 175.038 189.229 175.918 188.547 176.63C187.864 177.333 186.94 177.815 185.774 178.075ZM182.036 175.757C182.12 175.818 182.208 175.849 182.301 175.849C182.393 175.849 182.485 175.803 182.577 175.711C182.853 175.436 183.106 175.046 183.336 174.541C183.573 174.036 183.769 173.466 183.922 172.831C184.084 172.197 184.187 171.55 184.233 170.892C183.704 171.015 183.232 171.236 182.818 171.558C182.411 171.879 182.089 172.269 181.852 172.728C181.614 173.179 181.479 173.677 181.449 174.22C181.433 174.579 181.479 174.893 181.587 175.161C181.702 175.421 181.852 175.62 182.036 175.757ZM199.245 178.798C199.237 178.646 199.21 178.466 199.164 178.259C199.125 178.052 199.084 177.872 199.038 177.72C198.846 177.972 198.7 178.205 198.601 178.42C198.133 178.259 197.711 178.018 197.335 177.697C196.967 177.375 196.664 177.02 196.427 176.63C196.189 177.066 195.866 177.441 195.46 177.754C195.053 178.067 194.555 178.313 193.965 178.488C193.903 178.351 193.804 178.179 193.666 177.972C193.528 177.758 193.405 177.59 193.298 177.467C193.827 177.337 194.256 177.161 194.586 176.939C194.915 176.718 195.165 176.442 195.334 176.113H193.263V175.161H195.633C195.648 175.077 195.659 174.989 195.667 174.897C195.674 174.797 195.682 174.698 195.69 174.598H193.574V173.646H194.839C194.754 173.5 194.667 173.359 194.574 173.221C194.482 173.084 194.394 172.965 194.31 172.866L195.299 172.418C195.414 172.571 195.544 172.77 195.69 173.015C195.843 173.259 195.966 173.47 196.058 173.646H196.726C196.833 173.47 196.944 173.259 197.059 173.015C197.181 172.77 197.27 172.567 197.324 172.407L198.394 172.751C198.34 172.897 198.274 173.049 198.198 173.21C198.121 173.363 198.044 173.508 197.968 173.646H199.164V174.598H196.956C196.956 174.698 196.948 174.793 196.933 174.885C196.925 174.977 196.913 175.069 196.898 175.161H199.475V176.113H197.404C197.619 176.389 197.883 176.637 198.198 176.859C198.512 177.073 198.88 177.246 199.302 177.375C199.287 177.39 199.268 177.41 199.245 177.433C199.229 177.456 199.214 177.479 199.199 177.502H199.659C199.812 177.502 199.908 177.482 199.947 177.444C199.993 177.398 200.016 177.307 200.016 177.169V172.338H196.795V168.643H201.315V177.628C201.315 178.026 201.208 178.32 200.993 178.511C200.786 178.703 200.445 178.798 199.97 178.798H199.245ZM191.492 178.81V168.643H195.989V172.338H192.791V178.81H191.492ZM198.048 171.385H200.016V170.903H198.048V171.385ZM198.048 170.077H200.016V169.595H198.048V170.077ZM192.791 171.385H194.736V170.903H192.791V171.385ZM192.791 170.077H194.736V169.595H192.791V170.077ZM205.503 178.488V175.207C204.943 175.742 204.471 176.254 204.088 176.744L203.041 175.78C203.363 175.52 203.735 175.203 204.157 174.828C204.578 174.446 205.027 174.067 205.503 173.692V172.143C205.157 172.219 204.82 172.292 204.49 172.361C204.16 172.422 203.896 172.472 203.697 172.51L203.409 171.259C203.616 171.251 203.915 171.217 204.306 171.156C204.705 171.087 205.104 171.015 205.503 170.938V168.792H206.791V170.605C206.89 170.582 206.964 170.556 207.01 170.525L207.746 171.076L206.964 172.636C207.408 172.369 207.856 172.146 208.309 171.971C208.762 171.795 209.199 171.707 209.621 171.707C210.226 171.707 210.763 171.821 211.231 172.051C211.699 172.273 212.063 172.594 212.324 173.015C212.592 173.428 212.727 173.929 212.727 174.518C212.727 175.398 212.405 176.148 211.76 176.767C211.116 177.387 210.165 177.811 208.908 178.041C208.877 177.918 208.819 177.773 208.735 177.605C208.658 177.436 208.57 177.269 208.47 177.1C208.371 176.931 208.271 176.794 208.171 176.687C208.777 176.61 209.317 176.488 209.793 176.32C210.269 176.144 210.645 175.91 210.921 175.62C211.197 175.321 211.335 174.954 211.335 174.518C211.335 173.975 211.185 173.574 210.886 173.313C210.587 173.046 210.165 172.912 209.621 172.912C209.199 172.912 208.742 173.026 208.252 173.256C207.761 173.485 207.274 173.78 206.791 174.139V178.488H205.503ZM218.559 178.764C218.451 178.58 218.298 178.377 218.099 178.156C217.899 177.941 217.708 177.769 217.524 177.639C218.574 177.226 219.383 176.607 219.951 175.78C220.526 174.954 220.813 173.944 220.813 172.751C220.813 172.024 220.683 171.52 220.422 171.236C220.169 170.946 219.862 170.812 219.502 170.835C219.218 170.85 218.954 171.01 218.708 171.317C218.462 171.615 218.283 172.047 218.168 172.613C218.06 173.179 218.064 173.872 218.179 174.69C218.071 174.698 217.93 174.717 217.754 174.748C217.585 174.778 217.42 174.813 217.259 174.851C217.105 174.889 216.99 174.923 216.914 174.954C216.86 174.671 216.814 174.315 216.776 173.887C216.745 173.459 216.718 172.995 216.695 172.498C216.679 172.001 216.668 171.504 216.661 171.007C216.661 170.51 216.668 170.051 216.684 169.63C216.699 169.209 216.722 168.869 216.753 168.608L218.156 168.735C218.117 168.918 218.079 169.156 218.041 169.446C218.01 169.729 217.984 170.031 217.961 170.353C217.938 170.674 217.922 170.984 217.915 171.282C218.091 170.8 218.344 170.402 218.674 170.089C219.011 169.767 219.383 169.603 219.79 169.595C220.257 169.587 220.675 169.702 221.044 169.94C221.412 170.169 221.703 170.521 221.918 170.995C222.132 171.462 222.24 172.047 222.24 172.751C222.24 174.228 221.913 175.451 221.262 176.423C220.618 177.387 219.716 178.167 218.559 178.764Z" fill="#00B6B6"/>
<path d="M174.261 193.641C173.632 193.641 173.064 193.58 172.558 193.457C172.052 193.335 171.653 193.14 171.362 192.872C171.07 192.597 170.925 192.238 170.925 191.794C170.925 191.426 171.036 191.094 171.258 190.795C171.481 190.489 171.788 190.214 172.179 189.969C172.57 189.717 173.014 189.487 173.513 189.281V189.189C173.513 188.921 173.444 188.726 173.306 188.603C173.175 188.474 173.007 188.401 172.8 188.385C172.447 188.363 172.11 188.412 171.788 188.535C171.465 188.657 171.147 188.879 170.833 189.2C170.741 189.292 170.621 189.41 170.476 189.556C170.33 189.694 170.184 189.831 170.039 189.969C169.893 190.107 169.767 190.221 169.659 190.313L168.659 189.326C169.195 188.974 169.701 188.531 170.177 187.995C170.652 187.46 171.055 186.89 171.385 186.286C170.955 186.301 170.564 186.316 170.212 186.331C169.859 186.339 169.594 186.339 169.418 186.331L169.372 185.012C169.632 185.035 169.993 185.046 170.453 185.046C170.921 185.046 171.427 185.035 171.972 185.012C172.148 184.507 172.248 184.033 172.271 183.589L173.64 183.658C173.617 184.063 173.54 184.484 173.41 184.92C173.977 184.874 174.502 184.825 174.985 184.771C175.476 184.71 175.852 184.641 176.113 184.564L176.193 185.838C175.978 185.876 175.699 185.918 175.354 185.964C175.009 186.002 174.625 186.041 174.203 186.079C173.789 186.117 173.364 186.151 172.926 186.182C172.826 186.397 172.711 186.615 172.581 186.836C172.458 187.051 172.328 187.257 172.19 187.456C172.496 187.333 172.807 187.272 173.122 187.272C173.574 187.272 173.954 187.391 174.261 187.628C174.575 187.865 174.771 188.256 174.847 188.799C175.277 188.653 175.714 188.523 176.159 188.408C176.611 188.286 177.048 188.175 177.47 188.076L177.861 189.338C177.324 189.415 176.803 189.51 176.297 189.625C175.791 189.732 175.319 189.854 174.882 189.992V191.518H173.525V190.508C173.141 190.692 172.834 190.883 172.604 191.082C172.374 191.274 172.259 191.457 172.259 191.633C172.259 191.893 172.416 192.077 172.731 192.184C173.045 192.283 173.525 192.333 174.169 192.333C174.429 192.333 174.721 192.318 175.043 192.287C175.372 192.249 175.699 192.203 176.021 192.149C176.35 192.088 176.638 192.023 176.884 191.954C176.868 192.054 176.853 192.199 176.838 192.39C176.83 192.574 176.826 192.757 176.826 192.941C176.826 193.125 176.83 193.262 176.838 193.354C176.462 193.446 176.039 193.515 175.572 193.561C175.104 193.615 174.667 193.641 174.261 193.641ZM180.335 193.939C180.273 193.817 180.189 193.672 180.081 193.503C179.982 193.343 179.874 193.186 179.759 193.033C179.652 192.887 179.552 192.773 179.46 192.689C180.312 192.39 181.063 191.985 181.715 191.472C182.374 190.959 182.907 190.374 183.314 189.717C183.728 189.059 183.988 188.363 184.096 187.628H179.794V186.308H184.154V183.474H185.603V186.308H189.974V187.628H185.672C185.794 188.347 186.067 189.04 186.489 189.705C186.91 190.363 187.447 190.948 188.099 191.461C188.759 191.974 189.495 192.375 190.308 192.666C190.208 192.765 190.096 192.892 189.974 193.044C189.859 193.197 189.748 193.354 189.641 193.515C189.541 193.683 189.464 193.825 189.411 193.939C188.774 193.649 188.16 193.289 187.57 192.861C186.979 192.425 186.45 191.931 185.983 191.38C185.515 190.822 185.146 190.214 184.878 189.556C184.609 190.214 184.238 190.822 183.762 191.38C183.287 191.939 182.75 192.433 182.152 192.861C181.561 193.289 180.956 193.649 180.335 193.939ZM194.955 193.894C194.886 193.779 194.79 193.645 194.668 193.492C194.545 193.339 194.422 193.197 194.299 193.067C194.177 192.937 194.085 192.849 194.023 192.803C194.645 192.551 195.154 192.238 195.553 191.862C195.952 191.48 196.262 191.01 196.485 190.451C196.715 189.885 196.876 189.204 196.968 188.408C197.06 187.605 197.11 186.661 197.118 185.574H195.082V184.243H201.247V186.446C201.247 187.471 201.224 188.408 201.178 189.258C201.14 190.099 201.094 190.757 201.04 191.231C200.979 191.874 200.848 192.375 200.649 192.735C200.449 193.094 200.181 193.346 199.844 193.492C199.506 193.637 199.096 193.71 198.613 193.71H197.877C197.861 193.511 197.823 193.274 197.762 192.998C197.7 192.723 197.635 192.501 197.566 192.333H198.579C198.87 192.333 199.1 192.253 199.269 192.092C199.437 191.923 199.568 191.576 199.66 191.048C199.698 190.833 199.733 190.5 199.764 190.049C199.802 189.598 199.828 189.062 199.844 188.443C199.867 187.823 199.879 187.158 199.879 186.446V185.574H198.498C198.49 186.859 198.421 187.953 198.291 188.856C198.168 189.759 197.969 190.52 197.693 191.139C197.417 191.759 197.052 192.287 196.6 192.723C196.155 193.151 195.607 193.541 194.955 193.894ZM193.563 191.518C193.141 191.518 192.839 191.449 192.655 191.312C192.478 191.174 192.39 190.941 192.39 190.612V188.454C192.129 188.515 191.884 188.577 191.654 188.638C191.431 188.692 191.24 188.738 191.079 188.776L190.802 187.41C190.994 187.372 191.228 187.326 191.504 187.272C191.78 187.219 192.075 187.161 192.39 187.1V183.876H193.805V186.802C194.249 186.702 194.671 186.607 195.07 186.515C195.469 186.423 195.795 186.339 196.048 186.263L196.29 187.571C196.044 187.625 195.691 187.701 195.231 187.8C194.778 187.9 194.303 188.007 193.805 188.122V189.9C193.805 189.977 193.82 190.034 193.851 190.072C193.889 190.11 193.969 190.13 194.092 190.13H194.357C194.472 190.13 194.568 190.103 194.645 190.049C194.721 189.996 194.786 189.877 194.84 189.694C194.893 189.51 194.936 189.223 194.967 188.833C195.112 188.91 195.304 188.99 195.542 189.074C195.787 189.151 196.017 189.215 196.232 189.269C196.163 189.874 196.059 190.34 195.921 190.669C195.783 190.99 195.599 191.212 195.369 191.335C195.139 191.457 194.844 191.518 194.484 191.518H193.563ZM203.87 193.113C203.816 192.8 203.774 192.417 203.744 191.966C203.713 191.507 203.69 191.01 203.675 190.474C203.667 189.931 203.667 189.372 203.675 188.799C203.69 188.225 203.713 187.666 203.744 187.123C203.782 186.572 203.828 186.064 203.882 185.597C203.943 185.13 204.012 184.733 204.089 184.404L205.435 184.679C205.35 184.954 205.277 185.314 205.216 185.758C205.154 186.194 205.105 186.676 205.067 187.204C205.028 187.723 205.001 188.259 204.986 188.81C204.978 189.361 204.982 189.897 204.998 190.417C205.013 190.937 205.039 191.407 205.078 191.828C205.116 192.249 205.166 192.589 205.228 192.849L203.87 193.113ZM208.759 192.494C207.432 192.456 206.681 192.023 206.504 191.197C206.458 190.99 206.443 190.761 206.458 190.508C206.474 190.256 206.531 189.977 206.631 189.671L207.839 189.969C207.785 190.115 207.754 190.244 207.747 190.359C207.747 190.474 207.762 190.577 207.793 190.669C207.892 190.944 208.299 191.094 209.012 191.117C209.357 191.124 209.725 191.113 210.116 191.082C210.515 191.044 210.902 190.99 211.278 190.921C211.662 190.853 211.995 190.776 212.279 190.692C212.263 190.799 212.245 190.944 212.222 191.128C212.206 191.312 212.194 191.499 212.187 191.69C212.179 191.874 212.179 192.027 212.187 192.149C211.826 192.241 211.439 192.314 211.025 192.367C210.618 192.421 210.216 192.459 209.817 192.482C209.426 192.497 209.073 192.501 208.759 192.494ZM207.034 186.894L206.953 185.482C207.244 185.52 207.601 185.543 208.023 185.551C208.444 185.559 208.881 185.555 209.334 185.54C209.794 185.517 210.232 185.482 210.646 185.436C211.067 185.383 211.416 185.318 211.692 185.241L211.635 186.63C211.328 186.684 210.971 186.733 210.565 186.779C210.158 186.817 209.737 186.848 209.3 186.871C208.87 186.894 208.456 186.909 208.057 186.917C207.666 186.917 207.325 186.909 207.034 186.894ZM171.615 208.886C171.523 208.733 171.4 208.549 171.247 208.335C171.093 208.121 170.917 207.937 170.718 207.784C171.53 207.555 172.156 207.291 172.593 206.992C173.03 206.686 173.333 206.327 173.502 205.914C173.256 206.036 173.011 206.097 172.765 206.097C172.182 206.097 171.711 205.933 171.35 205.604C170.997 205.275 170.81 204.831 170.787 204.273C170.771 203.89 170.848 203.55 171.017 203.251C171.185 202.945 171.423 202.704 171.73 202.529C172.036 202.353 172.386 202.265 172.777 202.265C172.838 202.265 172.892 202.268 172.938 202.276C172.984 202.276 173.034 202.28 173.087 202.288C173.072 202.15 173.057 202.009 173.041 201.863C173.026 201.717 173.018 201.565 173.018 201.404C172.397 201.427 171.791 201.461 171.201 201.507C170.61 201.553 170.069 201.607 169.579 201.668C169.088 201.722 168.682 201.786 168.36 201.863L168.164 200.532C168.44 200.509 168.827 200.486 169.326 200.463C169.824 200.432 170.391 200.402 171.028 200.371C171.673 200.34 172.335 200.31 173.018 200.279V198.661H174.353V200.222C174.951 200.199 175.522 200.18 176.067 200.165C176.611 200.142 177.098 200.127 177.528 200.119C177.957 200.104 178.294 200.099 178.54 200.107L178.448 201.45C178.003 201.396 177.413 201.366 176.676 201.358C175.947 201.343 175.173 201.343 174.353 201.358C174.353 201.633 174.36 201.912 174.376 202.196C174.399 202.479 174.418 202.75 174.433 203.01C174.809 203.454 174.997 204.043 174.997 204.778C174.997 205.795 174.702 206.652 174.111 207.348C173.52 208.037 172.688 208.549 171.615 208.886ZM172.777 204.95C172.991 204.935 173.16 204.862 173.283 204.732C173.405 204.602 173.467 204.433 173.467 204.227C173.467 204.158 173.459 204.086 173.444 204.009C173.436 203.925 173.425 203.837 173.41 203.745C173.248 203.561 173.045 203.469 172.8 203.469C172.585 203.469 172.404 203.538 172.259 203.676C172.113 203.814 172.044 203.989 172.052 204.204C172.052 204.426 172.117 204.609 172.248 204.755C172.386 204.892 172.562 204.958 172.777 204.95ZM185.2 208.461C184.28 208.461 183.601 208.289 183.164 207.945C182.727 207.593 182.509 207.164 182.509 206.66C182.509 206.33 182.589 206.051 182.75 205.822C182.911 205.592 183.122 205.417 183.383 205.294C183.643 205.164 183.924 205.099 184.223 205.099C184.79 205.099 185.246 205.275 185.592 205.627C185.944 205.979 186.17 206.415 186.27 206.935C186.553 206.805 186.784 206.606 186.96 206.338C187.144 206.071 187.236 205.749 187.236 205.374C187.236 205.053 187.16 204.766 187.006 204.514C186.853 204.261 186.634 204.063 186.351 203.917C186.075 203.764 185.753 203.688 185.384 203.688C184.87 203.688 184.422 203.748 184.039 203.871C183.663 203.994 183.321 204.189 183.015 204.456C182.877 204.579 182.693 204.735 182.463 204.927C182.24 205.118 182.029 205.29 181.83 205.443L180.887 204.433C181.232 204.235 181.6 203.982 181.991 203.676C182.382 203.37 182.777 203.03 183.176 202.655C183.574 202.28 183.954 201.894 184.315 201.496C184.675 201.091 184.997 200.693 185.281 200.302C184.951 200.379 184.591 200.452 184.2 200.52C183.816 200.589 183.444 200.647 183.084 200.693C182.731 200.738 182.432 200.769 182.187 200.784L181.933 199.476C182.141 199.491 182.397 199.491 182.704 199.476C183.018 199.453 183.356 199.427 183.716 199.396C184.077 199.358 184.425 199.312 184.763 199.258C185.108 199.204 185.415 199.151 185.684 199.097C185.96 199.037 186.162 198.975 186.293 198.914L187.328 199.602C187.068 200.115 186.707 200.655 186.247 201.22C185.794 201.779 185.308 202.318 184.786 202.838C184.916 202.777 185.062 202.732 185.223 202.701C185.384 202.663 185.541 202.643 185.695 202.643C186.3 202.643 186.826 202.758 187.271 202.988C187.715 203.217 188.06 203.538 188.306 203.951C188.559 204.357 188.686 204.831 188.686 205.374C188.686 205.948 188.54 206.468 188.249 206.935C187.965 207.402 187.562 207.773 187.041 208.048C186.519 208.323 185.906 208.461 185.2 208.461ZM185.051 207.199C185.012 206.908 184.92 206.675 184.775 206.499C184.637 206.323 184.453 206.235 184.223 206.235C184.1 206.235 183.996 206.266 183.912 206.327C183.827 206.388 183.785 206.48 183.785 206.602C183.785 206.763 183.87 206.897 184.039 207.004C184.215 207.111 184.506 207.172 184.913 207.187C184.936 207.195 184.959 207.199 184.982 207.199C185.005 207.199 185.028 207.199 185.051 207.199ZM199.879 209.069C199.787 208.894 199.664 208.699 199.51 208.484C199.365 208.27 199.2 208.052 199.016 207.83C198.663 207.891 198.257 207.956 197.796 208.025C197.336 208.094 196.849 208.163 196.336 208.232C195.822 208.301 195.312 208.361 194.806 208.415C194.307 208.476 193.839 208.526 193.402 208.564C192.972 208.61 192.604 208.645 192.298 208.668L192.033 207.302C192.202 207.302 192.409 207.299 192.655 207.291C192.908 207.276 193.179 207.256 193.471 207.233C193.647 206.966 193.828 206.648 194.012 206.281C194.203 205.914 194.372 205.566 194.518 205.237H191.688V204.009H201.109V205.237H198.337C198.544 205.397 198.774 205.6 199.027 205.845C199.28 206.089 199.537 206.353 199.798 206.637C200.058 206.912 200.296 207.184 200.511 207.451C200.733 207.719 200.91 207.953 201.04 208.151C200.94 208.212 200.814 208.301 200.661 208.415C200.507 208.53 200.357 208.645 200.212 208.76C200.066 208.882 199.955 208.985 199.879 209.069ZM191.619 203.309C191.565 203.202 191.488 203.076 191.389 202.93C191.289 202.785 191.182 202.643 191.067 202.506C190.952 202.368 190.844 202.257 190.745 202.173C191.22 201.989 191.707 201.752 192.206 201.461C192.712 201.163 193.199 200.838 193.667 200.486C194.134 200.127 194.553 199.763 194.921 199.396C195.289 199.021 195.572 198.669 195.772 198.34L197.072 198.524C197.317 198.853 197.631 199.189 198.015 199.534C198.398 199.878 198.816 200.207 199.269 200.52C199.729 200.827 200.196 201.106 200.672 201.358C201.148 201.611 201.604 201.817 202.041 201.978C201.926 202.07 201.803 202.196 201.673 202.356C201.542 202.509 201.42 202.666 201.305 202.827C201.197 202.988 201.117 203.125 201.063 203.24C200.764 203.11 200.454 202.957 200.132 202.781C199.817 202.605 199.499 202.414 199.177 202.207V203.183H193.621V202.173C193.268 202.41 192.919 202.628 192.574 202.827C192.229 203.018 191.91 203.179 191.619 203.309ZM193.943 201.943H198.797C198.329 201.622 197.884 201.278 197.463 200.911C197.041 200.535 196.684 200.161 196.393 199.786C196.132 200.13 195.783 200.494 195.346 200.876C194.909 201.251 194.441 201.607 193.943 201.943ZM195.162 207.096C195.676 207.05 196.186 207 196.692 206.946C197.198 206.886 197.658 206.828 198.073 206.774C197.743 206.438 197.451 206.178 197.198 205.994L198.096 205.237H196.129C195.998 205.535 195.845 205.848 195.668 206.178C195.499 206.499 195.33 206.805 195.162 207.096ZM206.85 208.53V207.21H209.438V203.217H207.494V201.897H209.438V198.512H210.83V201.897H212.831V203.217H210.83V207.21H213.142V208.53H206.85ZM204.56 208.897V205.076C204.345 205.268 204.123 205.458 203.893 205.65C203.663 205.833 203.425 206.009 203.18 206.178C203.08 206.025 202.934 205.845 202.743 205.638C202.551 205.432 202.386 205.271 202.248 205.156C202.555 204.981 202.877 204.763 203.215 204.502C203.56 204.235 203.897 203.944 204.227 203.63C204.556 203.309 204.855 202.988 205.124 202.666C205.392 202.337 205.607 202.032 205.768 201.748H202.858V200.509H204.549V198.501H205.883V200.509H206.942L207.563 201.025C207.241 201.745 206.822 202.448 206.309 203.137C206.508 203.274 206.723 203.42 206.953 203.573C207.19 203.718 207.417 203.856 207.632 203.986C207.846 204.109 208.023 204.207 208.161 204.284C208.084 204.361 207.992 204.468 207.885 204.606C207.785 204.735 207.685 204.873 207.586 205.019C207.494 205.156 207.42 205.275 207.367 205.374C207.16 205.237 206.926 205.08 206.665 204.904C206.405 204.72 206.148 204.54 205.895 204.365V208.897H204.56Z" fill="#111111"/>
<path d="M58.5083 277.367C80.1556 277.367 97.7041 259.862 97.7041 238.267C97.7041 216.673 80.1556 199.167 58.5083 199.167C36.8611 199.167 19.3125 216.673 19.3125 238.267C19.3125 259.862 36.8611 277.367 58.5083 277.367Z" fill="white"/>
<path d="M96.8613 238.267C96.8611 217.148 79.6972 200.016 58.5088 200.016C37.3205 200.016 20.1565 217.148 20.1562 238.267C20.1562 259.385 37.3203 276.518 58.5088 276.519C79.6973 276.519 96.8613 259.385 96.8613 238.267ZM102.861 238.267C102.861 262.713 82.9972 282.519 58.5088 282.519C34.0205 282.518 14.1562 262.713 14.1562 238.267C14.1565 213.821 34.0206 194.016 58.5088 194.016C82.997 194.016 102.861 213.82 102.861 238.267Z" fill="url(#paint6_linear_1099_12587)" fill-opacity="0.3"/>
<path d="M43.9648 227.271V217.601H46.5401C46.6178 217.403 46.6954 217.184 46.7731 216.943C46.8594 216.702 46.9327 216.478 46.9931 216.272C47.0621 216.065 47.1009 215.923 47.1095 215.846L48.999 216.026C48.9472 216.19 48.848 216.427 48.7013 216.736C48.5633 217.038 48.4252 217.326 48.2872 217.601H52.6225V227.271H43.9648ZM45.5825 225.902H51.0048V224.482H45.5825V225.902ZM45.5825 223.14H51.0048V221.72H45.5825V223.14ZM45.5825 220.39H51.0048V218.97H45.5825V220.39ZM56.7378 227.684C56.6774 227.512 56.5652 227.288 56.4013 227.012C56.246 226.746 56.0821 226.53 55.9096 226.367C57.0311 226.057 57.9025 225.545 58.5237 224.831C59.1448 224.108 59.5115 223.264 59.6237 222.3H57.6695V221.152C57.3935 221.41 57.1131 221.651 56.8284 221.874C56.5523 222.09 56.2762 222.283 56.0001 222.455C55.888 222.283 55.7197 222.077 55.4954 221.836C55.2797 221.595 55.0727 221.392 54.8743 221.229C55.366 220.962 55.8578 220.614 56.3496 220.183C56.8499 219.744 57.3029 219.258 57.7084 218.725C58.1225 218.191 58.4417 217.653 58.666 217.111L60.1413 217.847C59.8997 218.372 59.5978 218.884 59.2354 219.383C58.8731 219.882 58.4762 220.347 58.0448 220.777H64.3472C63.8813 220.338 63.4715 219.856 63.1178 219.331C62.7727 218.806 62.5225 218.251 62.3672 217.666H60.2319V216.207H63.6354C63.7562 217.18 64.166 218.066 64.8648 218.867C65.5637 219.658 66.4782 220.325 67.6084 220.867C67.4876 220.979 67.3539 221.121 67.2072 221.294C67.0692 221.466 66.9354 221.642 66.806 221.823C66.6852 221.995 66.586 222.15 66.5084 222.288C66.2409 222.15 65.9778 221.999 65.719 221.836C65.4688 221.672 65.2186 221.496 64.9684 221.306C64.9597 221.849 64.9339 222.421 64.8907 223.023C64.8562 223.617 64.8045 224.181 64.7354 224.715C64.675 225.24 64.5974 225.666 64.5025 225.993C64.3386 226.604 64.0625 227.021 63.6743 227.245C63.2946 227.477 62.7727 227.593 62.1084 227.593H61.0731C61.0558 227.447 61.0299 227.271 60.9954 227.064C60.9609 226.866 60.9178 226.672 60.866 226.483C60.8229 226.285 60.7754 226.126 60.7237 226.005H61.8754C62.2205 226.005 62.4707 225.954 62.626 225.851C62.7899 225.747 62.9194 225.549 63.0143 225.257C63.0833 225.042 63.1394 224.758 63.1825 224.405C63.2343 224.043 63.2731 223.673 63.299 223.294C63.3248 222.907 63.3378 222.576 63.3378 222.3H61.1896C61.0774 223.548 60.6546 224.65 59.9213 225.605C59.1966 226.552 58.1354 227.245 56.7378 227.684ZM75.1531 227.426C74.4456 227.426 73.8072 227.357 73.2378 227.219C72.6684 227.081 72.2197 226.862 71.8919 226.561C71.5641 226.251 71.4001 225.846 71.4001 225.347C71.4001 224.934 71.5252 224.56 71.7754 224.224C72.0256 223.88 72.3707 223.57 72.8107 223.294C73.2507 223.01 73.7511 222.752 74.3119 222.52V222.417C74.3119 222.115 74.2343 221.896 74.079 221.758C73.9323 221.612 73.7425 221.53 73.5095 221.513C73.1127 221.487 72.7331 221.543 72.3707 221.681C72.0084 221.819 71.6503 222.068 71.2966 222.43C71.1931 222.533 71.0594 222.666 70.8954 222.83C70.7315 222.985 70.5676 223.14 70.4037 223.294C70.2397 223.449 70.0974 223.578 69.9766 223.682L68.8507 222.572C69.4547 222.176 70.0241 221.676 70.559 221.074C71.0939 220.472 71.5468 219.83 71.9178 219.151C71.4346 219.168 70.9947 219.185 70.5978 219.202C70.2009 219.211 69.9033 219.211 69.7048 219.202L69.6531 217.718C69.9464 217.743 70.3519 217.756 70.8696 217.756C71.3958 217.756 71.9652 217.743 72.5778 217.718C72.7762 217.15 72.8884 216.616 72.9143 216.117L74.4543 216.194C74.4284 216.65 74.3421 217.124 74.1954 217.614C74.8339 217.563 75.4248 217.507 75.9684 217.446C76.5205 217.378 76.9433 217.3 77.2366 217.214L77.3272 218.647C77.0856 218.69 76.7707 218.737 76.3825 218.789C75.9943 218.832 75.5629 218.875 75.0884 218.918C74.6225 218.961 74.1437 219 73.6519 219.034C73.5397 219.275 73.4103 219.521 73.2637 219.77C73.1256 220.011 72.979 220.244 72.8237 220.467C73.1688 220.33 73.5182 220.261 73.8719 220.261C74.3809 220.261 74.808 220.394 75.1531 220.661C75.5068 220.928 75.7268 221.367 75.8131 221.978C76.2962 221.814 76.788 221.668 77.2884 221.539C77.7974 221.401 78.2892 221.276 78.7637 221.164L79.2037 222.584C78.5997 222.671 78.0131 222.778 77.4437 222.907C76.8743 223.028 76.3437 223.165 75.8519 223.32V225.037H74.3248V223.901C73.8935 224.108 73.5484 224.323 73.2895 224.547C73.0307 224.762 72.9013 224.968 72.9013 225.166C72.9013 225.459 73.0782 225.666 73.4319 225.786C73.7856 225.898 74.3248 225.954 75.0496 225.954C75.3429 225.954 75.6707 225.937 76.0331 225.902C76.4041 225.859 76.7707 225.808 77.1331 225.747C77.5041 225.678 77.8276 225.605 78.1037 225.528C78.0864 225.64 78.0692 225.803 78.0519 226.018C78.0433 226.225 78.039 226.431 78.039 226.638C78.039 226.845 78.0433 227 78.0519 227.103C77.6292 227.206 77.1547 227.284 76.6284 227.335C76.1021 227.395 75.6103 227.426 75.1531 227.426ZM58.679 260.83C58.5754 260.632 58.4374 260.412 58.2648 260.171C58.1009 259.93 57.9154 259.685 57.7084 259.435C57.3115 259.504 56.8543 259.577 56.3366 259.655C55.819 259.732 55.2711 259.81 54.6931 259.887C54.115 259.965 53.5413 260.033 52.9719 260.094C52.4111 260.163 51.8848 260.219 51.3931 260.262C50.9099 260.313 50.4958 260.352 50.1507 260.378L49.8531 258.842C50.0429 258.842 50.2758 258.837 50.5519 258.829C50.8366 258.811 51.1429 258.79 51.4707 258.764C51.6692 258.463 51.8719 258.106 52.079 257.693C52.2946 257.279 52.4845 256.888 52.6484 256.518H49.4648V255.136H60.0637V256.518H56.9448C57.1778 256.699 57.4366 256.927 57.7213 257.202C58.006 257.477 58.295 257.774 58.5884 258.093C58.8817 258.403 59.1492 258.708 59.3907 259.009C59.6409 259.311 59.8394 259.573 59.986 259.797C59.8739 259.866 59.7315 259.965 59.559 260.094C59.3864 260.223 59.2182 260.352 59.0543 260.481C58.8903 260.619 58.7652 260.735 58.679 260.83ZM49.3872 254.349C49.3268 254.229 49.2405 254.087 49.1284 253.923C49.0162 253.759 48.8954 253.6 48.766 253.445C48.6366 253.29 48.5158 253.166 48.4037 253.071C48.9386 252.864 49.4864 252.598 50.0472 252.271C50.6166 251.935 51.1645 251.569 51.6907 251.173C52.217 250.769 52.6872 250.36 53.1013 249.947C53.5154 249.525 53.8346 249.129 54.059 248.759L55.5213 248.966C55.7974 249.336 56.1511 249.715 56.5825 250.102C57.0139 250.489 57.4841 250.859 57.9931 251.212C58.5107 251.556 59.037 251.87 59.5719 252.154C60.1068 252.438 60.6201 252.671 61.1119 252.852C60.9825 252.955 60.8445 253.097 60.6978 253.278C60.5511 253.45 60.4131 253.626 60.2837 253.807C60.1629 253.988 60.0723 254.142 60.0119 254.272C59.6754 254.125 59.326 253.953 58.9637 253.755C58.6099 253.557 58.2519 253.342 57.8896 253.11V254.207H51.639V253.071C51.2421 253.338 50.8495 253.583 50.4613 253.807C50.0731 254.022 49.715 254.203 49.3872 254.349ZM52.0013 252.813H57.4625C56.9362 252.451 56.4358 252.064 55.9613 251.651C55.4868 251.229 55.0856 250.808 54.7578 250.386C54.4645 250.773 54.0719 251.182 53.5801 251.612C53.0884 252.034 52.5621 252.434 52.0013 252.813ZM53.3731 258.609C53.9511 258.558 54.5248 258.502 55.0943 258.441C55.6637 258.372 56.1813 258.308 56.6472 258.248C56.2762 257.869 55.9484 257.576 55.6637 257.37L56.6731 256.518H54.4601C54.3135 256.853 54.1409 257.206 53.9425 257.576C53.7527 257.938 53.5629 258.282 53.3731 258.609ZM66.5213 260.223V258.738H69.4331V254.246H67.246V252.761H69.4331V248.953H70.999V252.761H73.2507V254.246H70.999V258.738H73.6001V260.223H66.5213ZM63.946 260.636V256.337C63.7045 256.552 63.4543 256.767 63.1954 256.983C62.9366 257.189 62.6692 257.387 62.3931 257.576C62.2809 257.404 62.117 257.202 61.9013 256.97C61.6856 256.737 61.5001 256.557 61.3448 256.427C61.6899 256.229 62.0523 255.984 62.4319 255.692C62.8201 255.39 63.1997 255.063 63.5707 254.71C63.9417 254.349 64.2782 253.988 64.5801 253.626C64.8821 253.256 65.1237 252.912 65.3048 252.593H62.0307V251.199H63.9331V248.94H65.4343V251.199H66.6248L67.3237 251.78C66.9613 252.589 66.4911 253.381 65.9131 254.155C66.1374 254.31 66.379 254.474 66.6378 254.646C66.9052 254.809 67.1597 254.964 67.4013 255.111C67.6429 255.248 67.8413 255.36 67.9966 255.446C67.9103 255.532 67.8068 255.653 67.686 255.808C67.5739 255.954 67.4617 256.109 67.3495 256.273C67.246 256.427 67.1641 256.561 67.1037 256.673C66.8707 256.518 66.6076 256.341 66.3143 256.143C66.0209 255.937 65.7319 255.735 65.4472 255.537V260.636H63.946Z" fill="#111111"/>
<path d="M28.1262 238.809C28.0485 238.654 27.9364 238.473 27.7897 238.266C27.6431 238.051 27.5007 237.879 27.3627 237.75C27.8113 237.561 28.1952 237.337 28.5144 237.079C28.8423 236.812 29.114 236.519 29.3297 236.201C29.1227 236.089 28.9156 235.986 28.7085 235.891C28.5015 235.796 28.3031 235.719 28.1133 235.659L28.7733 234.523C28.9458 234.583 29.127 234.656 29.3168 234.742C29.5066 234.82 29.6964 234.906 29.8862 235C29.9293 234.854 29.9638 234.708 29.9897 234.561C30.0156 234.415 30.0372 234.265 30.0544 234.11H28.0874V232.845H34.2991C34.2991 233.292 34.2905 233.774 34.2733 234.29C34.256 234.798 34.2301 235.28 34.1956 235.736C34.1611 236.192 34.1136 236.562 34.0533 236.846C33.9411 237.423 33.7384 237.823 33.445 238.047C33.1517 238.262 32.7203 238.37 32.1509 238.37H31.5297C31.5211 238.249 31.5038 238.107 31.478 237.944C31.4521 237.78 31.4176 237.617 31.3744 237.453L31.3615 237.479C31.1199 237.29 30.8309 237.087 30.4944 236.872C30.227 237.268 29.8948 237.63 29.498 237.957C29.1097 238.284 28.6525 238.568 28.1262 238.809ZM23.3509 243.895V240.177H27.2721V242.552C27.3842 242.32 27.4964 242.049 27.6085 241.739C27.7293 241.429 27.8329 241.119 27.9191 240.81C28.014 240.5 28.0831 240.229 28.1262 239.996L29.3685 240.255C29.2909 240.754 29.1485 241.287 28.9415 241.855C28.7431 242.423 28.5187 242.918 28.2685 243.34C28.1478 243.262 27.9925 243.185 27.8027 243.108C27.6215 243.021 27.4446 242.948 27.2721 242.888V243.895H23.3509ZM30.6109 244.011C30.214 244.011 29.9293 243.947 29.7568 243.818C29.5842 243.688 29.498 243.465 29.498 243.146V239.712H30.6885C30.378 239.428 30.0803 239.196 29.7956 239.015L30.585 238.073C30.8611 238.254 31.1631 238.482 31.4909 238.757C31.8274 239.032 32.125 239.308 32.3838 239.583C32.2717 239.695 32.125 239.854 31.9438 240.061C31.7713 240.259 31.6289 240.431 31.5168 240.577C31.4305 240.465 31.327 240.349 31.2062 240.229C31.094 240.1 30.9689 239.975 30.8309 239.854V242.333C30.8309 242.445 30.8525 242.522 30.8956 242.565C30.9387 242.608 31.025 242.63 31.1544 242.63H31.478C31.5987 242.63 31.6893 242.608 31.7497 242.565C31.8101 242.514 31.8533 242.41 31.8791 242.256C31.9136 242.092 31.9395 241.842 31.9568 241.507C32.0517 241.55 32.1768 241.601 32.3321 241.662C32.496 241.713 32.6642 241.765 32.8368 241.817C33.0093 241.86 33.156 241.898 33.2768 241.933C33.225 242.492 33.1344 242.923 33.005 243.224C32.8842 243.525 32.7117 243.732 32.4874 243.843C32.2631 243.955 31.974 244.011 31.6203 244.011H30.6109ZM22.8203 235.878V234.703H27.6862V235.878H22.8203ZM23.4544 234.071V232.857H27.1168V234.071H23.4544ZM23.4415 239.519V238.331H27.1168V239.519H23.4415ZM23.4415 237.698V236.511H27.1168V237.698H23.4415ZM33.9627 243.056C33.8505 242.789 33.7038 242.492 33.5227 242.165C33.3415 241.838 33.1431 241.52 32.9274 241.21C32.7203 240.891 32.5133 240.616 32.3062 240.384L33.3544 239.661C33.5787 239.91 33.7987 240.194 34.0144 240.513C34.2387 240.831 34.4458 241.154 34.6356 241.481C34.8254 241.799 34.9807 242.083 35.1015 242.333C34.998 242.376 34.8685 242.445 34.7133 242.54C34.5666 242.626 34.4242 242.716 34.2862 242.811C34.1482 242.905 34.0403 242.987 33.9627 243.056ZM31.6203 237.014H31.9309C32.2415 237.014 32.4356 236.967 32.5133 236.872C32.5995 236.778 32.6642 236.614 32.7074 236.382C32.7419 236.227 32.7678 236.016 32.785 235.749C32.8109 235.482 32.8282 235.203 32.8368 234.91C32.854 234.609 32.8627 234.342 32.8627 234.11H31.4003C31.3744 234.376 31.3356 234.639 31.2838 234.897C31.2407 235.147 31.1803 235.388 31.1027 235.62C31.2925 235.723 31.4736 235.831 31.6462 235.943C31.8187 236.046 31.974 236.145 32.1121 236.24C32.0517 236.326 31.974 236.442 31.8791 236.588C31.7929 236.726 31.7066 236.868 31.6203 237.014ZM24.7097 242.707H25.9133V241.365H24.7097V242.707ZM42.3874 243.469C42.3356 243.271 42.2278 243.03 42.0638 242.746C41.9085 242.462 41.7446 242.23 41.5721 242.049C42.7972 241.98 43.7333 241.683 44.3803 241.158C45.036 240.633 45.3638 239.923 45.3638 239.028C45.3638 238.477 45.1999 238.004 44.8721 237.608C44.5442 237.212 44.0956 236.928 43.5262 236.756C43.0603 237.763 42.5297 238.68 41.9344 239.506C42.1933 239.695 42.4434 239.85 42.685 239.971C42.5125 240.1 42.3399 240.285 42.1674 240.526C41.9948 240.758 41.8611 240.969 41.7662 241.158C41.6368 241.089 41.5074 241.016 41.378 240.939C41.2485 240.853 41.1191 240.762 40.9897 240.668C40.4548 241.261 39.9199 241.713 39.385 242.023C38.9019 242.307 38.4489 242.445 38.0262 242.436C37.6121 242.419 37.2756 242.26 37.0168 241.959C36.7666 241.649 36.6415 241.193 36.6415 240.59C36.6415 239.962 36.7795 239.351 37.0556 238.757C37.3317 238.155 37.6983 237.617 38.1556 237.143C37.8968 236.661 37.6638 236.184 37.4568 235.71C37.2584 235.228 37.0944 234.781 36.965 234.368L38.3238 233.826C38.3842 234.187 38.4921 234.574 38.6474 234.987C38.8027 235.401 38.9968 235.822 39.2297 236.253C39.687 235.951 40.1701 235.719 40.6791 235.555C41.1968 235.383 41.7231 235.297 42.258 235.297H42.5427C42.6893 234.893 42.8144 234.488 42.918 234.084C43.0301 233.671 43.1078 233.279 43.1509 232.909L44.7038 233.296C44.6262 233.666 44.5313 234.041 44.4191 234.419C44.3156 234.79 44.1905 235.164 44.0438 235.543C44.6564 235.723 45.174 235.99 45.5968 236.343C46.0282 236.687 46.356 237.092 46.5803 237.556C46.8133 238.013 46.9297 238.503 46.9297 239.028C46.9297 239.803 46.7572 240.504 46.4121 241.132C46.067 241.752 45.558 242.264 44.885 242.669C44.2121 243.073 43.3795 243.34 42.3874 243.469ZM38.7121 240.823C39.1262 240.599 39.5489 240.237 39.9803 239.738C39.7819 239.523 39.5921 239.299 39.4109 239.067C39.2297 238.826 39.0529 238.585 38.8803 238.344C38.6129 238.671 38.4015 239.024 38.2462 239.403C38.0995 239.781 38.0262 240.168 38.0262 240.564C38.0262 240.977 38.2548 241.064 38.7121 240.823ZM40.8733 238.563C41.2787 237.944 41.6497 237.29 41.9862 236.601C41.6238 236.627 41.2658 236.709 40.9121 236.846C40.5583 236.976 40.2262 237.152 39.9156 237.376C40.2089 237.789 40.5282 238.185 40.8733 238.563ZM57.8262 243.74C56.9289 243.637 56.1352 243.379 55.445 242.966C54.7548 242.544 54.2156 241.997 53.8274 241.326C53.4391 240.646 53.245 239.876 53.245 239.015C53.245 238.396 53.396 237.767 53.698 237.13C53.9999 236.485 54.4442 235.913 55.0309 235.413C54.3407 235.525 53.6548 235.646 52.9733 235.775C52.2917 235.895 51.6705 236.012 51.1097 236.124C50.5576 236.235 50.1305 236.334 49.8285 236.42L49.4791 234.742C49.7638 234.725 50.1564 234.686 50.6568 234.626C51.1658 234.566 51.7352 234.493 52.365 234.407C53.0034 234.312 53.6591 234.213 54.3321 234.11C55.0136 233.998 55.6693 233.886 56.2991 233.774C56.9376 233.662 57.507 233.555 58.0074 233.451C58.5164 233.339 58.9133 233.24 59.198 233.154L59.6121 234.729C59.4827 234.738 59.3187 234.759 59.1203 234.794C58.9305 234.82 58.7105 234.85 58.4603 234.884C57.9944 234.944 57.5415 235.091 57.1015 235.323C56.6701 235.555 56.2819 235.857 55.9368 236.227C55.6003 236.588 55.3329 237.006 55.1344 237.479C54.936 237.952 54.8368 238.464 54.8368 239.015C54.8368 239.669 55.005 240.216 55.3415 240.655C55.678 241.094 56.1352 241.438 56.7132 241.688C57.2999 241.928 57.9556 242.092 58.6803 242.178C58.5509 242.316 58.4258 242.484 58.305 242.682C58.1842 242.871 58.0807 243.06 57.9944 243.25C57.9082 243.448 57.8521 243.611 57.8262 243.74ZM69.0203 244.205C68.865 243.886 68.6536 243.529 68.3862 243.133C68.1274 242.729 67.8383 242.316 67.5191 241.894C67.2085 241.464 66.8893 241.046 66.5615 240.642C66.2336 240.237 65.9231 239.876 65.6297 239.557C65.345 239.23 65.0991 238.972 64.8921 238.783C64.5987 238.499 64.4521 238.249 64.4521 238.034C64.4521 237.81 64.5944 237.578 64.8791 237.337C65.0948 237.148 65.3493 236.907 65.6427 236.614C65.936 236.321 66.2423 235.999 66.5615 235.646C66.8807 235.293 67.1913 234.932 67.4933 234.561C67.8038 234.191 68.0799 233.834 68.3215 233.49C68.5717 233.137 68.7658 232.819 68.9038 232.535L70.3791 233.529C70.1893 233.787 69.9262 234.105 69.5897 234.484C69.2619 234.863 68.9081 235.259 68.5285 235.672C68.1576 236.076 67.7952 236.463 67.4415 236.834C67.0878 237.195 66.7858 237.496 66.5356 237.737C66.3372 237.935 66.3458 238.146 66.5615 238.37C66.7513 238.559 66.9842 238.813 67.2603 239.131C67.545 239.441 67.8427 239.79 68.1533 240.177C68.4725 240.556 68.7874 240.939 69.098 241.326C69.4085 241.713 69.6889 242.079 69.9391 242.423C70.1893 242.759 70.3878 243.039 70.5344 243.262C70.3964 243.314 70.2282 243.396 70.0297 243.508C69.8313 243.62 69.6372 243.736 69.4474 243.856C69.2662 243.985 69.1238 244.102 69.0203 244.205ZM77.6003 243.934V240.255C77.2811 240.607 76.9878 240.943 76.7203 241.261C76.4529 241.571 76.2415 241.825 76.0862 242.023L74.9474 241.042C75.3097 240.741 75.7152 240.362 76.1638 239.906C76.6211 239.441 77.0999 238.959 77.6003 238.46V236.692C77.2207 236.778 76.8454 236.859 76.4744 236.937C76.1121 237.014 75.8187 237.075 75.5944 237.118L75.2838 235.685C75.534 235.667 75.8748 235.624 76.3062 235.555C76.7462 235.487 77.1776 235.409 77.6003 235.323V232.78H79.0497V234.936L79.0756 234.923L79.865 235.504L79.1144 236.963C79.5199 236.593 79.9211 236.257 80.318 235.956C80.7148 235.654 81.0944 235.413 81.4568 235.233C81.8191 235.052 82.1513 234.962 82.4533 234.962C83.0485 234.962 83.4799 235.147 83.7474 235.517C84.0148 235.878 84.114 236.463 84.045 237.272C84.0364 237.41 84.0148 237.617 83.9803 237.892C83.9544 238.159 83.9242 238.46 83.8897 238.796C83.8638 239.131 83.8336 239.467 83.7991 239.803C83.7733 240.13 83.7474 240.427 83.7215 240.693C83.6956 240.952 83.6784 241.141 83.6697 241.261C83.6266 241.632 83.7819 241.817 84.1356 241.817C84.4893 241.817 84.8172 241.688 85.1191 241.429C85.4211 241.171 85.6799 240.857 85.8956 240.487C85.9387 240.607 86.0078 240.758 86.1027 240.939C86.2062 241.111 86.314 241.279 86.4262 241.442C86.547 241.597 86.6505 241.718 86.7368 241.804C86.5383 242.122 86.2882 242.402 85.9862 242.643C85.6842 242.884 85.3607 243.073 85.0156 243.211C84.6791 243.34 84.347 243.404 84.0191 243.404C82.6301 243.404 81.996 242.707 82.1168 241.313C82.134 241.175 82.1556 240.969 82.1815 240.693C82.2074 240.409 82.2332 240.1 82.2591 239.764C82.2936 239.42 82.3282 239.08 82.3627 238.744C82.3972 238.4 82.4274 238.094 82.4533 237.828C82.4791 237.552 82.4964 237.354 82.505 237.234C82.5223 236.941 82.4964 236.735 82.4274 236.614C82.3583 236.494 82.2246 236.433 82.0262 236.433C81.8536 236.433 81.6121 236.541 81.3015 236.756C80.9909 236.963 80.6415 237.242 80.2533 237.595C79.865 237.939 79.4638 238.318 79.0497 238.731V243.934H77.6003ZM93.9322 243.65C92.8969 243.65 92.1334 243.456 91.6416 243.069C91.1499 242.673 90.904 242.191 90.904 241.623C90.904 241.253 90.9946 240.939 91.1758 240.681C91.3569 240.422 91.5942 240.224 91.8875 240.087C92.1808 239.94 92.4958 239.867 92.8322 239.867C93.4707 239.867 93.984 240.065 94.3722 240.461C94.7691 240.857 95.0236 241.348 95.1357 241.933C95.455 241.786 95.7138 241.563 95.9122 241.261C96.1193 240.96 96.2228 240.599 96.2228 240.177C96.2228 239.816 96.1365 239.493 95.964 239.209C95.7914 238.925 95.5455 238.701 95.2263 238.538C94.9157 238.365 94.5534 238.279 94.1393 238.279C93.5612 238.279 93.0565 238.348 92.6252 238.486C92.2024 238.624 91.8185 238.843 91.4734 239.144C91.3181 239.282 91.111 239.458 90.8522 239.674C90.602 239.889 90.3648 240.082 90.1404 240.255L89.0793 239.119C89.4675 238.895 89.8816 238.611 90.3216 238.266C90.7616 237.922 91.2059 237.539 91.6546 237.118C92.1032 236.696 92.5303 236.261 92.9357 235.814C93.3412 235.358 93.7036 234.91 94.0228 234.471C93.6518 234.557 93.2463 234.639 92.8063 234.716C92.375 234.794 91.9565 234.858 91.551 234.91C91.1542 234.962 90.8177 234.996 90.5416 235.013L90.2569 233.542C90.4899 233.559 90.7789 233.559 91.124 233.542C91.4777 233.516 91.8573 233.486 92.2628 233.451C92.6683 233.408 93.0608 233.357 93.4405 233.296C93.8287 233.236 94.1738 233.176 94.4757 233.116C94.7863 233.047 95.015 232.978 95.1616 232.909L96.3263 233.684C96.033 234.26 95.6275 234.867 95.1099 235.504C94.6008 236.132 94.053 236.739 93.4663 237.324C93.613 237.255 93.7769 237.204 93.9581 237.169C94.1393 237.126 94.3161 237.105 94.4887 237.105C95.1703 237.105 95.7612 237.234 96.2616 237.492C96.762 237.75 97.1503 238.112 97.4263 238.576C97.711 239.032 97.8534 239.566 97.8534 240.177C97.8534 240.823 97.6895 241.408 97.3616 241.933C97.0424 242.458 96.5895 242.875 96.0028 243.185C95.4161 243.495 94.7259 243.65 93.9322 243.65ZM93.764 242.23C93.7208 241.903 93.6173 241.64 93.4534 241.442C93.2981 241.244 93.091 241.145 92.8322 241.145C92.6942 241.145 92.5777 241.18 92.4828 241.249C92.3879 241.317 92.3405 241.421 92.3405 241.558C92.3405 241.739 92.4354 241.89 92.6252 242.01C92.8236 242.131 93.1514 242.2 93.6087 242.217C93.6346 242.225 93.6605 242.23 93.6863 242.23C93.7122 242.23 93.7381 242.23 93.764 242.23Z" fill="#00B6B6"/>
<path d="M176.526 116.523C193.75 116.523 207.712 102.595 207.712 85.413C207.712 68.2316 193.75 54.3032 176.526 54.3032C159.302 54.3032 145.34 68.2316 145.34 85.413C145.34 102.595 159.302 116.523 176.526 116.523Z" fill="white"/>
<path d="M206.865 85.4131C206.865 68.7071 193.287 55.1514 176.522 55.1514C159.758 55.1515 146.18 68.7072 146.18 85.4131C146.18 102.119 159.758 115.674 176.522 115.674C193.287 115.674 206.865 102.119 206.865 85.4131ZM212.865 85.4131C212.865 105.446 196.587 121.674 176.522 121.674C156.458 121.674 140.18 105.446 140.18 85.4131C140.18 65.3796 156.458 49.1515 176.522 49.1514C196.587 49.1514 212.865 65.3795 212.865 85.4131Z" fill="url(#paint7_linear_1099_12587)" fill-opacity="0.3"/>
<path d="M169.366 94.7044C169.166 94.493 168.929 94.2692 168.655 94.0331C168.381 93.7968 168.132 93.6166 167.908 93.4923C168.53 93.0323 169.091 92.5227 169.59 91.9632C170.101 91.3914 170.562 90.7822 170.973 90.1358C170.699 89.1537 170.469 88.0349 170.282 86.7794C170.095 85.5238 169.958 84.1066 169.871 82.5278H166.917V84.4298H169.702V86.1267C169.702 87.0093 169.689 87.8298 169.665 88.5881C169.652 89.334 169.602 89.9555 169.515 90.4528C169.39 91.1738 169.16 91.6587 168.824 91.9073C168.487 92.1435 167.957 92.2616 167.235 92.2616H166.786C166.773 92.0875 166.742 91.8514 166.693 91.553C166.642 91.2422 166.586 90.9563 166.524 90.6952C166.399 91.3914 166.231 92.0565 166.02 92.6905C165.82 93.312 165.571 93.8963 165.272 94.4433C164.898 94.1947 164.455 93.9895 163.945 93.828V94.3314H158.823V88.9797H163.945V92.7837C164.343 91.8638 164.624 90.7698 164.786 89.5018C164.96 88.2214 165.048 86.7918 165.048 85.213V80.7377H169.796C169.783 80.2653 169.771 79.7805 169.758 79.2832C169.758 78.7859 169.758 78.2763 169.758 77.7542H171.684C171.671 78.2763 171.659 78.7859 171.646 79.2832C171.646 79.7805 171.652 80.2653 171.665 80.7377H173.422C173.185 80.4145 172.911 80.0602 172.6 79.6748C172.288 79.277 172.026 78.9724 171.815 78.7611L173.198 77.7542C173.385 77.9282 173.59 78.1458 173.815 78.4068C174.051 78.6679 174.282 78.9351 174.506 79.2087C174.731 79.4697 174.911 79.6996 175.048 79.8986C174.712 80.1224 174.344 80.4021 173.946 80.7377H175.217V82.5278H171.721C171.783 83.4602 171.858 84.3428 171.945 85.1757C172.045 86.0086 172.17 86.7918 172.319 87.5252C172.792 86.3566 173.16 85.1259 173.422 83.8331L175.198 84.3552C174.911 85.4119 174.593 86.4188 174.245 87.3761C173.908 88.3332 173.503 89.2469 173.03 90.1172C173.154 90.4652 173.285 90.7946 173.422 91.1055C173.572 91.4162 173.727 91.7022 173.889 91.9632C173.976 91.6773 174.058 91.3789 174.132 91.0682C174.207 90.7574 174.269 90.4839 174.319 90.2477C174.456 90.3223 174.637 90.4217 174.861 90.5461C175.098 90.658 175.322 90.7636 175.534 90.8631C175.746 90.9625 175.902 91.0247 176.002 91.0495C175.89 91.5841 175.74 92.1372 175.553 92.7091C175.366 93.2685 175.166 93.7285 174.955 94.089C174.705 94.5117 174.4 94.7354 174.039 94.7603C173.69 94.7851 173.347 94.5986 173.011 94.2009C172.774 93.9149 172.549 93.6042 172.338 93.2685C172.126 92.9329 171.927 92.5661 171.74 92.1684C171.403 92.6159 171.035 93.0509 170.637 93.4737C170.25 93.8963 169.827 94.3065 169.366 94.7044ZM158.188 82.7329V81.0174H164.412V82.7329H158.188ZM158.954 80.1037V78.3509H163.739V80.1037H158.954ZM158.954 85.3808V83.6467H163.739V85.3808H158.954ZM158.954 88.0101V86.2945H163.739V88.0101H158.954ZM166.562 90.4342H167.048C167.297 90.4342 167.478 90.3907 167.59 90.3037C167.714 90.2166 167.801 90.0053 167.852 89.6697C167.914 89.3588 167.951 88.9299 167.964 88.383C167.976 87.836 167.983 87.1088 167.983 86.2013H166.898C166.885 86.9347 166.854 87.6619 166.805 88.383C166.755 89.0916 166.674 89.7753 166.562 90.4342ZM160.674 92.6159H162.113V90.6952H160.674V92.6159ZM177.983 94.8162C177.933 94.6298 177.852 94.3998 177.74 94.1263C177.628 93.8652 177.503 93.6042 177.366 93.3431C177.241 93.0945 177.129 92.908 177.03 92.7837C178.512 92.5972 179.783 92.2678 180.843 91.7954C181.902 91.323 182.731 90.6766 183.329 89.8561H177.292V88.0287H184.189C184.239 87.8671 184.276 87.7055 184.301 87.5439C184.339 87.3698 184.363 87.1896 184.376 87.0031H179.666V85.2317H184.451V84.2247H179.497V83.6839H177.553V79.3765H184.357V77.6982H186.788V79.3765H193.629V83.5907H191.722V84.2247H186.694V85.2317H191.535V87.0031H186.638C186.625 87.1771 186.606 87.3512 186.582 87.5252C186.557 87.6868 186.526 87.8547 186.488 88.0287H193.947V89.8561H187.703C188.351 90.602 189.242 91.2235 190.377 91.7208C191.51 92.2181 192.788 92.5475 194.209 92.7091C194.083 92.8583 193.94 93.0634 193.779 93.3245C193.629 93.5855 193.485 93.8528 193.349 94.1263C193.224 94.3998 193.13 94.6298 193.068 94.8162C191.336 94.493 189.828 93.9522 188.545 93.194C187.274 92.4356 186.289 91.4784 185.591 90.3223C184.232 92.6221 181.697 94.1201 177.983 94.8162ZM186.694 82.4346H191.498V81.1479H186.694V82.4346ZM179.722 82.4346H184.451V81.1479H179.722V82.4346Z" fill="#111111"/>
<path d="M309.178 234.534C326.402 234.534 340.364 220.606 340.364 203.424C340.364 186.243 326.402 172.314 309.178 172.314C291.955 172.314 277.992 186.243 277.992 203.424C277.992 220.606 291.955 234.534 309.178 234.534Z" fill="white"/>
<path d="M339.522 203.425C339.522 186.719 325.944 173.163 309.179 173.163C292.414 173.163 278.836 186.719 278.836 203.425C278.836 220.131 292.414 233.685 309.179 233.686C325.944 233.686 339.522 220.131 339.522 203.425ZM345.522 203.425C345.522 223.458 329.243 239.686 309.179 239.686C289.114 239.685 272.836 223.458 272.836 203.425C272.836 183.391 289.114 167.163 309.179 167.163C329.243 167.163 345.522 183.391 345.522 203.425Z" fill="url(#paint8_linear_1099_12587)" fill-opacity="0.3"/>
<path d="M302.204 212.212C302.029 211.902 301.812 211.566 301.55 211.205C301.288 210.858 301.02 210.565 300.746 210.329C302.129 209.658 303.375 208.837 304.485 207.868C305.593 206.886 306.466 205.754 307.102 204.474C307.749 203.194 308.074 201.782 308.074 200.241V195.672H310.392V199.607C310.392 200.85 310.597 202.012 311.008 203.094C311.42 204.175 311.98 205.164 312.691 206.059C313.401 206.954 314.205 207.743 315.102 208.427C315.999 209.098 316.94 209.651 317.925 210.087C317.688 210.348 317.426 210.683 317.14 211.093C316.865 211.504 316.647 211.864 316.485 212.175C315.426 211.628 314.429 210.956 313.495 210.161C312.56 209.366 311.737 208.476 311.027 207.495C310.329 206.513 309.775 205.481 309.363 204.399C309.002 205.518 308.46 206.569 307.737 207.551C307.014 208.52 306.179 209.403 305.232 210.198C304.285 210.982 303.275 211.653 302.204 212.212Z" fill="#111111"/>
</g>
<defs>
<linearGradient id="paint0_linear_1099_12587" x1="266.5" y1="53.1802" x2="266.5" y2="199.852" gradientUnits="userSpaceOnUse">
<stop stop-color="#17B9FB" stop-opacity="0.6"/>
<stop offset="1" stop-color="#2DD5B9" stop-opacity="0.6"/>
</linearGradient>
<linearGradient id="paint1_linear_1099_12587" x1="79.6812" y1="90.447" x2="79.6812" y2="216.196" gradientUnits="userSpaceOnUse">
<stop stop-color="#17B9FB" stop-opacity="0.6"/>
<stop offset="1" stop-color="#2DD5B9" stop-opacity="0.6"/>
</linearGradient>
<linearGradient id="paint2_linear_1099_12587" x1="187.423" y1="240.99" x2="187.423" y2="366.738" gradientUnits="userSpaceOnUse">
<stop stop-color="#17B9FB" stop-opacity="0.6"/>
<stop offset="1" stop-color="#2DD5B9" stop-opacity="0.6"/>
</linearGradient>
<linearGradient id="paint3_linear_1099_12587" x1="102.48" y1="297.026" x2="102.48" y2="359.246" gradientUnits="userSpaceOnUse">
<stop stop-color="#17B9FB" stop-opacity="0.6"/>
<stop offset="1" stop-color="#2DD5B9" stop-opacity="0.6"/>
</linearGradient>
<linearGradient id="paint4_linear_1099_12587" x1="277.906" y1="259.732" x2="277.906" y2="321.952" gradientUnits="userSpaceOnUse">
<stop stop-color="#17B9FB" stop-opacity="0.6"/>
<stop offset="1" stop-color="#2DD5B9" stop-opacity="0.6"/>
</linearGradient>
<linearGradient id="paint5_linear_1099_12587" x1="192.25" y1="146.773" x2="192.25" y2="227.33" gradientUnits="userSpaceOnUse">
<stop stop-color="#17B9FB" stop-opacity="0.6"/>
<stop offset="1" stop-color="#2DD5B9" stop-opacity="0.6"/>
</linearGradient>
<linearGradient id="paint6_linear_1099_12587" x1="58.5089" y1="199.168" x2="58.5089" y2="277.367" gradientUnits="userSpaceOnUse">
<stop stop-color="#17B9FB" stop-opacity="0.6"/>
<stop offset="1" stop-color="#2DD5B9" stop-opacity="0.6"/>
</linearGradient>
<linearGradient id="paint7_linear_1099_12587" x1="176.523" y1="54.303" x2="176.523" y2="116.523" gradientUnits="userSpaceOnUse">
<stop stop-color="#17B9FB" stop-opacity="0.6"/>
<stop offset="1" stop-color="#2DD5B9" stop-opacity="0.6"/>
</linearGradient>
<linearGradient id="paint8_linear_1099_12587" x1="309.179" y1="172.315" x2="309.179" y2="234.535" gradientUnits="userSpaceOnUse">
<stop stop-color="#17B9FB" stop-opacity="0.6"/>
<stop offset="1" stop-color="#2DD5B9" stop-opacity="0.6"/>
</linearGradient>
<clipPath id="clip0_1099_12587">
<rect width="330" height="317" fill="white" transform="translate(15 50)"/>
</clipPath>
</defs>
</svg>
