<svg width="321" height="164" viewBox="0 0 321 164" fill="none" xmlns="http://www.w3.org/2000/svg">
<path d="M1 15H103V75H1V15Z" fill="#00B6B6"/>
<path d="M1 90H78V150H1V90Z" fill="#54D2D2"/>
<path d="M-7.12495e-06 163L-4.37114e-08 1C-1.95702e-08 0.447715 0.447715 1.95702e-08 1 4.37114e-08C1.55228 6.78525e-08 2 0.447715 2 1L1.99999 163L1.99511 163.103C1.94378 163.607 1.51767 164 0.999993 164C0.482315 164 0.0562063 163.607 0.00487568 163.103L-7.12495e-06 163Z" fill="#DCDCDC"/>
<path d="M161.657 66.3839C161.124 66.6826 160.622 66.8052 160.153 66.7519C159.684 66.6879 159.268 66.3839 158.905 65.8399C158.574 65.3279 158.27 64.7252 157.993 64.0319C157.716 63.3386 157.476 62.6026 157.273 61.8239C157.081 61.0452 156.932 60.2666 156.825 59.4879C156.729 58.7092 156.686 57.9786 156.697 57.2959L158.649 57.3119C158.617 57.8346 158.633 58.4052 158.697 59.0239C158.761 59.6426 158.862 60.2666 159.001 60.8959C159.14 61.5252 159.305 62.1119 159.497 62.6559C159.689 63.1892 159.897 63.6372 160.121 63.9999C160.27 64.2559 160.43 64.4052 160.601 64.4479C160.782 64.4799 160.974 64.4319 161.177 64.3039C161.433 64.1332 161.7 63.8986 161.977 63.5999C162.265 63.3012 162.505 63.0132 162.697 62.7359C162.75 62.8959 162.836 63.0772 162.953 63.2799C163.081 63.4826 163.214 63.6799 163.353 63.8719C163.502 64.0639 163.636 64.2186 163.753 64.3359C163.465 64.7626 163.134 65.1572 162.761 65.5199C162.398 65.8826 162.03 66.1706 161.657 66.3839ZM167.705 63.3919C167.598 63.0826 167.433 62.6986 167.209 62.2399C166.985 61.7812 166.729 61.3066 166.441 60.8159C166.153 60.3146 165.865 59.8559 165.577 59.4399C165.289 59.0132 165.022 58.6826 164.777 58.4479L166.313 57.4719C166.58 57.7386 166.873 58.0959 167.193 58.5439C167.524 58.9919 167.844 59.4719 168.153 59.9839C168.473 60.4852 168.756 60.9759 169.001 61.4559C169.246 61.9252 169.422 62.3252 169.529 62.6559C169.198 62.7199 168.862 62.8212 168.521 62.9599C168.19 63.0986 167.918 63.2426 167.705 63.3919Z" fill="#111111"/>
<path d="M141.577 68.3998C141.481 68.3038 141.332 68.1864 141.129 68.0478C140.926 67.9198 140.718 67.7971 140.505 67.6798C140.292 67.5624 140.11 67.4824 139.961 67.4398C140.409 66.9598 140.841 66.3784 141.257 65.6958C141.673 65.0024 142.068 64.2504 142.441 63.4398C142.814 62.6291 143.145 61.7971 143.433 60.9438C142.889 61.0078 142.361 61.0824 141.849 61.1678C141.348 61.2531 140.932 61.3384 140.601 61.4238C140.59 61.2851 140.564 61.0984 140.521 60.8638C140.478 60.6291 140.43 60.3998 140.377 60.1758C140.324 59.9411 140.27 59.7651 140.217 59.6478C140.462 59.6264 140.782 59.5998 141.177 59.5678C141.572 59.5358 142.009 59.4984 142.489 59.4558C142.969 59.4024 143.449 59.3598 143.929 59.3278C144.121 58.6558 144.276 57.9998 144.393 57.3598C144.521 56.7091 144.606 56.1064 144.649 55.5518L146.537 55.8878C146.484 56.3784 146.398 56.9064 146.281 57.4718C146.164 58.0264 146.02 58.5971 145.849 59.1838C146.062 59.1731 146.254 59.1678 146.425 59.1678C146.596 59.1571 146.745 59.1518 146.873 59.1518C147.3 59.1518 147.678 59.2211 148.009 59.3598C148.35 59.4878 148.622 59.7224 148.825 60.0638C149.028 60.3944 149.145 60.8584 149.177 61.4558C149.209 62.0424 149.14 62.7944 148.969 63.7118C148.756 64.8638 148.51 65.7651 148.233 66.4158C147.966 67.0664 147.63 67.5251 147.225 67.7918C146.82 68.0584 146.302 68.1918 145.673 68.1918C145.374 68.1918 145.081 68.1598 144.793 68.0958C144.505 68.0424 144.238 67.9518 143.993 67.8238C144.004 67.5784 144.004 67.2744 143.993 66.9118C143.982 66.5491 143.95 66.2504 143.897 66.0158C144.43 66.2504 144.953 66.3678 145.465 66.3678C145.721 66.3678 145.94 66.2984 146.121 66.1598C146.313 66.0104 146.494 65.7224 146.665 65.2958C146.836 64.8584 147.006 64.2184 147.177 63.3758C147.337 62.5971 147.401 62.0211 147.369 61.6478C147.337 61.2638 147.236 61.0131 147.065 60.8958C146.894 60.7784 146.681 60.7198 146.425 60.7198C146.126 60.7198 145.769 60.7358 145.353 60.7678C145.022 61.7598 144.644 62.7358 144.217 63.6958C143.801 64.6558 143.364 65.5411 142.905 66.3518C142.457 67.1624 142.014 67.8451 141.577 68.3998ZM153.241 64.2558C153.07 63.9678 152.836 63.6264 152.537 63.2318C152.238 62.8371 151.913 62.4424 151.561 62.0478C151.209 61.6424 150.868 61.2744 150.537 60.9438C150.206 60.6024 149.918 60.3464 149.673 60.1758L151.081 58.9918C151.337 59.1838 151.636 59.4451 151.977 59.7758C152.318 60.0958 152.67 60.4478 153.033 60.8318C153.396 61.2158 153.732 61.5944 154.041 61.9678C154.35 62.3411 154.59 62.6664 154.761 62.9438L153.241 64.2558Z" fill="#111111"/>
<path d="M127.033 68.7838V67.1998H128.233V62.1118H137.417V67.1998H138.553V68.7838H127.033ZM128.713 61.1678V55.0878H136.953V61.1678H128.713ZM125.081 69.0718L123.449 67.9038C123.695 67.5838 123.945 67.2051 124.201 66.7678C124.457 66.3305 124.703 65.8771 124.937 65.4078C125.183 64.9278 125.401 64.4585 125.593 63.9998C125.796 63.5411 125.951 63.1305 126.057 62.7678C126.153 62.8638 126.292 62.9865 126.473 63.1358C126.655 63.2851 126.847 63.4291 127.049 63.5678C127.263 63.7065 127.439 63.8185 127.577 63.9038C127.46 64.2771 127.3 64.6985 127.097 65.1678C126.905 65.6265 126.692 66.0958 126.457 66.5758C126.223 67.0558 125.988 67.5145 125.753 67.9518C125.519 68.3785 125.295 68.7518 125.081 69.0718ZM126.393 61.8238C126.201 61.6531 125.935 61.4505 125.593 61.2158C125.263 60.9811 124.916 60.7571 124.553 60.5438C124.191 60.3198 123.871 60.1491 123.593 60.0318L124.537 58.4958C125.007 58.7198 125.513 58.9918 126.057 59.3118C126.612 59.6211 127.076 59.9305 127.449 60.2398C127.364 60.3358 127.247 60.4905 127.097 60.7038C126.959 60.9065 126.82 61.1145 126.681 61.3278C126.553 61.5305 126.457 61.6958 126.393 61.8238ZM127.017 58.0798C126.836 57.9091 126.575 57.7065 126.233 57.4718C125.903 57.2371 125.551 57.0131 125.177 56.7998C124.815 56.5865 124.495 56.4211 124.217 56.3038L125.177 54.7998C125.465 54.9171 125.796 55.0825 126.169 55.2958C126.553 55.5091 126.921 55.7278 127.273 55.9518C127.625 56.1758 127.897 56.3731 128.089 56.5438C128.004 56.6398 127.887 56.7891 127.737 56.9918C127.599 57.1945 127.46 57.3971 127.321 57.5998C127.183 57.8025 127.081 57.9625 127.017 58.0798ZM130.521 59.7918H135.145V58.7678H130.521V59.7918ZM130.521 57.4718H135.145V56.4638H130.521V57.4718ZM129.897 67.1998H130.873V63.6318H129.897V67.1998ZM132.345 67.1998H133.321V63.6318H132.345V67.1998ZM134.777 67.1998H135.753V63.6318H134.777V67.1998Z" fill="#111111"/>
<path d="M238.92 41.9281C238.717 41.5868 238.445 41.2188 238.104 40.8241C237.773 40.4294 237.421 40.0561 237.048 39.7041C236.685 39.3414 236.338 39.0428 236.008 38.8081L237.224 37.7041C237.469 37.8641 237.736 38.0721 238.024 38.3281C238.312 38.5734 238.605 38.8401 238.904 39.1281C239.202 39.4054 239.474 39.6774 239.72 39.9441C239.976 40.2108 240.184 40.4454 240.344 40.6481L238.92 41.9281Z" fill="#111111"/>
<path d="M221.577 41.3998C221.481 41.3038 221.332 41.1864 221.129 41.0478C220.926 40.9198 220.718 40.7971 220.505 40.6798C220.292 40.5624 220.11 40.4824 219.961 40.4398C220.409 39.9598 220.841 39.3784 221.257 38.6958C221.673 38.0024 222.068 37.2504 222.441 36.4398C222.814 35.6291 223.145 34.7971 223.433 33.9438C222.889 34.0078 222.361 34.0824 221.849 34.1678C221.348 34.2531 220.932 34.3384 220.601 34.4238C220.59 34.2851 220.564 34.0984 220.521 33.8638C220.478 33.6291 220.43 33.3998 220.377 33.1758C220.324 32.9411 220.27 32.7651 220.217 32.6478C220.462 32.6264 220.782 32.5998 221.177 32.5678C221.572 32.5358 222.009 32.4984 222.489 32.4558C222.969 32.4024 223.449 32.3598 223.929 32.3278C224.121 31.6558 224.276 30.9998 224.393 30.3598C224.521 29.7091 224.606 29.1064 224.649 28.5518L226.537 28.8878C226.484 29.3784 226.398 29.9064 226.281 30.4718C226.164 31.0264 226.02 31.5971 225.849 32.1838C226.062 32.1731 226.254 32.1678 226.425 32.1678C226.596 32.1571 226.745 32.1518 226.873 32.1518C227.3 32.1518 227.678 32.2211 228.009 32.3598C228.35 32.4878 228.622 32.7224 228.825 33.0638C229.028 33.3944 229.145 33.8584 229.177 34.4558C229.209 35.0424 229.14 35.7944 228.969 36.7118C228.756 37.8638 228.51 38.7651 228.233 39.4158C227.966 40.0664 227.63 40.5251 227.225 40.7918C226.82 41.0584 226.302 41.1918 225.673 41.1918C225.374 41.1918 225.081 41.1598 224.793 41.0958C224.505 41.0424 224.238 40.9518 223.993 40.8238C224.004 40.5784 224.004 40.2744 223.993 39.9118C223.982 39.5491 223.95 39.2504 223.897 39.0158C224.43 39.2504 224.953 39.3678 225.465 39.3678C225.721 39.3678 225.94 39.2984 226.121 39.1598C226.313 39.0104 226.494 38.7224 226.665 38.2958C226.836 37.8584 227.006 37.2184 227.177 36.3758C227.337 35.5971 227.401 35.0211 227.369 34.6478C227.337 34.2638 227.236 34.0131 227.065 33.8958C226.894 33.7784 226.681 33.7198 226.425 33.7198C226.126 33.7198 225.769 33.7358 225.353 33.7678C225.022 34.7598 224.644 35.7358 224.217 36.6958C223.801 37.6558 223.364 38.5411 222.905 39.3518C222.457 40.1624 222.014 40.8451 221.577 41.3998ZM233.241 37.2558C233.07 36.9678 232.836 36.6264 232.537 36.2318C232.238 35.8371 231.913 35.4424 231.561 35.0478C231.209 34.6424 230.868 34.2744 230.537 33.9438C230.206 33.6024 229.918 33.3464 229.673 33.1758L231.081 31.9918C231.337 32.1838 231.636 32.4451 231.977 32.7758C232.318 33.0958 232.67 33.4478 233.033 33.8318C233.396 34.2158 233.732 34.5944 234.041 34.9678C234.35 35.3411 234.59 35.6664 234.761 35.9438L233.241 37.2558Z" fill="#111111"/>
<path d="M210.631 41.8638C210.482 41.2451 210.263 40.5411 209.975 39.7518C209.698 38.9518 209.372 38.1198 208.999 37.2558C208.626 36.3918 208.226 35.5491 207.799 34.7278C207.127 35.0371 206.514 35.3305 205.959 35.6078C205.415 35.8745 205.004 36.0825 204.727 36.2318L203.703 34.5198C204.055 34.3811 204.519 34.1945 205.095 33.9598C205.671 33.7251 206.29 33.4638 206.951 33.1758C206.62 32.6105 206.29 32.0985 205.959 31.6398C205.628 31.1705 205.303 30.7705 204.983 30.4398L206.551 29.5758C206.892 29.9491 207.234 30.3811 207.575 30.8718C207.927 31.3625 208.274 31.8905 208.615 32.4558C209.02 32.2745 209.42 32.0985 209.815 31.9278C210.21 31.7465 210.578 31.5811 210.919 31.4318C210.834 31.1865 210.716 30.9198 210.567 30.6318C210.428 30.3331 210.268 30.0451 210.087 29.7678C209.916 29.4905 209.74 29.2611 209.559 29.0798L211.159 28.2798C211.33 28.4505 211.511 28.6798 211.703 28.9678C211.895 29.2558 212.076 29.5545 212.247 29.8638C212.418 30.1625 212.551 30.4345 212.647 30.6798C213.308 30.4025 213.959 30.2638 214.599 30.2638C215.25 30.2638 215.836 30.3811 216.359 30.6158C216.882 30.8505 217.298 31.1918 217.607 31.6398C217.916 32.0878 218.071 32.6265 218.071 33.2558C218.071 34.0665 217.89 34.7278 217.527 35.2398C217.164 35.7518 216.674 36.1251 216.055 36.3598C215.447 36.5838 214.759 36.6798 213.991 36.6478C213.234 36.6158 212.455 36.4611 211.655 36.1838C211.666 36.0238 211.666 35.8211 211.655 35.5758C211.644 35.3198 211.628 35.0691 211.607 34.8238C211.586 34.5785 211.554 34.3758 211.511 34.2158C212.002 34.4398 212.514 34.5998 213.047 34.6958C213.58 34.7918 214.076 34.8078 214.535 34.7438C215.004 34.6798 215.383 34.5251 215.671 34.2798C215.959 34.0238 216.103 33.6665 216.103 33.2078C216.103 32.8131 215.97 32.5145 215.703 32.3118C215.447 32.0985 215.106 31.9918 214.679 31.9918C214.252 31.9811 213.788 32.0771 213.287 32.2798C212.828 32.4611 212.258 32.7011 211.575 32.9998C210.903 33.2878 210.204 33.6025 209.479 33.9438C209.927 34.7651 210.348 35.6025 210.743 36.4558C211.148 37.3091 211.511 38.1358 211.831 38.9358C212.151 39.7358 212.412 40.4611 212.615 41.1118C212.434 41.1438 212.215 41.1971 211.959 41.2718C211.714 41.3571 211.468 41.4478 211.223 41.5438C210.988 41.6505 210.791 41.7571 210.631 41.8638Z" fill="#111111"/>
<path d="M196.967 42.0719C196.359 42.0719 195.932 41.9865 195.687 41.8159C195.442 41.6452 195.319 41.3465 195.319 40.9199V38.0079H196.775C196.732 37.9652 196.69 37.9279 196.647 37.8959C196.604 37.8532 196.562 37.8159 196.519 37.7839L197.159 37.2399H193.655V35.8799H200.007V35.2079H194.007V34.0239H200.007V33.3679H193.607V32.0079H194.567C194.428 31.7412 194.258 31.4532 194.055 31.1439C193.852 30.8239 193.66 30.5625 193.479 30.3599L194.551 29.7519C194.423 29.7519 194.29 29.7572 194.151 29.7679C194.023 29.7679 193.9 29.7679 193.783 29.7679C193.751 29.5332 193.698 29.2665 193.623 28.9679C193.548 28.6585 193.468 28.4025 193.383 28.1999C193.97 28.2212 194.61 28.2265 195.303 28.2159C195.996 28.1945 196.695 28.1519 197.399 28.0879C198.103 28.0239 198.77 27.9439 199.399 27.8479C200.039 27.7412 200.594 27.6132 201.063 27.4639L201.879 28.7919C201.687 28.8452 201.479 28.8985 201.255 28.9519C201.031 28.9945 200.786 29.0425 200.519 29.0959L201.863 29.5919C201.714 29.9332 201.522 30.3279 201.287 30.7759C201.052 31.2132 200.818 31.6239 200.583 32.0079H201.735V37.2399H198.087C198.311 37.4425 198.535 37.6665 198.759 37.9119C198.994 38.1465 199.191 38.3599 199.351 38.5519C199.17 38.6692 198.951 38.8345 198.695 39.0479C198.45 39.2505 198.268 39.4265 198.151 39.5759C198.012 39.3732 197.836 39.1439 197.623 38.8879C197.41 38.6319 197.196 38.4025 196.983 38.1999V40.0719C196.983 40.2105 197.015 40.3065 197.079 40.3599C197.154 40.4132 197.292 40.4399 197.495 40.4399H198.183C198.407 40.4399 198.578 40.4185 198.695 40.3759C198.823 40.3332 198.919 40.2372 198.983 40.0879C199.058 39.9279 199.116 39.6772 199.159 39.3359C199.308 39.4212 199.5 39.5065 199.735 39.5919C199.98 39.6772 200.21 39.7519 200.423 39.8159C200.146 39.3145 199.868 38.9039 199.591 38.5839L200.935 37.8479C201.138 38.0825 201.362 38.3972 201.607 38.7919C201.852 39.1759 202.087 39.5652 202.311 39.9599C202.535 40.3545 202.711 40.6905 202.839 40.9679C202.636 41.0319 202.391 41.1385 202.103 41.2879C201.815 41.4372 201.58 41.5759 201.399 41.7039C201.324 41.5225 201.223 41.2985 201.095 41.0319C200.978 40.7759 200.844 40.5145 200.695 40.2479C200.578 40.7919 200.423 41.1919 200.231 41.4479C200.05 41.7145 199.82 41.8852 199.543 41.9599C199.266 42.0345 198.924 42.0719 198.519 42.0719H196.967ZM189.863 42.1839V36.7439C189.628 37.2132 189.394 37.6559 189.159 38.0719C188.935 38.4879 188.732 38.8185 188.551 39.0639C188.455 38.9465 188.322 38.8185 188.151 38.6799C187.991 38.5305 187.82 38.3972 187.639 38.2799C187.468 38.1519 187.324 38.0612 187.207 38.0079C187.516 37.6665 187.836 37.2185 188.167 36.6639C188.508 36.1092 188.823 35.5172 189.111 34.8879C189.41 34.2585 189.634 33.6665 189.783 33.1119H187.783V31.5279H189.863V30.0879C189.575 30.1412 189.287 30.1945 188.999 30.2479C188.722 30.2905 188.444 30.3279 188.167 30.3599C188.124 30.1465 188.05 29.8959 187.943 29.6079C187.836 29.3092 187.73 29.0692 187.623 28.8879C188.156 28.8452 188.716 28.7705 189.303 28.6639C189.9 28.5465 190.476 28.4025 191.031 28.2319C191.586 28.0612 192.066 27.8692 192.471 27.6559L193.399 28.9839C193.132 29.1119 192.844 29.2345 192.535 29.3519C192.226 29.4585 191.9 29.5599 191.559 29.6559V31.5279H193.223V33.1119H191.559V33.6879C191.74 33.9225 191.954 34.1839 192.199 34.4719C192.455 34.7492 192.711 35.0159 192.967 35.2719C193.223 35.5279 193.447 35.7252 193.639 35.8639C193.532 35.9385 193.399 36.0559 193.239 36.2159C193.09 36.3652 192.94 36.5199 192.791 36.6799C192.652 36.8292 192.546 36.9572 192.471 37.0639C192.332 36.9465 192.183 36.7972 192.023 36.6159C191.874 36.4345 191.719 36.2425 191.559 36.0399V42.1839H189.863ZM193.623 41.8319C193.442 41.7039 193.191 41.5599 192.871 41.3999C192.562 41.2505 192.306 41.1492 192.103 41.0959C192.295 40.8399 192.487 40.5252 192.679 40.1519C192.882 39.7785 193.068 39.3945 193.239 38.9999C193.41 38.5945 193.538 38.2372 193.623 37.9279L195.111 38.4399C195.015 38.7812 194.882 39.1705 194.711 39.6079C194.54 40.0345 194.359 40.4505 194.167 40.8559C193.975 41.2612 193.794 41.5865 193.623 41.8319ZM197.511 32.0079H198.823C198.983 31.7305 199.148 31.4212 199.319 31.0799C199.5 30.7385 199.666 30.3972 199.815 30.0559C199.975 29.7145 200.103 29.4159 200.199 29.1599C199.804 29.2239 199.383 29.2879 198.935 29.3519C198.487 29.4159 198.028 29.4745 197.559 29.5279C197.676 29.6879 197.804 29.8959 197.943 30.1519C198.092 30.3972 198.231 30.6479 198.359 30.9039C198.487 31.1492 198.583 31.3572 198.647 31.5279C198.519 31.5705 198.343 31.6399 198.119 31.7359C197.895 31.8212 197.692 31.9119 197.511 32.0079ZM195.223 32.0079H197.079C196.962 31.7305 196.807 31.4105 196.615 31.0479C196.423 30.6745 196.242 30.3705 196.071 30.1359L197.431 29.5279C197.026 29.5705 196.615 29.6132 196.199 29.6559C195.794 29.6879 195.394 29.7145 194.999 29.7359C195.138 29.8959 195.282 30.0879 195.431 30.3119C195.58 30.5359 195.719 30.7545 195.847 30.9679C195.986 31.1705 196.087 31.3465 196.151 31.4959C196.044 31.5385 195.9 31.6079 195.719 31.7039C195.548 31.7999 195.383 31.9012 195.223 32.0079Z" fill="#111111"/>
<path d="M182.793 41.6239C181.683 41.4959 180.702 41.1759 179.849 40.6639C178.995 40.1412 178.329 39.4639 177.849 38.6319C177.369 37.7892 177.129 36.8346 177.129 35.7679C177.129 34.9999 177.315 34.2212 177.689 33.4319C178.062 32.6319 178.611 31.9226 179.337 31.3039C178.483 31.4426 177.635 31.5919 176.793 31.7519C175.95 31.9012 175.182 32.0452 174.489 32.1839C173.806 32.3226 173.278 32.4452 172.905 32.5519L172.473 30.4719C172.825 30.4506 173.31 30.4026 173.929 30.3279C174.558 30.2532 175.262 30.1626 176.041 30.0559C176.83 29.9386 177.641 29.8159 178.473 29.6879C179.315 29.5492 180.126 29.4106 180.905 29.2719C181.694 29.1332 182.398 28.9999 183.017 28.8719C183.646 28.7332 184.137 28.6106 184.489 28.5039L185.001 30.4559C184.841 30.4666 184.638 30.4932 184.393 30.5359C184.158 30.5679 183.886 30.6052 183.577 30.6479C183.001 30.7226 182.441 30.9039 181.897 31.1919C181.363 31.4799 180.883 31.8532 180.457 32.3119C180.041 32.7599 179.71 33.2772 179.465 33.8639C179.219 34.4506 179.097 35.0852 179.097 35.7679C179.097 36.5786 179.305 37.2559 179.721 37.7999C180.137 38.3439 180.702 38.7706 181.417 39.0799C182.142 39.3786 182.953 39.5812 183.849 39.6879C183.689 39.8586 183.534 40.0666 183.385 40.3119C183.235 40.5466 183.107 40.7812 183.001 41.0159C182.894 41.2612 182.825 41.4639 182.793 41.6239Z" fill="#111111"/>
<path d="M164.632 42.1998C164.44 41.8052 164.179 41.3625 163.848 40.8718C163.528 40.3705 163.171 39.8585 162.776 39.3358C162.392 38.8025 161.998 38.2852 161.592 37.7838C161.187 37.2825 160.803 36.8345 160.44 36.4398C160.088 36.0345 159.784 35.7145 159.528 35.4798C159.166 35.1278 158.984 34.8185 158.984 34.5518C158.984 34.2745 159.16 33.9865 159.512 33.6878C159.779 33.4532 160.094 33.1545 160.456 32.7918C160.819 32.4292 161.198 32.0292 161.592 31.5918C161.987 31.1545 162.371 30.7065 162.744 30.2478C163.128 29.7892 163.47 29.3465 163.768 28.9198C164.078 28.4825 164.318 28.0878 164.488 27.7358L166.312 28.9678C166.078 29.2878 165.752 29.6825 165.336 30.1518C164.931 30.6212 164.494 31.1118 164.024 31.6238C163.566 32.1252 163.118 32.6052 162.68 33.0638C162.243 33.5118 161.87 33.8852 161.56 34.1838C161.315 34.4292 161.326 34.6905 161.592 34.9678C161.827 35.2025 162.115 35.5172 162.456 35.9118C162.808 36.2958 163.176 36.7278 163.56 37.2078C163.955 37.6772 164.344 38.1518 164.728 38.6318C165.112 39.1118 165.459 39.5652 165.768 39.9918C166.078 40.4078 166.323 40.7545 166.504 41.0318C166.334 41.0958 166.126 41.1972 165.88 41.3358C165.635 41.4745 165.395 41.6185 165.16 41.7678C164.936 41.9278 164.76 42.0718 164.632 42.1998Z" fill="#111111"/>
<path d="M146.521 41.4959C145.668 41.4959 144.975 41.4105 144.441 41.2399C143.919 41.0692 143.535 40.7812 143.289 40.3759C143.055 39.9705 142.938 39.4212 142.938 38.7279V28.1519L145.033 28.2799C145.012 28.4612 144.991 28.7652 144.969 29.1919C144.948 29.6185 144.932 30.0772 144.921 30.5679C144.911 30.9625 144.9 31.3945 144.889 31.8639C144.889 32.3332 144.889 32.8505 144.889 33.4159V38.3439C144.889 38.8132 145.017 39.1332 145.273 39.3039C145.54 39.4745 145.999 39.5599 146.649 39.5599C147.695 39.5599 148.682 39.3625 149.61 38.9679C150.548 38.5732 151.359 38.0825 152.042 37.4959C152.052 37.6985 152.073 37.9439 152.105 38.2319C152.148 38.5092 152.191 38.7759 152.233 39.0319C152.287 39.2772 152.329 39.4692 152.361 39.6079C151.593 40.1625 150.697 40.6159 149.674 40.9679C148.66 41.3199 147.609 41.4959 146.521 41.4959Z" fill="#111111"/>
<path d="M128.151 42.3278C128.087 42.1038 127.996 41.8532 127.878 41.5758C127.772 41.2985 127.649 41.0798 127.51 40.9198C128.14 40.8665 128.791 40.7705 129.463 40.6318C130.145 40.4825 130.796 40.3065 131.415 40.1038C131.084 39.8478 130.759 39.5438 130.439 39.1918C130.108 39.3945 129.767 39.5812 129.415 39.7518C129.073 39.9225 128.732 40.0665 128.391 40.1838C128.327 40.0238 128.22 39.8265 128.07 39.5918C127.921 39.3465 127.772 39.1492 127.622 38.9998C128.188 38.8398 128.79 38.5838 129.431 38.2318C130.071 37.8692 130.636 37.4905 131.127 37.0958C130.913 37.0532 130.759 36.9732 130.663 36.8558C130.577 36.7385 130.535 36.5678 130.535 36.3438V35.7358C130.289 36.1198 129.985 36.5038 129.623 36.8878C129.271 37.2718 128.924 37.5972 128.582 37.8638C128.519 37.7785 128.412 37.6718 128.263 37.5438C128.124 37.4052 127.98 37.2772 127.831 37.1598C127.692 37.0318 127.574 36.9465 127.478 36.9038C127.681 36.7545 127.889 36.5785 128.102 36.3758C128.326 36.1732 128.54 35.9705 128.743 35.7678H127.543V33.6238H129.191V29.6078H131.303C131.324 29.5332 131.351 29.4585 131.383 29.3838C131.415 29.2985 131.441 29.2185 131.463 29.1438H128.039V27.8638H137.879V29.1438H133.383L133.223 29.6078H136.519V33.6238H138.135V35.7678H137.255C137.436 35.9278 137.607 36.0878 137.767 36.2478C137.937 36.4078 138.092 36.5625 138.231 36.7118C138.092 36.8185 137.911 36.9785 137.687 37.1918C137.463 37.4052 137.292 37.5865 137.175 37.7358C136.983 37.4692 136.727 37.1758 136.407 36.8558C136.087 36.5252 135.767 36.2265 135.447 35.9598C135.34 36.4398 135.153 36.7545 134.887 36.9038C134.62 37.0532 134.241 37.1278 133.751 37.1278H133.047C132.972 37.2025 132.897 37.2825 132.823 37.3678C132.748 37.4425 132.668 37.5225 132.583 37.6078H135.991L136.423 38.1998C135.889 38.9465 135.239 39.5865 134.47 40.1198C135.036 40.3012 135.639 40.4452 136.279 40.5518C136.929 40.6585 137.612 40.7278 138.327 40.7598C138.188 40.9305 138.06 41.1652 137.943 41.4638C137.825 41.7732 137.74 42.0292 137.687 42.2318C136.823 42.1572 135.985 42.0238 135.175 41.8318C134.364 41.6398 133.607 41.3732 132.903 41.0318C132.209 41.3518 131.463 41.6185 130.663 41.8318C129.873 42.0452 129.036 42.2105 128.151 42.3278ZM125.255 42.1998V33.6398C125.116 33.8745 124.972 34.1038 124.823 34.3278C124.673 34.5518 124.524 34.7598 124.375 34.9518C124.3 34.8345 124.183 34.7012 124.023 34.5518C123.863 34.3918 123.692 34.2372 123.511 34.0878C123.34 33.9385 123.191 33.8265 123.062 33.7518C123.383 33.3678 123.697 32.9092 124.007 32.3758C124.316 31.8425 124.604 31.2878 124.871 30.7118C125.148 30.1252 125.383 29.5545 125.575 28.9998C125.767 28.4452 125.905 27.9545 125.991 27.5278L127.751 27.9118C127.569 28.6052 127.319 29.3518 126.999 30.1518V42.1998H125.255ZM132.406 35.9598H133.351C133.639 35.9598 133.836 35.9118 133.943 35.8158C134.049 35.7198 134.124 35.5012 134.167 35.1598C134.284 35.2132 134.444 35.2718 134.647 35.3358C134.86 35.3998 135.052 35.4585 135.223 35.5118L136.007 34.7438C136.081 34.7865 136.151 34.8345 136.215 34.8878C136.279 34.9412 136.348 34.9945 136.423 35.0478V34.6478H133.671C133.735 34.7225 133.799 34.8025 133.863 34.8878C133.927 34.9625 133.98 35.0372 134.023 35.1118C133.873 35.1972 133.687 35.3145 133.463 35.4638C133.249 35.6132 133.079 35.7358 132.951 35.8318C132.844 35.6398 132.705 35.4318 132.535 35.2078C132.375 34.9838 132.204 34.7972 132.023 34.6478H129.271V35.1118C129.356 35.0158 129.42 34.9198 129.463 34.8238L130.535 35.5598V34.8878H131.991V35.6718C131.991 35.7785 132.017 35.8532 132.071 35.8958C132.124 35.9385 132.236 35.9598 132.406 35.9598ZM130.951 32.3438H134.791V31.8798H130.951V32.3438ZM130.951 31.0318H134.791V30.5838H130.951V31.0318ZM130.951 33.6238H134.791V33.2078H130.951V33.6238ZM132.935 39.4638C133.159 39.3465 133.372 39.2238 133.575 39.0958C133.777 38.9678 133.964 38.8345 134.135 38.6958H131.863C132.023 38.8345 132.193 38.9678 132.375 39.0958C132.556 39.2238 132.743 39.3465 132.935 39.4638Z" fill="#111111"/>
<path d="M287.861 62.0001L295.881 38.8401H284.301V34.1201H302.581L293.581 62.0001H287.861Z" fill="#00B6B6"/>
<path d="M270.607 62.5201C269.394 62.5201 268.1 62.3801 266.727 62.1001C265.367 61.8335 264.194 61.3735 263.207 60.7201L264.687 56.2401C265.274 56.7734 266.06 57.2268 267.047 57.6001C268.034 57.9735 268.994 58.1601 269.927 58.1601C270.567 58.1601 271.247 58.1135 271.967 58.0201C272.7 57.9135 273.387 57.6935 274.027 57.3601C274.667 57.0135 275.187 56.4935 275.587 55.8001C276 55.0935 276.207 54.1468 276.207 52.9601C276.207 51.3735 275.68 50.1135 274.627 49.1801C273.574 48.2335 272.074 47.7601 270.127 47.7601C269.38 47.7601 268.62 47.8335 267.847 47.9801C267.087 48.1135 266.4 48.2801 265.787 48.4801C265.174 48.6801 264.727 48.8668 264.447 49.0401L264.967 34.1201H280.407V38.3601H269.527L269.127 44.3201C269.754 44.1335 270.367 44.0068 270.967 43.9401C271.58 43.8735 272.247 43.8401 272.967 43.8401C275.794 43.8401 277.94 44.6201 279.407 46.1801C280.874 47.7268 281.607 49.8135 281.607 52.4401C281.607 54.5201 281.14 56.3135 280.207 57.8201C279.287 59.3268 278 60.4868 276.347 61.3001C274.694 62.1135 272.78 62.5201 270.607 62.5201Z" fill="#00B6B6"/>
<path d="M307.196 53.5399C306.049 53.5399 305.203 53.1966 304.656 52.5099C304.109 51.8166 303.836 50.8999 303.836 49.7599C303.836 48.4199 304.139 47.4499 304.746 46.8499C305.353 46.2433 306.169 45.9399 307.196 45.9399C308.216 45.9399 309.019 46.2433 309.606 46.8499C310.199 47.4499 310.496 48.4266 310.496 49.7799C310.496 50.5199 310.389 51.1733 310.176 51.7399C309.969 52.2999 309.623 52.7399 309.136 53.0599C308.656 53.3799 308.009 53.5399 307.196 53.5399ZM307.176 59.9999L314.816 46.0599H316.776L309.136 59.9999H307.176ZM307.176 52.0399C307.509 52.0399 307.756 51.9366 307.916 51.7299C308.076 51.5233 308.179 51.2533 308.226 50.9199C308.273 50.5799 308.296 50.2133 308.296 49.8199C308.296 49.0266 308.216 48.4366 308.056 48.0499C307.903 47.6566 307.596 47.4599 307.136 47.4599C306.696 47.4599 306.393 47.6533 306.226 48.0399C306.059 48.4266 305.976 48.9999 305.976 49.7599C305.976 50.3866 306.049 50.9233 306.196 51.3699C306.343 51.8166 306.669 52.0399 307.176 52.0399ZM316.856 60.2999C315.696 60.2999 314.846 59.9533 314.306 59.2599C313.766 58.5599 313.496 57.6399 313.496 56.4999C313.496 55.1666 313.796 54.1966 314.396 53.5899C314.996 52.9833 315.809 52.6799 316.836 52.6799C317.856 52.6799 318.663 52.9866 319.256 53.5999C319.856 54.2066 320.156 55.1866 320.156 56.5399C320.156 57.2733 320.049 57.9233 319.836 58.4899C319.623 59.0566 319.273 59.4999 318.786 59.8199C318.306 60.1399 317.663 60.2999 316.856 60.2999ZM316.796 58.7599C317.143 58.7599 317.396 58.6599 317.556 58.4599C317.716 58.2599 317.819 57.9933 317.866 57.6599C317.913 57.3266 317.936 56.9599 317.936 56.5599C317.936 55.7666 317.859 55.1766 317.706 54.7899C317.553 54.3966 317.249 54.1999 316.796 54.1999C316.336 54.1999 316.026 54.3933 315.866 54.7799C315.713 55.1666 315.636 55.7466 315.636 56.5199C315.636 57.1399 315.703 57.6699 315.836 58.1099C315.976 58.5433 316.296 58.7599 316.796 58.7599Z" fill="#00B6B6"/>
<path d="M204.473 130.96C204.483 130.81 204.489 130.608 204.489 130.352C204.489 130.096 204.489 129.84 204.489 129.584C204.489 129.328 204.483 129.125 204.473 128.976C204.675 128.986 205.033 128.997 205.545 129.008C206.067 129.018 206.686 129.029 207.401 129.04C208.126 129.05 208.899 129.061 209.721 129.072C210.542 129.072 211.363 129.072 212.185 129.072C213.006 129.072 213.779 129.066 214.505 129.056C215.241 129.045 215.875 129.034 216.409 129.024C216.942 129.013 217.321 128.997 217.545 128.976C217.534 129.114 217.523 129.312 217.513 129.568C217.513 129.824 217.513 130.085 217.513 130.352C217.523 130.608 217.529 130.805 217.529 130.944C217.262 130.933 216.867 130.922 216.345 130.912C215.833 130.901 215.23 130.89 214.537 130.88C213.854 130.869 213.123 130.864 212.345 130.864C211.577 130.864 210.798 130.864 210.009 130.864C209.219 130.864 208.467 130.869 207.753 130.88C207.038 130.89 206.393 130.901 205.817 130.912C205.251 130.922 204.803 130.938 204.473 130.96Z" fill="#111111"/>
<path d="M192.937 136.752C192.862 136.602 192.75 136.426 192.601 136.224C192.462 136.021 192.308 135.818 192.137 135.616C191.966 135.413 191.806 135.248 191.657 135.12C192.756 134.661 193.662 134.112 194.377 133.472C195.092 132.832 195.625 132.053 195.977 131.136C196.329 130.208 196.505 129.104 196.505 127.824V127.088C196.505 126.853 196.5 126.549 196.489 126.176C196.489 125.802 196.484 125.418 196.473 125.024C196.473 124.629 196.468 124.272 196.457 123.952C196.457 123.632 196.452 123.402 196.441 123.264H198.505V127.824C198.505 129.317 198.308 130.618 197.913 131.728C197.518 132.826 196.91 133.786 196.089 134.608C195.268 135.418 194.217 136.133 192.937 136.752ZM191.609 131.216C191.62 131.12 191.62 130.885 191.609 130.512C191.609 130.128 191.604 129.664 191.593 129.12C191.593 128.576 191.588 128.005 191.577 127.408C191.566 126.81 191.55 126.24 191.529 125.696C191.518 125.152 191.508 124.693 191.497 124.32C191.486 123.936 191.476 123.696 191.465 123.6H193.449C193.449 123.717 193.449 123.962 193.449 124.336C193.449 124.709 193.449 125.162 193.449 125.696C193.46 126.218 193.47 126.768 193.481 127.344C193.492 127.92 193.502 128.48 193.513 129.024C193.534 129.557 193.55 130.021 193.561 130.416C193.582 130.8 193.598 131.061 193.609 131.2L191.609 131.216Z" fill="#111111"/>
<path d="M177.176 136.496V123.6H179.128V128.448L179.848 127.424C180.104 127.616 180.44 127.846 180.856 128.112C181.282 128.379 181.736 128.656 182.216 128.944C182.696 129.222 183.16 129.478 183.608 129.712C184.056 129.947 184.434 130.123 184.744 130.24C184.616 130.358 184.466 130.528 184.296 130.752C184.136 130.966 183.981 131.19 183.832 131.424C183.693 131.648 183.586 131.84 183.512 132C183.256 131.872 182.936 131.696 182.552 131.472C182.178 131.248 181.778 131.008 181.352 130.752C180.936 130.486 180.53 130.219 180.136 129.952C179.752 129.686 179.416 129.446 179.128 129.232V136.496H177.176ZM184.856 125.92C184.653 125.579 184.386 125.222 184.056 124.848C183.736 124.464 183.442 124.155 183.176 123.92L184.072 123.232C184.221 123.36 184.408 123.552 184.632 123.808C184.856 124.054 185.074 124.304 185.288 124.56C185.501 124.816 185.666 125.035 185.784 125.216L184.856 125.92ZM183.384 127.088C183.181 126.747 182.92 126.384 182.6 126C182.28 125.616 181.986 125.307 181.72 125.072L182.616 124.384C182.765 124.523 182.952 124.72 183.176 124.976C183.4 125.222 183.613 125.472 183.816 125.728C184.029 125.984 184.194 126.203 184.312 126.384L183.384 127.088Z" fill="#111111"/>
<path d="M158.649 135.552L157.561 133.584C158.318 133.424 159.113 133.163 159.945 132.8C160.787 132.427 161.63 131.995 162.473 131.504C163.315 131.003 164.115 130.469 164.873 129.904C165.63 129.328 166.313 128.747 166.921 128.16C167.539 127.573 168.041 127.013 168.425 126.48C168.467 126.661 168.537 126.885 168.633 127.152C168.739 127.419 168.851 127.68 168.969 127.936C169.086 128.181 169.187 128.373 169.273 128.512C168.75 129.184 168.094 129.867 167.305 130.56C166.526 131.243 165.662 131.904 164.713 132.544C163.763 133.173 162.771 133.749 161.737 134.272C160.702 134.795 159.673 135.221 158.649 135.552ZM160.361 128.496C160.222 128.347 160.025 128.171 159.769 127.968C159.523 127.765 159.246 127.552 158.937 127.328C158.638 127.104 158.345 126.901 158.057 126.72C157.769 126.528 157.518 126.384 157.305 126.288L158.585 124.672C158.798 124.789 159.049 124.939 159.337 125.12C159.625 125.301 159.918 125.499 160.217 125.712C160.526 125.925 160.814 126.139 161.081 126.352C161.347 126.555 161.561 126.736 161.721 126.896L160.361 128.496Z" fill="#111111"/>
<path d="M143.286 135.056L142.246 134.256C142.257 134.128 142.267 133.888 142.278 133.536C142.289 133.184 142.294 132.763 142.294 132.272C142.305 131.781 142.31 131.253 142.31 130.688C142.31 130.112 142.31 129.547 142.31 128.992C142.31 128.373 142.305 127.792 142.294 127.248C142.294 126.693 142.289 126.213 142.278 125.808C142.267 125.392 142.257 125.093 142.246 124.912H144.294C144.273 125.104 144.257 125.413 144.246 125.84C144.235 126.267 144.225 126.747 144.214 127.28C144.214 127.813 144.214 128.352 144.214 128.896V132.544C144.95 132.267 145.734 131.936 146.566 131.552C147.398 131.157 148.214 130.736 149.014 130.288C149.825 129.829 150.566 129.371 151.238 128.912C151.91 128.453 152.459 128.016 152.886 127.6C152.897 127.781 152.923 128.027 152.966 128.336C153.009 128.635 153.057 128.928 153.11 129.216C153.174 129.504 153.227 129.723 153.27 129.872C152.843 130.224 152.326 130.597 151.718 130.992C151.121 131.376 150.465 131.765 149.75 132.16C149.035 132.555 148.299 132.939 147.542 133.312C146.795 133.675 146.054 134.005 145.318 134.304C144.593 134.603 143.915 134.853 143.286 135.056Z" fill="#111111"/>
<path d="M127.352 135.952C127.287 135.813 127.186 135.632 127.048 135.408C126.909 135.184 126.754 134.96 126.583 134.736C126.423 134.512 126.269 134.336 126.119 134.208C128.146 133.536 129.821 132.613 131.143 131.44C132.477 130.267 133.437 128.763 134.024 126.928C133.522 126.939 132.952 126.955 132.312 126.976C131.672 126.997 131.016 127.019 130.344 127.04C129.682 127.061 129.042 127.083 128.424 127.104C127.815 127.125 127.282 127.147 126.823 127.168C126.365 127.189 126.029 127.205 125.816 127.216L125.688 125.056C125.997 125.077 126.402 125.093 126.904 125.104C127.405 125.115 127.96 125.12 128.568 125.12C129.186 125.12 129.816 125.12 130.456 125.12C131.106 125.109 131.736 125.099 132.344 125.088C132.952 125.067 133.501 125.045 133.992 125.024C134.482 125.003 134.872 124.981 135.16 124.96L136.455 125.632C136.093 127.339 135.495 128.869 134.663 130.224C133.831 131.568 132.797 132.725 131.56 133.696C130.322 134.656 128.92 135.408 127.352 135.952Z" fill="#111111"/>
<path d="M222.92 109.928C222.717 109.587 222.445 109.219 222.104 108.824C221.773 108.429 221.421 108.056 221.048 107.704C220.685 107.341 220.338 107.043 220.008 106.808L221.224 105.704C221.469 105.864 221.736 106.072 222.024 106.328C222.312 106.573 222.605 106.84 222.904 107.128C223.202 107.405 223.474 107.677 223.72 107.944C223.976 108.211 224.184 108.445 224.344 108.648L222.92 109.928Z" fill="#111111"/>
<path d="M212.632 110.2C212.44 109.806 212.179 109.363 211.848 108.872C211.528 108.371 211.171 107.859 210.776 107.336C210.392 106.803 209.998 106.286 209.592 105.784C209.187 105.283 208.803 104.835 208.44 104.44C208.088 104.035 207.784 103.715 207.528 103.48C207.166 103.128 206.984 102.819 206.984 102.552C206.984 102.275 207.16 101.987 207.512 101.688C207.779 101.454 208.094 101.155 208.456 100.792C208.819 100.43 209.198 100.03 209.592 99.5923C209.987 99.155 210.371 98.707 210.744 98.2483C211.128 97.7897 211.47 97.347 211.768 96.9203C212.078 96.483 212.318 96.0883 212.488 95.7363L214.312 96.9683C214.078 97.2883 213.752 97.683 213.336 98.1523C212.931 98.6217 212.494 99.1123 212.024 99.6243C211.566 100.126 211.118 100.606 210.68 101.064C210.243 101.512 209.87 101.886 209.56 102.184C209.315 102.43 209.326 102.691 209.592 102.968C209.827 103.203 210.115 103.518 210.456 103.912C210.808 104.296 211.176 104.728 211.56 105.208C211.955 105.678 212.344 106.152 212.728 106.632C213.112 107.112 213.459 107.566 213.768 107.992C214.078 108.408 214.323 108.755 214.504 109.032C214.334 109.096 214.126 109.198 213.88 109.336C213.635 109.475 213.395 109.619 213.16 109.768C212.936 109.928 212.76 110.072 212.632 110.2Z" fill="#111111"/>
<path d="M197.449 109.8C196.542 109.843 195.673 109.811 194.841 109.704C194.009 109.598 193.268 109.395 192.617 109.096C191.966 108.798 191.449 108.398 191.065 107.896C190.692 107.384 190.505 106.755 190.505 106.008C190.505 105.283 190.745 104.675 191.225 104.184C191.705 103.683 192.35 103.326 193.161 103.112C193.972 102.888 194.868 102.835 195.849 102.952C195.582 102.579 195.332 102.195 195.097 101.8C194.862 101.395 194.649 100.979 194.457 100.552C193.433 100.627 192.441 100.691 191.481 100.744C190.521 100.787 189.705 100.803 189.033 100.792L188.793 98.9204C189.38 98.9737 190.121 98.9951 191.017 98.9844C191.924 98.9737 192.868 98.9364 193.849 98.8724C193.572 97.8911 193.433 96.9417 193.433 96.0244H195.353C195.342 96.4724 195.369 96.9257 195.433 97.3844C195.497 97.8324 195.588 98.2751 195.705 98.7124C196.729 98.6164 197.684 98.4991 198.569 98.3604C199.465 98.2217 200.169 98.0671 200.681 97.8964L200.953 99.7364C200.452 99.8431 199.79 99.9551 198.969 100.072C198.158 100.179 197.278 100.28 196.329 100.376C196.66 101.059 197.065 101.71 197.545 102.328C198.036 102.936 198.601 103.475 199.241 103.944L198.089 105.256C197.63 104.99 197.145 104.787 196.633 104.648C196.121 104.51 195.614 104.44 195.113 104.44C194.622 104.43 194.174 104.483 193.769 104.6C193.364 104.718 193.038 104.894 192.793 105.128C192.558 105.363 192.441 105.656 192.441 106.008C192.441 106.531 192.697 106.936 193.209 107.224C193.732 107.502 194.43 107.688 195.305 107.784C196.19 107.87 197.166 107.88 198.233 107.816C198.116 107.976 197.998 108.184 197.881 108.44C197.774 108.686 197.678 108.931 197.593 109.176C197.518 109.422 197.47 109.63 197.449 109.8Z" fill="#111111"/>
<path d="M173.014 110.344C172.918 110.131 172.763 109.853 172.55 109.512C172.347 109.181 172.139 108.915 171.926 108.712C172.694 108.499 173.441 108.205 174.166 107.832C174.902 107.459 175.585 107.037 176.214 106.568C175.787 106.227 175.361 105.912 174.934 105.624C174.518 105.336 174.123 105.112 173.75 104.952L174.902 103.672C175.339 103.875 175.782 104.125 176.23 104.424C176.689 104.723 177.147 105.043 177.606 105.384C178.299 104.68 178.843 103.96 179.238 103.224H172.886V101.656H183.958C183.926 101.933 183.899 102.28 183.878 102.696C183.857 103.101 183.846 103.544 183.846 104.024C183.846 104.877 183.915 105.624 184.054 106.264C184.203 106.904 184.406 107.443 184.662 107.88C184.811 107.56 184.945 107.251 185.062 106.952C185.19 106.653 185.275 106.435 185.318 106.296C185.414 106.371 185.547 106.456 185.718 106.552C185.899 106.648 186.091 106.744 186.294 106.84C186.507 106.925 186.694 106.989 186.854 107.032C186.801 107.203 186.721 107.421 186.614 107.688C186.507 107.944 186.39 108.216 186.262 108.504C186.145 108.781 186.027 109.037 185.91 109.272C185.793 109.507 185.686 109.688 185.59 109.816C185.409 110.083 185.185 110.243 184.918 110.296C184.662 110.349 184.422 110.312 184.198 110.184C183.761 109.928 183.377 109.496 183.046 108.888C182.726 108.269 182.475 107.523 182.294 106.648C182.123 105.763 182.038 104.792 182.038 103.736V103.224H179.318L180.886 104.104C180.374 104.947 179.745 105.752 178.998 106.52C179.403 106.883 179.782 107.245 180.134 107.608C180.497 107.971 180.822 108.323 181.11 108.664C180.865 108.856 180.609 109.075 180.342 109.32C180.075 109.576 179.846 109.811 179.654 110.024C179.419 109.715 179.126 109.363 178.774 108.968C178.422 108.573 178.033 108.179 177.606 107.784C176.913 108.339 176.177 108.835 175.398 109.272C174.619 109.709 173.825 110.067 173.014 110.344ZM172.918 101.512C172.715 101.32 172.491 101.128 172.246 100.936C172.001 100.733 171.723 100.557 171.414 100.408C171.894 99.9813 172.347 99.496 172.774 98.952C173.201 98.3973 173.574 97.816 173.894 97.208C174.214 96.5893 174.449 95.992 174.598 95.416L176.374 95.896C176.331 96.056 176.278 96.2213 176.214 96.392C176.15 96.552 176.081 96.7173 176.006 96.888H185.366V98.376H175.286C174.955 98.9627 174.587 99.5333 174.182 100.088C173.777 100.632 173.355 101.107 172.918 101.512ZM175.718 100.68V99.224H183.766V100.68H175.718Z" fill="#111111"/>
<path d="M164.632 110.2C164.44 109.806 164.179 109.363 163.848 108.872C163.528 108.371 163.171 107.859 162.776 107.336C162.392 106.803 161.998 106.286 161.592 105.784C161.187 105.283 160.803 104.835 160.44 104.44C160.088 104.035 159.784 103.715 159.528 103.48C159.166 103.128 158.984 102.819 158.984 102.552C158.984 102.275 159.16 101.987 159.512 101.688C159.779 101.454 160.094 101.155 160.456 100.792C160.819 100.43 161.198 100.03 161.592 99.5923C161.987 99.155 162.371 98.707 162.744 98.2483C163.128 97.7897 163.47 97.347 163.768 96.9203C164.078 96.483 164.318 96.0883 164.488 95.7363L166.312 96.9683C166.078 97.2883 165.752 97.683 165.336 98.1523C164.931 98.6217 164.494 99.1123 164.024 99.6243C163.566 100.126 163.118 100.606 162.68 101.064C162.243 101.512 161.87 101.886 161.56 102.184C161.315 102.43 161.326 102.691 161.592 102.968C161.827 103.203 162.115 103.518 162.456 103.912C162.808 104.296 163.176 104.728 163.56 105.208C163.955 105.678 164.344 106.152 164.728 106.632C165.112 107.112 165.459 107.566 165.768 107.992C166.078 108.408 166.323 108.755 166.504 109.032C166.334 109.096 166.126 109.198 165.88 109.336C165.635 109.475 165.395 109.619 165.16 109.768C164.936 109.928 164.76 110.072 164.632 110.2Z" fill="#111111"/>
<path d="M147.434 109.512C146.154 109.512 145.21 109.272 144.602 108.792C143.994 108.302 143.69 107.704 143.69 107C143.69 106.542 143.802 106.152 144.026 105.832C144.25 105.512 144.543 105.267 144.906 105.096C145.268 104.915 145.658 104.824 146.074 104.824C146.863 104.824 147.498 105.07 147.978 105.56C148.468 106.051 148.783 106.659 148.922 107.384C149.316 107.203 149.636 106.926 149.882 106.552C150.138 106.179 150.266 105.731 150.266 105.208C150.266 104.76 150.159 104.36 149.946 104.008C149.732 103.656 149.428 103.379 149.034 103.176C148.65 102.963 148.202 102.856 147.69 102.856C146.975 102.856 146.351 102.942 145.818 103.112C145.295 103.283 144.82 103.555 144.394 103.928C144.202 104.099 143.946 104.318 143.626 104.584C143.316 104.851 143.023 105.091 142.746 105.304L141.434 103.896C141.914 103.619 142.426 103.267 142.97 102.84C143.514 102.414 144.063 101.939 144.618 101.416C145.172 100.894 145.7 100.355 146.202 99.8002C146.703 99.2349 147.151 98.6802 147.546 98.1362C147.087 98.2429 146.586 98.3442 146.042 98.4402C145.508 98.5362 144.991 98.6162 144.49 98.6802C143.999 98.7442 143.583 98.7869 143.242 98.8082L142.89 96.9842C143.178 97.0055 143.535 97.0055 143.962 96.9842C144.399 96.9522 144.868 96.9149 145.37 96.8722C145.871 96.8189 146.356 96.7549 146.826 96.6802C147.306 96.6055 147.732 96.5309 148.106 96.4562C148.49 96.3709 148.772 96.2855 148.954 96.2002L150.394 97.1602C150.031 97.8749 149.53 98.6269 148.89 99.4162C148.26 100.195 147.583 100.947 146.858 101.672C147.039 101.587 147.242 101.523 147.466 101.48C147.69 101.427 147.908 101.4 148.122 101.4C148.964 101.4 149.695 101.56 150.314 101.88C150.932 102.2 151.412 102.648 151.754 103.224C152.106 103.79 152.282 104.451 152.282 105.208C152.282 106.008 152.079 106.734 151.674 107.384C151.279 108.035 150.719 108.552 149.994 108.936C149.268 109.32 148.415 109.512 147.434 109.512ZM147.226 107.752C147.172 107.347 147.044 107.022 146.842 106.776C146.65 106.531 146.394 106.408 146.074 106.408C145.903 106.408 145.759 106.451 145.642 106.536C145.524 106.622 145.466 106.75 145.466 106.92C145.466 107.144 145.583 107.331 145.818 107.48C146.063 107.63 146.468 107.715 147.034 107.736C147.066 107.747 147.098 107.752 147.13 107.752C147.162 107.752 147.194 107.752 147.226 107.752Z" fill="#111111"/>
<path d="M128.024 110.232C127.917 109.986 127.746 109.714 127.512 109.416C127.277 109.117 127.048 108.877 126.824 108.696C127.805 108.365 128.61 107.949 129.24 107.448C129.869 106.946 130.338 106.301 130.648 105.512C130.957 104.712 131.112 103.709 131.112 102.504V96.1035H137.64V108.44C137.64 109.026 137.469 109.453 137.128 109.72C136.786 109.997 136.269 110.136 135.576 110.136H134.344C134.333 109.954 134.301 109.741 134.248 109.496C134.205 109.25 134.152 109.01 134.088 108.776C134.034 108.541 133.976 108.354 133.912 108.216H135.16C135.384 108.216 135.544 108.178 135.64 108.104C135.736 108.029 135.784 107.885 135.784 107.672V104.456H132.808C132.573 105.97 132.056 107.176 131.256 108.072C130.456 108.957 129.378 109.677 128.024 110.232ZM124.008 105.864V96.4555H129.832V105.864H124.008ZM132.952 102.872H135.784V101.128H132.952V102.872ZM132.952 99.5435H135.784V97.8475H132.952V99.5435ZM125.864 104.136H128.024V101.928H125.864V104.136ZM125.864 100.312H128.024V98.1355H125.864V100.312Z" fill="#111111"/>
<path d="M278.993 130.6C277.473 130.6 276.006 130.414 274.593 130.04C273.179 129.667 271.913 129.08 270.793 128.28L272.473 123.72C273.233 124.454 274.159 125.027 275.253 125.44C276.346 125.84 277.419 126.04 278.473 126.04C280.273 126.04 281.593 125.614 282.433 124.76C283.286 123.907 283.713 122.84 283.713 121.56C283.713 120.48 283.446 119.66 282.913 119.1C282.393 118.527 281.706 118.134 280.853 117.92C279.999 117.707 279.086 117.6 278.113 117.6H275.993V113.64H278.153C279.793 113.64 281.006 113.24 281.793 112.44C282.593 111.627 282.993 110.614 282.993 109.4C282.993 108.08 282.599 107.187 281.813 106.72C281.026 106.24 279.913 106 278.473 106C277.953 106 277.326 106.094 276.593 106.28C275.873 106.467 275.153 106.74 274.433 107.1C273.713 107.46 273.113 107.907 272.633 108.44L270.633 104.2C271.459 103.48 272.626 102.84 274.133 102.28C275.653 101.72 277.459 101.44 279.553 101.44C282.313 101.44 284.506 102.067 286.133 103.32C287.773 104.56 288.593 106.32 288.593 108.6C288.593 109.614 288.413 110.607 288.053 111.58C287.693 112.554 287.166 113.407 286.473 114.14C285.779 114.86 284.939 115.347 283.953 115.6C285.086 115.6 286.053 115.914 286.853 116.54C287.666 117.167 288.286 117.98 288.713 118.98C289.139 119.98 289.353 121.04 289.353 122.16C289.353 123.92 288.886 125.434 287.953 126.7C287.019 127.954 285.766 128.92 284.193 129.6C282.633 130.267 280.899 130.6 278.993 130.6Z" fill="#00B6B6"/>
<path d="M246.41 124.52L256.69 102.12H265.13V121.08H268.49V124.96H265.13V130H259.89V124.96H246.69L246.41 124.52ZM253.53 121.08H260.13L260.31 104.98L255.81 116.12L253.53 121.08Z" fill="#00B6B6"/>
<path d="M294.196 121.54C293.049 121.54 292.203 121.197 291.656 120.51C291.109 119.817 290.836 118.9 290.836 117.76C290.836 116.42 291.139 115.45 291.746 114.85C292.353 114.244 293.169 113.94 294.196 113.94C295.216 113.94 296.019 114.244 296.606 114.85C297.199 115.45 297.496 116.427 297.496 117.78C297.496 118.52 297.389 119.174 297.176 119.74C296.969 120.3 296.623 120.74 296.136 121.06C295.656 121.38 295.009 121.54 294.196 121.54ZM294.176 128L301.816 114.06H303.776L296.136 128H294.176ZM294.176 120.04C294.509 120.04 294.756 119.937 294.916 119.73C295.076 119.524 295.179 119.254 295.226 118.92C295.273 118.58 295.296 118.214 295.296 117.82C295.296 117.027 295.216 116.437 295.056 116.05C294.903 115.657 294.596 115.46 294.136 115.46C293.696 115.46 293.393 115.654 293.226 116.04C293.059 116.427 292.976 117 292.976 117.76C292.976 118.387 293.049 118.924 293.196 119.37C293.343 119.817 293.669 120.04 294.176 120.04ZM303.856 128.3C302.696 128.3 301.846 127.954 301.306 127.26C300.766 126.56 300.496 125.64 300.496 124.5C300.496 123.167 300.796 122.197 301.396 121.59C301.996 120.984 302.809 120.68 303.836 120.68C304.856 120.68 305.663 120.987 306.256 121.6C306.856 122.207 307.156 123.187 307.156 124.54C307.156 125.274 307.049 125.924 306.836 126.49C306.623 127.057 306.273 127.5 305.786 127.82C305.306 128.14 304.663 128.3 303.856 128.3ZM303.796 126.76C304.143 126.76 304.396 126.66 304.556 126.46C304.716 126.26 304.819 125.994 304.866 125.66C304.913 125.327 304.936 124.96 304.936 124.56C304.936 123.767 304.859 123.177 304.706 122.79C304.553 122.397 304.249 122.2 303.796 122.2C303.336 122.2 303.026 122.394 302.866 122.78C302.713 123.167 302.636 123.747 302.636 124.52C302.636 125.14 302.703 125.67 302.836 126.11C302.976 126.544 303.296 126.76 303.796 126.76Z" fill="#00B6B6"/>
</svg>
