<svg width="360" height="396" viewBox="0 0 360 396" fill="none" xmlns="http://www.w3.org/2000/svg">
<rect width="360" height="396" fill="white"/>
<path d="M175.445 112.058C188.966 112.058 202.313 115.105 214.495 120.971L175.445 202.058L175.445 112.058Z" fill="#00B6B6"/>
<path d="M214.495 120.971C226.677 126.838 237.38 135.373 245.81 145.944C254.24 156.515 260.18 168.85 263.189 182.032C266.197 195.213 266.197 208.904 263.189 222.085C260.18 235.267 254.24 247.602 245.81 258.172L175.445 202.058L214.495 120.971Z" fill="#54D2D2"/>
<path d="M245.812 258.172C237.382 268.743 226.678 277.279 214.496 283.146C202.315 289.012 188.968 292.058 175.447 292.058C161.926 292.058 148.579 289.012 136.397 283.146C124.216 277.279 113.512 268.743 105.082 258.172L175.447 202.058L245.812 258.172Z" fill="#6EE6E6"/>
<path d="M105.08 258.172C92.3683 242.232 85.4453 222.447 85.4453 202.058C85.4453 181.67 92.3683 161.885 105.08 145.944L175.445 202.058L105.08 258.172Z" fill="#7EFCFC"/>
<path d="M105.082 145.944C113.512 135.373 124.216 126.838 136.397 120.971C148.579 115.105 161.926 112.058 175.447 112.058V202.058L105.082 145.944Z" fill="#C8FFFF"/>
<path d="M281.533 71.96C281.426 71.6133 281.266 71.2267 281.053 70.8C280.84 70.3733 280.64 70.0333 280.453 69.78C281.84 69.5 283.213 69.08 284.573 68.52C285.946 67.96 287.206 67.3 288.353 66.54C287.646 65.8067 287.006 64.9933 286.433 64.1C285.233 65.3 283.86 66.3333 282.313 67.2C282.14 66.9467 281.906 66.6467 281.613 66.3C281.333 65.94 281.06 65.66 280.793 65.46C281.726 64.98 282.633 64.3867 283.513 63.68C284.406 62.96 285.213 62.1867 285.933 61.36C286.653 60.5333 287.206 59.7 287.593 58.86L289.733 59.58C289.64 59.78 289.533 59.98 289.413 60.18C289.306 60.3667 289.2 60.5533 289.093 60.74H295.013L295.893 61.5C294.866 63.4467 293.553 65.14 291.953 66.58C293.06 67.2867 294.266 67.8733 295.573 68.34C296.88 68.7933 298.22 69.1333 299.593 69.36C299.46 69.5467 299.306 69.7867 299.133 70.08C298.96 70.36 298.8 70.6533 298.653 70.96C298.506 71.2667 298.4 71.5333 298.333 71.76C296.72 71.3467 295.226 70.84 293.853 70.24C292.48 69.6267 291.233 68.9 290.113 68.06C288.886 68.94 287.546 69.7067 286.093 70.36C284.653 71 283.133 71.5333 281.533 71.96ZM293.973 77.8C293.346 77.4533 292.64 77.1133 291.853 76.78C291.066 76.4467 290.24 76.1333 289.373 75.84C288.506 75.5467 287.64 75.2933 286.773 75.08C285.92 74.8533 285.1 74.68 284.313 74.56L285.233 72.52C285.98 72.6533 286.793 72.8333 287.673 73.06C288.553 73.2867 289.44 73.5467 290.333 73.84C291.24 74.1333 292.106 74.4467 292.933 74.78C293.76 75.1 294.5 75.4267 295.153 75.76C294.94 76 294.713 76.3267 294.473 76.74C294.246 77.1667 294.08 77.52 293.973 77.8ZM292.153 73.64C291.753 73.3333 291.273 73.0267 290.713 72.72C290.166 72.4133 289.606 72.1333 289.033 71.88C288.46 71.6133 287.933 71.4133 287.453 71.28L288.693 69.48C289.133 69.6133 289.646 69.8133 290.233 70.08C290.82 70.3333 291.4 70.6133 291.973 70.92C292.56 71.2133 293.06 71.5 293.473 71.78C293.366 71.8733 293.226 72.04 293.053 72.28C292.88 72.5067 292.706 72.7533 292.533 73.02C292.373 73.2733 292.246 73.48 292.153 73.64ZM290.133 65.2C291.04 64.4133 291.786 63.5733 292.373 62.68H287.993C288.566 63.6133 289.28 64.4533 290.133 65.2Z" fill="#111111"/>
<path d="M271.533 76.18C271.48 75.9667 271.38 75.7133 271.233 75.42C271.086 75.1267 270.913 74.8467 270.713 74.58C270.526 74.3 270.34 74.0733 270.153 73.9C271.98 73.62 273.366 73.0266 274.313 72.12C275.273 71.2 275.78 70.12 275.833 68.88C275.886 67.8933 275.706 67.0133 275.293 66.24C274.88 65.4667 274.313 64.84 273.593 64.36C272.886 63.88 272.106 63.5933 271.253 63.5C271.146 64.74 270.946 66.0067 270.653 67.3C270.36 68.5933 269.96 69.8066 269.453 70.94C268.96 72.0733 268.353 73.0333 267.633 73.82C267.086 74.4067 266.553 74.7467 266.033 74.84C265.526 74.9333 264.986 74.86 264.413 74.62C263.853 74.38 263.36 74 262.933 73.48C262.506 72.96 262.18 72.3466 261.953 71.64C261.726 70.92 261.633 70.1533 261.673 69.34C261.74 68.1267 262.026 67.02 262.533 66.02C263.04 65.0067 263.72 64.1333 264.573 63.4C265.426 62.6666 266.406 62.1133 267.513 61.74C268.62 61.3666 269.8 61.2133 271.053 61.28C272.066 61.3333 273.02 61.56 273.913 61.96C274.806 62.36 275.586 62.9133 276.253 63.62C276.933 64.3133 277.453 65.12 277.813 66.04C278.186 66.96 278.34 67.9667 278.273 69.06C278.18 70.8867 277.54 72.42 276.353 73.66C275.166 74.8867 273.56 75.7267 271.533 76.18ZM265.033 72.14C265.18 72.2466 265.333 72.3 265.493 72.3C265.653 72.3 265.813 72.22 265.973 72.06C266.453 71.58 266.893 70.9 267.293 70.02C267.706 69.14 268.046 68.1466 268.313 67.04C268.593 65.9333 268.773 64.8067 268.853 63.66C267.933 63.8733 267.113 64.26 266.393 64.82C265.686 65.38 265.126 66.06 264.713 66.86C264.3 67.6467 264.066 68.5133 264.013 69.46C263.986 70.0866 264.066 70.6333 264.253 71.1C264.453 71.5533 264.713 71.9 265.033 72.14Z" fill="#111111"/>
<path d="M249.853 77.48V73.14H240.833V71.06H244.213V66.1H249.853V63.74H245.793C245.313 64.5 244.793 65.22 244.233 65.9C243.687 66.5667 243.113 67.1733 242.513 67.72C242.3 67.4933 242.02 67.24 241.673 66.96C241.34 66.68 240.987 66.4467 240.613 66.26C241.347 65.66 242.04 64.9533 242.693 64.14C243.347 63.3133 243.913 62.46 244.393 61.58C244.887 60.6867 245.253 59.8467 245.493 59.06L247.753 59.76C247.527 60.3867 247.267 61 246.973 61.6H258.213V63.74H252.333V66.1H256.793V68.18H252.333V71.06H259.073V73.14H252.333V77.48H249.853ZM246.673 71.06H249.853V68.18H246.673V71.06Z" fill="#111111"/>
<path d="M231.566 76V75.34C231.566 74.38 231.813 73.4467 232.306 72.54C232.813 71.6333 233.653 70.62 234.826 69.5C235.24 69.1 235.633 68.7 236.006 68.3C236.38 67.8867 236.686 67.4867 236.926 67.1C237.166 66.7 237.293 66.32 237.306 65.96C237.32 65.2667 237.16 64.7533 236.826 64.42C236.506 64.0867 236.046 63.92 235.446 63.92C234.873 63.92 234.446 64.1267 234.166 64.54C233.886 64.9533 233.746 65.5333 233.746 66.28H231.626C231.626 64.8933 231.98 63.8133 232.686 63.04C233.393 62.2667 234.313 61.88 235.446 61.88C236.22 61.88 236.906 62.04 237.506 62.36C238.12 62.68 238.6 63.1467 238.946 63.76C239.293 64.3733 239.453 65.1267 239.426 66.02C239.413 66.6467 239.266 67.2267 238.986 67.76C238.706 68.2933 238.333 68.8133 237.866 69.32C237.413 69.8133 236.893 70.34 236.306 70.9C235.693 71.5 235.146 72.0733 234.666 72.62C234.2 73.1667 233.926 73.64 233.846 74.04H239.186V76H231.566Z" fill="#111111"/>
<path d="M217.728 77.58C217.701 77.26 217.635 76.8667 217.528 76.4C217.421 75.9467 217.315 75.5867 217.208 75.32H219.208C219.475 75.32 219.668 75.28 219.788 75.2C219.908 75.1067 219.968 74.9267 219.968 74.66V72.6H212.168V70.56H219.968V69.38H220.868C221.068 69.2333 221.328 69.0333 221.648 68.78C221.981 68.5133 222.281 68.26 222.548 68.02H215.728V66.06H225.828L226.728 66.98C226.475 67.2334 226.161 67.5267 225.788 67.86C225.415 68.1934 225.021 68.5333 224.608 68.88C224.195 69.2267 223.795 69.5467 223.408 69.84C223.035 70.1334 222.715 70.3733 222.448 70.56H229.828V72.6H222.348V75.5C222.348 76.8867 221.508 77.58 219.828 77.58H217.728ZM212.328 67.64V62.92H215.408C215.221 62.4933 214.981 62.0333 214.688 61.54C214.408 61.0333 214.141 60.6333 213.888 60.34L215.948 59.4C216.148 59.6267 216.361 59.9267 216.588 60.3C216.828 60.66 217.055 61.0333 217.268 61.42C217.481 61.7933 217.641 62.12 217.748 62.4L216.528 62.92H220.008C219.901 62.6133 219.755 62.2734 219.568 61.9C219.395 61.5134 219.208 61.14 219.008 60.78C218.808 60.42 218.608 60.1133 218.408 59.86L220.548 59.08C220.748 59.3067 220.961 59.62 221.188 60.02C221.428 60.4067 221.648 60.8067 221.848 61.22C222.061 61.6334 222.215 61.9867 222.308 62.28L220.708 62.92H223.328C223.555 62.56 223.788 62.1533 224.028 61.7C224.281 61.2333 224.515 60.7733 224.728 60.32C224.955 59.8667 225.135 59.4867 225.268 59.18L227.668 59.8C227.441 60.28 227.168 60.8067 226.848 61.38C226.528 61.9534 226.228 62.4667 225.948 62.92H229.688V67.64H227.388V64.84H214.588V67.64H212.328Z" fill="#111111"/>
<path d="M193.086 77.58C192.98 77.3667 192.833 77.1134 192.646 76.82C192.473 76.54 192.286 76.2667 192.086 76C191.9 75.7467 191.726 75.5467 191.566 75.4C193.046 74.88 194.353 74.1734 195.486 73.28C196.633 72.3867 197.56 71.3667 198.266 70.22C198.986 69.0734 199.44 67.86 199.626 66.58H192.146V64.28H199.726V59.34H202.246V64.28H209.846V66.58H202.366C202.58 67.8334 203.053 69.04 203.786 70.2C204.52 71.3467 205.453 72.3667 206.586 73.26C207.733 74.1534 209.013 74.8534 210.426 75.36C210.253 75.5334 210.06 75.7534 209.846 76.02C209.646 76.2867 209.453 76.56 209.266 76.84C209.093 77.1334 208.96 77.38 208.866 77.58C207.76 77.0734 206.693 76.4467 205.666 75.7C204.64 74.94 203.72 74.08 202.906 73.12C202.093 72.1467 201.453 71.0867 200.986 69.94C200.52 71.0867 199.873 72.1467 199.046 73.12C198.22 74.0934 197.286 74.9534 196.246 75.7C195.22 76.4467 194.166 77.0734 193.086 77.58Z" fill="#111111"/>
<path d="M226.776 123L236.4 95.208H222.504V89.544H244.44L233.64 123H226.776Z" fill="#00B6B6"/>
<path d="M252.235 115.248C250.859 115.248 249.843 114.836 249.187 114.012C248.531 113.18 248.203 112.08 248.203 110.712C248.203 109.104 248.567 107.94 249.295 107.22C250.023 106.492 251.003 106.128 252.235 106.128C253.459 106.128 254.423 106.492 255.127 107.22C255.839 107.94 256.195 109.112 256.195 110.736C256.195 111.624 256.067 112.408 255.811 113.088C255.563 113.76 255.147 114.288 254.563 114.672C253.987 115.056 253.211 115.248 252.235 115.248ZM252.211 123L261.379 106.272H263.731L254.563 123H252.211ZM252.211 113.448C252.611 113.448 252.907 113.324 253.099 113.076C253.291 112.828 253.415 112.504 253.471 112.104C253.527 111.696 253.555 111.256 253.555 110.784C253.555 109.832 253.459 109.124 253.267 108.66C253.083 108.188 252.715 107.952 252.163 107.952C251.635 107.952 251.271 108.184 251.071 108.648C250.871 109.112 250.771 109.8 250.771 110.712C250.771 111.464 250.859 112.108 251.035 112.644C251.211 113.18 251.603 113.448 252.211 113.448ZM263.827 123.36C262.435 123.36 261.415 122.944 260.767 122.112C260.119 121.272 259.795 120.168 259.795 118.8C259.795 117.2 260.155 116.036 260.875 115.308C261.595 114.58 262.571 114.216 263.803 114.216C265.027 114.216 265.995 114.584 266.707 115.32C267.427 116.048 267.787 117.224 267.787 118.848C267.787 119.728 267.659 120.508 267.403 121.188C267.147 121.868 266.727 122.4 266.143 122.784C265.567 123.168 264.795 123.36 263.827 123.36ZM263.755 121.512C264.171 121.512 264.475 121.392 264.667 121.152C264.859 120.912 264.983 120.592 265.039 120.192C265.095 119.792 265.123 119.352 265.123 118.872C265.123 117.92 265.031 117.212 264.847 116.748C264.663 116.276 264.299 116.04 263.755 116.04C263.203 116.04 262.831 116.272 262.639 116.736C262.455 117.2 262.363 117.896 262.363 118.824C262.363 119.568 262.443 120.204 262.603 120.732C262.771 121.252 263.155 121.512 263.755 121.512Z" fill="#00B6B6"/>
<path d="M336.023 186.26V179.72C335.049 180.613 333.936 181.413 332.683 182.12C332.496 181.813 332.263 181.48 331.983 181.12C331.703 180.76 331.449 180.487 331.223 180.3C332.036 179.913 332.783 179.473 333.463 178.98C334.156 178.487 334.783 177.953 335.343 177.38H331.763V175.5H336.823C337.063 175.113 337.283 174.733 337.483 174.36H334.043V172.58H338.263C338.329 172.393 338.389 172.213 338.443 172.04C338.496 171.853 338.549 171.667 338.603 171.48H332.823V169.62H339.023C339.063 169.367 339.096 169.12 339.123 168.88C339.149 168.627 339.169 168.373 339.183 168.12L341.463 168.26C341.449 168.487 341.429 168.713 341.403 168.94C341.376 169.167 341.349 169.393 341.323 169.62H348.843V171.48H340.963C340.909 171.667 340.856 171.853 340.803 172.04C340.763 172.213 340.716 172.393 340.663 172.58H347.723V174.36H343.943C344.183 174.733 344.443 175.113 344.723 175.5H349.883V177.38H346.563C347.749 178.367 349.036 179.153 350.423 179.74C350.263 179.873 350.083 180.067 349.883 180.32C349.683 180.56 349.489 180.813 349.303 181.08C349.129 181.333 348.989 181.56 348.883 181.76C347.749 181.16 346.669 180.413 345.643 179.52V186.26H336.023ZM337.183 178.58H344.643C344.456 178.393 344.269 178.2 344.083 178C343.896 177.8 343.723 177.593 343.563 177.38H338.183C338.036 177.58 337.876 177.787 337.703 178C337.543 178.2 337.369 178.393 337.183 178.58ZM338.403 184.58H343.283V183.3H338.403V184.58ZM338.403 181.7H343.283V180.46H338.403V181.7ZM339.403 175.5H342.263C342.169 175.313 342.069 175.127 341.963 174.94C341.869 174.74 341.783 174.547 341.703 174.36H339.963C339.883 174.547 339.796 174.74 339.703 174.94C339.609 175.127 339.509 175.313 339.403 175.5Z" fill="#111111"/>
<path d="M322.365 185.18C322.312 184.967 322.212 184.713 322.065 184.42C321.918 184.127 321.745 183.847 321.545 183.58C321.358 183.3 321.172 183.073 320.985 182.9C322.812 182.62 324.198 182.027 325.145 181.12C326.105 180.2 326.612 179.12 326.665 177.88C326.718 176.893 326.538 176.013 326.125 175.24C325.712 174.467 325.145 173.84 324.425 173.36C323.718 172.88 322.938 172.593 322.085 172.5C321.978 173.74 321.778 175.007 321.485 176.3C321.192 177.593 320.792 178.807 320.285 179.94C319.792 181.073 319.185 182.033 318.465 182.82C317.918 183.407 317.385 183.747 316.865 183.84C316.358 183.933 315.818 183.86 315.245 183.62C314.685 183.38 314.192 183 313.765 182.48C313.338 181.96 313.012 181.347 312.785 180.64C312.558 179.92 312.465 179.153 312.505 178.34C312.572 177.127 312.858 176.02 313.365 175.02C313.872 174.007 314.552 173.133 315.405 172.4C316.258 171.667 317.238 171.113 318.345 170.74C319.452 170.367 320.632 170.213 321.885 170.28C322.898 170.333 323.852 170.56 324.745 170.96C325.638 171.36 326.418 171.913 327.085 172.62C327.765 173.313 328.285 174.12 328.645 175.04C329.018 175.96 329.172 176.967 329.105 178.06C329.012 179.887 328.372 181.42 327.185 182.66C325.998 183.887 324.392 184.727 322.365 185.18ZM315.865 181.14C316.012 181.247 316.165 181.3 316.325 181.3C316.485 181.3 316.645 181.22 316.805 181.06C317.285 180.58 317.725 179.9 318.125 179.02C318.538 178.14 318.878 177.147 319.145 176.04C319.425 174.933 319.605 173.807 319.685 172.66C318.765 172.873 317.945 173.26 317.225 173.82C316.518 174.38 315.958 175.06 315.545 175.86C315.132 176.647 314.898 177.513 314.845 178.46C314.818 179.087 314.898 179.633 315.085 180.1C315.285 180.553 315.545 180.9 315.865 181.14Z" fill="#111111"/>
<path d="M300.685 186.48V182.14H291.665V180.06H295.045V175.1H300.685V172.74H296.625C296.145 173.5 295.625 174.22 295.065 174.9C294.519 175.567 293.945 176.173 293.345 176.72C293.132 176.493 292.852 176.24 292.505 175.96C292.172 175.68 291.819 175.447 291.445 175.26C292.179 174.66 292.872 173.953 293.525 173.14C294.179 172.313 294.745 171.46 295.225 170.58C295.719 169.687 296.085 168.847 296.325 168.06L298.585 168.76C298.359 169.387 298.099 170 297.805 170.6H309.045V172.74H303.165V175.1H307.625V177.18H303.165V180.06H309.905V182.14H303.165V186.48H300.685ZM297.505 180.06H300.685V177.18H297.505V180.06Z" fill="#111111"/>
<path d="M285.514 185.2C284.568 185.2 283.748 184.953 283.054 184.46C282.374 183.953 281.881 183.213 281.574 182.24L283.534 181.58C283.601 181.767 283.708 181.987 283.854 182.24C284.001 182.48 284.208 182.693 284.474 182.88C284.741 183.067 285.074 183.16 285.474 183.16C286.154 183.16 286.694 182.993 287.094 182.66C287.494 182.327 287.694 181.767 287.694 180.98C287.694 180.273 287.494 179.707 287.094 179.28C286.694 178.853 286.121 178.64 285.374 178.64H284.374V176.68H285.374C286.041 176.68 286.534 176.487 286.854 176.1C287.174 175.7 287.334 175.213 287.334 174.64C287.334 173.973 287.141 173.507 286.754 173.24C286.381 172.96 285.954 172.82 285.474 172.82C285.128 172.82 284.834 172.92 284.594 173.12C284.354 173.307 284.154 173.527 283.994 173.78C283.848 174.02 283.741 174.233 283.674 174.42L281.734 173.64C282.081 172.733 282.588 172.033 283.254 171.54C283.934 171.033 284.688 170.78 285.514 170.78C286.328 170.78 287.034 170.94 287.634 171.26C288.248 171.567 288.721 172 289.054 172.56C289.401 173.12 289.574 173.78 289.574 174.54C289.574 175.233 289.388 175.86 289.014 176.42C288.654 176.967 288.194 177.367 287.634 177.62C288.301 177.873 288.841 178.307 289.254 178.92C289.681 179.533 289.894 180.247 289.894 181.06C289.894 182.327 289.508 183.333 288.734 184.08C287.974 184.827 286.901 185.2 285.514 185.2Z" fill="#111111"/>
<path d="M267.896 186.58C267.869 186.26 267.803 185.867 267.696 185.4C267.589 184.947 267.483 184.587 267.376 184.32H269.376C269.643 184.32 269.836 184.28 269.956 184.2C270.076 184.107 270.136 183.927 270.136 183.66V181.6H262.336V179.56H270.136V178.38H271.036C271.236 178.233 271.496 178.033 271.816 177.78C272.149 177.513 272.449 177.26 272.716 177.02H265.896V175.06H275.996L276.896 175.98C276.643 176.233 276.329 176.527 275.956 176.86C275.583 177.193 275.189 177.533 274.776 177.88C274.363 178.227 273.963 178.547 273.576 178.84C273.203 179.133 272.883 179.373 272.616 179.56H279.996V181.6H272.516V184.5C272.516 185.887 271.676 186.58 269.996 186.58H267.896ZM262.496 176.64V171.92H265.576C265.389 171.493 265.149 171.033 264.856 170.54C264.576 170.033 264.309 169.633 264.056 169.34L266.116 168.4C266.316 168.627 266.529 168.927 266.756 169.3C266.996 169.66 267.223 170.033 267.436 170.42C267.649 170.793 267.809 171.12 267.916 171.4L266.696 171.92H270.176C270.069 171.613 269.923 171.273 269.736 170.9C269.563 170.513 269.376 170.14 269.176 169.78C268.976 169.42 268.776 169.113 268.576 168.86L270.716 168.08C270.916 168.307 271.129 168.62 271.356 169.02C271.596 169.407 271.816 169.807 272.016 170.22C272.229 170.633 272.383 170.987 272.476 171.28L270.876 171.92H273.496C273.723 171.56 273.956 171.153 274.196 170.7C274.449 170.233 274.683 169.773 274.896 169.32C275.123 168.867 275.303 168.487 275.436 168.18L277.836 168.8C277.609 169.28 277.336 169.807 277.016 170.38C276.696 170.953 276.396 171.467 276.116 171.92H279.856V176.64H277.556V173.84H264.756V176.64H262.496Z" fill="#111111"/>
<path d="M243.254 186.58C243.148 186.367 243.001 186.113 242.814 185.82C242.641 185.54 242.454 185.267 242.254 185C242.068 184.747 241.894 184.547 241.734 184.4C243.214 183.88 244.521 183.173 245.654 182.28C246.801 181.387 247.728 180.367 248.434 179.22C249.154 178.073 249.608 176.86 249.794 175.58H242.314V173.28H249.894V168.34H252.414V173.28H260.014V175.58H252.534C252.748 176.833 253.221 178.04 253.954 179.2C254.688 180.347 255.621 181.367 256.754 182.26C257.901 183.153 259.181 183.853 260.594 184.36C260.421 184.533 260.228 184.753 260.014 185.02C259.814 185.287 259.621 185.56 259.434 185.84C259.261 186.133 259.128 186.38 259.034 186.58C257.928 186.073 256.861 185.447 255.834 184.7C254.808 183.94 253.888 183.08 253.074 182.12C252.261 181.147 251.621 180.087 251.154 178.94C250.688 180.087 250.041 181.147 249.214 182.12C248.388 183.093 247.454 183.953 246.414 184.7C245.388 185.447 244.334 186.073 243.254 186.58Z" fill="#111111"/>
<path d="M306.274 232.72C304.018 232.72 302.274 232.496 301.042 232.048C299.826 231.6 298.834 231.008 298.066 230.272L300.418 225.472C301.074 226.16 301.938 226.64 303.01 226.912C304.082 227.168 305.058 227.296 305.938 227.296C307.602 227.296 309.058 226.88 310.306 226.048C311.57 225.2 312.57 224.032 313.306 222.544C314.042 221.056 314.45 219.344 314.53 217.408C314.562 217.072 314.578 216.76 314.578 216.472C314.578 216.168 314.578 215.888 314.578 215.632C313.714 217.28 312.474 218.488 310.858 219.256C309.242 220.008 307.554 220.384 305.794 220.384C303.634 220.384 301.81 219.896 300.322 218.92C298.834 217.928 297.698 216.616 296.914 214.984C296.146 213.352 295.762 211.568 295.762 209.632C295.762 207.168 296.298 205.048 297.37 203.272C298.442 201.496 299.922 200.128 301.81 199.168C303.698 198.208 305.874 197.728 308.338 197.728C309.762 197.728 311.21 198.016 312.682 198.592C314.154 199.168 315.506 200.112 316.738 201.424C317.986 202.72 318.986 204.448 319.738 206.608C320.49 208.768 320.866 211.424 320.866 214.576C320.866 218.32 320.234 221.552 318.97 224.272C317.722 226.976 315.994 229.064 313.786 230.536C311.594 231.992 309.09 232.72 306.274 232.72ZM307.378 215.488C308.434 215.488 309.434 215.232 310.378 214.72C311.322 214.192 312.098 213.496 312.706 212.632C313.314 211.768 313.65 210.816 313.714 209.776C313.714 208.528 313.506 207.368 313.09 206.296C312.674 205.208 312.05 204.336 311.218 203.68C310.402 203.008 309.394 202.672 308.194 202.672C307.186 202.672 306.218 202.92 305.29 203.416C304.378 203.896 303.634 204.616 303.058 205.576C302.482 206.52 302.194 207.68 302.194 209.056C302.194 210.928 302.626 212.472 303.49 213.688C304.354 214.888 305.65 215.488 307.378 215.488Z" fill="#00B6B6"/>
<path d="M275.374 226.528H290.974V232H269.422C269.326 231.488 269.246 230.976 269.182 230.464C269.118 229.936 269.086 229.328 269.086 228.64C269.086 226.608 269.414 224.872 270.07 223.432C270.742 221.992 271.718 220.704 272.998 219.568C274.294 218.432 275.886 217.312 277.774 216.208C278.814 215.6 279.854 214.928 280.894 214.192C281.934 213.456 282.798 212.584 283.486 211.576C284.19 210.552 284.542 209.312 284.542 207.856C284.542 206.608 284.15 205.496 283.366 204.52C282.598 203.544 281.358 203.056 279.646 203.056C277.87 203.056 276.446 203.632 275.374 204.784C274.318 205.936 273.646 207.424 273.358 209.248L268.27 206.848C268.526 205.184 269.174 203.664 270.214 202.288C271.254 200.896 272.614 199.792 274.294 198.976C275.974 198.144 277.902 197.728 280.078 197.728C282.062 197.728 283.862 198.104 285.478 198.856C287.094 199.592 288.382 200.672 289.342 202.096C290.302 203.52 290.782 205.248 290.782 207.28C290.782 209.36 290.406 211.16 289.654 212.68C288.902 214.2 287.79 215.584 286.318 216.832C284.862 218.08 283.07 219.344 280.942 220.624C279.438 221.536 278.198 222.392 277.222 223.192C276.262 223.976 275.646 225.088 275.374 226.528Z" fill="#00B6B6"/>
<path d="M330.235 224.248C328.859 224.248 327.843 223.836 327.187 223.012C326.531 222.18 326.203 221.08 326.203 219.712C326.203 218.104 326.567 216.94 327.295 216.22C328.023 215.492 329.003 215.128 330.235 215.128C331.459 215.128 332.423 215.492 333.127 216.22C333.839 216.94 334.195 218.112 334.195 219.736C334.195 220.624 334.067 221.408 333.811 222.088C333.563 222.76 333.147 223.288 332.563 223.672C331.987 224.056 331.211 224.248 330.235 224.248ZM330.211 232L339.379 215.272H341.731L332.563 232H330.211ZM330.211 222.448C330.611 222.448 330.907 222.324 331.099 222.076C331.291 221.828 331.415 221.504 331.471 221.104C331.527 220.696 331.555 220.256 331.555 219.784C331.555 218.832 331.459 218.124 331.267 217.66C331.083 217.188 330.715 216.952 330.163 216.952C329.635 216.952 329.271 217.184 329.071 217.648C328.871 218.112 328.771 218.8 328.771 219.712C328.771 220.464 328.859 221.108 329.035 221.644C329.211 222.18 329.603 222.448 330.211 222.448ZM341.827 232.36C340.435 232.36 339.415 231.944 338.767 231.112C338.119 230.272 337.795 229.168 337.795 227.8C337.795 226.2 338.155 225.036 338.875 224.308C339.595 223.58 340.571 223.216 341.803 223.216C343.027 223.216 343.995 223.584 344.707 224.32C345.427 225.048 345.787 226.224 345.787 227.848C345.787 228.728 345.659 229.508 345.403 230.188C345.147 230.868 344.727 231.4 344.143 231.784C343.567 232.168 342.795 232.36 341.827 232.36ZM341.755 230.512C342.171 230.512 342.475 230.392 342.667 230.152C342.859 229.912 342.983 229.592 343.039 229.192C343.095 228.792 343.123 228.352 343.123 227.872C343.123 226.92 343.031 226.212 342.847 225.748C342.663 225.276 342.299 225.04 341.755 225.04C341.203 225.04 340.831 225.272 340.639 225.736C340.455 226.2 340.363 226.896 340.363 227.824C340.363 228.568 340.443 229.204 340.603 229.732C340.771 230.252 341.155 230.512 341.755 230.512Z" fill="#00B6B6"/>
<path d="M103.025 201.44V194.64C102.665 195.307 102.299 195.933 101.925 196.52C101.565 197.093 101.259 197.533 101.005 197.84C100.899 197.667 100.752 197.48 100.565 197.28C100.379 197.067 100.179 196.873 99.9653 196.7C99.7653 196.527 99.592 196.4 99.4453 196.32C99.752 196.013 100.079 195.627 100.425 195.16C100.772 194.68 101.105 194.16 101.425 193.6C101.759 193.04 102.059 192.48 102.325 191.92C102.592 191.36 102.805 190.84 102.965 190.36H100.005V188.24H103.025V186.66C102.599 186.74 102.179 186.813 101.765 186.88C101.365 186.933 100.979 186.973 100.605 187C100.565 186.813 100.499 186.587 100.405 186.32C100.325 186.053 100.232 185.793 100.125 185.54C100.032 185.273 99.9386 185.06 99.8453 184.9C100.605 184.86 101.412 184.773 102.265 184.64C103.119 184.493 103.945 184.313 104.745 184.1C105.545 183.873 106.232 183.613 106.805 183.32L107.985 185.14C107.199 185.527 106.305 185.853 105.305 186.12V188.24H107.685V190.36H105.305V191.36C105.532 191.64 105.819 191.96 106.165 192.32C106.512 192.667 106.872 193 107.245 193.32C107.619 193.627 107.952 193.873 108.245 194.06C108.099 194.167 107.932 194.327 107.745 194.54C107.559 194.753 107.379 194.973 107.205 195.2C107.045 195.413 106.919 195.607 106.825 195.78C106.612 195.593 106.372 195.36 106.105 195.08C105.839 194.787 105.572 194.487 105.305 194.18V201.44H103.025ZM107.925 201.38C107.832 201.22 107.679 201.02 107.465 200.78C107.265 200.54 107.052 200.307 106.825 200.08C106.599 199.853 106.405 199.687 106.245 199.58C107.405 198.967 108.352 198.2 109.085 197.28C109.819 196.36 110.359 195.353 110.705 194.26C111.052 193.153 111.225 192.047 111.225 190.94V183.38H113.525V190.94C113.525 191.02 113.525 191.1 113.525 191.18C113.525 191.26 113.532 191.34 113.545 191.42C113.839 191.02 114.132 190.553 114.425 190.02C114.719 189.487 114.992 188.94 115.245 188.38C115.499 187.807 115.699 187.273 115.845 186.78L117.985 187.62C117.652 188.5 117.259 189.393 116.805 190.3C116.352 191.193 115.905 191.953 115.465 192.58C115.332 192.46 115.145 192.333 114.905 192.2C114.679 192.053 114.439 191.913 114.185 191.78C113.945 191.647 113.732 191.553 113.545 191.5C113.612 192.66 113.872 193.733 114.325 194.72C114.792 195.707 115.379 196.593 116.085 197.38C116.805 198.153 117.579 198.82 118.405 199.38C118.219 199.5 117.999 199.68 117.745 199.92C117.505 200.16 117.272 200.407 117.045 200.66C116.832 200.927 116.672 201.14 116.565 201.3C115.792 200.673 115.025 199.88 114.265 198.92C113.519 197.947 112.912 196.82 112.445 195.54C112.045 196.74 111.452 197.847 110.665 198.86C109.892 199.86 108.979 200.7 107.925 201.38ZM109.325 192.92C109.165 192.84 108.945 192.753 108.665 192.66C108.399 192.567 108.125 192.48 107.845 192.4C107.565 192.32 107.332 192.273 107.145 192.26C107.385 191.793 107.592 191.253 107.765 190.64C107.939 190.013 108.079 189.387 108.185 188.76C108.305 188.133 108.385 187.58 108.425 187.1L110.585 187.52C110.545 188.053 110.459 188.653 110.325 189.32C110.205 189.973 110.059 190.62 109.885 191.26C109.712 191.887 109.525 192.44 109.325 192.92Z" fill="#111111"/>
<path d="M90.3651 200.18C90.3118 199.967 90.2118 199.713 90.0651 199.42C89.9184 199.127 89.7451 198.847 89.5451 198.58C89.3584 198.3 89.1718 198.073 88.9851 197.9C90.8118 197.62 92.1984 197.027 93.1451 196.12C94.1051 195.2 94.6118 194.12 94.6651 192.88C94.7184 191.893 94.5384 191.013 94.1251 190.24C93.7118 189.467 93.1451 188.84 92.4251 188.36C91.7184 187.88 90.9384 187.593 90.0851 187.5C89.9784 188.74 89.7784 190.007 89.4851 191.3C89.1918 192.593 88.7918 193.807 88.2851 194.94C87.7918 196.073 87.1851 197.033 86.4651 197.82C85.9184 198.407 85.3851 198.747 84.8651 198.84C84.3584 198.933 83.8184 198.86 83.2451 198.62C82.6851 198.38 82.1918 198 81.7651 197.48C81.3384 196.96 81.0118 196.347 80.7851 195.64C80.5584 194.92 80.4651 194.153 80.5051 193.34C80.5718 192.127 80.8584 191.02 81.3651 190.02C81.8718 189.007 82.5518 188.133 83.4051 187.4C84.2584 186.667 85.2384 186.113 86.3451 185.74C87.4518 185.367 88.6318 185.213 89.8851 185.28C90.8984 185.333 91.8518 185.56 92.7451 185.96C93.6384 186.36 94.4184 186.913 95.0851 187.62C95.7651 188.313 96.2851 189.12 96.6451 190.04C97.0184 190.96 97.1718 191.967 97.1051 193.06C97.0118 194.887 96.3718 196.42 95.1851 197.66C93.9984 198.887 92.3918 199.727 90.3651 200.18ZM83.8651 196.14C84.0118 196.247 84.1651 196.3 84.3251 196.3C84.4851 196.3 84.6451 196.22 84.8051 196.06C85.2851 195.58 85.7251 194.9 86.1251 194.02C86.5384 193.14 86.8784 192.147 87.1451 191.04C87.4251 189.933 87.6051 188.807 87.6851 187.66C86.7651 187.873 85.9451 188.26 85.2251 188.82C84.5184 189.38 83.9584 190.06 83.5451 190.86C83.1318 191.647 82.8984 192.513 82.8451 193.46C82.8184 194.087 82.8984 194.633 83.0851 195.1C83.2851 195.553 83.5451 195.9 83.8651 196.14Z" fill="#111111"/>
<path d="M68.6853 201.48V197.14H59.6653V195.06H63.0453V190.1H68.6853V187.74H64.6253C64.1453 188.5 63.6253 189.22 63.0653 189.9C62.5186 190.567 61.9453 191.173 61.3453 191.72C61.132 191.493 60.852 191.24 60.5053 190.96C60.172 190.68 59.8186 190.447 59.4453 190.26C60.1786 189.66 60.872 188.953 61.5253 188.14C62.1786 187.313 62.7453 186.46 63.2253 185.58C63.7186 184.687 64.0853 183.847 64.3253 183.06L66.5853 183.76C66.3586 184.387 66.0986 185 65.8053 185.6H77.0453V187.74H71.1653V190.1H75.6253V192.18H71.1653V195.06H77.9053V197.14H71.1653V201.48H68.6853ZM65.5053 195.06H68.6853V192.18H65.5053V195.06Z" fill="#111111"/>
<path d="M53.5142 200.2C52.5676 200.2 51.7476 199.953 51.0542 199.46C50.3742 198.953 49.8809 198.213 49.5742 197.24L51.5342 196.58C51.6009 196.767 51.7076 196.987 51.8542 197.24C52.0009 197.48 52.2075 197.693 52.4742 197.88C52.7409 198.067 53.0742 198.16 53.4742 198.16C54.1542 198.16 54.6942 197.993 55.0942 197.66C55.4942 197.327 55.6942 196.767 55.6942 195.98C55.6942 195.273 55.4942 194.707 55.0942 194.28C54.6942 193.853 54.1209 193.64 53.3742 193.64H52.3742V191.68H53.3742C54.0409 191.68 54.5342 191.487 54.8542 191.1C55.1742 190.7 55.3342 190.213 55.3342 189.64C55.3342 188.973 55.1409 188.507 54.7542 188.24C54.3809 187.96 53.9542 187.82 53.4742 187.82C53.1275 187.82 52.8342 187.92 52.5942 188.12C52.3542 188.307 52.1542 188.527 51.9942 188.78C51.8476 189.02 51.7409 189.233 51.6742 189.42L49.7342 188.64C50.0809 187.733 50.5876 187.033 51.2542 186.54C51.9342 186.033 52.6876 185.78 53.5142 185.78C54.3276 185.78 55.0342 185.94 55.6342 186.26C56.2475 186.567 56.7209 187 57.0542 187.56C57.4009 188.12 57.5742 188.78 57.5742 189.54C57.5742 190.233 57.3876 190.86 57.0142 191.42C56.6542 191.967 56.1942 192.367 55.6342 192.62C56.3009 192.873 56.8409 193.307 57.2542 193.92C57.6809 194.533 57.8942 195.247 57.8942 196.06C57.8942 197.327 57.5076 198.333 56.7342 199.08C55.9742 199.827 54.9009 200.2 53.5142 200.2Z" fill="#111111"/>
<path d="M35.8959 201.58C35.8693 201.26 35.8026 200.867 35.6959 200.4C35.5893 199.947 35.4826 199.587 35.3759 199.32H37.3759C37.6426 199.32 37.8359 199.28 37.9559 199.2C38.0759 199.107 38.1359 198.927 38.1359 198.66V196.6H30.3359V194.56H38.1359V193.38H39.0359C39.2359 193.233 39.4959 193.033 39.8159 192.78C40.1493 192.513 40.4493 192.26 40.7159 192.02H33.8959V190.06H43.9959L44.8959 190.98C44.6426 191.233 44.3293 191.527 43.9559 191.86C43.5826 192.193 43.1893 192.533 42.7759 192.88C42.3626 193.227 41.9626 193.547 41.5759 193.84C41.2026 194.133 40.8826 194.373 40.6159 194.56H47.9959V196.6H40.5159V199.5C40.5159 200.887 39.6759 201.58 37.9959 201.58H35.8959ZM30.4959 191.64V186.92H33.5759C33.3893 186.493 33.1493 186.033 32.8559 185.54C32.5759 185.033 32.3093 184.633 32.0559 184.34L34.1159 183.4C34.3159 183.627 34.5293 183.927 34.7559 184.3C34.9959 184.66 35.2226 185.033 35.4359 185.42C35.6493 185.793 35.8093 186.12 35.9159 186.4L34.6959 186.92H38.1759C38.0693 186.613 37.9226 186.273 37.7359 185.9C37.5626 185.513 37.3759 185.14 37.1759 184.78C36.9759 184.42 36.7759 184.113 36.5759 183.86L38.7159 183.08C38.9159 183.307 39.1293 183.62 39.3559 184.02C39.5959 184.407 39.8159 184.807 40.0159 185.22C40.2293 185.633 40.3826 185.987 40.4759 186.28L38.8759 186.92H41.4959C41.7226 186.56 41.9559 186.153 42.1959 185.7C42.4493 185.233 42.6826 184.773 42.8959 184.32C43.1226 183.867 43.3026 183.487 43.4359 183.18L45.8359 183.8C45.6093 184.28 45.3359 184.807 45.0159 185.38C44.6959 185.953 44.3959 186.467 44.1159 186.92H47.8559V191.64H45.5559V188.84H32.7559V191.64H30.4959Z" fill="#111111"/>
<path d="M11.2544 201.58C11.1477 201.367 11.001 201.113 10.8144 200.82C10.641 200.54 10.4544 200.267 10.2544 200C10.0677 199.747 9.89438 199.547 9.73438 199.4C11.2144 198.88 12.521 198.173 13.6544 197.28C14.801 196.387 15.7277 195.367 16.4344 194.22C17.1544 193.073 17.6077 191.86 17.7944 190.58H10.3144V188.28H17.8944V183.34H20.4144V188.28H28.0144V190.58H20.5344C20.7477 191.833 21.221 193.04 21.9544 194.2C22.6877 195.347 23.621 196.367 24.7544 197.26C25.901 198.153 27.181 198.853 28.5944 199.36C28.421 199.533 28.2277 199.753 28.0144 200.02C27.8144 200.287 27.621 200.56 27.4344 200.84C27.261 201.133 27.1277 201.38 27.0344 201.58C25.9277 201.073 24.861 200.447 23.8344 199.7C22.8077 198.94 21.8877 198.08 21.0744 197.12C20.261 196.147 19.621 195.087 19.1544 193.94C18.6877 195.087 18.041 196.147 17.2144 197.12C16.3877 198.093 15.4544 198.953 14.4144 199.7C13.3877 200.447 12.3344 201.073 11.2544 201.58Z" fill="#111111"/>
<path d="M59.6719 247V215.704L66.1519 212.68V247H59.6719Z" fill="#00B6B6"/>
<path d="M38.0298 241.528H53.6298V247H32.0778C31.9818 246.488 31.9018 245.976 31.8378 245.464C31.7738 244.936 31.7418 244.328 31.7418 243.64C31.7418 241.608 32.0698 239.872 32.7258 238.432C33.3978 236.992 34.3738 235.704 35.6538 234.568C36.9498 233.432 38.5418 232.312 40.4298 231.208C41.4698 230.6 42.5098 229.928 43.5498 229.192C44.5898 228.456 45.4538 227.584 46.1418 226.576C46.8458 225.552 47.1978 224.312 47.1978 222.856C47.1978 221.608 46.8058 220.496 46.0218 219.52C45.2538 218.544 44.0138 218.056 42.3018 218.056C40.5258 218.056 39.1018 218.632 38.0298 219.784C36.9738 220.936 36.3018 222.424 36.0138 224.248L30.9258 221.848C31.1818 220.184 31.8298 218.664 32.8698 217.288C33.9098 215.896 35.2698 214.792 36.9498 213.976C38.6298 213.144 40.5578 212.728 42.7338 212.728C44.7178 212.728 46.5178 213.104 48.1338 213.856C49.7498 214.592 51.0378 215.672 51.9978 217.096C52.9578 218.52 53.4378 220.248 53.4378 222.28C53.4378 224.36 53.0618 226.16 52.3098 227.68C51.5578 229.2 50.4458 230.584 48.9738 231.832C47.5178 233.08 45.7258 234.344 43.5978 235.624C42.0938 236.536 40.8538 237.392 39.8778 238.192C38.9178 238.976 38.3018 240.088 38.0298 241.528Z" fill="#00B6B6"/>
<path d="M85.4851 239.248C84.1091 239.248 83.0931 238.836 82.4371 238.012C81.7811 237.18 81.4531 236.08 81.4531 234.712C81.4531 233.104 81.8171 231.94 82.5451 231.22C83.2731 230.492 84.2531 230.128 85.4851 230.128C86.7091 230.128 87.6731 230.492 88.3771 231.22C89.0891 231.94 89.4451 233.112 89.4451 234.736C89.4451 235.624 89.3171 236.408 89.0611 237.088C88.8131 237.76 88.3971 238.288 87.8131 238.672C87.2371 239.056 86.4611 239.248 85.4851 239.248ZM85.4611 247L94.6291 230.272H96.9811L87.8131 247H85.4611ZM85.4611 237.448C85.8611 237.448 86.1571 237.324 86.3491 237.076C86.5411 236.828 86.6651 236.504 86.7211 236.104C86.7771 235.696 86.8051 235.256 86.8051 234.784C86.8051 233.832 86.7091 233.124 86.5171 232.66C86.3331 232.188 85.9651 231.952 85.4131 231.952C84.8851 231.952 84.5211 232.184 84.3211 232.648C84.1211 233.112 84.0211 233.8 84.0211 234.712C84.0211 235.464 84.1091 236.108 84.2851 236.644C84.4611 237.18 84.8531 237.448 85.4611 237.448ZM97.0771 247.36C95.6851 247.36 94.6651 246.944 94.0171 246.112C93.3691 245.272 93.0451 244.168 93.0451 242.8C93.0451 241.2 93.4051 240.036 94.1251 239.308C94.8451 238.58 95.8211 238.216 97.0531 238.216C98.2771 238.216 99.2451 238.584 99.9571 239.32C100.677 240.048 101.037 241.224 101.037 242.848C101.037 243.728 100.909 244.508 100.653 245.188C100.397 245.868 99.9771 246.4 99.3931 246.784C98.8171 247.168 98.0451 247.36 97.0771 247.36ZM97.0051 245.512C97.4211 245.512 97.7251 245.392 97.9171 245.152C98.1091 244.912 98.2331 244.592 98.2891 244.192C98.3451 243.792 98.3731 243.352 98.3731 242.872C98.3731 241.92 98.2811 241.212 98.0971 240.748C97.9131 240.276 97.5491 240.04 97.0051 240.04C96.4531 240.04 96.0811 240.272 95.8891 240.736C95.7051 241.2 95.6131 241.896 95.6131 242.824C95.6131 243.568 95.6931 244.204 95.8531 244.732C96.0211 245.252 96.4051 245.512 97.0051 245.512Z" fill="#00B6B6"/>
<path d="M120.365 76.96C120.258 76.6133 120.098 76.2267 119.885 75.8C119.672 75.3733 119.472 75.0333 119.285 74.78C120.672 74.5 122.045 74.08 123.405 73.52C124.778 72.96 126.038 72.3 127.185 71.54C126.478 70.8067 125.838 69.9933 125.265 69.1C124.065 70.3 122.692 71.3333 121.145 72.2C120.972 71.9467 120.738 71.6467 120.445 71.3C120.165 70.94 119.892 70.66 119.625 70.46C120.558 69.98 121.465 69.3867 122.345 68.68C123.238 67.96 124.045 67.1867 124.765 66.36C125.485 65.5333 126.038 64.7 126.425 63.86L128.565 64.58C128.472 64.78 128.365 64.98 128.245 65.18C128.138 65.3667 128.032 65.5533 127.925 65.74H133.845L134.725 66.5C133.698 68.4467 132.385 70.14 130.785 71.58C131.892 72.2867 133.098 72.8733 134.405 73.34C135.712 73.7933 137.052 74.1333 138.425 74.36C138.292 74.5467 138.138 74.7867 137.965 75.08C137.792 75.36 137.632 75.6533 137.485 75.96C137.338 76.2667 137.232 76.5333 137.165 76.76C135.552 76.3467 134.058 75.84 132.685 75.24C131.312 74.6267 130.065 73.9 128.945 73.06C127.718 73.94 126.378 74.7067 124.925 75.36C123.485 76 121.965 76.5333 120.365 76.96ZM132.805 82.8C132.178 82.4533 131.472 82.1133 130.685 81.78C129.898 81.4467 129.072 81.1333 128.205 80.84C127.338 80.5467 126.472 80.2933 125.605 80.08C124.752 79.8533 123.932 79.68 123.145 79.56L124.065 77.52C124.812 77.6533 125.625 77.8333 126.505 78.06C127.385 78.2867 128.272 78.5467 129.165 78.84C130.072 79.1333 130.938 79.4467 131.765 79.78C132.592 80.1 133.332 80.4267 133.985 80.76C133.772 81 133.545 81.3267 133.305 81.74C133.078 82.1667 132.912 82.52 132.805 82.8ZM130.985 78.64C130.585 78.3333 130.105 78.0267 129.545 77.72C128.998 77.4133 128.438 77.1333 127.865 76.88C127.292 76.6133 126.765 76.4133 126.285 76.28L127.525 74.48C127.965 74.6133 128.478 74.8133 129.065 75.08C129.652 75.3333 130.232 75.6133 130.805 75.92C131.392 76.2133 131.892 76.5 132.305 76.78C132.198 76.8733 132.058 77.04 131.885 77.28C131.712 77.5067 131.538 77.7533 131.365 78.02C131.205 78.2733 131.078 78.48 130.985 78.64ZM128.965 70.2C129.872 69.4133 130.618 68.5733 131.205 67.68H126.825C127.398 68.6133 128.112 69.4533 128.965 70.2Z" fill="#111111"/>
<path d="M110.365 81.18C110.312 80.9667 110.212 80.7133 110.065 80.42C109.918 80.1267 109.745 79.8467 109.545 79.58C109.358 79.3 109.172 79.0733 108.985 78.9C110.812 78.62 112.198 78.0266 113.145 77.12C114.105 76.2 114.612 75.12 114.665 73.88C114.718 72.8933 114.538 72.0133 114.125 71.24C113.712 70.4667 113.145 69.84 112.425 69.36C111.718 68.88 110.938 68.5933 110.085 68.5C109.978 69.74 109.778 71.0067 109.485 72.3C109.192 73.5933 108.792 74.8066 108.285 75.94C107.792 77.0733 107.185 78.0333 106.465 78.82C105.918 79.4067 105.385 79.7467 104.865 79.84C104.358 79.9333 103.818 79.86 103.245 79.62C102.685 79.38 102.192 79 101.765 78.48C101.338 77.96 101.012 77.3466 100.785 76.64C100.558 75.92 100.465 75.1533 100.505 74.34C100.572 73.1267 100.858 72.02 101.365 71.02C101.872 70.0067 102.552 69.1333 103.405 68.4C104.258 67.6666 105.238 67.1133 106.345 66.74C107.452 66.3666 108.632 66.2133 109.885 66.28C110.898 66.3333 111.852 66.56 112.745 66.96C113.638 67.36 114.418 67.9133 115.085 68.62C115.765 69.3133 116.285 70.12 116.645 71.04C117.018 71.96 117.172 72.9667 117.105 74.06C117.012 75.8867 116.372 77.42 115.185 78.66C113.998 79.8867 112.392 80.7267 110.365 81.18ZM103.865 77.14C104.012 77.2466 104.165 77.3 104.325 77.3C104.485 77.3 104.645 77.22 104.805 77.06C105.285 76.58 105.725 75.9 106.125 75.02C106.538 74.14 106.878 73.1466 107.145 72.04C107.425 70.9333 107.605 69.8067 107.685 68.66C106.765 68.8733 105.945 69.26 105.225 69.82C104.518 70.38 103.958 71.06 103.545 71.86C103.132 72.6467 102.898 73.5133 102.845 74.46C102.818 75.0866 102.898 75.6333 103.085 76.1C103.285 76.5533 103.545 76.9 103.865 77.14Z" fill="#111111"/>
<path d="M88.6853 82.48V78.14H79.6653V76.06H83.0453V71.1H88.6853V68.74H84.6253C84.1453 69.5 83.6253 70.22 83.0653 70.9C82.5186 71.5667 81.9453 72.1733 81.3453 72.72C81.132 72.4933 80.852 72.24 80.5053 71.96C80.172 71.68 79.8186 71.4467 79.4453 71.26C80.1786 70.66 80.872 69.9533 81.5253 69.14C82.1786 68.3133 82.7453 67.46 83.2253 66.58C83.7186 65.6867 84.0853 64.8467 84.3253 64.06L86.5853 64.76C86.3586 65.3867 86.0986 66 85.8053 66.6H97.0453V68.74H91.1653V71.1H95.6253V73.18H91.1653V76.06H97.9053V78.14H91.1653V82.48H88.6853ZM85.5053 76.06H88.6853V73.18H85.5053V76.06Z" fill="#111111"/>
<path d="M73.5142 81.2C72.5676 81.2 71.7476 80.9534 71.0542 80.46C70.3742 79.9534 69.8809 79.2134 69.5742 78.24L71.5342 77.58C71.6009 77.7667 71.7076 77.9867 71.8542 78.24C72.0009 78.48 72.2075 78.6934 72.4742 78.88C72.7409 79.0667 73.0742 79.16 73.4742 79.16C74.1542 79.16 74.6942 78.9934 75.0942 78.66C75.4942 78.3267 75.6942 77.7667 75.6942 76.98C75.6942 76.2734 75.4942 75.7067 75.0942 75.28C74.6942 74.8534 74.1209 74.64 73.3742 74.64H72.3742V72.68H73.3742C74.0409 72.68 74.5342 72.4867 74.8542 72.1C75.1742 71.7 75.3342 71.2134 75.3342 70.64C75.3342 69.9734 75.1409 69.5067 74.7542 69.24C74.3809 68.96 73.9542 68.82 73.4742 68.82C73.1275 68.82 72.8342 68.92 72.5942 69.12C72.3542 69.3067 72.1542 69.5267 71.9942 69.78C71.8476 70.02 71.7409 70.2334 71.6742 70.42L69.7342 69.64C70.0809 68.7334 70.5876 68.0334 71.2542 67.54C71.9342 67.0334 72.6876 66.78 73.5142 66.78C74.3276 66.78 75.0342 66.94 75.6342 67.26C76.2475 67.5667 76.7209 68 77.0542 68.56C77.4009 69.12 77.5742 69.78 77.5742 70.54C77.5742 71.2334 77.3876 71.86 77.0142 72.42C76.6542 72.9667 76.1942 73.3667 75.6342 73.62C76.3009 73.8734 76.8409 74.3067 77.2542 74.92C77.6809 75.5334 77.8942 76.2467 77.8942 77.06C77.8942 78.3267 77.5076 79.3334 76.7342 80.08C75.9742 80.8267 74.9009 81.2 73.5142 81.2Z" fill="#111111"/>
<path d="M55.8959 82.58C55.8693 82.26 55.8026 81.8667 55.6959 81.4C55.5893 80.9467 55.4826 80.5867 55.3759 80.32H57.3759C57.6426 80.32 57.8359 80.28 57.9559 80.2C58.0759 80.1067 58.1359 79.9267 58.1359 79.66V77.6H50.3359V75.56H58.1359V74.38H59.0359C59.2359 74.2333 59.4959 74.0333 59.8159 73.78C60.1493 73.5133 60.4493 73.26 60.7159 73.02H53.8959V71.06H63.9959L64.8959 71.98C64.6426 72.2334 64.3293 72.5267 63.9559 72.86C63.5826 73.1934 63.1893 73.5333 62.7759 73.88C62.3626 74.2267 61.9626 74.5467 61.5759 74.84C61.2026 75.1334 60.8826 75.3733 60.6159 75.56H67.9959V77.6H60.5159V80.5C60.5159 81.8867 59.6759 82.58 57.9959 82.58H55.8959ZM50.4959 72.64V67.92H53.5759C53.3893 67.4933 53.1493 67.0333 52.8559 66.54C52.5759 66.0333 52.3093 65.6333 52.0559 65.34L54.1159 64.4C54.3159 64.6267 54.5293 64.9267 54.7559 65.3C54.9959 65.66 55.2226 66.0333 55.4359 66.42C55.6493 66.7933 55.8093 67.12 55.9159 67.4L54.6959 67.92H58.1759C58.0693 67.6133 57.9226 67.2734 57.7359 66.9C57.5626 66.5134 57.3759 66.14 57.1759 65.78C56.9759 65.42 56.7759 65.1133 56.5759 64.86L58.7159 64.08C58.9159 64.3067 59.1293 64.62 59.3559 65.02C59.5959 65.4067 59.8159 65.8067 60.0159 66.22C60.2293 66.6334 60.3826 66.9867 60.4759 67.28L58.8759 67.92H61.4959C61.7226 67.56 61.9559 67.1533 62.1959 66.7C62.4493 66.2333 62.6826 65.7733 62.8959 65.32C63.1226 64.8667 63.3026 64.4867 63.4359 64.18L65.8359 64.8C65.6093 65.28 65.3359 65.8067 65.0159 66.38C64.6959 66.9534 64.3959 67.4667 64.1159 67.92H67.8559V72.64H65.5559V69.84H52.7559V72.64H50.4959Z" fill="#111111"/>
<path d="M31.2544 82.58C31.1477 82.3667 31.001 82.1134 30.8144 81.82C30.641 81.54 30.4544 81.2667 30.2544 81C30.0677 80.7467 29.8944 80.5467 29.7344 80.4C31.2144 79.88 32.521 79.1734 33.6544 78.28C34.801 77.3867 35.7277 76.3667 36.4344 75.22C37.1544 74.0734 37.6077 72.86 37.7944 71.58H30.3144V69.28H37.8944V64.34H40.4144V69.28H48.0144V71.58H40.5344C40.7477 72.8334 41.221 74.04 41.9544 75.2C42.6877 76.3467 43.621 77.3667 44.7544 78.26C45.901 79.1534 47.181 79.8534 48.5944 80.36C48.421 80.5334 48.2277 80.7534 48.0144 81.02C47.8144 81.2867 47.621 81.56 47.4344 81.84C47.261 82.1334 47.1277 82.38 47.0344 82.58C45.9277 82.0734 44.861 81.4467 43.8344 80.7C42.8077 79.94 41.8877 79.08 41.0744 78.12C40.261 77.1467 39.621 76.0867 39.1544 74.94C38.6877 76.0867 38.041 77.1467 37.2144 78.12C36.3877 79.0934 35.4544 79.9534 34.4144 80.7C33.3877 81.4467 32.3344 82.0734 31.2544 82.58Z" fill="#111111"/>
<path d="M63.9375 121.424L76.2735 94.544H86.4015V117.296H90.4335V121.952H86.4015V128H80.1135V121.952H64.2735L63.9375 121.424ZM72.4815 117.296H80.4015L80.6175 97.976L75.2175 111.344L72.4815 117.296Z" fill="#00B6B6"/>
<path d="M53.0781 128V96.704L59.5581 93.68V128H53.0781Z" fill="#00B6B6"/>
<path d="M105.485 120.248C104.109 120.248 103.093 119.836 102.437 119.012C101.781 118.18 101.453 117.08 101.453 115.712C101.453 114.104 101.817 112.94 102.545 112.22C103.273 111.492 104.253 111.128 105.485 111.128C106.709 111.128 107.673 111.492 108.377 112.22C109.089 112.94 109.445 114.112 109.445 115.736C109.445 116.624 109.317 117.408 109.061 118.088C108.813 118.76 108.397 119.288 107.813 119.672C107.237 120.056 106.461 120.248 105.485 120.248ZM105.461 128L114.629 111.272H116.981L107.813 128H105.461ZM105.461 118.448C105.861 118.448 106.157 118.324 106.349 118.076C106.541 117.828 106.665 117.504 106.721 117.104C106.777 116.696 106.805 116.256 106.805 115.784C106.805 114.832 106.709 114.124 106.517 113.66C106.333 113.188 105.965 112.952 105.413 112.952C104.885 112.952 104.521 113.184 104.321 113.648C104.121 114.112 104.021 114.8 104.021 115.712C104.021 116.464 104.109 117.108 104.285 117.644C104.461 118.18 104.853 118.448 105.461 118.448ZM117.077 128.36C115.685 128.36 114.665 127.944 114.017 127.112C113.369 126.272 113.045 125.168 113.045 123.8C113.045 122.2 113.405 121.036 114.125 120.308C114.845 119.58 115.821 119.216 117.053 119.216C118.277 119.216 119.245 119.584 119.957 120.32C120.677 121.048 121.037 122.224 121.037 123.848C121.037 124.728 120.909 125.508 120.653 126.188C120.397 126.868 119.977 127.4 119.393 127.784C118.817 128.168 118.045 128.36 117.077 128.36ZM117.005 126.512C117.421 126.512 117.725 126.392 117.917 126.152C118.109 125.912 118.233 125.592 118.289 125.192C118.345 124.792 118.373 124.352 118.373 123.872C118.373 122.92 118.281 122.212 118.097 121.748C117.913 121.276 117.549 121.04 117.005 121.04C116.453 121.04 116.081 121.272 115.889 121.736C115.705 122.2 115.613 122.896 115.613 123.824C115.613 124.568 115.693 125.204 115.853 125.732C116.021 126.252 116.405 126.512 117.005 126.512Z" fill="#00B6B6"/>
<path d="M287.222 311.238C287.169 310.972 287.082 310.645 286.962 310.258C286.856 309.872 286.729 309.552 286.582 309.298C289.236 309.272 291.642 308.905 293.802 308.198C293.096 307.758 292.469 307.252 291.923 306.678C290.536 307.505 289.122 308.138 287.682 308.578C287.589 308.312 287.436 308.012 287.222 307.678C287.009 307.332 286.789 307.045 286.562 306.818C287.349 306.632 288.129 306.372 288.902 306.038C289.689 305.692 290.423 305.305 291.103 304.878C291.796 304.438 292.389 303.992 292.882 303.538H289.582V296.038H293.502C293.636 295.732 293.749 295.445 293.842 295.178H286.942V293.418H304.603V295.178H296.482C296.429 295.325 296.376 295.472 296.322 295.618C296.269 295.752 296.209 295.892 296.143 296.038H301.842V303.538H295.462C295.369 303.672 295.269 303.805 295.162 303.938C295.069 304.058 294.969 304.178 294.862 304.298H301.082L301.783 304.958C300.889 306.185 299.769 307.232 298.423 308.098C299.369 308.365 300.396 308.578 301.502 308.738C302.609 308.885 303.776 308.978 305.002 309.018C304.829 309.272 304.662 309.605 304.502 310.018C304.342 310.445 304.229 310.818 304.162 311.138C302.842 311.032 301.476 310.838 300.062 310.558C298.649 310.292 297.309 309.892 296.042 309.358C294.816 309.892 293.462 310.318 291.982 310.638C290.516 310.972 288.929 311.172 287.222 311.238ZM291.942 302.138H299.482V301.358H291.942V302.138ZM291.942 298.178H299.482V297.418H291.942V298.178ZM291.942 300.138H299.482V299.398H291.942V300.138ZM296.103 307.218C296.903 306.805 297.589 306.318 298.162 305.758H293.842C294.162 306.038 294.509 306.305 294.882 306.558C295.269 306.798 295.676 307.018 296.103 307.218Z" fill="#111111"/>
<path d="M277.303 309.838C277.249 309.625 277.149 309.372 277.003 309.078C276.856 308.785 276.683 308.505 276.483 308.238C276.296 307.958 276.109 307.732 275.923 307.558C277.749 307.278 279.136 306.685 280.083 305.778C281.043 304.858 281.549 303.778 281.603 302.538C281.656 301.552 281.476 300.672 281.063 299.898C280.649 299.125 280.083 298.498 279.363 298.018C278.656 297.538 277.876 297.252 277.023 297.158C276.916 298.398 276.716 299.665 276.423 300.958C276.129 302.252 275.729 303.465 275.223 304.598C274.729 305.732 274.123 306.692 273.403 307.478C272.856 308.065 272.323 308.405 271.803 308.498C271.296 308.592 270.756 308.518 270.183 308.278C269.623 308.038 269.129 307.658 268.703 307.138C268.276 306.618 267.949 306.005 267.723 305.298C267.496 304.578 267.403 303.812 267.443 302.998C267.509 301.785 267.796 300.678 268.303 299.678C268.809 298.665 269.489 297.792 270.343 297.058C271.196 296.325 272.176 295.772 273.283 295.398C274.389 295.025 275.569 294.872 276.823 294.938C277.836 294.992 278.789 295.218 279.683 295.618C280.576 296.018 281.356 296.572 282.023 297.278C282.703 297.972 283.223 298.778 283.583 299.698C283.956 300.618 284.109 301.625 284.043 302.718C283.949 304.545 283.309 306.078 282.123 307.318C280.936 308.545 279.329 309.385 277.303 309.838ZM270.803 305.798C270.949 305.905 271.103 305.958 271.263 305.958C271.423 305.958 271.583 305.878 271.743 305.718C272.223 305.238 272.663 304.558 273.063 303.678C273.476 302.798 273.816 301.805 274.083 300.698C274.363 299.592 274.543 298.465 274.623 297.318C273.703 297.532 272.883 297.918 272.163 298.478C271.456 299.038 270.896 299.718 270.483 300.518C270.069 301.305 269.836 302.172 269.783 303.118C269.756 303.745 269.836 304.292 270.023 304.758C270.223 305.212 270.483 305.558 270.803 305.798Z" fill="#111111"/>
<path d="M255.623 311.138V306.798H246.603V304.718H249.983V299.758H255.623V297.398H251.563C251.083 298.158 250.563 298.878 250.003 299.558C249.456 300.225 248.883 300.832 248.283 301.378C248.069 301.152 247.789 300.898 247.443 300.618C247.109 300.338 246.756 300.105 246.383 299.918C247.116 299.318 247.809 298.612 248.463 297.798C249.116 296.972 249.683 296.118 250.163 295.238C250.656 294.345 251.023 293.505 251.263 292.718L253.523 293.418C253.296 294.045 253.036 294.658 252.743 295.258H263.983V297.398H258.103V299.758H262.563V301.838H258.103V304.718H264.843V306.798H258.103V311.138H255.623ZM252.443 304.718H255.623V301.838H252.443V304.718Z" fill="#111111"/>
<path d="M240.456 309.858C239.509 309.858 238.689 309.612 237.996 309.118C237.316 308.612 236.822 307.872 236.516 306.898L238.476 306.238C238.542 306.425 238.649 306.645 238.796 306.898C238.942 307.138 239.149 307.352 239.416 307.538C239.682 307.725 240.016 307.818 240.416 307.818C241.096 307.818 241.636 307.652 242.036 307.318C242.436 306.985 242.636 306.425 242.636 305.638C242.636 304.932 242.436 304.365 242.036 303.938C241.636 303.512 241.062 303.298 240.316 303.298H239.316V301.338H240.316C240.982 301.338 241.476 301.145 241.796 300.758C242.116 300.358 242.276 299.872 242.276 299.298C242.276 298.632 242.082 298.165 241.696 297.898C241.322 297.618 240.896 297.478 240.416 297.478C240.069 297.478 239.776 297.578 239.536 297.778C239.296 297.965 239.096 298.185 238.936 298.438C238.789 298.678 238.682 298.892 238.616 299.078L236.676 298.298C237.022 297.392 237.529 296.692 238.196 296.198C238.876 295.692 239.629 295.438 240.456 295.438C241.269 295.438 241.976 295.598 242.576 295.918C243.189 296.225 243.662 296.658 243.996 297.218C244.342 297.778 244.516 298.438 244.516 299.198C244.516 299.892 244.329 300.518 243.956 301.078C243.596 301.625 243.136 302.025 242.576 302.278C243.242 302.532 243.782 302.965 244.196 303.578C244.622 304.192 244.836 304.905 244.836 305.718C244.836 306.985 244.449 307.992 243.676 308.738C242.916 309.485 241.842 309.858 240.456 309.858Z" fill="#111111"/>
<path d="M222.833 311.238C222.807 310.918 222.74 310.525 222.633 310.058C222.527 309.605 222.42 309.245 222.313 308.978H224.313C224.58 308.978 224.773 308.938 224.893 308.858C225.013 308.765 225.073 308.585 225.073 308.318V306.258H217.273V304.218H225.073V303.038H225.973C226.173 302.892 226.433 302.692 226.753 302.438C227.087 302.172 227.387 301.918 227.653 301.678H220.833V299.718H230.933L231.833 300.638C231.58 300.892 231.267 301.185 230.893 301.518C230.52 301.852 230.127 302.192 229.713 302.538C229.3 302.885 228.9 303.205 228.513 303.498C228.14 303.792 227.82 304.032 227.553 304.218H234.933V306.258H227.453V309.158C227.453 310.545 226.613 311.238 224.933 311.238H222.833ZM217.433 301.298V296.578H220.513C220.327 296.152 220.087 295.692 219.793 295.198C219.513 294.692 219.247 294.292 218.993 293.998L221.053 293.058C221.253 293.285 221.467 293.585 221.693 293.958C221.933 294.318 222.16 294.692 222.373 295.078C222.587 295.452 222.747 295.778 222.853 296.058L221.633 296.578H225.113C225.007 296.272 224.86 295.932 224.673 295.558C224.5 295.172 224.313 294.798 224.113 294.438C223.913 294.078 223.713 293.772 223.513 293.518L225.653 292.738C225.853 292.965 226.067 293.278 226.293 293.678C226.533 294.065 226.753 294.465 226.953 294.878C227.167 295.292 227.32 295.645 227.413 295.938L225.813 296.578H228.433C228.66 296.218 228.893 295.812 229.133 295.358C229.387 294.892 229.62 294.432 229.833 293.978C230.06 293.525 230.24 293.145 230.373 292.838L232.773 293.458C232.547 293.938 232.273 294.465 231.953 295.038C231.633 295.612 231.333 296.125 231.053 296.578H234.793V301.298H232.493V298.498H219.693V301.298H217.433Z" fill="#111111"/>
<path d="M198.196 311.238C198.089 311.025 197.942 310.772 197.756 310.478C197.582 310.198 197.396 309.925 197.196 309.658C197.009 309.405 196.836 309.205 196.676 309.058C198.156 308.538 199.462 307.832 200.596 306.938C201.742 306.045 202.669 305.025 203.376 303.878C204.096 302.732 204.549 301.518 204.736 300.238H197.256V297.938H204.836V292.998H207.356V297.938H214.956V300.238H207.476C207.689 301.492 208.162 302.698 208.896 303.858C209.629 305.005 210.562 306.025 211.696 306.918C212.842 307.812 214.122 308.512 215.536 309.018C215.362 309.192 215.169 309.412 214.956 309.678C214.756 309.945 214.562 310.218 214.376 310.498C214.202 310.792 214.069 311.038 213.976 311.238C212.869 310.732 211.802 310.105 210.776 309.358C209.749 308.598 208.829 307.738 208.016 306.778C207.202 305.805 206.562 304.745 206.096 303.598C205.629 304.745 204.982 305.805 204.156 306.778C203.329 307.752 202.396 308.612 201.356 309.358C200.329 310.105 199.276 310.732 198.196 311.238Z" fill="#111111"/>
<path d="M252.321 357.378C250.065 357.378 248.321 357.154 247.089 356.706C245.873 356.258 244.881 355.666 244.113 354.93L246.465 350.13C247.121 350.818 247.985 351.298 249.057 351.57C250.129 351.826 251.105 351.954 251.985 351.954C253.649 351.954 255.105 351.538 256.353 350.706C257.617 349.858 258.617 348.69 259.353 347.202C260.089 345.714 260.497 344.002 260.577 342.066C260.609 341.73 260.625 341.418 260.625 341.13C260.625 340.826 260.625 340.546 260.625 340.29C259.761 341.938 258.521 343.146 256.905 343.914C255.289 344.666 253.601 345.042 251.841 345.042C249.681 345.042 247.857 344.554 246.369 343.578C244.881 342.586 243.745 341.274 242.961 339.642C242.193 338.01 241.809 336.226 241.809 334.29C241.809 331.826 242.345 329.706 243.417 327.93C244.489 326.154 245.969 324.786 247.857 323.826C249.745 322.866 251.921 322.386 254.385 322.386C255.809 322.386 257.257 322.674 258.729 323.25C260.201 323.826 261.553 324.77 262.785 326.082C264.033 327.378 265.033 329.106 265.785 331.266C266.537 333.426 266.913 336.082 266.913 339.234C266.913 342.978 266.281 346.21 265.017 348.93C263.769 351.634 262.041 353.722 259.833 355.194C257.641 356.65 255.137 357.378 252.321 357.378ZM253.425 340.146C254.481 340.146 255.481 339.89 256.425 339.378C257.369 338.85 258.145 338.154 258.753 337.29C259.361 336.426 259.697 335.474 259.761 334.434C259.761 333.186 259.553 332.026 259.137 330.954C258.721 329.866 258.097 328.994 257.265 328.338C256.449 327.666 255.441 327.33 254.241 327.33C253.233 327.33 252.265 327.578 251.337 328.074C250.425 328.554 249.681 329.274 249.105 330.234C248.529 331.178 248.241 332.338 248.241 333.714C248.241 335.586 248.673 337.13 249.537 338.346C250.401 339.546 251.697 340.146 253.425 340.146Z" fill="#00B6B6"/>
<path d="M221.42 351.186H237.02V356.658H215.468C215.372 356.146 215.292 355.634 215.228 355.122C215.164 354.594 215.132 353.986 215.132 353.298C215.132 351.266 215.46 349.53 216.116 348.09C216.788 346.65 217.764 345.362 219.044 344.226C220.34 343.09 221.932 341.97 223.82 340.866C224.86 340.258 225.9 339.586 226.94 338.85C227.98 338.114 228.844 337.242 229.532 336.234C230.236 335.21 230.588 333.97 230.588 332.514C230.588 331.266 230.196 330.154 229.412 329.178C228.644 328.202 227.404 327.714 225.692 327.714C223.916 327.714 222.492 328.29 221.42 329.442C220.364 330.594 219.692 332.082 219.404 333.906L214.316 331.506C214.572 329.842 215.22 328.322 216.26 326.946C217.3 325.554 218.66 324.45 220.34 323.634C222.02 322.802 223.948 322.386 226.124 322.386C228.108 322.386 229.908 322.762 231.524 323.514C233.14 324.25 234.428 325.33 235.388 326.754C236.348 328.178 236.828 329.906 236.828 331.938C236.828 334.018 236.452 335.818 235.7 337.338C234.948 338.858 233.836 340.242 232.364 341.49C230.908 342.738 229.116 344.002 226.988 345.282C225.484 346.194 224.244 347.05 223.268 347.85C222.308 348.634 221.692 349.746 221.42 351.186Z" fill="#00B6B6"/>
<path d="M275.923 348.906C274.547 348.906 273.531 348.494 272.875 347.67C272.219 346.838 271.891 345.738 271.891 344.37C271.891 342.762 272.255 341.598 272.983 340.878C273.711 340.15 274.691 339.786 275.923 339.786C277.147 339.786 278.111 340.15 278.815 340.878C279.527 341.598 279.883 342.77 279.883 344.394C279.883 345.282 279.755 346.066 279.499 346.746C279.251 347.418 278.835 347.946 278.251 348.33C277.675 348.714 276.899 348.906 275.923 348.906ZM275.899 356.658L285.067 339.93H287.419L278.251 356.658H275.899ZM275.899 347.106C276.299 347.106 276.595 346.982 276.787 346.734C276.979 346.486 277.103 346.162 277.159 345.762C277.215 345.354 277.243 344.914 277.243 344.442C277.243 343.49 277.147 342.782 276.955 342.318C276.771 341.846 276.403 341.61 275.851 341.61C275.323 341.61 274.959 341.842 274.759 342.306C274.559 342.77 274.459 343.458 274.459 344.37C274.459 345.122 274.547 345.766 274.723 346.302C274.899 346.838 275.291 347.106 275.899 347.106ZM287.515 357.018C286.123 357.018 285.103 356.602 284.455 355.77C283.807 354.93 283.483 353.826 283.483 352.458C283.483 350.858 283.843 349.694 284.563 348.966C285.283 348.238 286.259 347.874 287.491 347.874C288.715 347.874 289.683 348.242 290.395 348.978C291.115 349.706 291.475 350.882 291.475 352.506C291.475 353.386 291.347 354.166 291.091 354.846C290.835 355.526 290.415 356.058 289.831 356.442C289.255 356.826 288.483 357.018 287.515 357.018ZM287.443 355.17C287.859 355.17 288.163 355.05 288.355 354.81C288.547 354.57 288.671 354.25 288.727 353.85C288.783 353.45 288.811 353.01 288.811 352.53C288.811 351.578 288.719 350.87 288.535 350.406C288.351 349.934 287.987 349.698 287.443 349.698C286.891 349.698 286.519 349.93 286.327 350.394C286.143 350.858 286.051 351.554 286.051 352.482C286.051 353.226 286.131 353.862 286.291 354.39C286.459 354.91 286.843 355.17 287.443 355.17Z" fill="#00B6B6"/>
</svg>
