<svg width="77" height="77" viewBox="0 0 77 77" fill="none" xmlns="http://www.w3.org/2000/svg">
<circle cx="38.5" cy="38.5" r="38.5" fill="#F8F8F8"/>
<g clip-path="url(#clip0_1019_10428)">
<path d="M25.8222 56.1367C25.8222 54.2265 25.6243 52.1735 26.0214 50.2931C26.7316 46.9301 29.1264 44.2423 32.3069 42.9478C32.5865 42.8335 32.2061 42.9442 32.2037 43.0288C32.2037 43.0133 32.5565 42.8978 32.6105 42.8775C32.848 42.7918 33.0868 42.712 33.3279 42.6358C33.875 42.4631 34.4305 42.3142 34.9908 42.1892C36.0286 41.9594 37.0796 41.8212 38.1426 41.7748C40.3177 41.6795 42.4833 41.9582 44.5625 42.6024C44.8036 42.6775 45.0424 42.7573 45.2799 42.8406C45.4071 42.8859 45.5535 42.9776 45.6866 42.9895C45.917 43.0097 45.6674 42.9776 45.5931 42.8775C45.821 43.1848 46.5409 43.3479 46.8792 43.5277C47.6159 43.9195 48.3009 44.3923 48.9164 44.9544C50.1474 46.0774 51.1 47.4945 51.6339 49.0712C52.3981 51.3268 52.1677 53.7907 52.1677 56.1367C52.1677 57.2859 53.9674 57.2882 53.9674 56.1367C53.9674 53.9133 54.1581 51.5804 53.6075 49.4059C53.1516 47.6029 52.2445 45.9273 51.0124 44.5305C50.3849 43.8195 49.6614 43.1967 48.8828 42.656C48.5313 42.4119 48.1653 42.188 47.7874 41.9868C47.5835 41.8784 47.3759 41.776 47.1659 41.6807C47.0628 41.6343 46.9536 41.5807 46.8456 41.5414C46.1126 41.2758 47.3675 41.8069 46.6836 41.4759C44.6309 40.4803 42.1102 40.0885 39.8498 39.9897C37.5295 39.8884 35.1683 40.1933 32.9512 40.8816C32.3981 41.0531 31.8342 41.2341 31.3075 41.4759C30.986 41.6235 31.2907 41.7283 31.3603 41.4521C31.3531 41.4806 31.0004 41.6033 30.9848 41.6104C30.746 41.7152 30.5109 41.8272 30.2805 41.9475C29.4323 42.3905 28.6429 42.9478 27.9278 43.5801C26.5277 44.8186 25.4731 46.3942 24.7952 48.1233C23.7934 50.6753 24.0226 53.4536 24.0226 56.1367C24.0226 57.2859 25.8222 57.2882 25.8222 56.1367Z" fill="#2B2B2B"/>
<path d="M45.7152 29.4539C45.6852 32.2048 43.9599 34.7831 41.3144 35.7191C38.639 36.6658 35.6516 35.8692 33.8195 33.7149C31.9995 31.5737 31.7883 28.4095 33.2317 26.0195C34.6522 23.6687 37.5064 22.3611 40.2311 22.8922C43.3996 23.5091 45.6804 26.2565 45.7152 29.4527C45.7272 30.6019 47.5268 30.6043 47.5148 29.4527C47.4764 25.9171 45.2724 22.7767 41.9419 21.5192C38.6294 20.2688 34.6882 21.331 32.447 24.0474C30.1867 26.7876 29.8279 30.7294 31.678 33.7875C33.5352 36.8576 37.1825 38.4224 40.7098 37.7352C44.6546 36.9671 47.4716 33.3933 47.5148 29.4516C47.5268 28.3012 45.7272 28.3012 45.7152 29.4516V29.4539Z" fill="#2B2B2B"/>
</g>
<defs>
<clipPath id="clip0_1019_10428">
<rect width="30" height="36" fill="white" transform="translate(24 21)"/>
</clipPath>
</defs>
</svg>
