<svg width="320" height="360" viewBox="0 0 320 360" fill="none" xmlns="http://www.w3.org/2000/svg">
<mask id="mask0_1096_6955" style="mask-type:alpha" maskUnits="userSpaceOnUse" x="0" y="0" width="320" height="360">
<rect width="320" height="360" fill="#D9D9D9"/>
</mask>
<g mask="url(#mask0_1096_6955)">
<path d="M148.319 283.98C147.653 284.353 147.026 284.507 146.439 284.44C145.853 284.36 145.333 283.98 144.879 283.3C144.466 282.66 144.086 281.907 143.739 281.04C143.393 280.173 143.093 279.253 142.839 278.28C142.599 277.307 142.413 276.333 142.279 275.36C142.159 274.387 142.106 273.473 142.119 272.62L144.559 272.64C144.519 273.293 144.539 274.007 144.619 274.78C144.699 275.553 144.826 276.333 144.999 277.12C145.173 277.907 145.379 278.64 145.619 279.32C145.859 279.987 146.119 280.547 146.399 281C146.586 281.32 146.786 281.507 146.999 281.56C147.226 281.6 147.466 281.54 147.719 281.38C148.039 281.167 148.373 280.873 148.719 280.5C149.079 280.127 149.379 279.767 149.619 279.42C149.686 279.62 149.793 279.847 149.939 280.1C150.099 280.353 150.266 280.6 150.439 280.84C150.626 281.08 150.793 281.273 150.939 281.42C150.579 281.953 150.166 282.447 149.699 282.9C149.246 283.353 148.786 283.713 148.319 283.98ZM155.879 280.24C155.746 279.853 155.539 279.373 155.259 278.8C154.979 278.227 154.659 277.633 154.299 277.02C153.939 276.393 153.579 275.82 153.219 275.3C152.859 274.767 152.526 274.353 152.219 274.06L154.139 272.84C154.473 273.173 154.839 273.62 155.239 274.18C155.653 274.74 156.053 275.34 156.439 275.98C156.839 276.607 157.193 277.22 157.499 277.82C157.806 278.407 158.026 278.907 158.159 279.32C157.746 279.4 157.326 279.527 156.899 279.7C156.486 279.873 156.146 280.053 155.879 280.24Z" fill="#111111"/>
<path d="M129.36 287.22C128.334 287.167 127.527 286.847 126.94 286.26C126.354 285.673 126.067 284.96 126.08 284.12C126.094 283.333 126.434 282.673 127.1 282.14C127.78 281.607 128.727 281.36 129.94 281.4C130.127 281.413 130.314 281.427 130.5 281.44C130.687 281.44 130.867 281.453 131.04 281.48V276.94H133.32V282.02C134.08 282.273 134.8 282.6 135.48 283C136.174 283.4 136.84 283.853 137.48 284.36C137.24 284.573 136.98 284.88 136.7 285.28C136.434 285.68 136.234 286.033 136.1 286.34C135.674 285.953 135.227 285.593 134.76 285.26C134.294 284.913 133.807 284.613 133.3 284.36C133.167 286.387 131.854 287.34 129.36 287.22ZM123.84 283.72C123.627 283.533 123.32 283.32 122.92 283.08C122.52 282.84 122.154 282.66 121.82 282.54C122.647 281.593 123.387 280.487 124.04 279.22C124.694 277.94 125.234 276.613 125.66 275.24C124.994 275.333 124.374 275.413 123.8 275.48C123.227 275.547 122.767 275.593 122.42 275.62L122.12 273.4C122.587 273.4 123.187 273.367 123.92 273.3C124.667 273.233 125.447 273.14 126.26 273.02C126.407 272.393 126.52 271.78 126.6 271.18C126.68 270.567 126.734 269.973 126.76 269.4L128.98 269.72C128.874 270.72 128.734 271.693 128.56 272.64C129.027 272.547 129.474 272.453 129.9 272.36C130.34 272.253 130.734 272.153 131.08 272.06L131.38 274.16C130.967 274.28 130.467 274.4 129.88 274.52C129.307 274.64 128.694 274.753 128.04 274.86C127.587 276.54 127 278.127 126.28 279.62C125.56 281.113 124.747 282.48 123.84 283.72ZM136.54 277.34C136.327 277.113 136.04 276.86 135.68 276.58C135.32 276.3 134.934 276.02 134.52 275.74C134.107 275.46 133.694 275.207 133.28 274.98C132.88 274.753 132.527 274.587 132.22 274.48L133.4 272.72C133.72 272.853 134.094 273.033 134.52 273.26C134.947 273.473 135.38 273.72 135.82 274C136.26 274.267 136.667 274.533 137.04 274.8C137.414 275.067 137.72 275.313 137.96 275.54L136.54 277.34ZM129.54 285.22C130.047 285.22 130.42 285.107 130.66 284.88C130.914 284.64 131.04 284.227 131.04 283.64V283.5C130.627 283.407 130.2 283.347 129.76 283.32C129.307 283.307 128.94 283.38 128.66 283.54C128.394 283.7 128.254 283.927 128.24 284.22C128.227 284.513 128.334 284.753 128.56 284.94C128.787 285.127 129.114 285.22 129.54 285.22Z" fill="#111111"/>
<path d="M108.538 287.38C108.352 287.06 108.085 286.707 107.738 286.32C107.392 285.947 107.058 285.647 106.738 285.42C108.565 284.7 109.972 283.62 110.958 282.18C111.958 280.74 112.458 278.98 112.458 276.9C112.458 275.633 112.232 274.753 111.778 274.26C111.338 273.753 110.805 273.52 110.178 273.56C109.685 273.587 109.225 273.867 108.798 274.4C108.372 274.92 108.058 275.673 107.858 276.66C107.672 277.647 107.678 278.853 107.878 280.28C107.692 280.293 107.445 280.327 107.138 280.38C106.845 280.433 106.558 280.493 106.278 280.56C106.012 280.627 105.812 280.687 105.678 280.74C105.585 280.247 105.505 279.627 105.438 278.88C105.385 278.133 105.338 277.327 105.298 276.46C105.272 275.593 105.252 274.727 105.238 273.86C105.238 272.993 105.252 272.193 105.278 271.46C105.305 270.727 105.345 270.133 105.398 269.68L107.838 269.9C107.772 270.22 107.705 270.633 107.638 271.14C107.585 271.633 107.538 272.16 107.498 272.72C107.458 273.28 107.432 273.82 107.418 274.34C107.725 273.5 108.165 272.807 108.738 272.26C109.325 271.7 109.972 271.413 110.678 271.4C111.492 271.387 112.218 271.587 112.858 272C113.498 272.4 114.005 273.013 114.378 273.84C114.752 274.653 114.938 275.673 114.938 276.9C114.938 279.473 114.372 281.607 113.238 283.3C112.118 284.98 110.552 286.34 108.538 287.38Z" fill="#111111"/>
<path d="M87.2206 287.08C86.0872 287.04 85.2072 286.727 84.5806 286.14C83.9539 285.553 83.6472 284.827 83.6606 283.96C83.6739 283.387 83.8606 282.873 84.2206 282.42C84.5806 281.967 85.0806 281.613 85.7206 281.36C86.3606 281.107 87.1006 281 87.9406 281.04C88.1672 281.04 88.3806 281.053 88.5806 281.08C88.7939 281.093 89.0072 281.113 89.2206 281.14L89.1606 278.84C88.9339 278.853 88.7006 278.86 88.4606 278.86C88.2339 278.86 88.0072 278.86 87.7806 278.86C86.9806 278.86 86.3472 278.8 85.8806 278.68C85.4272 278.547 85.0606 278.333 84.7806 278.04C84.5139 277.733 84.2472 277.313 83.9806 276.78L85.8606 275.84C86.0472 276.2 86.2672 276.433 86.5206 276.54C86.7739 276.633 87.2072 276.68 87.8206 276.68C88.0206 276.68 88.2272 276.68 88.4406 276.68C88.6672 276.667 88.8939 276.653 89.1206 276.64C89.1072 276.28 89.0939 275.913 89.0806 275.54C89.0806 275.167 89.0739 274.8 89.0606 274.44C88.0872 274.493 87.1672 274.533 86.3006 274.56C85.4339 274.573 84.7606 274.573 84.2806 274.56L84.1806 272.32C84.6472 272.36 85.3206 272.38 86.2006 272.38C87.0806 272.367 88.0206 272.34 89.0206 272.3C89.0072 271.82 89.0006 271.36 89.0006 270.92C89.0006 270.48 89.0006 270.073 89.0006 269.7H91.3206C91.3206 270.06 91.3206 270.447 91.3206 270.86C91.3206 271.273 91.3272 271.707 91.3406 272.16C92.2472 272.093 93.0806 272.02 93.8406 271.94C94.6006 271.847 95.1606 271.753 95.5206 271.66V273.86C95.1606 273.94 94.6006 274.02 93.8406 274.1C93.0939 274.167 92.2672 274.233 91.3606 274.3C91.3739 274.66 91.3806 275.027 91.3806 275.4C91.3939 275.76 91.4072 276.12 91.4206 276.48C92.2072 276.4 92.9539 276.307 93.6606 276.2C94.3672 276.08 94.9272 275.953 95.3406 275.82V278.16C94.8472 278.267 94.2606 278.367 93.5806 278.46C92.9139 278.553 92.2072 278.633 91.4606 278.7C91.4872 279.233 91.5006 279.747 91.5006 280.24C91.5139 280.733 91.5272 281.193 91.5406 281.62C92.5272 281.887 93.4606 282.233 94.3406 282.66C95.2206 283.087 96.0472 283.553 96.8206 284.06C96.6472 284.193 96.4539 284.393 96.2406 284.66C96.0406 284.913 95.8539 285.173 95.6806 285.44C95.5072 285.707 95.3739 285.933 95.2806 286.12C94.1606 285.173 92.9339 284.427 91.6006 283.88C91.5872 284.88 91.2339 285.673 90.5406 286.26C89.8606 286.86 88.7539 287.133 87.2206 287.08ZM87.3006 284.94C87.9939 284.967 88.4939 284.867 88.8006 284.64C89.1072 284.413 89.2606 284.113 89.2606 283.74V283.18C88.9806 283.127 88.7006 283.087 88.4206 283.06C88.1539 283.033 87.8872 283.02 87.6206 283.02C87.0606 283.02 86.6339 283.113 86.3406 283.3C86.0472 283.487 85.9006 283.713 85.9006 283.98C85.9006 284.58 86.3672 284.9 87.3006 284.94Z" fill="#111111"/>
<path d="M71.3016 287.22C71.2482 286.953 71.1349 286.613 70.9616 286.2C70.7882 285.787 70.5882 285.447 70.3616 285.18C72.0416 284.953 73.2949 284.467 74.1216 283.72C74.9482 282.96 75.3616 282.027 75.3616 280.92C75.3616 280.253 75.1949 279.687 74.8616 279.22C74.5416 278.74 74.0882 278.367 73.5016 278.1C72.4616 280.007 71.2949 281.6 70.0016 282.88C70.0816 283.133 70.1616 283.38 70.2416 283.62C70.3349 283.847 70.4282 284.073 70.5216 284.3C70.3082 284.353 70.0682 284.44 69.8016 284.56C69.5349 284.68 69.2749 284.807 69.0216 284.94C68.7682 285.06 68.5682 285.173 68.4216 285.28C68.3682 285.147 68.3149 285.013 68.2616 284.88C68.2082 284.733 68.1549 284.593 68.1016 284.46C67.3816 284.953 66.6682 285.313 65.9616 285.54C65.2549 285.753 64.5816 285.813 63.9416 285.72C63.5016 285.653 63.0816 285.42 62.6816 285.02C62.2949 284.607 62.1016 283.973 62.1016 283.12C62.1016 282.147 62.3149 281.24 62.7416 280.4C63.1682 279.56 63.7482 278.813 64.4816 278.16C65.2282 277.493 66.0749 276.96 67.0216 276.56C67.0216 276.16 67.0282 275.767 67.0416 275.38C67.0682 274.98 67.0882 274.587 67.1016 274.2C66.3016 274.253 65.5549 274.287 64.8616 274.3C64.1816 274.313 63.6149 274.293 63.1616 274.24L62.9816 272.08C63.5016 272.133 64.1349 272.167 64.8816 272.18C65.6282 272.193 66.4282 272.173 67.2816 272.12C67.3482 271.64 67.4082 271.18 67.4616 270.74C67.5282 270.3 67.6016 269.887 67.6816 269.5L69.9016 269.92C69.7682 270.533 69.6482 271.207 69.5416 271.94C70.5282 271.833 71.4682 271.693 72.3616 271.52C73.2682 271.347 74.0349 271.153 74.6616 270.94L74.8616 273.04C74.1949 273.24 73.3682 273.427 72.3816 273.6C71.3949 273.773 70.3682 273.913 69.3016 274.02C69.2749 274.327 69.2549 274.64 69.2416 274.96C69.2282 275.28 69.2149 275.6 69.2016 275.92C69.8016 275.8 70.4216 275.74 71.0616 275.74C71.2616 275.74 71.4549 275.747 71.6416 275.76C71.8416 275.773 72.0349 275.793 72.2216 275.82C72.3282 275.567 72.4282 275.313 72.5216 275.06C72.6149 274.793 72.7016 274.527 72.7816 274.26L74.9616 274.86C74.8682 275.113 74.7749 275.36 74.6816 275.6C74.5882 275.84 74.4882 276.08 74.3816 276.32C75.4349 276.733 76.2616 277.34 76.8616 278.14C77.4749 278.927 77.7816 279.86 77.7816 280.94C77.7816 282.073 77.5149 283.08 76.9816 283.96C76.4616 284.827 75.7149 285.533 74.7416 286.08C73.7816 286.64 72.6349 287.02 71.3016 287.22ZM65.4616 283.42C65.7282 283.353 66.0349 283.22 66.3816 283.02C66.7416 282.82 67.1149 282.56 67.5016 282.24C67.3949 281.68 67.3016 281.1 67.2216 280.5C67.1549 279.9 67.1082 279.293 67.0816 278.68C66.2549 279.16 65.5882 279.753 65.0816 280.46C64.5882 281.167 64.3416 281.907 64.3416 282.68C64.3416 283.093 64.4416 283.347 64.6416 283.44C64.8416 283.52 65.1149 283.513 65.4616 283.42ZM69.4616 280.34C69.7816 279.953 70.1016 279.533 70.4216 279.08C70.7416 278.627 71.0416 278.147 71.3216 277.64H71.0616C70.7416 277.64 70.4282 277.66 70.1216 277.7C69.8149 277.727 69.5149 277.773 69.2216 277.84C69.2616 278.68 69.3416 279.513 69.4616 280.34Z" fill="#111111"/>
<path d="M44.9017 287.16C44.6484 286.733 44.3084 286.273 43.8817 285.78C43.4684 285.287 43.0284 284.82 42.5617 284.38C42.1084 283.927 41.6751 283.553 41.2617 283.26L42.7817 281.88C43.0884 282.08 43.4217 282.34 43.7817 282.66C44.1417 282.967 44.5084 283.3 44.8817 283.66C45.2551 284.007 45.5951 284.347 45.9017 284.68C46.2217 285.013 46.4817 285.307 46.6817 285.56L44.9017 287.16Z" fill="#111111"/>
<path d="M28.3192 283.98C27.6525 284.353 27.0259 284.507 26.4392 284.44C25.8525 284.36 25.3325 283.98 24.8792 283.3C24.4659 282.66 24.0859 281.907 23.7392 281.04C23.3925 280.173 23.0925 279.253 22.8392 278.28C22.5992 277.307 22.4125 276.333 22.2792 275.36C22.1592 274.387 22.1059 273.473 22.1192 272.62L24.5592 272.64C24.5192 273.293 24.5392 274.007 24.6192 274.78C24.6992 275.553 24.8259 276.333 24.9992 277.12C25.1725 277.907 25.3792 278.64 25.6192 279.32C25.8592 279.987 26.1192 280.547 26.3992 281C26.5859 281.32 26.7859 281.507 26.9992 281.56C27.2259 281.6 27.4659 281.54 27.7192 281.38C28.0392 281.167 28.3725 280.873 28.7192 280.5C29.0792 280.127 29.3792 279.767 29.6192 279.42C29.6859 279.62 29.7925 279.847 29.9392 280.1C30.0992 280.353 30.2659 280.6 30.4392 280.84C30.6259 281.08 30.7925 281.273 30.9392 281.42C30.5792 281.953 30.1659 282.447 29.6992 282.9C29.2459 283.353 28.7859 283.713 28.3192 283.98ZM35.8792 280.24C35.7459 279.853 35.5392 279.373 35.2592 278.8C34.9792 278.227 34.6592 277.633 34.2992 277.02C33.9392 276.393 33.5792 275.82 33.2192 275.3C32.8592 274.767 32.5259 274.353 32.2192 274.06L34.1392 272.84C34.4725 273.173 34.8392 273.62 35.2392 274.18C35.6525 274.74 36.0525 275.34 36.4392 275.98C36.8392 276.607 37.1925 277.22 37.4992 277.82C37.8059 278.407 38.0259 278.907 38.1592 279.32C37.7459 279.4 37.3259 279.527 36.8992 279.7C36.4859 279.873 36.1459 280.053 35.8792 280.24Z" fill="#111111"/>
<path d="M9.36031 287.22C8.33365 287.167 7.52698 286.847 6.94031 286.26C6.35365 285.673 6.06698 284.96 6.08031 284.12C6.09365 283.333 6.43365 282.673 7.10031 282.14C7.78031 281.607 8.72698 281.36 9.94031 281.4C10.127 281.413 10.3136 281.427 10.5003 281.44C10.687 281.44 10.867 281.453 11.0403 281.48V276.94H13.3203V282.02C14.0803 282.273 14.8003 282.6 15.4803 283C16.1736 283.4 16.8403 283.853 17.4803 284.36C17.2403 284.573 16.9803 284.88 16.7003 285.28C16.4336 285.68 16.2336 286.033 16.1003 286.34C15.6736 285.953 15.227 285.593 14.7603 285.26C14.2936 284.913 13.807 284.613 13.3003 284.36C13.167 286.387 11.8536 287.34 9.36031 287.22ZM3.84031 283.72C3.62698 283.533 3.32031 283.32 2.92031 283.08C2.52031 282.84 2.15365 282.66 1.82031 282.54C2.64698 281.593 3.38698 280.487 4.04031 279.22C4.69365 277.94 5.23365 276.613 5.66031 275.24C4.99365 275.333 4.37365 275.413 3.80031 275.48C3.22698 275.547 2.76698 275.593 2.42031 275.62L2.12031 273.4C2.58698 273.4 3.18698 273.367 3.92031 273.3C4.66698 273.233 5.44698 273.14 6.26031 273.02C6.40698 272.393 6.52031 271.78 6.60031 271.18C6.68031 270.567 6.73365 269.973 6.76031 269.4L8.98031 269.72C8.87365 270.72 8.73365 271.693 8.56031 272.64C9.02698 272.547 9.47365 272.453 9.90031 272.36C10.3403 272.253 10.7336 272.153 11.0803 272.06L11.3803 274.16C10.967 274.28 10.467 274.4 9.88031 274.52C9.30698 274.64 8.69365 274.753 8.04031 274.86C7.58698 276.54 7.00031 278.127 6.28031 279.62C5.56031 281.113 4.74698 282.48 3.84031 283.72ZM16.5403 277.34C16.327 277.113 16.0403 276.86 15.6803 276.58C15.3203 276.3 14.9336 276.02 14.5203 275.74C14.107 275.46 13.6936 275.207 13.2803 274.98C12.8803 274.753 12.527 274.587 12.2203 274.48L13.4003 272.72C13.7203 272.853 14.0936 273.033 14.5203 273.26C14.947 273.473 15.3803 273.72 15.8203 274C16.2603 274.267 16.667 274.533 17.0403 274.8C17.4136 275.067 17.7203 275.313 17.9603 275.54L16.5403 277.34ZM9.54031 285.22C10.047 285.22 10.4203 285.107 10.6603 284.88C10.9136 284.64 11.0403 284.227 11.0403 283.64V283.5C10.627 283.407 10.2003 283.347 9.76031 283.32C9.30698 283.307 8.94031 283.38 8.66031 283.54C8.39365 283.7 8.25365 283.927 8.24031 284.22C8.22698 284.513 8.33365 284.753 8.56031 284.94C8.78698 285.127 9.11365 285.22 9.54031 285.22Z" fill="#111111"/>
<path d="M79.4036 356L93.0376 316.628H73.3516V308.604H104.428L89.1276 356H79.4036Z" fill="#00B6B6"/>
<path d="M44.2083 356L57.8423 316.628H38.1562V308.604H69.2323L53.9323 356H44.2083Z" fill="#00B6B6"/>
<path d="M109.689 345.664C107.854 345.664 106.499 345.115 105.625 344.016C104.75 342.907 104.312 341.44 104.312 339.616C104.312 337.472 104.798 335.92 105.769 334.96C106.739 333.989 108.046 333.504 109.689 333.504C111.321 333.504 112.606 333.989 113.545 334.96C114.494 335.92 114.969 337.483 114.969 339.648C114.969 340.832 114.798 341.877 114.457 342.784C114.126 343.68 113.571 344.384 112.793 344.896C112.025 345.408 110.99 345.664 109.689 345.664ZM109.657 356L121.881 333.696H125.017L112.793 356H109.657ZM109.657 343.264C110.19 343.264 110.585 343.099 110.841 342.768C111.097 342.437 111.262 342.005 111.337 341.472C111.411 340.928 111.449 340.341 111.449 339.712C111.449 338.443 111.321 337.499 111.065 336.88C110.819 336.251 110.329 335.936 109.593 335.936C108.889 335.936 108.403 336.245 108.137 336.864C107.87 337.483 107.737 338.4 107.737 339.616C107.737 340.619 107.854 341.477 108.089 342.192C108.323 342.907 108.846 343.264 109.657 343.264ZM125.145 356.48C123.289 356.48 121.929 355.925 121.065 354.816C120.201 353.696 119.769 352.224 119.769 350.4C119.769 348.267 120.248 346.715 121.208 345.744C122.169 344.773 123.47 344.288 125.112 344.288C126.745 344.288 128.035 344.779 128.985 345.76C129.944 346.731 130.424 348.299 130.424 350.464C130.424 351.637 130.254 352.677 129.913 353.584C129.571 354.491 129.011 355.2 128.233 355.712C127.465 356.224 126.435 356.48 125.145 356.48ZM125.049 354.016C125.603 354.016 126.009 353.856 126.264 353.536C126.521 353.216 126.686 352.789 126.761 352.256C126.835 351.723 126.873 351.136 126.873 350.496C126.873 349.227 126.75 348.283 126.505 347.664C126.259 347.035 125.774 346.72 125.049 346.72C124.312 346.72 123.817 347.029 123.561 347.648C123.315 348.267 123.193 349.195 123.193 350.432C123.193 351.424 123.299 352.272 123.513 352.976C123.736 353.669 124.248 354.016 125.049 354.016Z" fill="#00B6B6"/>
<path d="M264.039 286.64C262.439 286.64 261.259 286.34 260.499 285.74C259.739 285.127 259.359 284.38 259.359 283.5C259.359 282.927 259.499 282.44 259.779 282.04C260.059 281.64 260.426 281.333 260.879 281.12C261.332 280.893 261.819 280.78 262.339 280.78C263.326 280.78 264.119 281.087 264.719 281.7C265.332 282.313 265.726 283.073 265.899 283.98C266.392 283.753 266.792 283.407 267.099 282.94C267.419 282.473 267.579 281.913 267.579 281.26C267.579 280.7 267.446 280.2 267.179 279.76C266.912 279.32 266.532 278.973 266.039 278.72C265.559 278.453 264.999 278.32 264.359 278.32C263.466 278.32 262.686 278.427 262.019 278.64C261.366 278.853 260.772 279.193 260.239 279.66C259.999 279.873 259.679 280.147 259.279 280.48C258.892 280.813 258.526 281.113 258.179 281.38L256.539 279.62C257.139 279.273 257.779 278.833 258.459 278.3C259.139 277.767 259.826 277.173 260.519 276.52C261.212 275.867 261.872 275.193 262.499 274.5C263.126 273.793 263.686 273.1 264.179 272.42C263.606 272.553 262.979 272.68 262.299 272.8C261.632 272.92 260.986 273.02 260.359 273.1C259.746 273.18 259.226 273.233 258.799 273.26L258.359 270.98C258.719 271.007 259.166 271.007 259.699 270.98C260.246 270.94 260.832 270.893 261.459 270.84C262.086 270.773 262.692 270.693 263.279 270.6C263.879 270.507 264.412 270.413 264.879 270.32C265.359 270.213 265.712 270.107 265.939 270L267.739 271.2C267.286 272.093 266.659 273.033 265.859 274.02C265.072 274.993 264.226 275.933 263.319 276.84C263.546 276.733 263.799 276.653 264.079 276.6C264.359 276.533 264.632 276.5 264.899 276.5C265.952 276.5 266.866 276.7 267.639 277.1C268.412 277.5 269.012 278.06 269.439 278.78C269.879 279.487 270.099 280.313 270.099 281.26C270.099 282.26 269.846 283.167 269.339 283.98C268.846 284.793 268.146 285.44 267.239 285.92C266.332 286.4 265.266 286.64 264.039 286.64ZM263.779 284.44C263.712 283.933 263.552 283.527 263.299 283.22C263.059 282.913 262.739 282.76 262.339 282.76C262.126 282.76 261.946 282.813 261.799 282.92C261.652 283.027 261.579 283.187 261.579 283.4C261.579 283.68 261.726 283.913 262.019 284.1C262.326 284.287 262.832 284.393 263.539 284.42C263.579 284.433 263.619 284.44 263.659 284.44C263.699 284.44 263.739 284.44 263.779 284.44Z" fill="#111111"/>
<path d="M244.802 287.22C244.748 286.953 244.635 286.613 244.462 286.2C244.288 285.787 244.088 285.447 243.862 285.18C245.542 284.953 246.795 284.467 247.622 283.72C248.448 282.96 248.862 282.027 248.862 280.92C248.862 280.253 248.695 279.687 248.362 279.22C248.042 278.74 247.588 278.367 247.002 278.1C245.962 280.007 244.795 281.6 243.502 282.88C243.582 283.133 243.662 283.38 243.742 283.62C243.835 283.847 243.928 284.073 244.022 284.3C243.808 284.353 243.568 284.44 243.302 284.56C243.035 284.68 242.775 284.807 242.522 284.94C242.268 285.06 242.068 285.173 241.922 285.28C241.868 285.147 241.815 285.013 241.762 284.88C241.708 284.733 241.655 284.593 241.602 284.46C240.882 284.953 240.168 285.313 239.462 285.54C238.755 285.753 238.082 285.813 237.442 285.72C237.002 285.653 236.582 285.42 236.182 285.02C235.795 284.607 235.602 283.973 235.602 283.12C235.602 282.147 235.815 281.24 236.242 280.4C236.668 279.56 237.248 278.813 237.982 278.16C238.728 277.493 239.575 276.96 240.522 276.56C240.522 276.16 240.528 275.767 240.542 275.38C240.568 274.98 240.588 274.587 240.602 274.2C239.802 274.253 239.055 274.287 238.362 274.3C237.682 274.313 237.115 274.293 236.662 274.24L236.482 272.08C237.002 272.133 237.635 272.167 238.382 272.18C239.128 272.193 239.928 272.173 240.782 272.12C240.848 271.64 240.908 271.18 240.962 270.74C241.028 270.3 241.102 269.887 241.182 269.5L243.402 269.92C243.268 270.533 243.148 271.207 243.042 271.94C244.028 271.833 244.968 271.693 245.862 271.52C246.768 271.347 247.535 271.153 248.162 270.94L248.362 273.04C247.695 273.24 246.868 273.427 245.882 273.6C244.895 273.773 243.868 273.913 242.802 274.02C242.775 274.327 242.755 274.64 242.742 274.96C242.728 275.28 242.715 275.6 242.702 275.92C243.302 275.8 243.922 275.74 244.562 275.74C244.762 275.74 244.955 275.747 245.142 275.76C245.342 275.773 245.535 275.793 245.722 275.82C245.828 275.567 245.928 275.313 246.022 275.06C246.115 274.793 246.202 274.527 246.282 274.26L248.462 274.86C248.368 275.113 248.275 275.36 248.182 275.6C248.088 275.84 247.988 276.08 247.882 276.32C248.935 276.733 249.762 277.34 250.362 278.14C250.975 278.927 251.282 279.86 251.282 280.94C251.282 282.073 251.015 283.08 250.482 283.96C249.962 284.827 249.215 285.533 248.242 286.08C247.282 286.64 246.135 287.02 244.802 287.22ZM238.962 283.42C239.228 283.353 239.535 283.22 239.882 283.02C240.242 282.82 240.615 282.56 241.002 282.24C240.895 281.68 240.802 281.1 240.722 280.5C240.655 279.9 240.608 279.293 240.582 278.68C239.755 279.16 239.088 279.753 238.582 280.46C238.088 281.167 237.842 281.907 237.842 282.68C237.842 283.093 237.942 283.347 238.142 283.44C238.342 283.52 238.615 283.513 238.962 283.42ZM242.962 280.34C243.282 279.953 243.602 279.533 243.922 279.08C244.242 278.627 244.542 278.147 244.822 277.64H244.562C244.242 277.64 243.928 277.66 243.622 277.7C243.315 277.727 243.015 277.773 242.722 277.84C242.762 278.68 242.842 279.513 242.962 280.34Z" fill="#111111"/>
<path d="M259.329 357.02C256.745 357.02 254.252 356.703 251.849 356.068C249.447 355.433 247.293 354.436 245.389 353.076L248.245 345.324C249.537 346.571 251.113 347.545 252.971 348.248C254.83 348.928 256.655 349.268 258.445 349.268C261.505 349.268 263.749 348.543 265.177 347.092C266.628 345.641 267.353 343.828 267.353 341.652C267.353 339.816 266.9 338.422 265.993 337.47C265.109 336.495 263.942 335.827 262.491 335.464C261.041 335.101 259.488 334.92 257.833 334.92H254.229V328.188H257.901C260.689 328.188 262.752 327.508 264.089 326.148C265.449 324.765 266.129 323.043 266.129 320.98C266.129 318.736 265.461 317.217 264.123 316.424C262.786 315.608 260.893 315.2 258.445 315.2C257.561 315.2 256.496 315.359 255.249 315.676C254.025 315.993 252.801 316.458 251.577 317.07C250.353 317.682 249.333 318.441 248.517 319.348L245.117 312.14C246.523 310.916 248.506 309.828 251.067 308.876C253.651 307.924 256.723 307.448 260.281 307.448C264.973 307.448 268.702 308.513 271.467 310.644C274.255 312.752 275.649 315.744 275.649 319.62C275.649 321.343 275.343 323.031 274.731 324.686C274.119 326.341 273.224 327.791 272.045 329.038C270.867 330.262 269.439 331.089 267.761 331.52C269.688 331.52 271.331 332.053 272.691 333.118C274.074 334.183 275.128 335.566 275.853 337.266C276.579 338.966 276.941 340.768 276.941 342.672C276.941 345.664 276.148 348.237 274.561 350.39C272.975 352.521 270.844 354.164 268.169 355.32C265.517 356.453 262.571 357.02 259.329 357.02Z" fill="#00B6B6"/>
<path d="M217.13 348.248H239.23V356H208.698C208.562 355.275 208.449 354.549 208.358 353.824C208.268 353.076 208.222 352.215 208.222 351.24C208.222 348.361 208.687 345.902 209.616 343.862C210.568 341.822 211.951 339.997 213.764 338.388C215.6 336.779 217.856 335.192 220.53 333.628C222.004 332.767 223.477 331.815 224.95 330.772C226.424 329.729 227.648 328.494 228.622 327.066C229.62 325.615 230.118 323.859 230.118 321.796C230.118 320.028 229.563 318.453 228.452 317.07C227.364 315.687 225.608 314.996 223.182 314.996C220.666 314.996 218.649 315.812 217.13 317.444C215.634 319.076 214.682 321.184 214.274 323.768L207.066 320.368C207.429 318.011 208.347 315.857 209.82 313.908C211.294 311.936 213.22 310.372 215.6 309.216C217.98 308.037 220.712 307.448 223.794 307.448C226.605 307.448 229.155 307.981 231.444 309.046C233.734 310.089 235.558 311.619 236.918 313.636C238.278 315.653 238.958 318.101 238.958 320.98C238.958 323.927 238.426 326.477 237.36 328.63C236.295 330.783 234.72 332.744 232.634 334.512C230.572 336.28 228.033 338.071 225.018 339.884C222.888 341.176 221.131 342.389 219.748 343.522C218.388 344.633 217.516 346.208 217.13 348.248Z" fill="#00B6B6"/>
<path d="M287.314 345.664C285.479 345.664 284.124 345.115 283.25 344.016C282.375 342.907 281.938 341.44 281.938 339.616C281.938 337.472 282.423 335.92 283.394 334.96C284.364 333.989 285.671 333.504 287.314 333.504C288.946 333.504 290.231 333.989 291.17 334.96C292.119 335.92 292.594 337.483 292.594 339.648C292.594 340.832 292.423 341.877 292.082 342.784C291.751 343.68 291.196 344.384 290.418 344.896C289.65 345.408 288.615 345.664 287.314 345.664ZM287.282 356L299.506 333.696H302.642L290.418 356H287.282ZM287.282 343.264C287.815 343.264 288.21 343.099 288.466 342.768C288.722 342.437 288.887 342.005 288.962 341.472C289.036 340.928 289.074 340.341 289.074 339.712C289.074 338.443 288.946 337.499 288.69 336.88C288.444 336.251 287.954 335.936 287.218 335.936C286.514 335.936 286.028 336.245 285.762 336.864C285.495 337.483 285.362 338.4 285.362 339.616C285.362 340.619 285.479 341.477 285.714 342.192C285.948 342.907 286.471 343.264 287.282 343.264ZM302.77 356.48C300.914 356.48 299.554 355.925 298.69 354.816C297.826 353.696 297.394 352.224 297.394 350.4C297.394 348.267 297.873 346.715 298.833 345.744C299.794 344.773 301.095 344.288 302.737 344.288C304.37 344.288 305.66 344.779 306.61 345.76C307.569 346.731 308.049 348.299 308.049 350.464C308.049 351.637 307.879 352.677 307.538 353.584C307.196 354.491 306.636 355.2 305.858 355.712C305.09 356.224 304.06 356.48 302.77 356.48ZM302.674 354.016C303.228 354.016 303.634 353.856 303.889 353.536C304.146 353.216 304.311 352.789 304.386 352.256C304.46 351.723 304.498 351.136 304.498 350.496C304.498 349.227 304.375 348.283 304.13 347.664C303.884 347.035 303.399 346.72 302.674 346.72C301.938 346.72 301.442 347.029 301.186 347.648C300.94 348.267 300.818 349.195 300.818 350.432C300.818 351.424 300.924 352.272 301.138 352.976C301.361 353.669 301.873 354.016 302.674 354.016Z" fill="#00B6B6"/>
<path d="M160 322.888C159.04 322.888 158.192 322.568 157.456 321.928C156.72 321.256 156.352 320.376 156.352 319.288C156.352 318.2 156.72 317.336 157.456 316.696C158.192 316.024 159.04 315.688 160 315.688C160.96 315.688 161.808 316.024 162.544 316.696C163.28 317.336 163.648 318.2 163.648 319.288C163.648 320.376 163.28 321.256 162.544 321.928C161.808 322.568 160.96 322.888 160 322.888ZM160 346.408C159.04 346.408 158.192 346.088 157.456 345.448C156.72 344.776 156.352 343.896 156.352 342.808C156.352 341.688 156.72 340.808 157.456 340.168C158.192 339.496 159.04 339.16 160 339.16C160.96 339.16 161.808 339.496 162.544 340.168C163.28 340.808 163.648 341.688 163.648 342.808C163.648 343.896 163.28 344.776 162.544 345.448C161.808 346.088 160.96 346.408 160 346.408Z" fill="#00B6B6"/>
<path d="M160 3C184.376 3 208.175 10.4237 228.227 24.2831C248.28 38.1425 263.637 57.7803 272.253 80.583C280.87 103.386 282.337 128.272 276.461 151.929C270.584 175.586 257.642 196.893 239.357 213.013C221.073 229.134 198.312 239.303 174.105 242.168C149.897 245.033 125.391 240.458 103.848 229.052C82.3056 217.645 64.7473 199.949 53.5105 178.317C42.2737 156.685 37.8912 132.144 40.9463 107.96L100.473 115.48C98.9456 127.572 101.137 139.842 106.755 150.658C112.374 161.474 121.153 170.323 131.924 176.026C142.696 181.729 154.949 184.017 167.052 182.584C179.156 181.151 190.536 176.067 199.679 168.007C208.821 159.946 215.292 149.293 218.23 137.464C221.169 125.636 220.435 113.193 216.127 101.791C211.818 90.3901 204.14 80.5712 194.114 73.6415C184.087 66.7118 172.188 63 160 63L160 3Z" fill="#00B6B6"/>
<path d="M40.9453 107.96C44.6077 78.9692 58.7225 52.311 80.6416 32.9867C102.561 13.6624 130.778 3 159.999 3V63C145.388 63 131.28 68.3312 120.32 77.9933C109.361 87.6555 102.303 100.985 100.472 115.48L40.9453 107.96Z" fill="#54D2D2"/>
</g>
</svg>
