<svg width="12" height="18" viewBox="0 0 12 18" fill="none" xmlns="http://www.w3.org/2000/svg">
<path d="M10.8272 11.4463C11.1201 11.7392 11.1201 12.2149 10.8272 12.5078L6.05377 17.2803C5.76087 17.5732 5.28611 17.5732 4.99322 17.2803L0.219783 12.5078C-0.0731103 12.2149 -0.0731103 11.7392 0.219783 11.4463C0.512676 11.1534 0.988413 11.1534 1.28131 11.4463L4.77349 14.9395L4.77349 0.75C4.77349 0.335787 5.10928 1.17973e-07 5.52349 1.09743e-07C5.93771 1.01513e-07 6.27349 0.335787 6.27349 0.75L6.27349 14.9395L9.76568 11.4463C10.0586 11.1534 10.5343 11.1534 10.8272 11.4463Z" fill="#59BFBF"/>
</svg>
