<svg width="25" height="25" viewBox="0 0 25 25" fill="none" xmlns="http://www.w3.org/2000/svg">
<rect width="25" height="25" rx="12.5" fill="#59BFBF"/>
<path d="M17.5 11.75C17.9142 11.75 18.25 12.0858 18.25 12.5C18.25 12.9142 17.9142 13.25 17.5 13.25H7.5C7.08579 13.25 6.75 12.9142 6.75 12.5C6.75 12.0858 7.08579 11.75 7.5 11.75H17.5Z" fill="white"/>
<path d="M13.25 17.5C13.25 17.9142 12.9142 18.25 12.5 18.25C12.0858 18.25 11.75 17.9142 11.75 17.5V7.5C11.75 7.08579 12.0858 6.75 12.5 6.75C12.9142 6.75 13.25 7.08579 13.25 7.5V17.5Z" fill="white"/>
</svg>
